<svg xmlns="http://www.w3.org/2000/svg" viewBox="0 0 1896 5154.75"><defs><style>.cls-1{fill:#fff;stroke:#005d98;stroke-width:3px;}</style></defs><title>Artboard 1</title><g id="Layer_2" data-name="Layer 2"><g id="_Group_" data-name="&lt;Group&gt;"><path class="cls-1" d="M-88.47,4010.28c-34.69,0-53.36,26.68-53.36,64s18.68,64,53.36,64,53.36-26.68,53.36-64S-53.79,4010.28-88.47,4010.28Zm0,160.09c-56,0-90.72-40-90.72-96.05s34.69-96.05,90.72-96.05,90.72,40,90.72,96.05S-32.44,4170.36-88.47,4170.36Z"/><path class="cls-1" d="M-83.38,4005.18c-34.69,0-53.36,26.68-53.36,64s18.68,64,53.36,64,53.36-26.68,53.36-64S-48.69,4005.18-83.38,4005.18Zm0,160.09c-56,0-90.72-40-90.72-96.05s34.69-96.05,90.72-96.05,90.72,40,90.72,96.05S-27.35,4165.27-83.38,4165.27Z"/><path class="cls-1" d="M-78.28,4000.08c-34.69,0-53.36,26.68-53.36,64s18.68,64,53.36,64,53.36-26.68,53.36-64S-43.59,4000.08-78.28,4000.08Zm0,160.09c-56,0-90.72-40-90.72-96.05s34.69-96.05,90.72-96.05,90.72,40,90.72,96.05S-22.25,4160.17-78.28,4160.17Z"/><path class="cls-1" d="M-73.18,3995c-34.69,0-53.36,26.68-53.36,64s18.68,64,53.36,64,53.36-26.68,53.36-64S-38.5,3995-73.18,3995Zm0,160.09c-56,0-90.72-40-90.72-96.05S-129.22,3963-73.18,3963s90.72,40,90.72,96.05S-17.15,4155.08-73.18,4155.08Z"/><path class="cls-1" d="M-68.09,3989.89c-34.69,0-53.36,26.68-53.36,64s18.68,64,53.36,64,53.36-26.68,53.36-64S-33.4,3989.89-68.09,3989.89Zm0,160.09c-56,0-90.72-40-90.72-96.05s34.69-96.05,90.72-96.05,90.72,40,90.72,96.05S-12.06,4150-68.09,4150Z"/><path class="cls-1" d="M-63,3984.79c-34.69,0-53.36,26.68-53.36,64s18.68,64,53.36,64,53.36-26.68,53.36-64S-28.3,3984.79-63,3984.79Zm0,160.09c-56,0-90.72-40-90.72-96.05S-119,3952.78-63,3952.78s90.72,40,90.72,96.05S-7,4144.88-63,4144.88Z"/><path class="cls-1" d="M-57.89,3979.7c-34.69,0-53.36,26.68-53.36,64s18.68,64,53.36,64,53.36-26.68,53.36-64S-23.21,3979.7-57.89,3979.7Zm0,160.09c-56,0-90.72-40-90.72-96.05s34.69-96.05,90.72-96.05,90.72,40,90.72,96.05S-1.86,4139.79-57.89,4139.79Z"/><path class="cls-1" d="M-52.8,3974.6c-34.69,0-53.36,26.68-53.36,64s18.68,64,53.36,64S.56,4076,.56,4038.64-18.11,3974.6-52.8,3974.6Zm0,160.09c-56,0-90.72-40-90.72-96.05s34.69-96.05,90.72-96.05,90.72,40,90.72,96.05S3.23,4134.69-52.8,4134.69Z"/><path class="cls-1" d="M-47.7,3969.5c-34.69,0-53.36,26.68-53.36,64s18.68,64,53.36,64,53.36-26.68,53.36-64S-13,3969.5-47.7,3969.5Zm0,160.09c-56,0-90.72-40-90.72-96.05s34.69-96.05,90.72-96.05,90.72,40,90.72,96.05S8.33,4129.59-47.7,4129.59Z"/><path class="cls-1" d="M-42.61,3964.41c-34.69,0-53.36,26.68-53.36,64s18.68,64,53.36,64,53.36-26.68,53.36-64S-7.92,3964.41-42.61,3964.41Zm0,160.09c-56,0-90.72-40-90.72-96.05s34.69-96.05,90.72-96.05,90.72,40,90.72,96.05S13.43,4124.5-42.61,4124.5Z"/><path class="cls-1" d="M-37.51,3959.31c-34.69,0-53.36,26.68-53.36,64s18.68,64,53.36,64,53.36-26.68,53.36-64S-2.82,3959.31-37.51,3959.31Zm0,160.09c-56,0-90.72-40-90.72-96.05s34.69-96.05,90.72-96.05,90.72,40,90.72,96.05S18.52,4119.4-37.51,4119.4Z"/><path class="cls-1" d="M-32.41,3954.21c-34.69,0-53.36,26.68-53.36,64s18.68,64,53.36,64S21,4055.6,21,4018.25,2.27,3954.21-32.41,3954.21Zm0,160.09c-56,0-90.72-40-90.72-96.05s34.69-96.05,90.72-96.05,90.72,40,90.72,96.05S23.62,4114.3-32.41,4114.3Z"/><path class="cls-1" d="M-27.32,3949.12c-34.69,0-53.36,26.68-53.36,64s18.68,64,53.36,64,53.36-26.68,53.36-64S7.37,3949.12-27.32,3949.12Zm0,160.09c-56,0-90.72-40-90.72-96.05s34.69-96.05,90.72-96.05,90.72,40,90.72,96.05S28.71,4109.21-27.32,4109.21Z"/><path class="cls-1" d="M-22.22,3944c-34.69,0-53.36,26.68-53.36,64s18.68,64,53.36,64,53.36-26.68,53.36-64S12.47,3944-22.22,3944Zm0,160.09c-56,0-90.72-40-90.72-96.05S-78.25,3912-22.22,3912s90.72,40,90.72,96.05S33.81,4104.11-22.22,4104.11Z"/><path class="cls-1" d="M-17.12,3938.93c-34.69,0-53.36,26.68-53.36,64s18.68,64,53.36,64,53.36-26.68,53.36-64S17.56,3938.93-17.12,3938.93Zm0,160.09c-56,0-90.72-40-90.72-96.05s34.69-96.05,90.72-96.05,90.72,40,90.72,96.05S38.91,4099-17.12,4099Z"/><path class="cls-1" d="M-12,3933.83c-34.69,0-53.36,26.68-53.36,64s18.68,64,53.36,64,53.36-26.68,53.36-64S22.66,3933.83-12,3933.83Zm0,160.09c-56,0-90.72-40-90.72-96.05s34.69-96.05,90.72-96.05,90.72,40,90.72,96.05S44,4093.92-12,4093.92Z"/><path class="cls-1" d="M-6.93,3928.73c-34.69,0-53.36,26.68-53.36,64s18.68,64,53.36,64,53.36-26.68,53.36-64S27.76,3928.73-6.93,3928.73Zm0,160.09c-56,0-90.72-40-90.72-96.05s34.69-96.05,90.72-96.05,90.72,40,90.72,96.05S49.1,4088.82-6.93,4088.82Z"/><path class="cls-1" d="M-1.83,3923.64c-34.69,0-53.36,26.68-53.36,64s18.68,64,53.36,64,53.36-26.68,53.36-64S32.85,3923.64-1.83,3923.64Zm0,160.09c-56,0-90.72-40-90.72-96.05s34.69-96.05,90.72-96.05,90.72,40,90.72,96.05S54.2,4083.73-1.83,4083.73Z"/><path class="cls-1" d="M3.26,3918.54c-34.69,0-53.36,26.68-53.36,64s18.68,64,53.36,64,53.36-26.68,53.36-64S37.95,3918.54,3.26,3918.54Zm0,160.09c-56,0-90.72-40-90.72-96.05s34.69-96.05,90.72-96.05,90.72,40,90.72,96.05S59.29,4078.63,3.26,4078.63Z"/><path class="cls-1" d="M8.36,3913.44c-34.69,0-53.36,26.68-53.36,64s18.68,64,53.36,64,53.36-26.68,53.36-64S43,3913.44,8.36,3913.44Zm0,160.09c-56,0-90.72-40-90.72-96.05s34.69-96.05,90.72-96.05,90.72,40,90.72,96.05S64.39,4073.53,8.36,4073.53Z"/><path class="cls-1" d="M13.45,3908.35c-34.69,0-53.36,26.68-53.36,64s18.68,64,53.36,64,53.36-26.68,53.36-64S48.14,3908.35,13.45,3908.35Zm0,160.09c-56,0-90.72-40-90.72-96.05s34.69-96.05,90.72-96.05,90.72,40,90.72,96.05S69.49,4068.44,13.45,4068.44Z"/><path class="cls-1" d="M18.55,3903.25c-34.69,0-53.36,26.68-53.36,64s18.68,64,53.36,64,53.36-26.68,53.36-64S53.24,3903.25,18.55,3903.25Zm0,160.09c-56,0-90.72-40-90.72-96.05s34.69-96.05,90.72-96.05,90.72,40,90.72,96.05S74.58,4063.34,18.55,4063.34Z"/><path class="cls-1" d="M23.65,3898.15c-34.69,0-53.36,26.68-53.36,64s18.68,64,53.36,64,53.36-26.68,53.36-64S58.33,3898.15,23.65,3898.15Zm0,160.09c-56,0-90.72-40-90.72-96.05s34.69-96.05,90.72-96.05,90.72,40,90.72,96.05S79.68,4058.24,23.65,4058.24Z"/><path class="cls-1" d="M28.74,3893.06c-34.69,0-53.36,26.68-53.36,64s18.68,64,53.36,64,53.36-26.68,53.36-64S63.43,3893.06,28.74,3893.06Zm0,160.09c-56,0-90.72-40-90.72-96.05S-27.29,3861,28.74,3861s90.72,40,90.72,96.05S84.78,4053.15,28.74,4053.15Z"/><path class="cls-1" d="M33.84,3888c-34.69,0-53.36,26.68-53.36,64s18.68,64,53.36,64,53.36-26.68,53.36-64S68.53,3888,33.84,3888Zm0,160.09c-56,0-90.72-40-90.72-96.05s34.69-96.05,90.72-96.05,90.72,40,90.72,96.05S89.87,4048.05,33.84,4048.05Z"/><path class="cls-1" d="M38.94,3882.86c-34.69,0-53.36,26.68-53.36,64s18.68,64,53.36,64,53.36-26.68,53.36-64S73.62,3882.86,38.94,3882.86Zm0,160.09c-56,0-90.72-40-90.72-96.05s34.69-96.05,90.72-96.05,90.72,40,90.72,96.05S95,4043,38.94,4043Z"/><path class="cls-1" d="M44,3877.77c-34.69,0-53.36,26.68-53.36,64s18.68,64,53.36,64,53.36-26.68,53.36-64S78.72,3877.77,44,3877.77Zm0,160.09c-56,0-90.72-40-90.72-96.05S-12,3845.75,44,3845.75s90.72,40,90.72,96.05S100.06,4037.86,44,4037.86Z"/><path class="cls-1" d="M49.13,3872.67c-34.69,0-53.36,26.68-53.36,64s18.68,64,53.36,64,53.36-26.68,53.36-64S83.82,3872.67,49.13,3872.67Zm0,160.09c-56,0-90.72-40-90.72-96.05s34.69-96.05,90.72-96.05,90.72,40,90.72,96.05S105.16,4032.76,49.13,4032.76Z"/><path class="cls-1" d="M54.23,3867.58c-34.69,0-53.36,26.68-53.36,64s18.68,64,53.36,64,53.36-26.68,53.36-64S88.91,3867.58,54.23,3867.58Zm0,160.09c-56,0-90.72-40-90.72-96.05s34.69-96.05,90.72-96.05,90.72,40,90.72,96.05S110.26,4027.66,54.23,4027.66Z"/><path class="cls-1" d="M59.32,3862.48c-34.69,0-53.36,26.68-53.36,64s18.68,64,53.36,64,53.36-26.68,53.36-64S94,3862.48,59.32,3862.48Zm0,160.09c-56,0-90.72-40-90.72-96.05s34.69-96.05,90.72-96.05,90.72,40,90.72,96.05S115.35,4022.57,59.32,4022.57Z"/><path class="cls-1" d="M64.42,3857.38c-34.69,0-53.36,26.68-53.36,64s18.68,64,53.36,64,53.36-26.68,53.36-64S99.11,3857.38,64.42,3857.38Zm0,160.09c-56,0-90.72-40-90.72-96.05s34.69-96.05,90.72-96.05,90.72,40,90.72,96.05S120.45,4017.47,64.42,4017.47Z"/><path class="cls-1" d="M69.52,3852.29c-34.69,0-53.36,26.68-53.36,64s18.68,64,53.36,64,53.36-26.68,53.36-64S104.2,3852.29,69.52,3852.29Zm0,160.09c-56,0-90.72-40-90.72-96.05s34.69-96.05,90.72-96.05,90.72,40,90.72,96.05S125.55,4012.38,69.52,4012.38Z"/><path class="cls-1" d="M74.61,3847.19c-34.69,0-53.36,26.68-53.36,64s18.68,64,53.36,64,53.36-26.68,53.36-64S109.3,3847.19,74.61,3847.19Zm0,160.09c-56,0-90.72-40-90.72-96.05s34.69-96.05,90.72-96.05,90.72,40,90.72,96.05S130.64,4007.28,74.61,4007.28Z"/><path class="cls-1" d="M79.71,3842.09c-34.69,0-53.36,26.68-53.36,64s18.68,64,53.36,64,53.36-26.68,53.36-64S114.4,3842.09,79.71,3842.09Zm0,160.09c-56,0-90.72-40-90.72-96.05s34.69-96.05,90.72-96.05,90.72,40,90.72,96.05S135.74,4002.18,79.71,4002.18Z"/><path class="cls-1" d="M84.8,3837c-34.69,0-53.36,26.68-53.36,64s18.68,64,53.36,64,53.36-26.68,53.36-64S119.49,3837,84.8,3837Zm0,160.09c-56,0-90.72-40-90.72-96.05S28.77,3805,84.8,3805s90.72,40,90.72,96.05S140.84,3997.09,84.8,3997.09Z"/><path class="cls-1" d="M89.9,3831.9c-34.69,0-53.36,26.68-53.36,64s18.68,64,53.36,64,53.36-26.68,53.36-64S124.59,3831.9,89.9,3831.9Zm0,160.09c-56,0-90.72-40-90.72-96.05s34.69-96.05,90.72-96.05,90.72,40,90.72,96.05S145.93,3992,89.9,3992Z"/><path class="cls-1" d="M95,3826.8c-34.69,0-53.36,26.68-53.36,64s18.68,64,53.36,64,53.36-26.68,53.36-64S129.68,3826.8,95,3826.8Zm0,160.09c-56,0-90.72-40-90.72-96.05S39,3794.79,95,3794.79s90.72,40,90.72,96.05S151,3986.89,95,3986.89Z"/><path class="cls-1" d="M100.09,3821.71c-34.69,0-53.36,26.68-53.36,64s18.68,64,53.36,64,53.36-26.68,53.36-64S134.78,3821.71,100.09,3821.71Zm0,160.09c-56,0-90.72-40-90.72-96.05s34.69-96.05,90.72-96.05,90.72,40,90.72,96.05S156.13,3981.8,100.09,3981.8Z"/><path class="cls-1" d="M105.19,3816.61c-34.69,0-53.36,26.68-53.36,64s18.68,64,53.36,64,53.36-26.68,53.36-64S139.88,3816.61,105.19,3816.61Zm0,160.09c-56,0-90.72-40-90.72-96.05s34.69-96.05,90.72-96.05,90.72,40,90.72,96.05S161.22,3976.7,105.19,3976.7Z"/><path class="cls-1" d="M110.29,3811.51c-34.69,0-53.36,26.68-53.36,64s18.68,64,53.36,64,53.36-26.68,53.36-64S145,3811.51,110.29,3811.51Zm0,160.09c-56,0-90.72-40-90.72-96.05s34.69-96.05,90.72-96.05,90.72,40,90.72,96.05S166.32,3971.6,110.29,3971.6Z"/><path class="cls-1" d="M115.38,3806.42c-34.69,0-53.36,26.68-53.36,64s18.68,64,53.36,64,53.36-26.68,53.36-64S150.07,3806.42,115.38,3806.42Zm0,160.09c-56,0-90.72-40-90.72-96.05s34.69-96.05,90.72-96.05,90.72,40,90.72,96.05S171.41,3966.51,115.38,3966.51Z"/><path class="cls-1" d="M120.48,3801.32c-34.69,0-53.36,26.68-53.36,64s18.68,64,53.36,64,53.36-26.68,53.36-64S155.17,3801.32,120.48,3801.32Zm0,160.09c-56,0-90.72-40-90.72-96.05s34.69-96.05,90.72-96.05,90.72,40,90.72,96.05S176.51,3961.41,120.48,3961.41Z"/><path class="cls-1" d="M125.58,3796.23c-34.69,0-53.36,26.68-53.36,64s18.68,64,53.36,64,53.36-26.68,53.36-64S160.26,3796.23,125.58,3796.23Zm0,160.09c-56,0-90.72-40-90.72-96.05s34.69-96.05,90.72-96.05,90.72,40,90.72,96.05S181.61,3956.31,125.58,3956.31Z"/><path class="cls-1" d="M130.67,3791.13c-34.69,0-53.36,26.68-53.36,64s18.68,64,53.36,64,53.36-26.68,53.36-64S165.36,3791.13,130.67,3791.13Zm0,160.09c-56,0-90.72-40-90.72-96.05s34.69-96.05,90.72-96.05,90.72,40,90.72,96.05S186.7,3951.22,130.67,3951.22Z"/><path class="cls-1" d="M135.77,3786c-34.69,0-53.36,26.68-53.36,64s18.68,64,53.36,64,53.36-26.68,53.36-64S170.46,3786,135.77,3786Zm0,160.09c-56,0-90.72-40-90.72-96.05S79.74,3754,135.77,3754s90.72,40,90.72,96.05S191.8,3946.12,135.77,3946.12Z"/><path class="cls-1" d="M140.87,3780.94c-34.69,0-53.36,26.68-53.36,64s18.68,64,53.36,64,53.36-26.68,53.36-64S175.55,3780.94,140.87,3780.94Zm0,160.09c-56,0-90.72-40-90.72-96.05s34.69-96.05,90.72-96.05,90.72,40,90.72,96.05S196.9,3941,140.87,3941Z"/><path class="cls-1" d="M146,3775.84c-34.69,0-53.36,26.68-53.36,64s18.68,64,53.36,64,53.36-26.68,53.36-64S180.65,3775.84,146,3775.84Zm0,160.09c-56,0-90.72-40-90.72-96.05s34.69-96.05,90.72-96.05,90.72,40,90.72,96.05S202,3935.93,146,3935.93Z"/><path class="cls-1" d="M151.06,3770.74c-34.69,0-53.36,26.68-53.36,64s18.68,64,53.36,64,53.36-26.68,53.36-64S185.74,3770.74,151.06,3770.74Zm0,160.09c-56,0-90.72-40-90.72-96.05s34.69-96.05,90.72-96.05,90.72,40,90.72,96.05S207.09,3930.83,151.06,3930.83Z"/><path class="cls-1" d="M156.15,3765.65c-34.69,0-53.36,26.68-53.36,64s18.68,64,53.36,64,53.36-26.68,53.36-64S190.84,3765.65,156.15,3765.65Zm0,160.09c-56,0-90.72-40-90.72-96.05s34.69-96.05,90.72-96.05,90.72,40,90.72,96.05S212.19,3925.74,156.15,3925.74Z"/><path class="cls-1" d="M161.25,3760.55c-34.69,0-53.36,26.68-53.36,64s18.68,64,53.36,64,53.36-26.68,53.36-64S195.94,3760.55,161.25,3760.55Zm0,160.09c-56,0-90.72-40-90.72-96.05s34.69-96.05,90.72-96.05,90.72,40,90.72,96.05S217.28,3920.64,161.25,3920.64Z"/><path class="cls-1" d="M166.35,3755.45c-34.69,0-53.36,26.68-53.36,64s18.68,64,53.36,64,53.36-26.68,53.36-64S201,3755.45,166.35,3755.45Zm0,160.09c-56,0-90.72-40-90.72-96.05s34.69-96.05,90.72-96.05,90.72,40,90.72,96.05S222.38,3915.54,166.35,3915.54Z"/><path class="cls-1" d="M171.44,3750.36c-34.69,0-53.36,26.68-53.36,64s18.68,64,53.36,64,53.36-26.68,53.36-64S206.13,3750.36,171.44,3750.36Zm0,160.09c-56,0-90.72-40-90.72-96.05s34.69-96.05,90.72-96.05,90.72,40,90.72,96.05S227.48,3910.45,171.44,3910.45Z"/><path class="cls-1" d="M176.54,3745.26c-34.69,0-53.36,26.68-53.36,64s18.68,64,53.36,64,53.36-26.68,53.36-64S211.23,3745.26,176.54,3745.26Zm0,160.09c-56,0-90.72-40-90.72-96.05s34.69-96.05,90.72-96.05,90.72,40,90.72,96.05S232.57,3905.35,176.54,3905.35Z"/><path class="cls-1" d="M181.64,3740.16c-34.69,0-53.36,26.68-53.36,64s18.68,64,53.36,64,53.36-26.68,53.36-64S216.32,3740.16,181.64,3740.16Zm0,160.09c-56,0-90.72-40-90.72-96.05s34.69-96.05,90.72-96.05,90.72,40,90.72,96.05S237.67,3900.25,181.64,3900.25Z"/><path class="cls-1" d="M186.73,3735.07c-34.69,0-53.36,26.68-53.36,64s18.68,64,53.36,64,53.36-26.68,53.36-64S221.42,3735.07,186.73,3735.07Zm0,160.09c-56,0-90.72-40-90.72-96.05s34.69-96.05,90.72-96.05,90.72,40,90.72,96.05S242.76,3895.16,186.73,3895.16Z"/><path class="cls-1" d="M191.83,3730c-34.69,0-53.36,26.68-53.36,64s18.68,64,53.36,64,53.36-26.68,53.36-64S226.52,3730,191.83,3730Zm0,160.09c-56,0-90.72-40-90.72-96.05S135.8,3698,191.83,3698s90.72,40,90.72,96.05S247.86,3890.06,191.83,3890.06Z"/><path class="cls-1" d="M196.93,3724.88c-34.69,0-53.36,26.68-53.36,64s18.68,64,53.36,64,53.36-26.68,53.36-64S231.61,3724.88,196.93,3724.88Zm0,160.09c-56,0-90.72-40-90.72-96.05s34.69-96.05,90.72-96.05,90.72,40,90.72,96.05S253,3885,196.93,3885Z"/><path class="cls-1" d="M202,3719.78c-34.69,0-53.36,26.68-53.36,64s18.68,64,53.36,64,53.36-26.68,53.36-64S236.71,3719.78,202,3719.78Zm0,160.09c-56,0-90.72-40-90.72-96.05S146,3687.76,202,3687.76s90.72,40,90.72,96.05S258.05,3879.87,202,3879.87Z"/><path class="cls-1" d="M207.12,3714.68c-34.69,0-53.36,26.68-53.36,64s18.68,64,53.36,64,53.36-26.68,53.36-64S241.81,3714.68,207.12,3714.68Zm0,160.09c-56,0-90.72-40-90.72-96.05s34.69-96.05,90.72-96.05,90.72,40,90.72,96.05S263.15,3874.77,207.12,3874.77Z"/><path class="cls-1" d="M212.22,3709.59c-34.69,0-53.36,26.68-53.36,64s18.68,64,53.36,64,53.36-26.68,53.36-64S246.9,3709.59,212.22,3709.59Zm0,160.09c-56,0-90.72-40-90.72-96.05s34.69-96.05,90.72-96.05,90.72,40,90.72,96.05S268.25,3869.68,212.22,3869.68Z"/><path class="cls-1" d="M217.31,3704.49c-34.69,0-53.36,26.68-53.36,64s18.68,64,53.36,64,53.36-26.68,53.36-64S252,3704.49,217.31,3704.49Zm0,160.09c-56,0-90.72-40-90.72-96.05s34.69-96.05,90.72-96.05,90.72,40,90.72,96.05S273.34,3864.58,217.31,3864.58Z"/><path class="cls-1" d="M222.41,3699.39c-34.69,0-53.36,26.68-53.36,64s18.68,64,53.36,64,53.36-26.68,53.36-64S257.09,3699.39,222.41,3699.39Zm0,160.09c-56,0-90.72-40-90.72-96.05s34.69-96.05,90.72-96.05,90.72,40,90.72,96.05S278.44,3859.48,222.41,3859.48Z"/><path class="cls-1" d="M227.5,3694.3c-34.69,0-53.36,26.68-53.36,64s18.68,64,53.36,64,53.36-26.68,53.36-64S262.19,3694.3,227.5,3694.3Zm0,160.09c-56,0-90.72-40-90.72-96.05s34.69-96.05,90.72-96.05,90.72,40,90.72,96.05S283.54,3854.39,227.5,3854.39Z"/><path class="cls-1" d="M232.6,3689.2c-34.69,0-53.36,26.68-53.36,64s18.68,64,53.36,64,53.36-26.68,53.36-64S267.29,3689.2,232.6,3689.2Zm0,160.09c-56,0-90.72-40-90.72-96.05s34.69-96.05,90.72-96.05,90.72,40,90.72,96.05S288.63,3849.29,232.6,3849.29Z"/><path class="cls-1" d="M237.7,3684.1c-34.69,0-53.36,26.68-53.36,64s18.68,64,53.36,64,53.36-26.68,53.36-64S272.38,3684.1,237.7,3684.1Zm0,160.09c-56,0-90.72-40-90.72-96.05s34.69-96.05,90.72-96.05,90.72,40,90.72,96.05S293.73,3844.19,237.7,3844.19Z"/><path class="cls-1" d="M242.79,3679c-34.69,0-53.36,26.68-53.36,64s18.68,64,53.36,64,53.36-26.68,53.36-64S277.48,3679,242.79,3679Zm0,160.09c-56,0-90.72-40-90.72-96.05S186.76,3647,242.79,3647s90.72,40,90.72,96.05S298.83,3839.1,242.79,3839.1Z"/><path class="cls-1" d="M247.89,3673.91c-34.69,0-53.36,26.68-53.36,64s18.68,64,53.36,64,53.36-26.68,53.36-64S282.58,3673.91,247.89,3673.91Zm0,160.09c-56,0-90.72-40-90.72-96.05s34.69-96.05,90.72-96.05,90.72,40,90.72,96.05S303.92,3834,247.89,3834Z"/><path class="cls-1" d="M253,3668.81c-34.69,0-53.36,26.68-53.36,64s18.68,64,53.36,64,53.36-26.68,53.36-64S287.67,3668.81,253,3668.81Zm0,160.09c-56,0-90.72-40-90.72-96.05S197,3636.8,253,3636.8s90.72,40,90.72,96.05S309,3828.9,253,3828.9Z"/><path class="cls-1" d="M258.08,3663.72c-34.69,0-53.36,26.68-53.36,64s18.68,64,53.36,64,53.36-26.68,53.36-64S292.77,3663.72,258.08,3663.72Zm0,160.09c-56,0-90.72-40-90.72-96.05s34.69-96.05,90.72-96.05,90.72,40,90.72,96.05S314.11,3823.81,258.08,3823.81Z"/><path class="cls-1" d="M263.18,3658.62c-34.69,0-53.36,26.68-53.36,64s18.68,64,53.36,64,53.36-26.68,53.36-64S297.87,3658.62,263.18,3658.62Zm0,160.09c-56,0-90.72-40-90.72-96.05s34.69-96.05,90.72-96.05,90.72,40,90.72,96.05S319.21,3818.71,263.18,3818.71Z"/><path class="cls-1" d="M268.28,3653.53c-34.69,0-53.36,26.68-53.36,64s18.68,64,53.36,64,53.36-26.68,53.36-64S303,3653.53,268.28,3653.53Zm0,160.09c-56,0-90.72-40-90.72-96.05s34.69-96.05,90.72-96.05,90.72,40,90.72,96.05S324.31,3813.61,268.28,3813.61Z"/><path class="cls-1" d="M273.37,3648.43c-34.69,0-53.36,26.68-53.36,64s18.68,64,53.36,64,53.36-26.68,53.36-64S308.06,3648.43,273.37,3648.43Zm0,160.09c-56,0-90.72-40-90.72-96.05s34.69-96.05,90.72-96.05,90.72,40,90.72,96.05S329.4,3808.52,273.37,3808.52Z"/><path class="cls-1" d="M278.47,3643.33c-34.69,0-53.36,26.68-53.36,64s18.68,64,53.36,64,53.36-26.68,53.36-64S313.16,3643.33,278.47,3643.33Zm0,160.09c-56,0-90.72-40-90.72-96.05s34.69-96.05,90.72-96.05,90.72,40,90.72,96.05S334.5,3803.42,278.47,3803.42Z"/><path class="cls-1" d="M283.57,3638.24c-34.69,0-53.36,26.68-53.36,64s18.68,64,53.36,64,53.36-26.68,53.36-64S318.25,3638.24,283.57,3638.24Zm0,160.09c-56,0-90.72-40-90.72-96.05s34.69-96.05,90.72-96.05,90.72,40,90.72,96.05S339.6,3798.33,283.57,3798.33Z"/><path class="cls-1" d="M288.66,3633.14c-34.69,0-53.36,26.68-53.36,64s18.68,64,53.36,64,53.36-26.68,53.36-64S323.35,3633.14,288.66,3633.14Zm0,160.09c-56,0-90.72-40-90.72-96.05s34.69-96.05,90.72-96.05,90.72,40,90.72,96.05S344.69,3793.23,288.66,3793.23Z"/><path class="cls-1" d="M293.76,3628c-34.69,0-53.36,26.68-53.36,64s18.68,64,53.36,64,53.36-26.68,53.36-64S328.44,3628,293.76,3628Zm0,160.09c-56,0-90.72-40-90.72-96.05S237.73,3596,293.76,3596s90.72,40,90.72,96.05S349.79,3788.13,293.76,3788.13Z"/><path class="cls-1" d="M298.85,3622.95c-34.69,0-53.36,26.68-53.36,64s18.68,64,53.36,64,53.36-26.68,53.36-64S333.54,3622.95,298.85,3622.95Zm0,160.09c-56,0-90.72-40-90.72-96.05s34.69-96.05,90.72-96.05,90.72,40,90.72,96.05S354.89,3783,298.85,3783Z"/><path class="cls-1" d="M304,3617.85c-34.69,0-53.36,26.68-53.36,64s18.68,64,53.36,64,53.36-26.68,53.36-64S338.64,3617.85,304,3617.85Zm0,160.09c-56,0-90.72-40-90.72-96.05s34.69-96.05,90.72-96.05,90.72,40,90.72,96.05S360,3777.94,304,3777.94Z"/><path class="cls-1" d="M309,3612.75c-34.69,0-53.36,26.68-53.36,64s18.68,64,53.36,64,53.36-26.68,53.36-64S343.73,3612.75,309,3612.75Zm0,160.09c-56,0-90.72-40-90.72-96.05S253,3580.74,309,3580.74s90.72,40,90.72,96.05S365.08,3772.84,309,3772.84Z"/><path class="cls-1" d="M314.14,3607.66c-34.69,0-53.36,26.68-53.36,64s18.68,64,53.36,64,53.36-26.68,53.36-64S348.83,3607.66,314.14,3607.66Zm0,160.09c-56,0-90.72-40-90.72-96.05s34.69-96.05,90.72-96.05,90.72,40,90.72,96.05S370.18,3767.75,314.14,3767.75Z"/><path class="cls-1" d="M319.24,3602.56c-34.69,0-53.36,26.68-53.36,64s18.68,64,53.36,64,53.36-26.68,53.36-64S353.93,3602.56,319.24,3602.56Zm0,160.09c-56,0-90.72-40-90.72-96.05s34.69-96.05,90.72-96.05,90.72,40,90.72,96.05S375.27,3762.65,319.24,3762.65Z"/><path class="cls-1" d="M324.34,3597.46c-34.69,0-53.36,26.68-53.36,64s18.68,64,53.36,64,53.36-26.68,53.36-64S359,3597.46,324.34,3597.46Zm0,160.09c-56,0-90.72-40-90.72-96.05s34.69-96.05,90.72-96.05,90.72,40,90.72,96.05S380.37,3757.55,324.34,3757.55Z"/><path class="cls-1" d="M329.43,3592.37c-34.69,0-53.36,26.68-53.36,64s18.68,64,53.36,64,53.36-26.68,53.36-64S364.12,3592.37,329.43,3592.37Zm0,160.09c-56,0-90.72-40-90.72-96.05s34.69-96.05,90.72-96.05,90.72,40,90.72,96.05S385.46,3752.46,329.43,3752.46Z"/><path class="cls-1" d="M334.53,3587.27c-34.69,0-53.36,26.68-53.36,64s18.68,64,53.36,64,53.36-26.68,53.36-64S369.22,3587.27,334.53,3587.27Zm0,160.09c-56,0-90.72-40-90.72-96.05s34.69-96.05,90.72-96.05,90.72,40,90.72,96.05S390.56,3747.36,334.53,3747.36Z"/><path class="cls-1" d="M339.63,3582.18c-34.69,0-53.36,26.68-53.36,64s18.68,64,53.36,64,53.36-26.68,53.36-64S374.31,3582.18,339.63,3582.18Zm0,160.09c-56,0-90.72-40-90.72-96.05s34.69-96.05,90.72-96.05,90.72,40,90.72,96.05S395.66,3742.26,339.63,3742.26Z"/><path class="cls-1" d="M344.72,3577.08c-34.69,0-53.36,26.68-53.36,64s18.68,64,53.36,64,53.36-26.68,53.36-64S379.41,3577.08,344.72,3577.08Zm0,160.09c-56,0-90.72-40-90.72-96.05s34.69-96.05,90.72-96.05,90.72,40,90.72,96.05S400.75,3737.17,344.72,3737.17Z"/><path class="cls-1" d="M349.82,3572c-34.69,0-53.36,26.68-53.36,64s18.68,64,53.36,64,53.36-26.68,53.36-64S384.51,3572,349.82,3572Zm0,160.09c-56,0-90.72-40-90.72-96.05S293.79,3540,349.82,3540s90.72,40,90.72,96.05S405.85,3732.07,349.82,3732.07Z"/><path class="cls-1" d="M354.92,3566.89c-34.69,0-53.36,26.68-53.36,64s18.68,64,53.36,64,53.36-26.68,53.36-64S389.6,3566.89,354.92,3566.89Zm0,160.09c-56,0-90.72-40-90.72-96.05s34.69-96.05,90.72-96.05,90.72,40,90.72,96.05S410.95,3727,354.92,3727Z"/><path class="cls-1" d="M360,3561.79c-34.69,0-53.36,26.68-53.36,64s18.68,64,53.36,64,53.36-26.68,53.36-64S394.7,3561.79,360,3561.79Zm0,160.09c-56,0-90.72-40-90.72-96.05S304,3529.77,360,3529.77s90.72,40,90.72,96.05S416,3721.88,360,3721.88Z"/><path class="cls-1" d="M365.11,3556.69c-34.69,0-53.36,26.68-53.36,64s18.68,64,53.36,64,53.36-26.68,53.36-64S399.79,3556.69,365.11,3556.69Zm0,160.09c-56,0-90.72-40-90.72-96.05s34.69-96.05,90.72-96.05,90.72,40,90.72,96.05S421.14,3716.78,365.11,3716.78Z"/><path class="cls-1" d="M370.2,3551.6c-34.69,0-53.36,26.68-53.36,64s18.68,64,53.36,64,53.36-26.68,53.36-64S404.89,3551.6,370.2,3551.6Zm0,160.09c-56,0-90.72-40-90.72-96.05s34.69-96.05,90.72-96.05,90.72,40,90.72,96.05S426.24,3711.69,370.2,3711.69Z"/><path class="cls-1" d="M375.3,3546.5c-34.69,0-53.36,26.68-53.36,64s18.68,64,53.36,64,53.36-26.68,53.36-64S410,3546.5,375.3,3546.5Zm0,160.09c-56,0-90.72-40-90.72-96.05s34.69-96.05,90.72-96.05,90.72,40,90.72,96.05S431.33,3706.59,375.3,3706.59Z"/><path class="cls-1" d="M380.4,3541.4c-34.69,0-53.36,26.68-53.36,64s18.68,64,53.36,64,53.36-26.68,53.36-64S415.08,3541.4,380.4,3541.4Zm0,160.09c-56,0-90.72-40-90.72-96.05s34.69-96.05,90.72-96.05,90.72,40,90.72,96.05S436.43,3701.49,380.4,3701.49Z"/><path class="cls-1" d="M385.49,3536.31c-34.69,0-53.36,26.68-53.36,64s18.68,64,53.36,64,53.36-26.68,53.36-64S420.18,3536.31,385.49,3536.31Zm0,160.09c-56,0-90.72-40-90.72-96.05s34.69-96.05,90.72-96.05,90.72,40,90.72,96.05S441.53,3696.4,385.49,3696.4Z"/><path class="cls-1" d="M390.59,3531.21c-34.69,0-53.36,26.68-53.36,64s18.68,64,53.36,64,53.36-26.68,53.36-64S425.28,3531.21,390.59,3531.21Zm0,160.09c-56,0-90.72-40-90.72-96.05s34.69-96.05,90.72-96.05,90.72,40,90.72,96.05S446.62,3691.3,390.59,3691.3Z"/><path class="cls-1" d="M395.69,3526.11c-34.69,0-53.36,26.68-53.36,64s18.68,64,53.36,64,53.36-26.68,53.36-64S430.37,3526.11,395.69,3526.11Zm0,160.09c-56,0-90.72-40-90.72-96.05s34.69-96.05,90.72-96.05,90.72,40,90.72,96.05S451.72,3686.2,395.69,3686.2Z"/><path class="cls-1" d="M400.78,3521c-34.69,0-53.36,26.68-53.36,64s18.68,64,53.36,64,53.36-26.68,53.36-64S435.47,3521,400.78,3521Zm0,160.09c-56,0-90.72-40-90.72-96.05S344.75,3489,400.78,3489s90.72,40,90.72,96.05S456.81,3681.11,400.78,3681.11Z"/><path class="cls-1" d="M405.88,3515.92c-34.69,0-53.36,26.68-53.36,64s18.68,64,53.36,64,53.36-26.68,53.36-64S440.57,3515.92,405.88,3515.92Zm0,160.09c-56,0-90.72-40-90.72-96.05s34.69-96.05,90.72-96.05,90.72,40,90.72,96.05S461.91,3676,405.88,3676Z"/><path class="cls-1" d="M411,3510.83c-34.69,0-53.36,26.68-53.36,64s18.68,64,53.36,64,53.36-26.68,53.36-64S445.66,3510.83,411,3510.83Zm0,160.09c-56,0-90.72-40-90.72-96.05s34.69-96.05,90.72-96.05,90.72,40,90.72,96.05S467,3670.91,411,3670.91Z"/><path class="cls-1" d="M416.07,3505.73c-34.69,0-53.36,26.68-53.36,64s18.68,64,53.36,64,53.36-26.68,53.36-64S450.76,3505.73,416.07,3505.73Zm0,160.09c-56,0-90.72-40-90.72-96.05s34.69-96.05,90.72-96.05,90.72,40,90.72,96.05S472.1,3665.82,416.07,3665.82Z"/><path class="cls-1" d="M421.17,3500.63c-34.69,0-53.36,26.68-53.36,64s18.68,64,53.36,64,53.36-26.68,53.36-64S455.86,3500.63,421.17,3500.63Zm0,160.09c-56,0-90.72-40-90.72-96.05s34.69-96.05,90.72-96.05,90.72,40,90.72,96.05S477.2,3660.72,421.17,3660.72Z"/><path class="cls-1" d="M426.27,3495.54c-34.69,0-53.36,26.68-53.36,64s18.68,64,53.36,64,53.36-26.68,53.36-64S461,3495.54,426.27,3495.54Zm0,160.09c-56,0-90.72-40-90.72-96.05s34.69-96.05,90.72-96.05,90.72,40,90.72,96.05S482.3,3655.63,426.27,3655.63Z"/><path class="cls-1" d="M431.36,3490.44c-34.69,0-53.36,26.68-53.36,64s18.68,64,53.36,64,53.36-26.68,53.36-64S466,3490.44,431.36,3490.44Zm0,160.09c-56,0-90.72-40-90.72-96.05s34.69-96.05,90.72-96.05,90.72,40,90.72,96.05S487.39,3650.53,431.36,3650.53Z"/><path class="cls-1" d="M436.46,3485.34c-34.69,0-53.36,26.68-53.36,64s18.68,64,53.36,64,53.36-26.68,53.36-64S471.14,3485.34,436.46,3485.34Zm0,160.09c-56,0-90.72-40-90.72-96.05s34.69-96.05,90.72-96.05,90.72,40,90.72,96.05S492.49,3645.43,436.46,3645.43Z"/><path class="cls-1" d="M441.55,3480.25c-34.69,0-53.36,26.68-53.36,64s18.68,64,53.36,64,53.36-26.68,53.36-64S476.24,3480.25,441.55,3480.25Zm0,160.09c-56,0-90.72-40-90.72-96.05s34.69-96.05,90.72-96.05,90.72,40,90.72,96.05S497.59,3640.34,441.55,3640.34Z"/><path class="cls-1" d="M446.65,3475.15c-34.69,0-53.36,26.68-53.36,64s18.68,64,53.36,64,53.36-26.68,53.36-64S481.34,3475.15,446.65,3475.15Zm0,160.09c-56,0-90.72-40-90.72-96.05s34.69-96.05,90.72-96.05,90.72,40,90.72,96.05S502.68,3635.24,446.65,3635.24Z"/><path class="cls-1" d="M451.75,3470.05c-34.69,0-53.36,26.68-53.36,64s18.68,64,53.36,64,53.36-26.68,53.36-64S486.43,3470.05,451.75,3470.05Zm0,160.09c-56,0-90.72-40-90.72-96.05S395.72,3438,451.75,3438s90.72,40,90.72,96.05S507.78,3630.14,451.75,3630.14Z"/><path class="cls-1" d="M456.84,3465c-34.69,0-53.36,26.68-53.36,64s18.68,64,53.36,64,53.36-26.68,53.36-64S491.53,3465,456.84,3465Zm0,160.09c-56,0-90.72-40-90.72-96.05s34.69-96.05,90.72-96.05,90.72,40,90.72,96.05S512.88,3625,456.84,3625Z"/><path class="cls-1" d="M461.94,3459.86c-34.69,0-53.36,26.68-53.36,64s18.68,64,53.36,64,53.36-26.68,53.36-64S496.63,3459.86,461.94,3459.86Zm0,160.09c-56,0-90.72-40-90.72-96.05s34.69-96.05,90.72-96.05,90.72,40,90.72,96.05S518,3620,461.94,3620Z"/><path class="cls-1" d="M467,3454.76c-34.69,0-53.36,26.68-53.36,64s18.68,64,53.36,64,53.36-26.68,53.36-64S501.72,3454.76,467,3454.76Zm0,160.09c-56,0-90.72-40-90.72-96.05S411,3422.75,467,3422.75s90.72,40,90.72,96.05S523.07,3614.85,467,3614.85Z"/><path class="cls-1" d="M472.13,3449.67c-34.69,0-53.36,26.68-53.36,64s18.68,64,53.36,64,53.36-26.68,53.36-64S506.82,3449.67,472.13,3449.67Zm0,160.09c-56,0-90.72-40-90.72-96.05s34.69-96.05,90.72-96.05,90.72,40,90.72,96.05S528.16,3609.76,472.13,3609.76Z"/><path class="cls-1" d="M477.23,3444.57c-34.69,0-53.36,26.68-53.36,64s18.68,64,53.36,64,53.36-26.68,53.36-64S511.92,3444.57,477.23,3444.57Zm0,160.09c-56,0-90.72-40-90.72-96.05s34.69-96.05,90.72-96.05,90.72,40,90.72,96.05S533.26,3604.66,477.23,3604.66Z"/><path class="cls-1" d="M482.33,3439.48c-34.69,0-53.36,26.68-53.36,64s18.68,64,53.36,64,53.36-26.68,53.36-64S517,3439.48,482.33,3439.48Zm0,160.09c-56,0-90.72-40-90.72-96.05s34.69-96.05,90.72-96.05,90.72,40,90.72,96.05S538.36,3599.56,482.33,3599.56Z"/><path class="cls-1" d="M487.42,3434.38c-34.69,0-53.36,26.68-53.36,64s18.68,64,53.36,64,53.36-26.68,53.36-64S522.11,3434.38,487.42,3434.38Zm0,160.09c-56,0-90.72-40-90.72-96.05s34.69-96.05,90.72-96.05,90.72,40,90.72,96.05S543.45,3594.47,487.42,3594.47Z"/><path class="cls-1" d="M492.52,3429.28c-34.69,0-53.36,26.68-53.36,64s18.68,64,53.36,64,53.36-26.68,53.36-64S527.21,3429.28,492.52,3429.28Zm0,160.09c-56,0-90.72-40-90.72-96.05s34.69-96.05,90.72-96.05,90.72,40,90.72,96.05S548.55,3589.37,492.52,3589.37Z"/><path class="cls-1" d="M497.62,3424.19c-34.69,0-53.36,26.68-53.36,64s18.68,64,53.36,64,53.36-26.68,53.36-64S532.3,3424.19,497.62,3424.19Zm0,160.09c-56,0-90.72-40-90.72-96.05s34.69-96.05,90.72-96.05,90.72,40,90.72,96.05S553.65,3584.28,497.62,3584.28Z"/><path class="cls-1" d="M502.71,3419.09c-34.69,0-53.36,26.68-53.36,64s18.68,64,53.36,64,53.36-26.68,53.36-64S537.4,3419.09,502.71,3419.09Zm0,160.09c-56,0-90.72-40-90.72-96.05s34.69-96.05,90.72-96.05,90.72,40,90.72,96.05S558.74,3579.18,502.71,3579.18Z"/><path class="cls-1" d="M507.81,3414c-34.69,0-53.36,26.68-53.36,64s18.68,64,53.36,64,53.36-26.68,53.36-64S542.49,3414,507.81,3414Zm0,160.09c-56,0-90.72-40-90.72-96.05S451.78,3382,507.81,3382s90.72,40,90.72,96.05S563.84,3574.08,507.81,3574.08Z"/><path class="cls-1" d="M512.9,3408.9c-34.69,0-53.36,26.68-53.36,64s18.68,64,53.36,64,53.36-26.68,53.36-64S547.59,3408.9,512.9,3408.9Zm0,160.09c-56,0-90.72-40-90.72-96.05s34.69-96.05,90.72-96.05,90.72,40,90.72,96.05S568.94,3569,512.9,3569Z"/><path class="cls-1" d="M518,3403.8c-34.69,0-53.36,26.68-53.36,64s18.68,64,53.36,64,53.36-26.68,53.36-64S552.69,3403.8,518,3403.8Zm0,160.09c-56,0-90.72-40-90.72-96.05S462,3371.78,518,3371.78s90.72,40,90.72,96.05S574,3563.89,518,3563.89Z"/><path class="cls-1" d="M523.1,3398.7c-34.69,0-53.36,26.68-53.36,64s18.68,64,53.36,64,53.36-26.68,53.36-64S557.78,3398.7,523.1,3398.7Zm0,160.09c-56,0-90.72-40-90.72-96.05s34.69-96.05,90.72-96.05,90.72,40,90.72,96.05S579.13,3558.79,523.1,3558.79Z"/><path class="cls-1" d="M528.19,3393.61c-34.69,0-53.36,26.68-53.36,64s18.68,64,53.36,64,53.36-26.68,53.36-64S562.88,3393.61,528.19,3393.61Zm0,160.09c-56,0-90.72-40-90.72-96.05s34.69-96.05,90.72-96.05,90.72,40,90.72,96.05S584.23,3553.7,528.19,3553.7Z"/><path class="cls-1" d="M533.29,3388.51c-34.69,0-53.36,26.68-53.36,64s18.68,64,53.36,64,53.36-26.68,53.36-64S568,3388.51,533.29,3388.51Zm0,160.09c-56,0-90.72-40-90.72-96.05s34.69-96.05,90.72-96.05,90.72,40,90.72,96.05S589.32,3548.6,533.29,3548.6Z"/><path class="cls-1" d="M538.39,3383.41c-34.69,0-53.36,26.68-53.36,64s18.68,64,53.36,64,53.36-26.68,53.36-64S573.07,3383.41,538.39,3383.41Zm0,160.09c-56,0-90.72-40-90.72-96.05s34.69-96.05,90.72-96.05,90.72,40,90.72,96.05S594.42,3543.5,538.39,3543.5Z"/><path class="cls-1" d="M543.48,3378.32c-34.69,0-53.36,26.68-53.36,64s18.68,64,53.36,64,53.36-26.68,53.36-64S578.17,3378.32,543.48,3378.32Zm0,160.09c-56,0-90.72-40-90.72-96.05s34.69-96.05,90.72-96.05,90.72,40,90.72,96.05S599.51,3538.41,543.48,3538.41Z"/><path class="cls-1" d="M548.58,3373.22c-34.69,0-53.36,26.68-53.36,64s18.68,64,53.36,64,53.36-26.68,53.36-64S583.27,3373.22,548.58,3373.22Zm0,160.09c-56,0-90.72-40-90.72-96.05s34.69-96.05,90.72-96.05,90.72,40,90.72,96.05S604.61,3533.31,548.58,3533.31Z"/><path class="cls-1" d="M553.68,3368.13c-34.69,0-53.36,26.68-53.36,64s18.68,64,53.36,64,53.36-26.68,53.36-64S588.36,3368.13,553.68,3368.13Zm0,160.09c-56,0-90.72-40-90.72-96.05s34.69-96.05,90.72-96.05,90.72,40,90.72,96.05S609.71,3528.22,553.68,3528.22Z"/><path class="cls-1" d="M558.77,3363c-34.69,0-53.36,26.68-53.36,64s18.68,64,53.36,64,53.36-26.68,53.36-64S593.46,3363,558.77,3363Zm0,160.09c-56,0-90.72-40-90.72-96.05S502.74,3331,558.77,3331s90.72,40,90.72,96.05S614.8,3523.12,558.77,3523.12Z"/><path class="cls-1" d="M563.87,3357.93c-34.69,0-53.36,26.68-53.36,64s18.68,64,53.36,64,53.36-26.68,53.36-64S598.56,3357.93,563.87,3357.93Zm0,160.09c-56,0-90.72-40-90.72-96.05s34.69-96.05,90.72-96.05,90.72,40,90.72,96.05S619.9,3518,563.87,3518Z"/><path class="cls-1" d="M569,3352.84c-34.69,0-53.36,26.68-53.36,64s18.68,64,53.36,64,53.36-26.68,53.36-64S603.65,3352.84,569,3352.84Zm0,160.09c-56,0-90.72-40-90.72-96.05s34.69-96.05,90.72-96.05,90.72,40,90.72,96.05S625,3512.93,569,3512.93Z"/><path class="cls-1" d="M574.06,3347.74c-34.69,0-53.36,26.68-53.36,64s18.68,64,53.36,64,53.36-26.68,53.36-64S608.75,3347.74,574.06,3347.74Zm0,160.09c-56,0-90.72-40-90.72-96.05s34.69-96.05,90.72-96.05,90.72,40,90.72,96.05S630.09,3507.83,574.06,3507.83Z"/><path class="cls-1" d="M579.16,3342.64c-34.69,0-53.36,26.68-53.36,64s18.68,64,53.36,64,53.36-26.68,53.36-64S613.84,3342.64,579.16,3342.64Zm0,160.09c-56,0-90.72-40-90.72-96.05s34.69-96.05,90.72-96.05,90.72,40,90.72,96.05S635.19,3502.73,579.16,3502.73Z"/><path class="cls-1" d="M584.25,3337.55c-34.69,0-53.36,26.68-53.36,64s18.68,64,53.36,64,53.36-26.68,53.36-64S618.94,3337.55,584.25,3337.55Zm0,160.09c-56,0-90.72-40-90.72-96.05s34.69-96.05,90.72-96.05,90.72,40,90.72,96.05S640.29,3497.64,584.25,3497.64Z"/><path class="cls-1" d="M589.35,3332.45c-34.69,0-53.36,26.68-53.36,64s18.68,64,53.36,64,53.36-26.68,53.36-64S624,3332.45,589.35,3332.45Zm0,160.09c-56,0-90.72-40-90.72-96.05s34.69-96.05,90.72-96.05,90.72,40,90.72,96.05S645.38,3492.54,589.35,3492.54Z"/><path class="cls-1" d="M594.45,3327.35c-34.69,0-53.36,26.68-53.36,64s18.68,64,53.36,64,53.36-26.68,53.36-64S629.13,3327.35,594.45,3327.35Zm0,160.09c-56,0-90.72-40-90.72-96.05s34.69-96.05,90.72-96.05,90.72,40,90.72,96.05S650.48,3487.44,594.45,3487.44Z"/><path class="cls-1" d="M599.54,3322.26c-34.69,0-53.36,26.68-53.36,64s18.68,64,53.36,64,53.36-26.68,53.36-64S634.23,3322.26,599.54,3322.26Zm0,160.09c-56,0-90.72-40-90.72-96.05s34.69-96.05,90.72-96.05,90.72,40,90.72,96.05S655.58,3482.35,599.54,3482.35Z"/><path class="cls-1" d="M604.64,3317.16c-34.69,0-53.36,26.68-53.36,64s18.68,64,53.36,64,53.36-26.68,53.36-64S639.33,3317.16,604.64,3317.16Zm0,160.09c-56,0-90.72-40-90.72-96.05s34.69-96.05,90.72-96.05,90.72,40,90.72,96.05S660.67,3477.25,604.64,3477.25Z"/><path class="cls-1" d="M609.74,3312.07c-34.69,0-53.36,26.68-53.36,64s18.68,64,53.36,64,53.36-26.68,53.36-64S644.42,3312.07,609.74,3312.07Zm0,160.09c-56,0-90.72-40-90.72-96.05S553.71,3280,609.74,3280s90.72,40,90.72,96.05S665.77,3472.15,609.74,3472.15Z"/><path class="cls-1" d="M614.83,3307c-34.69,0-53.36,26.68-53.36,64s18.68,64,53.36,64,53.36-26.68,53.36-64S649.52,3307,614.83,3307Zm0,160.09c-56,0-90.72-40-90.72-96.05S558.8,3275,614.83,3275s90.72,40,90.72,96.05S670.86,3467.06,614.83,3467.06Z"/><path class="cls-1" d="M619.93,3301.87c-34.69,0-53.36,26.68-53.36,64s18.68,64,53.36,64,53.36-26.68,53.36-64S654.62,3301.87,619.93,3301.87Zm0,160.09c-56,0-90.72-40-90.72-96.05s34.69-96.05,90.72-96.05,90.72,40,90.72,96.05S676,3462,619.93,3462Z"/><path class="cls-1" d="M625,3296.78c-34.69,0-53.36,26.68-53.36,64s18.68,64,53.36,64,53.36-26.68,53.36-64S659.71,3296.78,625,3296.78Zm0,160.09c-56,0-90.72-40-90.72-96.05S569,3264.76,625,3264.76s90.72,40,90.72,96.05S681.06,3456.87,625,3456.87Z"/><path class="cls-1" d="M630.12,3291.68c-34.69,0-53.36,26.68-53.36,64s18.68,64,53.36,64,53.36-26.68,53.36-64S664.81,3291.68,630.12,3291.68Zm0,160.09c-56,0-90.72-40-90.72-96.05s34.69-96.05,90.72-96.05,90.72,40,90.72,96.05S686.15,3451.77,630.12,3451.77Z"/><path class="cls-1" d="M635.22,3286.58c-34.69,0-53.36,26.68-53.36,64s18.68,64,53.36,64,53.36-26.68,53.36-64S669.91,3286.58,635.22,3286.58Zm0,160.09c-56,0-90.72-40-90.72-96.05s34.69-96.05,90.72-96.05,90.72,40,90.72,96.05S691.25,3446.67,635.22,3446.67Z"/><path class="cls-1" d="M640.32,3281.49c-34.69,0-53.36,26.68-53.36,64s18.68,64,53.36,64,53.36-26.68,53.36-64S675,3281.49,640.32,3281.49Zm0,160.09c-56,0-90.72-40-90.72-96.05s34.69-96.05,90.72-96.05,90.72,40,90.72,96.05S696.35,3441.58,640.32,3441.58Z"/><path class="cls-1" d="M645.41,3276.39c-34.69,0-53.36,26.68-53.36,64s18.68,64,53.36,64,53.36-26.68,53.36-64S680.1,3276.39,645.41,3276.39Zm0,160.09c-56,0-90.72-40-90.72-96.05s34.69-96.05,90.72-96.05,90.72,40,90.72,96.05S701.44,3436.48,645.41,3436.48Z"/><path class="cls-1" d="M650.51,3271.29c-34.69,0-53.36,26.68-53.36,64s18.68,64,53.36,64,53.36-26.68,53.36-64S685.19,3271.29,650.51,3271.29Zm0,160.09c-56,0-90.72-40-90.72-96.05s34.69-96.05,90.72-96.05,90.72,40,90.72,96.05S706.54,3431.38,650.51,3431.38Z"/><path class="cls-1" d="M655.6,3266.2c-34.69,0-53.36,26.68-53.36,64s18.68,64,53.36,64,53.36-26.68,53.36-64S690.29,3266.2,655.6,3266.2Zm0,160.09c-56,0-90.72-40-90.72-96.05s34.69-96.05,90.72-96.05,90.72,40,90.72,96.05S711.64,3426.29,655.6,3426.29Z"/><path class="cls-1" d="M660.7,3261.1c-34.69,0-53.36,26.68-53.36,64s18.68,64,53.36,64,53.36-26.68,53.36-64S695.39,3261.1,660.7,3261.1Zm0,160.09c-56,0-90.72-40-90.72-96.05s34.69-96.05,90.72-96.05,90.72,40,90.72,96.05S716.73,3421.19,660.7,3421.19Z"/><path class="cls-1" d="M665.8,3256c-34.69,0-53.36,26.68-53.36,64s18.68,64,53.36,64,53.36-26.68,53.36-64S700.48,3256,665.8,3256Zm0,160.09c-56,0-90.72-40-90.72-96.05S609.77,3224,665.8,3224s90.72,40,90.72,96.05S721.83,3416.09,665.8,3416.09Z"/><path class="cls-1" d="M670.89,3250.91c-34.69,0-53.36,26.68-53.36,64s18.68,64,53.36,64,53.36-26.68,53.36-64S705.58,3250.91,670.89,3250.91Zm0,160.09c-56,0-90.72-40-90.72-96.05s34.69-96.05,90.72-96.05,90.72,40,90.72,96.05S726.93,3411,670.89,3411Z"/><path class="cls-1" d="M676,3245.81c-34.69,0-53.36,26.68-53.36,64s18.68,64,53.36,64,53.36-26.68,53.36-64S710.68,3245.81,676,3245.81Zm0,160.09c-56,0-90.72-40-90.72-96.05S620,3213.79,676,3213.79s90.72,40,90.72,96.05S732,3405.9,676,3405.9Z"/><path class="cls-1" d="M681.09,3240.72c-34.69,0-53.36,26.68-53.36,64s18.68,64,53.36,64,53.36-26.68,53.36-64S715.77,3240.72,681.09,3240.72Zm0,160.09c-56,0-90.72-40-90.72-96.05s34.69-96.05,90.72-96.05,90.72,40,90.72,96.05S737.12,3400.8,681.09,3400.8Z"/><path class="cls-1" d="M686.18,3235.62c-34.69,0-53.36,26.68-53.36,64s18.68,64,53.36,64,53.36-26.68,53.36-64S720.87,3235.62,686.18,3235.62Zm0,160.09c-56,0-90.72-40-90.72-96.05s34.69-96.05,90.72-96.05,90.72,40,90.72,96.05S742.21,3395.71,686.18,3395.71Z"/><path class="cls-1" d="M691.28,3230.52c-34.69,0-53.36,26.68-53.36,64s18.68,64,53.36,64,53.36-26.68,53.36-64S726,3230.52,691.28,3230.52Zm0,160.09c-56,0-90.72-40-90.72-96.05s34.69-96.05,90.72-96.05,90.72,40,90.72,96.05S747.31,3390.61,691.28,3390.61Z"/><path class="cls-1" d="M696.38,3225.43c-34.69,0-53.36,26.68-53.36,64s18.68,64,53.36,64,53.36-26.68,53.36-64S731.06,3225.43,696.38,3225.43Zm0,160.09c-56,0-90.72-40-90.72-96.05s34.69-96.05,90.72-96.05,90.72,40,90.72,96.05S752.41,3385.52,696.38,3385.52Z"/><path class="cls-1" d="M701.47,3220.33c-34.69,0-53.36,26.68-53.36,64s18.68,64,53.36,64,53.36-26.68,53.36-64S736.16,3220.33,701.47,3220.33Zm0,160.09c-56,0-90.72-40-90.72-96.05s34.69-96.05,90.72-96.05,90.72,40,90.72,96.05S757.5,3380.42,701.47,3380.42Z"/><path class="cls-1" d="M706.57,3215.23c-34.69,0-53.36,26.68-53.36,64s18.68,64,53.36,64,53.36-26.68,53.36-64S741.26,3215.23,706.57,3215.23Zm0,160.09c-56,0-90.72-40-90.72-96.05s34.69-96.05,90.72-96.05,90.72,40,90.72,96.05S762.6,3375.32,706.57,3375.32Z"/><path class="cls-1" d="M711.67,3210.14c-34.69,0-53.36,26.68-53.36,64s18.68,64,53.36,64,53.36-26.68,53.36-64S746.35,3210.14,711.67,3210.14Zm0,160.09c-56,0-90.72-40-90.72-96.05s34.69-96.05,90.72-96.05,90.72,40,90.72,96.05S767.7,3370.23,711.67,3370.23Z"/><path class="cls-1" d="M716.76,3205c-34.69,0-53.36,26.68-53.36,64s18.68,64,53.36,64,53.36-26.68,53.36-64S751.45,3205,716.76,3205Zm0,160.09c-56,0-90.72-40-90.72-96.05S660.73,3173,716.76,3173s90.72,40,90.72,96.05S772.79,3365.13,716.76,3365.13Z"/><path class="cls-1" d="M721.86,3199.94c-34.69,0-53.36,26.68-53.36,64s18.68,64,53.36,64,53.36-26.68,53.36-64S756.54,3199.94,721.86,3199.94Zm0,160.09c-56,0-90.72-40-90.72-96.05s34.69-96.05,90.72-96.05,90.72,40,90.72,96.05S777.89,3360,721.86,3360Z"/><path class="cls-1" d="M727,3194.85c-34.69,0-53.36,26.68-53.36,64s18.68,64,53.36,64,53.36-26.68,53.36-64S761.64,3194.85,727,3194.85Zm0,160.09c-56,0-90.72-40-90.72-96.05s34.69-96.05,90.72-96.05,90.72,40,90.72,96.05S783,3354.94,727,3354.94Z"/><path class="cls-1" d="M732.05,3189.75c-34.69,0-53.36,26.68-53.36,64s18.68,64,53.36,64,53.36-26.68,53.36-64S766.74,3189.75,732.05,3189.75Zm0,160.09c-56,0-90.72-40-90.72-96.05s34.69-96.05,90.72-96.05,90.72,40,90.72,96.05S788.08,3349.84,732.05,3349.84Z"/><path class="cls-1" d="M737.15,3184.65c-34.69,0-53.36,26.68-53.36,64s18.68,64,53.36,64,53.36-26.68,53.36-64S771.83,3184.65,737.15,3184.65Zm0,160.09c-56,0-90.72-40-90.72-96.05s34.69-96.05,90.72-96.05,90.72,40,90.72,96.05S793.18,3344.74,737.15,3344.74Z"/><path class="cls-1" d="M742.24,3179.56c-34.69,0-53.36,26.68-53.36,64s18.68,64,53.36,64,53.36-26.68,53.36-64S776.93,3179.56,742.24,3179.56Zm0,160.09c-56,0-90.72-40-90.72-96.05s34.69-96.05,90.72-96.05,90.72,40,90.72,96.05S798.28,3339.65,742.24,3339.65Z"/><path class="cls-1" d="M747.34,3174.46c-34.69,0-53.36,26.68-53.36,64s18.68,64,53.36,64,53.36-26.68,53.36-64S782,3174.46,747.34,3174.46Zm0,160.09c-56,0-90.72-40-90.72-96.05s34.69-96.05,90.72-96.05,90.72,40,90.72,96.05S803.37,3334.55,747.34,3334.55Z"/><path class="cls-1" d="M752.44,3169.37c-34.69,0-53.36,26.68-53.36,64s18.68,64,53.36,64,53.36-26.68,53.36-64S787.12,3169.37,752.44,3169.37Zm0,160.09c-56,0-90.72-40-90.72-96.05s34.69-96.05,90.72-96.05,90.72,40,90.72,96.05S808.47,3329.45,752.44,3329.45Z"/><path class="cls-1" d="M757.53,3164.27c-34.69,0-53.36,26.68-53.36,64s18.68,64,53.36,64,53.36-26.68,53.36-64S792.22,3164.27,757.53,3164.27Zm0,160.09c-56,0-90.72-40-90.72-96.05s34.69-96.05,90.72-96.05,90.72,40,90.72,96.05S813.56,3324.36,757.53,3324.36Z"/><path class="cls-1" d="M762.63,3159.17c-34.69,0-53.36,26.68-53.36,64s18.68,64,53.36,64,53.36-26.68,53.36-64S797.32,3159.17,762.63,3159.17Zm0,160.09c-56,0-90.72-40-90.72-96.05s34.69-96.05,90.72-96.05,90.72,40,90.72,96.05S818.66,3319.26,762.63,3319.26Z"/><path class="cls-1" d="M767.73,3154.08c-34.69,0-53.36,26.68-53.36,64s18.68,64,53.36,64,53.36-26.68,53.36-64S802.41,3154.08,767.73,3154.08Zm0,160.09c-56,0-90.72-40-90.72-96.05s34.69-96.05,90.72-96.05,90.72,40,90.72,96.05S823.76,3314.17,767.73,3314.17Z"/><path class="cls-1" d="M772.82,3149c-34.69,0-53.36,26.68-53.36,64s18.68,64,53.36,64,53.36-26.68,53.36-64S807.51,3149,772.82,3149Zm0,160.09c-56,0-90.72-40-90.72-96.05S716.79,3117,772.82,3117s90.72,40,90.72,96.05S828.85,3309.07,772.82,3309.07Z"/><path class="cls-1" d="M777.92,3143.88c-34.69,0-53.36,26.68-53.36,64s18.68,64,53.36,64,53.36-26.68,53.36-64S812.61,3143.88,777.92,3143.88Zm0,160.09c-56,0-90.72-40-90.72-96.05s34.69-96.05,90.72-96.05,90.72,40,90.72,96.05S833.95,3304,777.92,3304Z"/><path class="cls-1" d="M783,3138.79c-34.69,0-53.36,26.68-53.36,64s18.68,64,53.36,64,53.36-26.68,53.36-64S817.7,3138.79,783,3138.79Zm0,160.09c-56,0-90.72-40-90.72-96.05S727,3106.77,783,3106.77s90.72,40,90.72,96.05S839,3298.88,783,3298.88Z"/><path class="cls-1" d="M788.11,3133.69c-34.69,0-53.36,26.68-53.36,64s18.68,64,53.36,64,53.36-26.68,53.36-64S822.8,3133.69,788.11,3133.69Zm0,160.09c-56,0-90.72-40-90.72-96.05s34.69-96.05,90.72-96.05,90.72,40,90.72,96.05S844.14,3293.78,788.11,3293.78Z"/><path class="cls-1" d="M793.21,3128.59c-34.69,0-53.36,26.68-53.36,64s18.68,64,53.36,64,53.36-26.68,53.36-64S827.89,3128.59,793.21,3128.59Zm0,160.09c-56,0-90.72-40-90.72-96.05s34.69-96.05,90.72-96.05,90.72,40,90.72,96.05S849.24,3288.68,793.21,3288.68Z"/><path class="cls-1" d="M798.3,3123.5c-34.69,0-53.36,26.68-53.36,64s18.68,64,53.36,64,53.36-26.68,53.36-64S833,3123.5,798.3,3123.5Zm0,160.09c-56,0-90.72-40-90.72-96.05s34.69-96.05,90.72-96.05,90.72,40,90.72,96.05S854.34,3283.59,798.3,3283.59Z"/><path class="cls-1" d="M803.4,3118.4c-34.69,0-53.36,26.68-53.36,64s18.68,64,53.36,64,53.36-26.68,53.36-64S838.09,3118.4,803.4,3118.4Zm0,160.09c-56,0-90.72-40-90.72-96.05s34.69-96.05,90.72-96.05,90.72,40,90.72,96.05S859.43,3278.49,803.4,3278.49Z"/><path class="cls-1" d="M808.5,3113.3c-34.69,0-53.36,26.68-53.36,64s18.68,64,53.36,64,53.36-26.68,53.36-64S843.18,3113.3,808.5,3113.3Zm0,160.09c-56,0-90.72-40-90.72-96.05s34.69-96.05,90.72-96.05,90.72,40,90.72,96.05S864.53,3273.39,808.5,3273.39Z"/><path class="cls-1" d="M813.59,3108.21c-34.69,0-53.36,26.68-53.36,64s18.68,64,53.36,64,53.36-26.68,53.36-64S848.28,3108.21,813.59,3108.21Zm0,160.09c-56,0-90.72-40-90.72-96.05s34.69-96.05,90.72-96.05,90.72,40,90.72,96.05S869.62,3268.3,813.59,3268.3Z"/><path class="cls-1" d="M818.69,3103.11c-34.69,0-53.36,26.68-53.36,64s18.68,64,53.36,64,53.36-26.68,53.36-64S853.38,3103.11,818.69,3103.11Zm0,160.09c-56,0-90.72-40-90.72-96.05s34.69-96.05,90.72-96.05,90.72,40,90.72,96.05S874.72,3263.2,818.69,3263.2Z"/><path class="cls-1" d="M823.79,3098c-34.69,0-53.36,26.68-53.36,64s18.68,64,53.36,64,53.36-26.68,53.36-64S858.47,3098,823.79,3098Zm0,160.09c-56,0-90.72-40-90.72-96.05S767.76,3066,823.79,3066s90.72,40,90.72,96.05S879.82,3258.1,823.79,3258.1Z"/><path class="cls-1" d="M828.88,3092.92c-34.69,0-53.36,26.68-53.36,64s18.68,64,53.36,64,53.36-26.68,53.36-64S863.57,3092.92,828.88,3092.92Zm0,160.09c-56,0-90.72-40-90.72-96.05s34.69-96.05,90.72-96.05,90.72,40,90.72,96.05S884.91,3253,828.88,3253Z"/><path class="cls-1" d="M834,3087.82c-34.69,0-53.36,26.68-53.36,64s18.68,64,53.36,64,53.36-26.68,53.36-64S868.67,3087.82,834,3087.82Zm0,160.09c-56,0-90.72-40-90.72-96.05s34.69-96.05,90.72-96.05,90.72,40,90.72,96.05S890,3247.91,834,3247.91Z"/><path class="cls-1" d="M839.08,3082.73c-34.69,0-53.36,26.68-53.36,64s18.68,64,53.36,64,53.36-26.68,53.36-64S873.76,3082.73,839.08,3082.73Zm0,160.09c-56,0-90.72-40-90.72-96.05s34.69-96.05,90.72-96.05,90.72,40,90.72,96.05S895.11,3242.82,839.08,3242.82Z"/><path class="cls-1" d="M844.17,3077.63c-34.69,0-53.36,26.68-53.36,64s18.68,64,53.36,64,53.36-26.68,53.36-64S878.86,3077.63,844.17,3077.63Zm0,160.09c-56,0-90.72-40-90.72-96.05s34.69-96.05,90.72-96.05,90.72,40,90.72,96.05S900.2,3237.72,844.17,3237.72Z"/><path class="cls-1" d="M849.27,3072.53c-34.69,0-53.36,26.68-53.36,64s18.68,64,53.36,64,53.36-26.68,53.36-64S884,3072.53,849.27,3072.53Zm0,160.09c-56,0-90.72-40-90.72-96.05s34.69-96.05,90.72-96.05,90.72,40,90.72,96.05S905.3,3232.62,849.27,3232.62Z"/><path class="cls-1" d="M854.37,3067.44c-34.69,0-53.36,26.68-53.36,64s18.68,64,53.36,64,53.36-26.68,53.36-64S889.05,3067.44,854.37,3067.44Zm0,160.09c-56,0-90.72-40-90.72-96.05s34.69-96.05,90.72-96.05,90.72,40,90.72,96.05S910.4,3227.53,854.37,3227.53Z"/><path class="cls-1" d="M859.46,3062.34c-34.69,0-53.36,26.68-53.36,64s18.68,64,53.36,64,53.36-26.68,53.36-64S894.15,3062.34,859.46,3062.34Zm0,160.09c-56,0-90.72-40-90.72-96.05s34.69-96.05,90.72-96.05,90.72,40,90.72,96.05S915.49,3222.43,859.46,3222.43Z"/><path class="cls-1" d="M864.56,3057.24c-34.69,0-53.36,26.68-53.36,64s18.68,64,53.36,64,53.36-26.68,53.36-64S899.24,3057.24,864.56,3057.24Zm0,160.09c-56,0-90.72-40-90.72-96.05s34.69-96.05,90.72-96.05,90.72,40,90.72,96.05S920.59,3217.33,864.56,3217.33Z"/><path class="cls-1" d="M869.65,3052.15c-34.69,0-53.36,26.68-53.36,64s18.68,64,53.36,64,53.36-26.68,53.36-64S904.34,3052.15,869.65,3052.15Zm0,160.09c-56,0-90.72-40-90.72-96.05s34.69-96.05,90.72-96.05,90.72,40,90.72,96.05S925.69,3212.24,869.65,3212.24Z"/><path class="cls-1" d="M874.75,3047.05c-34.69,0-53.36,26.68-53.36,64s18.68,64,53.36,64,53.36-26.68,53.36-64S909.44,3047.05,874.75,3047.05Zm0,160.09c-56,0-90.72-40-90.72-96.05S818.72,3015,874.75,3015s90.72,40,90.72,96.05S930.78,3207.14,874.75,3207.14Z"/><path class="cls-1" d="M879.85,3042c-34.69,0-53.36,26.68-53.36,64s18.68,64,53.36,64,53.36-26.68,53.36-64S914.53,3042,879.85,3042Zm0,160.09c-56,0-90.72-40-90.72-96.05s34.69-96.05,90.72-96.05,90.72,40,90.72,96.05S935.88,3202,879.85,3202Z"/><path class="cls-1" d="M884.94,3036.86c-34.69,0-53.36,26.68-53.36,64s18.68,64,53.36,64,53.36-26.68,53.36-64S919.63,3036.86,884.94,3036.86Zm0,160.09c-56,0-90.72-40-90.72-96.05s34.69-96.05,90.72-96.05,90.72,40,90.72,96.05S941,3196.95,884.94,3196.95Z"/><path class="cls-1" d="M890,3031.76c-34.69,0-53.36,26.68-53.36,64s18.68,64,53.36,64,53.36-26.68,53.36-64S924.73,3031.76,890,3031.76Zm0,160.09c-56,0-90.72-40-90.72-96.05S834,2999.74,890,2999.74s90.72,40,90.72,96.05S946.07,3191.85,890,3191.85Z"/><path class="cls-1" d="M895.14,3026.67c-34.69,0-53.36,26.68-53.36,64s18.68,64,53.36,64,53.36-26.68,53.36-64S929.82,3026.67,895.14,3026.67Zm0,160.09c-56,0-90.72-40-90.72-96.05s34.69-96.05,90.72-96.05,90.72,40,90.72,96.05S951.17,3186.75,895.14,3186.75Z"/><path class="cls-1" d="M900.23,3021.57c-34.69,0-53.36,26.68-53.36,64s18.68,64,53.36,64,53.36-26.68,53.36-64S934.92,3021.57,900.23,3021.57Zm0,160.09c-56,0-90.72-40-90.72-96.05s34.69-96.05,90.72-96.05,90.72,40,90.72,96.05S956.26,3181.66,900.23,3181.66Z"/><path class="cls-1" d="M905.33,3016.47c-34.69,0-53.36,26.68-53.36,64s18.68,64,53.36,64,53.36-26.68,53.36-64S940,3016.47,905.33,3016.47Zm0,160.09c-56,0-90.72-40-90.72-96.05s34.69-96.05,90.72-96.05,90.72,40,90.72,96.05S961.36,3176.56,905.33,3176.56Z"/><path class="cls-1" d="M910.43,3011.38c-34.69,0-53.36,26.68-53.36,64s18.68,64,53.36,64,53.36-26.68,53.36-64S945.11,3011.38,910.43,3011.38Zm0,160.09c-56,0-90.72-40-90.72-96.05s34.69-96.05,90.72-96.05,90.72,40,90.72,96.05S966.46,3171.47,910.43,3171.47Z"/><path class="cls-1" d="M915.52,3006.28c-34.69,0-53.36,26.68-53.36,64s18.68,64,53.36,64,53.36-26.68,53.36-64S950.21,3006.28,915.52,3006.28Zm0,160.09c-56,0-90.72-40-90.72-96.05s34.69-96.05,90.72-96.05,90.72,40,90.72,96.05S971.55,3166.37,915.52,3166.37Z"/><path class="cls-1" d="M920.62,3001.18c-34.69,0-53.36,26.68-53.36,64s18.68,64,53.36,64,53.36-26.68,53.36-64S955.31,3001.18,920.62,3001.18Zm0,160.09c-56,0-90.72-40-90.72-96.05s34.69-96.05,90.72-96.05,90.72,40,90.72,96.05S976.65,3161.27,920.62,3161.27Z"/><path class="cls-1" d="M925.72,2996.09c-34.69,0-53.36,26.68-53.36,64s18.68,64,53.36,64,53.36-26.68,53.36-64S960.4,2996.09,925.72,2996.09Zm0,160.09c-56,0-90.72-40-90.72-96.05s34.69-96.05,90.72-96.05,90.72,40,90.72,96.05S981.75,3156.18,925.72,3156.18Z"/><path class="cls-1" d="M930.81,2991c-34.69,0-53.36,26.68-53.36,64s18.68,64,53.36,64,53.36-26.68,53.36-64S965.5,2991,930.81,2991Zm0,160.09c-56,0-90.72-40-90.72-96.05S874.78,2959,930.81,2959s90.72,40,90.72,96.05S986.84,3151.08,930.81,3151.08Z"/><path class="cls-1" d="M935.91,2985.89c-34.69,0-53.36,26.68-53.36,64s18.68,64,53.36,64,53.36-26.68,53.36-64S970.59,2985.89,935.91,2985.89Zm0,160.09c-56,0-90.72-40-90.72-96.05s34.69-96.05,90.72-96.05,90.72,40,90.72,96.05S991.94,3146,935.91,3146Z"/><path class="cls-1" d="M941,2980.8c-34.69,0-53.36,26.68-53.36,64s18.68,64,53.36,64,53.36-26.68,53.36-64S975.69,2980.8,941,2980.8Zm0,160.09c-56,0-90.72-40-90.72-96.05S885,2948.78,941,2948.78s90.72,40,90.72,96.05S997,3140.89,941,3140.89Z"/><path class="cls-1" d="M946.1,2975.7c-34.69,0-53.36,26.68-53.36,64s18.68,64,53.36,64,53.36-26.68,53.36-64S980.79,2975.7,946.1,2975.7Zm0,160.09c-56,0-90.72-40-90.72-96.05s34.69-96.05,90.72-96.05,90.72,40,90.72,96.05S1002.13,3135.79,946.1,3135.79Z"/><path class="cls-1" d="M951.2,2970.6c-34.69,0-53.36,26.68-53.36,64s18.68,64,53.36,64,53.36-26.68,53.36-64S985.88,2970.6,951.2,2970.6Zm0,160.09c-56,0-90.72-40-90.72-96.05s34.69-96.05,90.72-96.05,90.72,40,90.72,96.05S1007.23,3130.69,951.2,3130.69Z"/><path class="cls-1" d="M956.29,2965.51c-34.69,0-53.36,26.68-53.36,64s18.68,64,53.36,64,53.36-26.68,53.36-64S991,2965.51,956.29,2965.51Zm0,160.09c-56,0-90.72-40-90.72-96.05s34.69-96.05,90.72-96.05,90.72,40,90.72,96.05S1012.32,3125.6,956.29,3125.6Z"/><path class="cls-1" d="M961.39,2960.41c-34.69,0-53.36,26.68-53.36,64s18.68,64,53.36,64,53.36-26.68,53.36-64S996.08,2960.41,961.39,2960.41Zm0,160.09c-56,0-90.72-40-90.72-96.05s34.69-96.05,90.72-96.05,90.72,40,90.72,96.05S1017.42,3120.5,961.39,3120.5Z"/><path class="cls-1" d="M966.49,2955.32c-34.69,0-53.36,26.68-53.36,64s18.68,64,53.36,64,53.36-26.68,53.36-64S1001.17,2955.32,966.49,2955.32Zm0,160.09c-56,0-90.72-40-90.72-96.05s34.69-96.05,90.72-96.05,90.72,40,90.72,96.05S1022.52,3115.4,966.49,3115.4Z"/><path class="cls-1" d="M971.58,2950.22c-34.69,0-53.36,26.68-53.36,64s18.68,64,53.36,64,53.36-26.68,53.36-64S1006.27,2950.22,971.58,2950.22Zm0,160.09c-56,0-90.72-40-90.72-96.05s34.69-96.05,90.72-96.05,90.72,40,90.72,96.05S1027.61,3110.31,971.58,3110.31Z"/><path class="cls-1" d="M976.68,2945.12c-34.69,0-53.36,26.68-53.36,64s18.68,64,53.36,64,53.36-26.68,53.36-64S1011.37,2945.12,976.68,2945.12Zm0,160.09c-56,0-90.72-40-90.72-96.05s34.69-96.05,90.72-96.05,90.72,40,90.72,96.05S1032.71,3105.21,976.68,3105.21Z"/><path class="cls-1" d="M981.78,2940c-34.69,0-53.36,26.68-53.36,64s18.68,64,53.36,64,53.36-26.68,53.36-64S1016.46,2940,981.78,2940Zm0,160.09c-56,0-90.72-40-90.72-96.05S925.74,2908,981.78,2908s90.72,40,90.72,96.05S1037.81,3100.12,981.78,3100.12Z"/><path class="cls-1" d="M986.87,2934.93c-34.69,0-53.36,26.68-53.36,64s18.68,64,53.36,64,53.36-26.68,53.36-64S1021.56,2934.93,986.87,2934.93Zm0,160.09c-56,0-90.72-40-90.72-96.05s34.69-96.05,90.72-96.05,90.72,40,90.72,96.05S1042.9,3095,986.87,3095Z"/><path class="cls-1" d="M992,2929.83c-34.69,0-53.36,26.68-53.36,64s18.68,64,53.36,64,53.36-26.68,53.36-64S1026.66,2929.83,992,2929.83Zm0,160.09c-56,0-90.72-40-90.72-96.05s34.69-96.05,90.72-96.05,90.72,40,90.72,96.05S1048,3089.92,992,3089.92Z"/><path class="cls-1" d="M997.07,2924.74c-34.69,0-53.36,26.68-53.36,64s18.68,64,53.36,64,53.36-26.68,53.36-64S1031.75,2924.74,997.07,2924.74Zm0,160.09c-56,0-90.72-40-90.72-96.05s34.69-96.05,90.72-96.05,90.72,40,90.72,96.05S1053.1,3084.83,997.07,3084.83Z"/><path class="cls-1" d="M1002.16,2919.64c-34.69,0-53.36,26.68-53.36,64s18.68,64,53.36,64,53.36-26.68,53.36-64S1036.85,2919.64,1002.16,2919.64Zm0,160.09c-56,0-90.72-40-90.72-96.05s34.69-96.05,90.72-96.05,90.72,40,90.72,96.05S1058.19,3079.73,1002.16,3079.73Z"/><path class="cls-1" d="M1007.26,2914.54c-34.69,0-53.36,26.68-53.36,64s18.68,64,53.36,64,53.36-26.68,53.36-64S1041.94,2914.54,1007.26,2914.54Zm0,160.09c-56,0-90.72-40-90.72-96.05s34.69-96.05,90.72-96.05,90.72,40,90.72,96.05S1063.29,3074.63,1007.26,3074.63Z"/><path class="cls-1" d="M1012.35,2909.45c-34.69,0-53.36,26.68-53.36,64s18.68,64,53.36,64,53.36-26.68,53.36-64S1047,2909.45,1012.35,2909.45Zm0,160.09c-56,0-90.72-40-90.72-96.05s34.69-96.05,90.72-96.05,90.72,40,90.72,96.05S1068.39,3069.54,1012.35,3069.54Z"/><path class="cls-1" d="M1017.45,2904.35c-34.69,0-53.36,26.68-53.36,64s18.68,64,53.36,64,53.36-26.68,53.36-64S1052.14,2904.35,1017.45,2904.35Zm0,160.09c-56,0-90.72-40-90.72-96.05s34.69-96.05,90.72-96.05,90.72,40,90.72,96.05S1073.48,3064.44,1017.45,3064.44Z"/><path class="cls-1" d="M1022.55,2899.25c-34.69,0-53.36,26.68-53.36,64s18.68,64,53.36,64,53.36-26.68,53.36-64S1057.23,2899.25,1022.55,2899.25Zm0,160.09c-56,0-90.72-40-90.72-96.05s34.69-96.05,90.72-96.05,90.72,40,90.72,96.05S1078.58,3059.34,1022.55,3059.34Z"/><path class="cls-1" d="M1027.64,2894.16c-34.69,0-53.36,26.68-53.36,64s18.68,64,53.36,64,53.36-26.68,53.36-64S1062.33,2894.16,1027.64,2894.16Zm0,160.09c-56,0-90.72-40-90.72-96.05s34.69-96.05,90.72-96.05,90.72,40,90.72,96.05S1083.67,3054.25,1027.64,3054.25Z"/><path class="cls-1" d="M1032.74,2889.06c-34.69,0-53.36,26.68-53.36,64s18.68,64,53.36,64,53.36-26.68,53.36-64S1067.43,2889.06,1032.74,2889.06Zm0,160.09c-56,0-90.72-40-90.72-96.05s34.69-96.05,90.72-96.05,90.72,40,90.72,96.05S1088.77,3049.15,1032.74,3049.15Z"/><path class="cls-1" d="M1037.84,2884c-34.69,0-53.36,26.68-53.36,64s18.68,64,53.36,64,53.36-26.68,53.36-64S1072.52,2884,1037.84,2884Zm0,160.09c-56,0-90.72-40-90.72-96.05s34.69-96.05,90.72-96.05,90.72,40,90.72,96.05S1093.87,3044.05,1037.84,3044.05Z"/><path class="cls-1" d="M1042.93,2878.87c-34.69,0-53.36,26.68-53.36,64s18.68,64,53.36,64,53.36-26.68,53.36-64S1077.62,2878.87,1042.93,2878.87Zm0,160.09c-56,0-90.72-40-90.72-96.05s34.69-96.05,90.72-96.05,90.72,40,90.72,96.05S1099,3039,1042.93,3039Z"/><path class="cls-1" d="M1048,2873.77c-34.69,0-53.36,26.68-53.36,64s18.68,64,53.36,64,53.36-26.68,53.36-64S1082.72,2873.77,1048,2873.77Zm0,160.09c-56,0-90.72-40-90.72-96.05s34.69-96.05,90.72-96.05,90.72,40,90.72,96.05S1104.06,3033.86,1048,3033.86Z"/><path class="cls-1" d="M1053.13,2868.68c-34.69,0-53.36,26.68-53.36,64s18.68,64,53.36,64,53.36-26.68,53.36-64S1087.81,2868.68,1053.13,2868.68Zm0,160.09c-56,0-90.72-40-90.72-96.05s34.69-96.05,90.72-96.05,90.72,40,90.72,96.05S1109.16,3028.77,1053.13,3028.77Z"/><path class="cls-1" d="M1058.22,2863.58c-34.69,0-53.36,26.68-53.36,64s18.68,64,53.36,64,53.36-26.68,53.36-64S1092.91,2863.58,1058.22,2863.58Zm0,160.09c-56,0-90.72-40-90.72-96.05s34.69-96.05,90.72-96.05,90.72,40,90.72,96.05S1114.25,3023.67,1058.22,3023.67Z"/><path class="cls-1" d="M1063.32,2858.48c-34.69,0-53.36,26.68-53.36,64s18.68,64,53.36,64,53.36-26.68,53.36-64S1098,2858.48,1063.32,2858.48Zm0,160.09c-56,0-90.72-40-90.72-96.05s34.69-96.05,90.72-96.05,90.72,40,90.72,96.05S1119.35,3018.57,1063.32,3018.57Z"/><path class="cls-1" d="M1068.41,2853.39c-34.69,0-53.36,26.68-53.36,64s18.68,64,53.36,64,53.36-26.68,53.36-64S1103.1,2853.39,1068.41,2853.39Zm0,160.09c-56,0-90.72-40-90.72-96.05s34.69-96.05,90.72-96.05,90.72,40,90.72,96.05S1124.45,3013.48,1068.41,3013.48Z"/><path class="cls-1" d="M1073.51,2848.29c-34.69,0-53.36,26.68-53.36,64s18.68,64,53.36,64,53.36-26.68,53.36-64S1108.2,2848.29,1073.51,2848.29Zm0,160.09c-56,0-90.72-40-90.72-96.05s34.69-96.05,90.72-96.05,90.72,40,90.72,96.05S1129.54,3008.38,1073.51,3008.38Z"/><path class="cls-1" d="M1078.61,2843.19c-34.69,0-53.36,26.68-53.36,64s18.68,64,53.36,64,53.36-26.68,53.36-64S1113.29,2843.19,1078.61,2843.19Zm0,160.09c-56,0-90.72-40-90.72-96.05s34.69-96.05,90.72-96.05,90.72,40,90.72,96.05S1134.64,3003.28,1078.61,3003.28Z"/><path class="cls-1" d="M1083.7,2838.1c-34.69,0-53.36,26.68-53.36,64s18.68,64,53.36,64,53.36-26.68,53.36-64S1118.39,2838.1,1083.7,2838.1Zm0,160.09c-56,0-90.72-40-90.72-96.05s34.69-96.05,90.72-96.05,90.72,40,90.72,96.05S1139.74,2998.19,1083.7,2998.19Z"/><path class="cls-1" d="M1088.8,2833c-34.69,0-53.36,26.68-53.36,64s18.68,64,53.36,64,53.36-26.68,53.36-64S1123.49,2833,1088.8,2833Zm0,160.09c-56,0-90.72-40-90.72-96.05s34.69-96.05,90.72-96.05,90.72,40,90.72,96.05S1144.83,2993.09,1088.8,2993.09Z"/><path class="cls-1" d="M1093.9,2827.9c-34.69,0-53.36,26.68-53.36,64s18.68,64,53.36,64,53.36-26.68,53.36-64S1128.58,2827.9,1093.9,2827.9Zm0,160.09c-56,0-90.72-40-90.72-96.05s34.69-96.05,90.72-96.05,90.72,40,90.72,96.05S1149.93,2988,1093.9,2988Z"/><path class="cls-1" d="M1099,2822.81c-34.69,0-53.36,26.68-53.36,64s18.68,64,53.36,64,53.36-26.68,53.36-64S1133.68,2822.81,1099,2822.81Zm0,160.09c-56,0-90.72-40-90.72-96.05s34.69-96.05,90.72-96.05,90.72,40,90.72,96.05S1155,2982.9,1099,2982.9Z"/><path class="cls-1" d="M1104.09,2817.71c-34.69,0-53.36,26.68-53.36,64s18.68,64,53.36,64,53.36-26.68,53.36-64S1138.78,2817.71,1104.09,2817.71Zm0,160.09c-56,0-90.72-40-90.72-96.05s34.69-96.05,90.72-96.05,90.72,40,90.72,96.05S1160.12,2977.8,1104.09,2977.8Z"/><path class="cls-1" d="M1109.19,2812.62c-34.69,0-53.36,26.68-53.36,64s18.68,64,53.36,64,53.36-26.68,53.36-64S1143.87,2812.62,1109.19,2812.62Zm0,160.09c-56,0-90.72-40-90.72-96.05s34.69-96.05,90.72-96.05,90.72,40,90.72,96.05S1165.22,2972.71,1109.19,2972.71Z"/><path class="cls-1" d="M1114.28,2807.52c-34.69,0-53.36,26.68-53.36,64s18.68,64,53.36,64,53.36-26.68,53.36-64S1149,2807.52,1114.28,2807.52Zm0,160.09c-56,0-90.72-40-90.72-96.05s34.69-96.05,90.72-96.05,90.72,40,90.72,96.05S1170.31,2967.61,1114.28,2967.61Z"/><path class="cls-1" d="M1119.38,2802.42c-34.69,0-53.36,26.68-53.36,64s18.68,64,53.36,64,53.36-26.68,53.36-64S1154.07,2802.42,1119.38,2802.42Zm0,160.09c-56,0-90.72-40-90.72-96.05s34.69-96.05,90.72-96.05,90.72,40,90.72,96.05S1175.41,2962.51,1119.38,2962.51Z"/><path class="cls-1" d="M1124.48,2797.33c-34.69,0-53.36,26.68-53.36,64s18.68,64,53.36,64,53.36-26.68,53.36-64S1159.16,2797.33,1124.48,2797.33Zm0,160.09c-56,0-90.72-40-90.72-96.05s34.69-96.05,90.72-96.05,90.72,40,90.72,96.05S1180.51,2957.42,1124.48,2957.42Z"/><path class="cls-1" d="M1129.57,2792.23c-34.69,0-53.36,26.68-53.36,64s18.68,64,53.36,64,53.36-26.68,53.36-64S1164.26,2792.23,1129.57,2792.23Zm0,160.09c-56,0-90.72-40-90.72-96.05s34.69-96.05,90.72-96.05,90.72,40,90.72,96.05S1185.6,2952.32,1129.57,2952.32Z"/><path class="cls-1" d="M1134.67,2787.13c-34.69,0-53.36,26.68-53.36,64s18.68,64,53.36,64,53.36-26.68,53.36-64S1169.36,2787.13,1134.67,2787.13Zm0,160.09c-56,0-90.72-40-90.72-96.05s34.69-96.05,90.72-96.05,90.72,40,90.72,96.05S1190.7,2947.22,1134.67,2947.22Z"/><path class="cls-1" d="M1139.76,2782c-34.69,0-53.36,26.68-53.36,64s18.68,64,53.36,64,53.36-26.68,53.36-64S1174.45,2782,1139.76,2782Zm0,160.09c-56,0-90.72-40-90.72-96.05s34.69-96.05,90.72-96.05,90.72,40,90.72,96.05S1195.8,2942.13,1139.76,2942.13Z"/><path class="cls-1" d="M1144.86,2776.94c-34.69,0-53.36,26.68-53.36,64s18.68,64,53.36,64,53.36-26.68,53.36-64S1179.55,2776.94,1144.86,2776.94Zm0,160.09c-56,0-90.72-40-90.72-96.05s34.69-96.05,90.72-96.05,90.72,40,90.72,96.05S1200.89,2937,1144.86,2937Z"/><path class="cls-1" d="M1150,2771.84c-34.69,0-53.36,26.68-53.36,64s18.68,64,53.36,64,53.36-26.68,53.36-64S1184.64,2771.84,1150,2771.84Zm0,160.09c-56,0-90.72-40-90.72-96.05s34.69-96.05,90.72-96.05,90.72,40,90.72,96.05S1206,2931.93,1150,2931.93Z"/><path class="cls-1" d="M1155.05,2766.75c-34.69,0-53.36,26.68-53.36,64s18.68,64,53.36,64,53.36-26.68,53.36-64S1189.74,2766.75,1155.05,2766.75Zm0,160.09c-56,0-90.72-40-90.72-96.05s34.69-96.05,90.72-96.05,90.72,40,90.72,96.05S1211.09,2926.84,1155.05,2926.84Z"/><path class="cls-1" d="M1160.15,2761.65c-34.69,0-53.36,26.68-53.36,64s18.68,64,53.36,64,53.36-26.68,53.36-64S1194.84,2761.65,1160.15,2761.65Zm0,160.09c-56,0-90.72-40-90.72-96.05s34.69-96.05,90.72-96.05,90.72,40,90.72,96.05S1216.18,2921.74,1160.15,2921.74Z"/><path class="cls-1" d="M1165.25,2756.55c-34.69,0-53.36,26.68-53.36,64s18.68,64,53.36,64,53.36-26.68,53.36-64S1199.93,2756.55,1165.25,2756.55Zm0,160.09c-56,0-90.72-40-90.72-96.05s34.69-96.05,90.72-96.05,90.72,40,90.72,96.05S1221.28,2916.64,1165.25,2916.64Z"/><path class="cls-1" d="M1170.34,2751.46c-34.69,0-53.36,26.68-53.36,64s18.68,64,53.36,64,53.36-26.68,53.36-64S1205,2751.46,1170.34,2751.46Zm0,160.09c-56,0-90.72-40-90.72-96.05s34.69-96.05,90.72-96.05,90.72,40,90.72,96.05S1226.37,2911.55,1170.34,2911.55Z"/><path class="cls-1" d="M1175.44,2746.36c-34.69,0-53.36,26.68-53.36,64s18.68,64,53.36,64,53.36-26.68,53.36-64S1210.13,2746.36,1175.44,2746.36Zm0,160.09c-56,0-90.72-40-90.72-96.05s34.69-96.05,90.72-96.05,90.72,40,90.72,96.05S1231.47,2906.45,1175.44,2906.45Z"/><path class="cls-1" d="M1180.54,2741.27c-34.69,0-53.36,26.68-53.36,64s18.68,64,53.36,64,53.36-26.68,53.36-64S1215.22,2741.27,1180.54,2741.27Zm0,160.09c-56,0-90.72-40-90.72-96.05s34.69-96.05,90.72-96.05,90.72,40,90.72,96.05S1236.57,2901.36,1180.54,2901.36Z"/><path class="cls-1" d="M1185.63,2736.17c-34.69,0-53.36,26.68-53.36,64s18.68,64,53.36,64,53.36-26.68,53.36-64S1220.32,2736.17,1185.63,2736.17Zm0,160.09c-56,0-90.72-40-90.72-96.05s34.69-96.05,90.72-96.05,90.72,40,90.72,96.05S1241.66,2896.26,1185.63,2896.26Z"/><path class="cls-1" d="M1190.73,2731.07c-34.69,0-53.36,26.68-53.36,64s18.68,64,53.36,64,53.36-26.68,53.36-64S1225.42,2731.07,1190.73,2731.07Zm0,160.09c-56,0-90.72-40-90.72-96.05s34.69-96.05,90.72-96.05,90.72,40,90.72,96.05S1246.76,2891.16,1190.73,2891.16Z"/><path class="cls-1" d="M1195.83,2726c-34.69,0-53.36,26.68-53.36,64s18.68,64,53.36,64,53.36-26.68,53.36-64S1230.51,2726,1195.83,2726Zm0,160.09c-56,0-90.72-40-90.72-96.05s34.69-96.05,90.72-96.05,90.72,40,90.72,96.05S1251.86,2886.07,1195.83,2886.07Z"/><path class="cls-1" d="M1200.92,2720.88c-34.69,0-53.36,26.68-53.36,64s18.68,64,53.36,64,53.36-26.68,53.36-64S1235.61,2720.88,1200.92,2720.88Zm0,160.09c-56,0-90.72-40-90.72-96.05s34.69-96.05,90.72-96.05,90.72,40,90.72,96.05S1257,2881,1200.92,2881Z"/><path class="cls-1" d="M1206,2715.78c-34.69,0-53.36,26.68-53.36,64s18.68,64,53.36,64,53.36-26.68,53.36-64S1240.7,2715.78,1206,2715.78Zm0,160.09c-56,0-90.72-40-90.72-96.05s34.69-96.05,90.72-96.05,90.72,40,90.72,96.05S1262,2875.87,1206,2875.87Z"/><path class="cls-1" d="M1211.11,2710.69c-34.69,0-53.36,26.68-53.36,64s18.68,64,53.36,64,53.36-26.68,53.36-64S1245.8,2710.69,1211.11,2710.69Zm0,160.09c-56,0-90.72-40-90.72-96.05s34.69-96.05,90.72-96.05,90.72,40,90.72,96.05S1267.15,2870.78,1211.11,2870.78Z"/><path class="cls-1" d="M1216.21,2705.59c-34.69,0-53.36,26.68-53.36,64s18.68,64,53.36,64,53.36-26.68,53.36-64S1250.9,2705.59,1216.21,2705.59Zm0,160.09c-56,0-90.72-40-90.72-96.05s34.69-96.05,90.72-96.05,90.72,40,90.72,96.05S1272.24,2865.68,1216.21,2865.68Z"/><path class="cls-1" d="M1221.31,2700.49c-34.69,0-53.36,26.68-53.36,64s18.68,64,53.36,64,53.36-26.68,53.36-64S1256,2700.49,1221.31,2700.49Zm0,160.09c-56,0-90.72-40-90.72-96.05s34.69-96.05,90.72-96.05,90.72,40,90.72,96.05S1277.34,2860.58,1221.31,2860.58Z"/><path class="cls-1" d="M1226.4,2695.4c-34.69,0-53.36,26.68-53.36,64s18.68,64,53.36,64,53.36-26.68,53.36-64S1261.09,2695.4,1226.4,2695.4Zm0,160.09c-56,0-90.72-40-90.72-96.05s34.69-96.05,90.72-96.05,90.72,40,90.72,96.05S1282.44,2855.49,1226.4,2855.49Z"/><path class="cls-1" d="M1231.5,2690.3c-34.69,0-53.36,26.68-53.36,64s18.68,64,53.36,64,53.36-26.68,53.36-64S1266.19,2690.3,1231.5,2690.3Zm0,160.09c-56,0-90.72-40-90.72-96.05s34.69-96.05,90.72-96.05,90.72,40,90.72,96.05S1287.53,2850.39,1231.5,2850.39Z"/><path class="cls-1" d="M1236.6,2685.2c-34.69,0-53.36,26.68-53.36,64s18.68,64,53.36,64,53.36-26.68,53.36-64S1271.28,2685.2,1236.6,2685.2Zm0,160.09c-56,0-90.72-40-90.72-96.05s34.69-96.05,90.72-96.05,90.72,40,90.72,96.05S1292.63,2845.29,1236.6,2845.29Z"/><path class="cls-1" d="M1241.69,2680.11c-34.69,0-53.36,26.68-53.36,64s18.68,64,53.36,64,53.36-26.68,53.36-64S1276.38,2680.11,1241.69,2680.11Zm0,160.09c-56,0-90.72-40-90.72-96.05s34.69-96.05,90.72-96.05,90.72,40,90.72,96.05S1297.72,2840.2,1241.69,2840.2Z"/><path class="cls-1" d="M1246.79,2675c-34.69,0-53.36,26.68-53.36,64s18.68,64,53.36,64,53.36-26.68,53.36-64S1281.48,2675,1246.79,2675Zm0,160.09c-56,0-90.72-40-90.72-96.05s34.69-96.05,90.72-96.05,90.72,40,90.72,96.05S1302.82,2835.1,1246.79,2835.1Z"/><path class="cls-1" d="M1251.89,2669.92c-34.69,0-53.36,26.68-53.36,64s18.68,64,53.36,64,53.36-26.68,53.36-64S1286.57,2669.92,1251.89,2669.92Zm0,160.09c-56,0-90.72-40-90.72-96.05s34.69-96.05,90.72-96.05,90.72,40,90.72,96.05S1307.92,2830,1251.89,2830Z"/><path class="cls-1" d="M1257,2664.82c-34.69,0-53.36,26.68-53.36,64s18.68,64,53.36,64,53.36-26.68,53.36-64S1291.67,2664.82,1257,2664.82Zm0,160.09c-56,0-90.72-40-90.72-96.05S1201,2632.8,1257,2632.8s90.72,40,90.72,96.05S1313,2824.91,1257,2824.91Z"/><path class="cls-1" d="M1262.08,2659.72c-34.69,0-53.36,26.68-53.36,64s18.68,64,53.36,64,53.36-26.68,53.36-64S1296.77,2659.72,1262.08,2659.72Zm0,160.09c-56,0-90.72-40-90.72-96.05s34.69-96.05,90.72-96.05,90.72,40,90.72,96.05S1318.11,2819.81,1262.08,2819.81Z"/><path class="cls-1" d="M1267.18,2654.63c-34.69,0-53.36,26.68-53.36,64s18.68,64,53.36,64,53.36-26.68,53.36-64S1301.86,2654.63,1267.18,2654.63Zm0,160.09c-56,0-90.72-40-90.72-96.05s34.69-96.05,90.72-96.05,90.72,40,90.72,96.05S1323.21,2814.72,1267.18,2814.72Z"/><path class="cls-1" d="M1272.27,2649.53c-34.69,0-53.36,26.68-53.36,64s18.68,64,53.36,64,53.36-26.68,53.36-64S1307,2649.53,1272.27,2649.53Zm0,160.09c-56,0-90.72-40-90.72-96.05s34.69-96.05,90.72-96.05,90.72,40,90.72,96.05S1328.3,2809.62,1272.27,2809.62Z"/><path class="cls-1" d="M1277.37,2644.43c-34.69,0-53.36,26.68-53.36,64s18.68,64,53.36,64,53.36-26.68,53.36-64S1312.05,2644.43,1277.37,2644.43Zm0,160.09c-56,0-90.72-40-90.72-96.05s34.69-96.05,90.72-96.05,90.72,40,90.72,96.05S1333.4,2804.52,1277.37,2804.52Z"/><path class="cls-1" d="M1282.46,2639.34c-34.69,0-53.36,26.68-53.36,64s18.68,64,53.36,64,53.36-26.68,53.36-64S1317.15,2639.34,1282.46,2639.34Zm0,160.09c-56,0-90.72-40-90.72-96.05s34.69-96.05,90.72-96.05,90.72,40,90.72,96.05S1338.5,2799.43,1282.46,2799.43Z"/><path class="cls-1" d="M1287.56,2634.24c-34.69,0-53.36,26.68-53.36,64s18.68,64,53.36,64,53.36-26.68,53.36-64S1322.25,2634.24,1287.56,2634.24Zm0,160.09c-56,0-90.72-40-90.72-96.05s34.69-96.05,90.72-96.05,90.72,40,90.72,96.05S1343.59,2794.33,1287.56,2794.33Z"/><path class="cls-1" d="M1292.66,2629.14c-34.69,0-53.36,26.68-53.36,64s18.68,64,53.36,64,53.36-26.68,53.36-64S1327.34,2629.14,1292.66,2629.14Zm0,160.09c-56,0-90.72-40-90.72-96.05s34.69-96.05,90.72-96.05,90.72,40,90.72,96.05S1348.69,2789.23,1292.66,2789.23Z"/><path class="cls-1" d="M1297.75,2624c-34.69,0-53.36,26.68-53.36,64s18.68,64,53.36,64,53.36-26.68,53.36-64S1332.44,2624,1297.75,2624Zm0,160.09c-56,0-90.72-40-90.72-96.05s34.69-96.05,90.72-96.05,90.72,40,90.72,96.05S1353.79,2784.14,1297.75,2784.14Z"/><path class="cls-1" d="M1302.85,2619c-34.69,0-53.36,26.68-53.36,64s18.68,64,53.36,64,53.36-26.68,53.36-64S1337.54,2619,1302.85,2619Zm0,160.09c-56,0-90.72-40-90.72-96.05s34.69-96.05,90.72-96.05,90.72,40,90.72,96.05S1358.88,2779,1302.85,2779Z"/><path class="cls-1" d="M1307.95,2613.85c-34.69,0-53.36,26.68-53.36,64s18.68,64,53.36,64,53.36-26.68,53.36-64S1342.63,2613.85,1307.95,2613.85Zm0,160.09c-56,0-90.72-40-90.72-96.05s34.69-96.05,90.72-96.05,90.72,40,90.72,96.05S1364,2773.94,1307.95,2773.94Z"/><path class="cls-1" d="M1313,2608.76c-34.69,0-53.36,26.68-53.36,64s18.68,64,53.36,64,53.36-26.68,53.36-64S1347.73,2608.76,1313,2608.76Zm0,160.09c-56,0-90.72-40-90.72-96.05s34.69-96.05,90.72-96.05,90.72,40,90.72,96.05S1369.07,2768.85,1313,2768.85Z"/><path class="cls-1" d="M1318.14,2603.66c-34.69,0-53.36,26.68-53.36,64s18.68,64,53.36,64,53.36-26.68,53.36-64S1352.83,2603.66,1318.14,2603.66Zm0,160.09c-56,0-90.72-40-90.72-96.05s34.69-96.05,90.72-96.05,90.72,40,90.72,96.05S1374.17,2763.75,1318.14,2763.75Z"/><path class="cls-1" d="M1323.24,2598.57c-34.69,0-53.36,26.68-53.36,64s18.68,64,53.36,64,53.36-26.68,53.36-64S1357.92,2598.57,1323.24,2598.57Zm0,160.09c-56,0-90.72-40-90.72-96.05s34.69-96.05,90.72-96.05,90.72,40,90.72,96.05S1379.27,2758.66,1323.24,2758.66Z"/><path class="cls-1" d="M1328.33,2593.47c-34.69,0-53.36,26.68-53.36,64s18.68,64,53.36,64,53.36-26.68,53.36-64S1363,2593.47,1328.33,2593.47Zm0,160.09c-56,0-90.72-40-90.72-96.05s34.69-96.05,90.72-96.05,90.72,40,90.72,96.05S1384.36,2753.56,1328.33,2753.56Z"/><path class="cls-1" d="M1333.43,2588.37c-34.69,0-53.36,26.68-53.36,64s18.68,64,53.36,64,53.36-26.68,53.36-64S1368.12,2588.37,1333.43,2588.37Zm0,160.09c-56,0-90.72-40-90.72-96.05s34.69-96.05,90.72-96.05,90.72,40,90.72,96.05S1389.46,2748.46,1333.43,2748.46Z"/><path class="cls-1" d="M1338.53,2583.28c-34.69,0-53.36,26.68-53.36,64s18.68,64,53.36,64,53.36-26.68,53.36-64S1373.21,2583.28,1338.53,2583.28Zm0,160.09c-56,0-90.72-40-90.72-96.05s34.69-96.05,90.72-96.05,90.72,40,90.72,96.05S1394.56,2743.37,1338.53,2743.37Z"/><path class="cls-1" d="M1343.62,2578.18c-34.69,0-53.36,26.68-53.36,64s18.68,64,53.36,64,53.36-26.68,53.36-64S1378.31,2578.18,1343.62,2578.18Zm0,160.09c-56,0-90.72-40-90.72-96.05s34.69-96.05,90.72-96.05,90.72,40,90.72,96.05S1399.65,2738.27,1343.62,2738.27Z"/><path class="cls-1" d="M1348.72,2573.08c-34.69,0-53.36,26.68-53.36,64s18.68,64,53.36,64,53.36-26.68,53.36-64S1383.4,2573.08,1348.72,2573.08Zm0,160.09c-56,0-90.72-40-90.72-96.05s34.69-96.05,90.72-96.05,90.72,40,90.72,96.05S1404.75,2733.17,1348.72,2733.17Z"/><path class="cls-1" d="M1353.81,2568c-34.69,0-53.36,26.68-53.36,64s18.68,64,53.36,64,53.36-26.68,53.36-64S1388.5,2568,1353.81,2568Zm0,160.09c-56,0-90.72-40-90.72-96.05s34.69-96.05,90.72-96.05,90.72,40,90.72,96.05S1409.85,2728.08,1353.81,2728.08Z"/><path class="cls-1" d="M1358.91,2562.89c-34.69,0-53.36,26.68-53.36,64s18.68,64,53.36,64,53.36-26.68,53.36-64S1393.6,2562.89,1358.91,2562.89Zm0,160.09c-56,0-90.72-40-90.72-96.05s34.69-96.05,90.72-96.05,90.72,40,90.72,96.05S1414.94,2723,1358.91,2723Z"/><path class="cls-1" d="M1364,2557.79c-34.69,0-53.36,26.68-53.36,64s18.68,64,53.36,64,53.36-26.68,53.36-64S1398.69,2557.79,1364,2557.79Zm0,160.09c-56,0-90.72-40-90.72-96.05s34.69-96.05,90.72-96.05,90.72,40,90.72,96.05S1420,2717.88,1364,2717.88Z"/><path class="cls-1" d="M1369.1,2552.7c-34.69,0-53.36,26.68-53.36,64s18.68,64,53.36,64,53.36-26.68,53.36-64S1403.79,2552.7,1369.1,2552.7Zm0,160.09c-56,0-90.72-40-90.72-96.05s34.69-96.05,90.72-96.05,90.72,40,90.72,96.05S1425.14,2712.79,1369.1,2712.79Z"/><path class="cls-1" d="M1374.2,2547.6c-34.69,0-53.36,26.68-53.36,64s18.68,64,53.36,64,53.36-26.68,53.36-64S1408.89,2547.6,1374.2,2547.6Zm0,160.09c-56,0-90.72-40-90.72-96.05s34.69-96.05,90.72-96.05,90.72,40,90.72,96.05S1430.23,2707.69,1374.2,2707.69Z"/><path class="cls-1" d="M1379.3,2542.5c-34.69,0-53.36,26.68-53.36,64s18.68,64,53.36,64,53.36-26.68,53.36-64S1414,2542.5,1379.3,2542.5Zm0,160.09c-56,0-90.72-40-90.72-96.05s34.69-96.05,90.72-96.05,90.72,40,90.72,96.05S1435.33,2702.59,1379.3,2702.59Z"/><path class="cls-1" d="M1384.39,2537.41c-34.69,0-53.36,26.68-53.36,64s18.68,64,53.36,64,53.36-26.68,53.36-64S1419.08,2537.41,1384.39,2537.41Zm0,160.09c-56,0-90.72-40-90.72-96.05s34.69-96.05,90.72-96.05,90.72,40,90.72,96.05S1440.42,2697.5,1384.39,2697.5Z"/><path class="cls-1" d="M1389.49,2532.31c-34.69,0-53.36,26.68-53.36,64s18.68,64,53.36,64,53.36-26.68,53.36-64S1424.18,2532.31,1389.49,2532.31Zm0,160.09c-56,0-90.72-40-90.72-96.05s34.69-96.05,90.72-96.05,90.72,40,90.72,96.05S1445.52,2692.4,1389.49,2692.4Z"/><path class="cls-1" d="M1394.59,2527.22c-34.69,0-53.36,26.68-53.36,64s18.68,64,53.36,64,53.36-26.68,53.36-64S1429.27,2527.22,1394.59,2527.22Zm0,160.09c-56,0-90.72-40-90.72-96.05s34.69-96.05,90.72-96.05,90.72,40,90.72,96.05S1450.62,2687.31,1394.59,2687.31Z"/><path class="cls-1" d="M1399.68,2522.12c-34.69,0-53.36,26.68-53.36,64s18.68,64,53.36,64,53.36-26.68,53.36-64S1434.37,2522.12,1399.68,2522.12Zm0,160.09c-56,0-90.72-40-90.72-96.05s34.69-96.05,90.72-96.05,90.72,40,90.72,96.05S1455.71,2682.21,1399.68,2682.21Z"/><path class="cls-1" d="M1404.78,2517c-34.69,0-53.36,26.68-53.36,64s18.68,64,53.36,64,53.36-26.68,53.36-64S1439.47,2517,1404.78,2517Zm0,160.09c-56,0-90.72-40-90.72-96.05s34.69-96.05,90.72-96.05,90.72,40,90.72,96.05S1460.81,2677.11,1404.78,2677.11Z"/><path class="cls-1" d="M1409.88,2511.93c-34.69,0-53.36,26.68-53.36,64s18.68,64,53.36,64,53.36-26.68,53.36-64S1444.56,2511.93,1409.88,2511.93Zm0,160.09c-56,0-90.72-40-90.72-96.05s34.69-96.05,90.72-96.05,90.72,40,90.72,96.05S1465.91,2672,1409.88,2672Z"/><path class="cls-1" d="M1415,2506.83c-34.69,0-53.36,26.68-53.36,64s18.68,64,53.36,64,53.36-26.68,53.36-64S1449.66,2506.83,1415,2506.83Zm0,160.09c-56,0-90.72-40-90.72-96.05s34.69-96.05,90.72-96.05,90.72,40,90.72,96.05S1471,2666.92,1415,2666.92Z"/><path class="cls-1" d="M1420.07,2501.73c-34.69,0-53.36,26.68-53.36,64s18.68,64,53.36,64,53.36-26.68,53.36-64S1454.75,2501.73,1420.07,2501.73Zm0,160.09c-56,0-90.72-40-90.72-96.05s34.69-96.05,90.72-96.05,90.72,40,90.72,96.05S1476.1,2661.82,1420.07,2661.82Z"/><path class="cls-1" d="M1425.16,2496.64c-34.69,0-53.36,26.68-53.36,64s18.68,64,53.36,64,53.36-26.68,53.36-64S1459.85,2496.64,1425.16,2496.64Zm0,160.09c-56,0-90.72-40-90.72-96.05s34.69-96.05,90.72-96.05,90.72,40,90.72,96.05S1481.2,2656.73,1425.16,2656.73Z"/><path class="cls-1" d="M1430.26,2491.54c-34.69,0-53.36,26.68-53.36,64s18.68,64,53.36,64,53.36-26.68,53.36-64S1464.95,2491.54,1430.26,2491.54Zm0,160.09c-56,0-90.72-40-90.72-96.05s34.69-96.05,90.72-96.05,90.72,40,90.72,96.05S1486.29,2651.63,1430.26,2651.63Z"/><path class="cls-1" d="M1435.36,2486.44c-34.69,0-53.36,26.68-53.36,64s18.68,64,53.36,64,53.36-26.68,53.36-64S1470,2486.44,1435.36,2486.44Zm0,160.09c-56,0-90.72-40-90.72-96.05s34.69-96.05,90.72-96.05,90.72,40,90.72,96.05S1491.39,2646.53,1435.36,2646.53Z"/><path class="cls-1" d="M1440.45,2481.35c-34.69,0-53.36,26.68-53.36,64s18.68,64,53.36,64,53.36-26.68,53.36-64S1475.14,2481.35,1440.45,2481.35Zm0,160.09c-56,0-90.72-40-90.72-96.05s34.69-96.05,90.72-96.05,90.72,40,90.72,96.05S1496.49,2641.44,1440.45,2641.44Z"/><path class="cls-1" d="M1445.55,2476.25c-34.69,0-53.36,26.68-53.36,64s18.68,64,53.36,64,53.36-26.68,53.36-64S1480.24,2476.25,1445.55,2476.25Zm0,160.09c-56,0-90.72-40-90.72-96.05s34.69-96.05,90.72-96.05,90.72,40,90.72,96.05S1501.58,2636.34,1445.55,2636.34Z"/><path class="cls-1" d="M1450.65,2471.15c-34.69,0-53.36,26.68-53.36,64s18.68,64,53.36,64,53.36-26.68,53.36-64S1485.33,2471.15,1450.65,2471.15Zm0,160.09c-56,0-90.72-40-90.72-96.05s34.69-96.05,90.72-96.05,90.72,40,90.72,96.05S1506.68,2631.24,1450.65,2631.24Z"/><path class="cls-1" d="M1455.74,2466.06c-34.69,0-53.36,26.68-53.36,64s18.68,64,53.36,64,53.36-26.68,53.36-64S1490.43,2466.06,1455.74,2466.06Zm0,160.09c-56,0-90.72-40-90.72-96.05s34.69-96.05,90.72-96.05,90.72,40,90.72,96.05S1511.77,2626.15,1455.74,2626.15Z"/><path class="cls-1" d="M1460.84,2461c-34.69,0-53.36,26.68-53.36,64s18.68,64,53.36,64,53.36-26.68,53.36-64S1495.53,2461,1460.84,2461Zm0,160.09c-56,0-90.72-40-90.72-96.05s34.69-96.05,90.72-96.05,90.72,40,90.72,96.05S1516.87,2621.05,1460.84,2621.05Z"/><path class="cls-1" d="M1465.94,2455.87c-34.69,0-53.36,26.68-53.36,64s18.68,64,53.36,64,53.36-26.68,53.36-64S1500.62,2455.87,1465.94,2455.87Zm0,160.09c-56,0-90.72-40-90.72-96.05s34.69-96.05,90.72-96.05,90.72,40,90.72,96.05S1522,2616,1465.94,2616Z"/><path class="cls-1" d="M1471,2450.77c-34.69,0-53.36,26.68-53.36,64s18.68,64,53.36,64,53.36-26.68,53.36-64S1505.72,2450.77,1471,2450.77Zm0,160.09c-56,0-90.72-40-90.72-96.05s34.69-96.05,90.72-96.05,90.72,40,90.72,96.05S1527.06,2610.86,1471,2610.86Z"/><path class="cls-1" d="M1476.13,2445.67c-34.69,0-53.36,26.68-53.36,64s18.68,64,53.36,64,53.36-26.68,53.36-64S1510.82,2445.67,1476.13,2445.67Zm0,160.09c-56,0-90.72-40-90.72-96.05s34.69-96.05,90.72-96.05,90.72,40,90.72,96.05S1532.16,2605.76,1476.13,2605.76Z"/><path class="cls-1" d="M1481.23,2440.58c-34.69,0-53.36,26.68-53.36,64s18.68,64,53.36,64,53.36-26.68,53.36-64S1515.91,2440.58,1481.23,2440.58Zm0,160.09c-56,0-90.72-40-90.72-96.05s34.69-96.05,90.72-96.05,90.72,40,90.72,96.05S1537.26,2600.67,1481.23,2600.67Z"/><path class="cls-1" d="M1486.32,2435.48c-34.69,0-53.36,26.68-53.36,64s18.68,64,53.36,64,53.36-26.68,53.36-64S1521,2435.48,1486.32,2435.48Zm0,160.09c-56,0-90.72-40-90.72-96.05s34.69-96.05,90.72-96.05,90.72,40,90.72,96.05S1542.35,2595.57,1486.32,2595.57Z"/><path class="cls-1" d="M1491.42,2430.38c-34.69,0-53.36,26.68-53.36,64s18.68,64,53.36,64,53.36-26.68,53.36-64S1526.1,2430.38,1491.42,2430.38Zm0,160.09c-56,0-90.72-40-90.72-96.05s34.69-96.05,90.72-96.05,90.72,40,90.72,96.05S1547.45,2590.47,1491.42,2590.47Z"/><path class="cls-1" d="M1496.51,2425.29c-34.69,0-53.36,26.68-53.36,64s18.68,64,53.36,64,53.36-26.68,53.36-64S1531.2,2425.29,1496.51,2425.29Zm0,160.09c-56,0-90.72-40-90.72-96.05s34.69-96.05,90.72-96.05,90.72,40,90.72,96.05S1552.55,2585.38,1496.51,2585.38Z"/></g></g></svg>