<svg id="Layer_3" data-name="Layer 3" xmlns="http://www.w3.org/2000/svg" viewBox="0 0 1896 5154.75"><defs><style>.cls-1{fill:#fff;stroke:#de761c;stroke-width:3px;}</style></defs><title>Artboard 1</title><g id="_Group_" data-name="&lt;Group&gt;"><path class="cls-1" d="M-1.11,1249.89H-121.18l-2.67-2.67V1065.78l2.67-2.67h32l2.67,2.67V1215.2l2.67,2.67H-1.11l2.67,2.67v26.68Z"/><path class="cls-1" d="M4,1244.81H-116.1l-2.67-2.67V1060.71l2.67-2.67h32l2.67,2.67v149.42l2.67,2.67H4l2.67,2.67v26.68Z"/><path class="cls-1" d="M9,1239.73H-111l-2.67-2.67V1055.63L-111,1053h32l2.67,2.67V1205l2.67,2.67H9l2.67,2.67v26.68Z"/><path class="cls-1" d="M14.12,1234.66H-105.95l-2.67-2.67V1050.55l2.67-2.67h32l2.67,2.67V1200l2.67,2.67H14.12l2.67,2.67V1232Z"/><path class="cls-1" d="M19.2,1229.58H-100.87l-2.67-2.67V1045.48l2.67-2.67h32l2.67,2.67v149.42l2.67,2.67H19.2l2.67,2.67v26.68Z"/><path class="cls-1" d="M24.27,1224.5H-95.79l-2.67-2.67V1040.4l2.67-2.67h32l2.67,2.67v149.42l2.67,2.67H24.27l2.67,2.67v26.68Z"/><path class="cls-1" d="M29.35,1219.42H-90.71l-2.67-2.67V1035.32l2.67-2.67h32l2.67,2.67v149.42l2.67,2.67H29.35l2.67,2.67v26.68Z"/><path class="cls-1" d="M34.43,1214.35H-85.64l-2.67-2.67V1030.24l2.67-2.67h32l2.67,2.67v149.42l2.67,2.67H34.43L37.1,1185v26.68Z"/><path class="cls-1" d="M39.51,1209.27H-80.56l-2.67-2.67V1025.17l2.67-2.67h32l2.67,2.67v149.42l2.67,2.67H39.51l2.67,2.67v26.68Z"/><path class="cls-1" d="M44.58,1204.19H-75.48l-2.67-2.67V1020.09l2.67-2.67h32l2.67,2.67v149.42l2.67,2.67H44.58l2.67,2.67v26.68Z"/><path class="cls-1" d="M49.66,1199.12H-70.41l-2.67-2.67V1015l2.67-2.67h32l2.67,2.67v149.42l2.67,2.67H49.66l2.67,2.67v26.68Z"/><path class="cls-1" d="M54.74,1194H-65.33l-2.67-2.67V1009.94l2.67-2.67h32l2.67,2.67v149.42L-28,1162H54.74l2.67,2.67v26.68Z"/><path class="cls-1" d="M59.81,1189H-60.25l-2.67-2.67V1004.86l2.67-2.67h32l2.67,2.67v149.42l2.67,2.67H59.81l2.67,2.67v26.68Z"/><path class="cls-1" d="M64.89,1183.88H-55.17l-2.67-2.67V999.78l2.67-2.67h32l2.67,2.67V1149.2l2.67,2.67H64.89l2.67,2.67v26.68Z"/><path class="cls-1" d="M70,1178.81H-50.1l-2.67-2.67V994.7L-50.1,992h32l2.67,2.67v149.42l2.67,2.67H70l2.67,2.67v26.68Z"/><path class="cls-1" d="M75,1173.73H-45l-2.67-2.67V989.63L-45,987h32l2.67,2.67V1139l2.67,2.67H75l2.67,2.67v26.68Z"/><path class="cls-1" d="M80.12,1168.65H-39.94l-2.67-2.67V984.55l2.67-2.67h32l2.67,2.67V1134l2.67,2.67H80.12l2.67,2.67V1166Z"/><path class="cls-1" d="M85.2,1163.58H-34.87l-2.67-2.67V979.47l2.67-2.67h32l2.67,2.67v149.42l2.67,2.67H85.2l2.67,2.67v26.68Z"/><path class="cls-1" d="M90.28,1158.5H-29.79l-2.67-2.67V974.4l2.67-2.67h32L4.9,974.4v149.42l2.67,2.67H90.28l2.67,2.67v26.68Z"/><path class="cls-1" d="M95.35,1153.42H-24.71l-2.67-2.67V969.32l2.67-2.67h32L10,969.32v149.42l2.67,2.67H95.35l2.67,2.67v26.68Z"/><path class="cls-1" d="M100.43,1148.34H-19.64l-2.67-2.67V964.24l2.67-2.67h32l2.67,2.67v149.42l2.67,2.67h82.71l2.67,2.67v26.68Z"/><path class="cls-1" d="M105.51,1143.27H-14.56l-2.67-2.67V959.17l2.67-2.67h32l2.67,2.67v149.42l2.67,2.67h82.71l2.67,2.67v26.68Z"/><path class="cls-1" d="M110.59,1138.19H-9.48l-2.67-2.67V954.09l2.67-2.67h32l2.67,2.67V1103.5l2.67,2.67h82.71l2.67,2.67v26.68Z"/><path class="cls-1" d="M115.66,1133.11H-4.4l-2.67-2.67V949l2.67-2.67h32L30.28,949v149.42l2.67,2.67h82.71l2.67,2.67v26.68Z"/><path class="cls-1" d="M120.74,1128H.67L-2,1125.37V943.93l2.67-2.67h32l2.67,2.67v149.42L38,1096h82.71l2.67,2.67v26.68Z"/><path class="cls-1" d="M125.82,1123H5.75l-2.67-2.67V938.86l2.67-2.67h32l2.67,2.67v149.42l2.67,2.67h82.71l2.67,2.67v26.68Z"/><path class="cls-1" d="M130.89,1117.88H10.83l-2.67-2.67V933.78l2.67-2.67h32l2.67,2.67V1083.2l2.67,2.67h82.71l2.67,2.67v26.68Z"/><path class="cls-1" d="M136,1112.8H15.9l-2.67-2.67V928.7L15.9,926h32l2.67,2.67v149.42l2.67,2.67H136l2.67,2.67v26.68Z"/><path class="cls-1" d="M141,1107.73H21l-2.67-2.67V923.63L21,921H53l2.67,2.67V1073l2.67,2.67H141l2.67,2.67v26.68Z"/><path class="cls-1" d="M146.13,1102.65H26.06L23.39,1100V918.55l2.67-2.67h32l2.67,2.67V1068l2.67,2.67h82.71l2.67,2.67V1100Z"/><path class="cls-1" d="M151.2,1097.57H31.14l-2.67-2.67V913.47l2.67-2.67h32l2.67,2.67v149.42l2.67,2.67H151.2l2.67,2.67v26.68Z"/><path class="cls-1" d="M156.28,1092.5H36.21l-2.67-2.67V908.39l2.67-2.67h32l2.67,2.67v149.42l2.67,2.67h82.71l2.67,2.67v26.68Z"/><path class="cls-1" d="M161.36,1087.42H41.29l-2.67-2.67V903.32l2.67-2.67h32L76,903.32v149.42l2.67,2.67h82.71l2.67,2.67v26.68Z"/><path class="cls-1" d="M166.43,1082.34H46.37l-2.67-2.67V898.24l2.67-2.67h32l2.67,2.67v149.42l2.67,2.67h82.71l2.67,2.67v26.68Z"/><path class="cls-1" d="M171.51,1077.27H51.44l-2.67-2.67V893.16l2.67-2.67h32l2.67,2.67v149.42l2.67,2.67h82.71l2.67,2.67v26.68Z"/><path class="cls-1" d="M176.59,1072.19H56.52l-2.67-2.67V888.09l2.67-2.67h32l2.67,2.67V1037.5l2.67,2.67h82.71l2.67,2.67v26.68Z"/><path class="cls-1" d="M181.67,1067.11H61.6l-2.67-2.67V883l2.67-2.67h32L96.28,883v149.42l2.67,2.67h82.71l2.67,2.67v26.68Z"/><path class="cls-1" d="M186.74,1062H66.68L64,1059.37V877.93l2.67-2.67h32l2.67,2.67v149.42L104,1030h82.71l2.67,2.67v26.68Z"/><path class="cls-1" d="M191.82,1057H71.75l-2.67-2.67V872.85l2.67-2.67h32l2.67,2.67v149.42l2.67,2.67h82.71l2.67,2.67v26.68Z"/><path class="cls-1" d="M196.9,1051.88H76.83l-2.67-2.67V867.78l2.67-2.67h32l2.67,2.67v149.42l2.67,2.67H196.9l2.67,2.67v26.68Z"/><path class="cls-1" d="M202,1046.8H81.91l-2.67-2.67V862.7L81.91,860h32l2.67,2.67v149.42l2.67,2.67H202l2.67,2.67v26.68Z"/><path class="cls-1" d="M207.05,1041.73H87l-2.67-2.67V857.62L87,855h32l2.67,2.67V1007l2.67,2.67h82.71l2.67,2.67v26.68Z"/><path class="cls-1" d="M212.13,1036.65H92.06L89.39,1034V852.55l2.67-2.67h32l2.67,2.67V1002l2.67,2.67h82.71l2.67,2.67V1034Z"/><path class="cls-1" d="M217.2,1031.57H97.14l-2.67-2.67V847.47l2.67-2.67h32l2.67,2.67V996.89l2.67,2.67H217.2l2.67,2.67v26.68Z"/><path class="cls-1" d="M222.28,1026.49H102.22l-2.67-2.67V842.39l2.67-2.67h32l2.67,2.67V991.81l2.67,2.67h82.71l2.67,2.67v26.68Z"/><path class="cls-1" d="M227.36,1021.42H107.29l-2.67-2.67V837.31l2.67-2.67h32l2.67,2.67V986.73l2.67,2.67h82.71l2.67,2.67v26.68Z"/><path class="cls-1" d="M232.44,1016.34H112.37l-2.67-2.67V832.24l2.67-2.67h32l2.67,2.67V981.65l2.67,2.67h82.71L235.1,987v26.68Z"/><path class="cls-1" d="M237.51,1011.26H117.45l-2.67-2.67V827.16l2.67-2.67h32l2.67,2.67V976.58l2.67,2.67h82.71l2.67,2.67v26.68Z"/><path class="cls-1" d="M242.59,1006.19H122.52l-2.67-2.67V822.08l2.67-2.67h32l2.67,2.67V971.5l2.67,2.67h82.71l2.67,2.67v26.68Z"/><path class="cls-1" d="M247.67,1001.11H127.6l-2.67-2.67V817l2.67-2.67h32l2.67,2.67V966.42l2.67,2.67h82.71l2.67,2.67v26.68Z"/><path class="cls-1" d="M252.74,996H132.68L130,993.36V811.93l2.67-2.67h32l2.67,2.67V961.35L170,964h82.71l2.67,2.67v26.68Z"/><path class="cls-1" d="M257.82,991H137.76l-2.67-2.67V806.85l2.67-2.67h32l2.67,2.67V956.27l2.67,2.67h82.71l2.67,2.67v26.68Z"/><path class="cls-1" d="M262.9,985.88H142.83l-2.67-2.67V801.77l2.67-2.67h32l2.67,2.67V951.19l2.67,2.67H262.9l2.67,2.67v26.68Z"/><path class="cls-1" d="M268,980.8H147.91l-2.67-2.67V796.7l2.67-2.67h32l2.67,2.67V946.11l2.67,2.67H268l2.67,2.67v26.68Z"/><path class="cls-1" d="M273.05,975.72H153l-2.67-2.67V791.62L153,789h32l2.67,2.67V941l2.67,2.67h82.71l2.67,2.67v26.68Z"/><path class="cls-1" d="M278.13,970.65H158.06L155.4,968V786.54l2.67-2.67h32l2.67,2.67V936l2.67,2.67h82.71l2.67,2.67V968Z"/><path class="cls-1" d="M283.21,965.57H163.14l-2.67-2.67V781.47l2.67-2.67h32l2.67,2.67V930.88l2.67,2.67h82.71l2.67,2.67V962.9Z"/><path class="cls-1" d="M288.28,960.49H168.22l-2.67-2.67V776.39l2.67-2.67h32l2.67,2.67V925.81l2.67,2.67h82.71l2.67,2.67v26.68Z"/><path class="cls-1" d="M293.36,955.41H173.3l-2.67-2.67V771.31l2.67-2.67h32l2.67,2.67V920.73l2.67,2.67h82.71l2.67,2.67v26.68Z"/><path class="cls-1" d="M298.44,950.34H178.37l-2.67-2.67V766.23l2.67-2.67h32l2.67,2.67V915.65l2.67,2.67h82.71l2.67,2.67v26.68Z"/><path class="cls-1" d="M303.52,945.26H183.45l-2.67-2.67V761.16l2.67-2.67h32l2.67,2.67V910.57l2.67,2.67h82.71l2.67,2.67v26.68Z"/><path class="cls-1" d="M308.59,940.18H188.53l-2.67-2.67V756.08l2.67-2.67h32l2.67,2.67V905.5l2.67,2.67h82.71l2.67,2.67v26.68Z"/><path class="cls-1" d="M313.67,935.11H193.6l-2.67-2.67V751l2.67-2.67h32l2.67,2.67V900.42l2.67,2.67h82.71l2.67,2.67v26.68Z"/><path class="cls-1" d="M318.75,930H198.68L196,927.36V745.93l2.67-2.67h32l2.67,2.67V895.34L236,898h82.71l2.67,2.67v26.68Z"/><path class="cls-1" d="M323.82,925H203.76l-2.67-2.67V740.85l2.67-2.67h32l2.67,2.67V890.27l2.67,2.67h82.71l2.67,2.67v26.68Z"/><path class="cls-1" d="M328.9,919.87H208.84l-2.67-2.67V735.77l2.67-2.67h32l2.67,2.67V885.19l2.67,2.67H328.9l2.67,2.67v26.68Z"/><path class="cls-1" d="M334,914.8H213.91l-2.67-2.67V730.69l2.67-2.67h32l2.67,2.67V880.11l2.67,2.67H334l2.67,2.67v26.68Z"/><path class="cls-1" d="M339.06,909.72H219l-2.67-2.67V725.62l2.67-2.67h32l2.67,2.67V875l2.67,2.67h82.71l2.67,2.67v26.68Z"/><path class="cls-1" d="M344.13,904.64H224.07L221.4,902V720.54l2.67-2.67h32l2.67,2.67V870l2.67,2.67h82.71l2.67,2.67V902Z"/><path class="cls-1" d="M349.21,899.57H229.14l-2.67-2.67V715.46l2.67-2.67h32l2.67,2.67V864.88l2.67,2.67h82.71l2.67,2.67V896.9Z"/><path class="cls-1" d="M354.29,894.49H234.22l-2.67-2.67V710.39l2.67-2.67h32l2.67,2.67V859.8l2.67,2.67h82.71l2.67,2.67v26.68Z"/><path class="cls-1" d="M359.36,889.41H239.3l-2.67-2.67V705.31l2.67-2.67h32l2.67,2.67V854.73l2.67,2.67h82.71l2.67,2.67v26.68Z"/><path class="cls-1" d="M364.44,884.33H244.37l-2.67-2.67V700.23l2.67-2.67h32l2.67,2.67V849.65l2.67,2.67h82.71l2.67,2.67v26.68Z"/><path class="cls-1" d="M369.52,879.26H249.45l-2.67-2.67V695.15l2.67-2.67h32l2.67,2.67V844.57l2.67,2.67h82.71l2.67,2.67v26.68Z"/><path class="cls-1" d="M374.6,874.18H254.53l-2.67-2.67V690.08l2.67-2.67h32l2.67,2.67V839.5l2.67,2.67H374.6l2.67,2.67v26.68Z"/><path class="cls-1" d="M379.67,869.1H259.61l-2.67-2.67V685l2.67-2.67h32l2.67,2.67V834.42l2.67,2.67h82.71l2.67,2.67v26.68Z"/><path class="cls-1" d="M384.75,864H264.68L262,861.36V679.92l2.67-2.67h32l2.67,2.67V829.34L302,832h82.71l2.67,2.67v26.68Z"/><path class="cls-1" d="M389.83,858.95H269.76l-2.67-2.67V674.85l2.67-2.67h32l2.67,2.67V824.26l2.67,2.67h82.71l2.67,2.67v26.68Z"/><path class="cls-1" d="M394.9,853.87H274.84l-2.67-2.67V669.77l2.67-2.67h32l2.67,2.67V819.19l2.67,2.67H394.9l2.67,2.67V851.2Z"/><path class="cls-1" d="M400,848.8H279.91l-2.67-2.67V664.69l2.67-2.67h32l2.67,2.67V814.11l2.67,2.67H400l2.67,2.67v26.68Z"/><path class="cls-1" d="M405.06,843.72H285L282.32,841V659.62l2.67-2.67h32l2.67,2.67V809l2.67,2.67h82.71l2.67,2.67V841Z"/><path class="cls-1" d="M410.14,838.64H290.07L287.4,836V654.54l2.67-2.67h32l2.67,2.67V804l2.67,2.67h82.71l2.67,2.67V836Z"/><path class="cls-1" d="M415.21,833.56H295.15l-2.67-2.67V649.46l2.67-2.67h32l2.67,2.67V798.88l2.67,2.67h82.71l2.67,2.67V830.9Z"/><path class="cls-1" d="M420.29,828.49H300.22l-2.67-2.67V644.38l2.67-2.67h32l2.67,2.67V793.8l2.67,2.67h82.71l2.67,2.67v26.68Z"/><path class="cls-1" d="M425.37,823.41H305.3l-2.67-2.67V639.31l2.67-2.67h32l2.67,2.67V788.72l2.67,2.67h82.71l2.67,2.67v26.68Z"/><path class="cls-1" d="M430.44,818.33H310.38l-2.67-2.67V634.23l2.67-2.67h32l2.67,2.67V783.65l2.67,2.67h82.71l2.67,2.67v26.68Z"/><path class="cls-1" d="M435.52,813.26H315.45l-2.67-2.67V629.15l2.67-2.67h32l2.67,2.67V778.57l2.67,2.67h82.71l2.67,2.67v26.68Z"/><path class="cls-1" d="M440.6,808.18H320.53l-2.67-2.67V624.08l2.67-2.67h32l2.67,2.67V773.49l2.67,2.67H440.6l2.67,2.67v26.68Z"/><path class="cls-1" d="M445.68,803.1H325.61l-2.67-2.67V619l2.67-2.67h32l2.67,2.67V768.42l2.67,2.67h82.71l2.67,2.67v26.68Z"/><path class="cls-1" d="M450.75,798H330.69L328,795.36V613.92l2.67-2.67h32l2.67,2.67V763.34L368,766h82.71l2.67,2.67v26.68Z"/><path class="cls-1" d="M455.83,792.95H335.76l-2.67-2.67V608.84l2.67-2.67h32l2.67,2.67V758.26l2.67,2.67h82.71l2.67,2.67v26.68Z"/><path class="cls-1" d="M460.91,787.87H340.84l-2.67-2.67V603.77l2.67-2.67h32l2.67,2.67V753.18l2.67,2.67h82.71l2.67,2.67V785.2Z"/><path class="cls-1" d="M466,782.79H345.92l-2.67-2.67V598.69l2.67-2.67h32l2.67,2.67V748.11l2.67,2.67H466l2.67,2.67v26.68Z"/><path class="cls-1" d="M471.06,777.72H351L348.33,775V593.61l2.67-2.67h32l2.67,2.67V743l2.67,2.67h82.71l2.67,2.67V775Z"/><path class="cls-1" d="M476.14,772.64H356.07L353.4,770V588.54l2.67-2.67h32l2.67,2.67V738l2.67,2.67h82.71l2.67,2.67V770Z"/><path class="cls-1" d="M481.21,767.56H361.15l-2.67-2.67V583.46l2.67-2.67h32l2.67,2.67V732.88l2.67,2.67h82.71l2.67,2.67v26.68Z"/><path class="cls-1" d="M486.29,762.48H366.23l-2.67-2.67V578.38l2.67-2.67h32l2.67,2.67V727.8l2.67,2.67h82.71l2.67,2.67v26.68Z"/><path class="cls-1" d="M491.37,757.41H371.3l-2.67-2.67V573.3l2.67-2.67h32L406,573.3V722.72l2.67,2.67h82.71l2.67,2.67v26.68Z"/><path class="cls-1" d="M496.45,752.33H376.38l-2.67-2.67V568.23l2.67-2.67h32l2.67,2.67V717.64l2.67,2.67h82.71l2.67,2.67v26.68Z"/><path class="cls-1" d="M501.52,747.25H381.46l-2.67-2.67V563.15l2.67-2.67h32l2.67,2.67V712.57l2.67,2.67h82.71l2.67,2.67v26.68Z"/><path class="cls-1" d="M506.6,742.18H386.53l-2.67-2.67V558.07l2.67-2.67h32l2.67,2.67V707.49l2.67,2.67H506.6l2.67,2.67v26.68Z"/><path class="cls-1" d="M511.68,737.1H391.61l-2.67-2.67V553l2.67-2.67h32L426.3,553V702.41l2.67,2.67h82.71l2.67,2.67v26.68Z"/><path class="cls-1" d="M516.75,732H396.69L394,729.35V547.92l2.67-2.67h32l2.67,2.67V697.34L434,700h82.71l2.67,2.67v26.68Z"/><path class="cls-1" d="M521.83,726.94H401.77l-2.67-2.67V542.84l2.67-2.67h32l2.67,2.67V692.26l2.67,2.67h82.71l2.67,2.67v26.68Z"/><path class="cls-1" d="M526.91,721.87H406.84l-2.67-2.67V537.76l2.67-2.67h32l2.67,2.67V687.18l2.67,2.67h82.71l2.67,2.67V719.2Z"/><path class="cls-1" d="M532,716.79H411.92l-2.67-2.67V532.69l2.67-2.67h32l2.67,2.67V682.1l2.67,2.67H532l2.67,2.67v26.68Z"/><path class="cls-1" d="M537.06,711.71H417L414.33,709V527.61l2.67-2.67h32l2.67,2.67V677l2.67,2.67h82.71l2.67,2.67V709Z"/><path class="cls-1" d="M542.14,706.64H422.07L419.41,704V522.53l2.67-2.67h32l2.67,2.67V672l2.67,2.67h82.71l2.67,2.67V704Z"/><path class="cls-1" d="M547.22,701.56H427.15l-2.67-2.67V517.46l2.67-2.67h32l2.67,2.67V666.87l2.67,2.67h82.71l2.67,2.67v26.68Z"/><path class="cls-1" d="M552.29,696.48H432.23l-2.67-2.67V512.38l2.67-2.67h32l2.67,2.67V661.8l2.67,2.67h82.71l2.67,2.67v26.68Z"/><path class="cls-1" d="M557.37,691.4H437.31l-2.67-2.67V507.3l2.67-2.67h32L472,507.3V656.72l2.67,2.67h82.71l2.67,2.67v26.68Z"/><path class="cls-1" d="M562.45,686.33H442.38l-2.67-2.67V502.22l2.67-2.67h32l2.67,2.67V651.64l2.67,2.67h82.71l2.67,2.67v26.68Z"/><path class="cls-1" d="M567.53,681.25H447.46l-2.67-2.67V497.15l2.67-2.67h32l2.67,2.67V646.56l2.67,2.67h82.71l2.67,2.67v26.68Z"/><path class="cls-1" d="M572.6,676.17H452.54l-2.67-2.67V492.07l2.67-2.67h32l2.67,2.67V641.49l2.67,2.67H572.6l2.67,2.67v26.68Z"/><path class="cls-1" d="M577.68,671.1H457.61l-2.67-2.67V487l2.67-2.67h32L492.3,487V636.41l2.67,2.67h82.71l2.67,2.67v26.68Z"/><path class="cls-1" d="M582.76,666H462.69L460,663.35V481.92l2.67-2.67h32l2.67,2.67V631.33L500,634h82.71l2.67,2.67v26.68Z"/><path class="cls-1" d="M587.83,660.94H467.77l-2.67-2.67V476.84l2.67-2.67h32l2.67,2.67V626.26l2.67,2.67h82.71l2.67,2.67v26.68Z"/><path class="cls-1" d="M592.91,655.86H472.85l-2.67-2.67V471.76l2.67-2.67h32l2.67,2.67V621.18l2.67,2.67h82.71l2.67,2.67V653.2Z"/><path class="cls-1" d="M598,650.79H477.92l-2.67-2.67V466.68l2.67-2.67h32l2.67,2.67V616.1l2.67,2.67H598l2.67,2.67v26.68Z"/><path class="cls-1" d="M603.07,645.71H483L480.33,643V461.61l2.67-2.67h32l2.67,2.67V611l2.67,2.67h82.71l2.67,2.67V643Z"/><path class="cls-1" d="M608.14,640.63H488.08L485.41,638V456.53l2.67-2.67h32l2.67,2.67V605.95l2.67,2.67h82.71l2.67,2.67V638Z"/><path class="cls-1" d="M613.22,635.56H493.15l-2.67-2.67V451.45l2.67-2.67h32l2.67,2.67V600.87l2.67,2.67h82.71l2.67,2.67v26.68Z"/><path class="cls-1" d="M618.3,630.48H498.23l-2.67-2.67V446.38l2.67-2.67h32l2.67,2.67V595.79l2.67,2.67H618.3l2.67,2.67v26.68Z"/><path class="cls-1" d="M623.37,625.4H503.31l-2.67-2.67V441.3l2.67-2.67h32L538,441.3V590.72l2.67,2.67h82.71l2.67,2.67v26.68Z"/><path class="cls-1" d="M628.45,620.32H508.38l-2.67-2.67V436.22l2.67-2.67h32l2.67,2.67V585.64l2.67,2.67h82.71l2.67,2.67v26.68Z"/><path class="cls-1" d="M633.53,615.25H513.46l-2.67-2.67V431.14l2.67-2.67h32l2.67,2.67V580.56l2.67,2.67h82.71l2.67,2.67v26.68Z"/><path class="cls-1" d="M638.61,610.17H518.54l-2.67-2.67V426.07l2.67-2.67h32l2.67,2.67V575.49l2.67,2.67h82.71l2.67,2.67V607.5Z"/><path class="cls-1" d="M643.68,605.09H523.62l-2.67-2.67V421l2.67-2.67h32L558.3,421V570.41l2.67,2.67h82.71l2.67,2.67v26.68Z"/><path class="cls-1" d="M648.76,600H528.69L526,597.35V415.91l2.67-2.67h32l2.67,2.67V565.33L566,568h82.71l2.67,2.67v26.68Z"/><path class="cls-1" d="M653.84,594.94H533.77l-2.67-2.67V410.84l2.67-2.67h32l2.67,2.67V560.25l2.67,2.67h82.71l2.67,2.67v26.68Z"/><path class="cls-1" d="M658.91,589.86H538.85l-2.67-2.67V405.76l2.67-2.67h32l2.67,2.67V555.18l2.67,2.67h82.71l2.67,2.67v26.68Z"/><path class="cls-1" d="M664,584.79H543.92l-2.67-2.67V400.68l2.67-2.67h32l2.67,2.67V550.1l2.67,2.67H664l2.67,2.67v26.68Z"/><path class="cls-1" d="M669.07,579.71H549L546.33,577V395.61l2.67-2.67h32l2.67,2.67V545l2.67,2.67h82.71l2.67,2.67V577Z"/><path class="cls-1" d="M674.15,574.63H554.08L551.41,572V390.53l2.67-2.67h32l2.67,2.67V539.95l2.67,2.67h82.71l2.67,2.67V572Z"/><path class="cls-1" d="M679.22,569.55H559.16l-2.67-2.67V385.45l2.67-2.67h32l2.67,2.67V534.87l2.67,2.67h82.71l2.67,2.67v26.68Z"/><path class="cls-1" d="M684.3,564.48H564.23l-2.67-2.67V380.37l2.67-2.67h32l2.67,2.67V529.79l2.67,2.67H684.3l2.67,2.67v26.68Z"/><path class="cls-1" d="M689.38,559.4H569.31l-2.67-2.67V375.3l2.67-2.67h32L604,375.3V524.71l2.67,2.67h82.71l2.67,2.67v26.68Z"/><path class="cls-1" d="M694.45,554.32H574.39l-2.67-2.67V370.22l2.67-2.67h32l2.67,2.67V519.64l2.67,2.67h82.71l2.67,2.67v26.68Z"/><path class="cls-1" d="M699.53,549.25H579.46l-2.67-2.67V365.14l2.67-2.67h32l2.67,2.67V514.56l2.67,2.67h82.71l2.67,2.67v26.68Z"/><path class="cls-1" d="M704.61,544.17H584.54l-2.67-2.67V360.07l2.67-2.67h32l2.67,2.67V509.48l2.67,2.67h82.71l2.67,2.67V541.5Z"/><path class="cls-1" d="M709.69,539.09H589.62L587,536.42V355l2.67-2.67h32L624.3,355V504.41l2.67,2.67h82.71l2.67,2.67v26.68Z"/><path class="cls-1" d="M714.76,534H594.7L592,531.35V349.91l2.67-2.67h32l2.67,2.67V499.33L632,502h82.71l2.67,2.67v26.68Z"/><path class="cls-1" d="M719.84,528.94H599.77l-2.67-2.67V344.83l2.67-2.67h32l2.67,2.67V494.25l2.67,2.67h82.71l2.67,2.67v26.68Z"/><path class="cls-1" d="M724.92,523.86H604.85l-2.67-2.67V339.76l2.67-2.67h32l2.67,2.67V489.17l2.67,2.67h82.71l2.67,2.67v26.68Z"/><path class="cls-1" d="M730,518.78H609.93l-2.67-2.67V334.68l2.67-2.67h32l2.67,2.67V484.1l2.67,2.67H730l2.67,2.67v26.68Z"/><path class="cls-1" d="M735.07,513.71H615L612.34,511V329.6l2.67-2.67h32l2.67,2.67V479l2.67,2.67h82.71l2.67,2.67V511Z"/><path class="cls-1" d="M740.15,508.63H620.08L617.41,506V324.53l2.67-2.67h32l2.67,2.67V473.94l2.67,2.67h82.71l2.67,2.67V506Z"/><path class="cls-1" d="M745.22,503.55H625.16l-2.67-2.67V319.45l2.67-2.67h32l2.67,2.67V468.87l2.67,2.67h82.71l2.67,2.67v26.68Z"/><path class="cls-1" d="M750.3,498.47H630.24l-2.67-2.67V314.37l2.67-2.67h32l2.67,2.67V463.79l2.67,2.67H750.3l2.67,2.67v26.68Z"/><path class="cls-1" d="M755.38,493.4H635.31l-2.67-2.67V309.29l2.67-2.67h32l2.67,2.67V458.71l2.67,2.67h82.71L758,464v26.68Z"/><path class="cls-1" d="M760.46,488.32H640.39l-2.67-2.67V304.22l2.67-2.67h32l2.67,2.67V453.63l2.67,2.67h82.71l2.67,2.67v26.68Z"/><path class="cls-1" d="M765.53,483.24H645.47l-2.67-2.67V299.14l2.67-2.67h32l2.67,2.67V448.56l2.67,2.67h82.71l2.67,2.67v26.68Z"/><path class="cls-1" d="M770.61,478.17H650.54l-2.67-2.67V294.06l2.67-2.67h32l2.67,2.67V443.48l2.67,2.67h82.71l2.67,2.67V475.5Z"/><path class="cls-1" d="M775.69,473.09H655.62L653,470.42V289l2.67-2.67h32l2.67,2.67V438.4l2.67,2.67h82.71l2.67,2.67v26.68Z"/><path class="cls-1" d="M780.76,468H660.7L658,465.34V283.91l2.67-2.67h32l2.67,2.67V433.33l2.67,2.67h82.71l2.67,2.67v26.68Z"/><path class="cls-1" d="M785.84,462.93H665.78l-2.67-2.67V278.83l2.67-2.67h32l2.67,2.67V428.25l2.67,2.67h82.71l2.67,2.67v26.68Z"/><path class="cls-1" d="M790.92,457.86H670.85l-2.67-2.67V273.75l2.67-2.67h32l2.67,2.67V423.17l2.67,2.67h82.71l2.67,2.67v26.68Z"/><path class="cls-1" d="M796,452.78H675.93l-2.67-2.67V268.68l2.67-2.67h32l2.67,2.67V418.09l2.67,2.67H796l2.67,2.67v26.68Z"/><path class="cls-1" d="M801.07,447.7H681L678.34,445V263.6l2.67-2.67h32l2.67,2.67V413l2.67,2.67h82.71l2.67,2.67V445Z"/></g></svg>