<svg xmlns="http://www.w3.org/2000/svg" viewBox="0 0 1896 5154.75"><defs><style>.cls-1{fill:#fff;stroke:#007444;stroke-width:3px;}</style></defs><title>Artboard 1</title><g id="Layer_2" data-name="Layer 2"><g id="_Group_" data-name="&lt;Group&gt;"><path class="cls-1" d="M2035.3,1655.69h-18.68l-5.34-2.67-58.7-72h-2.67l-18.68,18.68V1653l-2.67,2.67h-32l-2.67-2.67V1471.59l2.67-2.67h32l2.67,2.67V1549h2.67l77.38-77.38,5.34-2.67H2030l2.67,2.67v26.68l-53.36,53.36v2.67l58.7,72V1653Z"/><path class="cls-1" d="M2030.21,1660.78h-18.68l-5.34-2.67-58.7-72h-2.67l-18.68,18.68v53.36l-2.67,2.67h-32l-2.67-2.67V1476.67l2.67-2.67h32l2.67,2.67v77.38h2.67l77.38-77.38,5.34-2.67h13.34l2.67,2.67v26.68l-53.36,53.36v2.67l58.7,72v26.68Z"/><path class="cls-1" d="M2025.13,1665.86h-18.68l-5.34-2.67-58.7-72h-2.67l-18.68,18.68v53.36l-2.67,2.67h-32l-2.67-2.67V1481.76l2.67-2.67h32l2.67,2.67v77.38h2.67l77.38-77.38,5.34-2.67h13.34l2.67,2.67v26.68l-53.36,53.36v2.67l58.7,72v26.68Z"/><path class="cls-1" d="M2020,1670.95h-18.68l-5.34-2.67-58.7-72h-2.67L1916,1614.91v53.36l-2.67,2.67h-32l-2.67-2.67V1486.84l2.67-2.67h32l2.67,2.67v77.38h2.67l77.38-77.38,5.34-2.67h13.34l2.67,2.67v26.68L1964,1566.89v2.67l58.7,72v26.68Z"/><path class="cls-1" d="M2015,1676h-18.68l-5.34-2.67-58.7-72h-2.67L1910.9,1620v53.36l-2.67,2.67h-32l-2.67-2.67V1491.93l2.67-2.67h32l2.67,2.67v77.38h2.67l77.38-77.38,5.34-2.67h13.34l2.67,2.67v26.68L1958.93,1572v2.67l58.7,72v26.68Z"/><path class="cls-1" d="M2009.88,1681.11H1991.2l-5.34-2.67-58.7-72h-2.67l-18.68,18.68v53.36l-2.67,2.67h-32l-2.67-2.67V1497l2.67-2.67h32l2.67,2.67v77.38h2.67l77.38-77.38,5.34-2.67h13.34l2.67,2.67v26.68l-53.36,53.36v2.67l58.7,72v26.68Z"/><path class="cls-1" d="M2004.79,1686.2h-18.68l-5.34-2.67-58.7-72h-2.67l-18.68,18.68v53.36l-2.67,2.67h-32l-2.67-2.67V1502.1l2.67-2.67h32l2.67,2.67v77.38h2.67l77.38-77.38,5.34-2.67h13.34l2.67,2.67v26.68l-53.36,53.36v2.67l58.7,72v26.68Z"/><path class="cls-1" d="M1999.71,1691.28H1981l-5.34-2.67-58.7-72h-2.67l-18.68,18.68v53.36l-2.67,2.67h-32l-2.67-2.67V1507.18l2.67-2.67h32l2.67,2.67v77.38h2.67l77.38-77.38,5.34-2.67h13.34l2.67,2.67v26.68l-53.36,53.36v2.67l58.7,72v26.68Z"/><path class="cls-1" d="M1994.62,1696.37h-18.68l-5.34-2.67-58.7-72h-2.67l-18.68,18.68v53.36l-2.67,2.67h-32l-2.67-2.67V1512.26l2.67-2.67h32l2.67,2.67v77.38h2.67l77.38-77.38,5.34-2.67h13.34l2.67,2.67v26.68l-53.36,53.36V1595l58.7,72v26.68Z"/><path class="cls-1" d="M1989.54,1701.45h-18.68l-5.34-2.67-58.7-72h-2.67l-18.68,18.68v53.36l-2.67,2.67h-32l-2.67-2.67V1517.35l2.67-2.67h32l2.67,2.67v77.38h2.67l77.38-77.38,5.34-2.67h13.34l2.67,2.67V1544l-53.36,53.36v2.67l58.7,72v26.68Z"/><path class="cls-1" d="M1984.45,1706.53h-18.68l-5.34-2.67-58.7-72h-2.67l-18.68,18.68v53.36l-2.67,2.67h-32l-2.67-2.67V1522.43l2.67-2.67h32l2.67,2.67v77.38h2.67l77.38-77.38,5.34-2.67h13.34l2.67,2.67v26.68l-53.36,53.36v2.67l58.7,72v26.68Z"/><path class="cls-1" d="M1979.37,1711.62h-18.68l-5.34-2.67-58.7-72H1894l-18.68,18.68V1709l-2.67,2.67h-32L1838,1709V1527.52l2.67-2.67h32l2.67,2.67v77.38H1878l77.38-77.38,5.34-2.67H1974l2.67,2.67v26.68l-53.36,53.36v2.67l58.7,72V1709Z"/><path class="cls-1" d="M1974.29,1716.7h-18.68l-5.34-2.67-58.7-72h-2.67l-18.68,18.68V1714l-2.67,2.67h-32l-2.67-2.67V1532.6l2.67-2.67h32l2.67,2.67V1610h2.67l77.38-77.38,5.34-2.67H1969l2.67,2.67v26.68l-53.36,53.36v2.67l58.7,72V1714Z"/><path class="cls-1" d="M1969.2,1721.79h-18.68l-5.34-2.67-58.7-72h-2.67l-18.68,18.68v53.36l-2.67,2.67h-32l-2.67-2.67V1537.68l2.67-2.67h32l2.67,2.67v77.38h2.67l77.38-77.38,5.34-2.67h13.34l2.67,2.67v26.68l-53.36,53.36v2.67l58.7,72v26.68Z"/><path class="cls-1" d="M1964.12,1726.87h-18.68l-5.34-2.67-58.7-72h-2.67l-18.68,18.68v53.36l-2.67,2.67h-32l-2.67-2.67V1542.77l2.67-2.67h32l2.67,2.67v77.38h2.67l77.38-77.38,5.34-2.67h13.34l2.67,2.67v26.68l-53.36,53.36v2.67l58.7,72v26.68Z"/><path class="cls-1" d="M1959,1732h-18.68l-5.34-2.67-58.7-72h-2.67L1855,1675.92v53.36l-2.67,2.67h-32l-2.67-2.67V1547.85l2.67-2.67h32l2.67,2.67v77.38h2.67l77.38-77.38,5.34-2.67h13.34l2.67,2.67v26.68L1903,1627.9v2.67l58.7,72v26.68Z"/><path class="cls-1" d="M1953.95,1737h-18.68l-5.34-2.67-58.7-72h-2.67L1849.89,1681v53.36l-2.67,2.67h-32l-2.67-2.67V1552.94l2.67-2.67h32l2.67,2.67v77.38h2.67l77.38-77.38,5.34-2.67h13.34l2.67,2.67v26.68L1897.92,1633v2.67l58.7,72v26.68Z"/><path class="cls-1" d="M1948.87,1742.12h-18.68l-5.34-2.67-58.7-72h-2.67l-18.68,18.68v53.36l-2.67,2.67h-32l-2.67-2.67V1558l2.67-2.67h32l2.67,2.67v77.38h2.67l77.38-77.38,5.34-2.67h13.34l2.67,2.67v26.68l-53.36,53.36v2.67l58.7,72v26.68Z"/><path class="cls-1" d="M1943.78,1747.21H1925.1l-5.34-2.67-58.7-72h-2.67l-18.68,18.68v53.36l-2.67,2.67h-32l-2.67-2.67V1563.11l2.67-2.67h32l2.67,2.67v77.38h2.67l77.38-77.38,5.34-2.67h13.34l2.67,2.67v26.68l-53.36,53.36v2.67l58.7,72v26.68Z"/><path class="cls-1" d="M1938.7,1752.29H1920l-5.34-2.67-58.7-72h-2.67l-18.68,18.68v53.36l-2.67,2.67h-32l-2.67-2.67V1568.19l2.67-2.67h32l2.67,2.67v77.38h2.67l77.38-77.38,5.34-2.67h13.34l2.67,2.67v26.68l-53.36,53.36v2.67l58.7,72v26.68Z"/><path class="cls-1" d="M1933.61,1757.38h-18.68l-5.34-2.67-58.7-72h-2.67l-18.68,18.68v53.36l-2.67,2.67h-32l-2.67-2.67V1573.27l2.67-2.67h32l2.67,2.67v77.38h2.67l77.38-77.38,5.34-2.67h13.34l2.67,2.67V1600l-53.36,53.36V1656l58.7,72v26.68Z"/><path class="cls-1" d="M1928.53,1762.46h-18.68l-5.34-2.67-58.7-72h-2.67l-18.68,18.68v53.36l-2.67,2.67h-32l-2.67-2.67V1578.36l2.67-2.67h32l2.67,2.67v77.38h2.67l77.38-77.38,5.34-2.67h13.34l2.67,2.67V1605l-53.36,53.36v2.67l58.7,72v26.68Z"/><path class="cls-1" d="M1923.44,1767.54h-18.68l-5.34-2.67-58.7-72h-2.67l-18.68,18.68v53.36l-2.67,2.67h-32l-2.67-2.67V1583.44l2.67-2.67h32l2.67,2.67v77.38h2.67l77.38-77.38,5.34-2.67h13.34l2.67,2.67v26.68l-53.36,53.36v2.67l58.7,72v26.68Z"/><path class="cls-1" d="M1918.36,1772.63h-18.68l-5.34-2.67-58.7-72H1833l-18.68,18.68V1770l-2.67,2.67h-32l-2.67-2.67V1588.53l2.67-2.67h32l2.67,2.67v77.38H1817l77.38-77.38,5.34-2.67H1913l2.67,2.67v26.68l-53.36,53.36v2.67l58.7,72V1770Z"/><path class="cls-1" d="M1913.28,1777.71H1894.6l-5.34-2.67-58.7-72h-2.67l-18.68,18.68V1775l-2.67,2.67h-32l-2.67-2.67V1593.61l2.67-2.67h32l2.67,2.67V1671h2.67l77.38-77.38,5.34-2.67h13.34l2.67,2.67v26.68l-53.36,53.36v2.67l58.7,72V1775Z"/><path class="cls-1" d="M1908.19,1782.8h-18.68l-5.34-2.67-58.7-72h-2.67l-18.68,18.68v53.36l-2.67,2.67h-32l-2.67-2.67V1598.69l2.67-2.67h32l2.67,2.67v77.38h2.67l77.38-77.38,5.34-2.67h13.34l2.67,2.67v26.68l-53.36,53.36v2.67l58.7,72v26.68Z"/><path class="cls-1" d="M1903.11,1787.88h-18.68l-5.34-2.67-58.7-72h-2.67l-18.68,18.68v53.36l-2.67,2.67h-32l-2.67-2.67V1603.78l2.67-2.67h32l2.67,2.67v77.38h2.67l77.38-77.38,5.34-2.67h13.34l2.67,2.67v26.68l-53.36,53.36v2.67l58.7,72v26.68Z"/><path class="cls-1" d="M1898,1793h-18.68l-5.34-2.67-58.7-72h-2.67L1794,1736.93v53.36l-2.67,2.67h-32l-2.67-2.67V1608.86l2.67-2.67h32l2.67,2.67v77.38h2.67l77.38-77.38,5.34-2.67h13.34l2.67,2.67v26.68L1842,1688.91v2.67l58.7,72v26.68Z"/><path class="cls-1" d="M1892.94,1798h-18.68l-5.34-2.67-58.7-72h-2.67L1788.88,1742v53.36l-2.67,2.67h-32l-2.67-2.67V1613.95l2.67-2.67h32l2.67,2.67v77.38h2.67l77.38-77.38,5.34-2.67h13.34l2.67,2.67v26.68L1836.91,1694v2.67l58.7,72v26.68Z"/><path class="cls-1" d="M1887.86,1803.13h-18.68l-5.34-2.67-58.7-72h-2.67l-18.68,18.68v53.36l-2.67,2.67h-32l-2.67-2.67V1619l2.67-2.67h32l2.67,2.67v77.38h2.67l77.38-77.38,5.34-2.67h13.34l2.67,2.67v26.68l-53.36,53.36v2.67l58.7,72v26.68Z"/><path class="cls-1" d="M1882.77,1808.22H1864.1l-5.34-2.67-58.7-72h-2.67l-18.68,18.68v53.36l-2.67,2.67h-32l-2.67-2.67V1624.11l2.67-2.67h32l2.67,2.67v77.38h2.67l77.38-77.38,5.34-2.67h13.34l2.67,2.67v26.68l-53.36,53.36v2.67l58.7,72v26.68Z"/><path class="cls-1" d="M1877.69,1813.3H1859l-5.34-2.67-58.7-72h-2.67l-18.68,18.68v53.36l-2.67,2.67h-32l-2.67-2.67V1629.2l2.67-2.67h32l2.67,2.67v77.38h2.67l77.38-77.38,5.34-2.67h13.34l2.67,2.67v26.68l-53.36,53.36v2.67l58.7,72v26.68Z"/><path class="cls-1" d="M1872.6,1818.39h-18.68l-5.34-2.67-58.7-72h-2.67l-18.68,18.68v53.36l-2.67,2.67h-32l-2.67-2.67V1634.28l2.67-2.67h32l2.67,2.67v77.38h2.67l77.38-77.38,5.34-2.67h13.34l2.67,2.67V1661l-53.36,53.36V1717l58.7,72v26.68Z"/><path class="cls-1" d="M1867.52,1823.47h-18.68l-5.34-2.67-58.7-72h-2.67l-18.68,18.68v53.36l-2.67,2.67h-32l-2.67-2.67V1639.37l2.67-2.67h32l2.67,2.67v77.38h2.67l77.38-77.38,5.34-2.67h13.34l2.67,2.67V1666l-53.36,53.36v2.67l58.7,72v26.68Z"/><path class="cls-1" d="M1862.44,1828.55h-18.68l-5.34-2.67-58.7-72h-2.67l-18.68,18.68v53.36l-2.67,2.67h-32l-2.67-2.67V1644.45l2.67-2.67h32l2.67,2.67v77.38H1761l77.38-77.38,5.34-2.67h13.34l2.67,2.67v26.68l-53.36,53.36v2.67l58.7,72v26.68Z"/><path class="cls-1" d="M1857.35,1833.64h-18.68l-5.34-2.67-58.7-72H1772l-18.68,18.68V1831l-2.67,2.67h-32l-2.67-2.67V1649.54l2.67-2.67h32l2.67,2.67v77.38H1756l77.38-77.38,5.34-2.67H1852l2.67,2.67v26.68l-53.36,53.36v2.67l58.7,72V1831Z"/><path class="cls-1" d="M1852.27,1838.72h-18.68l-5.34-2.67-58.7-72h-2.67l-18.68,18.68v53.36l-2.67,2.67h-32l-2.67-2.67V1654.62l2.67-2.67h32l2.67,2.67V1732h2.67l77.38-77.38,5.34-2.67h13.34l2.67,2.67v26.68l-53.36,53.36v2.67l58.7,72v26.68Z"/><path class="cls-1" d="M1847.18,1843.81h-18.68l-5.34-2.67-58.7-72h-2.67l-18.68,18.68v53.36l-2.67,2.67h-32l-2.67-2.67V1659.7l2.67-2.67h32l2.67,2.67v77.38h2.67l77.38-77.38,5.34-2.67h13.34l2.67,2.67v26.68l-53.36,53.36v2.67l58.7,72v26.68Z"/><path class="cls-1" d="M1842.1,1848.89h-18.68l-5.34-2.67-58.7-72h-2.67L1738,1792.86v53.36l-2.67,2.67h-32l-2.67-2.67V1664.79l2.67-2.67h32l2.67,2.67v77.38h2.67l77.38-77.38,5.34-2.67h13.34l2.67,2.67v26.68l-53.36,53.36v2.67l58.7,72v26.68Z"/><path class="cls-1" d="M1837,1854h-18.68l-5.34-2.67-58.7-72h-2.67L1733,1797.94v53.36l-2.67,2.67h-32l-2.67-2.67V1669.87l2.67-2.67h32l2.67,2.67v77.38h2.67l77.38-77.38,5.34-2.67h13.34l2.67,2.67v26.68L1781,1749.92v2.67l58.7,72v26.68Z"/><path class="cls-1" d="M1831.93,1859.06h-18.68l-5.34-2.67-58.7-72h-2.67L1727.87,1803v53.36l-2.67,2.67h-32l-2.67-2.67V1675l2.67-2.67h32l2.67,2.67v77.38h2.67l77.38-77.38,5.34-2.67h13.34l2.67,2.67v26.68L1775.9,1755v2.67l58.7,72v26.68Z"/><path class="cls-1" d="M1826.85,1864.14h-18.68l-5.34-2.67-58.7-72h-2.67l-18.68,18.68v53.36l-2.67,2.67h-32l-2.67-2.67V1680l2.67-2.67h32l2.67,2.67v77.38h2.67l77.38-77.38,5.34-2.67h13.34l2.67,2.67v26.68l-53.36,53.36v2.67l58.7,72v26.68Z"/><path class="cls-1" d="M1821.76,1869.23h-18.68l-5.34-2.67-58.7-72h-2.67l-18.68,18.68v53.36l-2.67,2.67h-32l-2.67-2.67V1685.12l2.67-2.67h32l2.67,2.67v77.38h2.67l77.38-77.38,5.34-2.67h13.34l2.67,2.67v26.68l-53.36,53.36v2.67l58.7,72v26.68Z"/><path class="cls-1" d="M1816.68,1874.31H1798l-5.34-2.67-58.7-72h-2.67l-18.68,18.68v53.36l-2.67,2.67h-32l-2.67-2.67V1690.21l2.67-2.67h32l2.67,2.67v77.38h2.67l77.38-77.38,5.34-2.67h13.34l2.67,2.67v26.68l-53.36,53.36v2.67l58.7,72v26.68Z"/><path class="cls-1" d="M1811.59,1879.4h-18.68l-5.34-2.67-58.7-72h-2.67l-18.68,18.68v53.36l-2.67,2.67h-32l-2.67-2.67V1695.29l2.67-2.67h32l2.67,2.67v77.38h2.67l77.38-77.38,5.34-2.67h13.34l2.67,2.67V1722l-53.36,53.36V1778l58.7,72v26.68Z"/><path class="cls-1" d="M1806.51,1884.48h-18.68l-5.34-2.67-58.7-72h-2.67l-18.68,18.68v53.36l-2.67,2.67h-32l-2.67-2.67V1700.38l2.67-2.67h32l2.67,2.67v77.38h2.67l77.38-77.38,5.34-2.67h13.34l2.67,2.67v26.68l-53.36,53.36v2.67l58.7,72v26.68Z"/><path class="cls-1" d="M1801.43,1889.56h-18.68l-5.34-2.67-58.7-72H1716l-18.68,18.68v53.36l-2.67,2.67h-32l-2.67-2.67V1705.46l2.67-2.67h32l2.67,2.67v77.38H1700l77.38-77.38,5.34-2.67h13.34l2.67,2.67v26.68l-53.36,53.36v2.67l58.7,72v26.68Z"/><path class="cls-1" d="M1796.34,1894.65h-18.68l-5.34-2.67-58.7-72H1711l-18.68,18.68V1892l-2.67,2.67h-32l-2.67-2.67V1710.54l2.67-2.67h32l2.67,2.67v77.38H1695l77.38-77.38,5.34-2.67H1791l2.67,2.67v26.68l-53.36,53.36v2.67l58.7,72V1892Z"/><path class="cls-1" d="M1791.26,1899.73h-18.68l-5.34-2.67-58.7-72h-2.67l-18.68,18.68v53.36l-2.67,2.67h-32l-2.67-2.67V1715.63l2.67-2.67h32l2.67,2.67V1793h2.67l77.38-77.38,5.34-2.67h13.34l2.67,2.67v26.68l-53.36,53.36v2.67l58.7,72v26.68Z"/><path class="cls-1" d="M1786.17,1904.82H1767.5l-5.34-2.67-58.7-72h-2.67l-18.68,18.68v53.36l-2.67,2.67h-32l-2.67-2.67V1720.71l2.67-2.67h32l2.67,2.67v77.38h2.67l77.38-77.38,5.34-2.67h13.34l2.67,2.67v26.68l-53.36,53.36v2.67l58.7,72v26.68Z"/><path class="cls-1" d="M1781.09,1909.9h-18.68l-5.34-2.67-58.7-72h-2.67L1677,1853.87v53.36l-2.67,2.67h-32l-2.67-2.67V1725.8l2.67-2.67h32l2.67,2.67v77.38h2.67l77.38-77.38,5.34-2.67h13.34l2.67,2.67v26.68l-53.36,53.36v2.67l58.7,72v26.68Z"/><path class="cls-1" d="M1776,1915h-18.68l-5.34-2.67-58.7-72h-2.67L1671.95,1859v53.36l-2.67,2.67h-32l-2.67-2.67V1730.88l2.67-2.67h32l2.67,2.67v77.38h2.67l77.38-77.38,5.34-2.67h13.34l2.67,2.67v26.68L1720,1810.93v2.67l58.7,72v26.68Z"/><path class="cls-1" d="M1770.92,1920.07h-18.68l-5.34-2.67-58.7-72h-2.67L1666.86,1864v53.36l-2.67,2.67h-32l-2.67-2.67V1736l2.67-2.67h32l2.67,2.67v77.38h2.67l77.38-77.38,5.34-2.67h13.34l2.67,2.67v26.68L1714.89,1816v2.67l58.7,72v26.68Z"/><path class="cls-1" d="M1765.84,1925.15h-18.68l-5.34-2.67-58.7-72h-2.67l-18.68,18.68v53.36l-2.67,2.67h-32l-2.67-2.67V1741l2.67-2.67h32l2.67,2.67v77.38h2.67l77.38-77.38,5.34-2.67h13.34l2.67,2.67v26.68l-53.36,53.36v2.67l58.7,72v26.68Z"/><path class="cls-1" d="M1760.75,1930.24h-18.68l-5.34-2.67-58.7-72h-2.67l-18.68,18.68v53.36l-2.67,2.67h-32l-2.67-2.67V1746.13l2.67-2.67h32l2.67,2.67v77.38h2.67l77.38-77.38,5.34-2.67h13.34l2.67,2.67v26.68l-53.36,53.36v2.67l58.7,72v26.68Z"/><path class="cls-1" d="M1755.67,1935.32H1737l-5.34-2.67-58.7-72h-2.67l-18.68,18.68v53.36l-2.67,2.67h-32l-2.67-2.67V1751.22l2.67-2.67h32l2.67,2.67v77.38h2.67l77.38-77.38,5.34-2.67h13.34l2.67,2.67v26.68l-53.36,53.36v2.67l58.7,72v26.68Z"/><path class="cls-1" d="M1750.58,1940.4h-18.68l-5.34-2.67-58.7-72h-2.67l-18.68,18.68v53.36l-2.67,2.67h-32l-2.67-2.67V1756.3l2.67-2.67h32l2.67,2.67v77.38h2.67l77.38-77.38,5.34-2.67h13.34l2.67,2.67V1783l-53.36,53.36V1839l58.7,72v26.68Z"/><path class="cls-1" d="M1745.5,1945.49h-18.68l-5.34-2.67-58.7-72h-2.67l-18.68,18.68v53.36l-2.67,2.67h-32l-2.67-2.67V1761.39l2.67-2.67h32l2.67,2.67v77.38h2.67l77.38-77.38,5.34-2.67h13.34l2.67,2.67v26.68l-53.36,53.36v2.67l58.7,72v26.68Z"/><path class="cls-1" d="M1740.42,1950.57h-18.68l-5.34-2.67-58.7-72H1655l-18.68,18.68v53.36l-2.67,2.67h-32l-2.67-2.67V1766.47l2.67-2.67h32l2.67,2.67v77.38H1639l77.38-77.38,5.34-2.67h13.34l2.67,2.67v26.68l-53.36,53.36v2.67l58.7,72v26.68Z"/><path class="cls-1" d="M1735.33,1955.66h-18.68l-5.34-2.67-58.7-72H1650l-18.68,18.68V1953l-2.67,2.67h-32l-2.67-2.67V1771.55l2.67-2.67h32l2.67,2.67v77.38h2.67l77.38-77.38,5.34-2.67H1730l2.67,2.67v26.68l-53.36,53.36v2.67l58.7,72V1953Z"/><path class="cls-1" d="M1730.25,1960.74h-18.68l-5.34-2.67-58.7-72h-2.67l-18.68,18.68v53.36l-2.67,2.67h-32l-2.67-2.67V1776.64l2.67-2.67h32l2.67,2.67V1854h2.67l77.38-77.38,5.34-2.67h13.34l2.67,2.67v26.68l-53.36,53.36v2.67l58.7,72v26.68Z"/><path class="cls-1" d="M1725.16,1965.83h-18.68l-5.34-2.67-58.7-72h-2.67l-18.68,18.68v53.36l-2.67,2.67h-32l-2.67-2.67V1781.72l2.67-2.67h32l2.67,2.67v77.38h2.67l77.38-77.38,5.34-2.67h13.34l2.67,2.67v26.68l-53.36,53.36v2.67l58.7,72v26.68Z"/><path class="cls-1" d="M1720.08,1970.91H1701.4l-5.34-2.67-58.7-72h-2.67L1616,1914.88v53.36l-2.67,2.67h-32l-2.67-2.67V1786.81l2.67-2.67h32l2.67,2.67v77.38h2.67l77.38-77.38,5.34-2.67h13.34l2.67,2.67v26.68L1664,1866.85v2.67l58.7,72v26.68Z"/><path class="cls-1" d="M1715,1976h-18.68l-5.34-2.67-58.7-72h-2.67L1610.94,1920v53.36l-2.67,2.67h-32l-2.67-2.67V1791.89l2.67-2.67h32l2.67,2.67v77.38h2.67l77.38-77.38,5.34-2.67h13.34l2.67,2.67v26.68L1659,1871.94v2.67l58.7,72v26.68Z"/><path class="cls-1" d="M1709.91,1981.08h-18.68l-5.34-2.67-58.7-72h-2.67L1605.85,1925v53.36l-2.67,2.67h-32l-2.67-2.67V1797l2.67-2.67h32l2.67,2.67v77.38h2.67L1685.9,1797l5.34-2.67h13.34l2.67,2.67v26.68L1653.88,1877v2.67l58.7,72v26.68Z"/><path class="cls-1" d="M1704.83,1986.16h-18.68l-5.34-2.67-58.7-72h-2.67l-18.68,18.68v53.36l-2.67,2.67h-32l-2.67-2.67V1802.06l2.67-2.67h32l2.67,2.67v77.38h2.67l77.38-77.38,5.34-2.67h13.34l2.67,2.67v26.68l-53.36,53.36v2.67l58.7,72v26.68Z"/><path class="cls-1" d="M1699.74,1991.25h-18.68l-5.34-2.67-58.7-72h-2.67l-18.68,18.68v53.36l-2.67,2.67h-32l-2.67-2.67V1807.14l2.67-2.67h32l2.67,2.67v77.38h2.67l77.38-77.38,5.34-2.67h13.34l2.67,2.67v26.68l-53.36,53.36v2.67l58.7,72v26.68Z"/><path class="cls-1" d="M1694.66,1996.33H1676l-5.34-2.67-58.7-72h-2.67l-18.68,18.68v53.36l-2.67,2.67h-32l-2.67-2.67V1812.23l2.67-2.67h32l2.67,2.67v77.38h2.67l77.38-77.38,5.34-2.67h13.34l2.67,2.67v26.68l-53.36,53.36v2.67l58.7,72v26.68Z"/><path class="cls-1" d="M1689.57,2001.41H1670.9l-5.34-2.67-58.7-72h-2.67l-18.68,18.68v53.36l-2.67,2.67h-32l-2.67-2.67V1817.31l2.67-2.67h32l2.67,2.67v77.38h2.67l77.38-77.38,5.34-2.67h13.34l2.67,2.67V1844l-53.36,53.36V1900l58.7,72v26.68Z"/><path class="cls-1" d="M1684.49,2006.5h-18.68l-5.34-2.67-58.7-72h-2.67l-18.68,18.68v53.36l-2.67,2.67h-32l-2.67-2.67V1822.4l2.67-2.67h32l2.67,2.67v77.38h2.67l77.38-77.38,5.34-2.67h13.34l2.67,2.67v26.68l-53.36,53.36v2.67l58.7,72v26.68Z"/><path class="cls-1" d="M1679.41,2011.58h-18.68l-5.34-2.67-58.7-72H1594l-18.68,18.68v53.36l-2.67,2.67h-32l-2.67-2.67V1827.48l2.67-2.67h32l2.67,2.67v77.38H1578l77.38-77.38,5.34-2.67h13.34l2.67,2.67v26.68l-53.36,53.36v2.67l58.7,72v26.68Z"/><path class="cls-1" d="M1674.32,2016.67h-18.68l-5.34-2.67-58.7-72h-2.67l-18.68,18.68V2014l-2.67,2.67h-32l-2.67-2.67V1832.56l2.67-2.67h32l2.67,2.67v77.38h2.67l77.38-77.38,5.34-2.67H1669l2.67,2.67v26.68l-53.36,53.36v2.67l58.7,72V2014Z"/><path class="cls-1" d="M1669.24,2021.75h-18.68l-5.34-2.67-58.7-72h-2.67l-18.68,18.68v53.36l-2.67,2.67h-32l-2.67-2.67V1837.65l2.67-2.67h32l2.67,2.67V1915h2.67l77.38-77.38,5.34-2.67h13.34l2.67,2.67v26.68l-53.36,53.36v2.67l58.7,72v26.68Z"/><path class="cls-1" d="M1664.15,2026.84h-18.68l-5.34-2.67-58.7-72h-2.67l-18.68,18.68v53.36l-2.67,2.67h-32l-2.67-2.67V1842.73l2.67-2.67h32l2.67,2.67v77.38h2.67l77.38-77.38,5.34-2.67h13.34l2.67,2.67v26.68l-53.36,53.36v2.67l58.7,72v26.68Z"/><path class="cls-1" d="M1659.07,2031.92h-18.68l-5.34-2.67-58.7-72h-2.67L1555,1975.89v53.36l-2.67,2.67h-32l-2.67-2.67V1847.82l2.67-2.67h32l2.67,2.67v77.38h2.67l77.38-77.38,5.34-2.67h13.34l2.67,2.67v26.68L1603,1927.86v2.67l58.7,72v26.68Z"/><path class="cls-1" d="M1654,2037h-18.68l-5.34-2.67-58.7-72h-2.67L1549.93,1981v53.36l-2.67,2.67h-32l-2.67-2.67V1852.9l2.67-2.67h32l2.67,2.67v77.38h2.67L1630,1852.9l5.34-2.67h13.34l2.67,2.67v26.68L1598,1932.95v2.67l58.7,72v26.68Z"/><path class="cls-1" d="M1648.9,2042.09h-18.68l-5.34-2.67-58.7-72h-2.67l-18.68,18.68v53.36l-2.67,2.67h-32l-2.67-2.67V1858l2.67-2.67h32l2.67,2.67v77.38h2.67l77.38-77.38,5.34-2.67h13.34l2.67,2.67v26.68L1592.87,1938v2.67l58.7,72v26.68Z"/><path class="cls-1" d="M1643.82,2047.17h-18.68l-5.34-2.67-58.7-72h-2.67l-18.68,18.68v53.36l-2.67,2.67h-32l-2.67-2.67V1863.07l2.67-2.67h32l2.67,2.67v77.38h2.67l77.38-77.38,5.34-2.67h13.34l2.67,2.67v26.68l-53.36,53.36v2.67l58.7,72v26.68Z"/><path class="cls-1" d="M1638.73,2052.26h-18.68l-5.34-2.67-58.7-72h-2.67l-18.68,18.68v53.36l-2.67,2.67h-32l-2.67-2.67V1868.15l2.67-2.67h32l2.67,2.67v77.38h2.67l77.38-77.38,5.34-2.67h13.34l2.67,2.67v26.68l-53.36,53.36v2.67l58.7,72v26.68Z"/><path class="cls-1" d="M1633.65,2057.34H1615l-5.34-2.67-58.7-72h-2.67l-18.68,18.68v53.36l-2.67,2.67h-32l-2.67-2.67V1873.24l2.67-2.67h32l2.67,2.67v77.38h2.67l77.38-77.38,5.34-2.67h13.34l2.67,2.67v26.68l-53.36,53.36V1956l58.7,72v26.68Z"/><path class="cls-1" d="M1628.56,2062.42h-18.68l-5.34-2.67-58.7-72h-2.67l-18.68,18.68v53.36l-2.67,2.67h-32l-2.67-2.67V1878.32l2.67-2.67h32l2.67,2.67v77.38h2.67l77.38-77.38,5.34-2.67h13.34l2.67,2.67V1905l-53.36,53.36V1961l58.7,72v26.68Z"/><path class="cls-1" d="M1623.48,2067.51H1604.8l-5.34-2.67-58.7-72h-2.67l-18.68,18.68v53.36l-2.67,2.67h-32l-2.67-2.67V1883.41l2.67-2.67h32l2.67,2.67v77.38h2.67l77.38-77.38,5.34-2.67h13.34l2.67,2.67v26.68l-53.36,53.36v2.67l58.7,72v26.68Z"/><path class="cls-1" d="M1618.4,2072.59h-18.68l-5.34-2.67-58.7-72H1533l-18.68,18.68v53.36l-2.67,2.67h-32l-2.67-2.67V1888.49l2.67-2.67h32l2.67,2.67v77.38H1517l77.38-77.38,5.34-2.67h13.34l2.67,2.67v26.68l-53.36,53.36v2.67l58.7,72v26.68Z"/><path class="cls-1" d="M1613.31,2077.68h-18.68l-5.34-2.67-58.7-72h-2.67l-18.68,18.68V2075l-2.67,2.67h-32l-2.67-2.67V1893.57l2.67-2.67h32l2.67,2.67v77.38h2.67l77.38-77.38,5.34-2.67H1608l2.67,2.67v26.68l-53.36,53.36v2.67l58.7,72V2075Z"/><path class="cls-1" d="M1608.23,2082.76h-18.68l-5.34-2.67-58.7-72h-2.67l-18.68,18.68v53.36l-2.67,2.67h-32l-2.67-2.67V1898.66l2.67-2.67h32l2.67,2.67V1976h2.67l77.38-77.38,5.34-2.67h13.34l2.67,2.67v26.68l-53.36,53.36v2.67l58.7,72v26.68Z"/><path class="cls-1" d="M1603.14,2087.84h-18.68l-5.34-2.67-58.7-72h-2.67l-18.68,18.68v53.36l-2.67,2.67h-32l-2.67-2.67V1903.74l2.67-2.67h32l2.67,2.67v77.38h2.67l77.38-77.38,5.34-2.67h13.34l2.67,2.67v26.68l-53.36,53.36v2.67l58.7,72v26.68Z"/><path class="cls-1" d="M1598.06,2092.93h-18.68l-5.34-2.67-58.7-72h-2.67L1494,2036.9v53.36l-2.67,2.67h-32l-2.67-2.67V1908.83l2.67-2.67h32l2.67,2.67v77.38h2.67l77.38-77.38,5.34-2.67h13.34l2.67,2.67v26.68L1542,1988.87v2.67l58.7,72v26.68Z"/><path class="cls-1" d="M1593,2098H1574.3l-5.34-2.67-58.7-72h-2.67L1488.92,2042v53.36l-2.67,2.67h-32l-2.67-2.67V1913.91l2.67-2.67h32l2.67,2.67v77.38h2.67l77.38-77.38,5.34-2.67h13.34l2.67,2.67v26.68L1536.95,1994v2.67l58.7,72v26.68Z"/><path class="cls-1" d="M1587.89,2103.1h-18.68l-5.34-2.67-58.7-72h-2.67l-18.68,18.68v53.36l-2.67,2.67h-32l-2.67-2.67V1919l2.67-2.67h32l2.67,2.67v77.38h2.67l77.38-77.38,5.34-2.67h13.34l2.67,2.67v26.68L1531.86,1999v2.67l58.7,72v26.68Z"/><path class="cls-1" d="M1582.81,2108.18h-18.68l-5.34-2.67-58.7-72h-2.67l-18.68,18.68v53.36l-2.67,2.67h-32l-2.67-2.67V1924.08l2.67-2.67h32l2.67,2.67v77.38h2.67l77.38-77.38,5.34-2.67h13.34l2.67,2.67v26.68l-53.36,53.36v2.67l58.7,72v26.68Z"/><path class="cls-1" d="M1577.72,2113.27H1559l-5.34-2.67-58.7-72h-2.67l-18.68,18.68v53.36l-2.67,2.67h-32l-2.67-2.67V1929.16l2.67-2.67h32l2.67,2.67v77.38h2.67l77.38-77.38,5.34-2.67h13.34l2.67,2.67v26.68l-53.36,53.36v2.67l58.7,72v26.68Z"/><path class="cls-1" d="M1572.64,2118.35H1554l-5.34-2.67-58.7-72h-2.67l-18.68,18.68v53.36l-2.67,2.67h-32l-2.67-2.67V1934.25l2.67-2.67h32l2.67,2.67v77.38h2.67l77.38-77.38,5.34-2.67h13.34l2.67,2.67v26.68l-53.36,53.36V2017l58.7,72v26.68Z"/><path class="cls-1" d="M1567.56,2123.43h-18.68l-5.34-2.67-58.7-72h-2.67l-18.68,18.68v53.36l-2.67,2.67h-32l-2.67-2.67V1939.33l2.67-2.67h32l2.67,2.67v77.38h2.67l77.38-77.38,5.34-2.67h13.34l2.67,2.67V1966l-53.36,53.36V2022l58.7,72v26.68Z"/><path class="cls-1" d="M1562.47,2128.52h-18.68l-5.34-2.67-58.7-72h-2.67l-18.68,18.68v53.36l-2.67,2.67h-32l-2.67-2.67V1944.42l2.67-2.67h32l2.67,2.67v77.38h2.67l77.38-77.38,5.34-2.67h13.34l2.67,2.67v26.68l-53.36,53.36v2.67l58.7,72v26.68Z"/><path class="cls-1" d="M1557.39,2133.6h-18.68l-5.34-2.67-58.7-72H1472l-18.68,18.68v53.36l-2.67,2.67h-32l-2.67-2.67V1949.5l2.67-2.67h32l2.67,2.67v77.38H1456l77.38-77.38,5.34-2.67h13.34l2.67,2.67v26.68l-53.36,53.36v2.67l58.7,72v26.68Z"/><path class="cls-1" d="M1552.3,2138.69h-18.68l-5.34-2.67-58.7-72h-2.67l-18.68,18.68V2136l-2.67,2.67h-32l-2.67-2.67V1954.58l2.67-2.67h32l2.67,2.67V2032h2.67l77.38-77.38,5.34-2.67H1547l2.67,2.67v26.68l-53.36,53.36v2.67l58.7,72V2136Z"/><path class="cls-1" d="M1547.22,2143.77h-18.68l-5.34-2.67-58.7-72h-2.67l-18.68,18.68v53.36l-2.67,2.67h-32l-2.67-2.67V1959.67l2.67-2.67h32l2.67,2.67V2037h2.67l77.38-77.38,5.34-2.67h13.34l2.67,2.67v26.68l-53.36,53.36v2.67l58.7,72v26.68Z"/><path class="cls-1" d="M1542.13,2148.85h-18.68l-5.34-2.67-58.7-72h-2.67l-18.68,18.68v53.36l-2.67,2.67h-32l-2.67-2.67V1964.75l2.67-2.67h32l2.67,2.67v77.38h2.67l77.38-77.38,5.34-2.67h13.34l2.67,2.67v26.68l-53.36,53.36v2.67l58.7,72v26.68Z"/><path class="cls-1" d="M1537.05,2153.94h-18.68l-5.34-2.67-58.7-72h-2.67L1433,2097.91v53.36l-2.67,2.67h-32l-2.67-2.67V1969.84l2.67-2.67h32l2.67,2.67v77.38h2.67l77.38-77.38,5.34-2.67h13.34l2.67,2.67v26.68L1481,2049.88v2.67l58.7,72v26.68Z"/><path class="cls-1" d="M1532,2159h-18.68l-5.34-2.67-58.7-72h-2.67L1427.91,2103v53.36l-2.67,2.67h-32l-2.67-2.67V1974.92l2.67-2.67h32l2.67,2.67v77.38h2.67l77.38-77.38,5.34-2.67h13.34l2.67,2.67v26.68L1475.94,2055v2.67l58.7,72v26.68Z"/><path class="cls-1" d="M1526.88,2164.11h-18.68l-5.34-2.67-58.7-72h-2.67l-18.68,18.68v53.36l-2.67,2.67h-32l-2.67-2.67V1980l2.67-2.67h32l2.67,2.67v77.38h2.67l77.38-77.38,5.34-2.67h13.34l2.67,2.67v26.68L1470.85,2060v2.67l58.7,72v26.68Z"/><path class="cls-1" d="M1521.8,2169.19h-18.68l-5.34-2.67-58.7-72h-2.67l-18.68,18.68v53.36l-2.67,2.67h-32l-2.67-2.67V1985.09l2.67-2.67h32l2.67,2.67v77.38h2.67l77.38-77.38,5.34-2.67h13.34l2.67,2.67v26.68l-53.36,53.36v2.67l58.7,72v26.68Z"/><path class="cls-1" d="M1516.71,2174.28H1498l-5.34-2.67-58.7-72h-2.67l-18.68,18.68v53.36l-2.67,2.67h-32l-2.67-2.67V1990.17l2.67-2.67h32l2.67,2.67v77.38h2.67l77.38-77.38,5.34-2.67h13.34l2.67,2.67v26.68l-53.36,53.36v2.67l58.7,72v26.68Z"/><path class="cls-1" d="M1511.63,2179.36H1493l-5.34-2.67-58.7-72h-2.67l-18.68,18.68v53.36l-2.67,2.67h-32l-2.67-2.67V1995.26l2.67-2.67h32l2.67,2.67v77.38h2.67l77.38-77.38,5.34-2.67h13.34l2.67,2.67v26.68l-53.36,53.36V2078l58.7,72v26.68Z"/><path class="cls-1" d="M1506.55,2184.44h-18.68l-5.34-2.67-58.7-72h-2.67l-18.68,18.68v53.36l-2.67,2.67h-32l-2.67-2.67V2000.34l2.67-2.67h32l2.67,2.67v77.38h2.67l77.38-77.38,5.34-2.67h13.34l2.67,2.67V2027l-53.36,53.36v2.67l58.7,72v26.68Z"/><path class="cls-1" d="M1501.46,2189.53h-18.68l-5.34-2.67-58.7-72h-2.67l-18.68,18.68v53.36l-2.67,2.67h-32l-2.67-2.67V2005.42l2.67-2.67h32l2.67,2.67v77.38h2.67l77.38-77.38,5.34-2.67h13.34l2.67,2.67v26.68l-53.36,53.36v2.67l58.7,72v26.68Z"/><path class="cls-1" d="M1496.38,2194.61H1477.7l-5.34-2.67-58.7-72H1411l-18.68,18.68v53.36l-2.67,2.67h-32l-2.67-2.67V2010.51l2.67-2.67h32l2.67,2.67v77.38H1395l77.38-77.38,5.34-2.67H1491l2.67,2.67v26.68l-53.36,53.36v2.67l58.7,72v26.68Z"/><path class="cls-1" d="M1491.29,2199.7h-18.68l-5.34-2.67-58.7-72h-2.67l-18.68,18.68V2197l-2.67,2.67h-32l-2.67-2.67V2015.59l2.67-2.67h32l2.67,2.67V2093h2.67l77.38-77.38,5.34-2.67H1486l2.67,2.67v26.68l-53.36,53.36v2.67l58.7,72V2197Z"/><path class="cls-1" d="M1486.21,2204.78h-18.68l-5.34-2.67-58.7-72h-2.67l-18.68,18.68v53.36l-2.67,2.67h-32l-2.67-2.67V2020.68l2.67-2.67h32l2.67,2.67v77.38h2.67l77.38-77.38,5.34-2.67h13.34l2.67,2.67v26.68l-53.36,53.36v2.67l58.7,72v26.68Z"/><path class="cls-1" d="M1481.12,2209.86h-18.68l-5.34-2.67-58.7-72h-2.67l-18.68,18.68v53.36l-2.67,2.67h-32l-2.67-2.67V2025.76l2.67-2.67h32l2.67,2.67v77.38h2.67l77.38-77.38,5.34-2.67h13.34l2.67,2.67v26.68l-53.36,53.36v2.67l58.7,72v26.68Z"/><path class="cls-1" d="M1476,2214.95h-18.68l-5.34-2.67-58.7-72h-2.67L1372,2158.92v53.36l-2.67,2.67h-32l-2.67-2.67V2030.85l2.67-2.67h32l2.67,2.67v77.38h2.67l77.38-77.38,5.34-2.67h13.34l2.67,2.67v26.68L1420,2110.89v2.67l58.7,72v26.68Z"/><path class="cls-1" d="M1471,2220h-18.68l-5.34-2.67-58.7-72h-2.67L1366.9,2164v53.36l-2.67,2.67h-32l-2.67-2.67V2035.93l2.67-2.67h32l2.67,2.67v77.38h2.67l77.38-77.38,5.34-2.67h13.34l2.67,2.67v26.68L1414.93,2116v2.67l58.7,72v26.68Z"/><path class="cls-1" d="M1465.87,2225.12H1447.2l-5.34-2.67-58.7-72h-2.67l-18.68,18.68v53.36l-2.67,2.67h-32l-2.67-2.67V2041l2.67-2.67h32l2.67,2.67v77.38h2.67l77.38-77.38,5.34-2.67h13.34l2.67,2.67v26.68l-53.36,53.36v2.67l58.7,72v26.68Z"/><path class="cls-1" d="M1460.79,2230.2h-18.68l-5.34-2.67-58.7-72h-2.67l-18.68,18.68v53.36l-2.67,2.67h-32l-2.67-2.67V2046.1l2.67-2.67h32l2.67,2.67v77.38h2.67l77.38-77.38,5.34-2.67h13.34l2.67,2.67v26.68l-53.36,53.36v2.67l58.7,72v26.68Z"/><path class="cls-1" d="M1455.7,2235.28H1437l-5.34-2.67-58.7-72h-2.67l-18.68,18.68v53.36l-2.67,2.67h-32l-2.67-2.67V2051.18l2.67-2.67h32l2.67,2.67v77.38h2.67l77.38-77.38,5.34-2.67h13.34l2.67,2.67v26.68l-53.36,53.36v2.67l58.7,72v26.68Z"/><path class="cls-1" d="M1450.62,2240.37h-18.68l-5.34-2.67-58.7-72h-2.67l-18.68,18.68v53.36l-2.67,2.67h-32l-2.67-2.67V2056.27l2.67-2.67h32l2.67,2.67v77.38h2.67l77.38-77.38,5.34-2.67h13.34l2.67,2.67v26.68l-53.36,53.36V2139l58.7,72v26.68Z"/><path class="cls-1" d="M1445.54,2245.45h-18.68l-5.34-2.67-58.7-72h-2.67l-18.68,18.68v53.36l-2.67,2.67h-32l-2.67-2.67V2061.35l2.67-2.67h32l2.67,2.67v77.38h2.67l77.38-77.38,5.34-2.67h13.34l2.67,2.67V2088l-53.36,53.36v2.67l58.7,72v26.68Z"/><path class="cls-1" d="M1440.45,2250.54h-18.68l-5.34-2.67-58.7-72h-2.67l-18.68,18.68v53.36l-2.67,2.67h-32l-2.67-2.67V2066.43l2.67-2.67h32l2.67,2.67v77.38h2.67l77.38-77.38,5.34-2.67h13.34l2.67,2.67v26.68l-53.36,53.36v2.67l58.7,72v26.68Z"/><path class="cls-1" d="M1435.37,2255.62h-18.68l-5.34-2.67-58.7-72H1350l-18.68,18.68V2253l-2.67,2.67h-32L1294,2253V2071.52l2.67-2.67h32l2.67,2.67v77.38H1334l77.38-77.38,5.34-2.67H1430l2.67,2.67v26.68l-53.36,53.36v2.67l58.7,72V2253Z"/><path class="cls-1" d="M1430.28,2260.71h-18.68l-5.34-2.67-58.7-72h-2.67l-18.68,18.68V2258l-2.67,2.67h-32l-2.67-2.67V2076.6l2.67-2.67h32l2.67,2.67V2154h2.67l77.38-77.38,5.34-2.67h13.34l2.67,2.67v26.68l-53.36,53.36v2.67l58.7,72V2258Z"/><path class="cls-1" d="M1425.2,2265.79h-18.68l-5.34-2.67-58.7-72h-2.67l-18.68,18.68v53.36l-2.67,2.67h-32l-2.67-2.67V2081.69l2.67-2.67h32l2.67,2.67v77.38h2.67l77.38-77.38,5.34-2.67h13.34l2.67,2.67v26.68l-53.36,53.36v2.67l58.7,72v26.68Z"/><path class="cls-1" d="M1420.12,2270.87h-18.68l-5.34-2.67-58.7-72h-2.67l-18.68,18.68v53.36l-2.67,2.67h-32l-2.67-2.67V2086.77l2.67-2.67h32l2.67,2.67v77.38h2.67l77.38-77.38,5.34-2.67h13.34l2.67,2.67v26.68l-53.36,53.36v2.67l58.7,72v26.68Z"/><path class="cls-1" d="M1415,2276h-18.68l-5.34-2.67-58.7-72h-2.67L1311,2219.93v53.36l-2.67,2.67h-32l-2.67-2.67V2091.86l2.67-2.67h32l2.67,2.67v77.38h2.67l77.38-77.38,5.34-2.67h13.34l2.67,2.67v26.68L1359,2171.9v2.67l58.7,72v26.68Z"/><path class="cls-1" d="M1409.95,2281h-18.68l-5.34-2.67-58.7-72h-2.67L1305.89,2225v53.36l-2.67,2.67h-32l-2.67-2.67V2096.94l2.67-2.67h32l2.67,2.67v77.38h2.67l77.38-77.38,5.34-2.67h13.34l2.67,2.67v26.68L1353.92,2177v2.67l58.7,72v26.68Z"/><path class="cls-1" d="M1404.86,2286.13h-18.68l-5.34-2.67-58.7-72h-2.67l-18.68,18.68v53.36l-2.67,2.67h-32l-2.67-2.67V2102l2.67-2.67h32l2.67,2.67v77.38h2.67l77.38-77.38,5.34-2.67h13.34l2.67,2.67v26.68l-53.36,53.36v2.67l58.7,72v26.68Z"/><path class="cls-1" d="M1399.78,2291.21H1381.1l-5.34-2.67-58.7-72h-2.67l-18.68,18.68v53.36l-2.67,2.67h-32l-2.67-2.67V2107.11l2.67-2.67h32l2.67,2.67v77.38h2.67l77.38-77.38,5.34-2.67h13.34l2.67,2.67v26.68l-53.36,53.36v2.67l58.7,72v26.68Z"/><path class="cls-1" d="M1394.69,2296.29H1376l-5.34-2.67-58.7-72h-2.67l-18.68,18.68v53.36l-2.67,2.67h-32l-2.67-2.67V2112.19l2.67-2.67h32l2.67,2.67v77.38h2.67l77.38-77.38,5.34-2.67h13.34l2.67,2.67v26.68l-53.36,53.36v2.67l58.7,72v26.68Z"/><path class="cls-1" d="M1389.61,2301.38h-18.68l-5.34-2.67-58.7-72h-2.67l-18.68,18.68v53.36l-2.67,2.67h-32l-2.67-2.67V2117.28l2.67-2.67h32l2.67,2.67v77.38h2.67l77.38-77.38,5.34-2.67h13.34l2.67,2.67V2144l-53.36,53.36V2200l58.7,72v26.68Z"/><path class="cls-1" d="M1384.53,2306.46h-18.68l-5.34-2.67-58.7-72h-2.67l-18.68,18.68v53.36l-2.67,2.67h-32l-2.67-2.67V2122.36l2.67-2.67h32l2.67,2.67v77.38h2.67l77.38-77.38,5.34-2.67h13.34l2.67,2.67V2149l-53.36,53.36v2.67l58.7,72v26.68Z"/><path class="cls-1" d="M1379.44,2311.55h-18.68l-5.34-2.67-58.7-72h-2.67l-18.68,18.68v53.36l-2.67,2.67h-32l-2.67-2.67V2127.44l2.67-2.67h32l2.67,2.67v77.38h2.67l77.38-77.38,5.34-2.67h13.34l2.67,2.67v26.68l-53.36,53.36v2.67l58.7,72v26.68Z"/><path class="cls-1" d="M1374.36,2316.63h-18.68l-5.34-2.67-58.7-72H1289l-18.68,18.68V2314l-2.67,2.67h-32l-2.67-2.67V2132.53l2.67-2.67h32l2.67,2.67v77.38H1273l77.38-77.38,5.34-2.67H1369l2.67,2.67v26.68l-53.36,53.36v2.67l58.7,72V2314Z"/><path class="cls-1" d="M1369.27,2321.71H1350.6l-5.34-2.67-58.7-72h-2.67l-18.68,18.68V2319l-2.67,2.67h-32l-2.67-2.67V2137.61l2.67-2.67h32l2.67,2.67V2215h2.67l77.38-77.38,5.34-2.67h13.34l2.67,2.67v26.68l-53.36,53.36v2.67l58.7,72V2319Z"/><path class="cls-1" d="M1364.19,2326.8h-18.68l-5.34-2.67-58.7-72h-2.67l-18.68,18.68v53.36l-2.67,2.67h-32l-2.67-2.67V2142.7l2.67-2.67h32l2.67,2.67v77.38h2.67l77.38-77.38,5.34-2.67h13.34l2.67,2.67v26.68l-53.36,53.36v2.67l58.7,72v26.68Z"/><path class="cls-1" d="M1359.11,2331.88h-18.68l-5.34-2.67-58.7-72h-2.67L1255,2275.85v53.36l-2.67,2.67h-32l-2.67-2.67V2147.78l2.67-2.67h32l2.67,2.67v77.38h2.67l77.38-77.38,5.34-2.67h13.34l2.67,2.67v26.68l-53.36,53.36v2.67l58.7,72v26.68Z"/><path class="cls-1" d="M1354,2337h-18.68l-5.34-2.67-58.7-72h-2.67L1250,2280.94v53.36l-2.67,2.67h-32l-2.67-2.67V2152.86l2.67-2.67h32l2.67,2.67v77.38h2.67l77.38-77.38,5.34-2.67h13.34l2.67,2.67v26.68L1298,2232.91v2.67l58.7,72v26.68Z"/><path class="cls-1" d="M1348.94,2342.05h-18.68l-5.34-2.67-58.7-72h-2.67L1244.88,2286v53.36l-2.67,2.67h-32l-2.67-2.67V2157.95l2.67-2.67h32l2.67,2.67v77.38h2.67l77.38-77.38,5.34-2.67h13.34l2.67,2.67v26.68L1292.91,2238v2.67l58.7,72v26.68Z"/><path class="cls-1" d="M1343.85,2347.14h-18.68l-5.34-2.67-58.7-72h-2.67l-18.68,18.68v53.36l-2.67,2.67h-32l-2.67-2.67V2163l2.67-2.67h32l2.67,2.67v77.38h2.67l77.38-77.38,5.34-2.67h13.34l2.67,2.67v26.68l-53.36,53.36v2.67l58.7,72v26.68Z"/><path class="cls-1" d="M1338.77,2352.22h-18.68l-5.34-2.67-58.7-72h-2.67l-18.68,18.68v53.36l-2.67,2.67h-32l-2.67-2.67V2168.12l2.67-2.67h32l2.67,2.67v77.38h2.67l77.38-77.38,5.34-2.67h13.34l2.67,2.67v26.68l-53.36,53.36v2.67l58.7,72v26.68Z"/><path class="cls-1" d="M1333.68,2357.3H1315l-5.34-2.67-58.7-72h-2.67l-18.68,18.68v53.36l-2.67,2.67h-32l-2.67-2.67V2173.2l2.67-2.67h32l2.67,2.67v77.38h2.67l77.38-77.38,5.34-2.67h13.34l2.67,2.67v26.68l-53.36,53.36v2.67l58.7,72v26.68Z"/><path class="cls-1" d="M1328.6,2362.39h-18.68l-5.34-2.67-58.7-72h-2.67l-18.68,18.68v53.36l-2.67,2.67h-32l-2.67-2.67V2178.29l2.67-2.67h32l2.67,2.67v77.38h2.67l77.38-77.38,5.34-2.67h13.34l2.67,2.67V2205l-53.36,53.36V2261l58.7,72v26.68Z"/><path class="cls-1" d="M1323.52,2367.47h-18.68l-5.34-2.67-58.7-72h-2.67l-18.68,18.68v53.36l-2.67,2.67h-32l-2.67-2.67V2183.37l2.67-2.67h32l2.67,2.67v77.38h2.67l77.38-77.38,5.34-2.67h13.34l2.67,2.67v26.68l-53.36,53.36v2.67l58.7,72v26.68Z"/><path class="cls-1" d="M1318.43,2372.56h-18.68l-5.34-2.67-58.7-72h-2.67l-18.68,18.68v53.36l-2.67,2.67h-32l-2.67-2.67V2188.45l2.67-2.67h32l2.67,2.67v77.38H1217l77.38-77.38,5.34-2.67h13.34l2.67,2.67v26.68l-53.36,53.36v2.67l58.7,72v26.68Z"/><path class="cls-1" d="M1313.35,2377.64h-18.68l-5.34-2.67-58.7-72H1228l-18.68,18.68V2375l-2.67,2.67h-32l-2.67-2.67V2193.54l2.67-2.67h32l2.67,2.67v77.38H1212l77.38-77.38,5.34-2.67H1308l2.67,2.67v26.68l-53.36,53.36v2.67l58.7,72V2375Z"/><path class="cls-1" d="M1308.26,2382.72h-18.68l-5.34-2.67-58.7-72h-2.67l-18.68,18.68v53.36l-2.67,2.67h-32l-2.67-2.67V2198.62l2.67-2.67h32l2.67,2.67V2276h2.67l77.38-77.38,5.34-2.67h13.34l2.67,2.67v26.68l-53.36,53.36v2.67l58.7,72v26.68Z"/><path class="cls-1" d="M1303.18,2387.81H1284.5l-5.34-2.67-58.7-72h-2.67l-18.68,18.68v53.36l-2.67,2.67h-32l-2.67-2.67V2203.71l2.67-2.67h32l2.67,2.67v77.38h2.67l77.38-77.38,5.34-2.67h13.34l2.67,2.67v26.68l-53.36,53.36v2.67l58.7,72v26.68Z"/><path class="cls-1" d="M1298.1,2392.89h-18.68l-5.34-2.67-58.7-72h-2.67L1194,2336.86v53.36l-2.67,2.67h-32l-2.67-2.67V2208.79l2.67-2.67h32l2.67,2.67v77.38h2.67l77.38-77.38,5.34-2.67h13.34l2.67,2.67v26.68l-53.36,53.36v2.67l58.7,72v26.68Z"/><path class="cls-1" d="M1293,2398h-18.68l-5.34-2.67-58.7-72h-2.67L1189,2341.95v53.36l-2.67,2.67h-32l-2.67-2.67V2213.87l2.67-2.67h32l2.67,2.67v77.38h2.67l77.38-77.38,5.34-2.67h13.34l2.67,2.67v26.68L1237,2293.92v2.67l58.7,72v26.68Z"/><path class="cls-1" d="M1287.93,2403.06h-18.68l-5.34-2.67-58.7-72h-2.67L1183.87,2347v53.36l-2.67,2.67h-32l-2.67-2.67V2219l2.67-2.67h32l2.67,2.67v77.38h2.67l77.38-77.38,5.34-2.67h13.34l2.67,2.67v26.68L1231.9,2299v2.67l58.7,72v26.68Z"/><path class="cls-1" d="M1282.84,2408.15h-18.68l-5.34-2.67-58.7-72h-2.67l-18.68,18.68v53.36l-2.67,2.67h-32l-2.67-2.67V2224l2.67-2.67h32l2.67,2.67v77.38h2.67l77.38-77.38,5.34-2.67h13.34l2.67,2.67v26.68l-53.36,53.36v2.67l58.7,72v26.68Z"/><path class="cls-1" d="M1277.76,2413.23h-18.68l-5.34-2.67-58.7-72h-2.67l-18.68,18.68v53.36l-2.67,2.67h-32l-2.67-2.67V2229.13l2.67-2.67h32l2.67,2.67v77.38h2.67l77.38-77.38,5.34-2.67h13.34l2.67,2.67v26.68l-53.36,53.36v2.67l58.7,72v26.68Z"/><path class="cls-1" d="M1272.67,2418.31H1254l-5.34-2.67-58.7-72h-2.67l-18.68,18.68v53.36l-2.67,2.67h-32l-2.67-2.67V2234.21l2.67-2.67h32l2.67,2.67v77.38h2.67l77.38-77.38,5.34-2.67h13.34l2.67,2.67v26.68l-53.36,53.36v2.67l58.7,72v26.68Z"/><path class="cls-1" d="M1267.59,2423.4h-18.68l-5.34-2.67-58.7-72h-2.67l-18.68,18.68v53.36l-2.67,2.67h-32l-2.67-2.67V2239.3l2.67-2.67h32l2.67,2.67v77.38h2.67l77.38-77.38,5.34-2.67h13.34l2.67,2.67V2266l-53.36,53.36V2322l58.7,72v26.68Z"/><path class="cls-1" d="M1262.51,2428.48h-18.68l-5.34-2.67-58.7-72h-2.67l-18.68,18.68v53.36l-2.67,2.67h-32l-2.67-2.67V2244.38l2.67-2.67h32l2.67,2.67v77.38h2.67l77.38-77.38,5.34-2.67h13.34l2.67,2.67v26.68l-53.36,53.36v2.67l58.7,72v26.68Z"/><path class="cls-1" d="M1257.42,2433.57h-18.68l-5.34-2.67-58.7-72H1172l-18.68,18.68v53.36l-2.67,2.67h-32l-2.67-2.67V2249.46l2.67-2.67h32l2.67,2.67v77.38H1156l77.38-77.38,5.34-2.67h13.34l2.67,2.67v26.68l-53.36,53.36v2.67l58.7,72v26.68Z"/><path class="cls-1" d="M1252.34,2438.65h-18.68l-5.34-2.67-58.7-72H1167l-18.68,18.68V2436l-2.67,2.67h-32l-2.67-2.67V2254.55l2.67-2.67h32l2.67,2.67v77.38h2.67l77.38-77.38,5.34-2.67H1247l2.67,2.67v26.68l-53.36,53.36v2.67l58.7,72V2436Z"/><path class="cls-1" d="M1247.25,2443.73h-18.68l-5.34-2.67-58.7-72h-2.67l-18.68,18.68v53.36l-2.67,2.67h-32l-2.67-2.67V2259.63l2.67-2.67h32l2.67,2.67V2337h2.67l77.38-77.38,5.34-2.67h13.34l2.67,2.67v26.68l-53.36,53.36v2.67l58.7,72v26.68Z"/><path class="cls-1" d="M1242.17,2448.82h-18.68l-5.34-2.67-58.7-72h-2.67l-18.68,18.68v53.36l-2.67,2.67h-32l-2.67-2.67V2264.72l2.67-2.67h32l2.67,2.67v77.38h2.67l77.38-77.38,5.34-2.67h13.34l2.67,2.67v26.68l-53.36,53.36v2.67l58.7,72v26.68Z"/><path class="cls-1" d="M1237.09,2453.9h-18.68l-5.34-2.67-58.7-72h-2.67L1133,2397.87v53.36l-2.67,2.67h-32l-2.67-2.67V2269.8l2.67-2.67h32l2.67,2.67v77.38h2.67l77.38-77.38,5.34-2.67h13.34l2.67,2.67v26.68l-53.36,53.36v2.67l58.7,72v26.68Z"/><path class="cls-1" d="M1232,2459h-18.68l-5.34-2.67-58.7-72h-2.67L1127.95,2403v53.36l-2.67,2.67h-32l-2.67-2.67V2274.88l2.67-2.67h32l2.67,2.67v77.38h2.67l77.38-77.38,5.34-2.67h13.34l2.67,2.67v26.68L1176,2354.93v2.67l58.7,72v26.68Z"/><path class="cls-1" d="M1226.92,2464.07h-18.68l-5.34-2.67-58.7-72h-2.67L1122.86,2408v53.36l-2.67,2.67h-32l-2.67-2.67V2280l2.67-2.67h32l2.67,2.67v77.38h2.67l77.38-77.38,5.34-2.67h13.34l2.67,2.67v26.68L1170.89,2360v2.67l58.7,72v26.68Z"/><path class="cls-1" d="M1221.83,2469.15h-18.68l-5.34-2.67-58.7-72h-2.67l-18.68,18.68v53.36l-2.67,2.67h-32l-2.67-2.67V2285.05l2.67-2.67h32l2.67,2.67v77.38h2.67l77.38-77.38,5.34-2.67h13.34l2.67,2.67v26.68l-53.36,53.36v2.67l58.7,72v26.68Z"/><path class="cls-1" d="M1216.75,2474.24h-18.68l-5.34-2.67-58.7-72h-2.67l-18.68,18.68v53.36l-2.67,2.67h-32l-2.67-2.67V2290.14l2.67-2.67h32l2.67,2.67v77.38h2.67l77.38-77.38,5.34-2.67h13.34l2.67,2.67v26.68l-53.36,53.36v2.67l58.7,72v26.68Z"/><path class="cls-1" d="M1211.67,2479.32H1193l-5.34-2.67-58.7-72h-2.67l-18.68,18.68v53.36l-2.67,2.67h-32l-2.67-2.67V2295.22l2.67-2.67h32l2.67,2.67v77.38h2.67l77.38-77.38,5.34-2.67h13.34l2.67,2.67v26.68l-53.36,53.36v2.67l58.7,72v26.68Z"/><path class="cls-1" d="M1206.58,2484.41h-18.68l-5.34-2.67-58.7-72h-2.67l-18.68,18.68v53.36l-2.67,2.67h-32l-2.67-2.67V2300.3l2.67-2.67h32l2.67,2.67v77.38h2.67l77.38-77.38,5.34-2.67h13.34l2.67,2.67V2327l-53.36,53.36V2383l58.7,72v26.68Z"/><path class="cls-1" d="M1201.5,2489.49h-18.68l-5.34-2.67-58.7-72h-2.67l-18.68,18.68v53.36l-2.67,2.67h-32l-2.67-2.67V2305.39l2.67-2.67h32l2.67,2.67v77.38h2.67l77.38-77.38,5.34-2.67h13.34l2.67,2.67v26.68l-53.36,53.36v2.67l58.7,72v26.68Z"/><path class="cls-1" d="M1196.41,2494.58h-18.68l-5.34-2.67-58.7-72H1111l-18.68,18.68v53.36l-2.67,2.67h-32l-2.67-2.67V2310.47l2.67-2.67h32l2.67,2.67v77.38H1095l77.38-77.38,5.34-2.67h13.34l2.67,2.67v26.68l-53.36,53.36v2.67l58.7,72v26.68Z"/><path class="cls-1" d="M1191.33,2499.66h-18.68l-5.34-2.67-58.7-72h-2.67l-18.68,18.68V2497l-2.67,2.67h-32l-2.67-2.67V2315.56l2.67-2.67h32l2.67,2.67v77.38h2.67l77.38-77.38,5.34-2.67H1186l2.67,2.67v26.68l-53.36,53.36v2.67l58.7,72V2497Z"/><path class="cls-1" d="M1186.24,2504.74h-18.68l-5.34-2.67-58.7-72h-2.67l-18.68,18.68v53.36l-2.67,2.67h-32l-2.67-2.67V2320.64l2.67-2.67h32l2.67,2.67V2398h2.67l77.38-77.38,5.34-2.67h13.34l2.67,2.67v26.68l-53.36,53.36v2.67l58.7,72v26.68Z"/><path class="cls-1" d="M1181.16,2509.83h-18.68l-5.34-2.67-58.7-72h-2.67l-18.68,18.68v53.36l-2.67,2.67h-32l-2.67-2.67V2325.73l2.67-2.67h32l2.67,2.67v77.38h2.67l77.38-77.38,5.34-2.67h13.34l2.67,2.67v26.68l-53.36,53.36v2.67l58.7,72v26.68Z"/><path class="cls-1" d="M1176.08,2514.91H1157.4l-5.34-2.67-58.7-72h-2.67L1072,2458.88v53.36l-2.67,2.67h-32l-2.67-2.67V2330.81l2.67-2.67h32l2.67,2.67v77.38h2.67l77.38-77.38,5.34-2.67h13.34l2.67,2.67v26.68L1120,2410.85v2.67l58.7,72v26.68Z"/><path class="cls-1" d="M1171,2520h-18.68l-5.34-2.67-58.7-72h-2.67L1066.94,2464v53.36l-2.67,2.67h-32l-2.67-2.67V2335.89l2.67-2.67h32l2.67,2.67v77.38h2.67l77.38-77.38,5.34-2.67h13.34l2.67,2.67v26.68L1115,2415.94v2.67l58.7,72v26.68Z"/><path class="cls-1" d="M1165.91,2525.08h-18.68l-5.34-2.67-58.7-72h-2.67L1061.85,2469v53.36l-2.67,2.67h-32l-2.67-2.67V2341l2.67-2.67h32l2.67,2.67v77.38h2.67L1141.9,2341l5.34-2.67h13.34l2.67,2.67v26.68L1109.88,2421v2.67l58.7,72v26.68Z"/><path class="cls-1" d="M1160.82,2530.16h-18.68l-5.34-2.67-58.7-72h-2.67l-18.68,18.68v53.36l-2.67,2.67h-32l-2.67-2.67V2346.06l2.67-2.67h32l2.67,2.67v77.38h2.67l77.38-77.38,5.34-2.67h13.34l2.67,2.67v26.68l-53.36,53.36v2.67l58.7,72v26.68Z"/><path class="cls-1" d="M1155.74,2535.25h-18.68l-5.34-2.67-58.7-72h-2.67l-18.68,18.68v53.36l-2.67,2.67h-32l-2.67-2.67V2351.15l2.67-2.67h32l2.67,2.67v77.38h2.67l77.38-77.38,5.34-2.67h13.34l2.67,2.67v26.68l-53.36,53.36v2.67l58.7,72v26.68Z"/><path class="cls-1" d="M1150.66,2540.33H1132l-5.34-2.67-58.7-72h-2.67l-18.68,18.68v53.36l-2.67,2.67h-32l-2.67-2.67V2356.23l2.67-2.67h32l2.67,2.67v77.38h2.67l77.38-77.38,5.34-2.67h13.34l2.67,2.67v26.68l-53.36,53.36v2.67l58.7,72v26.68Z"/><path class="cls-1" d="M1145.57,2545.42H1126.9l-5.34-2.67-58.7-72h-2.67l-18.68,18.68v53.36l-2.67,2.67h-32l-2.67-2.67V2361.31l2.67-2.67h32l2.67,2.67v77.38h2.67l77.38-77.38,5.34-2.67h13.34l2.67,2.67V2388l-53.36,53.36V2444l58.7,72v26.68Z"/><path class="cls-1" d="M1140.49,2550.5h-18.68l-5.34-2.67-58.7-72h-2.67l-18.68,18.68v53.36l-2.67,2.67h-32l-2.67-2.67V2366.4l2.67-2.67h32l2.67,2.67v77.38h2.67l77.38-77.38,5.34-2.67h13.34l2.67,2.67v26.68l-53.36,53.36v2.67l58.7,72v26.68Z"/><path class="cls-1" d="M1135.4,2555.59h-18.68l-5.34-2.67-58.7-72H1050l-18.68,18.68v53.36l-2.67,2.67h-32l-2.67-2.67V2371.48l2.67-2.67h32l2.67,2.67v77.38H1034l77.38-77.38,5.34-2.67h13.34l2.67,2.67v26.68l-53.36,53.36v2.67l58.7,72v26.68Z"/><path class="cls-1" d="M1130.32,2560.67h-18.68l-5.34-2.67-58.7-72h-2.67l-18.68,18.68V2558l-2.67,2.67h-32l-2.67-2.67V2376.57l2.67-2.67h32l2.67,2.67v77.38h2.67l77.38-77.38,5.34-2.67H1125l2.67,2.67v26.68l-53.36,53.36v2.67l58.7,72V2558Z"/><path class="cls-1" d="M1125.23,2565.75h-18.68l-5.34-2.67-58.7-72h-2.67l-18.68,18.68v53.36l-2.67,2.67h-32l-2.67-2.67V2381.65l2.67-2.67h32l2.67,2.67V2459h2.67l77.38-77.38,5.34-2.67h13.34l2.67,2.67v26.68l-53.36,53.36v2.67l58.7,72v26.68Z"/><path class="cls-1" d="M1120.15,2570.84h-18.68l-5.34-2.67-58.7-72h-2.67l-18.68,18.68v53.36l-2.67,2.67h-32l-2.67-2.67V2386.74l2.67-2.67h32l2.67,2.67v77.38h2.67l77.38-77.38,5.34-2.67h13.34l2.67,2.67v26.68l-53.36,53.36v2.67l58.7,72v26.68Z"/><path class="cls-1" d="M1115.07,2575.92h-18.68l-5.34-2.67-58.7-72h-2.67L1011,2519.89v53.36l-2.67,2.67h-32l-2.67-2.67V2391.82l2.67-2.67h32l2.67,2.67v77.38h2.67l77.38-77.38,5.34-2.67h13.34l2.67,2.67v26.68L1059,2471.86v2.67l58.7,72v26.68Z"/><path class="cls-1" d="M1110,2581h-18.68l-5.34-2.67-58.7-72h-2.67L1005.93,2525v53.36l-2.67,2.67h-32l-2.67-2.67V2396.9l2.67-2.67h32l2.67,2.67v77.38h2.67L1086,2396.9l5.34-2.67h13.34l2.67,2.67v26.68L1054,2476.95v2.67l58.7,72v26.68Z"/></g></g></svg>