<svg xmlns="http://www.w3.org/2000/svg" viewBox="0 0 1896 5154.75"><defs><style>.cls-1{fill:#fff;stroke:#862567;stroke-width:3px;}</style></defs><title>Artboard 1</title><g id="Layer_2" data-name="Layer 2"><g id="_Group_" data-name="&lt;Group&gt;"><path class="cls-1" d="M-154.27,1474.37h37.35l5.34,2.67,72,122.74h2.67V1477l2.67-2.67h32L.48,1477v181.43l-2.67,2.67H-39.54l-5.34-2.67-72-122.74h-2.67v122.74l-2.67,2.67h-32l-2.67-2.67V1477Z"/><path class="cls-1" d="M-149.19,1479.45h37.35l5.34,2.67,72,122.74h2.67V1482.12l2.67-2.67h32l2.67,2.67v181.43l-2.67,2.67H-34.46l-5.34-2.67-72-122.74h-2.67v122.74l-2.67,2.67h-32l-2.67-2.67V1482.12Z"/><path class="cls-1" d="M-144.1,1484.54h37.35l5.34,2.67,72,122.74h2.67V1487.21l2.67-2.67H8l2.67,2.67v181.43L8,1671.31H-29.37l-5.34-2.67-72-122.74h-2.67v122.74l-2.67,2.67h-32l-2.67-2.67V1487.21Z"/><path class="cls-1" d="M-139,1489.62h37.35l5.34,2.67,72,122.74h2.67V1492.29l2.67-2.67h32l2.67,2.67v181.43l-2.67,2.67H-24.29l-5.34-2.67-72-122.74h-2.67v122.74l-2.67,2.67h-32l-2.67-2.67V1492.29Z"/><path class="cls-1" d="M-133.93,1494.71h37.35l5.34,2.67,72,122.74h2.67V1497.38l2.67-2.67h32l2.67,2.67v181.43l-2.67,2.67H-19.2l-5.34-2.67-72-122.74h-2.67v122.74l-2.67,2.67h-32l-2.67-2.67V1497.38Z"/><path class="cls-1" d="M-128.85,1499.8h37.35l5.34,2.67,72,122.74h2.67V1502.46l2.67-2.67h32l2.67,2.67V1683.9l-2.67,2.67H-14.12l-5.34-2.67-72-122.74h-2.67V1683.9l-2.67,2.67h-32l-2.67-2.67V1502.46Z"/><path class="cls-1" d="M-123.76,1504.88h37.35l5.34,2.67,72,122.74h2.67V1507.55l2.67-2.67h32l2.67,2.67V1689l-2.67,2.67H-9l-5.34-2.67-72-122.74h-2.67V1689l-2.67,2.67h-32l-2.67-2.67V1507.55Z"/><path class="cls-1" d="M-118.68,1510h37.35l5.34,2.67,72,122.74h2.67V1512.63L1.39,1510h32l2.67,2.67v181.43l-2.67,2.67H-3.95l-5.34-2.67-72-122.74H-84v122.74l-2.67,2.67h-32l-2.67-2.67V1512.63Z"/><path class="cls-1" d="M-113.59,1515.05h37.35l5.34,2.67,72,122.74H3.81V1517.72l2.67-2.67h32l2.67,2.67v181.43l-2.67,2.67H1.14l-5.34-2.67-72-122.74h-2.67v122.74l-2.67,2.67h-32l-2.67-2.67V1517.72Z"/><path class="cls-1" d="M-108.51,1520.14h37.35l5.34,2.67,72,122.74H8.89V1522.8l2.67-2.67h32l2.67,2.67v181.43l-2.67,2.67H6.23l-5.34-2.67-72-122.74h-2.67v122.74l-2.67,2.67h-32l-2.67-2.67V1522.8Z"/><path class="cls-1" d="M-103.42,1525.22h37.35l5.34,2.67,72,122.74H14V1527.89l2.67-2.67h32l2.67,2.67v181.43L48.66,1712H11.31L6,1709.32l-72-122.74h-2.67v122.74L-71.4,1712h-32l-2.67-2.67V1527.89Z"/><path class="cls-1" d="M-98.33,1530.31H-61l5.34,2.67,72,122.74h2.67V1533l2.67-2.67h32l2.67,2.67v181.43l-2.67,2.67H16.4l-5.34-2.67-72-122.74h-2.67v122.74l-2.67,2.67h-32l-2.67-2.67V1533Z"/><path class="cls-1" d="M-93.25,1535.39H-55.9l5.34,2.67,72,122.74h2.67V1538.06l2.67-2.67h32l2.67,2.67v181.43l-2.67,2.67H21.48l-5.34-2.67-72-122.74h-2.67v122.74l-2.67,2.67h-32l-2.67-2.67V1538.06Z"/><path class="cls-1" d="M-88.16,1540.48h37.35l5.34,2.67,72,122.74h2.67V1543.14l2.67-2.67h32l2.67,2.67v181.43l-2.67,2.67H26.57l-5.34-2.67-72-122.74h-2.67v122.74l-2.67,2.67h-32l-2.67-2.67V1543.14Z"/><path class="cls-1" d="M-83.08,1545.56h37.35l5.34,2.67,72,122.74h2.67V1548.23l2.67-2.67H69l2.67,2.67v181.43L69,1732.33H31.65l-5.34-2.67-72-122.74h-2.67v122.74l-2.67,2.67h-32l-2.67-2.67V1548.23Z"/><path class="cls-1" d="M-78,1550.65h37.35l5.34,2.67,72,122.74H39.4V1553.32l2.67-2.67h32l2.67,2.67v181.43l-2.67,2.67H36.74l-5.34-2.67-72-122.74h-2.67v122.74l-2.67,2.67H-78l-2.67-2.67V1553.32Z"/><path class="cls-1" d="M-72.91,1555.73h37.35l5.34,2.67,72,122.74h2.67V1558.4l2.67-2.67h32l2.67,2.67v181.43l-2.67,2.67H41.82l-5.34-2.67-72-122.74h-2.67v122.74l-2.67,2.67h-32l-2.67-2.67V1558.4Z"/><path class="cls-1" d="M-67.82,1560.82h37.35l5.34,2.67,72,122.74h2.67V1563.49l2.67-2.67h32l2.67,2.67v181.43l-2.67,2.67H46.91l-5.34-2.67-72-122.74h-2.67v122.74l-2.67,2.67h-32l-2.67-2.67V1563.49Z"/><path class="cls-1" d="M-62.74,1565.9h37.35l5.34,2.67,72,122.74h2.67V1568.57l2.67-2.67h32l2.67,2.67V1750l-2.67,2.67H52L46.66,1750l-72-122.74h-2.67V1750l-2.67,2.67h-32l-2.67-2.67V1568.57Z"/><path class="cls-1" d="M-57.65,1571H-20.3l5.34,2.67,72,122.74h2.67V1573.66l2.67-2.67h32l2.67,2.67v181.43l-2.67,2.67H57.08l-5.34-2.67-72-122.74H-23v122.74l-2.67,2.67h-32l-2.67-2.67V1573.66Z"/><path class="cls-1" d="M-52.57,1576.07h37.35l5.34,2.67,72,122.74h2.67V1578.74l2.67-2.67h32l2.67,2.67v181.43l-2.67,2.67H62.16l-5.34-2.67-72-122.74h-2.67v122.74l-2.67,2.67h-32l-2.67-2.67V1578.74Z"/><path class="cls-1" d="M-47.48,1581.16h37.35l5.34,2.67,72,122.74h2.67V1583.83l2.67-2.67h32l2.67,2.67v181.43l-2.67,2.67H67.25l-5.34-2.67-72-122.74H-12.8v122.74l-2.67,2.67h-32l-2.67-2.67V1583.83Z"/><path class="cls-1" d="M-42.4,1586.24H-5l5.34,2.67,72,122.74H75V1588.91l2.67-2.67h32l2.67,2.67v181.43l-2.67,2.67H72.33L67,1770.35-5,1647.61H-7.71v122.74l-2.67,2.67h-32l-2.67-2.67V1588.91Z"/><path class="cls-1" d="M-37.31,1591.33H0L5.38,1594l72,122.74h2.67V1594l2.67-2.67h32l2.67,2.67v181.43l-2.67,2.67H77.42l-5.34-2.67L0,1652.7H-2.63v122.74l-2.67,2.67h-32l-2.67-2.67V1594Z"/><path class="cls-1" d="M-32.23,1596.41H5.13l5.34,2.67,72,122.74h2.67V1599.08l2.67-2.67h32l2.67,2.67v181.43l-2.67,2.67H82.5l-5.34-2.67-72-122.74H2.46v122.74l-2.67,2.67h-32l-2.67-2.67V1599.08Z"/><path class="cls-1" d="M-27.14,1601.5H10.21l5.34,2.67,72,122.74h2.67V1604.17l2.67-2.67h32l2.67,2.67V1785.6l-2.67,2.67H87.59l-5.34-2.67-72-122.74H7.54V1785.6l-2.67,2.67h-32l-2.67-2.67V1604.17Z"/><path class="cls-1" d="M-22.06,1606.58H15.3l5.34,2.67,72,122.74h2.67V1609.25l2.67-2.67h32l2.67,2.67v181.43l-2.67,2.67H92.67l-5.34-2.67L15.3,1668H12.63v122.74L10,1793.36h-32l-2.67-2.67V1609.25Z"/><path class="cls-1" d="M-17,1611.67H20.38l5.34,2.67,72,122.74h2.67V1614.34l2.67-2.67h32l2.67,2.67v181.43l-2.67,2.67H97.76l-5.34-2.67L20.38,1673H17.71v122.74L15,1798.44H-17l-2.67-2.67V1614.34Z"/><path class="cls-1" d="M-11.89,1616.76H25.47l5.34,2.67,72,122.74h2.67V1619.42l2.67-2.67h32l2.67,2.67v181.43l-2.67,2.67H102.84l-5.34-2.67-72-122.74H22.8v122.74l-2.67,2.67h-32l-2.67-2.67V1619.42Z"/><path class="cls-1" d="M-6.8,1621.84H30.55l5.34,2.67,72,122.74h2.67V1624.51l2.67-2.67h32l2.67,2.67v181.43l-2.67,2.67H107.93l-5.34-2.67-72-122.74H27.88v122.74l-2.67,2.67h-32l-2.67-2.67V1624.51Z"/><path class="cls-1" d="M-1.72,1626.93H35.64l5.34,2.67,72,122.74h2.67V1629.59l2.67-2.67h32l2.67,2.67V1811l-2.67,2.67H113l-5.34-2.67-72-122.74H33V1811l-2.67,2.67h-32L-4.38,1811V1629.59Z"/><path class="cls-1" d="M3.37,1632H40.72l5.34,2.67,72,122.74h2.67V1634.68l2.67-2.67h32l2.67,2.67v181.43l-2.67,2.67H118.1l-5.34-2.67-72-122.74H38.06v122.74l-2.67,2.67h-32L.7,1816.11V1634.68Z"/><path class="cls-1" d="M8.45,1637.1H45.81l5.34,2.67,72,122.74h2.67V1639.76l2.67-2.67h32l2.67,2.67V1821.2l-2.67,2.67H123.19l-5.34-2.67-72-122.74H43.14V1821.2l-2.67,2.67h-32l-2.67-2.67V1639.76Z"/><path class="cls-1" d="M13.54,1642.18H50.89l5.34,2.67,72,122.74h2.67V1644.85l2.67-2.67h32l2.67,2.67v181.43l-2.67,2.67H128.27l-5.34-2.67-72-122.74H48.23v122.74L45.56,1829h-32l-2.67-2.67V1644.85Z"/><path class="cls-1" d="M18.63,1647.27H56l5.34,2.67,72,122.74H136V1649.93l2.67-2.67h32l2.67,2.67v181.43l-2.67,2.67H133.36l-5.34-2.67L56,1708.63H53.31v122.74L50.64,1834h-32L16,1831.37V1649.93Z"/><path class="cls-1" d="M23.71,1652.35H61.06L66.4,1655l72,122.74h2.67V1655l2.67-2.67h32l2.67,2.67v181.43l-2.67,2.67H138.44l-5.34-2.67-72-122.74H58.4v122.74l-2.67,2.67h-32L21,1836.45V1655Z"/><path class="cls-1" d="M28.8,1657.44H66.15l5.34,2.67,72,122.74h2.67V1660.11l2.67-2.67h32l2.67,2.67v181.43l-2.67,2.67H143.53l-5.34-2.67-72-122.74H63.48v122.74l-2.67,2.67h-32l-2.67-2.67V1660.11Z"/><path class="cls-1" d="M33.88,1662.52H71.23l5.34,2.67,72,122.74h2.67V1665.19l2.67-2.67h32l2.67,2.67v181.43l-2.67,2.67H148.61l-5.34-2.67-72-122.74H68.57v122.74l-2.67,2.67h-32l-2.67-2.67V1665.19Z"/><path class="cls-1" d="M39,1667.61H76.32l5.34,2.67,72,122.74h2.67V1670.28l2.67-2.67h32l2.67,2.67v181.43l-2.67,2.67H153.7l-5.34-2.67L76.32,1729H73.65v122.74L71,1854.38H39l-2.67-2.67V1670.28Z"/><path class="cls-1" d="M44.05,1672.69H81.4l5.34,2.67,72,122.74h2.67V1675.36l2.67-2.67h32l2.67,2.67V1856.8l-2.67,2.67H158.78l-5.34-2.67-72-122.74H78.74V1856.8l-2.67,2.67h-32l-2.67-2.67V1675.36Z"/><path class="cls-1" d="M49.14,1677.78H86.49l5.34,2.67,72,122.74h2.67V1680.45l2.67-2.67h32l2.67,2.67v181.43l-2.67,2.67H163.87l-5.34-2.67-72-122.74H83.82v122.74l-2.67,2.67h-32l-2.67-2.67V1680.45Z"/><path class="cls-1" d="M54.22,1682.86H91.58l5.34,2.67,72,122.74h2.67V1685.53l2.67-2.67h32l2.67,2.67V1867l-2.67,2.67H169l-5.34-2.67-72-122.74H88.91V1867l-2.67,2.67h-32L51.55,1867V1685.53Z"/><path class="cls-1" d="M59.31,1687.95H96.66l5.34,2.67,72,122.74h2.67V1690.62l2.67-2.67h32l2.67,2.67v181.43l-2.67,2.67H174l-5.34-2.67-72-122.74H94v122.74l-2.67,2.67h-32l-2.67-2.67V1690.62Z"/><path class="cls-1" d="M64.39,1693h37.35l5.34,2.67,72,122.74h2.67V1695.7l2.67-2.67h32l2.67,2.67v181.43l-2.67,2.67H179.12l-5.34-2.67-72-122.74H99.08v122.74l-2.67,2.67h-32l-2.67-2.67V1695.7Z"/><path class="cls-1" d="M69.48,1698.12h37.35l5.34,2.67,72,122.74h2.67V1700.79l2.67-2.67h32l2.67,2.67v181.43l-2.67,2.67H184.21l-5.34-2.67-72-122.74h-2.67v122.74l-2.67,2.67h-32l-2.67-2.67V1700.79Z"/><path class="cls-1" d="M74.56,1703.2h37.35l5.34,2.67,72,122.74H192V1705.87l2.67-2.67h32l2.67,2.67v181.43l-2.67,2.67H189.29l-5.34-2.67-72-122.74h-2.67v122.74l-2.67,2.67h-32l-2.67-2.67V1705.87Z"/><path class="cls-1" d="M79.65,1708.29H117l5.34,2.67,72,122.74H197V1711l2.67-2.67h32l2.67,2.67v181.43l-2.67,2.67H194.38l-5.34-2.67-72-122.74h-2.67v122.74l-2.67,2.67h-32L77,1892.39V1711Z"/><path class="cls-1" d="M84.73,1713.37h37.35l5.34,2.67,72,122.74h2.67V1716l2.67-2.67h32l2.67,2.67v181.43l-2.67,2.67H199.46l-5.34-2.67-72-122.74h-2.67v122.74l-2.67,2.67h-32l-2.67-2.67V1716Z"/><path class="cls-1" d="M89.82,1718.46h37.35l5.34,2.67,72,122.74h2.67V1721.13l2.67-2.67h32l2.67,2.67v181.43l-2.67,2.67H204.55l-5.34-2.67-72-122.74H124.5v122.74l-2.67,2.67h-32l-2.67-2.67V1721.13Z"/><path class="cls-1" d="M94.9,1723.54h37.35l5.34,2.67,72,122.74h2.67V1726.21l2.67-2.67h32l2.67,2.67v181.43l-2.67,2.67H209.63l-5.34-2.67-72-122.74h-2.67v122.74l-2.67,2.67h-32l-2.67-2.67V1726.21Z"/><path class="cls-1" d="M100,1728.63h37.35l5.34,2.67,72,122.74h2.67V1731.3l2.67-2.67h32l2.67,2.67v181.43l-2.67,2.67H214.72l-5.34-2.67-72-122.74h-2.67v122.74L132,1915.4H100l-2.67-2.67V1731.3Z"/><path class="cls-1" d="M105.07,1733.72h37.35l5.34,2.67,72,122.74h2.67V1736.38l2.67-2.67h32l2.67,2.67v181.43l-2.67,2.67H219.8l-5.34-2.67-72-122.74h-2.67v122.74l-2.67,2.67h-32l-2.67-2.67V1736.38Z"/><path class="cls-1" d="M110.16,1738.8h37.35l5.34,2.67,72,122.74h2.67V1741.47l2.67-2.67h32l2.67,2.67V1922.9l-2.67,2.67H224.89l-5.34-2.67-72-122.74h-2.67V1922.9l-2.67,2.67h-32l-2.67-2.67V1741.47Z"/><path class="cls-1" d="M115.24,1743.89H152.6l5.34,2.67,72,122.74h2.67V1746.55l2.67-2.67h32l2.67,2.67V1928l-2.67,2.67H230l-5.34-2.67-72-122.74h-2.67V1928l-2.67,2.67h-32l-2.67-2.67V1746.55Z"/><path class="cls-1" d="M120.33,1749h37.35l5.34,2.67,72,122.74h2.67V1751.64l2.67-2.67h32l2.67,2.67v181.43l-2.67,2.67H235.06l-5.34-2.67-72-122.74H155v122.74l-2.67,2.67h-32l-2.67-2.67V1751.64Z"/><path class="cls-1" d="M125.41,1754.06h37.35l5.34,2.67,72,122.74h2.67V1756.72l2.67-2.67h32l2.67,2.67v181.43l-2.67,2.67H240.15l-5.34-2.67-72-122.74H160.1v122.74l-2.67,2.67h-32l-2.67-2.67V1756.72Z"/><path class="cls-1" d="M130.5,1759.14h37.35l5.34,2.67,72,122.74h2.67V1761.81l2.67-2.67h32l2.67,2.67v181.43l-2.67,2.67H245.23l-5.34-2.67-72-122.74h-2.67v122.74l-2.67,2.67h-32l-2.67-2.67V1761.81Z"/><path class="cls-1" d="M135.59,1764.23h37.35l5.34,2.67,72,122.74H253V1766.89l2.67-2.67h32l2.67,2.67v181.43l-2.67,2.67H250.32l-5.34-2.67-72-122.74h-2.67v122.74L167.6,1951h-32l-2.67-2.67V1766.89Z"/><path class="cls-1" d="M140.67,1769.31H178l5.34,2.67,72,122.74h2.67V1772l2.67-2.67h32l2.67,2.67v181.43l-2.67,2.67H255.4l-5.34-2.67-72-122.74h-2.67v122.74l-2.67,2.67h-32l-2.67-2.67V1772Z"/><path class="cls-1" d="M145.76,1774.4h37.35l5.34,2.67,72,122.74h2.67V1777.07l2.67-2.67h32l2.67,2.67V1958.5l-2.67,2.67H260.49l-5.34-2.67-72-122.74h-2.67V1958.5l-2.67,2.67h-32l-2.67-2.67V1777.07Z"/><path class="cls-1" d="M150.84,1779.48h37.35l5.34,2.67,72,122.74h2.67V1782.15l2.67-2.67h32l2.67,2.67v181.43l-2.67,2.67H265.57l-5.34-2.67-72-122.74h-2.67v122.74l-2.67,2.67h-32l-2.67-2.67V1782.15Z"/><path class="cls-1" d="M155.93,1784.57h37.35l5.34,2.67,72,122.74h2.67V1787.24l2.67-2.67h32l2.67,2.67v181.43l-2.67,2.67H270.66l-5.34-2.67-72-122.74h-2.67v122.74l-2.67,2.67h-32l-2.67-2.67V1787.24Z"/><path class="cls-1" d="M161,1789.65h37.35l5.34,2.67,72,122.74h2.67V1792.32l2.67-2.67h32l2.67,2.67v181.43l-2.67,2.67H275.74l-5.34-2.67-72-122.74H195.7v122.74l-2.67,2.67H161l-2.67-2.67V1792.32Z"/><path class="cls-1" d="M166.1,1794.74h37.35l5.34,2.67,72,122.74h2.67V1797.41l2.67-2.67h32l2.67,2.67v181.43l-2.67,2.67H280.83l-5.34-2.67-72-122.74h-2.67v122.74l-2.67,2.67h-32l-2.67-2.67V1797.41Z"/><path class="cls-1" d="M171.18,1799.82h37.35l5.34,2.67,72,122.74h2.67V1802.49l2.67-2.67h32l2.67,2.67v181.43l-2.67,2.67H285.91l-5.34-2.67-72-122.74h-2.67v122.74l-2.67,2.67h-32l-2.67-2.67V1802.49Z"/><path class="cls-1" d="M176.27,1804.91h37.35l5.34,2.67,72,122.74h2.67V1807.58l2.67-2.67h32l2.67,2.67V1989l-2.67,2.67H291l-5.34-2.67-72-122.74H211V1989l-2.67,2.67h-32L173.6,1989V1807.58Z"/><path class="cls-1" d="M181.35,1810h37.35l5.34,2.67,72,122.74h2.67V1812.66l2.67-2.67h32l2.67,2.67V1994.1l-2.67,2.67H296.08l-5.34-2.67-72-122.74H216V1994.1l-2.67,2.67h-32l-2.67-2.67V1812.66Z"/><path class="cls-1" d="M186.44,1815.08h37.35l5.34,2.67,72,122.74h2.67V1817.75l2.67-2.67h32l2.67,2.67v181.43l-2.67,2.67H301.17l-5.34-2.67-72-122.74h-2.67v122.74l-2.67,2.67h-32l-2.67-2.67V1817.75Z"/><path class="cls-1" d="M191.52,1820.16h37.35l5.34,2.67,72,122.74h2.67V1822.83l2.67-2.67h32l2.67,2.67v181.43l-2.67,2.67H306.25l-5.34-2.67-72-122.74h-2.67v122.74l-2.67,2.67h-32l-2.67-2.67V1822.83Z"/><path class="cls-1" d="M196.61,1825.25H234l5.34,2.67,72,122.74H314V1827.92l2.67-2.67h32l2.67,2.67v181.43l-2.67,2.67H311.34l-5.34-2.67-72-122.74h-2.67v122.74l-2.67,2.67h-32l-2.67-2.67V1827.92Z"/><path class="cls-1" d="M201.69,1830.33H239l5.34,2.67,72,122.74h2.67V1833l2.67-2.67h32l2.67,2.67v181.43l-2.67,2.67H316.42l-5.34-2.67L239,1891.7h-2.67v122.74l-2.67,2.67h-32l-2.67-2.67V1833Z"/><path class="cls-1" d="M206.78,1835.42h37.35l5.34,2.67,72,122.74h2.67V1838.09l2.67-2.67h32l2.67,2.67v181.43l-2.67,2.67H321.51l-5.34-2.67-72-122.74h-2.67v122.74l-2.67,2.67h-32l-2.67-2.67V1838.09Z"/><path class="cls-1" d="M211.86,1840.5h37.35l5.34,2.67,72,122.74h2.67V1843.17l2.67-2.67h32l2.67,2.67v181.43l-2.67,2.67H326.59l-5.34-2.67-72-122.74h-2.67v122.74l-2.67,2.67h-32l-2.67-2.67V1843.17Z"/><path class="cls-1" d="M216.95,1845.59H254.3l5.34,2.67,72,122.74h2.67V1848.26l2.67-2.67h32l2.67,2.67v181.43l-2.67,2.67H331.68l-5.34-2.67L254.3,1907h-2.67v122.74l-2.67,2.67h-32l-2.67-2.67V1848.26Z"/><path class="cls-1" d="M222,1850.68h37.35l5.34,2.67,72,122.74h2.67V1853.34l2.67-2.67h32l2.67,2.67v181.43l-2.67,2.67H336.76l-5.34-2.67-72-122.74h-2.67v122.74l-2.67,2.67H222l-2.67-2.67V1853.34Z"/><path class="cls-1" d="M227.12,1855.76h37.35l5.34,2.67,72,122.74h2.67V1858.43l2.67-2.67h32l2.67,2.67v181.43l-2.67,2.67H341.85l-5.34-2.67-72-122.74H261.8v122.74l-2.67,2.67h-32l-2.67-2.67V1858.43Z"/><path class="cls-1" d="M232.2,1860.85h37.35l5.34,2.67,72,122.74h2.67V1863.51l2.67-2.67h32l2.67,2.67v181.43l-2.67,2.67H346.94l-5.34-2.67-72-122.74h-2.67v122.74l-2.67,2.67h-32l-2.67-2.67V1863.51Z"/><path class="cls-1" d="M237.29,1865.93h37.35l5.34,2.67,72,122.74h2.67V1868.6l2.67-2.67h32l2.67,2.67V2050l-2.67,2.67H352l-5.34-2.67-72-122.74H272V2050l-2.67,2.67h-32l-2.67-2.67V1868.6Z"/><path class="cls-1" d="M242.38,1871h37.35l5.34,2.67,72,122.74h2.67V1873.68l2.67-2.67h32l2.67,2.67v181.43l-2.67,2.67H357.11l-5.34-2.67-72-122.74h-2.67v122.74l-2.67,2.67h-32l-2.67-2.67V1873.68Z"/><path class="cls-1" d="M247.46,1876.1h37.35l5.34,2.67,72,122.74h2.67V1878.77l2.67-2.67h32l2.67,2.67V2060.2l-2.67,2.67H362.19l-5.34-2.67-72-122.74h-2.67V2060.2l-2.67,2.67h-32l-2.67-2.67V1878.77Z"/><path class="cls-1" d="M252.55,1881.19H289.9l5.34,2.67,72,122.74h2.67V1883.85l2.67-2.67h32l2.67,2.67v181.43l-2.67,2.67H367.28l-5.34-2.67-72-122.74h-2.67v122.74l-2.67,2.67h-32l-2.67-2.67V1883.85Z"/><path class="cls-1" d="M257.63,1886.27H295l5.34,2.67,72,122.74H375V1888.94l2.67-2.67h32l2.67,2.67v181.43l-2.67,2.67H372.36l-5.34-2.67-72-122.74h-2.67v122.74l-2.67,2.67h-32l-2.67-2.67V1888.94Z"/><path class="cls-1" d="M262.72,1891.36h37.35l5.34,2.67,72,122.74h2.67V1894l2.67-2.67h32l2.67,2.67v181.43l-2.67,2.67H377.45l-5.34-2.67-72-122.74H297.4v122.74l-2.67,2.67h-32l-2.67-2.67V1894Z"/><path class="cls-1" d="M267.8,1896.44h37.35l5.34,2.67,72,122.74h2.67V1899.11l2.67-2.67h32l2.67,2.67v181.43l-2.67,2.67H382.53l-5.34-2.67-72-122.74h-2.67v122.74l-2.67,2.67h-32l-2.67-2.67V1899.11Z"/><path class="cls-1" d="M272.89,1901.53h37.35l5.34,2.67,72,122.74h2.67V1904.2l2.67-2.67h32l2.67,2.67v181.43L425,2088.3H387.62l-5.34-2.67-72-122.74h-2.67v122.74l-2.67,2.67h-32l-2.67-2.67V1904.2Z"/><path class="cls-1" d="M278,1906.61h37.35l5.34,2.67,72,122.74h2.67V1909.28l2.67-2.67h32l2.67,2.67v181.43l-2.67,2.67H392.7l-5.34-2.67-72-122.74h-2.67v122.74l-2.67,2.67H278l-2.67-2.67V1909.28Z"/><path class="cls-1" d="M283.06,1911.7h37.35l5.34,2.67,72,122.74h2.67V1914.37l2.67-2.67h32l2.67,2.67V2095.8l-2.67,2.67H397.79l-5.34-2.67-72-122.74h-2.67V2095.8l-2.67,2.67h-32l-2.67-2.67V1914.37Z"/><path class="cls-1" d="M288.14,1916.78H325.5l5.34,2.67,72,122.74h2.67V1919.45l2.67-2.67h32l2.67,2.67v181.43l-2.67,2.67H402.87l-5.34-2.67-72-122.74h-2.67v122.74l-2.67,2.67h-32l-2.67-2.67V1919.45Z"/><path class="cls-1" d="M293.23,1921.87h37.35l5.34,2.67,72,122.74h2.67V1924.54l2.67-2.67h32l2.67,2.67V2106l-2.67,2.67H408l-5.34-2.67-72-122.74h-2.67V2106l-2.67,2.67h-32l-2.67-2.67V1924.54Z"/><path class="cls-1" d="M298.31,1927h37.35l5.34,2.67,72,122.74h2.67V1929.62l2.67-2.67h32l2.67,2.67v181.43l-2.67,2.67H413l-5.34-2.67-72-122.74H333v122.74l-2.67,2.67h-32l-2.67-2.67V1929.62Z"/><path class="cls-1" d="M303.4,1932h37.35l5.34,2.67,72,122.74h2.67V1934.71l2.67-2.67h32l2.67,2.67v181.43l-2.67,2.67H418.13l-5.34-2.67-72-122.74h-2.67v122.74l-2.67,2.67h-32l-2.67-2.67V1934.71Z"/><path class="cls-1" d="M308.48,1937.12h37.35l5.34,2.67,72,122.74h2.67V1939.79l2.67-2.67h32l2.67,2.67v181.43l-2.67,2.67H423.21l-5.34-2.67-72-122.74h-2.67v122.74l-2.67,2.67h-32l-2.67-2.67V1939.79Z"/><path class="cls-1" d="M313.57,1942.21h37.35l5.34,2.67,72,122.74H431V1944.88l2.67-2.67h32l2.67,2.67v181.43l-2.67,2.67H428.3l-5.34-2.67-72-122.74h-2.67v122.74l-2.67,2.67h-32l-2.67-2.67V1944.88Z"/><path class="cls-1" d="M318.65,1947.29H356l5.34,2.67,72,122.74h2.67V1950l2.67-2.67h32l2.67,2.67V2131.4l-2.67,2.67H433.38L428,2131.4l-72-122.74h-2.67V2131.4l-2.67,2.67h-32L316,2131.4V1950Z"/><path class="cls-1" d="M323.74,1952.38h37.35l5.34,2.67,72,122.74h2.67V1955l2.67-2.67h32l2.67,2.67v181.43l-2.67,2.67H438.47l-5.34-2.67-72-122.74h-2.67v122.74l-2.67,2.67h-32l-2.67-2.67V1955Z"/><path class="cls-1" d="M328.82,1957.47h37.35l5.34,2.67,72,122.74h2.67V1960.13l2.67-2.67h32l2.67,2.67v181.43l-2.67,2.67H443.55l-5.34-2.67-72-122.74h-2.67v122.74l-2.67,2.67h-32l-2.67-2.67V1960.13Z"/><path class="cls-1" d="M333.91,1962.55h37.35l5.34,2.67,72,122.74h2.67V1965.22l2.67-2.67h32l2.67,2.67v181.43l-2.67,2.67H448.64l-5.34-2.67-72-122.74h-2.67v122.74l-2.67,2.67h-32l-2.67-2.67V1965.22Z"/><path class="cls-1" d="M339,1967.64h37.35l5.34,2.67,72,122.74h2.67V1970.3l2.67-2.67h32l2.67,2.67v181.43l-2.67,2.67H453.72l-5.34-2.67-72-122.74h-2.67v122.74l-2.67,2.67H339l-2.67-2.67V1970.3Z"/><path class="cls-1" d="M344.08,1972.72h37.35l5.34,2.67,72,122.74h2.67V1975.39l2.67-2.67h32l2.67,2.67v181.43l-2.67,2.67H458.81l-5.34-2.67-72-122.74h-2.67v122.74l-2.67,2.67h-32l-2.67-2.67V1975.39Z"/><path class="cls-1" d="M349.16,1977.81h37.35l5.34,2.67,72,122.74h2.67V1980.47l2.67-2.67h32l2.67,2.67v181.43l-2.67,2.67H463.9l-5.34-2.67-72-122.74h-2.67v122.74l-2.67,2.67h-32l-2.67-2.67V1980.47Z"/><path class="cls-1" d="M354.25,1982.89H391.6l5.34,2.67,72,122.74h2.67V1985.56l2.67-2.67h32l2.67,2.67V2167l-2.67,2.67H469l-5.34-2.67-72-122.74h-2.67V2167l-2.67,2.67h-32l-2.67-2.67V1985.56Z"/><path class="cls-1" d="M359.34,1988h37.35l5.34,2.67,72,122.74h2.67V1990.64l2.67-2.67h32l2.67,2.67v181.43l-2.67,2.67H474.07l-5.34-2.67-72-122.74H394v122.74l-2.67,2.67h-32l-2.67-2.67V1990.64Z"/><path class="cls-1" d="M364.42,1993.06h37.35l5.34,2.67,72,122.74h2.67V1995.73l2.67-2.67h32l2.67,2.67v181.43l-2.67,2.67H479.15l-5.34-2.67-72-122.74h-2.67v122.74l-2.67,2.67h-32l-2.67-2.67V1995.73Z"/><path class="cls-1" d="M369.51,1998.15h37.35l5.34,2.67,72,122.74h2.67V2000.81l2.67-2.67h32l2.67,2.67v181.43l-2.67,2.67H484.24l-5.34-2.67-72-122.74h-2.67v122.74l-2.67,2.67h-32l-2.67-2.67V2000.81Z"/><path class="cls-1" d="M374.59,2003.23h37.35l5.34,2.67,72,122.74H492V2005.9l2.67-2.67h32l2.67,2.67v181.43l-2.67,2.67H489.32l-5.34-2.67-72-122.74h-2.67v122.74l-2.67,2.67h-32l-2.67-2.67V2005.9Z"/><path class="cls-1" d="M379.68,2008.32H417l5.34,2.67,72,122.74h2.67V2011l2.67-2.67h32l2.67,2.67v181.43l-2.67,2.67H494.41l-5.34-2.67-72-122.74h-2.67v122.74l-2.67,2.67h-32l-2.67-2.67V2011Z"/><path class="cls-1" d="M384.76,2013.4h37.35l5.34,2.67,72,122.74h2.67V2016.07l2.67-2.67h32l2.67,2.67V2197.5l-2.67,2.67H499.49l-5.34-2.67-72-122.74h-2.67V2197.5l-2.67,2.67h-32l-2.67-2.67V2016.07Z"/><path class="cls-1" d="M389.85,2018.49H427.2l5.34,2.67,72,122.74h2.67V2021.16l2.67-2.67h32l2.67,2.67v181.43l-2.67,2.67H504.58l-5.34-2.67-72-122.74h-2.67v122.74l-2.67,2.67h-32l-2.67-2.67V2021.16Z"/><path class="cls-1" d="M394.93,2023.57h37.35l5.34,2.67,72,122.74h2.67V2026.24l2.67-2.67h32l2.67,2.67v181.43l-2.67,2.67H509.66l-5.34-2.67-72-122.74h-2.67v122.74l-2.67,2.67h-32l-2.67-2.67V2026.24Z"/><path class="cls-1" d="M400,2028.66h37.35l5.34,2.67,72,122.74h2.67V2031.33l2.67-2.67h32l2.67,2.67v181.43l-2.67,2.67H514.75l-5.34-2.67-72-122.74H434.7v122.74l-2.67,2.67H400l-2.67-2.67V2031.33Z"/><path class="cls-1" d="M405.1,2033.74h37.35l5.34,2.67,72,122.74h2.67V2036.41l2.67-2.67h32l2.67,2.67v181.43l-2.67,2.67H519.83l-5.34-2.67-72-122.74h-2.67v122.74l-2.67,2.67h-32l-2.67-2.67V2036.41Z"/><path class="cls-1" d="M410.19,2038.83h37.35l5.34,2.67,72,122.74h2.67V2041.5l2.67-2.67h32l2.67,2.67v181.43l-2.67,2.67H524.92l-5.34-2.67-72-122.74h-2.67v122.74l-2.67,2.67h-32l-2.67-2.67V2041.5Z"/><path class="cls-1" d="M415.27,2043.91h37.35l5.34,2.67,72,122.74h2.67V2046.58l2.67-2.67h32l2.67,2.67V2228l-2.67,2.67H530l-5.34-2.67-72-122.74H450V2228l-2.67,2.67h-32L412.6,2228V2046.58Z"/><path class="cls-1" d="M420.36,2049h37.35l5.34,2.67,72,122.74h2.67V2051.67l2.67-2.67h32l2.67,2.67V2233.1l-2.67,2.67H535.09l-5.34-2.67-72-122.74H455V2233.1l-2.67,2.67h-32l-2.67-2.67V2051.67Z"/><path class="cls-1" d="M425.44,2054.08H462.8l5.34,2.67,72,122.74h2.67V2056.75l2.67-2.67h32l2.67,2.67v181.43l-2.67,2.67H540.17l-5.34-2.67-72-122.74h-2.67v122.74l-2.67,2.67h-32l-2.67-2.67V2056.75Z"/><path class="cls-1" d="M430.53,2059.17h37.35l5.34,2.67,72,122.74h2.67V2061.84l2.67-2.67h32l2.67,2.67v181.43l-2.67,2.67H545.26l-5.34-2.67-72-122.74h-2.67v122.74l-2.67,2.67h-32l-2.67-2.67V2061.84Z"/><path class="cls-1" d="M435.61,2064.25H473l5.34,2.67,72,122.74H553V2066.92l2.67-2.67h32l2.67,2.67v181.43L587.7,2251H550.34l-5.34-2.67-72-122.74H470.3v122.74l-2.67,2.67h-32l-2.67-2.67V2066.92Z"/><path class="cls-1" d="M440.7,2069.34h37.35l5.34,2.67,72,122.74h2.67V2072l2.67-2.67h32l2.67,2.67v181.43l-2.67,2.67H555.43l-5.34-2.67-72-122.74h-2.67v122.74l-2.67,2.67h-32l-2.67-2.67V2072Z"/><path class="cls-1" d="M445.78,2074.43h37.35l5.34,2.67,72,122.74h2.67V2077.09l2.67-2.67h32l2.67,2.67v181.43l-2.67,2.67H560.51l-5.34-2.67-72-122.74h-2.67v122.74l-2.67,2.67h-32l-2.67-2.67V2077.09Z"/><path class="cls-1" d="M450.87,2079.51h37.35l5.34,2.67,72,122.74h2.67V2082.18l2.67-2.67h32l2.67,2.67v181.43l-2.67,2.67H565.6l-5.34-2.67-72-122.74h-2.67v122.74l-2.67,2.67h-32l-2.67-2.67V2082.18Z"/><path class="cls-1" d="M456,2084.6h37.35l5.34,2.67,72,122.74h2.67V2087.26l2.67-2.67h32l2.67,2.67V2268.7l-2.67,2.67H570.69l-5.34-2.67-72-122.74h-2.67V2268.7l-2.67,2.67H456l-2.67-2.67V2087.26Z"/><path class="cls-1" d="M461,2089.68h37.35l5.34,2.67,72,122.74h2.67V2092.35l2.67-2.67h32l2.67,2.67v181.43l-2.67,2.67H575.77l-5.34-2.67-72-122.74h-2.67v122.74l-2.67,2.67H461l-2.67-2.67V2092.35Z"/><path class="cls-1" d="M466.13,2094.77h37.35l5.34,2.67,72,122.74h2.67V2097.43l2.67-2.67h32l2.67,2.67v181.43l-2.67,2.67H580.86l-5.34-2.67-72-122.74h-2.67v122.74l-2.67,2.67h-32l-2.67-2.67V2097.43Z"/><path class="cls-1" d="M471.21,2099.85h37.35l5.34,2.67,72,122.74h2.67V2102.52l2.67-2.67h32l2.67,2.67V2284l-2.67,2.67H585.94L580.6,2284l-72-122.74H505.9V2284l-2.67,2.67h-32l-2.67-2.67V2102.52Z"/><path class="cls-1" d="M476.3,2104.94h37.35l5.34,2.67,72,122.74h2.67V2107.6l2.67-2.67h32l2.67,2.67V2289l-2.67,2.67H591l-5.34-2.67-72-122.74H511V2289l-2.67,2.67h-32l-2.67-2.67V2107.6Z"/><path class="cls-1" d="M481.38,2110h37.35l5.34,2.67,72,122.74h2.67V2112.69l2.67-2.67h32l2.67,2.67v181.43l-2.67,2.67H596.11l-5.34-2.67-72-122.74h-2.67v122.74l-2.67,2.67h-32l-2.67-2.67V2112.69Z"/><path class="cls-1" d="M486.47,2115.11h37.35l5.34,2.67,72,122.74h2.67V2117.77l2.67-2.67h32l2.67,2.67v181.43l-2.67,2.67H601.2l-5.34-2.67-72-122.74h-2.67v122.74l-2.67,2.67h-32l-2.67-2.67V2117.77Z"/><path class="cls-1" d="M491.55,2120.19H528.9l5.34,2.67,72,122.74h2.67V2122.86l2.67-2.67h32l2.67,2.67v181.43l-2.67,2.67H606.28l-5.34-2.67-72-122.74h-2.67v122.74l-2.67,2.67h-32l-2.67-2.67V2122.86Z"/><path class="cls-1" d="M496.64,2125.28H534l5.34,2.67,72,122.74H614V2127.95l2.67-2.67h32l2.67,2.67v181.43l-2.67,2.67H611.37l-5.34-2.67-72-122.74h-2.67v122.74l-2.67,2.67h-32l-2.67-2.67V2127.95Z"/><path class="cls-1" d="M501.72,2130.36h37.35l5.34,2.67,72,122.74h2.67V2133l2.67-2.67h32l2.67,2.67v181.43l-2.67,2.67H616.45l-5.34-2.67-72-122.74h-2.67v122.74l-2.67,2.67h-32l-2.67-2.67V2133Z"/><path class="cls-1" d="M506.81,2135.45h37.35l5.34,2.67,72,122.74h2.67V2138.12l2.67-2.67h32l2.67,2.67v181.43l-2.67,2.67H621.54l-5.34-2.67-72-122.74h-2.67v122.74l-2.67,2.67h-32l-2.67-2.67V2138.12Z"/><path class="cls-1" d="M511.89,2140.53h37.35l5.34,2.67,72,122.74h2.67V2143.2l2.67-2.67h32l2.67,2.67v181.43L664,2327.3H626.62l-5.34-2.67-72-122.74h-2.67v122.74l-2.67,2.67h-32l-2.67-2.67V2143.2Z"/><path class="cls-1" d="M517,2145.62h37.35l5.34,2.67,72,122.74h2.67V2148.29l2.67-2.67h32l2.67,2.67v181.43l-2.67,2.67H631.71l-5.34-2.67-72-122.74h-2.67v122.74l-2.67,2.67H517l-2.67-2.67V2148.29Z"/><path class="cls-1" d="M522.06,2150.7h37.35l5.34,2.67,72,122.74h2.67V2153.37l2.67-2.67h32l2.67,2.67v181.43l-2.67,2.67H636.79l-5.34-2.67-72-122.74h-2.67v122.74l-2.67,2.67h-32l-2.67-2.67V2153.37Z"/><path class="cls-1" d="M527.15,2155.79H564.5l5.34,2.67,72,122.74h2.67V2158.46l2.67-2.67h32l2.67,2.67v181.43l-2.67,2.67H641.88l-5.34-2.67-72-122.74h-2.67v122.74l-2.67,2.67h-32l-2.67-2.67V2158.46Z"/><path class="cls-1" d="M532.23,2160.87h37.35l5.34,2.67,72,122.74h2.67V2163.54l2.67-2.67h32l2.67,2.67V2345l-2.67,2.67H647l-5.34-2.67-72-122.74h-2.67V2345l-2.67,2.67h-32l-2.67-2.67V2163.54Z"/><path class="cls-1" d="M537.32,2166h37.35l5.34,2.67,72,122.74h2.67V2168.63l2.67-2.67h32l2.67,2.67v181.43l-2.67,2.67H652l-5.34-2.67-72-122.74H572v122.74l-2.67,2.67h-32l-2.67-2.67V2168.63Z"/><path class="cls-1" d="M542.4,2171h37.35l5.34,2.67,72,122.74h2.67V2173.71l2.67-2.67h32l2.67,2.67v181.43l-2.67,2.67H657.13l-5.34-2.67-72-122.74h-2.67v122.74l-2.67,2.67h-32l-2.67-2.67V2173.71Z"/><path class="cls-1" d="M547.49,2176.13h37.35l5.34,2.67,72,122.74h2.67V2178.8l2.67-2.67h32l2.67,2.67v181.43l-2.67,2.67H662.22l-5.34-2.67-72-122.74h-2.67v122.74l-2.67,2.67h-32l-2.67-2.67V2178.8Z"/><path class="cls-1" d="M552.57,2181.21h37.35l5.34,2.67,72,122.74H670V2183.88l2.67-2.67h32l2.67,2.67v181.43l-2.67,2.67H667.3l-5.34-2.67-72-122.74h-2.67v122.74l-2.67,2.67h-32l-2.67-2.67V2183.88Z"/><path class="cls-1" d="M557.66,2186.3H595l5.34,2.67,72,122.74h2.67V2189l2.67-2.67h32l2.67,2.67V2370.4l-2.67,2.67H672.39l-5.34-2.67-72-122.74h-2.67V2370.4l-2.67,2.67h-32L555,2370.4V2189Z"/><path class="cls-1" d="M562.74,2191.39H600.1l5.34,2.67,72,122.74h2.67V2194.05l2.67-2.67h32l2.67,2.67v181.43l-2.67,2.67H677.47l-5.34-2.67-72-122.74h-2.67v122.74l-2.67,2.67h-32l-2.67-2.67V2194.05Z"/><path class="cls-1" d="M567.83,2196.47h37.35l5.34,2.67,72,122.74h2.67V2199.14l2.67-2.67h32l2.67,2.67v181.43l-2.67,2.67H682.56l-5.34-2.67-72-122.74h-2.67v122.74l-2.67,2.67h-32l-2.67-2.67V2199.14Z"/><path class="cls-1" d="M572.91,2201.56h37.35l5.34,2.67,72,122.74h2.67V2204.22l2.67-2.67h32l2.67,2.67v181.43l-2.67,2.67H687.65l-5.34-2.67-72-122.74H607.6v122.74l-2.67,2.67h-32l-2.67-2.67V2204.22Z"/><path class="cls-1" d="M578,2206.64h37.35l5.34,2.67,72,122.74h2.67V2209.31l2.67-2.67h32l2.67,2.67v181.43l-2.67,2.67H692.73l-5.34-2.67-72-122.74h-2.67v122.74l-2.67,2.67H578l-2.67-2.67V2209.31Z"/><path class="cls-1" d="M583.09,2211.73h37.35l5.34,2.67,72,122.74h2.67V2214.39l2.67-2.67h32l2.67,2.67v181.43l-2.67,2.67H697.82l-5.34-2.67-72-122.74h-2.67v122.74l-2.67,2.67h-32l-2.67-2.67V2214.39Z"/><path class="cls-1" d="M588.17,2216.81h37.35l5.34,2.67,72,122.74h2.67V2219.48l2.67-2.67h32l2.67,2.67v181.43l-2.67,2.67H702.9l-5.34-2.67-72-122.74h-2.67v122.74l-2.67,2.67h-32l-2.67-2.67V2219.48Z"/><path class="cls-1" d="M593.26,2221.9h37.35l5.34,2.67,72,122.74h2.67V2224.56l2.67-2.67h32l2.67,2.67V2406l-2.67,2.67H708l-5.34-2.67-72-122.74h-2.67V2406l-2.67,2.67h-32l-2.67-2.67V2224.56Z"/><path class="cls-1" d="M598.34,2227h37.35l5.34,2.67,72,122.74h2.67V2229.65l2.67-2.67h32l2.67,2.67v181.43l-2.67,2.67H713.07l-5.34-2.67-72-122.74H633v122.74l-2.67,2.67h-32l-2.67-2.67V2229.65Z"/><path class="cls-1" d="M603.43,2232.07h37.35l5.34,2.67,72,122.74h2.67V2234.73l2.67-2.67h32l2.67,2.67v181.43l-2.67,2.67H718.16l-5.34-2.67-72-122.74h-2.67v122.74l-2.67,2.67h-32l-2.67-2.67V2234.73Z"/><path class="cls-1" d="M608.51,2237.15h37.35l5.34,2.67,72,122.74h2.67V2239.82l2.67-2.67h32l2.67,2.67v181.43l-2.67,2.67H723.24l-5.34-2.67-72-122.74H643.2v122.74l-2.67,2.67h-32l-2.67-2.67V2239.82Z"/><path class="cls-1" d="M613.6,2242.24H651l5.34,2.67,72,122.74H731V2244.91l2.67-2.67h32l2.67,2.67v181.43l-2.67,2.67H728.33l-5.34-2.67L651,2303.6h-2.67v122.74l-2.67,2.67h-32l-2.67-2.67V2244.91Z"/><path class="cls-1" d="M618.68,2247.32H656l5.34,2.67,72,122.74h2.67V2250l2.67-2.67h32l2.67,2.67v181.43l-2.67,2.67H733.41l-5.34-2.67-72-122.74h-2.67v122.74l-2.67,2.67h-32l-2.67-2.67V2250Z"/><path class="cls-1" d="M623.77,2252.41h37.35l5.34,2.67,72,122.74h2.67V2255.08l2.67-2.67h32l2.67,2.67v181.43l-2.67,2.67H738.5l-5.34-2.67-72-122.74h-2.67v122.74l-2.67,2.67h-32l-2.67-2.67V2255.08Z"/><path class="cls-1" d="M628.85,2257.49h37.35l5.34,2.67,72,122.74h2.67V2260.16l2.67-2.67h32l2.67,2.67V2441.6l-2.67,2.67H743.58l-5.34-2.67-72-122.74h-2.67V2441.6l-2.67,2.67h-32l-2.67-2.67V2260.16Z"/><path class="cls-1" d="M633.94,2262.58h37.35l5.34,2.67,72,122.74h2.67V2265.25l2.67-2.67h32l2.67,2.67v181.43l-2.67,2.67H748.67l-5.34-2.67-72-122.74h-2.67v122.74l-2.67,2.67h-32l-2.67-2.67V2265.25Z"/><path class="cls-1" d="M639,2267.66h37.35l5.34,2.67,72,122.74h2.67V2270.33l2.67-2.67h32l2.67,2.67v181.43l-2.67,2.67H753.75l-5.34-2.67-72-122.74h-2.67v122.74l-2.67,2.67H639l-2.67-2.67V2270.33Z"/><path class="cls-1" d="M644.11,2272.75h37.35l5.34,2.67,72,122.74h2.67V2275.42l2.67-2.67h32l2.67,2.67v181.43l-2.67,2.67H758.84l-5.34-2.67-72-122.74h-2.67v122.74l-2.67,2.67h-32l-2.67-2.67V2275.42Z"/><path class="cls-1" d="M649.19,2277.83h37.35l5.34,2.67,72,122.74h2.67V2280.5l2.67-2.67h32l2.67,2.67v181.43l-2.67,2.67H763.92l-5.34-2.67-72-122.74h-2.67v122.74l-2.67,2.67h-32l-2.67-2.67V2280.5Z"/><path class="cls-1" d="M654.28,2282.92h37.35l5.34,2.67,72,122.74h2.67V2285.59l2.67-2.67h32l2.67,2.67V2467l-2.67,2.67H769l-5.34-2.67-72-122.74H689V2467l-2.67,2.67h-32l-2.67-2.67V2285.59Z"/><path class="cls-1" d="M659.36,2288h37.35l5.34,2.67,72,122.74h2.67V2290.67l2.67-2.67h32l2.67,2.67v181.43l-2.67,2.67H774.09l-5.34-2.67-72-122.74H694v122.74l-2.67,2.67h-32l-2.67-2.67V2290.67Z"/><path class="cls-1" d="M664.45,2293.09H701.8l5.34,2.67,72,122.74h2.67V2295.76l2.67-2.67h32l2.67,2.67v181.43l-2.67,2.67H779.18l-5.34-2.67-72-122.74h-2.67v122.74l-2.67,2.67h-32l-2.67-2.67V2295.76Z"/><path class="cls-1" d="M669.53,2298.17h37.35l5.34,2.67,72,122.74h2.67V2300.84l2.67-2.67h32l2.67,2.67v181.43l-2.67,2.67H784.26l-5.34-2.67-72-122.74h-2.67v122.74l-2.67,2.67h-32l-2.67-2.67V2300.84Z"/><path class="cls-1" d="M674.62,2303.26H712l5.34,2.67,72,122.74H792V2305.93l2.67-2.67h32l2.67,2.67v181.43L826.7,2490H789.35l-5.34-2.67-72-122.74H709.3v122.74l-2.67,2.67h-32l-2.67-2.67V2305.93Z"/><path class="cls-1" d="M679.7,2308.35h37.35l5.34,2.67,72,122.74h2.67V2311l2.67-2.67h32l2.67,2.67v181.43l-2.67,2.67H794.43l-5.34-2.67-72-122.74h-2.67v122.74l-2.67,2.67h-32l-2.67-2.67V2311Z"/><path class="cls-1" d="M684.79,2313.43h37.35l5.34,2.67,72,122.74h2.67V2316.1l2.67-2.67h32l2.67,2.67v181.43l-2.67,2.67H799.52l-5.34-2.67-72-122.74h-2.67v122.74l-2.67,2.67h-32l-2.67-2.67V2316.1Z"/><path class="cls-1" d="M689.87,2318.52h37.35l5.34,2.67,72,122.74h2.67V2321.18l2.67-2.67h32l2.67,2.67v181.43l-2.67,2.67H804.61l-5.34-2.67-72-122.74h-2.67v122.74l-2.67,2.67h-32l-2.67-2.67V2321.18Z"/><path class="cls-1" d="M695,2323.6h37.35l5.34,2.67,72,122.74h2.67V2326.27l2.67-2.67h32l2.67,2.67V2507.7l-2.67,2.67H809.69l-5.34-2.67-72-122.74h-2.67V2507.7l-2.67,2.67H695l-2.67-2.67V2326.27Z"/><path class="cls-1" d="M700,2328.69H737.4l5.34,2.67,72,122.74h2.67V2331.35l2.67-2.67h32l2.67,2.67v181.43l-2.67,2.67H814.78l-5.34-2.67-72-122.74h-2.67v122.74l-2.67,2.67H700l-2.67-2.67V2331.35Z"/><path class="cls-1" d="M705.13,2333.77h37.35l5.34,2.67,72,122.74h2.67V2336.44l2.67-2.67h32l2.67,2.67v181.43l-2.67,2.67H819.86l-5.34-2.67-72-122.74h-2.67v122.74l-2.67,2.67h-32l-2.67-2.67V2336.44Z"/><path class="cls-1" d="M710.22,2338.86h37.35l5.34,2.67,72,122.74h2.67V2341.52l2.67-2.67h32l2.67,2.67V2523l-2.67,2.67H824.95l-5.34-2.67-72-122.74H744.9V2523l-2.67,2.67h-32l-2.67-2.67V2341.52Z"/><path class="cls-1" d="M715.3,2343.94h37.35l5.34,2.67,72,122.74h2.67V2346.61l2.67-2.67h32l2.67,2.67V2528l-2.67,2.67H830l-5.34-2.67-72-122.74H750V2528l-2.67,2.67h-32l-2.67-2.67V2346.61Z"/><path class="cls-1" d="M720.39,2349h37.35l5.34,2.67,72,122.74h2.67V2351.69l2.67-2.67h32l2.67,2.67v181.43l-2.67,2.67H835.12l-5.34-2.67-72-122.74h-2.67v122.74l-2.67,2.67h-32l-2.67-2.67V2351.69Z"/><path class="cls-1" d="M725.47,2354.11h37.35l5.34,2.67,72,122.74h2.67V2356.78l2.67-2.67h32l2.67,2.67v181.43l-2.67,2.67H840.2l-5.34-2.67-72-122.74h-2.67v122.74l-2.67,2.67h-32l-2.67-2.67V2356.78Z"/><path class="cls-1" d="M730.56,2359.2h37.35l5.34,2.67,72,122.74H848V2361.87l2.67-2.67h32l2.67,2.67V2543.3l-2.67,2.67H845.29L840,2543.3l-72-122.74h-2.67V2543.3l-2.67,2.67h-32l-2.67-2.67V2361.87Z"/><path class="cls-1" d="M735.64,2364.28H773l5.34,2.67,72,122.74H853V2367l2.67-2.67h32l2.67,2.67v181.43l-2.67,2.67H850.37l-5.34-2.67-72-122.74h-2.67v122.74l-2.67,2.67h-32l-2.67-2.67V2367Z"/><path class="cls-1" d="M740.73,2369.37h37.35l5.34,2.67,72,122.74h2.67V2372l2.67-2.67h32l2.67,2.67v181.43l-2.67,2.67H855.46l-5.34-2.67-72-122.74h-2.67v122.74l-2.67,2.67h-32l-2.67-2.67V2372Z"/><path class="cls-1" d="M745.81,2374.45h37.35l5.34,2.67,72,122.74h2.67V2377.12l2.67-2.67h32l2.67,2.67v181.43l-2.67,2.67H860.54l-5.34-2.67-72-122.74H780.5v122.74l-2.67,2.67h-32l-2.67-2.67V2377.12Z"/><path class="cls-1" d="M750.9,2379.54h37.35l5.34,2.67,72,122.74h2.67V2382.21l2.67-2.67h32l2.67,2.67v181.43l-2.67,2.67H865.63l-5.34-2.67-72-122.74h-2.67v122.74l-2.67,2.67h-32l-2.67-2.67V2382.21Z"/><path class="cls-1" d="M756,2384.62h37.35l5.34,2.67,72,122.74h2.67V2387.29l2.67-2.67h32l2.67,2.67v181.43l-2.67,2.67H870.71l-5.34-2.67-72-122.74h-2.67v122.74l-2.67,2.67H756l-2.67-2.67V2387.29Z"/><path class="cls-1" d="M761.07,2389.71h37.35l5.34,2.67,72,122.74h2.67V2392.38l2.67-2.67h32l2.67,2.67v181.43l-2.67,2.67H875.8l-5.34-2.67-72-122.74h-2.67v122.74l-2.67,2.67h-32l-2.67-2.67V2392.38Z"/><path class="cls-1" d="M766.15,2394.79h37.35l5.34,2.67,72,122.74h2.67V2397.46l2.67-2.67h32l2.67,2.67V2578.9l-2.67,2.67H880.88l-5.34-2.67-72-122.74h-2.67V2578.9l-2.67,2.67h-32l-2.67-2.67V2397.46Z"/></g></g></svg>