<svg xmlns="http://www.w3.org/2000/svg" viewBox="0 0 1896 5154.75"><defs><style>.cls-1{fill:#fff;stroke:#862567;stroke-width:3px;}</style></defs><title>Artboard 1</title><g id="Layer_2" data-name="Layer 2"><g id="_Group_" data-name="&lt;Group&gt;"><path class="cls-1" d="M1984.23,3183.89v66.7l-2.67,2.67h-32l-2.67-2.67v-66.7l-53.36-88v-26.68l2.67-2.67h18.68l5.34,2.67,42.69,72h5.34l42.69-72,5.34-2.67h18.68l2.67,2.67v26.68Z"/><path class="cls-1" d="M1979.14,3178.79v66.7l-2.67,2.67h-32l-2.67-2.67v-66.7l-53.36-88v-26.68l2.67-2.67h18.68l5.34,2.67,42.69,72h5.34l42.69-72,5.34-2.67h18.68l2.67,2.67v26.68Z"/><path class="cls-1" d="M1974,3173.69v66.7l-2.67,2.67h-32l-2.67-2.67v-66.7l-53.36-88V3059l2.67-2.67h18.68L1910,3059l42.69,72H1958l42.69-72,5.34-2.67h18.68l2.67,2.67v26.68Z"/><path class="cls-1" d="M1968.94,3168.59v66.7l-2.67,2.67h-32l-2.67-2.67v-66.7l-53.36-88v-26.68l2.67-2.67h18.68l5.34,2.67,42.69,72h5.34l42.69-72,5.34-2.67h18.68l2.67,2.67v26.68Z"/><path class="cls-1" d="M1963.84,3163.49v66.7l-2.67,2.67h-32l-2.67-2.67v-66.7l-53.36-88v-26.68l2.67-2.67h18.68l5.34,2.67,42.69,72h5.34l42.69-72,5.34-2.67h18.68l2.67,2.67v26.68Z"/><path class="cls-1" d="M1958.74,3158.4v66.7l-2.67,2.67h-32l-2.67-2.67v-66.7l-53.36-88v-26.68l2.67-2.67h18.68l5.34,2.67,42.69,72h5.34l42.69-72,5.34-2.67h18.68l2.67,2.67v26.68Z"/><path class="cls-1" d="M1953.64,3153.3V3220l-2.67,2.67h-32l-2.67-2.67v-66.7l-53.36-88v-26.68l2.67-2.67h18.68l5.34,2.67,42.69,72h5.34l42.69-72,5.34-2.67h18.68l2.67,2.67v26.68Z"/><path class="cls-1" d="M1948.55,3148.2v66.7l-2.67,2.67h-32l-2.67-2.67v-66.7l-53.36-88v-26.68l2.67-2.67h18.68l5.34,2.67,42.69,72h5.34l42.69-72,5.34-2.67h18.68l2.67,2.67v26.68Z"/><path class="cls-1" d="M1943.45,3143.1v66.7l-2.67,2.67h-32l-2.67-2.67v-66.7l-53.36-88v-26.68l2.67-2.67h18.68l5.34,2.67,42.69,72h5.34l42.69-72,5.34-2.67h18.68l2.67,2.67v26.68Z"/><path class="cls-1" d="M1938.35,3138v66.7l-2.67,2.67h-32l-2.67-2.67V3138l-53.36-88v-26.68l2.67-2.67H1869l5.34,2.67,42.69,72h5.34l42.69-72,5.34-2.67H1989l2.67,2.67V3050Z"/><path class="cls-1" d="M1933.25,3132.9v66.7l-2.67,2.67h-32l-2.67-2.67v-66.7l-53.36-88v-26.68l2.67-2.67h18.68l5.34,2.67,42.69,72h5.34l42.69-72,5.34-2.67h18.68l2.67,2.67v26.68Z"/><path class="cls-1" d="M1928.15,3127.81v66.7l-2.67,2.67h-32l-2.67-2.67v-66.7l-53.36-88v-26.68l2.67-2.67h18.68l5.34,2.67,42.69,72h5.34l42.69-72,5.34-2.67h18.68l2.67,2.67v26.68Z"/><path class="cls-1" d="M1923.05,3122.71v66.7l-2.67,2.67h-32l-2.67-2.67v-66.7l-53.36-88V3008l2.67-2.67h18.68L1859,3008l42.69,72H1907l42.69-72,5.34-2.67h18.68l2.67,2.67v26.68Z"/><path class="cls-1" d="M1918,3117.61v66.7l-2.67,2.67h-32l-2.67-2.67v-66.7l-53.36-88v-26.68l2.67-2.67h18.68l5.34,2.67,42.69,72h5.34l42.69-72,5.34-2.67h18.68l2.67,2.67v26.68Z"/><path class="cls-1" d="M1912.86,3112.51v66.7l-2.67,2.67h-32l-2.67-2.67v-66.7l-53.36-88v-26.68l2.67-2.67h18.68l5.34,2.67,42.69,72h5.34l42.69-72,5.34-2.67h18.68l2.67,2.67v26.68Z"/><path class="cls-1" d="M1907.76,3107.41v66.7l-2.67,2.67h-32l-2.67-2.67v-66.7l-53.36-88v-26.68l2.67-2.67h18.68l5.34,2.67,42.69,72h5.34l42.69-72,5.34-2.67h18.68l2.67,2.67v26.68Z"/><path class="cls-1" d="M1902.66,3102.31V3169l-2.67,2.67h-32l-2.67-2.67v-66.7l-53.36-88v-26.68l2.67-2.67h18.68l5.34,2.67,42.69,72h5.34l42.69-72,5.34-2.67h18.68l2.67,2.67v26.68Z"/><path class="cls-1" d="M1897.56,3097.22v66.7l-2.67,2.67h-32l-2.67-2.67v-66.7l-53.36-88v-26.68l2.67-2.67h18.68l5.34,2.67,42.69,72h5.34l42.69-72,5.34-2.67h18.68l2.67,2.67v26.68Z"/><path class="cls-1" d="M1892.46,3092.12v66.7l-2.67,2.67h-32l-2.67-2.67v-66.7l-53.36-88v-26.68l2.67-2.67h18.68l5.34,2.67,42.69,72h5.34l42.69-72,5.34-2.67h18.68l2.67,2.67v26.68Z"/><path class="cls-1" d="M1887.37,3087v66.7l-2.67,2.67h-32l-2.67-2.67V3087l-53.36-88v-26.68l2.67-2.67H1818l5.34,2.67,42.69,72h5.34l42.69-72,5.34-2.67h18.68l2.67,2.67V2999Z"/><path class="cls-1" d="M1882.27,3081.92v66.7l-2.67,2.67h-32l-2.67-2.67v-66.7l-53.36-88v-26.68l2.67-2.67h18.68l5.34,2.67,42.69,72h5.34l42.69-72,5.34-2.67H1933l2.67,2.67v26.68Z"/><path class="cls-1" d="M1877.17,3076.82v66.7l-2.67,2.67h-32l-2.67-2.67v-66.7l-53.36-88v-26.68l2.67-2.67h18.68l5.34,2.67,42.69,72h5.34l42.69-72,5.34-2.67h18.68l2.67,2.67v26.68Z"/><path class="cls-1" d="M1872.07,3071.72v66.7l-2.67,2.67h-32l-2.67-2.67v-66.7l-53.36-88V2957l2.67-2.67h18.68L1808,2957l42.69,72h5.34l42.69-72,5.34-2.67h18.68l2.67,2.67v26.68Z"/><path class="cls-1" d="M1867,3066.63v66.7l-2.67,2.67h-32l-2.67-2.67v-66.7l-53.36-88V2951.9l2.67-2.67h18.68l5.34,2.67,42.69,72H1851l42.69-72,5.34-2.67h18.68l2.67,2.67v26.68Z"/><path class="cls-1" d="M1861.87,3061.53v66.7l-2.67,2.67h-32l-2.67-2.67v-66.7l-53.36-88V2946.8l2.67-2.67h18.68l5.34,2.67,42.69,72h5.34l42.69-72,5.34-2.67h18.68l2.67,2.67v26.68Z"/><path class="cls-1" d="M1856.78,3056.43v66.7l-2.67,2.67h-32l-2.67-2.67v-66.7l-53.36-88V2941.7l2.67-2.67h18.68l5.34,2.67,42.69,72h5.34l42.69-72,5.34-2.67h18.68l2.67,2.67v26.68Z"/><path class="cls-1" d="M1851.68,3051.33V3118l-2.67,2.67h-32l-2.67-2.67v-66.7l-53.36-88V2936.6l2.67-2.67h18.68l5.34,2.67,42.69,72h5.34l42.69-72,5.34-2.67h18.68l2.67,2.67v26.68Z"/><path class="cls-1" d="M1846.58,3046.23v66.7l-2.67,2.67h-32l-2.67-2.67v-66.7l-53.36-88V2931.5l2.67-2.67h18.68l5.34,2.67,42.69,72h5.34l42.69-72,5.34-2.67h18.68l2.67,2.67v26.68Z"/><path class="cls-1" d="M1841.48,3041.13v66.7l-2.67,2.67h-32l-2.67-2.67v-66.7l-53.36-88V2926.4l2.67-2.67h18.68l5.34,2.67,42.69,72h5.34l42.69-72,5.34-2.67h18.68l2.67,2.67v26.68Z"/><path class="cls-1" d="M1836.38,3036v66.7l-2.67,2.67h-32l-2.67-2.67V3036l-53.36-88v-26.68l2.67-2.67H1767l5.34,2.67,42.69,72h5.34l42.69-72,5.34-2.67h18.68l2.67,2.67V2948Z"/><path class="cls-1" d="M1831.28,3030.94v66.7l-2.67,2.67h-32l-2.67-2.67v-66.7l-53.36-88v-26.68l2.67-2.67h18.68l5.34,2.67,42.69,72h5.34l42.69-72,5.34-2.67H1882l2.67,2.67v26.68Z"/><path class="cls-1" d="M1826.19,3025.84v66.7l-2.67,2.67h-32l-2.67-2.67v-66.7l-53.36-88v-26.68l2.67-2.67h18.68l5.34,2.67,42.69,72h5.34l42.69-72,5.34-2.67h18.68l2.67,2.67v26.68Z"/><path class="cls-1" d="M1821.09,3020.74v66.7l-2.67,2.67h-32l-2.67-2.67v-66.7l-53.36-88V2906l2.67-2.67h18.68l5.34,2.67,42.69,72h5.34l42.69-72,5.34-2.67h18.68l2.67,2.67v26.68Z"/><path class="cls-1" d="M1816,3015.64v66.7l-2.67,2.67h-32l-2.67-2.67v-66.7l-53.36-88v-26.68l2.67-2.67h18.68l5.34,2.67,42.69,72H1800l42.69-72,5.34-2.67h18.68l2.67,2.67v26.68Z"/><path class="cls-1" d="M1810.89,3010.54v66.7l-2.67,2.67h-32l-2.67-2.67v-66.7l-53.36-88v-26.68l2.67-2.67h18.68l5.34,2.67,42.69,72h5.34l42.69-72,5.34-2.67h18.68l2.67,2.67v26.68Z"/><path class="cls-1" d="M1805.79,3005.45v66.7l-2.67,2.67h-32l-2.67-2.67v-66.7l-53.36-88v-26.68l2.67-2.67h18.68l5.34,2.67,42.69,72h5.34l42.69-72,5.34-2.67h18.68l2.67,2.67v26.68Z"/><path class="cls-1" d="M1800.69,3000.35v66.7l-2.67,2.67h-32l-2.67-2.67v-66.7l-53.36-88v-26.68l2.67-2.67h18.68l5.34,2.67,42.69,72h5.34l42.69-72,5.34-2.67h18.68l2.67,2.67v26.68Z"/><path class="cls-1" d="M1795.6,2995.25V3062l-2.67,2.67h-32l-2.67-2.67v-66.7l-53.36-88v-26.68l2.67-2.67h18.68l5.34,2.67,42.69,72h5.34l42.69-72,5.34-2.67h18.68l2.67,2.67v26.68Z"/><path class="cls-1" d="M1790.5,2990.15v66.7l-2.67,2.67h-32l-2.67-2.67v-66.7l-53.36-88v-26.68l2.67-2.67h18.68l5.34,2.67,42.69,72h5.34l42.69-72,5.34-2.67h18.68l2.67,2.67v26.68Z"/><path class="cls-1" d="M1785.4,2985.05v66.7l-2.67,2.67h-32l-2.67-2.67v-66.7l-53.36-88v-26.68l2.67-2.67H1716l5.34,2.67,42.69,72h5.34l42.69-72,5.34-2.67h18.68l2.67,2.67V2897Z"/><path class="cls-1" d="M1780.3,2980v66.7l-2.67,2.67h-32l-2.67-2.67V2980l-53.36-88v-26.68l2.67-2.67h18.68l5.34,2.67,42.69,72h5.34l42.69-72,5.34-2.67H1831l2.67,2.67v26.68Z"/><path class="cls-1" d="M1775.2,2974.86v66.7l-2.67,2.67h-32l-2.67-2.67v-66.7l-53.36-88v-26.68l2.67-2.67h18.68l5.34,2.67,42.69,72h5.34l42.69-72,5.34-2.67h18.68l2.67,2.67v26.68Z"/><path class="cls-1" d="M1770.11,2969.76v66.7l-2.67,2.67h-32l-2.67-2.67v-66.7l-53.36-88V2855l2.67-2.67h18.68l5.34,2.67,42.69,72h5.34l42.69-72,5.34-2.67h18.68l2.67,2.67v26.68Z"/><path class="cls-1" d="M1765,2964.66v66.7l-2.67,2.67h-32l-2.67-2.67v-66.7l-53.36-88v-26.68l2.67-2.67h18.68l5.34,2.67,42.69,72H1749l42.69-72,5.34-2.67h18.68l2.67,2.67v26.68Z"/><path class="cls-1" d="M1759.91,2959.56v66.7l-2.67,2.67h-32l-2.67-2.67v-66.7l-53.36-88v-26.68l2.67-2.67h18.68l5.34,2.67,42.69,72h5.34l42.69-72,5.34-2.67h18.68l2.67,2.67v26.68Z"/><path class="cls-1" d="M1754.81,2954.46v66.7l-2.67,2.67h-32l-2.67-2.67v-66.7l-53.36-88v-26.68l2.67-2.67h18.68l5.34,2.67,42.69,72h5.34l42.69-72,5.34-2.67h18.68l2.67,2.67v26.68Z"/><path class="cls-1" d="M1749.71,2949.36v66.7l-2.67,2.67h-32l-2.67-2.67v-66.7l-53.36-88v-26.68l2.67-2.67h18.68l5.34,2.67,42.69,72h5.34l42.69-72,5.34-2.67h18.68l2.67,2.67v26.68Z"/><path class="cls-1" d="M1744.61,2944.27V3011l-2.67,2.67h-32l-2.67-2.67v-66.7l-53.36-88v-26.68l2.67-2.67h18.68l5.34,2.67,42.69,72h5.34l42.69-72,5.34-2.67h18.68l2.67,2.67v26.68Z"/><path class="cls-1" d="M1739.52,2939.17v66.7l-2.67,2.67h-32l-2.67-2.67v-66.7l-53.36-88v-26.68l2.67-2.67h18.68l5.34,2.67,42.69,72h5.34l42.69-72,5.34-2.67h18.68l2.67,2.67v26.68Z"/><path class="cls-1" d="M1734.42,2934.07v66.7l-2.67,2.67h-32l-2.67-2.67v-66.7l-53.36-88v-26.68l2.67-2.67H1665l5.34,2.67,42.69,72h5.34l42.69-72,5.34-2.67h18.68l2.67,2.67V2846Z"/><path class="cls-1" d="M1729.32,2929v66.7l-2.67,2.67h-32l-2.67-2.67V2929l-53.36-88v-26.68l2.67-2.67h18.68l5.34,2.67,42.69,72h5.34l42.69-72,5.34-2.67H1780l2.67,2.67v26.68Z"/><path class="cls-1" d="M1724.22,2923.87v66.7l-2.67,2.67h-32l-2.67-2.67v-66.7l-53.36-88v-26.68l2.67-2.67h18.68l5.34,2.67,42.69,72h5.34l42.69-72,5.34-2.67h18.68l2.67,2.67v26.68Z"/><path class="cls-1" d="M1719.12,2918.77v66.7l-2.67,2.67h-32l-2.67-2.67v-66.7l-53.36-88V2804l2.67-2.67h18.68l5.34,2.67,42.69,72h5.34l42.69-72,5.34-2.67h18.68l2.67,2.67v26.68Z"/><path class="cls-1" d="M1714,2913.68v66.7l-2.67,2.67h-32l-2.67-2.67v-66.7l-53.36-88v-26.68l2.67-2.67h18.68l5.34,2.67,42.69,72H1698l42.69-72,5.34-2.67h18.68l2.67,2.67v26.68Z"/><path class="cls-1" d="M1708.93,2908.58v66.7l-2.67,2.67h-32l-2.67-2.67v-66.7l-53.36-88v-26.68l2.67-2.67h18.68l5.34,2.67,42.69,72h5.34l42.69-72,5.34-2.67h18.68l2.67,2.67v26.68Z"/><path class="cls-1" d="M1703.83,2903.48v66.7l-2.67,2.67h-32l-2.67-2.67v-66.7l-53.36-88v-26.68l2.67-2.67h18.68l5.34,2.67,42.69,72h5.34l42.69-72,5.34-2.67h18.68l2.67,2.67v26.68Z"/><path class="cls-1" d="M1698.73,2898.38v66.7l-2.67,2.67h-32l-2.67-2.67v-66.7l-53.36-88v-26.68l2.67-2.67h18.68l5.34,2.67,42.69,72h5.34l42.69-72,5.34-2.67h18.68l2.67,2.67v26.68Z"/><path class="cls-1" d="M1693.63,2893.28V2960l-2.67,2.67h-32l-2.67-2.67v-66.7l-53.36-88v-26.68l2.67-2.67h18.68l5.34,2.67,42.69,72h5.34l42.69-72,5.34-2.67h18.68l2.67,2.67v26.68Z"/><path class="cls-1" d="M1688.53,2888.18v66.7l-2.67,2.67h-32l-2.67-2.67v-66.7l-53.36-88v-26.68l2.67-2.67h18.68l5.34,2.67,42.69,72h5.34l42.69-72,5.34-2.67h18.68l2.67,2.67v26.68Z"/><path class="cls-1" d="M1683.43,2883.09v66.7l-2.67,2.67h-32l-2.67-2.67v-66.7l-53.36-88v-26.68l2.67-2.67h18.68l5.34,2.67,42.69,72h5.34l42.69-72,5.34-2.67h18.68l2.67,2.67V2795Z"/><path class="cls-1" d="M1678.34,2878v66.7l-2.67,2.67h-32l-2.67-2.67V2878l-53.36-88v-26.68l2.67-2.67H1609l5.34,2.67,42.69,72h5.34l42.69-72,5.34-2.67H1729l2.67,2.67v26.68Z"/><path class="cls-1" d="M1673.24,2872.89v66.7l-2.67,2.67h-32l-2.67-2.67v-66.7l-53.36-88v-26.68l2.67-2.67h18.68l5.34,2.67,42.69,72h5.34l42.69-72,5.34-2.67h18.68l2.67,2.67v26.68Z"/><path class="cls-1" d="M1668.14,2867.79v66.7l-2.67,2.67h-32l-2.67-2.67v-66.7l-53.36-88v-26.68l2.67-2.67h18.68l5.34,2.67,42.69,72h5.34l42.69-72,5.34-2.67h18.68l2.67,2.67v26.68Z"/><path class="cls-1" d="M1663,2862.69v66.7l-2.67,2.67h-32l-2.67-2.67v-66.7l-53.36-88V2748l2.67-2.67h18.68L1599,2748l42.69,72H1647l42.69-72,5.34-2.67h18.68l2.67,2.67v26.68Z"/><path class="cls-1" d="M1657.94,2857.59v66.7l-2.67,2.67h-32l-2.67-2.67v-66.7l-53.36-88v-26.68l2.67-2.67h18.68l5.34,2.67,42.69,72h5.34l42.69-72,5.34-2.67h18.68l2.67,2.67v26.68Z"/><path class="cls-1" d="M1652.84,2852.5v66.7l-2.67,2.67h-32l-2.67-2.67v-66.7l-53.36-88v-26.68l2.67-2.67h18.68l5.34,2.67,42.69,72h5.34l42.69-72,5.34-2.67h18.68l2.67,2.67v26.68Z"/><path class="cls-1" d="M1647.75,2847.4v66.7l-2.67,2.67h-32l-2.67-2.67v-66.7l-53.36-88v-26.68l2.67-2.67h18.68l5.34,2.67,42.69,72h5.34l42.69-72,5.34-2.67h18.68l2.67,2.67v26.68Z"/><path class="cls-1" d="M1642.65,2842.3V2909l-2.67,2.67h-32l-2.67-2.67v-66.7l-53.36-88v-26.68l2.67-2.67h18.68l5.34,2.67,42.69,72h5.34l42.69-72,5.34-2.67h18.68l2.67,2.67v26.68Z"/><path class="cls-1" d="M1637.55,2837.2v66.7l-2.67,2.67h-32l-2.67-2.67v-66.7l-53.36-88v-26.68l2.67-2.67h18.68l5.34,2.67,42.69,72h5.34l42.69-72,5.34-2.67h18.68l2.67,2.67v26.68Z"/><path class="cls-1" d="M1632.45,2832.1v66.7l-2.67,2.67h-32l-2.67-2.67v-66.7l-53.36-88v-26.68l2.67-2.67h18.68l5.34,2.67,42.69,72h5.34l42.69-72,5.34-2.67h18.68l2.67,2.67v26.68Z"/><path class="cls-1" d="M1627.35,2827v66.7l-2.67,2.67h-32l-2.67-2.67V2827l-53.36-88v-26.68l2.67-2.67H1558l5.34,2.67,42.69,72h5.34l42.69-72,5.34-2.67H1678l2.67,2.67V2739Z"/><path class="cls-1" d="M1622.25,2821.91v66.7l-2.67,2.67h-32l-2.67-2.67v-66.7l-53.36-88v-26.68l2.67-2.67h18.68l5.34,2.67,42.69,72h5.34l42.69-72,5.34-2.67h18.68l2.67,2.67v26.68Z"/><path class="cls-1" d="M1617.16,2816.81v66.7l-2.67,2.67h-32l-2.67-2.67v-66.7l-53.36-88v-26.68l2.67-2.67h18.68l5.34,2.67,42.69,72h5.34l42.69-72,5.34-2.67h18.68l2.67,2.67v26.68Z"/><path class="cls-1" d="M1612.06,2811.71v66.7l-2.67,2.67h-32l-2.67-2.67v-66.7l-53.36-88V2697l2.67-2.67h18.68L1548,2697l42.69,72H1596l42.69-72,5.34-2.67h18.68l2.67,2.67v26.68Z"/><path class="cls-1" d="M1607,2806.61v66.7l-2.67,2.67h-32l-2.67-2.67v-66.7l-53.36-88v-26.68l2.67-2.67h18.68l5.34,2.67,42.69,72H1591l42.69-72,5.34-2.67h18.68l2.67,2.67v26.68Z"/><path class="cls-1" d="M1601.86,2801.51v66.7l-2.67,2.67h-32l-2.67-2.67v-66.7l-53.36-88v-26.68l2.67-2.67h18.68l5.34,2.67,42.69,72h5.34l42.69-72,5.34-2.67h18.68l2.67,2.67v26.68Z"/><path class="cls-1" d="M1596.76,2796.41v66.7l-2.67,2.67h-32l-2.67-2.67v-66.7l-53.36-88v-26.68l2.67-2.67h18.68l5.34,2.67,42.69,72h5.34l42.69-72,5.34-2.67h18.68l2.67,2.67v26.68Z"/><path class="cls-1" d="M1591.66,2791.32V2858l-2.67,2.67h-32l-2.67-2.67v-66.7l-53.36-88v-26.68l2.67-2.67h18.68l5.34,2.67,42.69,72h5.34l42.69-72,5.34-2.67h18.68l2.67,2.67v26.68Z"/><path class="cls-1" d="M1586.57,2786.22v66.7l-2.67,2.67h-32l-2.67-2.67v-66.7l-53.36-88v-26.68l2.67-2.67h18.68l5.34,2.67,42.69,72h5.34l42.69-72,5.34-2.67h18.68l2.67,2.67v26.68Z"/><path class="cls-1" d="M1581.47,2781.12v66.7l-2.67,2.67h-32l-2.67-2.67v-66.7l-53.36-88v-26.68l2.67-2.67h18.68l5.34,2.67,42.69,72h5.34l42.69-72,5.34-2.67h18.68l2.67,2.67v26.68Z"/><path class="cls-1" d="M1576.37,2776v66.7l-2.67,2.67h-32l-2.67-2.67V2776l-53.36-88v-26.68l2.67-2.67H1507l5.34,2.67,42.69,72h5.34l42.69-72,5.34-2.67h18.68l2.67,2.67V2688Z"/><path class="cls-1" d="M1571.27,2770.92v66.7l-2.67,2.67h-32l-2.67-2.67v-66.7l-53.36-88v-26.68l2.67-2.67h18.68l5.34,2.67,42.69,72h5.34l42.69-72,5.34-2.67H1622l2.67,2.67v26.68Z"/><path class="cls-1" d="M1566.17,2765.82v66.7l-2.67,2.67h-32l-2.67-2.67v-66.7l-53.36-88v-26.68l2.67-2.67h18.68l5.34,2.67,42.69,72h5.34l42.69-72,5.34-2.67h18.68l2.67,2.67v26.68Z"/><path class="cls-1" d="M1561.07,2760.73v66.7l-2.67,2.67h-32l-2.67-2.67v-66.7l-53.36-88V2646l2.67-2.67h18.68L1497,2646l42.69,72h5.34l42.69-72,5.34-2.67h18.68l2.67,2.67v26.68Z"/><path class="cls-1" d="M1556,2755.63v66.7l-2.67,2.67h-32l-2.67-2.67v-66.7l-53.36-88V2640.9l2.67-2.67h18.68l5.34,2.67,42.69,72H1540l42.69-72,5.34-2.67h18.68l2.67,2.67v26.68Z"/><path class="cls-1" d="M1550.88,2750.53v66.7l-2.67,2.67h-32l-2.67-2.67v-66.7l-53.36-88V2635.8l2.67-2.67h18.68l5.34,2.67,42.69,72h5.34l42.69-72,5.34-2.67h18.68l2.67,2.67v26.68Z"/><path class="cls-1" d="M1545.78,2745.43v66.7l-2.67,2.67h-32l-2.67-2.67v-66.7l-53.36-88V2630.7l2.67-2.67h18.68l5.34,2.67,42.69,72h5.34l42.69-72,5.34-2.67h18.68l2.67,2.67v26.68Z"/><path class="cls-1" d="M1540.68,2740.33V2807l-2.67,2.67h-32l-2.67-2.67v-66.7l-53.36-88V2625.6l2.67-2.67h18.68l5.34,2.67,42.69,72h5.34l42.69-72,5.34-2.67h18.68l2.67,2.67v26.68Z"/><path class="cls-1" d="M1535.58,2735.23v66.7l-2.67,2.67h-32l-2.67-2.67v-66.7l-53.36-88V2620.5l2.67-2.67h18.68l5.34,2.67,42.69,72h5.34l42.69-72,5.34-2.67h18.68l2.67,2.67v26.68Z"/><path class="cls-1" d="M1530.48,2730.14v66.7l-2.67,2.67h-32l-2.67-2.67v-66.7l-53.36-88v-26.68l2.67-2.67h18.68l5.34,2.67,42.69,72h5.34l42.69-72,5.34-2.67h18.68l2.67,2.67v26.68Z"/><path class="cls-1" d="M1525.39,2725v66.7l-2.67,2.67h-32l-2.67-2.67V2725l-53.36-88v-26.68l2.67-2.67H1456l5.34,2.67,42.69,72h5.34l42.69-72,5.34-2.67h18.68l2.67,2.67V2637Z"/><path class="cls-1" d="M1520.29,2719.94v66.7l-2.67,2.67h-32l-2.67-2.67v-66.7l-53.36-88v-26.68l2.67-2.67h18.68l5.34,2.67,42.69,72h5.34l42.69-72,5.34-2.67H1571l2.67,2.67v26.68Z"/><path class="cls-1" d="M1515.19,2714.84v66.7l-2.67,2.67h-32l-2.67-2.67v-66.7l-53.36-88v-26.68l2.67-2.67h18.68l5.34,2.67,42.69,72h5.34l42.69-72,5.34-2.67h18.68l2.67,2.67v26.68Z"/><path class="cls-1" d="M1510.09,2709.74v66.7l-2.67,2.67h-32l-2.67-2.67v-66.7l-53.36-88V2595l2.67-2.67h18.68l5.34,2.67,42.69,72h5.34l42.69-72,5.34-2.67h18.68l2.67,2.67v26.68Z"/><path class="cls-1" d="M1505,2704.64v66.7l-2.67,2.67h-32l-2.67-2.67v-66.7l-53.36-88v-26.68l2.67-2.67h18.68l5.34,2.67,42.69,72H1489l42.69-72,5.34-2.67h18.68l2.67,2.67v26.68Z"/><path class="cls-1" d="M1499.89,2699.55v66.7l-2.67,2.67h-32l-2.67-2.67v-66.7l-53.36-88v-26.68l2.67-2.67h18.68l5.34,2.67,42.69,72h5.34l42.69-72,5.34-2.67h18.68l2.67,2.67v26.68Z"/><path class="cls-1" d="M1494.8,2694.45v66.7l-2.67,2.67h-32l-2.67-2.67v-66.7l-53.36-88v-26.68l2.67-2.67h18.68l5.34,2.67,42.69,72h5.34l42.69-72,5.34-2.67h18.68l2.67,2.67v26.68Z"/><path class="cls-1" d="M1489.7,2689.35v66.7l-2.67,2.67h-32l-2.67-2.67v-66.7l-53.36-88v-26.68l2.67-2.67h18.68l5.34,2.67,42.69,72h5.34l42.69-72,5.34-2.67h18.68l2.67,2.67v26.68Z"/><path class="cls-1" d="M1484.6,2684.25V2751l-2.67,2.67h-32l-2.67-2.67v-66.7l-53.36-88v-26.68l2.67-2.67h18.68l5.34,2.67,42.69,72h5.34l42.69-72,5.34-2.67h18.68l2.67,2.67v26.68Z"/><path class="cls-1" d="M1479.5,2679.15v66.7l-2.67,2.67h-32l-2.67-2.67v-66.7l-53.36-88v-26.68l2.67-2.67h18.68l5.34,2.67,42.69,72h5.34l42.69-72,5.34-2.67h18.68l2.67,2.67v26.68Z"/><path class="cls-1" d="M1474.4,2674.05v66.7l-2.67,2.67h-32l-2.67-2.67v-66.7l-53.36-88v-26.68l2.67-2.67H1405l5.34,2.67,42.69,72h5.34l42.69-72,5.34-2.67h18.68l2.67,2.67V2586Z"/><path class="cls-1" d="M1469.3,2669v66.7l-2.67,2.67h-32l-2.67-2.67V2669l-53.36-88v-26.68l2.67-2.67h18.68l5.34,2.67,42.69,72h5.34l42.69-72,5.34-2.67H1520l2.67,2.67v26.68Z"/><path class="cls-1" d="M1464.21,2663.86v66.7l-2.67,2.67h-32l-2.67-2.67v-66.7l-53.36-88v-26.68l2.67-2.67h18.68l5.34,2.67,42.69,72h5.34l42.69-72,5.34-2.67h18.68l2.67,2.67v26.68Z"/><path class="cls-1" d="M1459.11,2658.76v66.7l-2.67,2.67h-32l-2.67-2.67v-66.7l-53.36-88V2544l2.67-2.67h18.68l5.34,2.67,42.69,72h5.34l42.69-72,5.34-2.67h18.68l2.67,2.67v26.68Z"/><path class="cls-1" d="M1454,2653.66v66.7l-2.67,2.67h-32l-2.67-2.67v-66.7l-53.36-88v-26.68l2.67-2.67h18.68l5.34,2.67,42.69,72H1438l42.69-72,5.34-2.67h18.68l2.67,2.67v26.68Z"/><path class="cls-1" d="M1448.91,2648.56v66.7l-2.67,2.67h-32l-2.67-2.67v-66.7l-53.36-88v-26.68l2.67-2.67h18.68l5.34,2.67,42.69,72h5.34l42.69-72,5.34-2.67h18.68l2.67,2.67v26.68Z"/><path class="cls-1" d="M1443.81,2643.46v66.7l-2.67,2.67h-32l-2.67-2.67v-66.7l-53.36-88v-26.68l2.67-2.67h18.68l5.34,2.67,42.69,72h5.34l42.69-72,5.34-2.67h18.68l2.67,2.67v26.68Z"/><path class="cls-1" d="M1438.71,2638.37v66.7l-2.67,2.67h-32l-2.67-2.67v-66.7l-53.36-88v-26.68l2.67-2.67h18.68l5.34,2.67,42.69,72h5.34l42.69-72,5.34-2.67h18.68l2.67,2.67v26.68Z"/><path class="cls-1" d="M1433.62,2633.27V2700l-2.67,2.67h-32l-2.67-2.67v-66.7l-53.36-88v-26.68l2.67-2.67h18.68l5.34,2.67,42.69,72h5.34l42.69-72,5.34-2.67h18.68l2.67,2.67v26.68Z"/><path class="cls-1" d="M1428.52,2628.17v66.7l-2.67,2.67h-32l-2.67-2.67v-66.7l-53.36-88v-26.68l2.67-2.67h18.68l5.34,2.67,42.69,72h5.34l42.69-72,5.34-2.67h18.68l2.67,2.67v26.68Z"/><path class="cls-1" d="M1423.42,2623.07v66.7l-2.67,2.67h-32l-2.67-2.67v-66.7l-53.36-88v-26.68l2.67-2.67H1354l5.34,2.67,42.69,72h5.34l42.69-72,5.34-2.67h18.68l2.67,2.67V2535Z"/><path class="cls-1" d="M1418.32,2618v66.7l-2.67,2.67h-32l-2.67-2.67V2618l-53.36-88v-26.68l2.67-2.67h18.68l5.34,2.67,42.69,72h5.34l42.69-72,5.34-2.67H1469l2.67,2.67v26.68Z"/><path class="cls-1" d="M1413.22,2612.87v66.7l-2.67,2.67h-32l-2.67-2.67v-66.7l-53.36-88v-26.68l2.67-2.67h18.68l5.34,2.67,42.69,72h5.34l42.69-72,5.34-2.67h18.68l2.67,2.67v26.68Z"/><path class="cls-1" d="M1408.12,2607.78v66.7l-2.67,2.67h-32l-2.67-2.67v-66.7l-53.36-88V2493l2.67-2.67h18.68l5.34,2.67,42.69,72h5.34l42.69-72,5.34-2.67h18.68l2.67,2.67v26.68Z"/><path class="cls-1" d="M1403,2602.68v66.7l-2.67,2.67h-32l-2.67-2.67v-66.7l-53.36-88v-26.68l2.67-2.67h18.68l5.34,2.67,42.69,72H1387l42.69-72,5.34-2.67h18.68l2.67,2.67v26.68Z"/><path class="cls-1" d="M1397.93,2597.58v66.7l-2.67,2.67h-32l-2.67-2.67v-66.7l-53.36-88v-26.68l2.67-2.67h18.68l5.34,2.67,42.69,72h5.34l42.69-72,5.34-2.67h18.68l2.67,2.67v26.68Z"/><path class="cls-1" d="M1392.83,2592.48v66.7l-2.67,2.67h-32l-2.67-2.67v-66.7l-53.36-88v-26.68l2.67-2.67h18.68l5.34,2.67,42.69,72h5.34l42.69-72,5.34-2.67h18.68l2.67,2.67v26.68Z"/><path class="cls-1" d="M1387.73,2587.38v66.7l-2.67,2.67h-32l-2.67-2.67v-66.7l-53.36-88v-26.68l2.67-2.67h18.68l5.34,2.67,42.69,72h5.34l42.69-72,5.34-2.67h18.68l2.67,2.67v26.68Z"/><path class="cls-1" d="M1382.63,2582.28V2649l-2.67,2.67h-32l-2.67-2.67v-66.7l-53.36-88v-26.68l2.67-2.67h18.68l5.34,2.67,42.69,72h5.34l42.69-72,5.34-2.67h18.68l2.67,2.67v26.68Z"/><path class="cls-1" d="M1377.53,2577.19v66.7l-2.67,2.67h-32l-2.67-2.67v-66.7l-53.36-88v-26.68l2.67-2.67h18.68l5.34,2.67,42.69,72h5.34l42.69-72,5.34-2.67h18.68l2.67,2.67v26.68Z"/><path class="cls-1" d="M1372.44,2572.09v66.7l-2.67,2.67h-32l-2.67-2.67v-66.7l-53.36-88v-26.68l2.67-2.67h18.68l5.34,2.67,42.69,72h5.34l42.69-72,5.34-2.67h18.68l2.67,2.67V2484Z"/><path class="cls-1" d="M1367.34,2567v66.7l-2.67,2.67h-32l-2.67-2.67V2567l-53.36-88v-26.68l2.67-2.67H1298l5.34,2.67,42.69,72h5.34l42.69-72,5.34-2.67H1418l2.67,2.67v26.68Z"/><path class="cls-1" d="M1362.24,2561.89v66.7l-2.67,2.67h-32l-2.67-2.67v-66.7l-53.36-88v-26.68l2.67-2.67h18.68l5.34,2.67,42.69,72h5.34l42.69-72,5.34-2.67h18.68l2.67,2.67v26.68Z"/><path class="cls-1" d="M1357.14,2556.79v66.7l-2.67,2.67h-32l-2.67-2.67v-66.7l-53.36-88v-26.68l2.67-2.67h18.68l5.34,2.67,42.69,72h5.34l42.69-72,5.34-2.67h18.68l2.67,2.67v26.68Z"/><path class="cls-1" d="M1352,2551.69v66.7l-2.67,2.67h-32l-2.67-2.67v-66.7l-53.36-88V2437l2.67-2.67h18.68L1288,2437l42.69,72H1336l42.69-72,5.34-2.67h18.68l2.67,2.67v26.68Z"/><path class="cls-1" d="M1346.94,2546.6v66.7l-2.67,2.67h-32l-2.67-2.67v-66.7l-53.36-88v-26.68l2.67-2.67h18.68l5.34,2.67,42.69,72h5.34l42.69-72,5.34-2.67h18.68l2.67,2.67v26.68Z"/><path class="cls-1" d="M1341.85,2541.5v66.7l-2.67,2.67h-32l-2.67-2.67v-66.7l-53.36-88v-26.68l2.67-2.67h18.68l5.34,2.67,42.69,72h5.34l42.69-72,5.34-2.67h18.68l2.67,2.67v26.68Z"/><path class="cls-1" d="M1336.75,2536.4v66.7l-2.67,2.67h-32l-2.67-2.67v-66.7l-53.36-88v-26.68l2.67-2.67h18.68l5.34,2.67,42.69,72h5.34l42.69-72,5.34-2.67h18.68l2.67,2.67v26.68Z"/><path class="cls-1" d="M1331.65,2531.3V2598l-2.67,2.67h-32l-2.67-2.67v-66.7l-53.36-88v-26.68l2.67-2.67h18.68l5.34,2.67,42.69,72h5.34l42.69-72,5.34-2.67h18.68l2.67,2.67v26.68Z"/><path class="cls-1" d="M1326.55,2526.2v66.7l-2.67,2.67h-32l-2.67-2.67v-66.7l-53.36-88v-26.68l2.67-2.67h18.68l5.34,2.67,42.69,72h5.34l42.69-72,5.34-2.67h18.68l2.67,2.67v26.68Z"/><path class="cls-1" d="M1321.45,2521.1v66.7l-2.67,2.67h-32l-2.67-2.67v-66.7l-53.36-88v-26.68l2.67-2.67h18.68l5.34,2.67,42.69,72h5.34l42.69-72,5.34-2.67h18.68l2.67,2.67v26.68Z"/><path class="cls-1" d="M1316.35,2516v66.7l-2.67,2.67h-32l-2.67-2.67V2516l-53.36-88v-26.68l2.67-2.67H1247l5.34,2.67,42.69,72h5.34l42.69-72,5.34-2.67H1367l2.67,2.67V2428Z"/><path class="cls-1" d="M1311.26,2510.91v66.7l-2.67,2.67h-32l-2.67-2.67v-66.7l-53.36-88v-26.68l2.67-2.67h18.68l5.34,2.67,42.69,72h5.34l42.69-72,5.34-2.67H1362l2.67,2.67v26.68Z"/></g></g></svg>