<svg id="Layer_3" data-name="Layer 3" xmlns="http://www.w3.org/2000/svg" viewBox="0 0 1896 5154.75"><defs><style>.cls-1{fill:#fff;stroke:#de761c;stroke-width:3px;}</style></defs><title>Artboard 1</title><g id="_Group_" data-name="&lt;Group&gt;"><path class="cls-1" d="M1019.42-186.59h37.35l5.34,2.67,72,122.74h2.67V-183.92l2.67-2.67h32l2.67,2.67V-2.49L1171.5.18h-37.35l-5.34-2.67-72-122.74h-2.67V-2.49L1051.43.18h-32l-2.67-2.67V-183.92Z"/><path class="cls-1" d="M1024.5-181.51h37.35l5.34,2.67,72,122.74h2.67V-178.84l2.67-2.67h32l2.67,2.67V2.6l-2.67,2.67h-37.35L1133.9,2.6l-72-122.74h-2.67V2.6l-2.67,2.67h-32l-2.67-2.67V-178.84Z"/><path class="cls-1" d="M1029.59-176.42h37.35l5.34,2.67,72,122.74H1147V-173.75l2.67-2.67h32l2.67,2.67V7.68l-2.67,2.67h-37.35L1139,7.68l-72-122.74h-2.67V7.68l-2.67,2.67h-32l-2.67-2.67V-173.75Z"/><path class="cls-1" d="M1034.67-171.34H1072l5.34,2.67,72,122.74h2.67V-168.67l2.67-2.67h32l2.67,2.67V12.77l-2.67,2.67H1149.4l-5.34-2.67L1072-110h-2.67V12.77l-2.67,2.67h-32L1032,12.77V-168.67Z"/><path class="cls-1" d="M1039.76-166.25h37.35l5.34,2.67,72,122.74h2.67V-163.58l2.67-2.67h32l2.67,2.67V17.85l-2.67,2.67h-37.35l-5.34-2.67-72-122.74h-2.67V17.85l-2.67,2.67h-32l-2.67-2.67V-163.58Z"/><path class="cls-1" d="M1044.84-161.16h37.35l5.34,2.67,72,122.74h2.67V-158.5l2.67-2.67h32l2.67,2.67V22.94l-2.67,2.67h-37.35l-5.34-2.67-72-122.74h-2.67V22.94l-2.67,2.67h-32l-2.67-2.67V-158.5Z"/><path class="cls-1" d="M1049.93-156.08h37.35l5.34,2.67,72,122.74h2.67V-153.41l2.67-2.67h32l2.67,2.67V28L1202,30.69h-37.35L1159.32,28l-72-122.74h-2.67V28l-2.67,2.67h-32L1047.26,28V-153.41Z"/><path class="cls-1" d="M1055-151h37.35l5.34,2.67,72,122.74h2.67V-148.33l2.67-2.67h32l2.67,2.67V33.11l-2.67,2.67h-37.35l-5.34-2.67-72-122.74h-2.67V33.11L1087,35.78h-32l-2.67-2.67V-148.33Z"/><path class="cls-1" d="M1060.1-145.91h37.35l5.34,2.67,72,122.74h2.67V-143.24l2.67-2.67h32l2.67,2.67V38.19l-2.67,2.67h-37.35l-5.34-2.67-72-122.74h-2.67V38.19l-2.67,2.67h-32l-2.67-2.67V-143.24Z"/><path class="cls-1" d="M1065.19-140.82h37.35l5.34,2.67,72,122.74h2.67V-138.15l2.67-2.67h32l2.67,2.67V43.28l-2.67,2.67h-37.35l-5.34-2.67-72-122.74h-2.67V43.28l-2.67,2.67h-32l-2.67-2.67V-138.15Z"/><path class="cls-1" d="M1070.27-135.74h37.35l5.34,2.67,72,122.74h2.67V-133.07l2.67-2.67h32l2.67,2.67V48.37L1222.36,51H1185l-5.34-2.67-72-122.74H1105V48.37L1102.29,51h-32l-2.67-2.67V-133.07Z"/><path class="cls-1" d="M1075.36-130.65h37.35L1118-128l72,122.74h2.67V-128l2.67-2.67h32l2.67,2.67V53.45l-2.67,2.67h-37.35l-5.34-2.67-72-122.74H1110V53.45l-2.67,2.67h-32l-2.67-2.67V-128Z"/><path class="cls-1" d="M1080.44-125.57h37.35l5.34,2.67,72,122.74h2.67V-122.9l2.67-2.67h32l2.67,2.67V58.54l-2.67,2.67h-37.35l-5.34-2.67-72-122.74h-2.67V58.54l-2.67,2.67h-32l-2.67-2.67V-122.9Z"/><path class="cls-1" d="M1085.53-120.48h37.35l5.34,2.67,72,122.74h2.67V-117.81l2.67-2.67h32l2.67,2.67V63.62l-2.67,2.67h-37.35l-5.34-2.67-72-122.74h-2.67V63.62l-2.67,2.67h-32l-2.67-2.67V-117.81Z"/><path class="cls-1" d="M1090.61-115.39H1128l5.34,2.67,72,122.74H1208V-112.73l2.67-2.67h32l2.67,2.67V68.71l-2.67,2.67h-37.35L1200,68.71,1128-54h-2.67V68.71l-2.67,2.67h-32l-2.67-2.67V-112.73Z"/><path class="cls-1" d="M1095.7-110.31h37.35l5.34,2.67,72,122.74h2.67V-107.64l2.67-2.67h32l2.67,2.67V73.79l-2.67,2.67h-37.35l-5.34-2.67-72-122.74h-2.67V73.79l-2.67,2.67h-32L1093,73.79V-107.64Z"/><path class="cls-1" d="M1100.78-105.22h37.35l5.34,2.67,72,122.74h2.67V-102.56l2.67-2.67h32l2.67,2.67V78.88l-2.67,2.67h-37.35l-5.34-2.67-72-122.74h-2.67V78.88l-2.67,2.67h-32l-2.67-2.67V-102.56Z"/><path class="cls-1" d="M1105.87-100.14h37.35l5.34,2.67,72,122.74h2.67V-97.47l2.67-2.67h32l2.67,2.67V84L1258,86.63H1220.6L1215.26,84l-72-122.74h-2.67V84l-2.67,2.67h-32L1103.2,84V-97.47Z"/><path class="cls-1" d="M1111-95.05h37.35l5.34,2.67,72,122.74h2.67V-92.38l2.67-2.67h32l2.67,2.67V89L1263,91.72h-37.35L1220.35,89l-72-122.74h-2.67V89L1143,91.72h-32L1108.29,89V-92.38Z"/><path class="cls-1" d="M1116-90h37.35l5.34,2.67,72,122.74h2.67V-87.3l2.67-2.67h32l2.67,2.67V94.14l-2.67,2.67h-37.35l-5.34-2.67-72-122.74h-2.67V94.14l-2.67,2.67h-32l-2.67-2.67V-87.3Z"/><path class="cls-1" d="M1121.13-84.88h37.35l5.34,2.67,72,122.74h2.67V-82.21l2.67-2.67h32l2.67,2.67V99.22l-2.67,2.67h-37.35l-5.34-2.67-72-122.74h-2.67V99.22l-2.67,2.67h-32l-2.67-2.67V-82.21Z"/><path class="cls-1" d="M1126.21-79.8h37.35l5.34,2.67,72,122.74h2.67V-77.13l2.67-2.67h32l2.67,2.67V104.31L1278.3,107h-37.35l-5.34-2.67-72-122.74h-2.67V104.31l-2.67,2.67h-32l-2.67-2.67V-77.13Z"/><path class="cls-1" d="M1131.3-74.71h37.35L1174-72l72,122.74h2.67V-72l2.67-2.67h32l2.67,2.67V109.39l-2.67,2.67H1246l-5.34-2.67-72-122.74H1166V109.39l-2.67,2.67h-32l-2.67-2.67V-72Z"/><path class="cls-1" d="M1136.38-69.63h37.35l5.34,2.67,72,122.74h2.67V-67l2.67-2.67h32l2.67,2.67V114.48l-2.67,2.67h-37.35l-5.34-2.67-72-122.74h-2.67V114.48l-2.67,2.67h-32l-2.67-2.67V-67Z"/><path class="cls-1" d="M1141.47-64.54h37.35l5.34,2.67,72,122.74h2.67V-61.87l2.67-2.67h32l2.67,2.67V119.56l-2.67,2.67H1256.2l-5.34-2.67-72-122.74h-2.67V119.56l-2.67,2.67h-32l-2.67-2.67V-61.87Z"/><path class="cls-1" d="M1146.55-59.45h37.35l5.34,2.67,72,122.74H1264V-56.79l2.67-2.67h32l2.67,2.67V124.65l-2.67,2.67h-37.35l-5.34-2.67-72-122.74h-2.67V124.65l-2.67,2.67h-32l-2.67-2.67V-56.79Z"/><path class="cls-1" d="M1151.64-54.37H1189l5.34,2.67,72,122.74H1269V-51.7l2.67-2.67h32l2.67,2.67V129.73l-2.67,2.67h-37.35l-5.34-2.67L1189,7h-2.67V129.73l-2.67,2.67h-32l-2.67-2.67V-51.7Z"/><path class="cls-1" d="M1156.72-49.28h37.35l5.34,2.67,72,122.74h2.67V-46.62l2.67-2.67h32l2.67,2.67V134.82l-2.67,2.67h-37.35l-5.34-2.67-72-122.74h-2.67V134.82l-2.67,2.67h-32l-2.67-2.67V-46.62Z"/><path class="cls-1" d="M1161.81-44.2h37.35l5.34,2.67,72,122.74h2.67V-41.53l2.67-2.67h32l2.67,2.67V139.9l-2.67,2.67h-37.35l-5.34-2.67-72-122.74h-2.67V139.9l-2.67,2.67h-32l-2.67-2.67V-41.53Z"/><path class="cls-1" d="M1166.9-39.11h37.35l5.34,2.67,72,122.74h2.67V-36.44l2.67-2.67h32l2.67,2.67V145l-2.67,2.67h-37.35l-5.34-2.67-72-122.74h-2.67V145l-2.67,2.67h-32l-2.67-2.67V-36.44Z"/><path class="cls-1" d="M1172-34h37.35l5.34,2.67,72,122.74h2.67V-31.36L1292-34h32l2.67,2.67V150.08l-2.67,2.67h-37.35l-5.34-2.67-72-122.74h-2.67V150.08l-2.67,2.67h-32l-2.67-2.67V-31.36Z"/><path class="cls-1" d="M1177.07-28.94h37.35l5.34,2.67,72,122.74h2.67V-26.27l2.67-2.67h32l2.67,2.67V155.16l-2.67,2.67H1291.8l-5.34-2.67-72-122.74h-2.67V155.16l-2.67,2.67h-32l-2.67-2.67V-26.27Z"/><path class="cls-1" d="M1182.15-23.86h37.35l5.34,2.67,72,122.74h2.67V-21.19l2.67-2.67h32l2.67,2.67V160.25l-2.67,2.67h-37.35l-5.34-2.67-72-122.74h-2.67V160.25l-2.67,2.67h-32l-2.67-2.67V-21.19Z"/><path class="cls-1" d="M1187.24-18.77h37.35l5.34,2.67,72,122.74h2.67V-16.1l2.67-2.67h32L1342-16.1V165.33l-2.67,2.67H1302l-5.34-2.67-72-122.74h-2.67V165.33l-2.67,2.67h-32l-2.67-2.67V-16.1Z"/><path class="cls-1" d="M1192.32-13.68h37.35L1235-11l72,122.74h2.67V-11l2.67-2.67h32l2.67,2.67V170.42l-2.67,2.67h-37.35l-5.34-2.67-72-122.74H1227V170.42l-2.67,2.67h-32l-2.67-2.67V-11Z"/><path class="cls-1" d="M1197.41-8.6h37.35l5.34,2.67,72,122.74h2.67V-5.93l2.67-2.67h32l2.67,2.67V175.5l-2.67,2.67h-37.35l-5.34-2.67-72-122.74h-2.67V175.5l-2.67,2.67h-32l-2.67-2.67V-5.93Z"/><path class="cls-1" d="M1202.49-3.51h37.35l5.34,2.67,72,122.74h2.67V-.85l2.67-2.67h32l2.67,2.67V180.59l-2.67,2.67h-37.35l-5.34-2.67-72-122.74h-2.67V180.59l-2.67,2.67h-32l-2.67-2.67V-.85Z"/><path class="cls-1" d="M1207.58,1.57h37.35l5.34,2.67,72,122.74H1325V4.24l2.67-2.67h32l2.67,2.67V185.67l-2.67,2.67h-37.35l-5.34-2.67-72-122.74h-2.67V185.67l-2.67,2.67h-32l-2.67-2.67V4.24Z"/><path class="cls-1" d="M1212.67,6.66H1250l5.34,2.67,72,122.74h2.67V9.33l2.67-2.67h32l2.67,2.67V190.76l-2.67,2.67H1327.4l-5.34-2.67L1250,68h-2.67V190.76l-2.67,2.67h-32l-2.67-2.67V9.33Z"/><path class="cls-1" d="M1217.75,11.74h37.35l5.34,2.67,72,122.74h2.67V14.41l2.67-2.67h32l2.67,2.67V195.85l-2.67,2.67h-37.35l-5.34-2.67-72-122.74h-2.67V195.85l-2.67,2.67h-32l-2.67-2.67V14.41Z"/><path class="cls-1" d="M1222.84,16.83h37.35l5.34,2.67,72,122.74h2.67V19.5l2.67-2.67h32l2.67,2.67V200.93l-2.67,2.67h-37.35l-5.34-2.67-72-122.74h-2.67V200.93l-2.67,2.67h-32l-2.67-2.67V19.5Z"/><path class="cls-1" d="M1227.92,21.91h37.35l5.34,2.67,72,122.74h2.67V24.58l2.67-2.67h32l2.67,2.67V206l-2.67,2.67h-37.35l-5.34-2.67-72-122.74h-2.67V206l-2.67,2.67h-32l-2.67-2.67V24.58Z"/><path class="cls-1" d="M1233,27h37.35l5.34,2.67,72,122.74h2.67V29.67l2.67-2.67h32l2.67,2.67V211.1l-2.67,2.67h-37.35l-5.34-2.67-72-122.74h-2.67V211.1l-2.67,2.67h-32l-2.67-2.67V29.67Z"/><path class="cls-1" d="M1238.09,32.08h37.35l5.34,2.67,72,122.74h2.67V34.75l2.67-2.67h32l2.67,2.67V216.19l-2.67,2.67h-37.35l-5.34-2.67-72-122.74h-2.67V216.19l-2.67,2.67h-32l-2.67-2.67V34.75Z"/><path class="cls-1" d="M1243.18,37.17h37.35l5.34,2.67,72,122.74h2.67V39.84l2.67-2.67h32l2.67,2.67V221.27l-2.67,2.67h-37.35l-5.34-2.67-72-122.74h-2.67V221.27l-2.67,2.67h-32l-2.67-2.67V39.84Z"/><path class="cls-1" d="M1248.26,42.26h37.35l5.34,2.67,72,122.74h2.67V44.92l2.67-2.67h32l2.67,2.67V226.36l-2.67,2.67H1363l-5.34-2.67-72-122.74h-2.67V226.36l-2.67,2.67h-32l-2.67-2.67V44.92Z"/><path class="cls-1" d="M1253.35,47.34h37.35L1296,50l72,122.74h2.67V50l2.67-2.67h32L1408.1,50V231.44l-2.67,2.67h-37.35l-5.34-2.67-72-122.74H1288V231.44l-2.67,2.67h-32l-2.67-2.67V50Z"/><path class="cls-1" d="M1258.44,52.43h37.35l5.34,2.67,72,122.74h2.67V55.09l2.67-2.67h32l2.67,2.67V236.53l-2.67,2.67h-37.35l-5.34-2.67-72-122.74h-2.67V236.53l-2.67,2.67h-32l-2.67-2.67V55.09Z"/><path class="cls-1" d="M1263.52,57.51h37.35l5.34,2.67,72,122.74h2.67V60.18l2.67-2.67h32l2.67,2.67V241.61l-2.67,2.67h-37.35l-5.34-2.67-72-122.74h-2.67V241.61l-2.67,2.67h-32l-2.67-2.67V60.18Z"/><path class="cls-1" d="M1268.61,62.6H1306l5.34,2.67,72,122.74H1386V65.27l2.67-2.67h32l2.67,2.67V246.7l-2.67,2.67h-37.35L1378,246.7,1306,124h-2.67V246.7l-2.67,2.67h-32l-2.67-2.67V65.27Z"/><path class="cls-1" d="M1273.69,67.68H1311l5.34,2.67,72,122.74h2.67V70.35l2.67-2.67h32l2.67,2.67V251.79l-2.67,2.67h-37.35l-5.34-2.67-72-122.74h-2.67V251.79l-2.67,2.67h-32l-2.67-2.67V70.35Z"/><path class="cls-1" d="M1278.78,72.77h37.35l5.34,2.67,72,122.74h2.67V75.44l2.67-2.67h32l2.67,2.67V256.87l-2.67,2.67h-37.35l-5.34-2.67-72-122.74h-2.67V256.87l-2.67,2.67h-32l-2.67-2.67V75.44Z"/><path class="cls-1" d="M1283.86,77.85h37.35l5.34,2.67,72,122.74h2.67V80.52l2.67-2.67h32l2.67,2.67V262l-2.67,2.67h-37.35l-5.34-2.67-72-122.74h-2.67V262l-2.67,2.67h-32l-2.67-2.67V80.52Z"/><path class="cls-1" d="M1288.95,82.94h37.35l5.34,2.67,72,122.74h2.67V85.61l2.67-2.67h32l2.67,2.67V267l-2.67,2.67h-37.35l-5.34-2.67-72-122.74h-2.67V267l-2.67,2.67h-32l-2.67-2.67V85.61Z"/><path class="cls-1" d="M1294,88h37.35l5.34,2.67,72,122.74h2.67V90.69L1414.1,88h32l2.67,2.67V272.13l-2.67,2.67h-37.35l-5.34-2.67-72-122.74h-2.67V272.13l-2.67,2.67h-32l-2.67-2.67V90.69Z"/><path class="cls-1" d="M1299.12,93.11h37.35l5.34,2.67,72,122.74h2.67V95.78l2.67-2.67h32l2.67,2.67V277.21l-2.67,2.67h-37.35l-5.34-2.67-72-122.74h-2.67V277.21l-2.67,2.67h-32l-2.67-2.67V95.78Z"/><path class="cls-1" d="M1304.2,98.2h37.35l5.34,2.67,72,122.74h2.67V100.86l2.67-2.67h32l2.67,2.67V282.3l-2.67,2.67h-37.35l-5.34-2.67-72-122.74h-2.67V282.3l-2.67,2.67h-32l-2.67-2.67V100.86Z"/><path class="cls-1" d="M1309.29,103.28h37.35l5.34,2.67,72,122.74h2.67V105.95l2.67-2.67h32l2.67,2.67V287.38l-2.67,2.67H1424l-5.34-2.67-72-122.74H1344V287.38l-2.67,2.67h-32l-2.67-2.67V105.95Z"/><path class="cls-1" d="M1314.38,108.37h37.35l5.34,2.67,72,122.74h2.67V111l2.67-2.67h32l2.67,2.67V292.47l-2.67,2.67h-37.35l-5.34-2.67-72-122.74h-2.67V292.47l-2.67,2.67h-32l-2.67-2.67V111Z"/><path class="cls-1" d="M1319.46,113.45h37.35l5.34,2.67,72,122.74h2.67V116.12l2.67-2.67h32l2.67,2.67V297.56l-2.67,2.67h-37.35l-5.34-2.67-72-122.74h-2.67V297.56l-2.67,2.67h-32l-2.67-2.67V116.12Z"/><path class="cls-1" d="M1324.55,118.54h37.35l5.34,2.67,72,122.74h2.67V121.21l2.67-2.67h32l2.67,2.67V302.64l-2.67,2.67h-37.35l-5.34-2.67-72-122.74h-2.67V302.64l-2.67,2.67h-32l-2.67-2.67V121.21Z"/><path class="cls-1" d="M1329.63,123.62H1367l5.34,2.67,72,122.74H1447V126.29l2.67-2.67h32l2.67,2.67V307.73l-2.67,2.67h-37.35l-5.34-2.67L1367,185h-2.67V307.73l-2.67,2.67h-32l-2.67-2.67V126.29Z"/><path class="cls-1" d="M1334.72,128.71h37.35l5.34,2.67,72,122.74h2.67V131.38l2.67-2.67h32l2.67,2.67V312.81l-2.67,2.67h-37.35l-5.34-2.67-72-122.74h-2.67V312.81l-2.67,2.67h-32l-2.67-2.67V131.38Z"/><path class="cls-1" d="M1339.8,133.79h37.35l5.34,2.67,72,122.74h2.67V136.46l2.67-2.67h32l2.67,2.67V317.9l-2.67,2.67h-37.35l-5.34-2.67-72-122.74h-2.67V317.9l-2.67,2.67h-32l-2.67-2.67V136.46Z"/><path class="cls-1" d="M1344.89,138.88h37.35l5.34,2.67,72,122.74h2.67V141.55l2.67-2.67h32l2.67,2.67V323l-2.67,2.67h-37.35l-5.34-2.67-72-122.74h-2.67V323l-2.67,2.67h-32l-2.67-2.67V141.55Z"/><path class="cls-1" d="M1350,144h37.35l5.34,2.67,72,122.74h2.67V146.63L1470,144h32l2.67,2.67V328.07l-2.67,2.67h-37.35l-5.34-2.67-72-122.74h-2.67V328.07l-2.67,2.67h-32l-2.67-2.67V146.63Z"/><path class="cls-1" d="M1355.06,149.05h37.35l5.34,2.67,72,122.74h2.67V151.72l2.67-2.67h32l2.67,2.67V333.15l-2.67,2.67h-37.35l-5.34-2.67-72-122.74h-2.67V333.15l-2.67,2.67h-32l-2.67-2.67V151.72Z"/><path class="cls-1" d="M1360.15,154.14h37.35l5.34,2.67,72,122.74h2.67V156.8l2.67-2.67h32l2.67,2.67V338.24l-2.67,2.67h-37.35l-5.34-2.67-72-122.74h-2.67V338.24l-2.67,2.67h-32l-2.67-2.67V156.8Z"/><path class="cls-1" d="M1365.23,159.22h37.35l5.34,2.67,72,122.74h2.67V161.89l2.67-2.67h32l2.67,2.67V343.33l-2.67,2.67H1480l-5.34-2.67-72-122.74h-2.67V343.33l-2.67,2.67h-32l-2.67-2.67V161.89Z"/><path class="cls-1" d="M1370.32,164.31h37.35L1413,167l72,122.74h2.67V167l2.67-2.67h32l2.67,2.67V348.41l-2.67,2.67H1485l-5.34-2.67-72-122.74H1405V348.41l-2.67,2.67h-32l-2.67-2.67V167Z"/><path class="cls-1" d="M1375.4,169.39h37.35l5.34,2.67,72,122.74h2.67V172.06l2.67-2.67h32l2.67,2.67V353.5l-2.67,2.67h-37.35l-5.34-2.67-72-122.74h-2.67V353.5l-2.67,2.67h-32l-2.67-2.67V172.06Z"/><path class="cls-1" d="M1380.49,174.48h37.35l5.34,2.67,72,122.74h2.67V177.15l2.67-2.67h32l2.67,2.67V358.58l-2.67,2.67h-37.35l-5.34-2.67-72-122.74h-2.67V358.58l-2.67,2.67h-32l-2.67-2.67V177.15Z"/><path class="cls-1" d="M1385.57,179.56h37.35l5.34,2.67,72,122.74H1503V182.23l2.67-2.67h32l2.67,2.67V363.67l-2.67,2.67H1500.3l-5.34-2.67-72-122.74h-2.67V363.67l-2.67,2.67h-32l-2.67-2.67V182.23Z"/><path class="cls-1" d="M1390.66,184.65H1428l5.34,2.67,72,122.74h2.67V187.32l2.67-2.67h32l2.67,2.67V368.75l-2.67,2.67h-37.35l-5.34-2.67L1428,246h-2.67V368.75l-2.67,2.67h-32l-2.67-2.67V187.32Z"/><path class="cls-1" d="M1395.74,189.74h37.35l5.34,2.67,72,122.74h2.67V192.4l2.67-2.67h32l2.67,2.67V373.84l-2.67,2.67h-37.35l-5.34-2.67-72-122.74h-2.67V373.84l-2.67,2.67h-32l-2.67-2.67V192.4Z"/><path class="cls-1" d="M1400.83,194.82h37.35l5.34,2.67,72,122.74h2.67V197.49l2.67-2.67h32l2.67,2.67V378.92l-2.67,2.67h-37.35l-5.34-2.67-72-122.74h-2.67V378.92l-2.67,2.67h-32l-2.67-2.67V197.49Z"/><path class="cls-1" d="M1405.92,199.91h37.35l5.34,2.67,72,122.74h2.67V202.57l2.67-2.67h32l2.67,2.67V384l-2.67,2.67h-37.35l-5.34-2.67-72-122.74h-2.67V384l-2.67,2.67h-32l-2.67-2.67V202.57Z"/><path class="cls-1" d="M1411,205h37.35l5.34,2.67,72,122.74h2.67V207.66l2.67-2.67h32l2.67,2.67V389.09l-2.67,2.67h-37.35l-5.34-2.67-72-122.74h-2.67V389.09l-2.67,2.67h-32l-2.67-2.67V207.66Z"/><path class="cls-1" d="M1416.09,210.08h37.35l5.34,2.67,72,122.74h2.67V212.75l2.67-2.67h32l2.67,2.67V394.18l-2.67,2.67h-37.35l-5.34-2.67-72-122.74h-2.67V394.18l-2.67,2.67h-32l-2.67-2.67V212.75Z"/><path class="cls-1" d="M1421.17,215.16h37.35l5.34,2.67,72,122.74h2.67V217.83l2.67-2.67h32l2.67,2.67V399.27l-2.67,2.67H1535.9l-5.34-2.67-72-122.74h-2.67V399.27l-2.67,2.67h-32l-2.67-2.67V217.83Z"/><path class="cls-1" d="M1426.26,220.25h37.35l5.34,2.67,72,122.74h2.67V222.92l2.67-2.67h32l2.67,2.67V404.35l-2.67,2.67H1541l-5.34-2.67-72-122.74h-2.67V404.35l-2.67,2.67h-32l-2.67-2.67V222.92Z"/><path class="cls-1" d="M1431.34,225.33h37.35L1474,228l72,122.74h2.67V228l2.67-2.67h32l2.67,2.67V409.44l-2.67,2.67h-37.35l-5.34-2.67-72-122.74H1466V409.44l-2.67,2.67h-32l-2.67-2.67V228Z"/><path class="cls-1" d="M1436.43,230.42h37.35l5.34,2.67,72,122.74h2.67V233.09l2.67-2.67h32l2.67,2.67V414.52l-2.67,2.67h-37.35l-5.34-2.67-72-122.74h-2.67V414.52l-2.67,2.67h-32l-2.67-2.67V233.09Z"/><path class="cls-1" d="M1441.51,235.51h37.35l5.34,2.67,72,122.74h2.67V238.17l2.67-2.67h32l2.67,2.67V419.61l-2.67,2.67h-37.35l-5.34-2.67-72-122.74h-2.67V419.61l-2.67,2.67h-32l-2.67-2.67V238.17Z"/><path class="cls-1" d="M1446.6,240.59H1484l5.34,2.67,72,122.74H1564V243.26l2.67-2.67h32l2.67,2.67V424.69l-2.67,2.67h-37.35l-5.34-2.67L1484,302h-2.67V424.69l-2.67,2.67h-32l-2.67-2.67V243.26Z"/><path class="cls-1" d="M1451.68,245.68H1489l5.34,2.67,72,122.74h2.67V248.34l2.67-2.67h32l2.67,2.67V429.78l-2.67,2.67h-37.35l-5.34-2.67L1489,307h-2.67V429.78l-2.67,2.67h-32l-2.67-2.67V248.34Z"/><path class="cls-1" d="M1456.77,250.76h37.35l5.34,2.67,72,122.74h2.67V253.43l2.67-2.67h32l2.67,2.67V434.86l-2.67,2.67H1571.5l-5.34-2.67-72-122.74h-2.67V434.86l-2.67,2.67h-32l-2.67-2.67V253.43Z"/><path class="cls-1" d="M1461.86,255.85h37.35l5.34,2.67,72,122.74h2.67V258.52l2.67-2.67h32l2.67,2.67V439.95l-2.67,2.67h-37.35l-5.34-2.67-72-122.74h-2.67V439.95l-2.67,2.67h-32l-2.67-2.67V258.52Z"/><path class="cls-1" d="M1466.94,260.93h37.35l5.34,2.67,72,122.74h2.67V263.6l2.67-2.67h32l2.67,2.67V445L1619,447.7h-37.35l-5.34-2.67-72-122.74h-2.67V445L1499,447.7h-32l-2.67-2.67V263.6Z"/></g></svg>