<svg id="Layer_3" data-name="Layer 3" xmlns="http://www.w3.org/2000/svg" viewBox="0 0 1896 5154.75"><defs><style>.cls-1{fill:#fff;stroke:#007444;stroke-width:3px;}</style></defs><title>Artboard 1</title><g id="_Group_" data-name="&lt;Group&gt;"><path class="cls-1" d="M763.71,3.56c-42.69,0-64-26.68-64-53.36l2.67-2.67h32L737-49.8c0,10.67,8,21.35,26.68,21.35,21.35,0,32-13.34,32-32,0-21.35-10.67-32-26.68-32-10.67,0-16,5.34-16,5.34H739.7L737-89.83v-24l37.36-37.35v-2.67h-64l-2.67-2.67v-26.68l2.67-2.67H819.74l2.67,2.67v26.68l-2.67,5.34-34.69,32v2.67c24,0,48,21.34,48,56S809.07,3.56,763.71,3.56Z"/><path class="cls-1" d="M758.63,8.64c-42.69,0-64-26.68-64-53.36l2.67-2.67h32L732-44.73c0,10.67,8,21.35,26.68,21.35,21.35,0,32-13.34,32-32,0-21.35-10.67-32-26.68-32-10.67,0-16,5.34-16,5.34H734.62L732-84.75v-24l37.36-37.35v-2.67h-64l-2.67-2.67v-26.68l2.67-2.67H814.66l2.67,2.67v26.68l-2.67,5.34L780-114.1v2.67c24,0,48,21.34,48,56S804,8.64,758.63,8.64Z"/><path class="cls-1" d="M753.55,13.71c-42.69,0-64-26.68-64-53.36l2.67-2.67h32l2.67,2.67c0,10.67,8,21.35,26.68,21.35,21.35,0,32-13.34,32-32,0-21.35-10.67-32-26.68-32-10.67,0-16,5.34-16,5.34H729.54l-2.67-2.67v-24L764.23-141v-2.67h-64l-2.67-2.67v-26.68l2.67-2.67H809.59l2.67,2.67v26.68L809.59-141,774.9-109v2.67c24,0,48,21.34,48,56S798.91,13.71,753.55,13.71Z"/><path class="cls-1" d="M748.48,18.79c-42.69,0-64-26.68-64-53.36l2.67-2.67h32l2.67,2.67c0,10.67,8,21.35,26.68,21.35,21.35,0,32-13.34,32-32,0-21.35-10.67-32-26.68-32-10.67,0-16,5.34-16,5.34H724.46l-2.67-2.67v-24L759.15-136v-2.67h-64l-2.67-2.67V-168l2.67-2.67H804.51l2.67,2.67v26.68L804.51-136l-34.69,32v2.67c24,0,48,21.34,48,56S793.84,18.79,748.48,18.79Z"/><path class="cls-1" d="M743.4,23.87c-42.69,0-64-26.68-64-53.36L682-32.16h32l2.67,2.67c0,10.67,8,21.35,26.68,21.35,21.35,0,32-13.34,32-32,0-21.35-10.67-32-26.68-32-10.67,0-16,5.34-16,5.34H719.39l-2.67-2.67v-24l37.36-37.35v-2.67H690l-2.67-2.67V-162.9l2.67-2.67H799.43l2.67,2.67v26.68l-2.67,5.34-34.69,32v2.67c24,0,48,21.34,48,56S788.76,23.87,743.4,23.87Z"/><path class="cls-1" d="M738.32,28.95c-42.69,0-64-26.68-64-53.36L677-27.09h32l2.67,2.67c0,10.67,8,21.35,26.68,21.35,21.35,0,32-13.34,32-32,0-21.35-10.67-32-26.68-32-10.67,0-16,5.34-16,5.34H714.31l-2.67-2.67v-24L749-125.81v-2.67H685l-2.67-2.67v-26.68l2.67-2.67H794.35l2.67,2.67v26.68l-2.67,5.34-34.69,32v2.67c24,0,48,21.34,48,56S783.68,28.95,738.32,28.95Z"/><path class="cls-1" d="M733.24,34c-42.69,0-64-26.68-64-53.36L671.88-22h32l2.67,2.67c0,10.67,8,21.35,26.68,21.35,21.35,0,32-13.34,32-32,0-21.35-10.67-32-26.68-32-10.67,0-16,5.34-16,5.34H709.23l-2.67-2.67v-24l37.36-37.35v-2.67h-64l-2.67-2.67v-26.68l2.67-2.67H789.28l2.67,2.67v26.68l-2.67,5.34-34.69,32V-86c24,0,48,21.34,48,56S778.6,34,733.24,34Z"/><path class="cls-1" d="M728.17,39.1c-42.69,0-64-26.68-64-53.36l2.67-2.67h32l2.67,2.67c0,10.67,8,21.35,26.68,21.35,21.35,0,32-13.34,32-32,0-21.35-10.67-32-26.68-32-10.67,0-16,5.34-16,5.34H704.15l-2.67-2.67v-24l37.36-37.35v-2.67h-64L672.14-121v-26.68l2.67-2.67H784.2l2.67,2.67V-121l-2.67,5.34-34.69,32V-81c24,0,48,21.34,48,56S773.53,39.1,728.17,39.1Z"/><path class="cls-1" d="M723.09,44.18c-42.69,0-64-26.68-64-53.36l2.67-2.67h32l2.67,2.67c0,10.67,8,21.35,26.68,21.35,21.35,0,32-13.34,32-32,0-21.35-10.67-32-26.68-32-10.67,0-16,5.34-16,5.34H699.08l-2.67-2.67v-24l37.36-37.35v-2.67h-64l-2.67-2.67v-26.68l2.67-2.67H779.12l2.67,2.67v26.68l-2.67,5.34-34.69,32v2.67c24,0,48,21.34,48,56S768.45,44.18,723.09,44.18Z"/><path class="cls-1" d="M718,49.26c-42.69,0-64-26.68-64-53.36l2.67-2.67h32l2.67,2.67c0,10.67,8,21.35,26.68,21.35,21.35,0,32-13.34,32-32,0-21.35-10.67-32-26.68-32-10.67,0-16,5.34-16,5.34H694l-2.67-2.67v-24l37.36-37.35v-2.67h-64L662-110.83v-26.68l2.67-2.67H774l2.67,2.67v26.68L774-105.5l-34.69,32v2.67c24,0,48,21.35,48,56S763.37,49.26,718,49.26Z"/><path class="cls-1" d="M712.93,54.33c-42.69,0-64-26.68-64-53.36l2.67-2.67h32L686.25,1c0,10.67,8,21.35,26.68,21.35,21.35,0,32-13.34,32-32,0-21.35-10.67-32-26.68-32-10.67,0-16,5.34-16,5.34H688.92l-2.67-2.67v-24l37.36-37.35v-2.67h-64l-2.67-2.67v-26.68l2.67-2.67H769l2.67,2.67v26.68L769-100.42l-34.69,32v2.67c24,0,48,21.35,48,56S758.29,54.33,712.93,54.33Z"/><path class="cls-1" d="M707.86,59.41c-42.69,0-64-26.68-64-53.36l2.67-2.67h32L681.18,6c0,10.67,8,21.35,26.68,21.35,21.35,0,32-13.34,32-32,0-21.35-10.67-32-26.68-32-10.67,0-16,5.34-16,5.34H683.84L681.18-34V-58l37.36-37.35V-98h-64l-2.67-2.67v-26.68l2.67-2.67H763.89l2.67,2.67v26.68l-2.67,5.34-34.69,32v2.67c24,0,48,21.35,48,56S753.22,59.41,707.86,59.41Z"/><path class="cls-1" d="M702.78,64.49c-42.69,0-64-26.68-64-53.36l2.67-2.67h32l2.67,2.67c0,10.67,8,21.35,26.68,21.35,21.35,0,32-13.34,32-32,0-21.35-10.67-32-26.68-32-10.67,0-16,5.34-16,5.34H678.77L676.1-28.9v-24l37.36-37.35v-2.67h-64l-2.67-2.67v-26.68l2.67-2.67H758.81l2.67,2.67V-95.6l-2.67,5.34-34.69,32v2.67c24,0,48,21.35,48,56S748.14,64.49,702.78,64.49Z"/><path class="cls-1" d="M697.7,69.56c-42.69,0-64-26.68-64-53.36l2.67-2.67h32L671,16.2c0,10.67,8,21.35,26.68,21.35,21.35,0,32-13.34,32-32,0-21.35-10.67-32-26.68-32-10.67,0-16,5.34-16,5.34H673.69L671-23.82v-24l37.36-37.35v-2.67h-64l-2.67-2.67v-26.68l2.67-2.67H753.73l2.67,2.67v26.68l-2.67,5.34L719-53.17v2.67c24,0,48,21.35,48,56S743.06,69.56,697.7,69.56Z"/><path class="cls-1" d="M692.63,74.64c-42.69,0-64-26.68-64-53.36l2.67-2.67h32l2.67,2.67c0,10.67,8,21.35,26.68,21.35,21.35,0,32-13.34,32-32,0-21.35-10.67-32-26.68-32-10.67,0-16,5.34-16,5.34H668.61l-2.67-2.67v-24L703.3-80.11v-2.67h-64l-2.67-2.67v-26.68l2.67-2.67H748.66l2.67,2.67v26.68l-2.67,5.34L714-48.09v2.67c24,0,48,21.35,48,56S738,74.64,692.63,74.64Z"/><path class="cls-1" d="M687.55,79.72c-42.69,0-64-26.68-64-53.36l2.67-2.67h32l2.67,2.67c0,10.67,8,21.35,26.68,21.35,21.35,0,32-13.34,32-32,0-21.35-10.67-32-26.68-32-10.67,0-16,5.34-16,5.34H663.53l-2.67-2.67v-24L698.22-75V-77.7h-64l-2.67-2.67v-26.68l2.67-2.67H743.58l2.67,2.67v26.68L743.58-75,708.89-43v2.67c24,0,48,21.35,48,56S732.91,79.72,687.55,79.72Z"/><path class="cls-1" d="M682.47,84.8c-42.69,0-64-26.68-64-53.36l2.67-2.67h32l2.67,2.67c0,10.67,8,21.35,26.68,21.35,21.35,0,32-13.34,32-32,0-21.35-10.67-32-26.68-32-10.67,0-16,5.34-16,5.34H658.46l-2.67-2.67v-24L693.14-70v-2.67h-64l-2.67-2.67V-102l2.67-2.67H738.5l2.67,2.67v26.68L738.5-70l-34.69,32v2.67c24,0,48,21.35,48,56S727.83,84.8,682.47,84.8Z"/><path class="cls-1" d="M677.39,89.87c-42.69,0-64-26.68-64-53.36L616,33.84h32l2.67,2.67c0,10.67,8,21.35,26.68,21.35,21.35,0,32-13.34,32-32,0-21.35-10.67-32-26.68-32-10.67,0-16,5.34-16,5.34H653.38l-2.67-2.67v-24l37.36-37.35v-2.67H624l-2.67-2.67V-96.9L624-99.56H733.42l2.67,2.67v26.68l-2.67,5.34-34.69,32v2.67c24,0,48,21.35,48,56S722.75,89.87,677.39,89.87Z"/><path class="cls-1" d="M672.32,95c-42.69,0-64-26.68-64-53.36l2.67-2.67h32l2.67,2.67c0,10.67,8,21.35,26.68,21.35,21.35,0,32-13.34,32-32,0-21.35-10.67-32-26.68-32-10.67,0-16,5.34-16,5.34H648.3l-2.67-2.67v-24L683-59.8v-2.67H619l-2.67-2.67V-91.82L619-94.49H728.35L731-91.82v26.68l-2.67,5.34-34.69,32v2.67c24,0,48,21.35,48,56S717.67,95,672.32,95Z"/><path class="cls-1" d="M667.24,100c-42.69,0-64-26.68-64-53.36L605.87,44h32l2.67,2.67c0,10.67,8,21.35,26.68,21.35,21.35,0,32-13.34,32-32,0-21.35-10.67-32-26.68-32-10.67,0-16,5.34-16,5.34H643.22l-2.67-2.67v-24l37.36-37.35v-2.67h-64l-2.67-2.67V-86.74l2.67-2.67H723.27l2.67,2.67v26.68l-2.67,5.34-34.69,32V-20c24,0,48,21.35,48,56S712.6,100,667.24,100Z"/><path class="cls-1" d="M662.16,105.11c-42.69,0-64-26.68-64-53.36l2.67-2.67h32l2.67,2.67c0,10.67,8,21.35,26.68,21.35,21.35,0,32-13.34,32-32,0-21.35-10.67-32-26.68-32-10.67,0-16,5.34-16,5.34H638.15l-2.67-2.67v-24l37.36-37.35v-2.67h-64L606.13-55V-81.66l2.67-2.67H718.19l2.67,2.67V-55l-2.67,5.34-34.69,32V-15c24,0,48,21.35,48,56S707.52,105.11,662.16,105.11Z"/><path class="cls-1" d="M657.08,110.18c-42.69,0-64-26.68-64-53.36l2.67-2.67h32l2.67,2.67c0,10.67,8,21.35,26.68,21.35,21.35,0,32-13.34,32-32,0-21.35-10.67-32-26.68-32-10.67,0-16,5.34-16,5.34H633.07L630.4,16.8v-24l37.36-37.35v-2.67h-64l-2.67-2.67V-76.59l2.67-2.67H713.11l2.67,2.67V-49.9l-2.67,5.34-34.69,32v2.67c24,0,48,21.35,48,56S702.44,110.18,657.08,110.18Z"/><path class="cls-1" d="M652,115.26c-42.69,0-64-26.68-64-53.36l2.67-2.67h32l2.67,2.67c0,10.67,8,21.35,26.68,21.35,21.35,0,32-13.34,32-32,0-21.35-10.67-32-26.68-32-10.67,0-16,5.34-16,5.34H628l-2.67-2.67v-24l37.36-37.35v-2.67h-64L596-44.83V-71.51l2.67-2.67H708l2.67,2.67v26.68L708-39.49l-34.69,32V-4.8c24,0,48,21.35,48,56S697.37,115.26,652,115.26Z"/><path class="cls-1" d="M646.93,120.34c-42.69,0-64-26.68-64-53.36l2.67-2.67h32L620.25,67c0,10.67,8,21.35,26.68,21.35,21.35,0,32-13.34,32-32,0-21.35-10.67-32-26.68-32-10.67,0-16,5.34-16,5.34H622.91L620.25,27v-24L657.6-34.41v-2.67h-64l-2.67-2.67V-66.43l2.67-2.67H703l2.67,2.67v26.68L703-34.41l-34.69,32V.27c24,0,48,21.35,48,56S692.29,120.34,646.93,120.34Z"/><path class="cls-1" d="M641.85,125.42c-42.69,0-64-26.68-64-53.36l2.67-2.67h32l2.67,2.67c0,10.67,8,21.35,26.68,21.35,21.35,0,32-13.34,32-32,0-21.35-10.67-32-26.68-32-10.67,0-16,5.34-16,5.34H617.84L615.17,32V8l37.36-37.35V-32h-64l-2.67-2.67V-61.35L588.49-64H697.88l2.67,2.67v26.68l-2.67,5.34-34.69,32V5.35c24,0,48,21.35,48,56S687.21,125.42,641.85,125.42Z"/><path class="cls-1" d="M636.77,130.49c-42.69,0-64-26.68-64-53.36l2.67-2.67h32l2.67,2.67c0,10.67,8,21.35,26.68,21.35,21.35,0,32-13.34,32-32,0-21.35-10.67-32-26.68-32-10.67,0-16,5.34-16,5.34H612.76l-2.67-2.67v-24l37.36-37.35v-2.67h-64l-2.67-2.67V-56.28l2.67-2.67H692.81l2.67,2.67v26.68l-2.67,5.34-34.69,32v2.67c24,0,48,21.35,48,56S682.13,130.49,636.77,130.49Z"/><path class="cls-1" d="M631.7,135.57c-42.69,0-64-26.68-64-53.36l2.67-2.67h32L605,82.21c0,10.67,8,21.35,26.68,21.35,21.35,0,32-13.34,32-32,0-21.35-10.67-32-26.68-32-10.67,0-16,5.34-16,5.34H607.68L605,42.19v-24l37.36-37.35v-2.67h-64l-2.67-2.67V-51.2l2.67-2.67H687.73l2.67,2.67v26.68l-2.67,5.34L653,12.84V15.5c24,0,48,21.35,48,56S677.06,135.57,631.7,135.57Z"/><path class="cls-1" d="M626.62,140.65c-42.69,0-64-26.68-64-53.36l2.67-2.67h32l2.67,2.67c0,10.67,8,21.35,26.68,21.35,21.35,0,32-13.34,32-32,0-21.35-10.67-32-26.68-32-10.67,0-16,5.34-16,5.34H602.61l-2.67-2.67v-24L637.29-14.1v-2.67h-64l-2.67-2.67V-46.12l2.67-2.67H682.65l2.67,2.67v26.68l-2.67,5.34L648,17.91v2.67c24,0,48,21.35,48,56S672,140.65,626.62,140.65Z"/><path class="cls-1" d="M621.54,145.73c-42.69,0-64-26.68-64-53.36l2.67-2.67h32l2.67,2.67c0,10.67,8,21.35,26.68,21.35,21.35,0,32-13.34,32-32,0-21.35-10.67-32-26.68-32-10.67,0-16,5.34-16,5.34H597.53l-2.67-2.67v-24L632.21-9v-2.67h-64l-2.67-2.67V-41l2.67-2.67H677.57L680.24-41v26.68L677.57-9,642.89,23v2.67c24,0,48,21.35,48,56S666.9,145.73,621.54,145.73Z"/><path class="cls-1" d="M616.46,150.8c-42.69,0-64-26.68-64-53.36l2.67-2.67h32l2.67,2.67c0,10.67,8,21.35,26.68,21.35,21.35,0,32-13.34,32-32,0-21.35-10.67-32-26.68-32-10.67,0-16,5.34-16,5.34H592.45l-2.67-2.67v-24L627.14-3.95V-6.62h-64l-2.67-2.67V-36l2.67-2.67H672.5L675.16-36V-9.29L672.5-3.95l-34.69,32v2.67c24,0,48,21.35,48,56S661.82,150.8,616.46,150.8Z"/><path class="cls-1" d="M611.39,155.88c-42.69,0-64-26.68-64-53.36L550,99.85h32l2.67,2.67c0,10.67,8,21.35,26.68,21.35,21.35,0,32-13.34,32-32,0-21.35-10.67-32-26.68-32-10.67,0-16,5.34-16,5.34H587.37l-2.67-2.67v-24L622.06,1.13V-1.54H558l-2.67-2.67V-30.89L558-33.56H667.42l2.67,2.67V-4.21l-2.67,5.34-34.69,32v2.67c24,0,48,21.35,48,56S656.75,155.88,611.39,155.88Z"/><path class="cls-1" d="M606.31,161c-42.69,0-64-26.68-64-53.36l2.67-2.67h32l2.67,2.67c0,10.67,8,21.35,26.68,21.35,21.35,0,32-13.34,32-32,0-21.35-10.67-32-26.68-32-10.67,0-16,5.34-16,5.34H582.3l-2.67-2.67v-24L617,6.21V3.54h-64L550.28.87V-25.81l2.67-2.67H662.34L665-25.81V.87l-2.67,5.34-34.69,32v2.67c24,0,48,21.35,48,56S651.67,161,606.31,161Z"/><path class="cls-1" d="M601.23,166c-42.69,0-64-26.68-64-53.36l2.67-2.67h32l2.67,2.67c0,10.67,8,21.35,26.68,21.35,21.35,0,32-13.34,32-32,0-21.35-10.67-32-26.68-32-10.67,0-16,5.34-16,5.34H577.22l-2.67-2.67v-24l37.35-37.35V8.62h-64L545.2,5.95V-20.73l2.67-2.67H657.26l2.67,2.67V5.95l-2.67,5.34-34.69,32V46c24,0,48,21.35,48,56S646.59,166,601.23,166Z"/><path class="cls-1" d="M596.15,171.11c-42.69,0-64-26.68-64-53.36l2.67-2.67h32l2.67,2.67c0,10.67,8,21.35,26.68,21.35,21.35,0,32-13.34,32-32,0-21.35-10.67-32-26.68-32-10.67,0-16,5.34-16,5.34H572.14l-2.67-2.67v-24l37.35-37.35V13.69h-64L540.12,11V-15.66l2.67-2.67H652.19l2.67,2.67V11l-2.67,5.34-34.69,32V51c24,0,48,21.35,48,56S641.51,171.11,596.15,171.11Z"/><path class="cls-1" d="M591.08,176.19c-42.69,0-64-26.68-64-53.36l2.67-2.67h32l2.67,2.67c0,10.67,8,21.35,26.68,21.35,21.35,0,32-13.34,32-32,0-21.35-10.67-32-26.68-32-10.67,0-16,5.34-16,5.34H567.06l-2.67-2.67v-24l37.35-37.35V18.77h-64L535,16.1V-10.58l2.67-2.67H647.11l2.67,2.67V16.1l-2.67,5.34-34.69,32v2.67c24,0,48,21.35,48,56S636.44,176.19,591.08,176.19Z"/><path class="cls-1" d="M586,181.27c-42.69,0-64-26.68-64-53.36l2.67-2.67h32l2.67,2.67c0,10.67,8,21.35,26.68,21.35,21.35,0,32-13.34,32-32,0-21.35-10.67-32-26.68-32-10.67,0-16,5.34-16,5.34H562l-2.67-2.67v-24l37.35-37.35V23.85h-64L530,21.18V-5.5l2.67-2.67H642L644.7-5.5V21.18L642,26.52l-34.69,32V61.2c24,0,48,21.35,48,56S631.36,181.27,586,181.27Z"/><path class="cls-1" d="M580.92,186.35c-42.69,0-64-26.68-64-53.36l2.67-2.67h32l2.67,2.67c0,10.67,8,21.35,26.68,21.35,21.35,0,32-13.34,32-32,0-21.35-10.67-32-26.68-32-10.67,0-16,5.34-16,5.34H556.91L554.24,93v-24L591.6,31.59V28.92h-64l-2.67-2.67V-.42l2.67-2.67H637l2.67,2.67V26.26L637,31.59l-34.69,32v2.67c24,0,48,21.35,48,56S626.28,186.35,580.92,186.35Z"/><path class="cls-1" d="M575.84,191.42c-42.69,0-64-26.68-64-53.36l2.67-2.67h32l2.67,2.67c0,10.67,8,21.35,26.68,21.35,21.35,0,32-13.34,32-32,0-21.35-10.67-32-26.68-32-10.67,0-16,5.34-16,5.34H551.83L549.16,98V74l37.35-37.35V34h-64l-2.67-2.67V4.65L522.48,2H631.88l2.67,2.67V31.33l-2.67,5.34-34.69,32v2.67c24,0,48,21.35,48,56S621.2,191.42,575.84,191.42Z"/><path class="cls-1" d="M570.77,196.5c-42.69,0-64-26.68-64-53.36l2.67-2.67h32l2.67,2.67c0,10.67,8,21.35,26.68,21.35,21.35,0,32-13.34,32-32,0-21.35-10.67-32-26.68-32-10.67,0-16,5.34-16,5.34H546.75l-2.67-2.67v-24l37.35-37.35V39.08h-64l-2.67-2.67V9.73l2.67-2.67H626.8l2.67,2.67V36.41l-2.67,5.34-34.69,32v2.67c24,0,48,21.35,48,56S616.13,196.5,570.77,196.5Z"/><path class="cls-1" d="M565.69,201.58c-42.69,0-64-26.68-64-53.36l2.67-2.67h32l2.67,2.67c0,10.67,8,21.35,26.68,21.35,21.35,0,32-13.34,32-32,0-21.35-10.67-32-26.68-32-10.67,0-16,5.34-16,5.34H541.68L539,108.19v-24l37.35-37.35V44.16h-64l-2.67-2.67V14.81l2.67-2.67H621.72l2.67,2.67V41.49l-2.67,5.34L587,78.84v2.67c24,0,48,21.35,48,56S611,201.58,565.69,201.58Z"/><path class="cls-1" d="M560.61,206.66c-42.69,0-64-26.68-64-53.36l2.67-2.67h32l2.67,2.67c0,10.67,8,21.35,26.68,21.35,21.35,0,32-13.34,32-32,0-21.35-10.67-32-26.68-32-10.67,0-16,5.34-16,5.34H536.6l-2.67-2.67v-24L571.29,51.9V49.23h-64l-2.67-2.67V19.88l2.67-2.67H616.64l2.67,2.67V46.57l-2.67,5.34L582,83.92v2.67c24,0,48,21.35,48,56S606,206.66,560.61,206.66Z"/><path class="cls-1" d="M555.54,211.73c-42.69,0-64-26.68-64-53.36l2.67-2.67h32l2.67,2.67c0,10.67,8,21.35,26.68,21.35,21.35,0,32-13.34,32-32,0-21.35-10.67-32-26.68-32-10.67,0-16,5.34-16,5.34H531.52l-2.67-2.67v-24L566.21,57V54.31h-64l-2.67-2.67V25l2.67-2.67H611.57L614.23,25V51.64L611.57,57,576.88,89v2.67c24,0,48,21.35,48,56S600.89,211.73,555.54,211.73Z"/><path class="cls-1" d="M550.46,216.81c-42.69,0-64-26.68-64-53.36l2.67-2.67h32l2.67,2.67c0,10.67,8,21.35,26.68,21.35,21.35,0,32-13.34,32-32,0-21.35-10.67-32-26.68-32-10.67,0-16,5.34-16,5.34H526.44l-2.67-2.67v-24l37.35-37.35V59.39h-64l-2.67-2.67V30l2.67-2.67H606.49L609.16,30V56.72l-2.67,5.34-34.69,32v2.67c24,0,48,21.35,48,56S595.82,216.81,550.46,216.81Z"/><path class="cls-1" d="M545.38,221.89c-42.69,0-64-26.68-64-53.36l2.67-2.67h32l2.67,2.67c0,10.67,8,21.35,26.68,21.35,21.35,0,32-13.34,32-32,0-21.35-10.67-32-26.68-32-10.67,0-16,5.34-16,5.34H521.37l-2.67-2.67v-24l37.35-37.35V64.47H492l-2.67-2.67V35.12L492,32.45H601.41l2.67,2.67V61.8l-2.67,5.34-34.69,32v2.67c24,0,48,21.35,48,56S590.74,221.89,545.38,221.89Z"/><path class="cls-1" d="M540.3,227c-42.69,0-64-26.68-64-53.36l2.67-2.67h32l2.67,2.67c0,10.67,8,21.35,26.68,21.35,21.35,0,32-13.34,32-32,0-21.35-10.67-32-26.68-32-10.67,0-16,5.34-16,5.34H516.29l-2.67-2.67v-24L551,72.21V69.54h-64l-2.67-2.67V40.19l2.67-2.67H596.33L599,40.19V66.88l-2.67,5.34-34.69,32v2.67c24,0,48,21.35,48,56S585.66,227,540.3,227Z"/><path class="cls-1" d="M535.23,232c-42.69,0-64-26.68-64-53.36l2.67-2.67h32l2.67,2.67c0,10.67,8,21.35,26.68,21.35,21.35,0,32-13.34,32-32,0-21.35-10.67-32-26.68-32-10.67,0-16,5.34-16,5.34H511.21l-2.67-2.67v-24L545.9,77.29V74.62h-64L479.19,72V45.27l2.67-2.67H591.26l2.67,2.67V72l-2.67,5.34-34.69,32V112c24,0,48,21.35,48,56S580.58,232,535.23,232Z"/><path class="cls-1" d="M530.15,237.12c-42.69,0-64-26.68-64-53.36l2.67-2.67h32l2.67,2.67c0,10.67,8,21.35,26.68,21.35,21.35,0,32-13.34,32-32,0-21.35-10.67-32-26.68-32-10.67,0-16,5.34-16,5.34H506.13l-2.67-2.67v-24l37.35-37.35V79.7h-64L474.12,77V50.35l2.67-2.67H586.18l2.67,2.67V77l-2.67,5.34-34.69,32v2.67c24,0,48,21.35,48,56S575.51,237.12,530.15,237.12Z"/><path class="cls-1" d="M525.07,242.2c-42.69,0-64-26.68-64-53.36l2.67-2.67h32l2.67,2.67c0,10.67,8,21.35,26.68,21.35,21.35,0,32-13.34,32-32,0-21.35-10.67-32-26.68-32-10.67,0-16,5.34-16,5.34H501.06l-2.67-2.67v-24l37.35-37.35V84.78h-64L469,82.11V55.43l2.67-2.67H581.1l2.67,2.67V82.11l-2.67,5.34-34.69,32v2.67c24,0,48,21.35,48,56S570.43,242.2,525.07,242.2Z"/><path class="cls-1" d="M520,247.27c-42.69,0-64-26.68-64-53.36l2.67-2.67h32l2.67,2.67c0,10.67,8,21.35,26.68,21.35,21.35,0,32-13.34,32-32,0-21.35-10.67-32-26.68-32-10.67,0-16,5.34-16,5.34H496l-2.67-2.67v-24l37.35-37.35V89.85h-64L464,87.19V60.5l2.67-2.67H576l2.67,2.67V87.19L576,92.52l-34.69,32v2.67c24,0,48,21.35,48,56S565.35,247.27,520,247.27Z"/><path class="cls-1" d="M514.92,252.35c-42.69,0-64-26.68-64-53.36l2.67-2.67h32l2.67,2.67c0,10.67,8,21.35,26.68,21.35,21.35,0,32-13.34,32-32,0-21.35-10.67-32-26.68-32-10.67,0-16,5.34-16,5.34H490.9L488.23,159V135L525.59,97.6V94.93h-64l-2.67-2.67V65.58l2.67-2.67H570.95l2.67,2.67V92.26l-2.67,5.34-34.69,32v2.67c24,0,48,21.35,48,56S560.27,252.35,514.92,252.35Z"/><path class="cls-1" d="M509.84,257.43c-42.69,0-64-26.68-64-53.36l2.67-2.67h32l2.67,2.67c0,10.67,8,21.35,26.68,21.35,21.35,0,32-13.34,32-32,0-21.35-10.67-32-26.68-32-10.67,0-16,5.34-16,5.34H485.82L483.16,164V140l37.35-37.35V100h-64l-2.67-2.67V70.66L456.48,68H565.87l2.67,2.67V97.34l-2.67,5.34-34.69,32v2.67c24,0,48,21.35,48,56S555.2,257.43,509.84,257.43Z"/><path class="cls-1" d="M504.76,262.51c-42.69,0-64-26.68-64-53.36l2.67-2.67h32l2.67,2.67c0,10.67,8,21.35,26.68,21.35,21.35,0,32-13.34,32-32,0-21.35-10.67-32-26.68-32-10.67,0-16,5.34-16,5.34H480.75l-2.67-2.67v-24l37.35-37.35v-2.67h-64l-2.67-2.67V75.74l2.67-2.67H560.79l2.67,2.67v26.68l-2.67,5.34-34.69,32v2.67c24,0,48,21.35,48,56S550.12,262.51,504.76,262.51Z"/><path class="cls-1" d="M499.68,267.58c-42.69,0-64-26.68-64-53.36l2.67-2.67h32l2.67,2.67c0,10.67,8,21.35,26.68,21.35,21.35,0,32-13.34,32-32,0-21.35-10.67-32-26.68-32-10.67,0-16,5.34-16,5.34H475.67L473,174.2v-24l37.35-37.35v-2.67h-64l-2.67-2.67V80.81l2.67-2.67H555.71l2.67,2.67V107.5l-2.67,5.34-34.69,32v2.67c24,0,48,21.35,48,56S545,267.58,499.68,267.58Z"/><path class="cls-1" d="M494.61,272.66c-42.69,0-64-26.68-64-53.36l2.67-2.67h32l2.67,2.67c0,10.67,8,21.35,26.68,21.35,21.35,0,32-13.34,32-32,0-21.35-10.67-32-26.68-32-10.67,0-16,5.34-16,5.34H470.59l-2.67-2.67v-24l37.35-37.35v-2.67h-64l-2.67-2.67V85.89l2.67-2.67H550.64l2.67,2.67v26.68l-2.67,5.34-34.69,32v2.67c24,0,48,21.35,48,56S540,272.66,494.61,272.66Z"/><path class="cls-1" d="M489.53,277.74c-42.69,0-64-26.68-64-53.36l2.67-2.67h32l2.67,2.67c0,10.67,8,21.35,26.68,21.35,21.35,0,32-13.34,32-32,0-21.35-10.67-32-26.68-32-10.67,0-16,5.34-16,5.34H465.52l-2.67-2.67v-24L500.2,123v-2.67h-64l-2.67-2.67V91l2.67-2.67H545.56L548.23,91v26.68L545.56,123l-34.69,32v2.67c24,0,48,21.35,48,56S534.89,277.74,489.53,277.74Z"/><path class="cls-1" d="M484.45,282.82c-42.69,0-64-26.68-64-53.36l2.67-2.67h32l2.67,2.67c0,10.67,8,21.35,26.68,21.35,21.35,0,32-13.34,32-32,0-21.35-10.67-32-26.68-32-10.67,0-16,5.34-16,5.34H460.44l-2.67-2.67v-24l37.35-37.35V125.4h-64l-2.67-2.67V96l2.67-2.67H540.48L543.15,96v26.68l-2.67,5.34-34.69,32v2.67c24,0,48,21.35,48,56S529.81,282.82,484.45,282.82Z"/><path class="cls-1" d="M479.37,287.89c-42.69,0-64-26.68-64-53.36l2.67-2.67h32l2.67,2.67c0,10.67,8,21.35,26.68,21.35,21.35,0,32-13.34,32-32,0-21.35-10.67-32-26.68-32-10.67,0-16,5.34-16,5.34H455.36l-2.67-2.67v-24L490,133.14v-2.67H426l-2.67-2.67V101.12L426,98.46H535.41l2.67,2.67v26.68l-2.67,5.34-34.69,32v2.67c24,0,48,21.35,48,56S524.73,287.89,479.37,287.89Z"/><path class="cls-1" d="M474.3,293c-42.69,0-64-26.68-64-53.36l2.67-2.67h32l2.67,2.67c0,10.67,8,21.35,26.68,21.35,21.35,0,32-13.34,32-32,0-21.35-10.67-32-26.68-32-10.67,0-16,5.34-16,5.34H450.28l-2.67-2.67v-24L485,138.22v-2.67h-64l-2.67-2.67V106.2l2.67-2.67H530.33L533,106.2v26.68l-2.67,5.34-34.69,32v2.67c24,0,48,21.35,48,56S519.66,293,474.3,293Z"/><path class="cls-1" d="M469.22,298c-42.69,0-64-26.68-64-53.36l2.67-2.67h32l2.67,2.67c0,10.67,8,21.35,26.68,21.35,21.35,0,32-13.34,32-32,0-21.35-10.67-32-26.68-32-10.67,0-16,5.34-16,5.34H445.21l-2.67-2.67v-24l37.35-37.35v-2.67h-64L413.19,138V111.28l2.67-2.67H525.25l2.67,2.67V138l-2.67,5.34-34.69,32V178c24,0,48,21.35,48,56S514.58,298,469.22,298Z"/><path class="cls-1" d="M464.14,303.13c-42.69,0-64-26.68-64-53.36l2.67-2.67h32l2.67,2.67c0,10.67,8,21.35,26.68,21.35,21.35,0,32-13.34,32-32,0-21.35-10.67-32-26.68-32-10.67,0-16,5.34-16,5.34H440.13l-2.67-2.67v-24l37.35-37.35v-2.67h-64L408.11,143V116.36l2.67-2.67H520.17l2.67,2.67V143l-2.67,5.34-34.69,32v2.67c24,0,48,21.35,48,56S509.5,303.13,464.14,303.13Z"/><path class="cls-1" d="M459.06,308.2c-42.69,0-64-26.68-64-53.36l2.67-2.67h32l2.67,2.67c0,10.67,8,21.35,26.68,21.35,21.35,0,32-13.34,32-32,0-21.35-10.67-32-26.68-32-10.67,0-16,5.34-16,5.34H435.05l-2.67-2.67v-24l37.35-37.35v-2.67h-64L403,148.11V121.43l2.67-2.67H515.1l2.67,2.67v26.68l-2.67,5.34-34.69,32v2.67c24,0,48,21.35,48,56S504.42,308.2,459.06,308.2Z"/><path class="cls-1" d="M454,313.28c-42.69,0-64-26.68-64-53.36l2.67-2.67h32l2.67,2.67c0,10.67,8,21.35,26.68,21.35,21.35,0,32-13.34,32-32,0-21.35-10.67-32-26.68-32-10.67,0-16,5.34-16,5.34H430l-2.67-2.67v-24l37.35-37.35v-2.67h-64L398,153.19V126.51l2.67-2.67H510l2.67,2.67v26.68L510,158.53l-34.69,32v2.67c24,0,48,21.35,48,56S499.35,313.28,454,313.28Z"/><path class="cls-1" d="M448.91,318.36c-42.69,0-64-26.68-64-53.36l2.67-2.67h32l2.67,2.67c0,10.67,8,21.35,26.68,21.35,21.35,0,32-13.34,32-32,0-21.35-10.67-32-26.68-32-10.67,0-16,5.34-16,5.34H424.9L422.23,225V201l37.35-37.35v-2.67h-64l-2.67-2.67V131.59l2.67-2.67H504.94l2.67,2.67v26.68l-2.67,5.34-34.69,32v2.67c24,0,48,21.35,48,56S494.27,318.36,448.91,318.36Z"/><path class="cls-1" d="M443.83,323.44c-42.69,0-64-26.68-64-53.36l2.67-2.67h32l2.67,2.67c0,10.67,8,21.35,26.68,21.35,21.35,0,32-13.34,32-32,0-21.35-10.67-32-26.68-32-10.67,0-16,5.34-16,5.34H419.82l-2.67-2.67V206l37.35-37.35V166h-64l-2.67-2.67V136.67l2.67-2.67H499.86l2.67,2.67v26.68l-2.67,5.34-34.69,32v2.67c24,0,48,21.35,48,56S489.19,323.44,443.83,323.44Z"/><path class="cls-1" d="M438.75,328.51c-42.69,0-64-26.68-64-53.36l2.67-2.67h32l2.67,2.67c0,10.67,8,21.35,26.68,21.35,21.35,0,32-13.34,32-32,0-21.35-10.67-32-26.68-32-10.67,0-16,5.34-16,5.34H414.74l-2.67-2.67v-24l37.35-37.35v-2.67h-64l-2.67-2.67V141.74l2.67-2.67H494.79l2.67,2.67v26.68l-2.67,5.34-34.69,32v2.67c24,0,48,21.35,48,56S484.11,328.51,438.75,328.51Z"/><path class="cls-1" d="M433.68,333.59c-42.69,0-64-26.68-64-53.36l2.67-2.67h32l2.67,2.67c0,10.67,8,21.35,26.68,21.35,21.35,0,32-13.34,32-32,0-21.35-10.67-32-26.68-32-10.67,0-16,5.34-16,5.34H409.66L407,240.21v-24l37.35-37.35v-2.67h-64l-2.67-2.67V146.82l2.67-2.67H489.71l2.67,2.67V173.5l-2.67,5.34-34.69,32v2.67c24,0,48,21.35,48,56S479,333.59,433.68,333.59Z"/><path class="cls-1" d="M428.6,338.67c-42.69,0-64-26.68-64-53.36l2.67-2.67h32l2.67,2.67c0,10.67,8,21.35,26.68,21.35,21.35,0,32-13.34,32-32,0-21.35-10.67-32-26.68-32-10.67,0-16,5.34-16,5.34H404.59l-2.67-2.67v-24l37.35-37.35v-2.67h-64l-2.67-2.67V151.9l2.67-2.67H484.63l2.67,2.67v26.68l-2.67,5.34-34.69,32v2.67c24,0,48,21.35,48,56S474,338.67,428.6,338.67Z"/><path class="cls-1" d="M423.52,343.75c-42.69,0-64-26.68-64-53.36l2.67-2.67h32l2.67,2.67c0,10.67,8,21.35,26.68,21.35,21.35,0,32-13.34,32-32,0-21.35-10.67-32-26.68-32-10.67,0-16,5.34-16,5.34H399.51l-2.67-2.67v-24L434.2,189v-2.67h-64l-2.67-2.67V157l2.67-2.67H479.55l2.67,2.67v26.68L479.55,189l-34.69,32v2.67c24,0,48,21.35,48,56S468.88,343.75,423.52,343.75Z"/><path class="cls-1" d="M418.45,348.82c-42.69,0-64-26.68-64-53.36l2.67-2.67h32l2.67,2.67c0,10.67,8,21.35,26.68,21.35,21.35,0,32-13.34,32-32,0-21.35-10.67-32-26.68-32-10.67,0-16,5.34-16,5.34H394.43l-2.67-2.67v-24l37.35-37.35V191.4h-64l-2.67-2.67V162.05l2.67-2.67H474.48l2.67,2.67v26.68l-2.67,5.34-34.69,32v2.67c24,0,48,21.35,48,56S463.8,348.82,418.45,348.82Z"/><path class="cls-1" d="M413.37,353.9c-42.69,0-64-26.68-64-53.36l2.67-2.67h32l2.67,2.67c0,10.67,8,21.35,26.68,21.35,21.35,0,32-13.34,32-32,0-21.35-10.67-32-26.68-32-10.67,0-16,5.34-16,5.34H389.35l-2.67-2.67v-24L424,199.15v-2.67H360l-2.67-2.67V167.13l2.67-2.67H469.4l2.67,2.67v26.68l-2.67,5.34-34.69,32v2.67c24,0,48,21.35,48,56S458.73,353.9,413.37,353.9Z"/><path class="cls-1" d="M408.29,359c-42.69,0-64-26.68-64-53.36l2.67-2.67h32l2.67,2.67c0,10.67,8,21.35,26.68,21.35,21.35,0,32-13.34,32-32,0-21.35-10.67-32-26.68-32-10.67,0-16,5.34-16,5.34H384.28l-2.67-2.67v-24L419,204.23v-2.67h-64l-2.67-2.67V172.21l2.67-2.67H464.32l2.67,2.67v26.68l-2.67,5.34-34.69,32v2.67c24,0,48,21.35,48,56S453.65,359,408.29,359Z"/><path class="cls-1" d="M403.21,364.06c-42.69,0-64-26.68-64-53.36l2.67-2.67h32l2.67,2.67c0,10.67,8,21.35,26.68,21.35,21.35,0,32-13.34,32-32,0-21.35-10.67-32-26.68-32-10.67,0-16,5.34-16,5.34H379.2l-2.67-2.67v-24l37.35-37.35v-2.67h-64L347.18,204V177.28l2.67-2.67H459.24l2.67,2.67V204l-2.67,5.34-34.69,32V244c24,0,48,21.35,48,56S448.57,364.06,403.21,364.06Z"/><path class="cls-1" d="M398.14,369.13c-42.69,0-64-26.68-64-53.36l2.67-2.67h32l2.67,2.67c0,10.67,8,21.35,26.68,21.35,21.35,0,32-13.34,32-32,0-21.35-10.67-32-26.68-32-10.67,0-16,5.34-16,5.34H374.12l-2.67-2.67v-24l37.35-37.35v-2.67h-64L342.1,209V182.36l2.67-2.67H454.17l2.67,2.67V209l-2.67,5.34-34.69,32v2.67c24,0,48,21.35,48,56S443.49,369.13,398.14,369.13Z"/><path class="cls-1" d="M393.06,374.21c-42.69,0-64-26.68-64-53.36l2.67-2.67h32l2.67,2.67c0,10.67,8,21.35,26.68,21.35,21.35,0,32-13.34,32-32,0-21.35-10.67-32-26.68-32-10.67,0-16,5.34-16,5.34H369l-2.67-2.67v-24l37.35-37.35v-2.67h-64L337,214.12V187.44l2.67-2.67H449.09l2.67,2.67v26.68l-2.67,5.34-34.69,32v2.67c24,0,48,21.35,48,56S438.42,374.21,393.06,374.21Z"/><path class="cls-1" d="M388,379.29c-42.69,0-64-26.68-64-53.36l2.67-2.67h32l2.67,2.67c0,10.67,8,21.35,26.68,21.35,21.35,0,32-13.34,32-32,0-21.35-10.67-32-26.68-32-10.67,0-16,5.34-16,5.34H364l-2.67-2.67v-24l37.35-37.35v-2.67h-64l-2.67-2.67V192.52l2.67-2.67H444l2.67,2.67V219.2L444,224.53l-34.69,32v2.67c24,0,48,21.35,48,56S433.34,379.29,388,379.29Z"/><path class="cls-1" d="M382.9,384.36c-42.69,0-64-26.68-64-53.36l2.67-2.67h32l2.67,2.67c0,10.67,8,21.35,26.68,21.35,21.35,0,32-13.34,32-32,0-21.35-10.67-32-26.68-32-10.67,0-16,5.34-16,5.34H358.89L356.22,291V267l37.35-37.35v-2.67h-64l-2.67-2.67V197.59l2.67-2.67H438.93l2.67,2.67v26.68l-2.67,5.34-34.69,32v2.67c24,0,48,21.35,48,56S428.26,384.36,382.9,384.36Z"/><path class="cls-1" d="M377.83,389.44c-42.69,0-64-26.68-64-53.36l2.67-2.67h32l2.67,2.67c0,10.67,8,21.35,26.68,21.35,21.35,0,32-13.34,32-32,0-21.35-10.67-32-26.68-32-10.67,0-16,5.34-16,5.34H353.81l-2.67-2.67V272l37.35-37.35V232h-64l-2.67-2.67V202.67l2.67-2.67H433.86l2.67,2.67v26.68l-2.67,5.34-34.69,32v2.67c24,0,48,21.35,48,56S423.18,389.44,377.83,389.44Z"/><path class="cls-1" d="M372.75,394.52c-42.69,0-64-26.68-64-53.36l2.67-2.67h32l2.67,2.67c0,10.67,8,21.35,26.68,21.35,21.35,0,32-13.34,32-32,0-21.35-10.67-32-26.68-32-10.67,0-16,5.34-16,5.34H348.73l-2.67-2.67v-24l37.35-37.35V237.1h-64l-2.67-2.67V207.75l2.67-2.67H428.78l2.67,2.67v26.68l-2.67,5.34-34.69,32v2.67c24,0,48,21.35,48,56S418.11,394.52,372.75,394.52Z"/><path class="cls-1" d="M367.67,399.6c-42.69,0-64-26.68-64-53.36l2.67-2.67h32l2.67,2.67c0,10.67,8,21.35,26.68,21.35,21.35,0,32-13.34,32-32,0-21.35-10.67-32-26.68-32-10.67,0-16,5.34-16,5.34H343.66L341,306.21v-24l37.35-37.35v-2.67h-64l-2.67-2.67V212.83l2.67-2.67H423.7l2.67,2.67v26.68l-2.67,5.34-34.69,32v2.67c24,0,48,21.35,48,56S413,399.6,367.67,399.6Z"/><path class="cls-1" d="M362.59,404.67c-42.69,0-64-26.68-64-53.36l2.67-2.67h32l2.67,2.67c0,10.67,8,21.35,26.68,21.35,21.35,0,32-13.34,32-32,0-21.35-10.67-32-26.68-32-10.67,0-16,5.34-16,5.34H338.58l-2.67-2.67v-24l37.35-37.35v-2.67h-64l-2.67-2.67V217.9l2.67-2.67H418.62l2.67,2.67v26.68l-2.67,5.34-34.69,32v2.67c24,0,48,21.35,48,56S408,404.67,362.59,404.67Z"/><path class="cls-1" d="M357.52,409.75c-42.69,0-64-26.68-64-53.36l2.67-2.67h32l2.67,2.67c0,10.67,8,21.35,26.68,21.35,21.35,0,32-13.34,32-32,0-21.35-10.67-32-26.68-32-10.67,0-16,5.34-16,5.34H333.5l-2.67-2.67v-24L368.19,255v-2.67h-64l-2.67-2.67V223l2.67-2.67H413.55l2.67,2.67v26.68L413.55,255l-34.69,32v2.67c24,0,48,21.35,48,56S402.87,409.75,357.52,409.75Z"/><path class="cls-1" d="M352.44,414.83c-42.69,0-64-26.68-64-53.36l2.67-2.67h32l2.67,2.67c0,10.67,8,21.35,26.68,21.35,21.35,0,32-13.34,32-32,0-21.35-10.67-32-26.68-32-10.67,0-16,5.34-16,5.34H328.43l-2.67-2.67v-24l37.35-37.35v-2.67h-64l-2.67-2.67V228.06l2.67-2.67H408.47l2.67,2.67v26.68l-2.67,5.34-34.69,32v2.67c24,0,48,21.35,48,56S397.8,414.83,352.44,414.83Z"/><path class="cls-1" d="M347.36,419.91c-42.69,0-64-26.68-64-53.36l2.67-2.67h32l2.67,2.67c0,10.67,8,21.35,26.68,21.35,21.35,0,32-13.34,32-32,0-21.35-10.67-32-26.68-32-10.67,0-16,5.34-16,5.34H323.35l-2.67-2.67v-24L358,265.15v-2.67H294l-2.67-2.67V233.14l2.67-2.67H403.39l2.67,2.67v26.68l-2.67,5.34-34.69,32v2.67c24,0,48,21.35,48,56S392.72,419.91,347.36,419.91Z"/><path class="cls-1" d="M342.28,425c-42.69,0-64-26.68-64-53.36l2.67-2.67h32l2.67,2.67c0,10.67,8,21.35,26.68,21.35,21.35,0,32-13.34,32-32,0-21.35-10.67-32-26.68-32-10.67,0-16,5.34-16,5.34H318.27l-2.67-2.67v-24L353,270.23v-2.67h-64l-2.67-2.67V238.21l2.67-2.67H398.32l2.67,2.67V264.9l-2.67,5.34-34.69,32v2.67c24,0,48,21.35,48,56S387.64,425,342.28,425Z"/><path class="cls-1" d="M337.21,430.06c-42.69,0-64-26.68-64-53.36l2.67-2.67h32l2.67,2.67c0,10.67,8,21.35,26.68,21.35,21.35,0,32-13.34,32-32,0-21.35-10.67-32-26.68-32-10.67,0-16,5.34-16,5.34H313.19l-2.67-2.67v-24l37.35-37.35v-2.67h-64L281.18,270V243.29l2.67-2.67H393.24l2.67,2.67V270l-2.67,5.34-34.69,32V310c24,0,48,21.35,48,56S382.57,430.06,337.21,430.06Z"/><path class="cls-1" d="M332.13,435.14c-42.69,0-64-26.68-64-53.36l2.67-2.67h32l2.67,2.67c0,10.67,8,21.35,26.68,21.35,21.35,0,32-13.34,32-32,0-21.35-10.67-32-26.68-32-10.67,0-16,5.34-16,5.34H308.12l-2.67-2.67v-24l37.35-37.35v-2.67h-64l-2.67-2.67V248.37l2.67-2.67H388.16l2.67,2.67v26.68l-2.67,5.34-34.69,32v2.67c24,0,48,21.35,48,56S377.49,435.14,332.13,435.14Z"/><path class="cls-1" d="M327.05,440.22c-42.69,0-64-26.68-64-53.36l2.67-2.67h32l2.67,2.67c0,10.67,8,21.35,26.68,21.35,21.35,0,32-13.34,32-32,0-21.35-10.67-32-26.68-32-10.67,0-16,5.34-16,5.34H303l-2.67-2.67v-24l37.35-37.35V282.8h-64L271,280.13V253.45l2.67-2.67H383.08l2.67,2.67v26.68l-2.67,5.34-34.69,32v2.67c24,0,48,21.35,48,56S372.41,440.22,327.05,440.22Z"/><path class="cls-1" d="M322,445.29c-42.69,0-64-26.68-64-53.36l2.67-2.67h32l2.67,2.67c0,10.67,8,21.35,26.68,21.35,21.35,0,32-13.34,32-32,0-21.35-10.67-32-26.68-32-10.67,0-16,5.34-16,5.34H298l-2.67-2.67v-24l37.35-37.35v-2.67h-64l-2.67-2.67V258.52l2.67-2.67H378l2.67,2.67v26.68L378,290.54l-34.69,32v2.67c24,0,48,21.35,48,56S367.33,445.29,322,445.29Z"/><path class="cls-1" d="M316.9,450.37c-42.69,0-64-26.68-64-53.36l2.67-2.67h32l2.67,2.67c0,10.67,8,21.35,26.68,21.35,21.35,0,32-13.34,32-32,0-21.35-10.67-32-26.68-32-10.67,0-16,5.34-16,5.34H292.88L290.22,357V333l37.35-37.35V293h-64l-2.67-2.67V263.6l2.67-2.67H372.93l2.67,2.67v26.68l-2.67,5.34-34.69,32v2.67c24,0,48,21.35,48,56S362.26,450.37,316.9,450.37Z"/></g></svg>