<svg xmlns="http://www.w3.org/2000/svg" viewBox="0 0 1896 5154.75"><defs><style>.cls-1{fill:#fff;stroke:#005d98;stroke-width:3px;}</style></defs><title>Artboard 1</title><g id="Layer_2" data-name="Layer 2"><g id="_Group_" data-name="&lt;Group&gt;"><path class="cls-1" d="M1932.77,1124.42h-2.67l-24,64,2.67,2.67h45.36l2.67-2.67Zm77.38,138.74h-24l-2.67-2.67-13.34-34.69-5.34-2.67h-66.7l-5.34,2.67-13.34,34.69-2.67,2.67h-24l-2.67-2.67v-26.68l61.37-154.75,2.67-2.67h34.69l2.67,2.67,61.37,154.75v26.68Z"/><path class="cls-1" d="M1927.68,1129.52H1925l-24,64,2.67,2.67H1949l2.67-2.67Zm77.38,138.74h-24l-2.67-2.67L1965,1230.91l-5.34-2.67H1893l-5.34,2.67-13.34,34.69-2.67,2.67h-24l-2.67-2.67v-26.68l61.37-154.75,2.67-2.67h34.69l2.67,2.67,61.37,154.75v26.68Z"/><path class="cls-1" d="M1922.58,1134.61h-2.67l-24,64,2.67,2.67h45.36l2.67-2.67ZM2000,1273.36h-24l-2.67-2.67L1959.93,1236l-5.34-2.67h-66.7l-5.34,2.67-13.34,34.69-2.67,2.67h-24l-2.67-2.67V1244l61.37-154.75,2.67-2.67h34.69l2.67,2.67L2002.62,1244v26.68Z"/><path class="cls-1" d="M1917.48,1139.71h-2.67l-24,64,2.67,2.67h45.36l2.67-2.67Zm77.38,138.74h-24l-2.67-2.67-13.34-34.69-5.34-2.67h-66.7l-5.34,2.67-13.34,34.69-2.67,2.67h-24l-2.67-2.67v-26.68l61.37-154.75,2.67-2.67h34.69l2.67,2.67,61.37,154.75v26.68Z"/><path class="cls-1" d="M1912.38,1144.81h-2.67l-24,64,2.67,2.67h45.36l2.67-2.67Zm77.38,138.74h-24l-2.67-2.67-13.34-34.69-5.34-2.67h-66.7l-5.34,2.67L1859,1280.88l-2.67,2.67h-24l-2.67-2.67V1254.2L1891,1099.45l2.67-2.67h34.69l2.67,2.67,61.37,154.75v26.68Z"/><path class="cls-1" d="M1907.29,1149.9h-2.67l-24,64,2.67,2.67h45.36l2.67-2.67Zm77.38,138.74h-24L1958,1286l-13.34-34.69-5.34-2.67h-66.7l-5.34,2.67L1853.92,1286l-2.67,2.67h-24l-2.67-2.67V1259.3l61.37-154.75,2.67-2.67h34.69l2.67,2.67,61.37,154.75V1286Z"/><path class="cls-1" d="M1902.19,1155h-2.67l-24,64,2.67,2.67h45.36l2.67-2.67Zm77.38,138.74h-24l-2.67-2.67-13.34-34.69-5.34-2.67h-66.7l-5.34,2.67-13.34,34.69-2.67,2.67h-24l-2.67-2.67V1264.4l61.37-154.75,2.67-2.67h34.69l2.67,2.67,61.37,154.75v26.68Z"/><path class="cls-1" d="M1897.09,1160.1h-2.67l-24,64,2.67,2.67h45.36l2.67-2.67Zm77.38,138.74h-24l-2.67-2.67-13.34-34.69-5.34-2.67h-66.7l-5.34,2.67-13.34,34.69-2.67,2.67h-24l-2.67-2.67v-26.68l61.37-154.75,2.67-2.67h34.69l2.67,2.67,61.37,154.75v26.68Z"/><path class="cls-1" d="M1892,1165.2h-2.67l-24,64,2.67,2.67h45.36l2.67-2.67Zm77.38,138.74h-24l-2.67-2.67-13.34-34.69-5.34-2.67h-66.7l-5.34,2.67-13.34,34.69-2.67,2.67h-24l-2.67-2.67v-26.68l61.37-154.75,2.67-2.67H1908l2.67,2.67L1972,1274.59v26.68Z"/><path class="cls-1" d="M1886.9,1170.29h-2.67l-24,64,2.67,2.67h45.36l2.67-2.67ZM1964.28,1309h-24l-2.67-2.67-13.34-34.69-5.34-2.67h-66.7l-5.34,2.67-13.34,34.69-2.67,2.67h-24l-2.67-2.67v-26.68l61.37-154.75,2.67-2.67h34.69l2.67,2.67,61.37,154.75v26.68Z"/><path class="cls-1" d="M1881.8,1175.39h-2.67l-24,64,2.67,2.67h45.36l2.67-2.67Zm77.38,138.74h-24l-2.67-2.67-13.34-34.69-5.34-2.67h-66.7l-5.34,2.67-13.34,34.69-2.67,2.67h-24l-2.67-2.67v-26.68L1860.46,1130l2.67-2.67h34.69l2.67,2.67,61.37,154.75v26.68Z"/><path class="cls-1" d="M1876.71,1180.49H1874l-24,64,2.67,2.67h45.36l2.67-2.67Zm77.38,138.74h-24l-2.67-2.67-13.34-34.69-5.34-2.67H1842l-5.34,2.67-13.34,34.69-2.67,2.67h-24l-2.67-2.67v-26.68l61.37-154.75,2.67-2.67h34.69l2.67,2.67,61.37,154.75v26.68Z"/><path class="cls-1" d="M1871.61,1185.58h-2.67l-24,64,2.67,2.67H1893l2.67-2.67ZM1949,1324.33h-24l-2.67-2.67L1909,1287l-5.34-2.67h-66.7l-5.34,2.67-13.34,34.69-2.67,2.67h-24l-2.67-2.67V1295l61.37-154.75,2.67-2.67h34.69l2.67,2.67L1951.65,1295v26.68Z"/><path class="cls-1" d="M1866.51,1190.68h-2.67l-24,64,2.67,2.67h45.36l2.67-2.67Zm77.38,138.74h-24l-2.67-2.67-13.34-34.69-5.34-2.67h-66.7l-5.34,2.67-13.34,34.69-2.67,2.67h-24l-2.67-2.67v-26.68l61.37-154.75,2.67-2.67h34.69l2.67,2.67,61.37,154.75v26.68Z"/><path class="cls-1" d="M1861.42,1195.78h-2.67l-24,64,2.67,2.67h45.36l2.67-2.67Zm77.38,138.74h-24l-2.67-2.67-13.34-34.69-5.34-2.67h-66.7l-5.34,2.67-13.34,34.69-2.67,2.67h-24l-2.67-2.67v-26.68l61.37-154.75,2.67-2.67h34.69l2.67,2.67,61.37,154.75v26.68Z"/><path class="cls-1" d="M1856.32,1200.87h-2.67l-24,64,2.67,2.67h45.36l2.67-2.67Zm77.38,138.74h-24L1907,1337l-13.34-34.69-5.34-2.67h-66.7l-5.34,2.67L1803,1337l-2.67,2.67h-24l-2.67-2.67v-26.68L1835,1155.52l2.67-2.67h34.69l2.67,2.67,61.37,154.75V1337Z"/><path class="cls-1" d="M1851.22,1206h-2.67l-24,64,2.67,2.67h45.36l2.67-2.67Zm77.38,138.74h-24l-2.67-2.67-13.34-34.69-5.34-2.67h-66.7l-5.34,2.67L1797.86,1342l-2.67,2.67h-24l-2.67-2.67v-26.68l61.37-154.75,2.67-2.67h34.69l2.67,2.67,61.37,154.75V1342Z"/><path class="cls-1" d="M1846.12,1211.07h-2.67l-24,64,2.67,2.67h45.36l2.67-2.67Zm77.38,138.74h-24l-2.67-2.67-13.34-34.69-5.34-2.67h-66.7l-5.34,2.67-13.34,34.69-2.67,2.67h-24l-2.67-2.67v-26.68l61.37-154.75,2.67-2.67h34.69l2.67,2.67,61.37,154.75v26.68Z"/><path class="cls-1" d="M1841,1216.17h-2.67l-24,64,2.67,2.67h45.36l2.67-2.67Zm77.38,138.74h-24l-2.67-2.67-13.34-34.69-5.34-2.67h-66.7l-5.34,2.67-13.34,34.69-2.67,2.67h-24l-2.67-2.67v-26.68l61.37-154.75,2.67-2.67H1857l2.67,2.67,61.37,154.75v26.68Z"/><path class="cls-1" d="M1835.93,1221.26h-2.67l-24,64,2.67,2.67h45.36l2.67-2.67ZM1913.31,1360h-24l-2.67-2.67-13.34-34.69-5.34-2.67h-66.7l-5.34,2.67-13.34,34.69-2.67,2.67h-24l-2.67-2.67v-26.68l61.37-154.75,2.67-2.67h34.69l2.67,2.67L1916,1330.66v26.68Z"/><path class="cls-1" d="M1830.83,1226.36h-2.67l-24,64,2.67,2.67h45.36l2.67-2.67Zm77.38,138.74h-24l-2.67-2.67-13.34-34.69-5.34-2.67h-66.7l-5.34,2.67-13.34,34.69-2.67,2.67h-24l-2.67-2.67v-26.68L1809.49,1181l2.67-2.67h34.69l2.67,2.67,61.37,154.75v26.68Z"/><path class="cls-1" d="M1825.74,1231.46h-2.67l-24,64,2.67,2.67h45.36l2.67-2.67Zm77.38,138.74h-24l-2.67-2.67-13.34-34.69-5.34-2.67h-66.7l-5.34,2.67-13.34,34.69-2.67,2.67h-24l-2.67-2.67v-26.68l61.37-154.75,2.67-2.67h34.69l2.67,2.67,61.37,154.75v26.68Z"/><path class="cls-1" d="M1820.64,1236.55H1818l-24,64,2.67,2.67H1842l2.67-2.67ZM1898,1375.3h-24l-2.67-2.67L1858,1337.94l-5.34-2.67H1786l-5.34,2.67-13.34,34.69-2.67,2.67h-24l-2.67-2.67v-26.68l61.37-154.75,2.67-2.67h34.69l2.67,2.67,61.37,154.75v26.68Z"/><path class="cls-1" d="M1815.54,1241.65h-2.67l-24,64,2.67,2.67h45.36l2.67-2.67Zm77.38,138.74h-24l-2.67-2.67L1852.9,1343l-5.34-2.67h-66.7l-5.34,2.67-13.34,34.69-2.67,2.67h-24l-2.67-2.67V1351l61.37-154.75,2.67-2.67h34.69l2.67,2.67L1895.59,1351v26.68Z"/><path class="cls-1" d="M1810.45,1246.75h-2.67l-24,64,2.67,2.67h45.36l2.67-2.67Zm77.38,138.74h-24l-2.67-2.67-13.34-34.69-5.34-2.67h-66.7l-5.34,2.67-13.34,34.69-2.67,2.67h-24l-2.67-2.67v-26.68l61.37-154.75,2.67-2.67h34.69l2.67,2.67,61.37,154.75v26.68Z"/><path class="cls-1" d="M1805.35,1251.84h-2.67l-24,64,2.67,2.67h45.36l2.67-2.67Zm77.38,138.74h-24l-2.67-2.67-13.34-34.69-5.34-2.67h-66.7l-5.34,2.67L1752,1387.92l-2.67,2.67h-24l-2.67-2.67v-26.68L1784,1206.49l2.67-2.67h34.69l2.67,2.67,61.37,154.75v26.68Z"/><path class="cls-1" d="M1800.25,1256.94h-2.67l-24,64,2.67,2.67h45.36l2.67-2.67Zm77.38,138.74h-24l-2.67-2.67-13.34-34.69-5.34-2.67h-66.7l-5.34,2.67L1746.89,1393l-2.67,2.67h-24l-2.67-2.67v-26.68l61.37-154.75,2.67-2.67h34.69l2.67,2.67,61.37,154.75V1393Z"/><path class="cls-1" d="M1795.15,1262h-2.67l-24,64,2.67,2.67h45.36l2.67-2.67Zm77.38,138.74h-24l-2.67-2.67-13.34-34.69-5.34-2.67h-66.7l-5.34,2.67-13.34,34.69-2.67,2.67h-24l-2.67-2.67v-26.68l61.37-154.75,2.67-2.67h34.69l2.67,2.67,61.37,154.75v26.68Z"/><path class="cls-1" d="M1790.06,1267.13h-2.67l-24,64,2.67,2.67h45.36l2.67-2.67Zm77.38,138.74h-24l-2.67-2.67-13.34-34.69-5.34-2.67h-66.7l-5.34,2.67-13.34,34.69-2.67,2.67h-24l-2.67-2.67v-26.68l61.37-154.75,2.67-2.67h34.69l2.67,2.67,61.37,154.75v26.68Z"/><path class="cls-1" d="M1785,1272.23h-2.67l-24,64,2.67,2.67h45.36l2.67-2.67ZM1862.34,1411h-24l-2.67-2.67-13.34-34.69L1817,1371h-66.7l-5.34,2.67-13.34,34.69-2.67,2.67h-24l-2.67-2.67v-26.68l61.37-154.75,2.67-2.67H1801l2.67,2.67L1865,1381.63v26.68Z"/><path class="cls-1" d="M1779.86,1277.33h-2.67l-24,64,2.67,2.67h45.36l2.67-2.67Zm77.38,138.74h-24l-2.67-2.67-13.34-34.69-5.34-2.67h-66.7l-5.34,2.67-13.34,34.69-2.67,2.67h-24l-2.67-2.67v-26.68L1758.52,1232l2.67-2.67h34.69l2.67,2.67,61.37,154.75v26.68Z"/><path class="cls-1" d="M1774.77,1282.43h-2.67l-24,64,2.67,2.67h45.36l2.67-2.67Zm77.38,138.74h-24l-2.67-2.67-13.34-34.69-5.34-2.67h-66.7l-5.34,2.67-13.34,34.69-2.67,2.67h-24l-2.67-2.67v-26.68l61.37-154.75,2.67-2.67h34.69l2.67,2.67,61.37,154.75v26.68Z"/><path class="cls-1" d="M1769.67,1287.52H1767l-24,64,2.67,2.67H1791l2.67-2.67ZM1847,1426.27h-24l-2.67-2.67L1807,1388.91l-5.34-2.67H1735l-5.34,2.67-13.34,34.69-2.67,2.67h-24l-2.67-2.67v-26.68l61.37-154.75,2.67-2.67h34.69l2.67,2.67,61.37,154.75v26.68Z"/><path class="cls-1" d="M1764.57,1292.62h-2.67l-24,64,2.67,2.67h45.36l2.67-2.67Zm77.38,138.74h-24l-2.67-2.67L1801.93,1394l-5.34-2.67h-66.7l-5.34,2.67-13.34,34.69-2.67,2.67h-24l-2.67-2.67V1402l61.37-154.75,2.67-2.67h34.69l2.67,2.67L1844.62,1402v26.68Z"/><path class="cls-1" d="M1759.48,1297.72h-2.67l-24,64,2.67,2.67h45.36l2.67-2.67Zm77.38,138.74h-24l-2.67-2.67-13.34-34.69-5.34-2.67h-66.7l-5.34,2.67-13.34,34.69-2.67,2.67h-24l-2.67-2.67v-26.68l61.37-154.75,2.67-2.67h34.69l2.67,2.67,61.37,154.75v26.68Z"/><path class="cls-1" d="M1754.38,1302.81h-2.67l-24,64,2.67,2.67h45.36l2.67-2.67Zm77.38,138.74h-24l-2.67-2.67-13.34-34.69-5.34-2.67h-66.7l-5.34,2.67L1701,1438.89l-2.67,2.67h-24l-2.67-2.67v-26.68L1733,1257.46l2.67-2.67h34.69l2.67,2.67,61.37,154.75v26.68Z"/><path class="cls-1" d="M1749.28,1307.91h-2.67l-24,64,2.67,2.67h45.36l2.67-2.67Zm77.38,138.74h-24L1800,1444l-13.34-34.69-5.34-2.67h-66.7l-5.34,2.67L1695.92,1444l-2.67,2.67h-24l-2.67-2.67v-26.68l61.37-154.75,2.67-2.67h34.69l2.67,2.67,61.37,154.75V1444Z"/><path class="cls-1" d="M1744.18,1313h-2.67l-24,64,2.67,2.67h45.36l2.67-2.67Zm77.38,138.74h-24l-2.67-2.67-13.34-34.69-5.34-2.67h-66.7l-5.34,2.67-13.34,34.69-2.67,2.67h-24l-2.67-2.67V1422.4l61.37-154.75,2.67-2.67h34.69l2.67,2.67,61.37,154.75v26.68Z"/><path class="cls-1" d="M1739.09,1318.1h-2.67l-24,64,2.67,2.67h45.36l2.67-2.67Zm77.38,138.74h-24l-2.67-2.67-13.34-34.69-5.34-2.67h-66.7l-5.34,2.67-13.34,34.69-2.67,2.67h-24l-2.67-2.67V1427.5l61.37-154.75,2.67-2.67h34.69l2.67,2.67,61.37,154.75v26.68Z"/><path class="cls-1" d="M1734,1323.2h-2.67l-24,64,2.67,2.67h45.36l2.67-2.67Zm77.38,138.74h-24l-2.67-2.67-13.34-34.69-5.34-2.67h-66.7l-5.34,2.67-13.34,34.69-2.67,2.67h-24l-2.67-2.67V1432.6l61.37-154.75,2.67-2.67H1750l2.67,2.67L1814,1432.6v26.68Z"/><path class="cls-1" d="M1728.89,1328.3h-2.67l-24,64,2.67,2.67h45.36l2.67-2.67ZM1806.27,1467h-24l-2.67-2.67-13.34-34.69-5.34-2.67h-66.7l-5.34,2.67-13.34,34.69-2.67,2.67h-24l-2.67-2.67v-26.68l61.37-154.75,2.67-2.67h34.69l2.67,2.67,61.37,154.75v26.68Z"/><path class="cls-1" d="M1723.8,1333.4h-2.67l-24,64,2.67,2.67h45.36l2.67-2.67Zm77.38,138.74h-24l-2.67-2.67-13.34-34.69-5.34-2.67h-66.7l-5.34,2.67-13.34,34.69-2.67,2.67h-24l-2.67-2.67v-26.68L1702.45,1288l2.67-2.67h34.69l2.67,2.67,61.37,154.75v26.68Z"/><path class="cls-1" d="M1718.7,1338.49H1716l-24,64,2.67,2.67H1740l2.67-2.67Zm77.38,138.74h-24l-2.67-2.67-13.34-34.69-5.34-2.67H1684l-5.34,2.67-13.34,34.69-2.67,2.67h-24l-2.67-2.67v-26.68l61.37-154.75,2.67-2.67h34.69l2.67,2.67,61.37,154.75v26.68Z"/><path class="cls-1" d="M1713.6,1343.59h-2.67l-24,64,2.67,2.67h45.36l2.67-2.67ZM1791,1482.33h-24l-2.67-2.67L1751,1445l-5.34-2.67h-66.7l-5.34,2.67-13.34,34.69-2.67,2.67h-24l-2.67-2.67V1453l61.37-154.75,2.67-2.67h34.69l2.67,2.67L1793.65,1453v26.68Z"/><path class="cls-1" d="M1708.51,1348.69h-2.67l-24,64,2.67,2.67h45.36l2.67-2.67Zm77.38,138.74h-24l-2.67-2.67-13.34-34.69-5.34-2.67h-66.7l-5.34,2.67-13.34,34.69-2.67,2.67h-24l-2.67-2.67v-26.68l61.37-154.75,2.67-2.67h34.69l2.67,2.67,61.37,154.75v26.68Z"/><path class="cls-1" d="M1703.41,1353.78h-2.67l-24,64,2.67,2.67h45.36l2.67-2.67Zm77.38,138.74h-24l-2.67-2.67-13.34-34.69-5.34-2.67h-66.7l-5.34,2.67L1650,1489.86l-2.67,2.67h-24l-2.67-2.67v-26.68l61.37-154.75,2.67-2.67h34.69l2.67,2.67,61.37,154.75v26.68Z"/><path class="cls-1" d="M1698.31,1358.88h-2.67l-24,64,2.67,2.67h45.36l2.67-2.67Zm77.38,138.74h-24L1749,1495l-13.34-34.69-5.34-2.67h-66.7l-5.34,2.67L1644.95,1495l-2.67,2.67h-24l-2.67-2.67v-26.68L1677,1313.52l2.67-2.67h34.69l2.67,2.67,61.37,154.75V1495Z"/><path class="cls-1" d="M1693.22,1364h-2.67l-24,64,2.67,2.67h45.36l2.67-2.67Zm77.38,138.74h-24l-2.67-2.67-13.34-34.69-5.34-2.67h-66.7l-5.34,2.67-13.34,34.69-2.67,2.67h-24l-2.67-2.67v-26.68l61.37-154.75,2.67-2.67h34.69l2.67,2.67,61.37,154.75v26.68Z"/><path class="cls-1" d="M1688.12,1369.07h-2.67l-24,64,2.67,2.67h45.36l2.67-2.67Zm77.38,138.74h-24l-2.67-2.67-13.34-34.69-5.34-2.67h-66.7l-5.34,2.67-13.34,34.69-2.67,2.67h-24l-2.67-2.67v-26.68l61.37-154.75,2.67-2.67h34.69l2.67,2.67,61.37,154.75v26.68Z"/><path class="cls-1" d="M1683,1374.17h-2.67l-24,64,2.67,2.67h45.36l2.67-2.67Zm77.38,138.74h-24l-2.67-2.67-13.34-34.69-5.34-2.67h-66.7l-5.34,2.67-13.34,34.69-2.67,2.67h-24l-2.67-2.67v-26.68l61.37-154.75,2.67-2.67H1699l2.67,2.67,61.37,154.75v26.68Z"/><path class="cls-1" d="M1677.92,1379.27h-2.67l-24,64,2.67,2.67h45.36l2.67-2.67ZM1755.3,1518h-24l-2.67-2.67-13.34-34.69-5.34-2.67h-66.7l-5.34,2.67-13.34,34.69-2.67,2.67h-24l-2.67-2.67v-26.68l61.37-154.75,2.67-2.67h34.69l2.67,2.67L1758,1488.66v26.68Z"/><path class="cls-1" d="M1672.83,1384.37h-2.67l-24,64,2.67,2.67h45.36l2.67-2.67Zm77.38,138.74h-24l-2.67-2.67-13.34-34.69-5.34-2.67h-66.7l-5.34,2.67-13.34,34.69-2.67,2.67h-24l-2.67-2.67v-26.68L1651.48,1339l2.67-2.67h34.69l2.67,2.67,61.37,154.75v26.68Z"/><path class="cls-1" d="M1667.73,1389.46h-2.67l-24,64,2.67,2.67h45.36l2.67-2.67Zm77.38,138.74h-24l-2.67-2.67-13.34-34.69-5.34-2.67H1633l-5.34,2.67-13.34,34.69-2.67,2.67h-24l-2.67-2.67v-26.68l61.37-154.75,2.67-2.67h34.69l2.67,2.67,61.37,154.75v26.68Z"/><path class="cls-1" d="M1662.63,1394.56H1660l-24,64,2.67,2.67H1684l2.67-2.67ZM1740,1533.3h-24l-2.67-2.67L1700,1495.95l-5.34-2.67h-66.7l-5.34,2.67-13.34,34.69-2.67,2.67h-24l-2.67-2.67V1504l61.37-154.75,2.67-2.67h34.69l2.67,2.67L1742.68,1504v26.68Z"/><path class="cls-1" d="M1657.54,1399.66h-2.67l-24,64,2.67,2.67h45.36l2.67-2.67Zm77.38,138.74h-24l-2.67-2.67L1694.89,1501l-5.34-2.67h-66.7l-5.34,2.67-13.34,34.69-2.67,2.67h-24l-2.67-2.67v-26.68l61.37-154.75,2.67-2.67h34.69l2.67,2.67,61.37,154.75v26.68Z"/><path class="cls-1" d="M1652.44,1404.75h-2.67l-24,64,2.67,2.67h45.36l2.67-2.67Zm77.38,138.74h-24l-2.67-2.67-13.34-34.69-5.34-2.67h-66.7l-5.34,2.67-13.34,34.69-2.67,2.67h-24l-2.67-2.67v-26.68l61.37-154.75,2.67-2.67h34.69l2.67,2.67,61.37,154.75v26.68Z"/><path class="cls-1" d="M1647.34,1409.85h-2.67l-24,64,2.67,2.67h45.36l2.67-2.67Zm77.38,138.74h-24l-2.67-2.67-13.34-34.69-5.34-2.67h-66.7l-5.34,2.67L1594,1545.93l-2.67,2.67h-24l-2.67-2.67v-26.68L1626,1364.49l2.67-2.67h34.69l2.67,2.67,61.37,154.75v26.68Z"/><path class="cls-1" d="M1642.25,1414.95h-2.67l-24,64,2.67,2.67h45.36l2.67-2.67Zm77.38,138.74h-24l-2.67-2.67-13.34-34.69-5.34-2.67h-66.7l-5.34,2.67L1588.88,1551l-2.67,2.67h-24l-2.67-2.67v-26.68l61.37-154.75,2.67-2.67h34.69l2.67,2.67,61.37,154.75V1551Z"/><path class="cls-1" d="M1637.15,1420h-2.67l-24,64,2.67,2.67h45.36l2.67-2.67Zm77.38,138.74h-24l-2.67-2.67-13.34-34.69-5.34-2.67h-66.7l-5.34,2.67-13.34,34.69-2.67,2.67h-24l-2.67-2.67v-26.68l61.37-154.75,2.67-2.67h34.69l2.67,2.67,61.37,154.75v26.68Z"/><path class="cls-1" d="M1632.05,1425.14h-2.67l-24,64,2.67,2.67h45.36l2.67-2.67Zm77.38,138.74h-24l-2.67-2.67-13.34-34.69-5.34-2.67h-66.7l-5.34,2.67-13.34,34.69-2.67,2.67h-24l-2.67-2.67v-26.68l61.37-154.75,2.67-2.67h34.69l2.67,2.67,61.37,154.75v26.68Z"/><path class="cls-1" d="M1627,1430.24h-2.67l-24,64,2.67,2.67h45.36l2.67-2.67ZM1704.33,1569h-24l-2.67-2.67-13.34-34.69L1659,1529h-66.7l-5.34,2.67-13.34,34.69-2.67,2.67h-24l-2.67-2.67v-26.68l61.37-154.75,2.67-2.67H1643l2.67,2.67L1707,1539.63v26.68Z"/><path class="cls-1" d="M1621.86,1435.33h-2.67l-24,64,2.67,2.67h45.36l2.67-2.67Zm77.38,138.74h-24l-2.67-2.67-13.34-34.69-5.34-2.67h-66.7l-5.34,2.67-13.34,34.69-2.67,2.67h-24l-2.67-2.67v-26.68L1600.51,1390l2.67-2.67h34.69l2.67,2.67,61.37,154.75v26.68Z"/><path class="cls-1" d="M1616.76,1440.43h-2.67l-24,64,2.67,2.67h45.36l2.67-2.67Zm77.38,138.74h-24l-2.67-2.67-13.34-34.69-5.34-2.67h-66.7l-5.34,2.67-13.34,34.69-2.67,2.67h-24l-2.67-2.67v-26.68l61.37-154.75,2.67-2.67h34.69l2.67,2.67,61.37,154.75v26.68Z"/><path class="cls-1" d="M1611.66,1445.53H1609l-24,64,2.67,2.67H1633l2.67-2.67ZM1689,1584.27h-24l-2.67-2.67L1649,1546.92l-5.34-2.67H1577l-5.34,2.67-13.34,34.69-2.67,2.67h-24l-2.67-2.67v-26.68l61.37-154.75,2.67-2.67h34.69l2.67,2.67,61.37,154.75v26.68Z"/><path class="cls-1" d="M1606.57,1450.63h-2.67l-24,64,2.67,2.67h45.36l2.67-2.67Zm77.38,138.74h-24l-2.67-2.67L1643.92,1552l-5.34-2.67h-66.7l-5.34,2.67-13.34,34.69-2.67,2.67h-24l-2.67-2.67V1560l61.37-154.75,2.67-2.67h34.69l2.67,2.67L1686.61,1560v26.68Z"/><path class="cls-1" d="M1601.47,1455.72h-2.67l-24,64,2.67,2.67h45.36l2.67-2.67Zm77.38,138.74h-24l-2.67-2.67-13.34-34.69-5.34-2.67h-66.7l-5.34,2.67-13.34,34.69-2.67,2.67h-24l-2.67-2.67v-26.68l61.37-154.75,2.67-2.67h34.69l2.67,2.67,61.37,154.75v26.68Z"/><path class="cls-1" d="M1596.37,1460.82h-2.67l-24,64,2.67,2.67h45.36l2.67-2.67Zm77.38,138.74h-24l-2.67-2.67-13.34-34.69-5.34-2.67h-66.7l-5.34,2.67L1543,1596.9l-2.67,2.67h-24l-2.67-2.67v-26.68L1575,1415.46l2.67-2.67h34.69l2.67,2.67,61.37,154.75v26.68Z"/><path class="cls-1" d="M1591.28,1465.92h-2.67l-24,64,2.67,2.67h45.36l2.67-2.67Zm77.38,138.74h-24L1642,1602l-13.34-34.69-5.34-2.67h-66.7l-5.34,2.67L1537.91,1602l-2.67,2.67h-24l-2.67-2.67v-26.68l61.37-154.75,2.67-2.67h34.69l2.67,2.67,61.37,154.75V1602Z"/><path class="cls-1" d="M1586.18,1471h-2.67l-24,64,2.67,2.67h45.36l2.67-2.67Zm77.38,138.74h-24l-2.67-2.67-13.34-34.69-5.34-2.67h-66.7l-5.34,2.67-13.34,34.69-2.67,2.67h-24l-2.67-2.67v-26.68l61.37-154.75,2.67-2.67h34.69l2.67,2.67,61.37,154.75v26.68Z"/><path class="cls-1" d="M1581.08,1476.11h-2.67l-24,64,2.67,2.67h45.36l2.67-2.67Zm77.38,138.74h-24l-2.67-2.67-13.34-34.69-5.34-2.67h-66.7l-5.34,2.67-13.34,34.69-2.67,2.67h-24l-2.67-2.67V1585.5l61.37-154.75,2.67-2.67h34.69l2.67,2.67,61.37,154.75v26.68Z"/><path class="cls-1" d="M1576,1481.21h-2.67l-24,64,2.67,2.67h45.36l2.67-2.67ZM1653.36,1620h-24l-2.67-2.67-13.34-34.69-5.34-2.67h-66.7l-5.34,2.67-13.34,34.69L1520,1620h-24l-2.67-2.67V1590.6l61.37-154.75,2.67-2.67H1592l2.67,2.67L1656,1590.6v26.68Z"/><path class="cls-1" d="M1570.89,1486.3h-2.67l-24,64,2.67,2.67h45.36l2.67-2.67ZM1648.27,1625h-24l-2.67-2.67-13.34-34.69-5.34-2.67h-66.7l-5.34,2.67-13.34,34.69-2.67,2.67h-24l-2.67-2.67V1595.7l61.37-154.75,2.67-2.67h34.69l2.67,2.67,61.37,154.75v26.68Z"/><path class="cls-1" d="M1565.79,1491.4h-2.67l-24,64,2.67,2.67h45.36l2.67-2.67Zm77.38,138.74h-24l-2.67-2.67-13.34-34.69-5.34-2.67h-66.7l-5.34,2.67-13.34,34.69-2.67,2.67h-24l-2.67-2.67V1600.8L1544.45,1446l2.67-2.67h34.69l2.67,2.67,61.37,154.75v26.68Z"/><path class="cls-1" d="M1560.69,1496.5H1558l-24,64,2.67,2.67H1582l2.67-2.67Zm77.38,138.74h-24l-2.67-2.67L1598,1597.89l-5.34-2.67H1526l-5.34,2.67-13.34,34.69-2.67,2.67h-24l-2.67-2.67v-26.68l61.37-154.75,2.67-2.67h34.69l2.67,2.67,61.37,154.75v26.68Z"/><path class="cls-1" d="M1555.6,1501.6h-2.67l-24,64,2.67,2.67h45.36l2.67-2.67ZM1633,1640.34h-24l-2.67-2.67L1593,1603l-5.34-2.67h-66.7l-5.34,2.67-13.34,34.69-2.67,2.67h-24l-2.67-2.67V1611l61.37-154.75,2.67-2.67h34.69l2.67,2.67L1635.64,1611v26.68Z"/><path class="cls-1" d="M1550.5,1506.69h-2.67l-24,64,2.67,2.67h45.36l2.67-2.67Zm77.38,138.74h-24l-2.67-2.67-13.34-34.69-5.34-2.67h-66.7l-5.34,2.67-13.34,34.69-2.67,2.67h-24l-2.67-2.67v-26.68l61.37-154.75,2.67-2.67h34.69l2.67,2.67,61.37,154.75v26.68Z"/><path class="cls-1" d="M1545.4,1511.79h-2.67l-24,64,2.67,2.67h45.36l2.67-2.67Zm77.38,138.74h-24l-2.67-2.67-13.34-34.69-5.34-2.67h-66.7l-5.34,2.67L1492,1647.87l-2.67,2.67h-24l-2.67-2.67v-26.68l61.37-154.75,2.67-2.67h34.69l2.67,2.67,61.37,154.75v26.68Z"/><path class="cls-1" d="M1540.31,1516.89h-2.67l-24,64,2.67,2.67h45.36l2.67-2.67Zm77.38,138.74h-24L1591,1653l-13.34-34.69-5.34-2.67h-66.7l-5.34,2.67L1486.94,1653l-2.67,2.67h-24l-2.67-2.67v-26.68L1519,1471.53l2.67-2.67h34.69l2.67,2.67,61.37,154.75V1653Z"/><path class="cls-1" d="M1535.21,1522h-2.67l-24,64,2.67,2.67h45.36l2.67-2.67Zm77.38,138.74h-24l-2.67-2.67-13.34-34.69-5.34-2.67h-66.7l-5.34,2.67-13.34,34.69-2.67,2.67h-24l-2.67-2.67v-26.68l61.37-154.75,2.67-2.67h34.69l2.67,2.67,61.37,154.75v26.68Z"/><path class="cls-1" d="M1530.11,1527.08h-2.67l-24,64,2.67,2.67h45.36l2.67-2.67Zm77.38,138.74h-24l-2.67-2.67-13.34-34.69-5.34-2.67h-66.7l-5.34,2.67-13.34,34.69-2.67,2.67h-24l-2.67-2.67v-26.68l61.37-154.75,2.67-2.67h34.69l2.67,2.67,61.37,154.75v26.68Z"/><path class="cls-1" d="M1525,1532.18h-2.67l-24,64,2.67,2.67h45.36l2.67-2.67Zm77.38,138.74h-24l-2.67-2.67-13.34-34.69-5.34-2.67h-66.7l-5.34,2.67-13.34,34.69-2.67,2.67h-24l-2.67-2.67v-26.68l61.37-154.75,2.67-2.67H1541l2.67,2.67,61.37,154.75v26.68Z"/><path class="cls-1" d="M1519.92,1537.27h-2.67l-24,64,2.67,2.67h45.36l2.67-2.67ZM1597.3,1676h-24l-2.67-2.67-13.34-34.69-5.34-2.67h-66.7l-5.34,2.67-13.34,34.69-2.67,2.67h-24l-2.67-2.67v-26.68l61.37-154.75,2.67-2.67h34.69l2.67,2.67L1600,1646.67v26.68Z"/><path class="cls-1" d="M1514.82,1542.37h-2.67l-24,64,2.67,2.67h45.36l2.67-2.67Zm77.38,138.74h-24l-2.67-2.67-13.34-34.69-5.34-2.67h-66.7l-5.34,2.67-13.34,34.69-2.67,2.67h-24l-2.67-2.67v-26.68L1493.48,1497l2.67-2.67h34.69l2.67,2.67,61.37,154.75v26.68Z"/><path class="cls-1" d="M1509.72,1547.47h-2.67l-24,64,2.67,2.67h45.36l2.67-2.67Zm77.38,138.74h-24l-2.67-2.67-13.34-34.69-5.34-2.67H1475l-5.34,2.67-13.34,34.69-2.67,2.67h-24l-2.67-2.67v-26.68l61.37-154.75,2.67-2.67h34.69l2.67,2.67,61.37,154.75v26.68Z"/><path class="cls-1" d="M1504.63,1552.56H1502l-24,64,2.67,2.67H1526l2.67-2.67ZM1582,1691.31h-24l-2.67-2.67L1542,1654l-5.34-2.67h-66.7l-5.34,2.67-13.34,34.69-2.67,2.67h-24l-2.67-2.67V1662l61.37-154.75,2.67-2.67h34.69l2.67,2.67L1584.67,1662v26.68Z"/><path class="cls-1" d="M1499.53,1557.66h-2.67l-24,64,2.67,2.67h45.36l2.67-2.67Zm77.38,138.74h-24l-2.67-2.67-13.34-34.69-5.34-2.67h-66.7l-5.34,2.67-13.34,34.69-2.67,2.67h-24l-2.67-2.67v-26.68l61.37-154.75,2.67-2.67h34.69l2.67,2.67,61.37,154.75v26.68Z"/><path class="cls-1" d="M1494.43,1562.76h-2.67l-24,64,2.67,2.67h45.36l2.67-2.67Zm77.38,138.74h-24l-2.67-2.67-13.34-34.69-5.34-2.67h-66.7l-5.34,2.67-13.34,34.69-2.67,2.67h-24l-2.67-2.67v-26.68l61.37-154.75,2.67-2.67h34.69l2.67,2.67,61.37,154.75v26.68Z"/><path class="cls-1" d="M1489.34,1567.86h-2.67l-24,64,2.67,2.67h45.36l2.67-2.67Zm77.38,138.74h-24l-2.67-2.67-13.34-34.69-5.34-2.67h-66.7l-5.34,2.67L1436,1703.93l-2.67,2.67h-24l-2.67-2.67v-26.68L1468,1522.5l2.67-2.67h34.69l2.67,2.67,61.37,154.75v26.68Z"/><path class="cls-1" d="M1484.24,1573h-2.67l-24,64,2.67,2.67h45.36l2.67-2.67Zm77.38,138.74h-24l-2.67-2.67-13.34-34.69-5.34-2.67h-66.7l-5.34,2.67L1430.88,1709l-2.67,2.67h-24l-2.67-2.67v-26.68l61.37-154.75,2.67-2.67h34.69l2.67,2.67,61.37,154.75V1709Z"/><path class="cls-1" d="M1479.14,1578h-2.67l-24,64,2.67,2.67h45.36l2.67-2.67Zm77.38,138.74h-24l-2.67-2.67-13.34-34.69-5.34-2.67h-66.7l-5.34,2.67-13.34,34.69-2.67,2.67h-24l-2.67-2.67v-26.68l61.37-154.75,2.67-2.67h34.69l2.67,2.67,61.37,154.75v26.68Z"/><path class="cls-1" d="M1474,1583.15h-2.67l-24,64,2.67,2.67h45.36l2.67-2.67Zm77.38,138.74h-24l-2.67-2.67-13.34-34.69-5.34-2.67h-66.7l-5.34,2.67-13.34,34.69-2.67,2.67h-24l-2.67-2.67v-26.68l61.37-154.75,2.67-2.67h34.69l2.67,2.67,61.37,154.75v26.68Z"/><path class="cls-1" d="M1468.95,1588.24h-2.67l-24,64,2.67,2.67h45.36l2.67-2.67ZM1546.33,1727h-24l-2.67-2.67-13.34-34.69L1501,1687h-66.7l-5.34,2.67-13.34,34.69-2.67,2.67h-24l-2.67-2.67v-26.68l61.37-154.75,2.67-2.67H1485l2.67,2.67L1549,1697.64v26.68Z"/><path class="cls-1" d="M1463.85,1593.34h-2.67l-24,64,2.67,2.67h45.36l2.67-2.67Zm77.38,138.74h-24l-2.67-2.67-13.34-34.69-5.34-2.67h-66.7l-5.34,2.67-13.34,34.69-2.67,2.67h-24l-2.67-2.67v-26.68L1442.51,1548l2.67-2.67h34.69l2.67,2.67,61.37,154.75v26.68Z"/><path class="cls-1" d="M1458.76,1598.44h-2.67l-24,64,2.67,2.67h45.36l2.67-2.67Zm77.38,138.74h-24l-2.67-2.67-13.34-34.69-5.34-2.67h-66.7l-5.34,2.67-13.34,34.69-2.67,2.67h-24l-2.67-2.67v-26.68l61.37-154.75,2.67-2.67h34.69l2.67,2.67,61.37,154.75v26.68Z"/><path class="cls-1" d="M1453.66,1603.53H1451l-24,64,2.67,2.67H1475l2.67-2.67ZM1531,1742.28h-24l-2.67-2.67L1491,1704.92l-5.34-2.67H1419l-5.34,2.67-13.34,34.69-2.67,2.67h-24l-2.67-2.67v-26.68l61.37-154.75,2.67-2.67h34.69l2.67,2.67,61.37,154.75v26.68Z"/><path class="cls-1" d="M1448.56,1608.63h-2.67l-24,64,2.67,2.67h45.36l2.67-2.67Zm77.38,138.74h-24l-2.67-2.67L1485.92,1710l-5.34-2.67h-66.7l-5.34,2.67-13.34,34.69-2.67,2.67h-24l-2.67-2.67V1718l61.37-154.75,2.67-2.67h34.69l2.67,2.67L1528.61,1718v26.68Z"/><path class="cls-1" d="M1443.46,1613.73h-2.67l-24,64,2.67,2.67h45.36l2.67-2.67Zm77.38,138.74h-24l-2.67-2.67-13.34-34.69-5.34-2.67h-66.7l-5.34,2.67-13.34,34.69-2.67,2.67h-24l-2.67-2.67v-26.68l61.37-154.75,2.67-2.67h34.69l2.67,2.67,61.37,154.75v26.68Z"/><path class="cls-1" d="M1438.37,1618.83h-2.67l-24,64,2.67,2.67h45.36l2.67-2.67Zm77.38,138.74h-24l-2.67-2.67-13.34-34.69-5.34-2.67h-66.7l-5.34,2.67L1385,1754.9l-2.67,2.67h-24l-2.67-2.67v-26.68L1417,1573.47l2.67-2.67h34.69l2.67,2.67,61.37,154.75v26.68Z"/><path class="cls-1" d="M1433.27,1623.92h-2.67l-24,64,2.67,2.67h45.36l2.67-2.67Zm77.38,138.74h-24L1484,1760l-13.34-34.69-5.34-2.67h-66.7l-5.34,2.67L1379.91,1760l-2.67,2.67h-24l-2.67-2.67v-26.68l61.37-154.75,2.67-2.67h34.69l2.67,2.67,61.37,154.75V1760Z"/><path class="cls-1" d="M1428.17,1629h-2.67l-24,64,2.67,2.67h45.36l2.67-2.67Zm77.38,138.74h-24l-2.67-2.67-13.34-34.69-5.34-2.67h-66.7l-5.34,2.67-13.34,34.69-2.67,2.67h-24l-2.67-2.67v-26.68l61.37-154.75,2.67-2.67h34.69l2.67,2.67,61.37,154.75v26.68Z"/><path class="cls-1" d="M1423.08,1634.12h-2.67l-24,64,2.67,2.67h45.36l2.67-2.67Zm77.38,138.74h-24l-2.67-2.67-13.34-34.69-5.34-2.67h-66.7l-5.34,2.67-13.34,34.69-2.67,2.67h-24l-2.67-2.67v-26.68l61.37-154.75,2.67-2.67h34.69l2.67,2.67,61.37,154.75v26.68Z"/><path class="cls-1" d="M1418,1639.21h-2.67l-24,64,2.67,2.67h45.36l2.67-2.67ZM1495.36,1778h-24l-2.67-2.67-13.34-34.69-5.34-2.67h-66.7l-5.34,2.67-13.34,34.69-2.67,2.67h-24l-2.67-2.67v-26.68l61.37-154.75,2.67-2.67H1434l2.67,2.67L1498,1748.61v26.68Z"/><path class="cls-1" d="M1412.88,1644.31h-2.67l-24,64,2.67,2.67h45.36l2.67-2.67Zm77.38,138.74h-24l-2.67-2.67-13.34-34.69-5.34-2.67h-66.7l-5.34,2.67-13.34,34.69-2.67,2.67h-24l-2.67-2.67V1753.7L1391.54,1599l2.67-2.67h34.69l2.67,2.67,61.37,154.75v26.68Z"/><path class="cls-1" d="M1407.79,1649.41h-2.67l-24,64,2.67,2.67h45.36l2.67-2.67Zm77.38,138.74h-24l-2.67-2.67-13.34-34.69-5.34-2.67h-66.7l-5.34,2.67-13.34,34.69-2.67,2.67h-24l-2.67-2.67V1758.8L1386.44,1604l2.67-2.67h34.69l2.67,2.67,61.37,154.75v26.68Z"/><path class="cls-1" d="M1402.69,1654.5H1400l-24,64,2.67,2.67H1424l2.67-2.67Zm77.38,138.74h-24l-2.67-2.67L1440,1755.89l-5.34-2.67H1368l-5.34,2.67-13.34,34.69-2.67,2.67h-24l-2.67-2.67V1763.9l61.37-154.75,2.67-2.67h34.69l2.67,2.67,61.37,154.75v26.68Z"/><path class="cls-1" d="M1397.59,1659.6h-2.67l-24,64,2.67,2.67h45.36l2.67-2.67ZM1475,1798.35h-24l-2.67-2.67L1434.95,1761l-5.34-2.67h-66.7l-5.34,2.67-13.34,34.69-2.67,2.67h-24l-2.67-2.67V1769l61.37-154.75,2.67-2.67h34.69l2.67,2.67L1477.64,1769v26.68Z"/><path class="cls-1" d="M1392.49,1664.7h-2.67l-24,64,2.67,2.67h45.36l2.67-2.67Zm77.38,138.74h-24l-2.67-2.67-13.34-34.69-5.34-2.67h-66.7l-5.34,2.67-13.34,34.69-2.67,2.67h-24l-2.67-2.67v-26.68l61.37-154.75,2.67-2.67h34.69l2.67,2.67,61.37,154.75v26.68Z"/><path class="cls-1" d="M1387.4,1669.79h-2.67l-24,64,2.67,2.67h45.36l2.67-2.67Zm77.38,138.74h-24l-2.67-2.67-13.34-34.69-5.34-2.67h-66.7l-5.34,2.67L1334,1805.87l-2.67,2.67h-24l-2.67-2.67v-26.68l61.37-154.75,2.67-2.67h34.69l2.67,2.67,61.37,154.75v26.68Z"/><path class="cls-1" d="M1382.3,1674.89h-2.67l-24,64,2.67,2.67h45.36l2.67-2.67Zm77.38,138.74h-24L1433,1811l-13.34-34.69-5.34-2.67h-66.7l-5.34,2.67L1328.94,1811l-2.67,2.67h-24l-2.67-2.67v-26.68L1361,1629.53l2.67-2.67h34.69l2.67,2.67,61.37,154.75V1811Z"/><path class="cls-1" d="M1377.2,1680h-2.67l-24,64,2.67,2.67h45.36l2.67-2.67Zm77.38,138.74h-24l-2.67-2.67-13.34-34.69-5.34-2.67h-66.7l-5.34,2.67-13.34,34.69-2.67,2.67h-24l-2.67-2.67v-26.68l61.37-154.75,2.67-2.67h34.69l2.67,2.67,61.37,154.75v26.68Z"/><path class="cls-1" d="M1372.11,1685.09h-2.67l-24,64,2.67,2.67h45.36l2.67-2.67Zm77.38,138.74h-24l-2.67-2.67-13.34-34.69-5.34-2.67h-66.7l-5.34,2.67-13.34,34.69-2.67,2.67h-24l-2.67-2.67v-26.68l61.37-154.75,2.67-2.67h34.69l2.67,2.67,61.37,154.75v26.68Z"/><path class="cls-1" d="M1367,1690.18h-2.67l-24,64,2.67,2.67h45.36l2.67-2.67Zm77.38,138.74h-24l-2.67-2.67-13.34-34.69-5.34-2.67h-66.7l-5.34,2.67-13.34,34.69-2.67,2.67h-24l-2.67-2.67v-26.68l61.37-154.75,2.67-2.67H1383l2.67,2.67,61.37,154.75v26.68Z"/><path class="cls-1" d="M1361.91,1695.28h-2.67l-24,64,2.67,2.67h45.36l2.67-2.67ZM1439.29,1834h-24l-2.67-2.67-13.34-34.69-5.34-2.67h-66.7l-5.34,2.67-13.34,34.69-2.67,2.67h-24l-2.67-2.67v-26.68l61.37-154.75,2.67-2.67h34.69l2.67,2.67L1442,1804.67v26.68Z"/><path class="cls-1" d="M1356.82,1700.38h-2.67l-24,64,2.67,2.67h45.36l2.67-2.67Zm77.38,138.74h-24l-2.67-2.67-13.34-34.69-5.34-2.67h-66.7l-5.34,2.67-13.34,34.69-2.67,2.67h-24l-2.67-2.67v-26.68L1335.47,1655l2.67-2.67h34.69l2.67,2.67,61.37,154.75v26.68Z"/><path class="cls-1" d="M1351.72,1705.47h-2.67l-24,64,2.67,2.67h45.36l2.67-2.67Zm77.38,138.74h-24l-2.67-2.67-13.34-34.69-5.34-2.67H1317l-5.34,2.67-13.34,34.69-2.67,2.67h-24l-2.67-2.67v-26.68l61.37-154.75,2.67-2.67h34.69l2.67,2.67,61.37,154.75v26.68Z"/><path class="cls-1" d="M1346.62,1710.57H1344l-24,64,2.67,2.67H1368l2.67-2.67ZM1424,1849.31h-24l-2.67-2.67L1384,1812l-5.34-2.67h-66.7l-5.34,2.67-13.34,34.69-2.67,2.67h-24l-2.67-2.67V1820l61.37-154.75,2.67-2.67h34.69l2.67,2.67L1426.67,1820v26.68Z"/><path class="cls-1" d="M1341.53,1715.67h-2.67l-24,64,2.67,2.67h45.36l2.67-2.67Zm77.38,138.74h-24l-2.67-2.67-13.34-34.69-5.34-2.67h-66.7l-5.34,2.67-13.34,34.69-2.67,2.67h-24l-2.67-2.67v-26.68l61.37-154.75,2.67-2.67h34.69l2.67,2.67,61.37,154.75v26.68Z"/><path class="cls-1" d="M1336.43,1720.76h-2.67l-24,64,2.67,2.67h45.36l2.67-2.67Zm77.38,138.74h-24l-2.67-2.67-13.34-34.69-5.34-2.67h-66.7l-5.34,2.67-13.34,34.69-2.67,2.67h-24l-2.67-2.67v-26.68l61.37-154.75,2.67-2.67h34.69l2.67,2.67,61.37,154.75v26.68Z"/><path class="cls-1" d="M1331.33,1725.86h-2.67l-24,64,2.67,2.67h45.36l2.67-2.67Zm77.38,138.74h-24l-2.67-2.67-13.34-34.69-5.34-2.67h-66.7l-5.34,2.67L1278,1861.94l-2.67,2.67h-24l-2.67-2.67v-26.68L1310,1680.5l2.67-2.67h34.69l2.67,2.67,61.37,154.75v26.68Z"/><path class="cls-1" d="M1326.23,1731h-2.67l-24,64,2.67,2.67h45.36l2.67-2.67Zm77.38,138.74h-24l-2.67-2.67-13.34-34.69-5.34-2.67h-66.7l-5.34,2.67L1272.87,1867l-2.67,2.67h-24l-2.67-2.67v-26.68l61.37-154.75,2.67-2.67h34.69l2.67,2.67,61.37,154.75V1867Z"/><path class="cls-1" d="M1321.14,1736.06h-2.67l-24,64,2.67,2.67h45.36l2.67-2.67Zm77.38,138.74h-24l-2.67-2.67-13.34-34.69-5.34-2.67h-66.7l-5.34,2.67-13.34,34.69-2.67,2.67h-24l-2.67-2.67v-26.68l61.37-154.75,2.67-2.67h34.69l2.67,2.67,61.37,154.75v26.68Z"/><path class="cls-1" d="M1316,1741.15h-2.67l-24,64,2.67,2.67h45.36l2.67-2.67Zm77.38,138.74h-24l-2.67-2.67-13.34-34.69-5.34-2.67h-66.7l-5.34,2.67-13.34,34.69-2.67,2.67h-24l-2.67-2.67v-26.68l61.37-154.75,2.67-2.67H1332l2.67,2.67,61.37,154.75v26.68Z"/><path class="cls-1" d="M1310.94,1746.25h-2.67l-24,64,2.67,2.67h45.36l2.67-2.67ZM1388.32,1885h-24l-2.67-2.67-13.34-34.69L1343,1845h-66.7l-5.34,2.67-13.34,34.69-2.67,2.67h-24l-2.67-2.67v-26.68l61.37-154.75,2.67-2.67H1327l2.67,2.67L1391,1855.64v26.68Z"/><path class="cls-1" d="M1305.85,1751.35h-2.67l-24,64,2.67,2.67h45.36l2.67-2.67Zm77.38,138.74h-24l-2.67-2.67-13.34-34.69-5.34-2.67h-66.7l-5.34,2.67-13.34,34.69-2.67,2.67h-24l-2.67-2.67v-26.68L1284.5,1706l2.67-2.67h34.69l2.67,2.67,61.37,154.75v26.68Z"/><path class="cls-1" d="M1300.75,1756.44h-2.67l-24,64,2.67,2.67h45.36l2.67-2.67Zm77.38,138.74h-24l-2.67-2.67-13.34-34.69-5.34-2.67h-66.7l-5.34,2.67-13.34,34.69-2.67,2.67h-24l-2.67-2.67v-26.68l61.37-154.75,2.67-2.67h34.69l2.67,2.67,61.37,154.75v26.68Z"/><path class="cls-1" d="M1295.65,1761.54H1293l-24,64,2.67,2.67H1317l2.67-2.67ZM1373,1900.28h-24l-2.67-2.67L1333,1862.93l-5.34-2.67H1261l-5.34,2.67-13.34,34.69-2.67,2.67h-24l-2.67-2.67v-26.68l61.37-154.75,2.67-2.67h34.69l2.67,2.67,61.37,154.75v26.68Z"/><path class="cls-1" d="M1290.56,1766.64h-2.67l-24,64,2.67,2.67h45.36l2.67-2.67Zm77.38,138.74h-24l-2.67-2.67L1327.91,1868l-5.34-2.67h-66.7l-5.34,2.67-13.34,34.69-2.67,2.67h-24l-2.67-2.67V1876l61.37-154.75,2.67-2.67h34.69l2.67,2.67L1370.6,1876v26.68Z"/><path class="cls-1" d="M1285.46,1771.73h-2.67l-24,64,2.67,2.67h45.36l2.67-2.67Zm77.38,138.74h-24l-2.67-2.67-13.34-34.69-5.34-2.67h-66.7l-5.34,2.67-13.34,34.69-2.67,2.67h-24l-2.67-2.67v-26.68l61.37-154.75,2.67-2.67h34.69l2.67,2.67,61.37,154.75v26.68Z"/><path class="cls-1" d="M1280.36,1776.83h-2.67l-24,64,2.67,2.67h45.36l2.67-2.67Zm77.38,138.74h-24l-2.67-2.67-13.34-34.69-5.34-2.67h-66.7l-5.34,2.67L1227,1912.91l-2.67,2.67h-24l-2.67-2.67v-26.68L1259,1731.47l2.67-2.67h34.69l2.67,2.67,61.37,154.75v26.68Z"/><path class="cls-1" d="M1275.26,1781.93h-2.67l-24,64,2.67,2.67h45.36l2.67-2.67Zm77.38,138.74h-24L1326,1918l-13.34-34.69-5.34-2.67h-66.7l-5.34,2.67L1221.9,1918l-2.67,2.67h-24l-2.67-2.67v-26.68l61.37-154.75,2.67-2.67h34.69l2.67,2.67,61.37,154.75V1918Z"/><path class="cls-1" d="M1270.17,1787h-2.67l-24,64,2.67,2.67h45.36l2.67-2.67Zm77.38,138.74h-24l-2.67-2.67-13.34-34.69-5.34-2.67h-66.7l-5.34,2.67-13.34,34.69-2.67,2.67h-24l-2.67-2.67v-26.68l61.37-154.75,2.67-2.67h34.69l2.67,2.67,61.37,154.75v26.68Z"/><path class="cls-1" d="M1265.07,1792.12h-2.67l-24,64,2.67,2.67h45.36l2.67-2.67Zm77.38,138.74h-24l-2.67-2.67-13.34-34.69-5.34-2.67h-66.7l-5.34,2.67-13.34,34.69-2.67,2.67h-24l-2.67-2.67v-26.68l61.37-154.75,2.67-2.67h34.69l2.67,2.67,61.37,154.75v26.68Z"/><path class="cls-1" d="M1260,1797.22h-2.67l-24,64,2.67,2.67h45.36l2.67-2.67ZM1337.35,1936h-24l-2.67-2.67-13.34-34.69-5.34-2.67h-66.7l-5.34,2.67-13.34,34.69-2.67,2.67h-24l-2.67-2.67v-26.68l61.37-154.75,2.67-2.67H1276l2.67,2.67L1340,1906.61v26.68Z"/><path class="cls-1" d="M1254.88,1802.32h-2.67l-24,64,2.67,2.67h45.36l2.67-2.67Zm77.38,138.74h-24l-2.67-2.67-13.34-34.69-5.34-2.67h-66.7l-5.34,2.67-13.34,34.69-2.67,2.67h-24l-2.67-2.67v-26.68L1233.53,1757l2.67-2.67h34.69l2.67,2.67,61.37,154.75v26.68Z"/><path class="cls-1" d="M1249.78,1807.41h-2.67l-24,64,2.67,2.67h45.36l2.67-2.67Zm77.38,138.74h-24l-2.67-2.67-13.34-34.69-5.34-2.67h-66.7l-5.34,2.67-13.34,34.69-2.67,2.67h-24l-2.67-2.67v-26.68l61.37-154.75,2.67-2.67h34.69l2.67,2.67,61.37,154.75v26.68Z"/><path class="cls-1" d="M1244.68,1812.51H1242l-24,64,2.67,2.67H1266l2.67-2.67Zm77.38,138.74h-24l-2.67-2.67L1282,1913.9l-5.34-2.67H1210l-5.34,2.67-13.34,34.69-2.67,2.67h-24l-2.67-2.67V1921.9l61.37-154.75,2.67-2.67h34.69l2.67,2.67,61.37,154.75v26.68Z"/><path class="cls-1" d="M1239.59,1817.61h-2.67l-24,64,2.67,2.67h45.36l2.67-2.67ZM1317,1956.35h-24l-2.67-2.67L1276.94,1919l-5.34-2.67h-66.7l-5.34,2.67-13.34,34.69-2.67,2.67h-24l-2.67-2.67V1927l61.37-154.75,2.67-2.67h34.69l2.67,2.67L1319.63,1927v26.68Z"/><path class="cls-1" d="M1234.49,1822.7h-2.67l-24,64,2.67,2.67h45.36l2.67-2.67Zm77.38,138.74h-24l-2.67-2.67-13.34-34.69-5.34-2.67h-66.7l-5.34,2.67-13.34,34.69-2.67,2.67h-24l-2.67-2.67V1932.1l61.37-154.75,2.67-2.67h34.69l2.67,2.67,61.37,154.75v26.68Z"/><path class="cls-1" d="M1229.39,1827.8h-2.67l-24,64,2.67,2.67h45.36l2.67-2.67Zm77.38,138.74h-24l-2.67-2.67-13.34-34.69-5.34-2.67h-66.7l-5.34,2.67L1176,1963.88l-2.67,2.67h-24l-2.67-2.67V1937.2L1208,1782.44l2.67-2.67h34.69l2.67,2.67,61.37,154.75v26.68Z"/><path class="cls-1" d="M1224.29,1832.9h-2.67l-24,64,2.67,2.67h45.36l2.67-2.67Zm77.38,138.74h-24L1275,1969l-13.34-34.69-5.34-2.67h-66.7l-5.34,2.67L1170.93,1969l-2.67,2.67h-24l-2.67-2.67v-26.68L1203,1787.54l2.67-2.67h34.69l2.67,2.67,61.37,154.75V1969Z"/><path class="cls-1" d="M1219.2,1838h-2.67l-24,64,2.67,2.67h45.36l2.67-2.67Zm77.38,138.74h-24l-2.67-2.67-13.34-34.69-5.34-2.67h-66.7l-5.34,2.67-13.34,34.69-2.67,2.67h-24l-2.67-2.67v-26.68l61.37-154.75,2.67-2.67h34.69l2.67,2.67,61.37,154.75v26.68Z"/><path class="cls-1" d="M1214.1,1843.09h-2.67l-24,64,2.67,2.67h45.36l2.67-2.67Zm77.38,138.74h-24l-2.67-2.67-13.34-34.69-5.34-2.67h-66.7l-5.34,2.67-13.34,34.69-2.67,2.67h-24l-2.67-2.67v-26.68l61.37-154.75,2.67-2.67h34.69l2.67,2.67,61.37,154.75v26.68Z"/><path class="cls-1" d="M1209,1848.19h-2.67l-24,64,2.67,2.67h45.36l2.67-2.67Zm77.38,138.74h-24l-2.67-2.67-13.34-34.69-5.34-2.67h-66.7l-5.34,2.67-13.34,34.69-2.67,2.67h-24l-2.67-2.67v-26.68l61.37-154.75,2.67-2.67H1225l2.67,2.67L1289,1957.58v26.68Z"/><path class="cls-1" d="M1203.91,1853.29h-2.67l-24,64,2.67,2.67h45.36l2.67-2.67ZM1281.28,1992h-24l-2.67-2.67-13.34-34.69-5.34-2.67h-66.7l-5.34,2.67-13.34,34.69-2.67,2.67h-24l-2.67-2.67v-26.68l61.37-154.75,2.67-2.67h34.69l2.67,2.67L1284,1962.68v26.68Z"/><path class="cls-1" d="M1198.81,1858.38h-2.67l-24,64,2.67,2.67h45.36l2.67-2.67Zm77.38,138.74h-24l-2.67-2.67-13.34-34.69-5.34-2.67h-66.7l-5.34,2.67-13.34,34.69-2.67,2.67h-24l-2.67-2.67v-26.68L1177.47,1813l2.67-2.67h34.69l2.67,2.67,61.37,154.75v26.68Z"/><path class="cls-1" d="M1193.71,1863.48H1191l-24,64,2.67,2.67h45.36l2.67-2.67Zm77.38,138.74h-24l-2.67-2.67-13.34-34.69-5.34-2.67H1159l-5.34,2.67-13.34,34.69-2.67,2.67h-24l-2.67-2.67v-26.68l61.37-154.75,2.67-2.67h34.69l2.67,2.67,61.37,154.75v26.68Z"/><path class="cls-1" d="M1188.62,1868.58h-2.67l-24,64,2.67,2.67H1210l2.67-2.67ZM1266,2007.32h-24l-2.67-2.67L1226,1970l-5.34-2.67h-66.7l-5.34,2.67-13.34,34.69-2.67,2.67h-24l-2.67-2.67V1978l61.37-154.75,2.67-2.67h34.69l2.67,2.67L1268.66,1978v26.68Z"/><path class="cls-1" d="M1183.52,1873.67h-2.67l-24,64,2.67,2.67h45.36l2.67-2.67Zm77.38,138.74h-24l-2.67-2.67-13.34-34.69-5.34-2.67h-66.7l-5.34,2.67-13.34,34.69-2.67,2.67h-24l-2.67-2.67v-26.68l61.37-154.75,2.67-2.67h34.69l2.67,2.67,61.37,154.75v26.68Z"/><path class="cls-1" d="M1178.42,1878.77h-2.67l-24,64,2.67,2.67h45.36l2.67-2.67Zm77.38,138.74h-24l-2.67-2.67-13.34-34.69-5.34-2.67h-66.7l-5.34,2.67-13.34,34.69-2.67,2.67h-24l-2.67-2.67v-26.68l61.37-154.75,2.67-2.67h34.69l2.67,2.67,61.37,154.75v26.68Z"/><path class="cls-1" d="M1173.33,1883.87h-2.67l-24,64,2.67,2.67h45.36l2.67-2.67Zm77.38,138.74h-24l-2.67-2.67-13.34-34.69-5.34-2.67h-66.7l-5.34,2.67L1120,2019.94l-2.67,2.67h-24l-2.67-2.67v-26.68L1152,1838.51l2.67-2.67h34.69l2.67,2.67,61.37,154.75v26.68Z"/><path class="cls-1" d="M1168.23,1889h-2.67l-24,64,2.67,2.67h45.36l2.67-2.67Zm77.38,138.74h-24l-2.67-2.67-13.34-34.69-5.34-2.67h-66.7l-5.34,2.67L1114.87,2025l-2.67,2.67h-24l-2.67-2.67v-26.68l61.37-154.75,2.67-2.67h34.69l2.67,2.67,61.37,154.75V2025Z"/><path class="cls-1" d="M1163.13,1894.06h-2.67l-24,64,2.67,2.67h45.36l2.67-2.67Zm77.38,138.74h-24l-2.67-2.67-13.34-34.69-5.34-2.67h-66.7l-5.34,2.67-13.34,34.69-2.67,2.67h-24l-2.67-2.67v-26.68l61.37-154.75,2.67-2.67h34.69l2.67,2.67,61.37,154.75v26.68Z"/><path class="cls-1" d="M1158,1899.16h-2.67l-24,64,2.67,2.67h45.36l2.67-2.67Zm77.38,138.74h-24l-2.67-2.67-13.34-34.69-5.34-2.67h-66.7l-5.34,2.67-13.34,34.69-2.67,2.67h-24l-2.67-2.67v-26.68l61.37-154.75,2.67-2.67H1174l2.67,2.67,61.37,154.75v26.68Z"/><path class="cls-1" d="M1152.94,1904.26h-2.67l-24,64,2.67,2.67h45.36l2.67-2.67ZM1230.31,2043h-24l-2.67-2.67-13.34-34.69L1185,2003h-66.7l-5.34,2.67-13.34,34.69-2.67,2.67h-24l-2.67-2.67v-26.68l61.37-154.75,2.67-2.67h34.69l2.67,2.67L1233,2013.65v26.68Z"/><path class="cls-1" d="M1147.84,1909.35h-2.67l-24,64,2.67,2.67h45.36l2.67-2.67Zm77.38,138.74h-24l-2.67-2.67-13.34-34.69-5.34-2.67h-66.7l-5.34,2.67-13.34,34.69-2.67,2.67h-24l-2.67-2.67v-26.68L1126.5,1864l2.67-2.67h34.69l2.67,2.67,61.37,154.75v26.68Z"/><path class="cls-1" d="M1142.74,1914.45h-2.67l-24,64,2.67,2.67h45.36l2.67-2.67Zm77.38,138.74h-24l-2.67-2.67-13.34-34.69-5.34-2.67h-66.7l-5.34,2.67-13.34,34.69-2.67,2.67h-24l-2.67-2.67v-26.68l61.37-154.75,2.67-2.67h34.69l2.67,2.67,61.37,154.75v26.68Z"/><path class="cls-1" d="M1137.65,1919.55H1135l-24,64,2.67,2.67H1159l2.67-2.67ZM1215,2058.29h-24l-2.67-2.67L1175,2020.94l-5.34-2.67H1103l-5.34,2.67-13.34,34.69-2.67,2.67h-24l-2.67-2.67v-26.68l61.37-154.75,2.67-2.67h34.69l2.67,2.67,61.37,154.75v26.68Z"/><path class="cls-1" d="M1132.55,1924.64h-2.67l-24,64,2.67,2.67h45.36l2.67-2.67Zm77.38,138.74h-24l-2.67-2.67L1169.9,2026l-5.34-2.67h-66.7l-5.34,2.67-13.34,34.69-2.67,2.67h-24l-2.67-2.67V2034l61.37-154.75,2.67-2.67h34.69l2.67,2.67L1212.59,2034v26.68Z"/><path class="cls-1" d="M1127.45,1929.74h-2.67l-24,64,2.67,2.67h45.36l2.67-2.67Zm77.38,138.74h-24l-2.67-2.67-13.34-34.69-5.34-2.67h-66.7l-5.34,2.67-13.34,34.69-2.67,2.67h-24l-2.67-2.67v-26.68l61.37-154.75,2.67-2.67h34.69l2.67,2.67,61.37,154.75v26.68Z"/><path class="cls-1" d="M1122.36,1934.84h-2.67l-24,64,2.67,2.67h45.36l2.67-2.67Zm77.38,138.74h-24l-2.67-2.67-13.34-34.69-5.34-2.67h-66.7l-5.34,2.67L1069,2070.91l-2.67,2.67h-24l-2.67-2.67v-26.68L1101,1889.48l2.67-2.67h34.69l2.67,2.67,61.37,154.75v26.68Z"/><path class="cls-1" d="M1117.26,1939.93h-2.67l-24,64,2.67,2.67h45.36l2.67-2.67Zm77.38,138.74h-24L1168,2076l-13.34-34.69-5.34-2.67h-66.7l-5.34,2.67L1063.9,2076l-2.67,2.67h-24l-2.67-2.67v-26.68l61.37-154.75,2.67-2.67h34.69l2.67,2.67,61.37,154.75V2076Z"/><path class="cls-1" d="M1112.16,1945h-2.67l-24,64,2.67,2.67h45.36l2.67-2.67Zm77.38,138.74h-24l-2.67-2.67-13.34-34.69-5.34-2.67h-66.7l-5.34,2.67-13.34,34.69-2.67,2.67h-24l-2.67-2.67v-26.68l61.37-154.75,2.67-2.67h34.69l2.67,2.67,61.37,154.75v26.68Z"/><path class="cls-1" d="M1107.06,1950.13h-2.67l-24,64,2.67,2.67h45.36l2.67-2.67Zm77.38,138.74h-24l-2.67-2.67-13.34-34.69-5.34-2.67h-66.7l-5.34,2.67-13.34,34.69-2.67,2.67h-24l-2.67-2.67v-26.68l61.37-154.75,2.67-2.67h34.69l2.67,2.67,61.37,154.75v26.68Z"/><path class="cls-1" d="M1102,1955.22h-2.67l-24,64,2.67,2.67h45.36l2.67-2.67ZM1179.35,2094h-24l-2.67-2.67-13.34-34.69-5.34-2.67h-66.7l-5.34,2.67-13.34,34.69-2.67,2.67h-24l-2.67-2.67v-26.68l61.37-154.75,2.67-2.67H1118l2.67,2.67L1182,2064.62v26.68Z"/><path class="cls-1" d="M1096.87,1960.32h-2.67l-24,64,2.67,2.67h45.36l2.67-2.67Zm77.38,138.74h-24l-2.67-2.67-13.34-34.69-5.34-2.67h-66.7l-5.34,2.67-13.34,34.69-2.67,2.67h-24l-2.67-2.67v-26.68L1075.53,1915l2.67-2.67h34.69l2.67,2.67,61.37,154.75v26.68Z"/><path class="cls-1" d="M1091.77,1965.42h-2.67l-24,64,2.67,2.67h45.36l2.67-2.67Zm77.38,138.74h-24l-2.67-2.67-13.34-34.69-5.34-2.67h-66.7l-5.34,2.67-13.34,34.69-2.67,2.67h-24l-2.67-2.67v-26.68l61.37-154.75,2.67-2.67h34.69l2.67,2.67,61.37,154.75v26.68Z"/><path class="cls-1" d="M1086.68,1970.52H1084l-24,64,2.67,2.67H1108l2.67-2.67Zm77.38,138.74h-24l-2.67-2.67L1124,2071.91l-5.34-2.67H1052l-5.34,2.67-13.34,34.69-2.67,2.67h-24l-2.67-2.67v-26.68l61.37-154.75,2.67-2.67h34.69l2.67,2.67,61.37,154.75v26.68Z"/><path class="cls-1" d="M1081.58,1975.61h-2.67l-24,64,2.67,2.67h45.36l2.67-2.67ZM1159,2114.36h-24l-2.67-2.67L1118.93,2077l-5.34-2.67h-66.7l-5.34,2.67-13.34,34.69-2.67,2.67h-24l-2.67-2.67V2085l61.37-154.75,2.67-2.67h34.69l2.67,2.67L1161.63,2085v26.68Z"/><path class="cls-1" d="M1076.48,1980.71h-2.67l-24,64,2.67,2.67h45.36l2.67-2.67Zm77.38,138.74h-24l-2.67-2.67-13.34-34.69-5.34-2.67h-66.7l-5.34,2.67-13.34,34.69-2.67,2.67h-24l-2.67-2.67V2090.1l61.37-154.75,2.67-2.67h34.69l2.67,2.67,61.37,154.75v26.68Z"/><path class="cls-1" d="M1071.39,1985.81h-2.67l-24,64,2.67,2.67h45.36l2.67-2.67Zm77.38,138.74h-24l-2.67-2.67-13.34-34.69-5.34-2.67h-66.7l-5.34,2.67L1018,2121.88l-2.67,2.67h-24l-2.67-2.67V2095.2L1050,1940.45l2.67-2.67h34.69l2.67,2.67,61.37,154.75v26.68Z"/><path class="cls-1" d="M1066.29,1990.9h-2.67l-24,64,2.67,2.67h45.36l2.67-2.67Zm77.38,138.74h-24L1117,2127l-13.34-34.69-5.34-2.67h-66.7l-5.34,2.67L1012.93,2127l-2.67,2.67h-24l-2.67-2.67V2100.3l61.37-154.75,2.67-2.67h34.69l2.67,2.67,61.37,154.75V2127Z"/><path class="cls-1" d="M1061.19,1996h-2.67l-24,64,2.67,2.67h45.36l2.67-2.67Zm77.38,138.74h-24l-2.67-2.67-13.34-34.69-5.34-2.67h-66.7l-5.34,2.67-13.34,34.69-2.67,2.67h-24l-2.67-2.67V2105.4l61.37-154.75,2.67-2.67h34.69l2.67,2.67,61.37,154.75v26.68Z"/><path class="cls-1" d="M1056.1,2001.1h-2.67l-24,64,2.67,2.67h45.36l2.67-2.67Zm77.38,138.74h-24l-2.67-2.67-13.34-34.69-5.34-2.67h-66.7l-5.34,2.67-13.34,34.69-2.67,2.67h-24l-2.67-2.67v-26.68l61.37-154.75,2.67-2.67h34.69l2.67,2.67,61.37,154.75v26.68Z"/><path class="cls-1" d="M1051,2006.19h-2.67l-24,64,2.67,2.67h45.36l2.67-2.67Zm77.38,138.74h-24l-2.67-2.67-13.34-34.69-5.34-2.67h-66.7l-5.34,2.67-13.34,34.69-2.67,2.67H971l-2.67-2.67v-26.68l61.37-154.75,2.67-2.67H1067l2.67,2.67L1131,2115.59v26.68Z"/><path class="cls-1" d="M1045.9,2011.29h-2.67l-24,64,2.67,2.67h45.36l2.67-2.67ZM1123.28,2150h-24l-2.67-2.67-13.34-34.69-5.34-2.67h-66.7l-5.34,2.67-13.34,34.69-2.67,2.67h-24l-2.67-2.67v-26.68l61.37-154.75,2.67-2.67h34.69l2.67,2.67,61.37,154.75v26.68Z"/><path class="cls-1" d="M1040.8,2016.39h-2.67l-24,64,2.67,2.67h45.36l2.67-2.67Zm77.38,138.74h-24l-2.67-2.67-13.34-34.69-5.34-2.67h-66.7l-5.34,2.67-13.34,34.69-2.67,2.67h-24l-2.67-2.67v-26.68L1019.46,1971l2.67-2.67h34.69l2.67,2.67,61.37,154.75v26.68Z"/><path class="cls-1" d="M1035.71,2021.49H1033l-24,64,2.67,2.67h45.36l2.67-2.67Zm77.38,138.74h-24l-2.67-2.67-13.34-34.69-5.34-2.67H1001l-5.34,2.67-13.34,34.69-2.67,2.67h-24l-2.67-2.67v-26.68l61.37-154.75,2.67-2.67h34.69l2.67,2.67,61.37,154.75v26.68Z"/><path class="cls-1" d="M1030.61,2026.58h-2.67l-24,64,2.67,2.67H1052l2.67-2.67ZM1108,2165.33h-24l-2.67-2.67L1068,2128l-5.34-2.67h-66.7l-5.34,2.67-13.34,34.69-2.67,2.67h-24l-2.67-2.67V2136l61.37-154.75,2.67-2.67h34.69l2.67,2.67L1110.66,2136v26.68Z"/><path class="cls-1" d="M1025.51,2031.68h-2.67l-24,64,2.67,2.67h45.36l2.67-2.67Zm77.38,138.74h-24l-2.67-2.67-13.34-34.69-5.34-2.67h-66.7l-5.34,2.67-13.34,34.69-2.67,2.67h-24l-2.67-2.67v-26.68l61.37-154.75,2.67-2.67h34.69l2.67,2.67,61.37,154.75v26.68Z"/><path class="cls-1" d="M1020.42,2036.78h-2.67l-24,64,2.67,2.67h45.36l2.67-2.67Zm77.38,138.74h-24l-2.67-2.67-13.34-34.69-5.34-2.67h-66.7l-5.34,2.67-13.34,34.69-2.67,2.67h-24l-2.67-2.67v-26.68l61.37-154.75,2.67-2.67h34.69l2.67,2.67,61.37,154.75v26.68Z"/><path class="cls-1" d="M1015.32,2041.87h-2.67l-24,64,2.67,2.67h45.36l2.67-2.67Zm77.38,138.74h-24l-2.67-2.67-13.34-34.69-5.34-2.67h-66.7l-5.34,2.67L962,2177.95l-2.67,2.67h-24l-2.67-2.67v-26.68L994,1996.51l2.67-2.67h34.69l2.67,2.67,61.37,154.75v26.68Z"/><path class="cls-1" d="M1010.22,2047h-2.67l-24,64,2.67,2.67h45.36l2.67-2.67Zm77.38,138.74h-24l-2.67-2.67-13.34-34.69-5.34-2.67h-66.7l-5.34,2.67L956.86,2183l-2.67,2.67h-24l-2.67-2.67v-26.68l61.37-154.75,2.67-2.67h34.69l2.67,2.67,61.37,154.75V2183Z"/><path class="cls-1" d="M1005.13,2052.07h-2.67l-24,64,2.67,2.67h45.36l2.67-2.67Zm77.38,138.74h-24l-2.67-2.67-13.34-34.69-5.34-2.67h-66.7l-5.34,2.67-13.34,34.69-2.67,2.67h-24l-2.67-2.67v-26.68l61.37-154.75,2.67-2.67h34.69l2.67,2.67,61.37,154.75v26.68Z"/><path class="cls-1" d="M1000,2057.16h-2.67l-24,64,2.67,2.67h45.36l2.67-2.67Zm77.38,138.74h-24l-2.67-2.67-13.34-34.69-5.34-2.67h-66.7l-5.34,2.67-13.34,34.69-2.67,2.67H920l-2.67-2.67v-26.68l61.37-154.75,2.67-2.67H1016l2.67,2.67,61.37,154.75v26.68Z"/><path class="cls-1" d="M994.93,2062.26h-2.67l-24,64,2.67,2.67h45.36l2.67-2.67ZM1072.31,2201h-24l-2.67-2.67-13.34-34.69-5.34-2.67h-66.7l-5.34,2.67-13.34,34.69L938.9,2201h-24l-2.67-2.67v-26.68l61.37-154.75,2.67-2.67h34.69l2.67,2.67L1075,2171.66v26.68Z"/><path class="cls-1" d="M989.83,2067.36h-2.67l-24,64,2.67,2.67h45.36l2.67-2.67Zm77.38,138.74h-24l-2.67-2.67-13.34-34.69-5.34-2.67h-66.7l-5.34,2.67-13.34,34.69-2.67,2.67h-24l-2.67-2.67v-26.68L968.49,2022l2.67-2.67h34.69l2.67,2.67,61.37,154.75v26.68Z"/><path class="cls-1" d="M984.74,2072.45h-2.67l-24,64,2.67,2.67h45.36l2.67-2.67Zm77.38,138.74h-24l-2.67-2.67-13.34-34.69-5.34-2.67h-66.7l-5.34,2.67-13.34,34.69-2.67,2.67h-24l-2.67-2.67v-26.68l61.37-154.75,2.67-2.67h34.69l2.67,2.67,61.37,154.75v26.68Z"/><path class="cls-1" d="M979.64,2077.55H977l-24,64,2.67,2.67H1001l2.67-2.67ZM1057,2216.3h-24l-2.67-2.67L1017,2178.94l-5.34-2.67H945l-5.34,2.67-13.34,34.69-2.67,2.67h-24l-2.67-2.67v-26.68l61.37-154.75,2.67-2.67h34.69l2.67,2.67,61.37,154.75v26.68Z"/><path class="cls-1" d="M974.54,2082.65h-2.67l-24,64,2.67,2.67h45.36l2.67-2.67Zm77.38,138.74h-24l-2.67-2.67L1011.9,2184l-5.34-2.67h-66.7l-5.34,2.67-13.34,34.69-2.67,2.67h-24l-2.67-2.67V2192l61.37-154.75,2.67-2.67h34.69l2.67,2.67L1054.59,2192v26.68Z"/><path class="cls-1" d="M969.45,2087.75h-2.67l-24,64,2.67,2.67h45.36l2.67-2.67Zm77.38,138.74h-24l-2.67-2.67-13.34-34.69-5.34-2.67h-66.7l-5.34,2.67-13.34,34.69-2.67,2.67h-24l-2.67-2.67v-26.68l61.37-154.75,2.67-2.67h34.69l2.67,2.67,61.37,154.75v26.68Z"/><path class="cls-1" d="M964.35,2092.84h-2.67l-24,64,2.67,2.67H985.7l2.67-2.67Zm77.38,138.74h-24l-2.67-2.67-13.34-34.69-5.34-2.67h-66.7l-5.34,2.67L911,2228.92l-2.67,2.67h-24l-2.67-2.67v-26.68L943,2047.48l2.67-2.67h34.69l2.67,2.67,61.37,154.75v26.68Z"/><path class="cls-1" d="M959.25,2097.94h-2.67l-24,64,2.67,2.67H980.6l2.67-2.67Zm77.38,138.74h-24l-2.67-2.67-13.34-34.69-5.34-2.67h-66.7l-5.34,2.67L905.89,2234l-2.67,2.67h-24l-2.67-2.67v-26.68l61.37-154.75,2.67-2.67h34.69l2.67,2.67,61.37,154.75V2234Z"/><path class="cls-1" d="M954.16,2103h-2.67l-24,64,2.67,2.67H975.5l2.67-2.67Zm77.38,138.74h-24l-2.67-2.67-13.34-34.69-5.34-2.67h-66.7l-5.34,2.67-13.34,34.69-2.67,2.67h-24l-2.67-2.67v-26.68l61.37-154.75,2.67-2.67h34.69l2.67,2.67,61.37,154.75v26.68Z"/><path class="cls-1" d="M949.06,2108.13h-2.67l-24,64,2.67,2.67H970.4l2.67-2.67Zm77.38,138.74h-24l-2.67-2.67-13.34-34.69-5.34-2.67h-66.7l-5.34,2.67-13.34,34.69-2.67,2.67H869l-2.67-2.67v-26.68l61.37-154.75,2.67-2.67h34.69l2.67,2.67,61.37,154.75v26.68Z"/><path class="cls-1" d="M944,2113.23h-2.67l-24,64,2.67,2.67h45.36l2.67-2.67ZM1021.34,2252h-24l-2.67-2.67-13.34-34.69L976,2212h-66.7l-5.34,2.67-13.34,34.69-2.67,2.67h-24l-2.67-2.67v-26.68l61.37-154.75,2.67-2.67H960l2.67,2.67L1024,2222.63v26.68Z"/><path class="cls-1" d="M938.87,2118.33H936.2l-24,64,2.67,2.67h45.36l2.67-2.67Zm77.38,138.74h-24l-2.67-2.67-13.34-34.69-5.34-2.67h-66.7l-5.34,2.67L885.5,2254.4l-2.67,2.67h-24l-2.67-2.67v-26.68L917.52,2073l2.67-2.67h34.69l2.67,2.67,61.37,154.75v26.68Z"/><path class="cls-1" d="M933.77,2123.42H931.1l-24,64,2.67,2.67h45.36l2.67-2.67Zm77.38,138.74h-24l-2.67-2.67-13.34-34.69-5.34-2.67h-66.7l-5.34,2.67L880.4,2259.5l-2.67,2.67h-24l-2.67-2.67v-26.68l61.37-154.75,2.67-2.67h34.69l2.67,2.67,61.37,154.75v26.68Z"/><path class="cls-1" d="M928.67,2128.52H926l-24,64,2.67,2.67H950l2.67-2.67ZM1006,2267.27H982l-2.67-2.67L966,2229.91l-5.34-2.67H894l-5.34,2.67-13.34,34.69-2.67,2.67h-24L846,2264.6v-26.68l61.37-154.75,2.67-2.67h34.69l2.67,2.67,61.37,154.75v26.68Z"/><path class="cls-1" d="M923.57,2133.62h-2.67l-24,64,2.67,2.67h45.36l2.67-2.67ZM1001,2272.36h-24l-2.67-2.67L960.93,2235l-5.34-2.67h-66.7l-5.34,2.67-13.34,34.69-2.67,2.67h-24l-2.67-2.67V2243l61.37-154.75,2.67-2.67h34.69l2.67,2.67L1003.62,2243v26.68Z"/><path class="cls-1" d="M918.48,2138.72h-2.67l-24,64,2.67,2.67h45.36l2.67-2.67Zm77.38,138.74h-24l-2.67-2.67-13.34-34.69-5.34-2.67h-66.7l-5.34,2.67-13.34,34.69-2.67,2.67h-24l-2.67-2.67v-26.68l61.37-154.75,2.67-2.67h34.69l2.67,2.67,61.37,154.75v26.68Z"/><path class="cls-1" d="M913.38,2143.81h-2.67l-24,64,2.67,2.67h45.36l2.67-2.67Zm77.38,138.74h-24l-2.67-2.67-13.34-34.69-5.34-2.67h-66.7l-5.34,2.67L860,2279.89l-2.67,2.67h-24l-2.67-2.67v-26.68L892,2098.45l2.67-2.67h34.69l2.67,2.67,61.37,154.75v26.68Z"/><path class="cls-1" d="M908.28,2148.91h-2.67l-24,64,2.67,2.67h45.36l2.67-2.67Zm77.38,138.74h-24L959,2285l-13.34-34.69-5.34-2.67H873.6l-5.34,2.67L854.92,2285l-2.67,2.67h-24l-2.67-2.67V2258.3l61.37-154.75,2.67-2.67h34.69l2.67,2.67,61.37,154.75V2285Z"/><path class="cls-1" d="M903.19,2154h-2.67l-24,64,2.67,2.67h45.36l2.67-2.67Zm77.38,138.74h-24l-2.67-2.67-13.34-34.69-5.34-2.67H868.5l-5.34,2.67-13.34,34.69-2.67,2.67h-24l-2.67-2.67V2263.4l61.37-154.75,2.67-2.67H919.2l2.67,2.67,61.37,154.75v26.68Z"/><path class="cls-1" d="M898.09,2159.1h-2.67l-24,64,2.67,2.67h45.36l2.67-2.67Zm77.38,138.74h-24l-2.67-2.67-13.34-34.69-5.34-2.67H863.4l-5.34,2.67-13.34,34.69-2.67,2.67H818l-2.67-2.67V2268.5l61.37-154.75,2.67-2.67H914.1l2.67,2.67,61.37,154.75v26.68Z"/><path class="cls-1" d="M893,2164.2h-2.67l-24,64,2.67,2.67h45.36l2.67-2.67Zm77.38,138.74h-24l-2.67-2.67-13.34-34.69-5.34-2.67h-66.7l-5.34,2.67-13.34,34.69-2.67,2.67h-24l-2.67-2.67v-26.68l61.37-154.75,2.67-2.67H909l2.67,2.67L973,2273.59v26.68Z"/><path class="cls-1" d="M887.9,2169.3h-2.67l-24,64,2.67,2.67h45.36l2.67-2.67ZM965.27,2308h-24l-2.67-2.67-13.34-34.69-5.34-2.67h-66.7l-5.34,2.67-13.34,34.69-2.67,2.67h-24l-2.67-2.67v-26.68l61.37-154.75,2.67-2.67H903.9l2.67,2.67,61.37,154.75v26.68Z"/><path class="cls-1" d="M882.8,2174.39h-2.67l-24,64,2.67,2.67h45.36l2.67-2.67Zm77.38,138.74h-24l-2.67-2.67-13.34-34.69-5.34-2.67h-66.7l-5.34,2.67-13.34,34.69-2.67,2.67h-24l-2.67-2.67v-26.68L861.45,2129l2.67-2.67h34.69l2.67,2.67,61.37,154.75v26.68Z"/><path class="cls-1" d="M877.7,2179.49H875l-24,64,2.67,2.67H899l2.67-2.67Zm77.38,138.74h-24l-2.67-2.67-13.34-34.69-5.34-2.67H843l-5.34,2.67-13.34,34.69-2.67,2.67h-24l-2.67-2.67v-26.68l61.37-154.75,2.67-2.67h34.69l2.67,2.67,61.37,154.75v26.68Z"/><path class="cls-1" d="M872.6,2184.59h-2.67l-24,64,2.67,2.67H894l2.67-2.67ZM950,2323.33H926l-2.67-2.67L910,2286l-5.34-2.67h-66.7l-5.34,2.67-13.34,34.69-2.67,2.67h-24l-2.67-2.67V2294l61.37-154.75,2.67-2.67h34.69l2.67,2.67L952.65,2294v26.68Z"/><path class="cls-1" d="M867.51,2189.69h-2.67l-24,64,2.67,2.67h45.36l2.67-2.67Zm77.38,138.74h-24l-2.67-2.67-13.34-34.69-5.34-2.67h-66.7l-5.34,2.67-13.34,34.69-2.67,2.67h-24l-2.67-2.67v-26.68l61.37-154.75,2.67-2.67h34.69l2.67,2.67,61.37,154.75v26.68Z"/><path class="cls-1" d="M862.41,2194.78h-2.67l-24,64,2.67,2.67h45.36l2.67-2.67Zm77.38,138.74h-24l-2.67-2.67-13.34-34.69-5.34-2.67h-66.7l-5.34,2.67L809,2330.86l-2.67,2.67h-24l-2.67-2.67v-26.68l61.37-154.75,2.67-2.67h34.69l2.67,2.67,61.37,154.75v26.68Z"/><path class="cls-1" d="M857.31,2199.88h-2.67l-24,64,2.67,2.67h45.36l2.67-2.67Zm77.38,138.74h-24L908,2336l-13.34-34.69-5.34-2.67h-66.7l-5.34,2.67L804,2336l-2.67,2.67h-24L774.6,2336v-26.68L836,2154.52l2.67-2.67h34.69l2.67,2.67,61.37,154.75V2336Z"/><path class="cls-1" d="M852.22,2205h-2.67l-24,64,2.67,2.67h45.36l2.67-2.67Zm77.38,138.74h-24l-2.67-2.67-13.34-34.69-5.34-2.67h-66.7l-5.34,2.67-13.34,34.69-2.67,2.67h-24l-2.67-2.67v-26.68l61.37-154.75,2.67-2.67h34.69l2.67,2.67,61.37,154.75v26.68Z"/><path class="cls-1" d="M847.12,2210.07h-2.67l-24,64,2.67,2.67h45.36l2.67-2.67Zm77.38,138.74h-24l-2.67-2.67-13.34-34.69-5.34-2.67h-66.7l-5.34,2.67-13.34,34.69-2.67,2.67h-24l-2.67-2.67v-26.68l61.37-154.75,2.67-2.67h34.69l2.67,2.67,61.37,154.75v26.68Z"/><path class="cls-1" d="M842,2215.17h-2.67l-24,64,2.67,2.67h45.36l2.67-2.67Zm77.38,138.74h-24l-2.67-2.67-13.34-34.69-5.34-2.67h-66.7l-5.34,2.67-13.34,34.69-2.67,2.67H762l-2.67-2.67v-26.68l61.37-154.75,2.67-2.67H858l2.67,2.67,61.37,154.75v26.68Z"/><path class="cls-1" d="M836.93,2220.27h-2.67l-24,64,2.67,2.67h45.36l2.67-2.67ZM914.3,2359h-24l-2.67-2.67-13.34-34.69-5.34-2.67h-66.7l-5.34,2.67-13.34,34.69-2.67,2.67h-24l-2.67-2.67v-26.68l61.37-154.75,2.67-2.67h34.69l2.67,2.67L917,2329.66v26.68Z"/><path class="cls-1" d="M831.83,2225.36h-2.67l-24,64,2.67,2.67h45.36l2.67-2.67Zm77.38,138.74h-24l-2.67-2.67-13.34-34.69-5.34-2.67h-66.7l-5.34,2.67-13.34,34.69-2.67,2.67h-24l-2.67-2.67v-26.68L810.48,2180l2.67-2.67h34.69l2.67,2.67,61.37,154.75v26.68Z"/><path class="cls-1" d="M826.73,2230.46h-2.67l-24,64,2.67,2.67h45.36l2.67-2.67Zm77.38,138.74h-24l-2.67-2.67-13.34-34.69-5.34-2.67H792l-5.34,2.67-13.34,34.69-2.67,2.67h-24l-2.67-2.67v-26.68l61.37-154.75,2.67-2.67h34.69l2.67,2.67,61.37,154.75v26.68Z"/><path class="cls-1" d="M821.64,2235.56H819l-24,64,2.67,2.67H843l2.67-2.67ZM899,2374.3H875l-2.67-2.67L859,2336.95l-5.34-2.67h-66.7l-5.34,2.67-13.34,34.69-2.67,2.67h-24l-2.67-2.67V2345l61.37-154.75,2.67-2.67h34.69l2.67,2.67L901.68,2345v26.68Z"/><path class="cls-1" d="M816.54,2240.65h-2.67l-24,64,2.67,2.67h45.36l2.67-2.67Zm77.38,138.74h-24l-2.67-2.67L853.89,2342l-5.34-2.67h-66.7l-5.34,2.67-13.34,34.69-2.67,2.67h-24l-2.67-2.67V2350l61.37-154.75,2.67-2.67h34.69l2.67,2.67L896.58,2350v26.68Z"/><path class="cls-1" d="M811.44,2245.75h-2.67l-24,64,2.67,2.67h45.36l2.67-2.67Zm77.38,138.74h-24l-2.67-2.67-13.34-34.69-5.34-2.67h-66.7l-5.34,2.67-13.34,34.69-2.67,2.67h-24l-2.67-2.67v-26.68l61.37-154.75,2.67-2.67h34.69l2.67,2.67,61.37,154.75v26.68Z"/><path class="cls-1" d="M806.34,2250.85h-2.67l-24,64,2.67,2.67h45.36l2.67-2.67Zm77.38,138.74h-24l-2.67-2.67-13.34-34.69-5.34-2.67h-66.7l-5.34,2.67L753,2386.92l-2.67,2.67h-24l-2.67-2.67v-26.68L785,2205.49l2.67-2.67h34.69l2.67,2.67,61.37,154.75v26.68Z"/><path class="cls-1" d="M801.25,2255.95h-2.67l-24,64,2.67,2.67h45.36l2.67-2.67Zm77.38,138.74h-24l-2.67-2.67-13.34-34.69-5.34-2.67h-66.7l-5.34,2.67L747.88,2392l-2.67,2.67h-24l-2.67-2.67v-26.68l61.37-154.75,2.67-2.67h34.69l2.67,2.67,61.37,154.75V2392Z"/><path class="cls-1" d="M796.15,2261h-2.67l-24,64,2.67,2.67H817.5l2.67-2.67Zm77.38,138.74h-24l-2.67-2.67-13.34-34.69-5.34-2.67h-66.7l-5.34,2.67-13.34,34.69-2.67,2.67h-24l-2.67-2.67v-26.68l61.37-154.75,2.67-2.67h34.69l2.67,2.67,61.37,154.75v26.68Z"/><path class="cls-1" d="M791.05,2266.14h-2.67l-24,64,2.67,2.67H812.4l2.67-2.67Zm77.38,138.74h-24l-2.67-2.67-13.34-34.69-5.34-2.67h-66.7l-5.34,2.67-13.34,34.69-2.67,2.67H711l-2.67-2.67v-26.68l61.37-154.75,2.67-2.67h34.69l2.67,2.67,61.37,154.75v26.68Z"/><path class="cls-1" d="M786,2271.24h-2.67l-24,64,2.67,2.67H807.3l2.67-2.67ZM863.33,2410h-24l-2.67-2.67-13.34-34.69L818,2370h-66.7l-5.34,2.67-13.34,34.69-2.67,2.67h-24l-2.67-2.67v-26.68l61.37-154.75,2.67-2.67H802l2.67,2.67L866,2380.63v26.68Z"/><path class="cls-1" d="M780.86,2276.33h-2.67l-24,64,2.67,2.67h45.36l2.67-2.67Zm77.38,138.74h-24l-2.67-2.67-13.34-34.69-5.34-2.67h-66.7l-5.34,2.67-13.34,34.69-2.67,2.67h-24l-2.67-2.67v-26.68L759.51,2231l2.67-2.67h34.69l2.67,2.67,61.37,154.75v26.68Z"/><path class="cls-1" d="M775.76,2281.43h-2.67l-24,64,2.67,2.67h45.36l2.67-2.67Zm77.38,138.74h-24l-2.67-2.67-13.34-34.69-5.34-2.67h-66.7l-5.34,2.67-13.34,34.69-2.67,2.67h-24l-2.67-2.67v-26.68l61.37-154.75,2.67-2.67h34.69l2.67,2.67,61.37,154.75v26.68Z"/><path class="cls-1" d="M770.67,2286.53H768l-24,64,2.67,2.67H792l2.67-2.67ZM848,2425.27H824l-2.67-2.67L808,2387.92l-5.34-2.67H736l-5.34,2.67L717.3,2422.6l-2.67,2.67h-24L688,2422.6v-26.68l61.37-154.75,2.67-2.67h34.69l2.67,2.67,61.37,154.75v26.68Z"/><path class="cls-1" d="M765.57,2291.62H762.9l-24,64,2.67,2.67h45.36l2.67-2.67Zm77.38,138.74h-24l-2.67-2.67L802.92,2393l-5.34-2.67h-66.7l-5.34,2.67-13.34,34.69-2.67,2.67h-24l-2.67-2.67V2401l61.37-154.75,2.67-2.67h34.69l2.67,2.67L845.61,2401v26.68Z"/><path class="cls-1" d="M760.47,2296.72H757.8l-24,64,2.67,2.67h45.36l2.67-2.67Zm77.38,138.74h-24l-2.67-2.67-13.34-34.69-5.34-2.67h-66.7l-5.34,2.67-13.34,34.69-2.67,2.67h-24l-2.67-2.67v-26.68l61.37-154.75,2.67-2.67h34.69l2.67,2.67,61.37,154.75v26.68Z"/><path class="cls-1" d="M755.37,2301.82h-2.67l-24,64,2.67,2.67h45.36l2.67-2.67Zm77.38,138.74h-24l-2.67-2.67-13.34-34.69-5.34-2.67h-66.7l-5.34,2.67L702,2437.89l-2.67,2.67h-24l-2.67-2.67v-26.68L734,2256.46l2.67-2.67h34.69l2.67,2.67,61.37,154.75v26.68Z"/><path class="cls-1" d="M750.28,2306.92h-2.67l-24,64,2.67,2.67h45.36l2.67-2.67Zm77.38,138.74h-24L801,2443l-13.34-34.69-5.34-2.67h-66.7l-5.34,2.67L696.91,2443l-2.67,2.67h-24l-2.67-2.67v-26.68l61.37-154.75,2.67-2.67h34.69l2.67,2.67,61.37,154.75V2443Z"/><path class="cls-1" d="M745.18,2312h-2.67l-24,64,2.67,2.67h45.36l2.67-2.67Zm77.38,138.74h-24l-2.67-2.67-13.34-34.69-5.34-2.67H710.5l-5.34,2.67-13.34,34.69-2.67,2.67h-24l-2.67-2.67v-26.68l61.37-154.75,2.67-2.67h34.69l2.67,2.67,61.37,154.75v26.68Z"/><path class="cls-1" d="M740.08,2317.11h-2.67l-24,64,2.67,2.67h45.36l2.67-2.67Zm77.38,138.74h-24l-2.67-2.67-13.34-34.69-5.34-2.67H705.4l-5.34,2.67-13.34,34.69-2.67,2.67H660l-2.67-2.67V2426.5l61.37-154.75,2.67-2.67h34.69l2.67,2.67,61.37,154.75v26.68Z"/><path class="cls-1" d="M735,2322.21h-2.67l-24,64,2.67,2.67h45.36l2.67-2.67ZM812.36,2461h-24l-2.67-2.67-13.34-34.69-5.34-2.67H700.3L695,2423.6l-13.34,34.69L679,2461h-24l-2.67-2.67V2431.6l61.37-154.75,2.67-2.67H751l2.67,2.67L815,2431.6v26.68Z"/><path class="cls-1" d="M729.89,2327.3h-2.67l-24,64,2.67,2.67h45.36l2.67-2.67ZM807.27,2466h-24l-2.67-2.67-13.34-34.69-5.34-2.67H695.2l-5.34,2.67-13.34,34.69-2.67,2.67h-24l-2.67-2.67V2436.7l61.37-154.75,2.67-2.67H745.9l2.67,2.67,61.37,154.75v26.68Z"/><path class="cls-1" d="M724.79,2332.4h-2.67l-24,64,2.67,2.67h45.36l2.67-2.67Zm77.38,138.74h-24l-2.67-2.67-13.34-34.69-5.34-2.67h-66.7l-5.34,2.67-13.34,34.69-2.67,2.67h-24l-2.67-2.67v-26.68L703.45,2287l2.67-2.67H740.8l2.67,2.67,61.37,154.75v26.68Z"/><path class="cls-1" d="M719.7,2337.5H717l-24,64,2.67,2.67H741l2.67-2.67Zm77.38,138.74h-24l-2.67-2.67-13.34-34.69-5.34-2.67H685l-5.34,2.67-13.34,34.69-2.67,2.67h-24l-2.67-2.67v-26.68l61.37-154.75,2.67-2.67H735.7l2.67,2.67,61.37,154.75v26.68Z"/><path class="cls-1" d="M714.6,2342.59h-2.67l-24,64,2.67,2.67h45.36l2.67-2.67ZM792,2481.34H768l-2.67-2.67L752,2444l-5.34-2.67h-66.7l-5.34,2.67-13.34,34.69-2.67,2.67h-24l-2.67-2.67V2452l61.37-154.75,2.67-2.67h34.69l2.67,2.67L794.64,2452v26.68Z"/><path class="cls-1" d="M709.5,2347.69h-2.67l-24,64,2.67,2.67h45.36l2.67-2.67Zm77.38,138.74h-24l-2.67-2.67-13.34-34.69-5.34-2.67h-66.7l-5.34,2.67-13.34,34.69-2.67,2.67h-24l-2.67-2.67v-26.68l61.37-154.75,2.67-2.67h34.69l2.67,2.67,61.37,154.75v26.68Z"/><path class="cls-1" d="M704.4,2352.79h-2.67l-24,64,2.67,2.67h45.36l2.67-2.67Zm77.38,138.74h-24l-2.67-2.67-13.34-34.69-5.34-2.67h-66.7l-5.34,2.67L651,2488.86l-2.67,2.67h-24l-2.67-2.67v-26.68l61.37-154.75,2.67-2.67h34.69l2.67,2.67,61.37,154.75v26.68Z"/><path class="cls-1" d="M699.31,2357.88h-2.67l-24,64,2.67,2.67h45.36l2.67-2.67Zm77.38,138.74h-24L750,2494l-13.34-34.69-5.34-2.67h-66.7l-5.34,2.67L645.94,2494l-2.67,2.67h-24L616.6,2494v-26.68L678,2312.53l2.67-2.67h34.69l2.67,2.67,61.37,154.75V2494Z"/><path class="cls-1" d="M694.21,2363h-2.67l-24,64,2.67,2.67h45.36l2.67-2.67Zm77.38,138.74h-24l-2.67-2.67-13.34-34.69-5.34-2.67h-66.7l-5.34,2.67-13.34,34.69-2.67,2.67h-24l-2.67-2.67v-26.68l61.37-154.75,2.67-2.67h34.69l2.67,2.67,61.37,154.75v26.68Z"/><path class="cls-1" d="M689.11,2368.08h-2.67l-24,64,2.67,2.67h45.36l2.67-2.67Zm77.38,138.74h-24l-2.67-2.67-13.34-34.69-5.34-2.67h-66.7l-5.34,2.67-13.34,34.69-2.67,2.67h-24l-2.67-2.67v-26.68l61.37-154.75,2.67-2.67h34.69l2.67,2.67,61.37,154.75v26.68Z"/><path class="cls-1" d="M684,2373.18h-2.67l-24,64,2.67,2.67h45.36l2.67-2.67Zm77.38,138.74h-24l-2.67-2.67-13.34-34.69L716,2471.9h-66.7l-5.34,2.67-13.34,34.69-2.67,2.67H604l-2.67-2.67v-26.68l61.37-154.75,2.67-2.67H700l2.67,2.67,61.37,154.75v26.68Z"/><path class="cls-1" d="M678.92,2378.27h-2.67l-24,64,2.67,2.67h45.36l2.67-2.67ZM756.3,2517h-24l-2.67-2.67-13.34-34.69-5.34-2.67h-66.7l-5.34,2.67-13.34,34.69-2.67,2.67h-24l-2.67-2.67v-26.68l61.37-154.75,2.67-2.67h34.69l2.67,2.67L759,2487.67v26.68Z"/><path class="cls-1" d="M673.82,2383.37h-2.67l-24,64,2.67,2.67h45.36l2.67-2.67Zm77.38,138.74h-24l-2.67-2.67-13.34-34.69-5.34-2.67h-66.7l-5.34,2.67-13.34,34.69-2.67,2.67h-24l-2.67-2.67v-26.68L652.48,2338l2.67-2.67h34.69l2.67,2.67,61.37,154.75v26.68Z"/><path class="cls-1" d="M668.73,2388.47h-2.67l-24,64,2.67,2.67h45.36l2.67-2.67Zm77.38,138.74h-24l-2.67-2.67-13.34-34.69-5.34-2.67H634l-5.34,2.67-13.34,34.69-2.67,2.67h-24l-2.67-2.67v-26.68l61.37-154.75,2.67-2.67h34.69l2.67,2.67,61.37,154.75v26.68Z"/><path class="cls-1" d="M663.63,2393.56H661l-24,64,2.67,2.67H685l2.67-2.67ZM741,2532.31H717l-2.67-2.67L701,2495l-5.34-2.67h-66.7l-5.34,2.67-13.34,34.69-2.67,2.67h-24l-2.67-2.67V2503l61.37-154.75,2.67-2.67h34.69l2.67,2.67L743.67,2503v26.68Z"/><path class="cls-1" d="M658.53,2398.66h-2.67l-24,64,2.67,2.67h45.36l2.67-2.67Zm77.38,138.74h-24l-2.67-2.67-13.34-34.69-5.34-2.67h-66.7l-5.34,2.67-13.34,34.69-2.67,2.67h-24l-2.67-2.67v-26.68l61.37-154.75,2.67-2.67h34.69l2.67,2.67,61.37,154.75v26.68Z"/><path class="cls-1" d="M653.44,2403.76h-2.67l-24,64,2.67,2.67h45.36l2.67-2.67Zm77.38,138.74h-24l-2.67-2.67-13.34-34.69-5.34-2.67h-66.7l-5.34,2.67-13.34,34.69-2.67,2.67h-24l-2.67-2.67v-26.68l61.37-154.75,2.67-2.67h34.69l2.67,2.67,61.37,154.75v26.68Z"/><path class="cls-1" d="M648.34,2408.85h-2.67l-24,64,2.67,2.67h45.36l2.67-2.67Zm77.38,138.74h-24l-2.67-2.67-13.34-34.69-5.34-2.67h-66.7l-5.34,2.67L595,2544.93l-2.67,2.67h-24l-2.67-2.67v-26.68L627,2363.5l2.67-2.67h34.69l2.67,2.67,61.37,154.75v26.68Z"/><path class="cls-1" d="M643.24,2414h-2.67l-24,64,2.67,2.67h45.36l2.67-2.67Zm77.38,138.74h-24l-2.67-2.67-13.34-34.69-5.34-2.67h-66.7l-5.34,2.67L589.88,2550l-2.67,2.67h-24l-2.67-2.67v-26.68l61.37-154.75,2.67-2.67h34.69l2.67,2.67,61.37,154.75V2550Z"/><path class="cls-1" d="M638.14,2419h-2.67l-24,64,2.67,2.67h45.36l2.67-2.67Zm77.38,138.74h-24l-2.67-2.67-13.34-34.69-5.34-2.67h-66.7l-5.34,2.67-13.34,34.69-2.67,2.67h-24l-2.67-2.67v-26.68l61.37-154.75,2.67-2.67h34.69l2.67,2.67,61.37,154.75v26.68Z"/><path class="cls-1" d="M633,2424.15h-2.67l-24,64,2.67,2.67h45.36l2.67-2.67Zm77.38,138.74h-24l-2.67-2.67-13.34-34.69-5.34-2.67h-66.7l-5.34,2.67-13.34,34.69-2.67,2.67H553l-2.67-2.67v-26.68l61.37-154.75,2.67-2.67h34.69l2.67,2.67,61.37,154.75v26.68Z"/><path class="cls-1" d="M628,2429.24h-2.67l-24,64,2.67,2.67H649.3l2.67-2.67ZM705.33,2568h-24l-2.67-2.67-13.34-34.69L660,2528h-66.7l-5.34,2.67-13.34,34.69-2.67,2.67h-24l-2.67-2.67v-26.68l61.37-154.75,2.67-2.67H644l2.67,2.67L708,2538.64v26.68Z"/><path class="cls-1" d="M622.85,2434.34h-2.67l-24,64,2.67,2.67H644.2l2.67-2.67Zm77.38,138.74h-24l-2.67-2.67-13.34-34.69-5.34-2.67h-66.7l-5.34,2.67-13.34,34.69-2.67,2.67h-24l-2.67-2.67v-26.68L601.51,2389l2.67-2.67h34.69l2.67,2.67,61.37,154.75v26.68Z"/><path class="cls-1" d="M617.76,2439.44h-2.67l-24,64,2.67,2.67H639.1l2.67-2.67Zm77.38,138.74h-24l-2.67-2.67-13.34-34.69-5.34-2.67h-66.7l-5.34,2.67-13.34,34.69-2.67,2.67h-24l-2.67-2.67v-26.68l61.37-154.75,2.67-2.67h34.69l2.67,2.67,61.37,154.75v26.68Z"/><path class="cls-1" d="M612.66,2444.53H610l-24,64,2.67,2.67H634l2.67-2.67ZM690,2583.28H666l-2.67-2.67L650,2545.92l-5.34-2.67H578l-5.34,2.67-13.34,34.69-2.67,2.67h-24l-2.67-2.67v-26.68l61.37-154.75,2.67-2.67h34.69l2.67,2.67,61.37,154.75v26.68Z"/></g></g></svg>