<svg xmlns="http://www.w3.org/2000/svg" viewBox="0 0 1896 5154.75"><defs><style>.cls-1{fill:#fff;stroke:#007444;stroke-width:3px;}</style></defs><title>Artboard 1</title><g id="Layer_2" data-name="Layer 2"><g id="_Group_" data-name="&lt;Group&gt;"><path class="cls-1" d="M-1.65,2702.15H-55l-2.67,2.67v149.42l-2.67,2.67h-32l-2.67-2.67V2704.82l-2.67-2.67h-53.36l-2.67-2.67V2672.8l2.67-2.67H-1.65L1,2672.8v26.68Z"/><path class="cls-1" d="M3.43,2697.07H-49.93l-2.67,2.67v149.42l-2.67,2.67h-32l-2.67-2.67V2699.74l-2.67-2.67H-146l-2.67-2.67v-26.68l2.67-2.67H3.43l2.67,2.67v26.68Z"/><path class="cls-1" d="M8.51,2692H-44.86l-2.67,2.67v149.42l-2.67,2.67h-32l-2.67-2.67V2694.66l-2.67-2.67h-53.36l-2.67-2.67v-26.68l2.67-2.67H8.51l2.67,2.67v26.68Z"/><path class="cls-1" d="M13.59,2686.92H-39.78l-2.67,2.67V2839l-2.67,2.67h-32L-79.8,2839V2689.58l-2.67-2.67h-53.36l-2.67-2.67v-26.68l2.67-2.67H13.59l2.67,2.67v26.68Z"/><path class="cls-1" d="M18.66,2681.84H-34.7l-2.67,2.67v149.42l-2.67,2.67h-32l-2.67-2.67V2684.51l-2.67-2.67h-53.36l-2.67-2.67v-26.68l2.67-2.67H18.66l2.67,2.67v26.68Z"/><path class="cls-1" d="M23.74,2676.76H-29.62l-2.67,2.67v149.42l-2.67,2.67H-67l-2.67-2.67V2679.43l-2.67-2.67h-53.36l-2.67-2.67v-26.68l2.67-2.67H23.74l2.67,2.67v26.68Z"/><path class="cls-1" d="M28.82,2671.68H-24.55l-2.67,2.67v149.42l-2.67,2.67h-32l-2.67-2.67V2674.35l-2.67-2.67H-120.6l-2.67-2.67v-26.68l2.67-2.67H28.82l2.67,2.67V2669Z"/><path class="cls-1" d="M33.9,2666.61H-19.47l-2.67,2.67v149.42l-2.67,2.67h-32l-2.67-2.67V2669.27l-2.67-2.67h-53.36l-2.67-2.67v-26.68l2.67-2.67H33.9l2.67,2.67v26.68Z"/><path class="cls-1" d="M39,2661.53H-14.39l-2.67,2.67v149.42l-2.67,2.67h-32l-2.67-2.67V2664.2l-2.67-2.67h-53.36l-2.67-2.67v-26.68l2.67-2.67H39l2.67,2.67v26.68Z"/><path class="cls-1" d="M44.05,2656.45H-9.31l-2.67,2.67v149.42l-2.67,2.67h-32l-2.67-2.67V2659.12l-2.67-2.67h-53.36l-2.67-2.67V2627.1l2.67-2.67H44.05l2.67,2.67v26.68Z"/><path class="cls-1" d="M49.13,2651.37H-4.23L-6.9,2654v149.42l-2.67,2.67h-32l-2.67-2.67V2654l-2.67-2.67h-53.36l-2.67-2.67V2622l2.67-2.67H49.13L51.8,2622v26.68Z"/><path class="cls-1" d="M54.21,2646.29H.84L-1.82,2649v149.42L-4.49,2801h-32l-2.67-2.67V2649l-2.67-2.67H-95.21l-2.67-2.67v-26.68l2.67-2.67H54.21l2.67,2.67v26.68Z"/><path class="cls-1" d="M59.28,2641.22H5.92l-2.67,2.67V2793.3L.58,2796h-32l-2.67-2.67V2643.88l-2.67-2.67H-90.13l-2.67-2.67v-26.68l2.67-2.67H59.28l2.67,2.67v26.68Z"/><path class="cls-1" d="M64.36,2636.14H11l-2.67,2.67v149.42l-2.67,2.67h-32l-2.67-2.67V2638.81l-2.67-2.67H-85.05l-2.67-2.67v-26.68l2.67-2.67H64.36l2.67,2.67v26.68Z"/><path class="cls-1" d="M69.44,2631.06H16.08l-2.67,2.67v149.42l-2.67,2.67h-32l-2.67-2.67V2633.73l-2.67-2.67H-80l-2.67-2.67v-26.68L-80,2599H69.44l2.67,2.67v26.68Z"/><path class="cls-1" d="M74.52,2626H21.15l-2.67,2.67v149.42l-2.67,2.67h-32l-2.67-2.67V2628.65l-2.67-2.67H-74.9l-2.67-2.67v-26.68l2.67-2.67H74.52l2.67,2.67v26.68Z"/><path class="cls-1" d="M79.59,2620.91H26.23l-2.67,2.67V2773l-2.67,2.67h-32l-2.67-2.67V2623.57l-2.67-2.67H-69.82l-2.67-2.67v-26.68l2.67-2.67H79.59l2.67,2.67v26.68Z"/><path class="cls-1" d="M84.67,2615.83H31.31l-2.67,2.67v149.42L26,2770.58H-6l-2.67-2.67V2618.5l-2.67-2.67H-64.74l-2.67-2.67v-26.68l2.67-2.67H84.67l2.67,2.67v26.68Z"/><path class="cls-1" d="M89.75,2610.75H36.39l-2.67,2.67v149.42l-2.67,2.67H-1l-2.67-2.67V2613.42l-2.67-2.67H-59.67l-2.67-2.67V2581.4l2.67-2.67H89.75l2.67,2.67v26.68Z"/><path class="cls-1" d="M94.83,2605.67H41.46l-2.67,2.67v149.42l-2.67,2.67h-32l-2.67-2.67V2608.34l-2.67-2.67H-54.59l-2.67-2.67v-26.68l2.67-2.67H94.83l2.67,2.67V2603Z"/><path class="cls-1" d="M99.91,2600.6H46.54l-2.67,2.67v149.42l-2.67,2.67h-32l-2.67-2.67V2603.26l-2.67-2.67H-49.51l-2.67-2.67v-26.68l2.67-2.67H99.91l2.67,2.67v26.68Z"/><path class="cls-1" d="M105,2595.52H51.62L49,2598.19V2747.6l-2.67,2.67h-32l-2.67-2.67V2598.19l-2.67-2.67H-44.43l-2.67-2.67v-26.68l2.67-2.67H105l2.67,2.67v26.68Z"/><path class="cls-1" d="M110.06,2590.44H56.7L54,2593.11v149.42l-2.67,2.67h-32l-2.67-2.67V2593.11L14,2590.44H-39.36l-2.67-2.67v-26.68l2.67-2.67H110.06l2.67,2.67v26.68Z"/><path class="cls-1" d="M115.14,2585.36H61.78L59.11,2588v149.42l-2.67,2.67h-32l-2.67-2.67V2588l-2.67-2.67H-34.28l-2.67-2.67V2556l2.67-2.67H115.14l2.67,2.67v26.68Z"/><path class="cls-1" d="M120.22,2580.28H66.85L64.18,2583v149.42L61.52,2735h-32l-2.67-2.67V2583l-2.67-2.67H-29.2l-2.67-2.67v-26.68l2.67-2.67H120.22l2.67,2.67v26.68Z"/><path class="cls-1" d="M125.29,2575.21H71.93l-2.67,2.67v149.42L66.59,2730h-32l-2.67-2.67V2577.88l-2.67-2.67H-24.12l-2.67-2.67v-26.68l2.67-2.67H125.29l2.67,2.67v26.68Z"/><path class="cls-1" d="M130.37,2570.13H77l-2.67,2.67v149.42l-2.67,2.67h-32L37,2722.22V2572.8l-2.67-2.67H-19l-2.67-2.67v-26.68l2.67-2.67H130.37l2.67,2.67v26.68Z"/><path class="cls-1" d="M135.45,2565.05H82.09l-2.67,2.67v149.42l-2.67,2.67h-32l-2.67-2.67V2567.72l-2.67-2.67H-14l-2.67-2.67V2535.7L-14,2533H135.45l2.67,2.67v26.68Z"/><path class="cls-1" d="M140.53,2560H87.16l-2.67,2.67v149.42l-2.67,2.67h-32l-2.67-2.67V2562.64L44.47,2560H-8.89l-2.67-2.67v-26.68l2.67-2.67H140.53l2.67,2.67v26.68Z"/><path class="cls-1" d="M145.6,2554.9H92.24l-2.67,2.67V2707l-2.67,2.67h-32L52.22,2707V2557.56l-2.67-2.67H-3.81l-2.67-2.67v-26.68l2.67-2.67H145.6l2.67,2.67v26.68Z"/><path class="cls-1" d="M150.68,2549.82H97.32l-2.67,2.67V2701.9L92,2704.57H60l-2.67-2.67V2552.49l-2.67-2.67H1.27l-2.67-2.67v-26.68l2.67-2.67H150.68l2.67,2.67v26.68Z"/><path class="cls-1" d="M155.76,2544.74H102.4l-2.67,2.67v149.42l-2.67,2.67H65l-2.67-2.67V2547.41l-2.67-2.67H6.34l-2.67-2.67v-26.68l2.67-2.67H155.76l2.67,2.67v26.68Z"/><path class="cls-1" d="M160.84,2539.66H107.47l-2.67,2.67v149.42l-2.67,2.67h-32l-2.67-2.67V2542.33l-2.67-2.67H11.42L8.75,2537v-26.68l2.67-2.67H160.84l2.67,2.67V2537Z"/><path class="cls-1" d="M165.91,2534.59H112.55l-2.67,2.67v149.42l-2.67,2.67h-32l-2.67-2.67V2537.25l-2.67-2.67H16.5l-2.67-2.67v-26.68l2.67-2.67H165.91l2.67,2.67v26.68Z"/><path class="cls-1" d="M171,2529.51H117.63l-2.67,2.67v149.42l-2.67,2.67h-32l-2.67-2.67V2532.18l-2.67-2.67H21.58l-2.67-2.67v-26.68l2.67-2.67H171l2.67,2.67v26.68Z"/><path class="cls-1" d="M176.07,2524.43H122.71L120,2527.1v149.42l-2.67,2.67h-32l-2.67-2.67V2527.1L80,2524.43H26.65L24,2521.76v-26.68l2.67-2.67H176.07l2.67,2.67v26.68Z"/><path class="cls-1" d="M181.15,2519.35H127.78l-2.67,2.67v149.42l-2.67,2.67h-32l-2.67-2.67V2522l-2.67-2.67H31.73l-2.67-2.67V2490l2.67-2.67H181.15l2.67,2.67v26.68Z"/><path class="cls-1" d="M186.23,2514.28H132.86l-2.67,2.67v149.42l-2.67,2.67h-32l-2.67-2.67V2516.94l-2.67-2.67H36.81l-2.67-2.67v-26.68l2.67-2.67H186.23l2.67,2.67v26.68Z"/><path class="cls-1" d="M191.3,2509.2H137.94l-2.67,2.67v149.42L132.6,2664h-32l-2.67-2.67V2511.87l-2.67-2.67H41.89l-2.67-2.67v-26.68l2.67-2.67H191.3l2.67,2.67v26.68Z"/><path class="cls-1" d="M196.38,2504.12H143l-2.67,2.67v149.42l-2.67,2.67h-32l-2.67-2.67V2506.79l-2.67-2.67H47l-2.67-2.67v-26.68L47,2472.1H196.38l2.67,2.67v26.68Z"/><path class="cls-1" d="M201.46,2499H148.1l-2.67,2.67v149.42l-2.67,2.67h-32l-2.67-2.67V2501.71L105.4,2499H52l-2.67-2.67v-26.68L52,2467H201.46l2.67,2.67v26.68Z"/><path class="cls-1" d="M206.54,2494H153.17l-2.67,2.67v149.42l-2.67,2.67h-32l-2.67-2.67V2496.63l-2.67-2.67H57.12l-2.67-2.67v-26.68l2.67-2.67H206.54l2.67,2.67v26.68Z"/><path class="cls-1" d="M211.61,2488.89H158.25l-2.67,2.67V2641l-2.67,2.67h-32l-2.67-2.67V2491.55l-2.67-2.67H62.2l-2.67-2.67v-26.68l2.67-2.67H211.61l2.67,2.67v26.68Z"/><path class="cls-1" d="M216.69,2483.81H163.33l-2.67,2.67V2635.9l-2.67,2.67H126l-2.67-2.67V2486.48l-2.67-2.67H67.28l-2.67-2.67v-26.68l2.67-2.67H216.69l2.67,2.67v26.68Z"/><path class="cls-1" d="M221.77,2478.73H168.41l-2.67,2.67v149.42l-2.67,2.67h-32l-2.67-2.67V2481.4l-2.67-2.67H72.35l-2.67-2.67v-26.68l2.67-2.67H221.77l2.67,2.67v26.68Z"/><path class="cls-1" d="M226.85,2473.65H173.48l-2.67,2.67v149.42l-2.67,2.67h-32l-2.67-2.67V2476.32l-2.67-2.67H77.43L74.76,2471V2444.3l2.67-2.67H226.85l2.67,2.67V2471Z"/><path class="cls-1" d="M231.92,2468.58H178.56l-2.67,2.67v149.42l-2.67,2.67h-32l-2.67-2.67V2471.24l-2.67-2.67H82.51l-2.67-2.67v-26.68l2.67-2.67H231.92l2.67,2.67v26.68Z"/><path class="cls-1" d="M237,2463.5H183.64l-2.67,2.67v149.42l-2.67,2.67h-32l-2.67-2.67V2466.17l-2.67-2.67H87.59l-2.67-2.67v-26.68l2.67-2.67H237l2.67,2.67v26.68Z"/><path class="cls-1" d="M242.08,2458.42H188.72l-2.67,2.67v149.42l-2.67,2.67h-32l-2.67-2.67V2461.09l-2.67-2.67H92.66L90,2455.75v-26.68l2.67-2.67H242.08l2.67,2.67v26.68Z"/><path class="cls-1" d="M247.16,2453.34H193.79l-2.67,2.67v149.42l-2.67,2.67h-32l-2.67-2.67V2456l-2.67-2.67H97.74l-2.67-2.67V2424l2.67-2.67H247.16l2.67,2.67v26.68Z"/><path class="cls-1" d="M252.24,2448.27H198.87l-2.67,2.67v149.42l-2.67,2.67h-32l-2.67-2.67V2450.93l-2.67-2.67H102.82l-2.67-2.67v-26.68l2.67-2.67H252.24l2.67,2.67v26.68Z"/><path class="cls-1" d="M257.31,2443.19H203.95l-2.67,2.67v149.42l-2.67,2.67h-32l-2.67-2.67V2445.86l-2.67-2.67H107.9l-2.67-2.67v-26.68l2.67-2.67H257.31l2.67,2.67v26.68Z"/><path class="cls-1" d="M262.39,2438.11H209l-2.67,2.67V2590.2l-2.67,2.67h-32L169,2590.2V2440.78l-2.67-2.67H113l-2.67-2.67v-26.68l2.67-2.67H262.39l2.67,2.67v26.68Z"/><path class="cls-1" d="M267.47,2433H214.1l-2.67,2.67v149.42l-2.67,2.67h-32l-2.67-2.67V2435.7l-2.67-2.67H118.05l-2.67-2.67v-26.68l2.67-2.67H267.47l2.67,2.67v26.68Z"/><path class="cls-1" d="M272.55,2428H219.18l-2.67,2.67V2580l-2.67,2.67h-32l-2.67-2.67V2430.62l-2.67-2.67H123.13l-2.67-2.67v-26.68l2.67-2.67H272.55l2.67,2.67v26.68Z"/></g></g></svg>