<svg id="Layer_3" data-name="Layer 3" xmlns="http://www.w3.org/2000/svg" viewBox="0 0 1896 5154.75"><defs><style>.cls-1{fill:#fff;stroke:#862567;stroke-width:3px;}</style></defs><title>Artboard 1</title><g id="_Group_" data-name="&lt;Group&gt;"><path class="cls-1" d="M533.71-.69H408.31l-2.67-2.67V-184.79l2.67-2.67h125.4l2.67,2.67v26.68l-2.67,2.67h-88L443-152.77v37.35l2.67,2.67h82.71l2.67,2.67V-83.4l-2.67,2.67H445.66L443-78.06v42.69l2.67,2.67h88L536.38-30V-3.35Z"/><path class="cls-1" d="M538.81,4.41H413.4l-2.67-2.67V-179.69l2.67-2.67h125.4l2.67,2.67V-153l-2.67,2.67h-88l-2.67,2.67v37.35l2.67,2.67h82.71l2.67,2.67V-78.3l-2.67,2.67H450.76L448.09-73v42.69l2.67,2.67h88l2.67,2.67V1.74Z"/><path class="cls-1" d="M543.9,9.5H418.5l-2.67-2.67V-174.6l2.67-2.67H543.9l2.67,2.67v26.68l-2.67,2.67h-88l-2.67,2.67v37.35l2.67,2.67h82.71l2.67,2.67v26.68l-2.67,2.67H455.85l-2.67,2.67v42.69l2.67,2.67h88l2.67,2.67V6.84Z"/><path class="cls-1" d="M549,14.6H423.6l-2.67-2.67V-169.5l2.67-2.67H549l2.67,2.67v26.68L549-140.15h-88l-2.67,2.67v37.35l2.67,2.67h82.71l2.67,2.67v26.68l-2.67,2.67H460.95l-2.67,2.67v42.69l2.67,2.67h88l2.67,2.67V11.93Z"/><path class="cls-1" d="M554.09,19.69H428.69L426,17V-164.41l2.67-2.67h125.4l2.67,2.67v26.68l-2.67,2.67H466l-2.67,2.67V-95L466-92.37h82.71l2.67,2.67V-63l-2.67,2.67H466l-2.67,2.67V-15L466-12.32h88l2.67,2.67V17Z"/><path class="cls-1" d="M559.19,24.79H433.79l-2.67-2.67V-159.31l2.67-2.67h125.4l2.67,2.67v26.68L559.19-130h-88l-2.67,2.67v37.35l2.67,2.67h82.71l2.67,2.67v26.68l-2.67,2.67H471.14l-2.67,2.67V-9.9l2.67,2.67h88l2.67,2.67V22.12Z"/><path class="cls-1" d="M564.28,29.89H438.88l-2.67-2.67V-154.22l2.67-2.67h125.4l2.67,2.67v26.68l-2.67,2.67h-88l-2.67,2.67v37.35l2.67,2.67h82.71l2.67,2.67v26.68l-2.67,2.67H476.23l-2.67,2.67V-4.8l2.67,2.67h88L567,.54V27.22Z"/><path class="cls-1" d="M569.38,35H444l-2.67-2.67V-149.12l2.67-2.67h125.4l2.67,2.67v26.68l-2.67,2.67h-88l-2.67,2.67v37.35l2.67,2.67H564l2.67,2.67v26.68L564-45.06H481.33l-2.67,2.67V.29L481.33,3h88L572,5.63V32.31Z"/><path class="cls-1" d="M574.47,40.08H449.07l-2.67-2.67V-144l2.67-2.67h125.4l2.67,2.67v26.68l-2.67,2.67h-88L483.76-112v37.35L486.43-72h82.71l2.67,2.67v26.68L569.14-40H486.43l-2.67,2.67V5.39l2.67,2.67h88l2.67,2.67V37.41Z"/><path class="cls-1" d="M579.57,45.17H454.17L451.5,42.5V-138.93l2.67-2.67h125.4l2.67,2.67v26.68l-2.67,2.67h-88l-2.67,2.67v37.35l2.67,2.67h82.71l2.67,2.67v26.68l-2.67,2.67H491.52l-2.67,2.67V10.49l2.67,2.67h88l2.67,2.67V42.5Z"/><path class="cls-1" d="M584.67,50.27H459.26l-2.67-2.67V-133.84l2.67-2.67h125.4l2.67,2.67v26.68l-2.67,2.67h-88l-2.67,2.67v37.35l2.67,2.67h82.71L582-59.13v26.68l-2.67,2.67H496.62l-2.67,2.67V15.58l2.67,2.67h88l2.67,2.67V47.6Z"/><path class="cls-1" d="M589.76,55.36H464.36l-2.67-2.67V-128.74l2.67-2.67h125.4l2.67,2.67v26.68l-2.67,2.67h-88L499-96.72v37.35l2.67,2.67h82.71L587.09-54v26.68l-2.67,2.67H501.71L499-22V20.68l2.67,2.67h88L592.43,26V52.69Z"/><path class="cls-1" d="M594.86,60.46H469.45l-2.67-2.67V-123.65l2.67-2.67h125.4l2.67,2.67V-97l-2.67,2.67h-88l-2.67,2.67v37.35l2.67,2.67h82.71l2.67,2.67v26.68l-2.67,2.67H506.81l-2.67,2.67V25.77l2.67,2.67h88l2.67,2.67V57.79Z"/><path class="cls-1" d="M600,65.55H474.55l-2.67-2.67V-118.55l2.67-2.67H600l2.67,2.67v26.68L600-89.2h-88l-2.67,2.67v37.35l2.67,2.67h82.71l2.67,2.67v26.68l-2.67,2.67H511.9l-2.67,2.67V30.87l2.67,2.67h88l2.67,2.67V62.88Z"/><path class="cls-1" d="M605,70.65H479.64L477,68V-113.45l2.67-2.67H605l2.67,2.67v26.68L605-84.11H517l-2.67,2.67v37.35L517-41.41h82.71l2.67,2.67v26.68L599.71-9.4H517l-2.67,2.67V36L517,38.63h88l2.67,2.67V68Z"/><path class="cls-1" d="M610.14,75.74H484.74l-2.67-2.67V-108.36l2.67-2.67h125.4l2.67,2.67v26.68L610.14-79h-88l-2.67,2.67V-39l2.67,2.67h82.71l2.67,2.67V-7L604.81-4.3H522.09l-2.67,2.67V41.06l2.67,2.67h88l2.67,2.67V73.08Z"/><path class="cls-1" d="M615.24,80.84H489.83l-2.67-2.67V-103.26l2.67-2.67h125.4l2.67,2.67v26.68l-2.67,2.67h-88l-2.67,2.67v37.35l2.67,2.67H609.9l2.67,2.67V-1.87L609.9.79H527.19l-2.67,2.67V46.15l2.67,2.67h88l2.67,2.67V78.17Z"/><path class="cls-1" d="M620.33,85.93H494.93l-2.67-2.67V-98.17l2.67-2.67h125.4L623-98.17v26.68l-2.67,2.67h-88l-2.67,2.67V-28.8l2.67,2.67H615l2.67,2.67V3.22L615,5.89H532.28l-2.67,2.67V51.25l2.67,2.67h88L623,56.58V83.27Z"/><path class="cls-1" d="M625.43,91H500l-2.67-2.67V-93.07L500-95.74h125.4l2.67,2.67v26.68l-2.67,2.67h-88l-2.67,2.67V-23.7L537.38-21h82.71l2.67,2.67V8.32L620.09,11H537.38l-2.67,2.67V56.34L537.38,59h88l2.67,2.67V88.36Z"/><path class="cls-1" d="M630.52,96.12H505.12l-2.67-2.67V-88l2.67-2.67h125.4L633.19-88V-61.3l-2.67,2.67h-88L539.81-56v37.35l2.67,2.67h82.71l2.67,2.67V13.41l-2.67,2.67H542.47l-2.67,2.67V61.44l2.67,2.67h88l2.67,2.67V93.46Z"/><path class="cls-1" d="M635.62,101.22H510.22l-2.67-2.67V-82.88l2.67-2.67h125.4l2.67,2.67V-56.2l-2.67,2.67h-88l-2.67,2.67v37.35l2.67,2.67h82.71L633-8.17V18.51l-2.67,2.67H547.57l-2.67,2.67V66.53l2.67,2.67h88l2.67,2.67V98.55Z"/><path class="cls-1" d="M640.71,106.32H515.31l-2.67-2.67V-77.79l2.67-2.67h125.4l2.67,2.67v26.68l-2.67,2.67h-88L550-45.77V-8.42l2.67,2.67h82.71L638-3.08V23.6l-2.67,2.67H552.67L550,28.94V71.63l2.67,2.67h88L643.38,77v26.68Z"/><path class="cls-1" d="M645.81,111.41H520.41l-2.67-2.67V-72.69l2.67-2.67h125.4l2.67,2.67V-46l-2.67,2.67h-88l-2.67,2.67V-3.32l2.67,2.67h82.71L643.14,2V28.7l-2.67,2.67H557.76L555.09,34V76.72l2.67,2.67h88l2.67,2.67v26.68Z"/><path class="cls-1" d="M650.9,116.51H525.5l-2.67-2.67V-67.6l2.67-2.67H650.9l2.67,2.67v26.68l-2.67,2.67h-88l-2.67,2.67V1.78l2.67,2.67h82.71l2.67,2.67V33.79l-2.67,2.67H562.86l-2.67,2.67V81.82l2.67,2.67h88l2.67,2.67v26.68Z"/><path class="cls-1" d="M656,121.6H530.6l-2.67-2.67V-62.5l2.67-2.67H656l2.67,2.67v26.68L656-33.15H568l-2.67,2.67V6.87L568,9.54h82.71l2.67,2.67V38.89l-2.67,2.67H568l-2.67,2.67V86.92L568,89.58h88l2.67,2.67v26.68Z"/><path class="cls-1" d="M661.1,126.7H535.69L533,124V-57.41l2.67-2.67H661.1l2.67,2.67v26.68l-2.67,2.67H573l-2.67,2.67V12L573,14.63h82.71l2.67,2.67V44l-2.67,2.67H573l-2.67,2.67V92L573,94.68h88l2.67,2.67V124Z"/><path class="cls-1" d="M666.19,131.79H540.79l-2.67-2.67V-52.31L540.79-55h125.4l2.67,2.67v26.68L666.19-23h-88l-2.67,2.67V17.06l2.67,2.67h82.71l2.67,2.67V49.08l-2.67,2.67H578.14l-2.67,2.67V97.11l2.67,2.67h88l2.67,2.67v26.68Z"/><path class="cls-1" d="M671.29,136.89H545.88l-2.67-2.67V-47.22l2.67-2.67h125.4L674-47.22v26.68l-2.67,2.67h-88l-2.67,2.67V22.16l2.67,2.67h82.71l2.67,2.67V54.17l-2.67,2.67H583.24l-2.67,2.67V102.2l2.67,2.67h88l2.67,2.67v26.68Z"/><path class="cls-1" d="M676.38,142H551l-2.67-2.67V-42.12L551-44.79h125.4L679-42.12v26.68l-2.67,2.67h-88l-2.67,2.67V27.25l2.67,2.67H671l2.67,2.67V59.27L671,61.94H588.33l-2.67,2.67V107.3l2.67,2.67h88l2.67,2.67v26.68Z"/><path class="cls-1" d="M681.48,147.08H556.07l-2.67-2.67V-37l2.67-2.67h125.4L684.15-37v26.68l-2.67,2.67h-88L590.76-5V32.35L593.43,35h82.71l2.67,2.67V64.36L676.14,67H593.43l-2.67,2.67v42.69l2.67,2.67h88l2.67,2.67v26.68Z"/><path class="cls-1" d="M686.57,152.17H561.17l-2.67-2.67V-31.93l2.67-2.67h125.4l2.67,2.67V-5.25l-2.67,2.67h-88L595.86.09V37.44l2.67,2.67h82.71l2.67,2.67V69.46l-2.67,2.67H598.52l-2.67,2.67v42.69l2.67,2.67h88l2.67,2.67v26.68Z"/><path class="cls-1" d="M691.67,157.27H566.26l-2.67-2.67V-26.83l2.67-2.67h125.4l2.67,2.67V-.15l-2.67,2.67h-88L601,5.18V42.54l2.67,2.67h82.71L689,47.87V74.56l-2.67,2.67H603.62L601,79.89v42.69l2.67,2.67h88l2.67,2.67V154.6Z"/><path class="cls-1" d="M696.76,162.36H571.36l-2.67-2.67V-21.74l2.67-2.67h125.4l2.67,2.67V4.94l-2.67,2.67h-88L606,10.28V47.63l2.67,2.67h82.71L694.09,53V79.65l-2.67,2.67H608.71L606,85v42.69l2.67,2.67h88l2.67,2.67V159.7Z"/><path class="cls-1" d="M701.86,167.46H576.46l-2.67-2.67V-16.64l2.67-2.67h125.4l2.67,2.67V10l-2.67,2.67h-88l-2.67,2.67V52.73l2.67,2.67h82.71l2.67,2.67V84.75l-2.67,2.67H613.81l-2.67,2.67v42.69l2.67,2.67h88l2.67,2.67v26.68Z"/><path class="cls-1" d="M707,172.55H581.55l-2.67-2.67V-11.55l2.67-2.67H707l2.67,2.67V15.13L707,17.8h-88l-2.67,2.67V57.82l2.67,2.67h82.71l2.67,2.67V89.84l-2.67,2.67H618.9l-2.67,2.67v42.69l2.67,2.67h88l2.67,2.67v26.68Z"/><path class="cls-1" d="M712,177.65H586.65L584,175V-6.45l2.67-2.67H712l2.67,2.67V20.23L712,22.9H624l-2.67,2.67V62.92L624,65.59h82.71l2.67,2.67V94.94l-2.67,2.67H624l-2.67,2.67V143l2.67,2.67h88l2.67,2.67V175Z"/><path class="cls-1" d="M717.14,182.75H591.74l-2.67-2.67V-1.36L591.74-4h125.4l2.67,2.67V25.32L717.14,28h-88l-2.67,2.67V68l2.67,2.67h82.71l2.67,2.67V100l-2.67,2.67H629.1l-2.67,2.67v42.69l2.67,2.67h88l2.67,2.67v26.68Z"/><path class="cls-1" d="M722.24,187.84H596.84l-2.67-2.67V3.74l2.67-2.67h125.4l2.67,2.67V30.42l-2.67,2.67h-88l-2.67,2.67V73.11l2.67,2.67H716.9l2.67,2.67v26.68l-2.67,2.67H634.19l-2.67,2.67v42.69l2.67,2.67h88l2.67,2.67v26.68Z"/><path class="cls-1" d="M727.33,192.94H601.93l-2.67-2.67V8.83l2.67-2.67h125.4L730,8.83V35.51l-2.67,2.67h-88l-2.67,2.67V78.21l2.67,2.67H722l2.67,2.67v26.68L722,112.89H639.29l-2.67,2.67v42.69l2.67,2.67h88l2.67,2.67v26.68Z"/><path class="cls-1" d="M732.43,198H607l-2.67-2.67V13.93L607,11.26h125.4l2.67,2.67V40.61l-2.67,2.67h-88l-2.67,2.67V83.3L644.38,86h82.71l2.67,2.67v26.68L727.09,118H644.38l-2.67,2.67v42.69l2.67,2.67h88l2.67,2.67v26.68Z"/><path class="cls-1" d="M737.53,203.13H612.12l-2.67-2.67V19l2.67-2.67h125.4L740.19,19V45.71l-2.67,2.67h-88L646.81,51V88.4l2.67,2.67h82.71l2.67,2.67v26.68l-2.67,2.67H649.48l-2.67,2.67v42.69l2.67,2.67h88l2.67,2.67v26.68Z"/><path class="cls-1" d="M742.62,208.22H617.22l-2.67-2.67V24.12l2.67-2.67h125.4l2.67,2.67V50.8l-2.67,2.67h-88l-2.67,2.67V93.49l2.67,2.67h82.71L740,98.83v26.68l-2.67,2.67H654.57l-2.67,2.67v42.69l2.67,2.67h88l2.67,2.67v26.68Z"/><path class="cls-1" d="M747.72,213.32H622.31l-2.67-2.67V29.21l2.67-2.67h125.4l2.67,2.67V55.9l-2.67,2.67h-88L657,61.23V98.59l2.67,2.67h82.71l2.67,2.67V130.6l-2.67,2.67H659.67L657,135.94v42.69l2.67,2.67h88l2.67,2.67v26.68Z"/><path class="cls-1" d="M752.81,218.41H627.41l-2.67-2.67V34.31l2.67-2.67h125.4l2.67,2.67V61l-2.67,2.67h-88l-2.67,2.67v37.35l2.67,2.67h82.71l2.67,2.67V135.7l-2.67,2.67H664.76L662.09,141v42.69l2.67,2.67h88l2.67,2.67v26.68Z"/><path class="cls-1" d="M757.91,223.51H632.5l-2.67-2.67V39.41l2.67-2.67h125.4l2.67,2.67V66.09l-2.67,2.67h-88l-2.67,2.67v37.35l2.67,2.67h82.71l2.67,2.67v26.68l-2.67,2.67H669.86l-2.67,2.67v42.69l2.67,2.67h88l2.67,2.67v26.68Z"/><path class="cls-1" d="M763,228.6H637.6l-2.67-2.67V44.5l2.67-2.67H763l2.67,2.67V71.18L763,73.85H675l-2.67,2.67v37.35l2.67,2.67h82.71l2.67,2.67v26.68l-2.67,2.67H675l-2.67,2.67v42.69l2.67,2.67h88l2.67,2.67v26.68Z"/><path class="cls-1" d="M768.1,233.7H642.69L640,231V49.6l2.67-2.67H768.1l2.67,2.67V76.28l-2.67,2.67H680l-2.67,2.67V119l2.67,2.67h82.71l2.67,2.67V151l-2.67,2.67H680l-2.67,2.67V199l2.67,2.67h88l2.67,2.67V231Z"/><path class="cls-1" d="M773.19,238.79H647.79l-2.67-2.67V54.69L647.79,52h125.4l2.67,2.67V81.37L773.19,84h-88l-2.67,2.67v37.35l2.67,2.67h82.71l2.67,2.67v26.68l-2.67,2.67H685.14l-2.67,2.67v42.69l2.67,2.67h88l2.67,2.67v26.68Z"/><path class="cls-1" d="M778.29,243.89H652.89l-2.67-2.67V59.79l2.67-2.67h125.4L781,59.79V86.47l-2.67,2.67h-88l-2.67,2.67v37.35l2.67,2.67H773l2.67,2.67v26.68L773,163.84H690.24l-2.67,2.67V209.2l2.67,2.67h88l2.67,2.67v26.68Z"/><path class="cls-1" d="M783.38,249H658l-2.67-2.67V64.88L658,62.21h125.4l2.67,2.67V91.56l-2.67,2.67h-88l-2.67,2.67v37.35l2.67,2.67H778l2.67,2.67v26.68L778,168.94H695.33l-2.67,2.67V214.3l2.67,2.67h88l2.67,2.67v26.68Z"/><path class="cls-1" d="M788.48,254.08H663.08l-2.67-2.67V70l2.67-2.67h125.4L791.15,70V96.66l-2.67,2.67h-88L697.76,102v37.35l2.67,2.67h82.71l2.67,2.67v26.68L783.14,174H700.43l-2.67,2.67v42.69l2.67,2.67h88l2.67,2.67v26.68Z"/><path class="cls-1" d="M793.57,259.17H668.17l-2.67-2.67V75.07l2.67-2.67h125.4l2.67,2.67v26.68l-2.67,2.67h-88l-2.67,2.67v37.35l2.67,2.67h82.71l2.67,2.67v26.68l-2.67,2.67H705.53l-2.67,2.67v42.69l2.67,2.67h88l2.67,2.67v26.68Z"/><path class="cls-1" d="M798.67,264.27H673.27l-2.67-2.67V80.17l2.67-2.67h125.4l2.67,2.67v26.68l-2.67,2.67h-88L708,112.19v37.35l2.67,2.67h82.71l2.67,2.67v26.68l-2.67,2.67H710.62L708,186.89v42.69l2.67,2.67h88l2.67,2.67V261.6Z"/><path class="cls-1" d="M803.76,269.37H678.36l-2.67-2.67V85.26l2.67-2.67h125.4l2.67,2.67v26.68l-2.67,2.67h-88L713,117.28v37.35l2.67,2.67h82.71L801.1,160v26.68l-2.67,2.67H715.72L713,192v42.69l2.67,2.67h88l2.67,2.67V266.7Z"/><path class="cls-1" d="M808.86,274.46H683.46l-2.67-2.67V90.36l2.67-2.67h125.4l2.67,2.67V117l-2.67,2.67h-88l-2.67,2.67v37.35l2.67,2.67h82.71l2.67,2.67v26.68l-2.67,2.67H720.81l-2.67,2.67v42.69l2.67,2.67h88l2.67,2.67v26.68Z"/><path class="cls-1" d="M814,279.56H688.55l-2.67-2.67V95.45l2.67-2.67H814l2.67,2.67v26.68L814,124.8h-88l-2.67,2.67v37.35l2.67,2.67h82.71l2.67,2.67v26.68l-2.67,2.67H725.91l-2.67,2.67v42.69l2.67,2.67h88l2.67,2.67v26.68Z"/><path class="cls-1" d="M819.05,284.65H693.65L691,282V100.55l2.67-2.67h125.4l2.67,2.67v26.68l-2.67,2.67H731l-2.67,2.67v37.35l2.67,2.67h82.71l2.67,2.67v26.68l-2.67,2.67H731l-2.67,2.67V250l2.67,2.67h88l2.67,2.67V282Z"/><path class="cls-1" d="M824.15,289.75H698.74l-2.67-2.67V105.64l2.67-2.67h125.4l2.67,2.67v26.68L824.15,135h-88l-2.67,2.67V175l2.67,2.67h82.71l2.67,2.67V207l-2.67,2.67H736.1l-2.67,2.67v42.69l2.67,2.67h88l2.67,2.67v26.68Z"/><path class="cls-1" d="M829.24,294.84H703.84l-2.67-2.67V110.74l2.67-2.67h125.4l2.67,2.67v26.68l-2.67,2.67h-88l-2.67,2.67v37.35l2.67,2.67h82.71l2.67,2.67v26.68l-2.67,2.67H741.19l-2.67,2.67v42.69l2.67,2.67h88l2.67,2.67v26.68Z"/><path class="cls-1" d="M834.34,299.94H708.93l-2.67-2.67V115.84l2.67-2.67h125.4l2.67,2.67v26.68l-2.67,2.67h-88l-2.67,2.67v37.35l2.67,2.67H829l2.67,2.67v26.68L829,219.89H746.29l-2.67,2.67v42.69l2.67,2.67h88l2.67,2.67v26.68Z"/><path class="cls-1" d="M839.43,305H714l-2.67-2.67V120.93l2.67-2.67h125.4l2.67,2.67v26.68l-2.67,2.67h-88l-2.67,2.67V190.3l2.67,2.67H834.1l2.67,2.67v26.68L834.1,225H751.38l-2.67,2.67v42.69l2.67,2.67h88l2.67,2.67v26.68Z"/><path class="cls-1" d="M844.53,310.13H719.13l-2.67-2.67V126l2.67-2.67h125.4L847.2,126v26.68l-2.67,2.67h-88L753.81,158V195.4l2.67,2.67h82.71l2.67,2.67v26.68l-2.67,2.67H756.48l-2.67,2.67v42.69l2.67,2.67h88l2.67,2.67v26.68Z"/><path class="cls-1" d="M849.62,315.22H724.22l-2.67-2.67V131.12l2.67-2.67h125.4l2.67,2.67V157.8l-2.67,2.67h-88l-2.67,2.67v37.35l2.67,2.67h82.71l2.67,2.67v26.68l-2.67,2.67H761.57l-2.67,2.67v42.69l2.67,2.67h88l2.67,2.67v26.68Z"/><path class="cls-1" d="M854.72,320.32H729.32l-2.67-2.67V136.22l2.67-2.67h125.4l2.67,2.67V162.9l-2.67,2.67h-88L764,168.23v37.35l2.67,2.67h82.71l2.67,2.67v26.68l-2.67,2.67H766.67L764,242.94v42.69l2.67,2.67h88l2.67,2.67v26.68Z"/><path class="cls-1" d="M859.81,325.41H734.41l-2.67-2.67V141.31l2.67-2.67h125.4l2.67,2.67V168l-2.67,2.67h-88l-2.67,2.67v37.35l2.67,2.67h82.71l2.67,2.67V242.7l-2.67,2.67H771.76L769.1,248v42.69l2.67,2.67h88l2.67,2.67v26.68Z"/><path class="cls-1" d="M864.91,330.51H739.51l-2.67-2.67V146.41l2.67-2.67h125.4l2.67,2.67v26.68l-2.67,2.67h-88l-2.67,2.67v37.35l2.67,2.67h82.71l2.67,2.67V247.8l-2.67,2.67H776.86l-2.67,2.67v42.69l2.67,2.67h88l2.67,2.67v26.68Z"/><path class="cls-1" d="M870,335.6H744.6l-2.67-2.67V151.5l2.67-2.67H870l2.67,2.67v26.68L870,180.85H782l-2.67,2.67v37.35l2.67,2.67h82.71l2.67,2.67v26.68l-2.67,2.67H782l-2.67,2.67v42.69l2.67,2.67h88l2.67,2.67v26.68Z"/><path class="cls-1" d="M875.1,340.7H749.7L747,338V156.6l2.67-2.67H875.1l2.67,2.67v26.68l-2.67,2.67h-88l-2.67,2.67V226l2.67,2.67h82.71l2.67,2.67V258l-2.67,2.67H787.05l-2.67,2.67V306l2.67,2.67h88l2.67,2.67V338Z"/><path class="cls-1" d="M880.19,345.8H754.79l-2.67-2.67V161.69l2.67-2.67h125.4l2.67,2.67v26.68L880.19,191h-88l-2.67,2.67v37.35l2.67,2.67h82.71l2.67,2.67v26.68l-2.67,2.67H792.15l-2.67,2.67v42.69l2.67,2.67h88l2.67,2.67v26.68Z"/><path class="cls-1" d="M885.29,350.89H759.89l-2.67-2.67V166.79l2.67-2.67h125.4l2.67,2.67v26.68l-2.67,2.67h-88l-2.67,2.67v37.35l2.67,2.67H880l2.67,2.67v26.68L880,270.85H797.24l-2.67,2.67v42.69l2.67,2.67h88l2.67,2.67v26.68Z"/><path class="cls-1" d="M890.39,356H765l-2.67-2.67V171.88l2.67-2.67h125.4l2.67,2.67v26.68l-2.67,2.67h-88l-2.67,2.67v37.35l2.67,2.67H885l2.67,2.67v26.68L885,275.94H802.34l-2.67,2.67V321.3l2.67,2.67h88l2.67,2.67v26.68Z"/><path class="cls-1" d="M895.48,361.08H770.08l-2.67-2.67V177l2.67-2.67h125.4l2.67,2.67v26.68l-2.67,2.67h-88L804.76,209v37.35l2.67,2.67h82.71l2.67,2.67v26.68L890.14,281H807.43l-2.67,2.67V326.4l2.67,2.67h88l2.67,2.67v26.68Z"/><path class="cls-1" d="M900.58,366.18H775.17l-2.67-2.67V182.07l2.67-2.67h125.4l2.67,2.67v26.68l-2.67,2.67h-88l-2.67,2.67v37.35l2.67,2.67h82.71l2.67,2.67v26.68l-2.67,2.67H812.53l-2.67,2.67v42.69l2.67,2.67h88l2.67,2.67v26.68Z"/><path class="cls-1" d="M905.67,371.27H780.27l-2.67-2.67V187.17l2.67-2.67h125.4l2.67,2.67v26.68l-2.67,2.67h-88L815,219.19v37.35l2.67,2.67h82.71l2.67,2.67v26.68l-2.67,2.67H817.62L815,293.9v42.69l2.67,2.67h88l2.67,2.67V368.6Z"/><path class="cls-1" d="M910.77,376.37H785.36l-2.67-2.67V192.26l2.67-2.67h125.4l2.67,2.67v26.68l-2.67,2.67h-88l-2.67,2.67v37.35l2.67,2.67h82.71L908.1,267v26.68l-2.67,2.67H822.72L820.05,299v42.69l2.67,2.67h88l2.67,2.67V373.7Z"/><path class="cls-1" d="M915.86,381.46H790.46l-2.67-2.67V197.36l2.67-2.67h125.4l2.67,2.67V224l-2.67,2.67h-88l-2.67,2.67v37.35l2.67,2.67h82.71l2.67,2.67v26.68l-2.67,2.67H827.81l-2.67,2.67v42.69l2.67,2.67h88l2.67,2.67v26.68Z"/><path class="cls-1" d="M921,386.56H795.56l-2.67-2.67V202.46l2.67-2.67H921l2.67,2.67v26.68L921,231.81h-88l-2.67,2.67v37.35l2.67,2.67h82.71l2.67,2.67v26.68l-2.67,2.67H832.91l-2.67,2.67v42.69l2.67,2.67h88l2.67,2.67v26.68Z"/><path class="cls-1" d="M926.05,391.65H800.65L798,389V207.55l2.67-2.67h125.4l2.67,2.67v26.68l-2.67,2.67H838l-2.67,2.67v37.35l2.67,2.67h82.71l2.67,2.67v26.68l-2.67,2.67H838l-2.67,2.67V357l2.67,2.67h88l2.67,2.67V389Z"/><path class="cls-1" d="M931.15,396.75H805.75l-2.67-2.67V212.65l2.67-2.67h125.4l2.67,2.67v26.68L931.15,242h-88l-2.67,2.67V282l2.67,2.67h82.71l2.67,2.67V314l-2.67,2.67H843.1l-2.67,2.67v42.69l2.67,2.67h88l2.67,2.67v26.68Z"/><path class="cls-1" d="M936.24,401.84H810.84l-2.67-2.67V217.74l2.67-2.67h125.4l2.67,2.67v26.68l-2.67,2.67h-88l-2.67,2.67v37.35l2.67,2.67h82.71l2.67,2.67v26.68l-2.67,2.67H848.19l-2.67,2.67v42.69l2.67,2.67h88l2.67,2.67v26.68Z"/><path class="cls-1" d="M941.34,406.94H815.94l-2.67-2.67V222.84l2.67-2.67h125.4l2.67,2.67v26.68l-2.67,2.67h-88l-2.67,2.67v37.35l2.67,2.67H936l2.67,2.67v26.68L936,326.89H853.29l-2.67,2.67v42.69l2.67,2.67h88l2.67,2.67v26.68Z"/><path class="cls-1" d="M946.43,412H821l-2.67-2.67V227.93l2.67-2.67h125.4l2.67,2.67v26.68l-2.67,2.67h-88l-2.67,2.67V297.3l2.67,2.67H941.1l2.67,2.67v26.68L941.1,332H858.39l-2.67,2.67v42.69l2.67,2.67h88l2.67,2.67v26.68Z"/><path class="cls-1" d="M951.53,417.13H826.13l-2.67-2.67V233l2.67-2.67h125.4L954.2,233v26.68l-2.67,2.67h-88L860.81,265V302.4l2.67,2.67h82.71l2.67,2.67v26.68l-2.67,2.67H863.48l-2.67,2.67v42.69l2.67,2.67h88l2.67,2.67v26.68Z"/><path class="cls-1" d="M956.62,422.23H831.22l-2.67-2.67V238.12l2.67-2.67h125.4l2.67,2.67V264.8l-2.67,2.67h-88l-2.67,2.67V307.5l2.67,2.67h82.71l2.67,2.67v26.68l-2.67,2.67H868.58l-2.67,2.67v42.69l2.67,2.67h88l2.67,2.67v26.68Z"/><path class="cls-1" d="M961.72,427.32H836.32l-2.67-2.67V243.22l2.67-2.67h125.4l2.67,2.67V269.9l-2.67,2.67h-88L871,275.24v37.35l2.67,2.67h82.71l2.67,2.67v26.68l-2.67,2.67H873.67L871,349.94v42.69l2.67,2.67h88l2.67,2.67v26.68Z"/><path class="cls-1" d="M966.82,432.42H841.41l-2.67-2.67V248.31l2.67-2.67h125.4l2.67,2.67V275l-2.67,2.67h-88l-2.67,2.67v37.35l2.67,2.67h82.71l2.67,2.67V349.7l-2.67,2.67H878.77L876.1,355v42.69l2.67,2.67h88l2.67,2.67v26.68Z"/><path class="cls-1" d="M971.91,437.51H846.51l-2.67-2.67V253.41l2.67-2.67h125.4l2.67,2.67v26.68l-2.67,2.67h-88l-2.67,2.67v37.35l2.67,2.67h82.71l2.67,2.67V354.8l-2.67,2.67H883.86l-2.67,2.67v42.69l2.67,2.67h88l2.67,2.67v26.68Z"/><path class="cls-1" d="M977,442.61H851.6l-2.67-2.67V258.5l2.67-2.67H977l2.67,2.67v26.68L977,287.85H889l-2.67,2.67v37.35l2.67,2.67h82.71l2.67,2.67v26.68l-2.67,2.67H889l-2.67,2.67v42.69l2.67,2.67h88l2.67,2.67v26.68Z"/><path class="cls-1" d="M982.1,447.7H856.7L854,445V263.6l2.67-2.67H982.1l2.67,2.67v26.68l-2.67,2.67h-88l-2.67,2.67V333l2.67,2.67h82.71l2.67,2.67V365l-2.67,2.67H894.05l-2.67,2.67V413l2.67,2.67h88l2.67,2.67V445Z"/></g></svg>