<svg id="Layer_3" data-name="Layer 3" xmlns="http://www.w3.org/2000/svg" viewBox="0 0 1896 5154.75"><defs><style>.cls-1{fill:#fff;stroke:#005d98;stroke-width:3px;}</style></defs><title>Artboard 1</title><g id="_Group_" data-name="&lt;Group&gt;"><path class="cls-1" d="M-3.75,1852.25h-125.4l-2.67-2.67V1668.15l2.67-2.67H-3.75l2.67,2.67v26.68l-2.67,2.67h-88l-2.67,2.67v37.35l2.67,2.67H-9.08l2.67,2.67v26.68l-2.67,2.67H-91.8l-2.67,2.67v42.69l2.67,2.67h88l2.67,2.67v26.68Z"/><path class="cls-1" d="M1.34,1847.16h-125.4l-2.67-2.67V1663.06l2.67-2.67H1.34L4,1663.06v26.68l-2.67,2.67h-88l-2.67,2.67v37.35l2.67,2.67H-4l2.67,2.67v26.68L-4,1767.12H-86.71l-2.67,2.67v42.69l2.67,2.67h88L4,1817.81v26.68Z"/><path class="cls-1" d="M6.43,1842.08H-119l-2.67-2.67V1658l2.67-2.67H6.43L9.1,1658v26.68l-2.67,2.67h-88l-2.67,2.67v37.35l2.67,2.67H1.09l2.67,2.67v26.68L1.09,1762H-81.62l-2.67,2.67v42.69l2.67,2.67h88l2.67,2.67v26.68Z"/><path class="cls-1" d="M11.52,1837h-125.4l-2.67-2.67V1652.88l2.67-2.67H11.52l2.67,2.67v26.68l-2.67,2.67h-88l-2.67,2.67v37.35l2.67,2.67H6.18l2.67,2.67v26.68l-2.67,2.67H-76.53l-2.67,2.67v42.69l2.67,2.67h88l2.67,2.67v26.68Z"/><path class="cls-1" d="M16.61,1831.9H-108.8l-2.67-2.67V1647.79l2.67-2.67H16.61l2.67,2.67v26.68l-2.67,2.67h-88l-2.67,2.67v37.35l2.67,2.67H11.27l2.67,2.67v26.68l-2.67,2.67H-71.44l-2.67,2.67v42.69l2.67,2.67h88l2.67,2.67v26.68Z"/><path class="cls-1" d="M21.7,1826.81h-125.4l-2.67-2.67V1642.71l2.67-2.67H21.7l2.67,2.67v26.68l-2.67,2.67h-88l-2.67,2.67v37.35l2.67,2.67H16.36l2.67,2.67v26.68l-2.67,2.67H-66.35l-2.67,2.67v42.69l2.67,2.67h88l2.67,2.67v26.68Z"/><path class="cls-1" d="M26.79,1821.72H-98.62l-2.67-2.67V1637.62l2.67-2.67H26.79l2.67,2.67v26.68L26.79,1667h-88l-2.67,2.67V1707l2.67,2.67H21.45l2.67,2.67V1739l-2.67,2.67H-61.26l-2.67,2.67V1787l2.67,2.67h88l2.67,2.67v26.68Z"/><path class="cls-1" d="M31.87,1816.63H-93.53L-96.2,1814V1632.53l2.67-2.67H31.87l2.67,2.67v26.68l-2.67,2.67h-88l-2.67,2.67v37.35l2.67,2.67H26.54l2.67,2.67v26.68l-2.67,2.67H-56.17l-2.67,2.67v42.69l2.67,2.67h88l2.67,2.67V1814Z"/><path class="cls-1" d="M37,1811.54H-88.44l-2.67-2.67V1627.44l2.67-2.67H37l2.67,2.67v26.68L37,1656.79h-88l-2.67,2.67v37.35l2.67,2.67H31.63l2.67,2.67v26.68l-2.67,2.67H-51.09l-2.67,2.67v42.69l2.67,2.67H37l2.67,2.67v26.68Z"/><path class="cls-1" d="M42.05,1806.45H-83.35l-2.67-2.67V1622.35l2.67-2.67H42.05l2.67,2.67V1649l-2.67,2.67H-46l-2.67,2.67v37.35l2.67,2.67H36.72l2.67,2.67v26.68l-2.67,2.67H-46l-2.67,2.67v42.69l2.67,2.67h88l2.67,2.67v26.68Z"/><path class="cls-1" d="M47.14,1801.36H-78.26l-2.67-2.67V1617.26l2.67-2.67H47.14l2.67,2.67v26.68l-2.67,2.67h-88l-2.67,2.67v37.35l2.67,2.67H41.8l2.67,2.67v26.68l-2.67,2.67H-40.91l-2.67,2.67v42.69l2.67,2.67h88l2.67,2.67v26.68Z"/><path class="cls-1" d="M52.23,1796.27H-73.17l-2.67-2.67V1612.17l2.67-2.67H52.23l2.67,2.67v26.68l-2.67,2.67h-88l-2.67,2.67v37.35l2.67,2.67H46.89l2.67,2.67v26.68l-2.67,2.67H-35.82l-2.67,2.67v42.69l2.67,2.67h88l2.67,2.67v26.68Z"/><path class="cls-1" d="M57.32,1791.19H-68.08l-2.67-2.67V1607.08l2.67-2.67H57.32l2.67,2.67v26.68l-2.67,2.67h-88l-2.67,2.67v37.35l2.67,2.67H52l2.67,2.67v26.68L52,1711.14H-30.73l-2.67,2.67v42.69l2.67,2.67h88l2.67,2.67v26.68Z"/><path class="cls-1" d="M62.41,1786.1H-63l-2.67-2.67V1602l2.67-2.67H62.41l2.67,2.67v26.68l-2.67,2.67h-88l-2.67,2.67v37.35l2.67,2.67H57.07l2.67,2.67v26.68l-2.67,2.67H-25.64l-2.67,2.67v42.69l2.67,2.67h88l2.67,2.67v26.68Z"/><path class="cls-1" d="M67.5,1781H-57.91l-2.67-2.67V1596.91l2.67-2.67H67.5l2.67,2.67v26.68l-2.67,2.67h-88l-2.67,2.67v37.35l2.67,2.67H62.16l2.67,2.67v26.68L62.16,1701H-20.55l-2.67,2.67v42.69l2.67,2.67h88l2.67,2.67v26.68Z"/><path class="cls-1" d="M72.59,1775.92H-52.82l-2.67-2.67V1591.82l2.67-2.67H72.59l2.67,2.67v26.68l-2.67,2.67h-88l-2.67,2.67v37.35l2.67,2.67H67.25l2.67,2.67v26.68l-2.67,2.67H-15.46l-2.67,2.67v42.69l2.67,2.67h88l2.67,2.67v26.68Z"/><path class="cls-1" d="M77.67,1770.83H-47.73l-2.67-2.67V1586.73l2.67-2.67H77.67l2.67,2.67v26.68l-2.67,2.67h-88l-2.67,2.67v37.35l2.67,2.67H72.34l2.67,2.67v26.68l-2.67,2.67H-10.37l-2.67,2.67v42.69l2.67,2.67h88l2.67,2.67v26.68Z"/><path class="cls-1" d="M82.76,1765.74H-42.64l-2.67-2.67V1581.64l2.67-2.67H82.76l2.67,2.67v26.68L82.76,1611h-88L-8,1613.66V1651l2.67,2.67H77.43l2.67,2.67V1683l-2.67,2.67H-5.29L-8,1688.36v42.69l2.67,2.67h88l2.67,2.67v26.68Z"/><path class="cls-1" d="M87.85,1760.65H-37.55l-2.67-2.67V1576.55l2.67-2.67H87.85l2.67,2.67v26.68l-2.67,2.67H-.2l-2.67,2.67v37.35l2.67,2.67H82.52l2.67,2.67v26.68l-2.67,2.67H-.2l-2.67,2.67V1726l2.67,2.67h88l2.67,2.67V1758Z"/><path class="cls-1" d="M92.94,1755.56H-32.46l-2.67-2.67V1571.46l2.67-2.67H92.94l2.67,2.67v26.68l-2.67,2.67h-88l-2.67,2.67v37.35l2.67,2.67H87.61l2.67,2.67v26.68l-2.67,2.67H4.89l-2.67,2.67v42.69l2.67,2.67h88l2.67,2.67v26.68Z"/><path class="cls-1" d="M98,1750.47H-27.37l-2.67-2.67V1566.37l2.67-2.67H98l2.67,2.67v26.68L98,1595.72H10l-2.67,2.67v37.35l2.67,2.67H92.69l2.67,2.67v26.68l-2.67,2.67H10l-2.67,2.67v42.69l2.67,2.67H98l2.67,2.67v26.68Z"/><path class="cls-1" d="M103.12,1745.39H-22.28l-2.67-2.67V1561.28l2.67-2.67h125.4l2.67,2.67V1588l-2.67,2.67h-88l-2.67,2.67v37.35l2.67,2.67H97.78l2.67,2.67v26.68l-2.67,2.67H15.07L12.4,1668v42.69l2.67,2.67h88l2.67,2.67v26.68Z"/><path class="cls-1" d="M108.21,1740.3H-17.19l-2.67-2.67V1556.19l2.67-2.67h125.4l2.67,2.67v26.68l-2.67,2.67h-88l-2.67,2.67v37.35l2.67,2.67h82.71l2.67,2.67v26.68l-2.67,2.67H20.16l-2.67,2.67v42.69l2.67,2.67h88l2.67,2.67v26.68Z"/><path class="cls-1" d="M113.3,1735.21H-12.1l-2.67-2.67V1551.1l2.67-2.67H113.3l2.67,2.67v26.68l-2.67,2.67h-88l-2.67,2.67v37.35l2.67,2.67H108l2.67,2.67v26.68l-2.67,2.67H25.25l-2.67,2.67v42.69l2.67,2.67h88l2.67,2.67v26.68Z"/><path class="cls-1" d="M118.39,1730.12H-7l-2.67-2.67V1546l2.67-2.67h125.4l2.67,2.67v26.68l-2.67,2.67h-88L27.67,1578v37.35l2.67,2.67h82.71l2.67,2.67v26.68l-2.67,2.67H30.34l-2.67,2.67v42.69l2.67,2.67h88l2.67,2.67v26.68Z"/><path class="cls-1" d="M123.48,1725H-1.93l-2.67-2.67V1540.93l2.67-2.67h125.4l2.67,2.67v26.68l-2.67,2.67h-88l-2.67,2.67v37.35l2.67,2.67h82.71l2.67,2.67v26.68l-2.67,2.67H35.43l-2.67,2.67v42.69l2.67,2.67h88l2.67,2.67v26.68Z"/><path class="cls-1" d="M128.56,1719.94H3.16l-2.67-2.67V1535.84l2.67-2.67h125.4l2.67,2.67v26.68l-2.67,2.67h-88l-2.67,2.67v37.35l2.67,2.67h82.71l2.67,2.67v26.68l-2.67,2.67H40.52l-2.67,2.67v42.69l2.67,2.67h88l2.67,2.67v26.68Z"/><path class="cls-1" d="M133.65,1714.85H8.25l-2.67-2.67V1530.75l2.67-2.67h125.4l2.67,2.67v26.68l-2.67,2.67h-88l-2.67,2.67v37.35l2.67,2.67h82.71l2.67,2.67v26.68l-2.67,2.67H45.6l-2.67,2.67v42.69l2.67,2.67h88l2.67,2.67v26.68Z"/><path class="cls-1" d="M138.74,1709.76H13.34l-2.67-2.67V1525.66l2.67-2.67h125.4l2.67,2.67v26.68l-2.67,2.67h-88L48,1557.68V1595l2.67,2.67h82.71l2.67,2.67V1627l-2.67,2.67H50.69L48,1632.39v42.69l2.67,2.67h88l2.67,2.67v26.68Z"/><path class="cls-1" d="M143.83,1704.67H18.43L15.76,1702V1520.57l2.67-2.67h125.4l2.67,2.67v26.68l-2.67,2.67h-88l-2.67,2.67v37.35l2.67,2.67H138.5l2.67,2.67V1622l-2.67,2.67H55.78l-2.67,2.67V1670l2.67,2.67h88l2.67,2.67V1702Z"/><path class="cls-1" d="M148.92,1699.58H23.52l-2.67-2.67V1515.48l2.67-2.67h125.4l2.67,2.67v26.68l-2.67,2.67h-88l-2.67,2.67v37.35l2.67,2.67h82.71l2.67,2.67v26.68l-2.67,2.67H60.87l-2.67,2.67v42.69l2.67,2.67h88l2.67,2.67v26.68Z"/><path class="cls-1" d="M154,1694.5H28.61l-2.67-2.67V1510.39l2.67-2.67H154l2.67,2.67v26.68l-2.67,2.67H66l-2.67,2.67v37.35l2.67,2.67h82.71l2.67,2.67v26.68l-2.67,2.67H66l-2.67,2.67v42.69l2.67,2.67h88l2.67,2.67v26.68Z"/><path class="cls-1" d="M159.1,1689.41H33.7L31,1686.74V1505.3l2.67-2.67H159.1l2.67,2.67V1532l-2.67,2.67H71l-2.67,2.67v37.35l2.67,2.67h82.71l2.67,2.67v26.68l-2.67,2.67H71L68.38,1612v42.69l2.67,2.67h88l2.67,2.67v26.68Z"/><path class="cls-1" d="M164.19,1684.32H38.78l-2.67-2.67V1500.22l2.67-2.67h125.4l2.67,2.67v26.68l-2.67,2.67h-88l-2.67,2.67v37.35l2.67,2.67h82.71l2.67,2.67v26.68l-2.67,2.67H76.14l-2.67,2.67v42.69l2.67,2.67h88l2.67,2.67v26.68Z"/><path class="cls-1" d="M169.28,1679.23H43.87l-2.67-2.67V1495.13l2.67-2.67h125.4l2.67,2.67v26.68l-2.67,2.67h-88l-2.67,2.67v37.35l2.67,2.67h82.71l2.67,2.67v26.68l-2.67,2.67H81.23l-2.67,2.67v42.69l2.67,2.67h88l2.67,2.67v26.68Z"/><path class="cls-1" d="M174.36,1674.14H49l-2.67-2.67V1490l2.67-2.67h125.4L177,1490v26.68l-2.67,2.67h-88l-2.67,2.67v37.35l2.67,2.67H169l2.67,2.67v26.68l-2.67,2.67H86.32l-2.67,2.67v42.69l2.67,2.67h88l2.67,2.67v26.68Z"/><path class="cls-1" d="M179.45,1669.05H54.05l-2.67-2.67V1484.95l2.67-2.67h125.4l2.67,2.67v26.68l-2.67,2.67h-88L88.74,1517v37.35L91.4,1557h82.71l2.67,2.67v26.68l-2.67,2.67H91.4l-2.67,2.67v42.69L91.4,1637h88l2.67,2.67v26.68Z"/><path class="cls-1" d="M184.54,1664H59.14l-2.67-2.67V1479.86l2.67-2.67h125.4l2.67,2.67v26.68l-2.67,2.67h-88l-2.67,2.67v37.35l2.67,2.67h82.71l2.67,2.67v26.68l-2.67,2.67H96.49l-2.67,2.67v42.69l2.67,2.67h88l2.67,2.67v26.68Z"/><path class="cls-1" d="M189.63,1658.87H64.23l-2.67-2.67V1474.77l2.67-2.67h125.4l2.67,2.67v26.68l-2.67,2.67h-88l-2.67,2.67v37.35l2.67,2.67H184.3l2.67,2.67v26.68l-2.67,2.67H101.58l-2.67,2.67v42.69l2.67,2.67h88l2.67,2.67v26.68Z"/><path class="cls-1" d="M194.72,1653.78H69.32l-2.67-2.67V1469.68l2.67-2.67h125.4l2.67,2.67v26.68l-2.67,2.67h-88L104,1501.7v37.35l2.67,2.67h82.71l2.67,2.67v26.68l-2.67,2.67H106.67l-2.67,2.67v42.69l2.67,2.67h88l2.67,2.67v26.68Z"/><path class="cls-1" d="M199.81,1648.7H74.41L71.74,1646V1464.59l2.67-2.67h125.4l2.67,2.67v26.68l-2.67,2.67h-88l-2.67,2.67V1534l2.67,2.67h82.71l2.67,2.67V1566l-2.67,2.67H111.76l-2.67,2.67V1614l2.67,2.67h88l2.67,2.67V1646Z"/><path class="cls-1" d="M204.9,1643.61H79.5l-2.67-2.67V1459.5l2.67-2.67H204.9l2.67,2.67v26.68l-2.67,2.67h-88l-2.67,2.67v37.35l2.67,2.67h82.71l2.67,2.67v26.68l-2.67,2.67H116.85l-2.67,2.67v42.69l2.67,2.67h88l2.67,2.67v26.68Z"/><path class="cls-1" d="M210,1638.52H84.59l-2.67-2.67V1454.41l2.67-2.67H210l2.67,2.67v26.68l-2.67,2.67h-88l-2.67,2.67v37.35l2.67,2.67h82.71l2.67,2.67v26.68l-2.67,2.67H121.94l-2.67,2.67v42.69l2.67,2.67h88l2.67,2.67v26.68Z"/><path class="cls-1" d="M215.08,1633.43H89.67L87,1630.76V1449.33l2.67-2.67h125.4l2.67,2.67V1476l-2.67,2.67H127l-2.67,2.67v37.35l2.67,2.67h82.71l2.67,2.67v26.68l-2.67,2.67H127l-2.67,2.67v42.69l2.67,2.67h88l2.67,2.67v26.68Z"/><path class="cls-1" d="M220.17,1628.34H94.76l-2.67-2.67V1444.24l2.67-2.67h125.4l2.67,2.67v26.68l-2.67,2.67h-88l-2.67,2.67v37.35l2.67,2.67h82.71l2.67,2.67v26.68l-2.67,2.67H132.12l-2.67,2.67v42.69l2.67,2.67h88l2.67,2.67v26.68Z"/><path class="cls-1" d="M225.25,1623.25H99.85l-2.67-2.67V1439.15l2.67-2.67h125.4l2.67,2.67v26.68l-2.67,2.67h-88l-2.67,2.67v37.35l2.67,2.67h82.71l2.67,2.67v26.68l-2.67,2.67H137.21l-2.67,2.67v42.69l2.67,2.67h88l2.67,2.67v26.68Z"/><path class="cls-1" d="M230.34,1618.16H104.94l-2.67-2.67V1434.06l2.67-2.67h125.4l2.67,2.67v26.68l-2.67,2.67h-88l-2.67,2.67v37.35l2.67,2.67H225l2.67,2.67v26.68l-2.67,2.67H142.29l-2.67,2.67v42.69l2.67,2.67h88l2.67,2.67v26.68Z"/><path class="cls-1" d="M235.43,1613.07H110l-2.67-2.67V1429l2.67-2.67h125.4l2.67,2.67v26.68l-2.67,2.67h-88l-2.67,2.67v37.35l2.67,2.67H230.1l2.67,2.67v26.68L230.1,1533H147.38l-2.67,2.67v42.69l2.67,2.67h88l2.67,2.67v26.68Z"/><path class="cls-1" d="M240.52,1608H115.12l-2.67-2.67V1423.88l2.67-2.67h125.4l2.67,2.67v26.68l-2.67,2.67h-88l-2.67,2.67v37.35l2.67,2.67h82.71l2.67,2.67v26.68l-2.67,2.67H152.47l-2.67,2.67v42.69l2.67,2.67h88l2.67,2.67v26.68Z"/><path class="cls-1" d="M245.61,1602.89H120.21l-2.67-2.67V1418.79l2.67-2.67h125.4l2.67,2.67v26.68l-2.67,2.67h-88l-2.67,2.67v37.35l2.67,2.67h82.71l2.67,2.67v26.68l-2.67,2.67H157.56l-2.67,2.67v42.69l2.67,2.67h88l2.67,2.67v26.68Z"/><path class="cls-1" d="M250.7,1597.81H125.3l-2.67-2.67V1413.7l2.67-2.67H250.7l2.67,2.67v26.68l-2.67,2.67h-88l-2.67,2.67v37.35l2.67,2.67h82.71l2.67,2.67v26.68l-2.67,2.67H162.65l-2.67,2.67v42.69l2.67,2.67h88l2.67,2.67v26.68Z"/><path class="cls-1" d="M255.79,1592.72H130.39l-2.67-2.67V1408.61l2.67-2.67h125.4l2.67,2.67v26.68l-2.67,2.67h-88l-2.67,2.67V1478l2.67,2.67h82.71l2.67,2.67V1510l-2.67,2.67H167.74l-2.67,2.67V1558l2.67,2.67h88l2.67,2.67V1590Z"/><path class="cls-1" d="M260.88,1587.63H135.47l-2.67-2.67V1403.53l2.67-2.67h125.4l2.67,2.67v26.68l-2.67,2.67h-88l-2.67,2.67v37.35l2.67,2.67h82.71l2.67,2.67v26.68l-2.67,2.67H172.83l-2.67,2.67v42.69l2.67,2.67h88l2.67,2.67V1585Z"/><path class="cls-1" d="M266,1582.54H140.56l-2.67-2.67V1398.44l2.67-2.67H266l2.67,2.67v26.68l-2.67,2.67h-88l-2.67,2.67v37.35l2.67,2.67h82.71l2.67,2.67v26.68l-2.67,2.67H177.92l-2.67,2.67v42.69l2.67,2.67h88l2.67,2.67v26.68Z"/><path class="cls-1" d="M271.06,1577.45H145.65l-2.67-2.67V1393.35l2.67-2.67h125.4l2.67,2.67V1420l-2.67,2.67H183l-2.67,2.67v37.35l2.67,2.67h82.71l2.67,2.67v26.68l-2.67,2.67H183l-2.67,2.67v42.69l2.67,2.67h88l2.67,2.67v26.68Z"/><path class="cls-1" d="M276.14,1572.36H150.74l-2.67-2.67V1388.26l2.67-2.67h125.4l2.67,2.67v26.68l-2.67,2.67h-88l-2.67,2.67v37.35l2.67,2.67h82.71l2.67,2.67v26.68l-2.67,2.67H188.1l-2.67,2.67v42.69l2.67,2.67h88l2.67,2.67v26.68Z"/><path class="cls-1" d="M281.23,1567.27H155.83l-2.67-2.67V1383.17l2.67-2.67h125.4l2.67,2.67v26.68l-2.67,2.67h-88l-2.67,2.67v37.35l2.67,2.67H275.9l2.67,2.67v26.68l-2.67,2.67H193.18l-2.67,2.67v42.69l2.67,2.67h88l2.67,2.67v26.68Z"/><path class="cls-1" d="M286.32,1562.18H160.92l-2.67-2.67V1378.08l2.67-2.67h125.4l2.67,2.67v26.68l-2.67,2.67h-88l-2.67,2.67v37.35l2.67,2.67H281l2.67,2.67v26.68l-2.67,2.67H198.27l-2.67,2.67v42.69l2.67,2.67h88l2.67,2.67v26.68Z"/><path class="cls-1" d="M291.41,1557.09H166l-2.67-2.67V1373l2.67-2.67h125.4l2.67,2.67v26.68l-2.67,2.67h-88l-2.67,2.67v37.35l2.67,2.67h82.71l2.67,2.67v26.68l-2.67,2.67H203.36l-2.67,2.67v42.69l2.67,2.67h88l2.67,2.67v26.68Z"/><path class="cls-1" d="M296.5,1552H171.1l-2.67-2.67V1367.9l2.67-2.67H296.5l2.67,2.67v26.68l-2.67,2.67h-88l-2.67,2.67v37.35l2.67,2.67h82.71l2.67,2.67v26.68l-2.67,2.67H208.45l-2.67,2.67v42.69l2.67,2.67h88l2.67,2.67v26.68Z"/><path class="cls-1" d="M301.59,1546.92H176.19l-2.67-2.67V1362.81l2.67-2.67h125.4l2.67,2.67v26.68l-2.67,2.67h-88l-2.67,2.67v37.35l2.67,2.67h82.71l2.67,2.67v26.68l-2.67,2.67H213.54l-2.67,2.67v42.69l2.67,2.67h88l2.67,2.67v26.68Z"/><path class="cls-1" d="M306.68,1541.83H181.28l-2.67-2.67V1357.72l2.67-2.67h125.4l2.67,2.67v26.68l-2.67,2.67h-88l-2.67,2.67v37.35l2.67,2.67h82.71l2.67,2.67v26.68l-2.67,2.67H218.63l-2.67,2.67v42.69l2.67,2.67h88l2.67,2.67v26.68Z"/><path class="cls-1" d="M311.77,1536.74H186.36l-2.67-2.67V1352.64l2.67-2.67h125.4l2.67,2.67v26.68l-2.67,2.67h-88l-2.67,2.67V1422l2.67,2.67h82.71l2.67,2.67V1454l-2.67,2.67H223.72l-2.67,2.67v42.69l2.67,2.67h88l2.67,2.67v26.68Z"/><path class="cls-1" d="M316.86,1531.65H191.45l-2.67-2.67V1347.55l2.67-2.67h125.4l2.67,2.67v26.68l-2.67,2.67h-88l-2.67,2.67v37.35l2.67,2.67h82.71l2.67,2.67v26.68l-2.67,2.67H228.81l-2.67,2.67V1497l2.67,2.67h88l2.67,2.67V1529Z"/><path class="cls-1" d="M321.94,1526.56H196.54l-2.67-2.67V1342.46l2.67-2.67h125.4l2.67,2.67v26.68l-2.67,2.67h-88l-2.67,2.67v37.35l2.67,2.67h82.71l2.67,2.67v26.68l-2.67,2.67H233.9l-2.67,2.67v42.69l2.67,2.67h88l2.67,2.67v26.68Z"/><path class="cls-1" d="M327,1521.47H201.63L199,1518.8V1337.37l2.67-2.67H327l2.67,2.67v26.68l-2.67,2.67H239l-2.67,2.67v37.35l2.67,2.67H321.7l2.67,2.67v26.68l-2.67,2.67H239l-2.67,2.67v42.69l2.67,2.67h88l2.67,2.67v26.68Z"/><path class="cls-1" d="M332.12,1516.38H206.72l-2.67-2.67V1332.28l2.67-2.67h125.4l2.67,2.67V1359l-2.67,2.67h-88l-2.67,2.67v37.35l2.67,2.67h82.71l2.67,2.67v26.68l-2.67,2.67H244.07l-2.67,2.67v42.69l2.67,2.67h88l2.67,2.67v26.68Z"/><path class="cls-1" d="M337.21,1511.29H211.81l-2.67-2.67V1327.19l2.67-2.67h125.4l2.67,2.67v26.68l-2.67,2.67h-88l-2.67,2.67v37.35l2.67,2.67h82.71l2.67,2.67v26.68l-2.67,2.67H249.16l-2.67,2.67v42.69l2.67,2.67h88l2.67,2.67v26.68Z"/><path class="cls-1" d="M342.3,1506.2H216.9l-2.67-2.67V1322.1l2.67-2.67H342.3l2.67,2.67v26.68l-2.67,2.67h-88l-2.67,2.67v37.35l2.67,2.67H337l2.67,2.67v26.68l-2.67,2.67H254.25l-2.67,2.67v42.69l2.67,2.67h88l2.67,2.67v26.68Z"/><path class="cls-1" d="M347.39,1501.12H222l-2.67-2.67V1317l2.67-2.67h125.4l2.67,2.67v26.68l-2.67,2.67h-88l-2.67,2.67v37.35l2.67,2.67h82.71l2.67,2.67v26.68l-2.67,2.67H259.34l-2.67,2.67v42.69l2.67,2.67h88l2.67,2.67v26.68Z"/><path class="cls-1" d="M352.48,1496H227.08l-2.67-2.67V1311.92l2.67-2.67h125.4l2.67,2.67v26.68l-2.67,2.67h-88l-2.67,2.67v37.35l2.67,2.67h82.71l2.67,2.67v26.68l-2.67,2.67H264.43l-2.67,2.67v42.69l2.67,2.67h88l2.67,2.67v26.68Z"/><path class="cls-1" d="M357.57,1490.94H232.16l-2.67-2.67V1306.83l2.67-2.67h125.4l2.67,2.67v26.68l-2.67,2.67h-88l-2.67,2.67v37.35l2.67,2.67h82.71l2.67,2.67v26.68l-2.67,2.67H269.52l-2.67,2.67v42.69l2.67,2.67h88l2.67,2.67v26.68Z"/><path class="cls-1" d="M362.66,1485.85H237.25l-2.67-2.67V1301.75l2.67-2.67h125.4l2.67,2.67v26.68l-2.67,2.67h-88l-2.67,2.67v37.35l2.67,2.67h82.71l2.67,2.67v26.68l-2.67,2.67H274.61l-2.67,2.67v42.69l2.67,2.67h88l2.67,2.67v26.68Z"/><path class="cls-1" d="M367.75,1480.76H242.34l-2.67-2.67V1296.66l2.67-2.67h125.4l2.67,2.67v26.68l-2.67,2.67h-88l-2.67,2.67V1366l2.67,2.67h82.71l2.67,2.67V1398l-2.67,2.67H279.7l-2.67,2.67v42.69l2.67,2.67h88l2.67,2.67v26.68Z"/><path class="cls-1" d="M372.83,1475.67H247.43l-2.67-2.67V1291.57l2.67-2.67h125.4l2.67,2.67v26.68l-2.67,2.67h-88l-2.67,2.67v37.35l2.67,2.67H367.5l2.67,2.67V1393l-2.67,2.67H284.79l-2.67,2.67V1441l2.67,2.67h88l2.67,2.67V1473Z"/><path class="cls-1" d="M377.92,1470.58H252.52l-2.67-2.67V1286.48l2.67-2.67h125.4l2.67,2.67v26.68l-2.67,2.67h-88l-2.67,2.67v37.35l2.67,2.67h82.71l2.67,2.67v26.68l-2.67,2.67H289.87l-2.67,2.67v42.69l2.67,2.67h88l2.67,2.67v26.68Z"/><path class="cls-1" d="M383,1465.49H257.61l-2.67-2.67V1281.39l2.67-2.67H383l2.67,2.67v26.68l-2.67,2.67H295l-2.67,2.67v37.35l2.67,2.67h82.71l2.67,2.67v26.68l-2.67,2.67H295l-2.67,2.67v42.69l2.67,2.67h88l2.67,2.67v26.68Z"/><path class="cls-1" d="M388.1,1460.4H262.7l-2.67-2.67V1276.3l2.67-2.67H388.1l2.67,2.67V1303l-2.67,2.67h-88l-2.67,2.67v37.35l2.67,2.67h82.71l2.67,2.67v26.68l-2.67,2.67H300.05l-2.67,2.67v42.69l2.67,2.67h88l2.67,2.67v26.68Z"/><path class="cls-1" d="M393.19,1455.31H267.79l-2.67-2.67V1271.21l2.67-2.67h125.4l2.67,2.67v26.68l-2.67,2.67h-88l-2.67,2.67v37.35l2.67,2.67h82.71l2.67,2.67v26.68l-2.67,2.67H305.14l-2.67,2.67v42.69l2.67,2.67h88l2.67,2.67v26.68Z"/><path class="cls-1" d="M398.28,1450.23H272.88l-2.67-2.67V1266.12l2.67-2.67h125.4l2.67,2.67v26.68l-2.67,2.67h-88l-2.67,2.67v37.35l2.67,2.67h82.71l2.67,2.67v26.68l-2.67,2.67H310.23l-2.67,2.67v42.69l2.67,2.67h88l2.67,2.67v26.68Z"/><path class="cls-1" d="M403.37,1445.14H278l-2.67-2.67V1261l2.67-2.67h125.4L406,1261v26.68l-2.67,2.67h-88l-2.67,2.67v37.35l2.67,2.67H398l2.67,2.67v26.68l-2.67,2.67H315.32l-2.67,2.67v42.69l2.67,2.67h88l2.67,2.67v26.68Z"/><path class="cls-1" d="M408.46,1440H283.05l-2.67-2.67V1255.95l2.67-2.67h125.4l2.67,2.67v26.68l-2.67,2.67h-88l-2.67,2.67v37.35l2.67,2.67h82.71l2.67,2.67v26.68l-2.67,2.67H320.41l-2.67,2.67v42.69l2.67,2.67h88l2.67,2.67v26.68Z"/><path class="cls-1" d="M413.55,1435H288.14l-2.67-2.67V1250.86l2.67-2.67h125.4l2.67,2.67v26.68l-2.67,2.67h-88l-2.67,2.67v37.35l2.67,2.67h82.71l2.67,2.67v26.68l-2.67,2.67H325.5l-2.67,2.67v42.69l2.67,2.67h88l2.67,2.67v26.68Z"/><path class="cls-1" d="M418.63,1429.87H293.23l-2.67-2.67V1245.77l2.67-2.67h125.4l2.67,2.67v26.68l-2.67,2.67h-88l-2.67,2.67v37.35l2.67,2.67H413.3l2.67,2.67v26.68l-2.67,2.67H330.59l-2.67,2.67v42.69l2.67,2.67h88l2.67,2.67v26.68Z"/><path class="cls-1" d="M423.72,1424.78H298.32l-2.67-2.67V1240.68l2.67-2.67h125.4l2.67,2.67v26.68l-2.67,2.67h-88L333,1272.7v37.35l2.67,2.67h82.71l2.67,2.67v26.68l-2.67,2.67H335.67l-2.67,2.67v42.69l2.67,2.67h88l2.67,2.67v26.68Z"/><path class="cls-1" d="M428.81,1419.69H303.41l-2.67-2.67V1235.59l2.67-2.67h125.4l2.67,2.67v26.68l-2.67,2.67h-88l-2.67,2.67V1305l2.67,2.67h82.71l2.67,2.67V1337l-2.67,2.67H340.76l-2.67,2.67V1385l2.67,2.67h88l2.67,2.67V1417Z"/><path class="cls-1" d="M433.9,1414.6H308.5l-2.67-2.67V1230.5l2.67-2.67H433.9l2.67,2.67v26.68l-2.67,2.67h-88l-2.67,2.67v37.35l2.67,2.67h82.71l2.67,2.67v26.68l-2.67,2.67H345.85l-2.67,2.67v42.69l2.67,2.67h88l2.67,2.67v26.68Z"/><path class="cls-1" d="M439,1409.51H313.59l-2.67-2.67V1225.41l2.67-2.67H439l2.67,2.67v26.68l-2.67,2.67h-88l-2.67,2.67v37.35l2.67,2.67h82.71l2.67,2.67v26.68l-2.67,2.67H350.94l-2.67,2.67v42.69l2.67,2.67h88l2.67,2.67v26.68Z"/><path class="cls-1" d="M444.08,1404.43H318.68l-2.67-2.67V1220.32l2.67-2.67h125.4l2.67,2.67V1247l-2.67,2.67H356l-2.67,2.67v37.35l2.67,2.67h82.71l2.67,2.67v26.68l-2.67,2.67H356l-2.67,2.67v42.69l2.67,2.67h88l2.67,2.67v26.68Z"/><path class="cls-1" d="M449.17,1399.34H323.77l-2.67-2.67V1215.23l2.67-2.67h125.4l2.67,2.67v26.68l-2.67,2.67h-88l-2.67,2.67v37.35l2.67,2.67h82.71l2.67,2.67v26.68l-2.67,2.67H361.12l-2.67,2.67v42.69l2.67,2.67h88l2.67,2.67v26.68Z"/><path class="cls-1" d="M454.26,1394.25H328.86l-2.67-2.67V1210.14l2.67-2.67h125.4l2.67,2.67v26.68l-2.67,2.67h-88l-2.67,2.67v37.35l2.67,2.67h82.71l2.67,2.67v26.68l-2.67,2.67H366.21l-2.67,2.67v42.69l2.67,2.67h88l2.67,2.67v26.68Z"/><path class="cls-1" d="M459.35,1389.16H333.94l-2.67-2.67V1205.06l2.67-2.67h125.4l2.67,2.67v26.68l-2.67,2.67h-88l-2.67,2.67v37.35l2.67,2.67H454l2.67,2.67v26.68l-2.67,2.67H371.3l-2.67,2.67v42.69l2.67,2.67h88l2.67,2.67v26.68Z"/><path class="cls-1" d="M464.44,1384.07H339l-2.67-2.67V1200l2.67-2.67h125.4l2.67,2.67v26.68l-2.67,2.67h-88l-2.67,2.67v37.35l2.67,2.67H459.1l2.67,2.67v26.68L459.1,1304H376.39l-2.67,2.67v42.69l2.67,2.67h88l2.67,2.67v26.68Z"/><path class="cls-1" d="M469.52,1379H344.12l-2.67-2.67V1194.88l2.67-2.67h125.4l2.67,2.67v26.68l-2.67,2.67h-88l-2.67,2.67v37.35l2.67,2.67h82.71l2.67,2.67v26.68l-2.67,2.67H381.48l-2.67,2.67v42.69l2.67,2.67h88l2.67,2.67v26.68Z"/><path class="cls-1" d="M474.61,1373.89H349.21l-2.67-2.67V1189.79l2.67-2.67h125.4l2.67,2.67v26.68l-2.67,2.67h-88l-2.67,2.67v37.35l2.67,2.67h82.71l2.67,2.67v26.68l-2.67,2.67H386.56l-2.67,2.67v42.69l2.67,2.67h88l2.67,2.67v26.68Z"/><path class="cls-1" d="M479.7,1368.8H354.3l-2.67-2.67V1184.7l2.67-2.67H479.7l2.67,2.67v26.68L479.7,1214h-88l-2.67,2.67v37.35l2.67,2.67h82.71l2.67,2.67v26.68l-2.67,2.67H391.65l-2.67,2.67v42.69l2.67,2.67h88l2.67,2.67v26.68Z"/><path class="cls-1" d="M484.79,1363.71H359.39l-2.67-2.67V1179.61l2.67-2.67h125.4l2.67,2.67v26.68l-2.67,2.67h-88l-2.67,2.67V1249l2.67,2.67h82.71l2.67,2.67V1281l-2.67,2.67H396.74l-2.67,2.67V1329l2.67,2.67h88l2.67,2.67V1361Z"/><path class="cls-1" d="M489.88,1358.62H364.48l-2.67-2.67V1174.52l2.67-2.67h125.4l2.67,2.67v26.68l-2.67,2.67h-88l-2.67,2.67v37.35l2.67,2.67h82.71l2.67,2.67v26.68l-2.67,2.67H401.83l-2.67,2.67v42.69l2.67,2.67h88l2.67,2.67V1356Z"/><path class="cls-1" d="M495,1353.54H369.57l-2.67-2.67V1169.43l2.67-2.67H495l2.67,2.67v26.68l-2.67,2.67h-88l-2.67,2.67v37.35l2.67,2.67h82.71l2.67,2.67v26.68l-2.67,2.67H406.92l-2.67,2.67v42.69l2.67,2.67h88l2.67,2.67v26.68Z"/><path class="cls-1" d="M500.06,1348.45H374.66l-2.67-2.67V1164.34l2.67-2.67h125.4l2.67,2.67V1191l-2.67,2.67H412l-2.67,2.67v37.35l2.67,2.67h82.71l2.67,2.67v26.68l-2.67,2.67H412l-2.67,2.67v42.69l2.67,2.67h88l2.67,2.67v26.68Z"/><path class="cls-1" d="M505.15,1343.36H379.74l-2.67-2.67V1159.26l2.67-2.67h125.4l2.67,2.67v26.68l-2.67,2.67h-88l-2.67,2.67v37.35l2.67,2.67h82.71l2.67,2.67v26.68l-2.67,2.67H417.1l-2.67,2.67v42.69l2.67,2.67h88l2.67,2.67v26.68Z"/><path class="cls-1" d="M510.24,1338.27H384.83l-2.67-2.67V1154.17l2.67-2.67h125.4l2.67,2.67v26.68l-2.67,2.67h-88l-2.67,2.67v37.35l2.67,2.67H504.9l2.67,2.67v26.68l-2.67,2.67H422.19l-2.67,2.67v42.69l2.67,2.67h88l2.67,2.67v26.68Z"/><path class="cls-1" d="M515.33,1333.18H389.92l-2.67-2.67V1149.08l2.67-2.67h125.4l2.67,2.67v26.68l-2.67,2.67h-88l-2.67,2.67v37.35l2.67,2.67H510l2.67,2.67v26.68l-2.67,2.67H427.28l-2.67,2.67v42.69l2.67,2.67h88l2.67,2.67v26.68Z"/><path class="cls-1" d="M520.41,1328.09H395l-2.67-2.67V1144l2.67-2.67h125.4l2.67,2.67v26.68l-2.67,2.67h-88L429.7,1176v37.35l2.67,2.67h82.71l2.67,2.67v26.68l-2.67,2.67H432.37l-2.67,2.67v42.69l2.67,2.67h88l2.67,2.67v26.68Z"/><path class="cls-1" d="M525.5,1323H400.1l-2.67-2.67V1138.9l2.67-2.67H525.5l2.67,2.67v26.68l-2.67,2.67h-88l-2.67,2.67v37.35l2.67,2.67h82.71l2.67,2.67v26.68l-2.67,2.67H437.45l-2.67,2.67v42.69l2.67,2.67h88l2.67,2.67v26.68Z"/><path class="cls-1" d="M530.59,1317.91H405.19l-2.67-2.67V1133.81l2.67-2.67h125.4l2.67,2.67v26.68l-2.67,2.67h-88l-2.67,2.67v37.35l2.67,2.67h82.71l2.67,2.67v26.68l-2.67,2.67H442.54l-2.67,2.67v42.69l2.67,2.67h88l2.67,2.67v26.68Z"/><path class="cls-1" d="M535.68,1312.82H410.28l-2.67-2.67V1128.72l2.67-2.67h125.4l2.67,2.67v26.68l-2.67,2.67h-88l-2.67,2.67v37.35l2.67,2.67h82.71l2.67,2.67v26.68l-2.67,2.67H447.63l-2.67,2.67v42.69l2.67,2.67h88l2.67,2.67v26.68Z"/><path class="cls-1" d="M540.77,1307.74H415.37l-2.67-2.67V1123.63l2.67-2.67h125.4l2.67,2.67v26.68l-2.67,2.67h-88l-2.67,2.67V1193l2.67,2.67h82.71l2.67,2.67V1225l-2.67,2.67H452.72l-2.67,2.67V1273l2.67,2.67h88l2.67,2.67v26.68Z"/><path class="cls-1" d="M545.86,1302.65H420.46l-2.67-2.67V1118.54l2.67-2.67h125.4l2.67,2.67v26.68l-2.67,2.67h-88l-2.67,2.67v37.35l2.67,2.67h82.71l2.67,2.67v26.68l-2.67,2.67H457.81l-2.67,2.67V1268l2.67,2.67h88l2.67,2.67V1300Z"/><path class="cls-1" d="M550.95,1297.56H425.55l-2.67-2.67V1113.45l2.67-2.67h125.4l2.67,2.67v26.68l-2.67,2.67h-88l-2.67,2.67v37.35l2.67,2.67h82.71l2.67,2.67v26.68l-2.67,2.67H462.9l-2.67,2.67v42.69l2.67,2.67h88l2.67,2.67v26.68Z"/><path class="cls-1" d="M556,1292.47H430.63L428,1289.8V1108.37l2.67-2.67H556l2.67,2.67V1135l-2.67,2.67H468l-2.67,2.67v37.35l2.67,2.67H550.7l2.67,2.67v26.68l-2.67,2.67H468l-2.67,2.67v42.69l2.67,2.67h88l2.67,2.67v26.68Z"/><path class="cls-1" d="M561.13,1287.38H435.72l-2.67-2.67V1103.28l2.67-2.67h125.4l2.67,2.67V1130l-2.67,2.67h-88l-2.67,2.67v37.35l2.67,2.67h82.71l2.67,2.67v26.68l-2.67,2.67H473.08l-2.67,2.67v42.69l2.67,2.67h88l2.67,2.67v26.68Z"/><path class="cls-1" d="M566.21,1282.29H440.81l-2.67-2.67V1098.19l2.67-2.67h125.4l2.67,2.67v26.68l-2.67,2.67h-88l-2.67,2.67v37.35l2.67,2.67h82.71l2.67,2.67v26.68l-2.67,2.67H478.17l-2.67,2.67v42.69l2.67,2.67h88l2.67,2.67v26.68Z"/><path class="cls-1" d="M571.3,1277.2H445.9l-2.67-2.67V1093.1l2.67-2.67H571.3l2.67,2.67v26.68l-2.67,2.67h-88l-2.67,2.67v37.35l2.67,2.67H566l2.67,2.67v26.68l-2.67,2.67H483.25l-2.67,2.67v42.69l2.67,2.67h88l2.67,2.67v26.68Z"/><path class="cls-1" d="M576.39,1272.11H451l-2.67-2.67V1088l2.67-2.67h125.4l2.67,2.67v26.68l-2.67,2.67h-88l-2.67,2.67v37.35l2.67,2.67h82.71l2.67,2.67v26.68l-2.67,2.67H488.34l-2.67,2.67v42.69l2.67,2.67h88l2.67,2.67v26.68Z"/><path class="cls-1" d="M581.48,1267H456.08l-2.67-2.67V1082.92l2.67-2.67h125.4l2.67,2.67v26.68l-2.67,2.67h-88l-2.67,2.67v37.35l2.67,2.67h82.71l2.67,2.67v26.68l-2.67,2.67H493.43l-2.67,2.67v42.69l2.67,2.67h88l2.67,2.67v26.68Z"/><path class="cls-1" d="M586.57,1261.93H461.17l-2.67-2.67V1077.83l2.67-2.67h125.4l2.67,2.67v26.68l-2.67,2.67h-88l-2.67,2.67v37.35l2.67,2.67h82.71l2.67,2.67v26.68l-2.67,2.67H498.52l-2.67,2.67v42.69l2.67,2.67h88l2.67,2.67v26.68Z"/><path class="cls-1" d="M591.66,1256.85H466.26l-2.67-2.67V1072.74l2.67-2.67h125.4l2.67,2.67v26.68l-2.67,2.67h-88l-2.67,2.67v37.35l2.67,2.67h82.71l2.67,2.67v26.68l-2.67,2.67H503.61l-2.67,2.67v42.69l2.67,2.67h88l2.67,2.67v26.68Z"/><path class="cls-1" d="M596.75,1251.76H471.35l-2.67-2.67V1067.65l2.67-2.67h125.4l2.67,2.67v26.68l-2.67,2.67h-88l-2.67,2.67V1137l2.67,2.67h82.71l2.67,2.67V1169l-2.67,2.67H508.7l-2.67,2.67v42.69l2.67,2.67h88l2.67,2.67v26.68Z"/><path class="cls-1" d="M601.84,1246.67H476.43l-2.67-2.67V1062.57l2.67-2.67h125.4l2.67,2.67v26.68l-2.67,2.67h-88l-2.67,2.67v37.35l2.67,2.67H596.5l2.67,2.67V1164l-2.67,2.67H513.79l-2.67,2.67V1212l2.67,2.67h88l2.67,2.67V1244Z"/><path class="cls-1" d="M606.93,1241.58H481.52l-2.67-2.67V1057.48l2.67-2.67h125.4l2.67,2.67v26.68l-2.67,2.67h-88l-2.67,2.67v37.35l2.67,2.67h82.71l2.67,2.67v26.68l-2.67,2.67H518.88l-2.67,2.67v42.69l2.67,2.67h88l2.67,2.67v26.68Z"/><path class="cls-1" d="M612,1236.49H486.61l-2.67-2.67V1052.39l2.67-2.67H612l2.67,2.67v26.68l-2.67,2.67H524l-2.67,2.67v37.35l2.67,2.67h82.71l2.67,2.67v26.68l-2.67,2.67H524l-2.67,2.67v42.69l2.67,2.67h88l2.67,2.67v26.68Z"/><path class="cls-1" d="M617.1,1231.4H491.7l-2.67-2.67V1047.3l2.67-2.67H617.1l2.67,2.67V1074l-2.67,2.67h-88l-2.67,2.67v37.35l2.67,2.67h82.71l2.67,2.67v26.68l-2.67,2.67H529.06l-2.67,2.67v42.69l2.67,2.67h88l2.67,2.67v26.68Z"/><path class="cls-1" d="M622.19,1226.31H496.79l-2.67-2.67V1042.21l2.67-2.67h125.4l2.67,2.67v26.68l-2.67,2.67h-88l-2.67,2.67v37.35l2.67,2.67h82.71l2.67,2.67v26.68l-2.67,2.67H534.14l-2.67,2.67v42.69l2.67,2.67h88l2.67,2.67v26.68Z"/><path class="cls-1" d="M627.28,1221.22H501.88l-2.67-2.67V1037.12l2.67-2.67h125.4l2.67,2.67v26.68l-2.67,2.67h-88l-2.67,2.67v37.35l2.67,2.67h82.71l2.67,2.67v26.68l-2.67,2.67H539.23l-2.67,2.67v42.69l2.67,2.67h88l2.67,2.67v26.68Z"/><path class="cls-1" d="M632.37,1216.13H507l-2.67-2.67V1032l2.67-2.67h125.4L635,1032v26.68l-2.67,2.67h-88l-2.67,2.67v37.35l2.67,2.67H627l2.67,2.67v26.68l-2.67,2.67H544.32l-2.67,2.67v42.69l2.67,2.67h88l2.67,2.67v26.68Z"/><path class="cls-1" d="M637.46,1211H512.06l-2.67-2.67V1026.94l2.67-2.67h125.4l2.67,2.67v26.68l-2.67,2.67h-88l-2.67,2.67v37.35l2.67,2.67h82.71l2.67,2.67v26.68l-2.67,2.67H549.41l-2.67,2.67v42.69l2.67,2.67h88l2.67,2.67v26.68Z"/><path class="cls-1" d="M642.55,1206H517.15l-2.67-2.67V1021.85l2.67-2.67h125.4l2.67,2.67v26.68l-2.67,2.67h-88l-2.67,2.67v37.35l2.67,2.67h82.71l2.67,2.67v26.68l-2.67,2.67H554.5l-2.67,2.67v42.69l2.67,2.67h88l2.67,2.67v26.68Z"/><path class="cls-1" d="M647.64,1200.87H522.24l-2.67-2.67V1016.76l2.67-2.67h125.4l2.67,2.67v26.68l-2.67,2.67h-88l-2.67,2.67v37.35l2.67,2.67H642.3l2.67,2.67v26.68l-2.67,2.67H559.59l-2.67,2.67v42.69l2.67,2.67h88l2.67,2.67v26.68Z"/><path class="cls-1" d="M652.73,1195.78H527.32l-2.67-2.67V1011.68l2.67-2.67h125.4l2.67,2.67v26.68l-2.67,2.67h-88l-2.67,2.67V1081l2.67,2.67h82.71l2.67,2.67v26.68l-2.67,2.67H564.68L562,1118.4v42.69l2.67,2.67h88l2.67,2.67v26.68Z"/><path class="cls-1" d="M657.82,1190.69H532.41l-2.67-2.67V1006.59l2.67-2.67h125.4l2.67,2.67v26.68l-2.67,2.67h-88l-2.67,2.67V1076l2.67,2.67h82.71l2.67,2.67V1108l-2.67,2.67H569.77l-2.67,2.67V1156l2.67,2.67h88l2.67,2.67V1188Z"/><path class="cls-1" d="M662.9,1185.6H537.5l-2.67-2.67V1001.5l2.67-2.67H662.9l2.67,2.67v26.68l-2.67,2.67h-88l-2.67,2.67v37.35l2.67,2.67h82.71l2.67,2.67v26.68l-2.67,2.67H574.86l-2.67,2.67v42.69l2.67,2.67h88l2.67,2.67v26.68Z"/><path class="cls-1" d="M668,1180.51H542.59l-2.67-2.67V996.41l2.67-2.67H668l2.67,2.67v26.68l-2.67,2.67h-88l-2.67,2.67v37.35l2.67,2.67h82.71l2.67,2.67v26.68l-2.67,2.67H579.94l-2.67,2.67v42.69l2.67,2.67h88l2.67,2.67v26.68Z"/><path class="cls-1" d="M673.08,1175.42H547.68l-2.67-2.67V991.32l2.67-2.67h125.4l2.67,2.67V1018l-2.67,2.67H585l-2.67,2.67v37.35l2.67,2.67h82.71l2.67,2.67v26.68l-2.67,2.67H585l-2.67,2.67v42.69l2.67,2.67h88l2.67,2.67v26.68Z"/><path class="cls-1" d="M678.17,1170.33H552.77l-2.67-2.67V986.23l2.67-2.67h125.4l2.67,2.67v26.68l-2.67,2.67h-88l-2.67,2.67v37.35l2.67,2.67h82.71l2.67,2.67v26.68l-2.67,2.67H590.12l-2.67,2.67v42.69l2.67,2.67h88l2.67,2.67v26.68Z"/><path class="cls-1" d="M683.26,1165.24H557.86l-2.67-2.67V981.14l2.67-2.67h125.4l2.67,2.67v26.68l-2.67,2.67h-88l-2.67,2.67v37.35l2.67,2.67h82.71l2.67,2.67v26.68l-2.67,2.67H595.21l-2.67,2.67v42.69l2.67,2.67h88l2.67,2.67v26.68Z"/><path class="cls-1" d="M688.35,1160.16H562.95l-2.67-2.67V976.05l2.67-2.67h125.4l2.67,2.67v26.68l-2.67,2.67h-88l-2.67,2.67v37.35l2.67,2.67H683l2.67,2.67v26.68l-2.67,2.67H600.3l-2.67,2.67v42.69l2.67,2.67h88l2.67,2.67v26.68Z"/><path class="cls-1" d="M693.44,1155.07H568l-2.67-2.67V971L568,968.3h125.4l2.67,2.67v26.68l-2.67,2.67h-88l-2.67,2.67v37.35l2.67,2.67H688.1l2.67,2.67v26.68L688.1,1075H605.39l-2.67,2.67v42.69l2.67,2.67h88l2.67,2.67v26.68Z"/><path class="cls-1" d="M698.53,1150H573.13l-2.67-2.67V965.88l2.67-2.67h125.4l2.67,2.67v26.68l-2.67,2.67h-88l-2.67,2.67v37.35l2.67,2.67h82.71l2.67,2.67v26.68l-2.67,2.67H610.48l-2.67,2.67v42.69l2.67,2.67h88l2.67,2.67v26.68Z"/><path class="cls-1" d="M703.62,1144.89H578.21l-2.67-2.67V960.79l2.67-2.67h125.4l2.67,2.67v26.68l-2.67,2.67h-88l-2.67,2.67v37.35l2.67,2.67h82.71l2.67,2.67v26.68l-2.67,2.67H615.57l-2.67,2.67v42.69l2.67,2.67h88l2.67,2.67v26.68Z"/><path class="cls-1" d="M708.71,1139.8H583.3l-2.67-2.67V955.7L583.3,953h125.4l2.67,2.67v26.68L708.71,985h-88L618,987.71v37.35l2.67,2.67h82.71l2.67,2.67v26.68l-2.67,2.67H620.66l-2.67,2.67v42.69l2.67,2.67h88l2.67,2.67v26.68Z"/><path class="cls-1" d="M713.79,1134.71H588.39l-2.67-2.67V950.61l2.67-2.67h125.4l2.67,2.67v26.68L713.79,980h-88l-2.67,2.67V1020l2.67,2.67h82.71l2.67,2.67V1052l-2.67,2.67H625.75l-2.67,2.67V1100l2.67,2.67h88l2.67,2.67V1132Z"/><path class="cls-1" d="M718.88,1129.62H593.48l-2.67-2.67V945.52l2.67-2.67h125.4l2.67,2.67V972.2l-2.67,2.67h-88l-2.67,2.67v37.35l2.67,2.67h82.71l2.67,2.67v26.68l-2.67,2.67H630.83l-2.67,2.67v42.69l2.67,2.67h88l2.67,2.67V1127Z"/><path class="cls-1" d="M724,1124.53H598.57l-2.67-2.67V940.43l2.67-2.67H724l2.67,2.67v26.68L724,969.78h-88l-2.67,2.67v37.35l2.67,2.67h82.71l2.67,2.67v26.68l-2.67,2.67H635.92l-2.67,2.67v42.69l2.67,2.67h88l2.67,2.67v26.68Z"/><path class="cls-1" d="M729.06,1119.44H603.66l-2.67-2.67V935.34l2.67-2.67h125.4l2.67,2.67V962l-2.67,2.67H641l-2.67,2.67v37.35l2.67,2.67h82.71l2.67,2.67v26.68l-2.67,2.67H641l-2.67,2.67v42.69l2.67,2.67h88l2.67,2.67v26.68Z"/><path class="cls-1" d="M734.15,1114.35H608.75l-2.67-2.67V930.25l2.67-2.67h125.4l2.67,2.67v26.68l-2.67,2.67h-88l-2.67,2.67v37.35l2.67,2.67h82.71l2.67,2.67v26.68l-2.67,2.67H646.1l-2.67,2.67v42.69l2.67,2.67h88l2.67,2.67v26.68Z"/><path class="cls-1" d="M739.24,1109.27H613.84l-2.67-2.67V925.16l2.67-2.67h125.4l2.67,2.67v26.68l-2.67,2.67h-88l-2.67,2.67v37.35l2.67,2.67H733.9l2.67,2.67v26.68l-2.67,2.67H651.19l-2.67,2.67v42.69l2.67,2.67h88l2.67,2.67v26.68Z"/><path class="cls-1" d="M744.33,1104.18H618.93l-2.67-2.67V920.07l2.67-2.67h125.4l2.67,2.67v26.68l-2.67,2.67h-88l-2.67,2.67v37.35l2.67,2.67H739l2.67,2.67v26.68l-2.67,2.67H656.28l-2.67,2.67v42.69l2.67,2.67h88l2.67,2.67v26.68Z"/><path class="cls-1" d="M749.42,1099.09H624l-2.67-2.67V915l2.67-2.67h125.4l2.67,2.67v26.68l-2.67,2.67h-88L658.7,947v37.35l2.67,2.67h82.71l2.67,2.67v26.68l-2.67,2.67H661.37l-2.67,2.67v42.69l2.67,2.67h88l2.67,2.67v26.68Z"/><path class="cls-1" d="M754.51,1094H629.1l-2.67-2.67V909.9l2.67-2.67h125.4l2.67,2.67v26.68l-2.67,2.67h-88l-2.67,2.67v37.35l2.67,2.67h82.71l2.67,2.67v26.68l-2.67,2.67H666.46l-2.67,2.67v42.69l2.67,2.67h88l2.67,2.67v26.68Z"/><path class="cls-1" d="M759.6,1088.91H634.19l-2.67-2.67V904.81l2.67-2.67H759.6l2.67,2.67v26.68l-2.67,2.67h-88l-2.67,2.67v37.35l2.67,2.67h82.71l2.67,2.67v26.68l-2.67,2.67H671.55l-2.67,2.67v42.69l2.67,2.67h88l2.67,2.67v26.68Z"/><path class="cls-1" d="M764.68,1083.82H639.28l-2.67-2.67V899.72l2.67-2.67h125.4l2.67,2.67V926.4l-2.67,2.67h-88L674,931.74v37.35l2.67,2.67h82.71l2.67,2.67v26.68l-2.67,2.67H676.64l-2.67,2.67v42.69l2.67,2.67h88l2.67,2.67v26.68Z"/><path class="cls-1" d="M769.77,1078.73H644.37l-2.67-2.67V894.63l2.67-2.67h125.4l2.67,2.67v26.68L769.77,924h-88l-2.67,2.67V964l2.67,2.67h82.71l2.67,2.67V996l-2.67,2.67H681.72l-2.67,2.67V1044l2.67,2.67h88l2.67,2.67v26.68Z"/><path class="cls-1" d="M774.86,1073.64H649.46l-2.67-2.67V889.54l2.67-2.67h125.4l2.67,2.67v26.68l-2.67,2.67h-88l-2.67,2.67v37.35l2.67,2.67h82.71l2.67,2.67v26.68l-2.67,2.67H686.81l-2.67,2.67V1039l2.67,2.67h88l2.67,2.67V1071Z"/><path class="cls-1" d="M780,1068.55H654.55l-2.67-2.67V884.45l2.67-2.67H780l2.67,2.67v26.68L780,913.8h-88l-2.67,2.67v37.35l2.67,2.67h82.71l2.67,2.67v26.68l-2.67,2.67H691.9l-2.67,2.67v42.69l2.67,2.67h88l2.67,2.67v26.68Z"/><path class="cls-1" d="M785,1063.47H659.64L657,1060.8V879.36l2.67-2.67H785l2.67,2.67V906L785,908.71H697l-2.67,2.67v37.35L697,951.4H779.7l2.67,2.67v26.68l-2.67,2.67H697l-2.67,2.67v42.69l2.67,2.67h88l2.67,2.67v26.68Z"/><path class="cls-1" d="M790.13,1058.38H664.73l-2.67-2.67V874.27l2.67-2.67h125.4l2.67,2.67V901l-2.67,2.67h-88l-2.67,2.67v37.35l2.67,2.67h82.71l2.67,2.67v26.68l-2.67,2.67H702.08L699.41,981v42.69l2.67,2.67h88l2.67,2.67v26.68Z"/><path class="cls-1" d="M795.22,1053.29H669.82l-2.67-2.67V869.19l2.67-2.67h125.4l2.67,2.67v26.68l-2.67,2.67h-88l-2.67,2.67v37.35l2.67,2.67h82.71l2.67,2.67v26.68l-2.67,2.67H707.17l-2.67,2.67v42.69l2.67,2.67h88l2.67,2.67v26.68Z"/><path class="cls-1" d="M800.31,1048.2H674.9l-2.67-2.67V864.1l2.67-2.67h125.4L803,864.1v26.68l-2.67,2.67h-88l-2.67,2.67v37.35l2.67,2.67H795l2.67,2.67v26.68L795,968.15H712.26l-2.67,2.67v42.69l2.67,2.67h88l2.67,2.67v26.68Z"/><path class="cls-1" d="M805.4,1043.11H680l-2.67-2.67V859l2.67-2.67H805.4l2.67,2.67v26.68l-2.67,2.67h-88L714.68,891v37.35l2.67,2.67h82.71l2.67,2.67V960.4l-2.67,2.67H717.35l-2.67,2.67v42.69l2.67,2.67h88l2.67,2.67v26.68Z"/><path class="cls-1" d="M810.48,1038H685.08l-2.67-2.67V853.92l2.67-2.67h125.4l2.67,2.67V880.6l-2.67,2.67h-88l-2.67,2.67v37.35l2.67,2.67h82.71l2.67,2.67v26.68L805.15,958H722.44l-2.67,2.67v42.69l2.67,2.67h88l2.67,2.67v26.68Z"/><path class="cls-1" d="M815.57,1032.93H690.17l-2.67-2.67V848.83l2.67-2.67h125.4l2.67,2.67v26.68l-2.67,2.67h-88l-2.67,2.67V918.2l2.67,2.67h82.71l2.67,2.67v26.68l-2.67,2.67H727.52l-2.67,2.67v42.69l2.67,2.67h88l2.67,2.67v26.68Z"/><path class="cls-1" d="M820.66,1027.84H695.26l-2.67-2.67V843.74l2.67-2.67h125.4l2.67,2.67v26.68l-2.67,2.67h-88l-2.67,2.67v37.35l2.67,2.67h82.71l2.67,2.67v26.68l-2.67,2.67H732.61l-2.67,2.67v42.69l2.67,2.67h88l2.67,2.67v26.68Z"/><path class="cls-1" d="M825.75,1022.75H700.35l-2.67-2.67V838.65l2.67-2.67h125.4l2.67,2.67v26.68L825.75,868h-88L735,870.67V908l2.67,2.67h82.71l2.67,2.67V940l-2.67,2.67H737.7L735,945.38v42.69l2.67,2.67h88l2.67,2.67v26.68Z"/><path class="cls-1" d="M830.84,1017.66H705.44l-2.67-2.67V833.56l2.67-2.67h125.4l2.67,2.67v26.68l-2.67,2.67h-88l-2.67,2.67v37.35l2.67,2.67H825.5l2.67,2.67V935l-2.67,2.67H742.79l-2.67,2.67V983l2.67,2.67h88l2.67,2.67V1015Z"/><path class="cls-1" d="M835.93,1012.58H710.53l-2.67-2.67V828.47l2.67-2.67h125.4l2.67,2.67v26.68l-2.67,2.67h-88l-2.67,2.67v37.35l2.67,2.67h82.71l2.67,2.67v26.68l-2.67,2.67H747.88l-2.67,2.67v42.69l2.67,2.67h88l2.67,2.67v26.68Z"/><path class="cls-1" d="M841,1007.49H715.62l-2.67-2.67V823.38l2.67-2.67H841l2.67,2.67v26.68L841,852.73H753l-2.67,2.67v37.35l2.67,2.67h82.71l2.67,2.67v26.68l-2.67,2.67H753l-2.67,2.67V972.8l2.67,2.67h88l2.67,2.67v26.68Z"/><path class="cls-1" d="M846.11,1002.4H720.7L718,999.73V818.3l2.67-2.67h125.4l2.67,2.67V845l-2.67,2.67h-88l-2.67,2.67v37.35l2.67,2.67h82.71l2.67,2.67v26.68l-2.67,2.67H758.06L755.39,925v42.69l2.67,2.67h88l2.67,2.67v26.68Z"/><path class="cls-1" d="M851.2,997.31H725.79l-2.67-2.67V813.21l2.67-2.67H851.2l2.67,2.67v26.68l-2.67,2.67h-88l-2.67,2.67v37.35l2.67,2.67h82.71l2.67,2.67V914.6l-2.67,2.67H763.15l-2.67,2.67v42.69l2.67,2.67h88l2.67,2.67v26.68Z"/><path class="cls-1" d="M856.29,992.22H730.88l-2.67-2.67V808.12l2.67-2.67h125.4l2.67,2.67V834.8l-2.67,2.67h-88l-2.67,2.67v37.35l2.67,2.67h82.71l2.67,2.67v26.68l-2.67,2.67H768.24l-2.67,2.67v42.69l2.67,2.67h88l2.67,2.67v26.68Z"/><path class="cls-1" d="M861.37,987.13H736l-2.67-2.67V803l2.67-2.67h125.4L864,803v26.68l-2.67,2.67h-88L770.66,835V872.4l2.67,2.67H856l2.67,2.67v26.68L856,907.09H773.33l-2.67,2.67v42.69l2.67,2.67h88l2.67,2.67v26.68Z"/><path class="cls-1" d="M866.46,982H741.06l-2.67-2.67V797.94l2.67-2.67h125.4l2.67,2.67v26.68l-2.67,2.67h-88L775.75,830v37.35l2.67,2.67h82.71l2.67,2.67v26.68L861.13,902H778.41l-2.67,2.67v42.69l2.67,2.67h88l2.67,2.67v26.68Z"/><path class="cls-1" d="M871.55,977H746.15l-2.67-2.67V792.85l2.67-2.67h125.4l2.67,2.67v26.68l-2.67,2.67h-88l-2.67,2.67v37.35l2.67,2.67h82.71l2.67,2.67v26.68l-2.67,2.67H783.5l-2.67,2.67v42.69l2.67,2.67h88l2.67,2.67v26.68Z"/><path class="cls-1" d="M876.64,971.86H751.24l-2.67-2.67V787.76l2.67-2.67h125.4l2.67,2.67v26.68l-2.67,2.67h-88l-2.67,2.67v37.35l2.67,2.67h82.71l2.67,2.67v26.68l-2.67,2.67H788.59l-2.67,2.67v42.69l2.67,2.67h88l2.67,2.67V969.2Z"/><path class="cls-1" d="M881.73,966.78H756.33l-2.67-2.67V782.67l2.67-2.67h125.4l2.67,2.67v26.68L881.73,812h-88L791,814.69V852l2.67,2.67h82.71l2.67,2.67v26.68l-2.67,2.67H793.68L791,889.4v42.69l2.67,2.67h88l2.67,2.67v26.68Z"/><path class="cls-1" d="M886.82,961.69H761.42L758.75,959V777.58l2.67-2.67h125.4l2.67,2.67v26.68l-2.67,2.67h-88l-2.67,2.67V847l2.67,2.67h82.71l2.67,2.67V879l-2.67,2.67H798.77l-2.67,2.67V927l2.67,2.67h88l2.67,2.67V959Z"/><path class="cls-1" d="M891.91,956.6H766.51l-2.67-2.67V772.49l2.67-2.67h125.4l2.67,2.67v26.68l-2.67,2.67h-88l-2.67,2.67v37.35l2.67,2.67h82.71l2.67,2.67v26.68l-2.67,2.67H803.86l-2.67,2.67v42.69l2.67,2.67h88l2.67,2.67v26.68Z"/><path class="cls-1" d="M897,951.51H771.59l-2.67-2.67V767.41l2.67-2.67H897l2.67,2.67v26.68L897,796.76h-88l-2.67,2.67v37.35l2.67,2.67h82.71l2.67,2.67V868.8l-2.67,2.67H808.95l-2.67,2.67v42.69l2.67,2.67h88l2.67,2.67v26.68Z"/><path class="cls-1" d="M902.09,946.42H776.68L774,943.75V762.32l2.67-2.67h125.4l2.67,2.67V789l-2.67,2.67H814l-2.67,2.67v37.35l2.67,2.67h82.71l2.67,2.67v26.68l-2.67,2.67H814L811.37,869v42.69L814,914.4h88l2.67,2.67v26.68Z"/><path class="cls-1" d="M907.17,941.33H781.77l-2.67-2.67V757.23l2.67-2.67h125.4l2.67,2.67v26.68l-2.67,2.67h-88l-2.67,2.67V826.6l2.67,2.67h82.71l2.67,2.67v26.68l-2.67,2.67H819.13L816.46,864v42.69l2.67,2.67h88l2.67,2.67v26.68Z"/><path class="cls-1" d="M912.26,936.24H786.86l-2.67-2.67V752.14l2.67-2.67h125.4l2.67,2.67v26.68l-2.67,2.67h-88l-2.67,2.67v37.35l2.67,2.67h82.71l2.67,2.67v26.68l-2.67,2.67H824.21l-2.67,2.67v42.69l2.67,2.67h88l2.67,2.67v26.68Z"/><path class="cls-1" d="M917.35,931.15H792l-2.67-2.67V747.05l2.67-2.67h125.4l2.67,2.67v26.68l-2.67,2.67h-88l-2.67,2.67v37.35l2.67,2.67H912l2.67,2.67v26.68L912,851.11H829.3l-2.67,2.67v42.69l2.67,2.67h88L920,901.8v26.68Z"/><path class="cls-1" d="M922.44,926.06H797l-2.67-2.67V742l2.67-2.67h125.4l2.67,2.67v26.68l-2.67,2.67h-88L831.72,774v37.35l2.67,2.67h82.71l2.67,2.67v26.68L917.11,846H834.39l-2.67,2.67v42.69l2.67,2.67h88l2.67,2.67V923.4Z"/><path class="cls-1" d="M927.53,921H802.13l-2.67-2.67V736.87l2.67-2.67h125.4l2.67,2.67v26.68l-2.67,2.67h-88l-2.67,2.67v37.35l2.67,2.67h82.71l2.67,2.67v26.68l-2.67,2.67H839.48l-2.67,2.67v42.69l2.67,2.67h88l2.67,2.67v26.68Z"/><path class="cls-1" d="M932.62,915.89H807.22l-2.67-2.67V731.78l2.67-2.67h125.4l2.67,2.67v26.68l-2.67,2.67h-88l-2.67,2.67v37.35l2.67,2.67h82.71l2.67,2.67v26.68l-2.67,2.67H844.57l-2.67,2.67V881.2l2.67,2.67h88l2.67,2.67v26.68Z"/><path class="cls-1" d="M937.71,910.8H812.31l-2.67-2.67V726.69l2.67-2.67h125.4l2.67,2.67v26.68L937.71,756h-88L847,758.71v37.35l2.67,2.67h82.71L935,801.4v26.68l-2.67,2.67H849.66L847,833.42v42.69l2.67,2.67h88l2.67,2.67v26.68Z"/><path class="cls-1" d="M942.8,905.71H817.4L814.73,903V721.61l2.67-2.67H942.8l2.67,2.67v26.68L942.8,751h-88l-2.67,2.67V791l2.67,2.67h82.71l2.67,2.67V823l-2.67,2.67H854.75l-2.67,2.67V871l2.67,2.67h88l2.67,2.67V903Z"/><path class="cls-1" d="M947.89,900.62H822.48L819.82,898V716.52l2.67-2.67h125.4l2.67,2.67V743.2l-2.67,2.67h-88l-2.67,2.67v37.35l2.67,2.67h82.71l2.67,2.67v26.68l-2.67,2.67H859.84l-2.67,2.67v42.69l2.67,2.67h88l2.67,2.67V898Z"/><path class="cls-1" d="M953,895.53H827.57l-2.67-2.67V711.43l2.67-2.67H953l2.67,2.67v26.68L953,740.78h-88l-2.67,2.67V780.8l2.67,2.67h82.71l2.67,2.67v26.68l-2.67,2.67H864.93l-2.67,2.67v42.69l2.67,2.67h88l2.67,2.67v26.68Z"/><path class="cls-1" d="M958.06,890.44H832.66L830,887.77V706.34l2.67-2.67h125.4l2.67,2.67V733l-2.67,2.67H870l-2.67,2.67v37.35l2.67,2.67h82.71L955.4,781v26.68l-2.67,2.67H870l-2.67,2.67v42.69l2.67,2.67h88l2.67,2.67v26.68Z"/><path class="cls-1" d="M963.15,885.35H837.75l-2.67-2.67V701.25l2.67-2.67h125.4l2.67,2.67v26.68l-2.67,2.67h-88l-2.67,2.67v37.35l2.67,2.67h82.71l2.67,2.67v26.68l-2.67,2.67H875.1L872.44,808v42.69l2.67,2.67h88l2.67,2.67v26.68Z"/><path class="cls-1" d="M968.24,880.26H842.84l-2.67-2.67V696.16l2.67-2.67h125.4l2.67,2.67v26.68l-2.67,2.67h-88l-2.67,2.67v37.35l2.67,2.67h82.71l2.67,2.67v26.68l-2.67,2.67H880.19l-2.67,2.67v42.69l2.67,2.67h88l2.67,2.67V877.6Z"/><path class="cls-1" d="M973.33,875.17H847.93l-2.67-2.67V691.07l2.67-2.67h125.4l2.67,2.67v26.68l-2.67,2.67h-88l-2.67,2.67v37.35l2.67,2.67H968l2.67,2.67v26.68L968,795.13H885.28l-2.67,2.67v42.69l2.67,2.67h88l2.67,2.67v26.68Z"/><path class="cls-1" d="M978.42,870.09H853l-2.67-2.67V686l2.67-2.67h125.4l2.67,2.67v26.68l-2.67,2.67h-88L887.7,718v37.35l2.67,2.67h82.71l2.67,2.67v26.68L973.08,790H890.37l-2.67,2.67V835.4l2.67,2.67h88l2.67,2.67v26.68Z"/><path class="cls-1" d="M983.51,865H858.11l-2.67-2.67V680.89l2.67-2.67h125.4l2.67,2.67v26.68l-2.67,2.67h-88l-2.67,2.67v37.35l2.67,2.67h82.71l2.67,2.67v26.68L978.17,785H895.46l-2.67,2.67v42.69l2.67,2.67h88l2.67,2.67v26.68Z"/><path class="cls-1" d="M988.6,859.91H863.2l-2.67-2.67V675.8l2.67-2.67H988.6l2.67,2.67v26.68l-2.67,2.67h-88l-2.67,2.67v37.35l2.67,2.67h82.71l2.67,2.67v26.68l-2.67,2.67H900.55l-2.67,2.67v42.69l2.67,2.67h88l2.67,2.67v26.68Z"/><path class="cls-1" d="M993.69,854.82H868.28l-2.67-2.67V670.72l2.67-2.67h125.4l2.67,2.67V697.4l-2.67,2.67h-88L903,702.73v37.35l2.67,2.67h82.71l2.67,2.67v26.68l-2.67,2.67H905.64L903,777.44v42.69l2.67,2.67h88l2.67,2.67v26.68Z"/><path class="cls-1" d="M998.78,849.73H873.37l-2.67-2.67V665.63l2.67-2.67h125.4l2.67,2.67v26.68L998.78,695h-88l-2.67,2.67V735l2.67,2.67h82.71l2.67,2.67V767l-2.67,2.67H910.73l-2.67,2.67V815l2.67,2.67h88l2.67,2.67v26.68Z"/><path class="cls-1" d="M1003.86,844.64H878.46L875.79,842V660.54l2.67-2.67h125.4l2.67,2.67v26.68l-2.67,2.67h-88l-2.67,2.67v37.35l2.67,2.67h82.71l2.67,2.67v26.68l-2.67,2.67H915.82l-2.67,2.67V810l2.67,2.67h88l2.67,2.67V842Z"/><path class="cls-1" d="M1009,839.55H883.55l-2.67-2.67V655.45l2.67-2.67H1009l2.67,2.67v26.68L1009,684.8h-88l-2.67,2.67v37.35l2.67,2.67h82.71l2.67,2.67v26.68l-2.67,2.67H920.91l-2.67,2.67v42.69l2.67,2.67h88l2.67,2.67v26.68Z"/><path class="cls-1" d="M1014,834.46H888.64L886,831.79V650.36l2.67-2.67H1014l2.67,2.67V677l-2.67,2.67H926l-2.67,2.67v37.35L926,722.4h82.71l2.67,2.67v26.68l-2.67,2.67H926l-2.67,2.67v42.69l2.67,2.67h88l2.67,2.67v26.68Z"/><path class="cls-1" d="M1019.13,829.37H893.73l-2.67-2.67V645.27l2.67-2.67h125.4l2.67,2.67V672l-2.67,2.67h-88l-2.67,2.67v37.35l2.67,2.67h82.71l2.67,2.67v26.68l-2.67,2.67H931.08L928.42,752v42.69l2.67,2.67h88l2.67,2.67v26.68Z"/><path class="cls-1" d="M1024.22,824.28H898.82l-2.67-2.67V640.18l2.67-2.67h125.4l2.67,2.67v26.68l-2.67,2.67h-88l-2.67,2.67v37.35l2.67,2.67h82.71l2.67,2.67v26.68l-2.67,2.67H936.17l-2.67,2.67V789.6l2.67,2.67h88l2.67,2.67v26.68Z"/><path class="cls-1" d="M1029.31,819.2H903.91l-2.67-2.67V635.09l2.67-2.67h125.4l2.67,2.67v26.68l-2.67,2.67h-88l-2.67,2.67v37.35l2.67,2.67H1024l2.67,2.67v26.68l-2.67,2.67H941.26l-2.67,2.67v42.69l2.67,2.67h88l2.67,2.67v26.68Z"/><path class="cls-1" d="M1034.4,814.11H909l-2.67-2.67V630l2.67-2.67h125.4l2.67,2.67v26.68l-2.67,2.67h-88L943.68,662v37.35l2.67,2.67h82.71l2.67,2.67v26.68l-2.67,2.67H946.35l-2.67,2.67v42.69l2.67,2.67h88l2.67,2.67v26.68Z"/><path class="cls-1" d="M1039.49,809H914.09l-2.67-2.67V624.92l2.67-2.67h125.4l2.67,2.67V651.6l-2.67,2.67h-88l-2.67,2.67v37.35l2.67,2.67h82.71l2.67,2.67V726.3l-2.67,2.67H951.44l-2.67,2.67v42.69l2.67,2.67h88l2.67,2.67v26.68Z"/><path class="cls-1" d="M1044.58,803.93H919.17l-2.67-2.67V619.83l2.67-2.67h125.4l2.67,2.67v26.68l-2.67,2.67h-88l-2.67,2.67V689.2l2.67,2.67h82.71l2.67,2.67v26.68l-2.67,2.67H956.53l-2.67,2.67v42.69l2.67,2.67h88l2.67,2.67v26.68Z"/><path class="cls-1" d="M1049.67,798.84H924.26l-2.67-2.67V614.74l2.67-2.67h125.4l2.67,2.67v26.68l-2.67,2.67h-88l-2.67,2.67v37.35l2.67,2.67h82.71l2.67,2.67v26.68l-2.67,2.67H961.62l-2.67,2.67v42.69l2.67,2.67h88l2.67,2.67v26.68Z"/><path class="cls-1" d="M1054.75,793.75H929.35l-2.67-2.67V609.65l2.67-2.67h125.4l2.67,2.67v26.68l-2.67,2.67h-88L964,641.67V679l2.67,2.67h82.71l2.67,2.67V711l-2.67,2.67H966.71L964,716.37v42.69l2.67,2.67h88l2.67,2.67v26.68Z"/><path class="cls-1" d="M1059.84,788.66H934.44L931.77,786V604.56l2.67-2.67h125.4l2.67,2.67v26.68l-2.67,2.67h-88l-2.67,2.67v37.35l2.67,2.67h82.71l2.67,2.67v26.68l-2.67,2.67H971.79l-2.67,2.67V754l2.67,2.67h88l2.67,2.67V786Z"/><path class="cls-1" d="M1064.93,783.57H939.53l-2.67-2.67V599.47l2.67-2.67h125.4l2.67,2.67v26.68l-2.67,2.67h-88l-2.67,2.67v37.35l2.67,2.67h82.71l2.67,2.67v26.68l-2.67,2.67H976.88l-2.67,2.67v42.69l2.67,2.67h88l2.67,2.67v26.68Z"/><path class="cls-1" d="M1070,778.48H944.62L942,775.82V594.38l2.67-2.67H1070l2.67,2.67v26.68l-2.67,2.67H982l-2.67,2.67v37.35l2.67,2.67h82.71l2.67,2.67v26.68l-2.67,2.67H982l-2.67,2.67V743.8l2.67,2.67h88l2.67,2.67v26.68Z"/><path class="cls-1" d="M1075.11,773.4H949.71L947,770.73V589.29l2.67-2.67h125.4l2.67,2.67V616l-2.67,2.67h-88l-2.67,2.67v37.35l2.67,2.67h82.71l2.67,2.67v26.68l-2.67,2.67H987.06L984.39,696v42.69l2.67,2.67h88l2.67,2.67v26.68Z"/><path class="cls-1" d="M1080.2,768.31H954.8l-2.67-2.67V584.2l2.67-2.67h125.4l2.67,2.67v26.68l-2.67,2.67h-88l-2.67,2.67v37.35l2.67,2.67h82.71l2.67,2.67v26.68l-2.67,2.67H992.15l-2.67,2.67v42.69l2.67,2.67h88l2.67,2.67v26.68Z"/><path class="cls-1" d="M1085.29,763.22H959.89l-2.67-2.67V579.11l2.67-2.67h125.4l2.67,2.67V605.8l-2.67,2.67h-88l-2.67,2.67v37.35l2.67,2.67H1080l2.67,2.67V680.5l-2.67,2.67H997.24l-2.67,2.67v42.69l2.67,2.67h88l2.67,2.67v26.68Z"/><path class="cls-1" d="M1090.38,758.13H965l-2.67-2.67V574l2.67-2.67h125.4L1093,574v26.68l-2.67,2.67h-88L999.66,606V643.4l2.67,2.67H1085l2.67,2.67v26.68l-2.67,2.67h-82.71l-2.67,2.67v42.69l2.67,2.67h88l2.67,2.67v26.68Z"/><path class="cls-1" d="M1095.47,753H970.06l-2.67-2.67V568.94l2.67-2.67h125.4l2.67,2.67v26.68l-2.67,2.67h-88l-2.67,2.67v37.35l2.67,2.67h82.71l2.67,2.67v26.68l-2.67,2.67h-82.71l-2.67,2.67v42.69l2.67,2.67h88l2.67,2.67v26.68Z"/><path class="cls-1" d="M1100.56,748H975.15l-2.67-2.67V563.85l2.67-2.67h125.4l2.67,2.67v26.68l-2.67,2.67h-88l-2.67,2.67v37.35l2.67,2.67h82.71l2.67,2.67v26.68l-2.67,2.67h-82.71l-2.67,2.67v42.69l2.67,2.67h88l2.67,2.67v26.68Z"/><path class="cls-1" d="M1105.64,742.86H980.24l-2.67-2.67V558.76l2.67-2.67h125.4l2.67,2.67v26.68l-2.67,2.67h-88l-2.67,2.67v37.35l2.67,2.67h82.71l2.67,2.67v26.68l-2.67,2.67H1017.6l-2.67,2.67v42.69l2.67,2.67h88l2.67,2.67v26.68Z"/><path class="cls-1" d="M1110.73,737.77H985.33l-2.67-2.67V553.67l2.67-2.67h125.4l2.67,2.67v26.68l-2.67,2.67h-88l-2.67,2.67V623l2.67,2.67h82.71l2.67,2.67v26.68l-2.67,2.67h-82.71L1020,660.4v42.69l2.67,2.67h88l2.67,2.67V735.1Z"/><path class="cls-1" d="M1115.82,732.68H990.42L987.75,730V548.58l2.67-2.67h125.4l2.67,2.67v26.68l-2.67,2.67h-88l-2.67,2.67V618l2.67,2.67h82.71l2.67,2.67V650l-2.67,2.67h-82.71l-2.67,2.67V698l2.67,2.67h88l2.67,2.67V730Z"/><path class="cls-1" d="M1120.91,727.59H995.51l-2.67-2.67V543.49l2.67-2.67h125.4l2.67,2.67v26.68l-2.67,2.67h-88l-2.67,2.67v37.35l2.67,2.67h82.71l2.67,2.67v26.68l-2.67,2.67h-82.71l-2.67,2.67v42.69l2.67,2.67h88l2.67,2.67v26.68Z"/><path class="cls-1" d="M1126,722.51H1000.6l-2.67-2.67V538.4l2.67-2.67H1126l2.67,2.67v26.68l-2.67,2.67h-88l-2.67,2.67v37.35l2.67,2.67h82.71l2.67,2.67v26.68l-2.67,2.67H1038l-2.67,2.67v42.69l2.67,2.67h88l2.67,2.67v26.68Z"/><path class="cls-1" d="M1131.09,717.42h-125.4l-2.67-2.67V533.31l2.67-2.67h125.4l2.67,2.67V560l-2.67,2.67h-88l-2.67,2.67v37.35l2.67,2.67h82.71l2.67,2.67V634.7l-2.67,2.67H1043l-2.67,2.67v42.69l2.67,2.67h88l2.67,2.67v26.68Z"/><path class="cls-1" d="M1136.18,712.33h-125.4l-2.67-2.67V528.23l2.67-2.67h125.4l2.67,2.67v26.68l-2.67,2.67h-88l-2.67,2.67V597.6l2.67,2.67h82.71l2.67,2.67v26.68l-2.67,2.67h-82.71l-2.67,2.67v42.69l2.67,2.67h88l2.67,2.67v26.68Z"/><path class="cls-1" d="M1141.27,707.24h-125.4l-2.67-2.67V523.14l2.67-2.67h125.4l2.67,2.67v26.68l-2.67,2.67h-88l-2.67,2.67v37.35l2.67,2.67h82.71l2.67,2.67v26.68l-2.67,2.67h-82.71l-2.67,2.67v42.69l2.67,2.67h88l2.67,2.67v26.68Z"/><path class="cls-1" d="M1146.36,702.15H1021l-2.67-2.67V518l2.67-2.67h125.4L1149,518v26.68l-2.67,2.67h-88l-2.67,2.67v37.35l2.67,2.67H1141l2.67,2.67v26.68L1141,622.1h-82.71l-2.67,2.67v42.69l2.67,2.67h88l2.67,2.67v26.68Z"/><path class="cls-1" d="M1151.44,697.06H1026l-2.67-2.67V513l2.67-2.67h125.4l2.67,2.67v26.68l-2.67,2.67h-88l-2.67,2.67v37.35l2.67,2.67h82.71l2.67,2.67v26.68l-2.67,2.67H1063.4l-2.67,2.67v42.69l2.67,2.67h88l2.67,2.67v26.68Z"/><path class="cls-1" d="M1156.53,692h-125.4l-2.67-2.67V507.87l2.67-2.67h125.4l2.67,2.67v26.68l-2.67,2.67h-88l-2.67,2.67v37.35l2.67,2.67h82.71l2.67,2.67v26.68l-2.67,2.67h-82.71l-2.67,2.67v42.69l2.67,2.67h88l2.67,2.67V689.3Z"/><path class="cls-1" d="M1161.62,686.88h-125.4l-2.67-2.67V502.78l2.67-2.67h125.4l2.67,2.67v26.68l-2.67,2.67h-88l-2.67,2.67v37.35l2.67,2.67h82.71l2.67,2.67v26.68l-2.67,2.67h-82.71l-2.67,2.67V652.2l2.67,2.67h88l2.67,2.67v26.68Z"/><path class="cls-1" d="M1166.71,681.79h-125.4l-2.67-2.67V497.69l2.67-2.67h125.4l2.67,2.67v26.68l-2.67,2.67h-88l-2.67,2.67v37.35l2.67,2.67h82.71l2.67,2.67v26.68l-2.67,2.67h-82.71l-2.67,2.67v42.69l2.67,2.67h88l2.67,2.67v26.68Z"/><path class="cls-1" d="M1171.8,676.71H1046.4l-2.67-2.67V492.6l2.67-2.67h125.4l2.67,2.67v26.68L1171.8,522h-88l-2.67,2.67V562l2.67,2.67h82.71l2.67,2.67V594l-2.67,2.67h-82.71l-2.67,2.67V642l2.67,2.67h88l2.67,2.67V674Z"/><path class="cls-1" d="M1176.89,671.62h-125.4l-2.67-2.67V487.51l2.67-2.67h125.4l2.67,2.67V514.2l-2.67,2.67h-88l-2.67,2.67v37.35l2.67,2.67h82.71l2.67,2.67V588.9l-2.67,2.67h-82.71l-2.67,2.67v42.69l2.67,2.67h88l2.67,2.67v26.68Z"/><path class="cls-1" d="M1182,666.53h-125.4l-2.67-2.67V482.42l2.67-2.67H1182l2.67,2.67v26.68l-2.67,2.67h-88l-2.67,2.67V551.8l2.67,2.67h82.71l2.67,2.67v26.68l-2.67,2.67h-82.71l-2.67,2.67v42.69l2.67,2.67h88l2.67,2.67v26.68Z"/><path class="cls-1" d="M1187.07,661.44h-125.4l-2.67-2.67V477.34l2.67-2.67h125.4l2.67,2.67V504l-2.67,2.67h-88l-2.67,2.67v37.35l2.67,2.67h82.71l2.67,2.67v26.68l-2.67,2.67H1099l-2.67,2.67v42.69l2.67,2.67h88l2.67,2.67v26.68Z"/><path class="cls-1" d="M1192.16,656.35h-125.4l-2.67-2.67V472.25l2.67-2.67h125.4l2.67,2.67v26.68l-2.67,2.67h-88l-2.67,2.67v37.35l2.67,2.67h82.71l2.67,2.67v26.68l-2.67,2.67h-82.71l-2.67,2.67v42.69l2.67,2.67h88l2.67,2.67v26.68Z"/><path class="cls-1" d="M1197.25,651.26h-125.4l-2.67-2.67V467.16l2.67-2.67h125.4l2.67,2.67v26.68l-2.67,2.67h-88l-2.67,2.67v37.35l2.67,2.67h82.71l2.67,2.67v26.68l-2.67,2.67H1109.2l-2.67,2.67v42.69l2.67,2.67h88l2.67,2.67v26.68Z"/><path class="cls-1" d="M1202.33,646.17h-125.4l-2.67-2.67V462.07l2.67-2.67h125.4l2.67,2.67v26.68l-2.67,2.67h-88l-2.67,2.67v37.35l2.67,2.67H1197l2.67,2.67v26.68l-2.67,2.67h-82.71l-2.67,2.67v42.69l2.67,2.67h88l2.67,2.67V643.5Z"/><path class="cls-1" d="M1207.42,641.08H1082l-2.67-2.67V457l2.67-2.67h125.4l2.67,2.67v26.68l-2.67,2.67h-88l-2.67,2.67v37.35l2.67,2.67h82.71l2.67,2.67v26.68l-2.67,2.67h-82.71l-2.67,2.67V606.4l2.67,2.67h88l2.67,2.67v26.68Z"/><path class="cls-1" d="M1212.51,636h-125.4l-2.67-2.67V451.89l2.67-2.67h125.4l2.67,2.67v26.68l-2.67,2.67h-88l-2.67,2.67v37.35l2.67,2.67h82.71l2.67,2.67v26.68l-2.67,2.67h-82.71l-2.67,2.67v42.69l2.67,2.67h88l2.67,2.67v26.68Z"/><path class="cls-1" d="M1217.6,630.9H1092.2l-2.67-2.67V446.8l2.67-2.67h125.4l2.67,2.67v26.68l-2.67,2.67h-88l-2.67,2.67v37.35l2.67,2.67h82.71l2.67,2.67v26.68l-2.67,2.67h-82.71l-2.67,2.67v42.69l2.67,2.67h88l2.67,2.67v26.68Z"/><path class="cls-1" d="M1222.69,625.82h-125.4l-2.67-2.67V441.71l2.67-2.67h125.4l2.67,2.67v26.68l-2.67,2.67h-88l-2.67,2.67v37.35l2.67,2.67h82.71l2.67,2.67V543.1l-2.67,2.67h-82.71l-2.67,2.67v42.69l2.67,2.67h88l2.67,2.67v26.68Z"/><path class="cls-1" d="M1227.78,620.73h-125.4l-2.67-2.67V436.62l2.67-2.67h125.4l2.67,2.67v26.68l-2.67,2.67h-88l-2.67,2.67V506l2.67,2.67h82.71l2.67,2.67V538l-2.67,2.67h-82.71l-2.67,2.67V586l2.67,2.67h88l2.67,2.67v26.68Z"/><path class="cls-1" d="M1232.87,615.64h-125.4L1104.8,613V431.54l2.67-2.67h125.4l2.67,2.67v26.68l-2.67,2.67h-88l-2.67,2.67v37.35l2.67,2.67h82.71l2.67,2.67v26.68l-2.67,2.67h-82.71l-2.67,2.67V581l2.67,2.67h88l2.67,2.67V613Z"/><path class="cls-1" d="M1238,610.55h-125.4l-2.67-2.67V426.45l2.67-2.67H1238l2.67,2.67v26.68L1238,455.8h-88l-2.67,2.67v37.35l2.67,2.67h82.71l2.67,2.67v26.68l-2.67,2.67h-82.71l-2.67,2.67v42.69l2.67,2.67h88l2.67,2.67v26.68Z"/><path class="cls-1" d="M1243,605.46h-125.4l-2.67-2.67V421.36l2.67-2.67H1243l2.67,2.67V448l-2.67,2.67h-88l-2.67,2.67v37.35l2.67,2.67h82.71l2.67,2.67v26.68l-2.67,2.67H1155l-2.67,2.67v42.69l2.67,2.67h88l2.67,2.67v26.68Z"/><path class="cls-1" d="M1248.13,600.37h-125.4l-2.67-2.67V416.27l2.67-2.67h125.4l2.67,2.67v26.68l-2.67,2.67h-88l-2.67,2.67v37.35l2.67,2.67h82.71l2.67,2.67v26.68l-2.67,2.67h-82.71l-2.67,2.67v42.69l2.67,2.67h88l2.67,2.67V597.7Z"/><path class="cls-1" d="M1253.22,595.28h-125.4l-2.67-2.67V411.18l2.67-2.67h125.4l2.67,2.67v26.68l-2.67,2.67h-88l-2.67,2.67v37.35l2.67,2.67h82.71l2.67,2.67v26.68l-2.67,2.67h-82.71l-2.67,2.67V560.6l2.67,2.67h88l2.67,2.67v26.68Z"/><path class="cls-1" d="M1258.31,590.19h-125.4l-2.67-2.67V406.09l2.67-2.67h125.4l2.67,2.67v26.68l-2.67,2.67h-88l-2.67,2.67v37.35l2.67,2.67H1253l2.67,2.67v26.68l-2.67,2.67h-82.71l-2.67,2.67v42.69l2.67,2.67h88l2.67,2.67v26.68Z"/><path class="cls-1" d="M1263.4,585.1H1138l-2.67-2.67V401l2.67-2.67h125.4l2.67,2.67v26.68l-2.67,2.67h-88l-2.67,2.67v37.35l2.67,2.67h82.71l2.67,2.67v26.68l-2.67,2.67h-82.71l-2.67,2.67v42.69l2.67,2.67h88l2.67,2.67v26.68Z"/><path class="cls-1" d="M1268.49,580h-125.4l-2.67-2.67V395.91l2.67-2.67h125.4l2.67,2.67v26.68l-2.67,2.67h-88l-2.67,2.67v37.35l2.67,2.67h82.71l2.67,2.67V497.3l-2.67,2.67h-82.71l-2.67,2.67v42.69l2.67,2.67h88l2.67,2.67v26.68Z"/><path class="cls-1" d="M1273.58,574.93h-125.4l-2.67-2.67V390.82l2.67-2.67h125.4l2.67,2.67v26.68l-2.67,2.67h-88l-2.67,2.67V460.2l2.67,2.67h82.71l2.67,2.67v26.68l-2.67,2.67h-82.71l-2.67,2.67v42.69l2.67,2.67h88l2.67,2.67v26.68Z"/><path class="cls-1" d="M1278.67,569.84h-125.4l-2.67-2.67V385.73l2.67-2.67h125.4l2.67,2.67v26.68l-2.67,2.67h-88l-2.67,2.67v37.35l2.67,2.67h82.71l2.67,2.67v26.68l-2.67,2.67h-82.71l-2.67,2.67v42.69l2.67,2.67h88l2.67,2.67v26.68Z"/><path class="cls-1" d="M1283.76,564.75h-125.4l-2.67-2.67V380.65l2.67-2.67h125.4l2.67,2.67v26.68l-2.67,2.67h-88l-2.67,2.67V450l2.67,2.67h82.71l2.67,2.67V482l-2.67,2.67h-82.71l-2.67,2.67v42.69l2.67,2.67h88l2.67,2.67v26.68Z"/><path class="cls-1" d="M1288.85,559.66h-125.4l-2.67-2.67V375.56l2.67-2.67h125.4l2.67,2.67v26.68l-2.67,2.67h-88l-2.67,2.67v37.35l2.67,2.67h82.71l2.67,2.67v26.68l-2.67,2.67H1200.8l-2.67,2.67V525l2.67,2.67h88l2.67,2.67V557Z"/><path class="cls-1" d="M1293.94,554.57h-125.4l-2.67-2.67V370.47l2.67-2.67h125.4l2.67,2.67v26.68l-2.67,2.67h-88l-2.67,2.67v37.35l2.67,2.67h82.71l2.67,2.67v26.68l-2.67,2.67h-82.71l-2.67,2.67v42.69l2.67,2.67h88l2.67,2.67V551.9Z"/><path class="cls-1" d="M1299,549.48h-125.4l-2.67-2.67V365.38l2.67-2.67H1299l2.67,2.67v26.68l-2.67,2.67h-88l-2.67,2.67v37.35l2.67,2.67h82.71l2.67,2.67v26.68l-2.67,2.67H1211l-2.67,2.67V514.8l2.67,2.67h88l2.67,2.67v26.68Z"/><path class="cls-1" d="M1304.11,544.39h-125.4l-2.67-2.67V360.29l2.67-2.67h125.4l2.67,2.67V387l-2.67,2.67h-88l-2.67,2.67v37.35l2.67,2.67h82.71l2.67,2.67v26.68l-2.67,2.67h-82.71L1213.4,467v42.69l2.67,2.67h88l2.67,2.67v26.68Z"/><path class="cls-1" d="M1309.2,539.3H1183.8l-2.67-2.67V355.2l2.67-2.67h125.4l2.67,2.67v26.68l-2.67,2.67h-88l-2.67,2.67v37.35l2.67,2.67h82.71l2.67,2.67v26.68l-2.67,2.67h-82.71l-2.67,2.67v42.69l2.67,2.67h88l2.67,2.67v26.68Z"/><path class="cls-1" d="M1314.29,534.21h-125.4l-2.67-2.67V350.11l2.67-2.67h125.4l2.67,2.67v26.68l-2.67,2.67h-88l-2.67,2.67v37.35l2.67,2.67H1309l2.67,2.67V451.5l-2.67,2.67h-82.71l-2.67,2.67v42.69l2.67,2.67h88l2.67,2.67v26.68Z"/><path class="cls-1" d="M1319.38,529.13H1194l-2.67-2.67V345l2.67-2.67h125.4L1322,345V371.7l-2.67,2.67h-88l-2.67,2.67v37.35l2.67,2.67H1314l2.67,2.67v26.68l-2.67,2.67h-82.71l-2.67,2.67v42.69l2.67,2.67h88l2.67,2.67v26.68Z"/><path class="cls-1" d="M1324.47,524h-125.4l-2.67-2.67V339.93l2.67-2.67h125.4l2.67,2.67v26.68l-2.67,2.67h-88l-2.67,2.67v37.35l2.67,2.67h82.71l2.67,2.67v26.68l-2.67,2.67h-82.71l-2.67,2.67v42.69l2.67,2.67h88l2.67,2.67v26.68Z"/><path class="cls-1" d="M1329.56,518.95h-125.4l-2.67-2.67V334.84l2.67-2.67h125.4l2.67,2.67v26.68l-2.67,2.67h-88l-2.67,2.67v37.35l2.67,2.67h82.71l2.67,2.67v26.68l-2.67,2.67h-82.71l-2.67,2.67v42.69l2.67,2.67h88l2.67,2.67v26.68Z"/><path class="cls-1" d="M1334.65,513.86h-125.4l-2.67-2.67V329.76l2.67-2.67h125.4l2.67,2.67v26.68l-2.67,2.67h-88l-2.67,2.67v37.35l2.67,2.67h82.71l2.67,2.67v26.68l-2.67,2.67H1246.6l-2.67,2.67v42.69l2.67,2.67h88l2.67,2.67v26.68Z"/><path class="cls-1" d="M1339.74,508.77h-125.4l-2.67-2.67V324.67l2.67-2.67h125.4l2.67,2.67v26.68l-2.67,2.67h-88l-2.67,2.67V394l2.67,2.67h82.71l2.67,2.67v26.68l-2.67,2.67h-82.71l-2.67,2.67v42.69l2.67,2.67h88l2.67,2.67V506.1Z"/><path class="cls-1" d="M1344.83,503.68h-125.4l-2.67-2.67V319.58l2.67-2.67h125.4l2.67,2.67v26.68l-2.67,2.67h-88l-2.67,2.67V389l2.67,2.67h82.71l2.67,2.67V421l-2.67,2.67h-82.71l-2.67,2.67V469l2.67,2.67h88l2.67,2.67V501Z"/><path class="cls-1" d="M1349.91,498.59h-125.4l-2.67-2.67V314.49l2.67-2.67h125.4l2.67,2.67v26.68l-2.67,2.67h-88l-2.67,2.67v37.35l2.67,2.67h82.71l2.67,2.67v26.68l-2.67,2.67h-82.71l-2.67,2.67v42.69l2.67,2.67h88l2.67,2.67v26.68Z"/><path class="cls-1" d="M1355,493.5H1229.6l-2.67-2.67V309.4l2.67-2.67H1355l2.67,2.67v26.68l-2.67,2.67h-88l-2.67,2.67v37.35l2.67,2.67h82.71l2.67,2.67v26.68l-2.67,2.67H1267l-2.67,2.67v42.69l2.67,2.67h88l2.67,2.67v26.68Z"/><path class="cls-1" d="M1360.09,488.41h-125.4l-2.67-2.67V304.31l2.67-2.67h125.4l2.67,2.67V331l-2.67,2.67h-88l-2.67,2.67v37.35l2.67,2.67h82.71l2.67,2.67V405.7l-2.67,2.67H1272l-2.67,2.67v42.69l2.67,2.67h88l2.67,2.67v26.68Z"/><path class="cls-1" d="M1365.18,483.32h-125.4l-2.67-2.67V299.22l2.67-2.67h125.4l2.67,2.67V325.9l-2.67,2.67h-88l-2.67,2.67v37.35l2.67,2.67h82.71l2.67,2.67v26.68l-2.67,2.67h-82.71l-2.67,2.67v42.69l2.67,2.67h88l2.67,2.67v26.68Z"/><path class="cls-1" d="M1370.27,478.24h-125.4l-2.67-2.67V294.13l2.67-2.67h125.4l2.67,2.67v26.68l-2.67,2.67h-88l-2.67,2.67v37.35l2.67,2.67h82.71l2.67,2.67v26.68l-2.67,2.67h-82.71l-2.67,2.67v42.69l2.67,2.67h88l2.67,2.67v26.68Z"/><path class="cls-1" d="M1375.36,473.15H1250l-2.67-2.67V289l2.67-2.67h125.4L1378,289v26.68l-2.67,2.67h-88l-2.67,2.67v37.35l2.67,2.67H1370l2.67,2.67v26.68L1370,393.1h-82.71l-2.67,2.67v42.69l2.67,2.67h88l2.67,2.67v26.68Z"/><path class="cls-1" d="M1380.45,468.06H1255l-2.67-2.67V284l2.67-2.67h125.4l2.67,2.67v26.68l-2.67,2.67h-88l-2.67,2.67v37.35l2.67,2.67h82.71l2.67,2.67v26.68l-2.67,2.67H1292.4l-2.67,2.67v42.69l2.67,2.67h88l2.67,2.67v26.68Z"/><path class="cls-1" d="M1385.54,463h-125.4l-2.67-2.67V278.87l2.67-2.67h125.4l2.67,2.67v26.68l-2.67,2.67h-88l-2.67,2.67v37.35l2.67,2.67h82.71l2.67,2.67v26.68l-2.67,2.67h-82.71l-2.67,2.67v42.69l2.67,2.67h88l2.67,2.67V460.3Z"/><path class="cls-1" d="M1390.63,457.88h-125.4l-2.67-2.67V273.78l2.67-2.67h125.4l2.67,2.67v26.68l-2.67,2.67h-88l-2.67,2.67v37.35l2.67,2.67h82.71l2.67,2.67v26.68l-2.67,2.67h-82.71l-2.67,2.67v42.69l2.67,2.67h88l2.67,2.67v26.68Z"/><path class="cls-1" d="M1395.71,452.79h-125.4l-2.67-2.67V268.69l2.67-2.67h125.4l2.67,2.67v26.68l-2.67,2.67h-88l-2.67,2.67v37.35l2.67,2.67h82.71l2.67,2.67v26.68l-2.67,2.67h-82.71l-2.67,2.67v42.69l2.67,2.67h88l2.67,2.67v26.68Z"/><path class="cls-1" d="M1400.8,447.7H1275.4l-2.67-2.67V263.6l2.67-2.67h125.4l2.67,2.67v26.68l-2.67,2.67h-88l-2.67,2.67V333l2.67,2.67h82.71l2.67,2.67V365l-2.67,2.67h-82.71l-2.67,2.67V413l2.67,2.67h88l2.67,2.67V445Z"/></g></svg>