<svg xmlns="http://www.w3.org/2000/svg" viewBox="0 0 1896 5154.75"><defs><style>.cls-1{fill:#fff;stroke:#de761c;stroke-width:3px;}</style></defs><title>Artboard 1</title><g id="Layer_2" data-name="Layer 2"><g id="_Group_" data-name="&lt;Group&gt;"><path class="cls-1" d="M1994.72,4098.61h-32l-2.67-2.67v-74.71l-2.67-2.67h-72l-2.67,2.67v74.71l-2.67,2.67h-32l-2.67-2.67V3914.5l2.67-2.67h32l2.67,2.67v69.37l2.67,2.67h72l2.67-2.67V3914.5l2.67-2.67h32l2.67,2.67v181.43Z"/><path class="cls-1" d="M1989.63,4093.52h-32l-2.67-2.67v-74.71l-2.67-2.67h-72l-2.67,2.67v74.71l-2.67,2.67h-32l-2.67-2.67V3909.42l2.67-2.67h32l2.67,2.67v69.37l2.67,2.67h72l2.67-2.67v-69.37l2.67-2.67h32l2.67,2.67v181.43Z"/><path class="cls-1" d="M1984.55,4088.43h-32l-2.67-2.67v-74.71l-2.67-2.67h-72l-2.67,2.67v74.71l-2.67,2.67h-32l-2.67-2.67V3904.33l2.67-2.67h32l2.67,2.67v69.37l2.67,2.67h72l2.67-2.67v-69.37l2.67-2.67h32l2.67,2.67v181.43Z"/><path class="cls-1" d="M1979.46,4083.34h-32l-2.67-2.67V4006l-2.67-2.67h-72l-2.67,2.67v74.71l-2.67,2.67h-32l-2.67-2.67V3899.24l2.67-2.67h32l2.67,2.67v69.37l2.67,2.67h72l2.67-2.67v-69.37l2.67-2.67h32l2.67,2.67v181.43Z"/><path class="cls-1" d="M1974.37,4078.25h-32l-2.67-2.67v-74.71l-2.67-2.67h-72l-2.67,2.67v74.71l-2.67,2.67h-32l-2.67-2.67V3894.15l2.67-2.67h32l2.67,2.67v69.37l2.67,2.67h72l2.67-2.67v-69.37l2.67-2.67h32l2.67,2.67v181.43Z"/><path class="cls-1" d="M1969.28,4073.16h-32l-2.67-2.67v-74.71l-2.67-2.67h-72l-2.67,2.67v74.71l-2.67,2.67h-32l-2.67-2.67V3889.06l2.67-2.67h32l2.67,2.67v69.37l2.67,2.67h72l2.67-2.67v-69.37l2.67-2.67h32l2.67,2.67V4070.5Z"/><path class="cls-1" d="M1964.19,4068.08h-32l-2.67-2.67V3990.7l-2.67-2.67h-72l-2.67,2.67v74.71l-2.67,2.67h-32l-2.67-2.67V3884l2.67-2.67h32l2.67,2.67v69.37l2.67,2.67h72l2.67-2.67V3884l2.67-2.67h32l2.67,2.67v181.43Z"/><path class="cls-1" d="M1959.1,4063h-32l-2.67-2.67v-74.71l-2.67-2.67h-72l-2.67,2.67v74.71l-2.67,2.67h-32l-2.67-2.67V3878.89l2.67-2.67h32l2.67,2.67v69.37l2.67,2.67h72l2.67-2.67v-69.37l2.67-2.67h32l2.67,2.67v181.43Z"/><path class="cls-1" d="M1954,4057.9h-32l-2.67-2.67v-74.71l-2.67-2.67h-72l-2.67,2.67v74.71l-2.67,2.67h-32l-2.67-2.67V3873.8l2.67-2.67h32l2.67,2.67v69.37l2.67,2.67h72l2.67-2.67V3873.8l2.67-2.67h32l2.67,2.67v181.43Z"/><path class="cls-1" d="M1948.93,4052.81h-32l-2.67-2.67v-74.71l-2.67-2.67h-72l-2.67,2.67v74.71l-2.67,2.67h-32l-2.67-2.67V3868.71l2.67-2.67h32l2.67,2.67v69.37l2.67,2.67h72l2.67-2.67v-69.37l2.67-2.67h32l2.67,2.67v181.43Z"/><path class="cls-1" d="M1943.84,4047.72h-32l-2.67-2.67v-74.71l-2.67-2.67h-72l-2.67,2.67v74.71l-2.67,2.67h-32l-2.67-2.67V3863.62l2.67-2.67h32l2.67,2.67V3933l2.67,2.67h72l2.67-2.67v-69.37l2.67-2.67h32l2.67,2.67v181.43Z"/><path class="cls-1" d="M1938.75,4042.63h-32l-2.67-2.67v-74.71l-2.67-2.67h-72l-2.67,2.67V4040l-2.67,2.67h-32l-2.67-2.67V3858.53l2.67-2.67h32l2.67,2.67v69.37l2.67,2.67h72l2.67-2.67v-69.37l2.67-2.67h32l2.67,2.67V4040Z"/><path class="cls-1" d="M1933.66,4037.55h-32l-2.67-2.67v-74.71l-2.67-2.67h-72l-2.67,2.67v74.71l-2.67,2.67h-32l-2.67-2.67V3853.44l2.67-2.67h32l2.67,2.67v69.37l2.67,2.67h72l2.67-2.67v-69.37l2.67-2.67h32l2.67,2.67v181.43Z"/><path class="cls-1" d="M1928.58,4032.46h-32l-2.67-2.67v-74.71l-2.67-2.67h-72l-2.67,2.67v74.71l-2.67,2.67h-32l-2.67-2.67V3848.36l2.67-2.67h32l2.67,2.67v69.37l2.67,2.67h72l2.67-2.67v-69.37l2.67-2.67h32l2.67,2.67v181.43Z"/><path class="cls-1" d="M1923.49,4027.37h-32l-2.67-2.67V3950l-2.67-2.67h-72l-2.67,2.67v74.71l-2.67,2.67h-32l-2.67-2.67V3843.27l2.67-2.67h32l2.67,2.67v69.37l2.67,2.67h72l2.67-2.67v-69.37l2.67-2.67h32l2.67,2.67V4024.7Z"/><path class="cls-1" d="M1918.4,4022.28h-32l-2.67-2.67v-74.71l-2.67-2.67h-72l-2.67,2.67v74.71l-2.67,2.67h-32l-2.67-2.67V3838.18l2.67-2.67h32l2.67,2.67v69.37l2.67,2.67h72l2.67-2.67v-69.37l2.67-2.67h32l2.67,2.67v181.43Z"/><path class="cls-1" d="M1913.31,4017.19h-32l-2.67-2.67v-74.71l-2.67-2.67h-72l-2.67,2.67v74.71l-2.67,2.67h-32l-2.67-2.67V3833.09l2.67-2.67h32l2.67,2.67v69.37l2.67,2.67h72l2.67-2.67v-69.37l2.67-2.67h32l2.67,2.67v181.43Z"/><path class="cls-1" d="M1908.22,4012.1h-32l-2.67-2.67v-74.71l-2.67-2.67h-72l-2.67,2.67v74.71l-2.67,2.67h-32l-2.67-2.67V3828l2.67-2.67h32l2.67,2.67v69.37l2.67,2.67h72l2.67-2.67V3828l2.67-2.67h32l2.67,2.67v181.43Z"/><path class="cls-1" d="M1903.13,4007h-32l-2.67-2.67v-74.71l-2.67-2.67h-72l-2.67,2.67v74.71l-2.67,2.67h-32l-2.67-2.67V3822.91l2.67-2.67h32l2.67,2.67v69.37l2.67,2.67h72l2.67-2.67v-69.37l2.67-2.67h32l2.67,2.67v181.43Z"/><path class="cls-1" d="M1898,4001.93h-32l-2.67-2.67v-74.71l-2.67-2.67h-72l-2.67,2.67v74.71l-2.67,2.67h-32l-2.67-2.67V3817.83l2.67-2.67h32l2.67,2.67v69.37l2.67,2.67h72l2.67-2.67v-69.37l2.67-2.67h32l2.67,2.67v181.43Z"/><path class="cls-1" d="M1893,3996.84h-32l-2.67-2.67v-74.71l-2.67-2.67h-72l-2.67,2.67v74.71l-2.67,2.67h-32l-2.67-2.67V3812.74l2.67-2.67h32l2.67,2.67v69.37l2.67,2.67h72l2.67-2.67v-69.37l2.67-2.67h32l2.67,2.67v181.43Z"/><path class="cls-1" d="M1887.87,3991.75h-32l-2.67-2.67v-74.71l-2.67-2.67h-72l-2.67,2.67v74.71l-2.67,2.67h-32l-2.67-2.67V3807.65l2.67-2.67h32l2.67,2.67V3877l2.67,2.67h72l2.67-2.67v-69.37l2.67-2.67h32l2.67,2.67v181.43Z"/><path class="cls-1" d="M1882.78,3986.66h-32l-2.67-2.67v-74.71l-2.67-2.67h-72l-2.67,2.67V3984l-2.67,2.67h-32l-2.67-2.67V3802.56l2.67-2.67h32l2.67,2.67v69.37l2.67,2.67h72l2.67-2.67v-69.37l2.67-2.67h32l2.67,2.67V3984Z"/><path class="cls-1" d="M1877.69,3981.58h-32l-2.67-2.67V3904.2l-2.67-2.67h-72l-2.67,2.67v74.71l-2.67,2.67h-32l-2.67-2.67V3797.47l2.67-2.67h32l2.67,2.67v69.37l2.67,2.67h72l2.67-2.67v-69.37l2.67-2.67h32l2.67,2.67v181.43Z"/><path class="cls-1" d="M1872.6,3976.49h-32l-2.67-2.67v-74.71l-2.67-2.67h-72l-2.67,2.67v74.71l-2.67,2.67h-32l-2.67-2.67V3792.39l2.67-2.67h32l2.67,2.67v69.37l2.67,2.67h72l2.67-2.67v-69.37l2.67-2.67h32l2.67,2.67v181.43Z"/><path class="cls-1" d="M1867.52,3971.4h-32l-2.67-2.67V3894l-2.67-2.67h-72l-2.67,2.67v74.71l-2.67,2.67h-32l-2.67-2.67V3787.3l2.67-2.67h32l2.67,2.67v69.37l2.67,2.67h72l2.67-2.67V3787.3l2.67-2.67h32l2.67,2.67v181.43Z"/><path class="cls-1" d="M1862.43,3966.31h-32l-2.67-2.67v-74.71l-2.67-2.67h-72l-2.67,2.67v74.71l-2.67,2.67h-32l-2.67-2.67V3782.21l2.67-2.67h32l2.67,2.67v69.37l2.67,2.67h72l2.67-2.67v-69.37l2.67-2.67h32l2.67,2.67v181.43Z"/><path class="cls-1" d="M1857.34,3961.22h-32l-2.67-2.67v-74.71l-2.67-2.67h-72l-2.67,2.67v74.71l-2.67,2.67h-32l-2.67-2.67V3777.12l2.67-2.67h32l2.67,2.67v69.37l2.67,2.67h72l2.67-2.67v-69.37l2.67-2.67h32l2.67,2.67v181.43Z"/><path class="cls-1" d="M1852.25,3956.13h-32l-2.67-2.67v-74.71l-2.67-2.67h-72l-2.67,2.67v74.71l-2.67,2.67h-32l-2.67-2.67V3772l2.67-2.67h32l2.67,2.67v69.37l2.67,2.67h72l2.67-2.67V3772l2.67-2.67h32l2.67,2.67v181.43Z"/><path class="cls-1" d="M1847.16,3951h-32l-2.67-2.67v-74.71l-2.67-2.67h-72l-2.67,2.67v74.71l-2.67,2.67h-32l-2.67-2.67V3766.94l2.67-2.67h32l2.67,2.67v69.37l2.67,2.67h72l2.67-2.67v-69.37l2.67-2.67h32l2.67,2.67v181.43Z"/><path class="cls-1" d="M1842.07,3946h-32l-2.67-2.67v-74.71l-2.67-2.67h-72l-2.67,2.67v74.71l-2.67,2.67h-32l-2.67-2.67V3761.86l2.67-2.67h32l2.67,2.67v69.37l2.67,2.67h72l2.67-2.67v-69.37l2.67-2.67h32l2.67,2.67v181.43Z"/><path class="cls-1" d="M1837,3940.87h-32l-2.67-2.67v-74.71l-2.67-2.67h-72l-2.67,2.67v74.71l-2.67,2.67h-32l-2.67-2.67V3756.77l2.67-2.67h32l2.67,2.67v69.37l2.67,2.67h72l2.67-2.67v-69.37l2.67-2.67h32l2.67,2.67V3938.2Z"/><path class="cls-1" d="M1831.9,3935.78h-32l-2.67-2.67v-74.71l-2.67-2.67h-72l-2.67,2.67v74.71l-2.67,2.67h-32l-2.67-2.67V3751.68l2.67-2.67h32l2.67,2.67v69.37l2.67,2.67h72l2.67-2.67v-69.37l2.67-2.67h32l2.67,2.67v181.43Z"/><path class="cls-1" d="M1826.81,3930.69h-32l-2.67-2.67v-74.71l-2.67-2.67h-72l-2.67,2.67V3928l-2.67,2.67h-32l-2.67-2.67V3746.59l2.67-2.67h32l2.67,2.67V3816l2.67,2.67h72l2.67-2.67v-69.37l2.67-2.67h32l2.67,2.67V3928Z"/><path class="cls-1" d="M1821.72,3925.6h-32l-2.67-2.67v-74.71l-2.67-2.67h-72l-2.67,2.67v74.71l-2.67,2.67h-32l-2.67-2.67V3741.5l2.67-2.67h32l2.67,2.67v69.37l2.67,2.67h72l2.67-2.67V3741.5l2.67-2.67h32l2.67,2.67v181.43Z"/><path class="cls-1" d="M1816.63,3920.52h-32l-2.67-2.67v-74.71l-2.67-2.67h-72l-2.67,2.67v74.71l-2.67,2.67h-32l-2.67-2.67V3736.41l2.67-2.67h32l2.67,2.67v69.37l2.67,2.67h72l2.67-2.67v-69.37l2.67-2.67h32l2.67,2.67v181.43Z"/><path class="cls-1" d="M1811.54,3915.43h-32l-2.67-2.67v-74.71l-2.67-2.67h-72l-2.67,2.67v74.71l-2.67,2.67h-32l-2.67-2.67V3731.33l2.67-2.67h32l2.67,2.67v69.37l2.67,2.67h72l2.67-2.67v-69.37l2.67-2.67h32l2.67,2.67v181.43Z"/><path class="cls-1" d="M1806.46,3910.34h-32l-2.67-2.67V3833l-2.67-2.67h-72l-2.67,2.67v74.71l-2.67,2.67h-32l-2.67-2.67V3726.24l2.67-2.67h32l2.67,2.67v69.37l2.67,2.67h72l2.67-2.67v-69.37l2.67-2.67h32l2.67,2.67v181.43Z"/><path class="cls-1" d="M1801.37,3905.25h-32l-2.67-2.67v-74.71l-2.67-2.67h-72l-2.67,2.67v74.71l-2.67,2.67h-32l-2.67-2.67V3721.15l2.67-2.67h32l2.67,2.67v69.37l2.67,2.67h72l2.67-2.67v-69.37l2.67-2.67h32l2.67,2.67v181.43Z"/><path class="cls-1" d="M1796.28,3900.16h-32l-2.67-2.67v-74.71l-2.67-2.67h-72l-2.67,2.67v74.71l-2.67,2.67h-32l-2.67-2.67V3716.06l2.67-2.67h32l2.67,2.67v69.37l2.67,2.67h72l2.67-2.67v-69.37l2.67-2.67h32l2.67,2.67v181.43Z"/><path class="cls-1" d="M1791.19,3895.07h-32l-2.67-2.67V3817.7l-2.67-2.67h-72l-2.67,2.67v74.71l-2.67,2.67h-32l-2.67-2.67V3711l2.67-2.67h32l2.67,2.67v69.37l2.67,2.67h72l2.67-2.67V3711l2.67-2.67h32l2.67,2.67v181.43Z"/><path class="cls-1" d="M1786.1,3890h-32l-2.67-2.67v-74.71l-2.67-2.67h-72l-2.67,2.67v74.71l-2.67,2.67h-32l-2.67-2.67V3705.88l2.67-2.67h32l2.67,2.67v69.37l2.67,2.67h72l2.67-2.67v-69.37l2.67-2.67h32l2.67,2.67v181.43Z"/><path class="cls-1" d="M1781,3884.9h-32l-2.67-2.67v-74.71l-2.67-2.67h-72l-2.67,2.67v74.71l-2.67,2.67h-32l-2.67-2.67V3700.8l2.67-2.67h32l2.67,2.67v69.37l2.67,2.67h72l2.67-2.67V3700.8l2.67-2.67h32l2.67,2.67v181.43Z"/><path class="cls-1" d="M1775.93,3879.81h-32l-2.67-2.67v-74.71l-2.67-2.67h-72l-2.67,2.67v74.71l-2.67,2.67h-32l-2.67-2.67V3695.71l2.67-2.67h32l2.67,2.67v69.37l2.67,2.67h72l2.67-2.67v-69.37l2.67-2.67h32l2.67,2.67v181.43Z"/><path class="cls-1" d="M1770.84,3874.72h-32l-2.67-2.67v-74.71l-2.67-2.67h-72l-2.67,2.67v74.71l-2.67,2.67h-32l-2.67-2.67V3690.62l2.67-2.67h32l2.67,2.67V3760l2.67,2.67h72l2.67-2.67v-69.37l2.67-2.67h32l2.67,2.67v181.43Z"/><path class="cls-1" d="M1765.75,3869.63h-32l-2.67-2.67v-74.71l-2.67-2.67h-72l-2.67,2.67V3867l-2.67,2.67h-32l-2.67-2.67V3685.53l2.67-2.67h32l2.67,2.67v69.37l2.67,2.67h72l2.67-2.67v-69.37l2.67-2.67h32l2.67,2.67V3867Z"/><path class="cls-1" d="M1760.66,3864.54h-32l-2.67-2.67v-74.71l-2.67-2.67h-72l-2.67,2.67v74.71l-2.67,2.67h-32l-2.67-2.67V3680.44l2.67-2.67h32l2.67,2.67v69.37l2.67,2.67h72l2.67-2.67v-69.37l2.67-2.67h32l2.67,2.67v181.43Z"/><path class="cls-1" d="M1755.57,3859.46h-32l-2.67-2.67v-74.71l-2.67-2.67h-72l-2.67,2.67v74.71l-2.67,2.67h-32l-2.67-2.67V3675.35l2.67-2.67h32l2.67,2.67v69.37l2.67,2.67h72l2.67-2.67v-69.37l2.67-2.67h32l2.67,2.67v181.43Z"/><path class="cls-1" d="M1750.49,3854.37h-32l-2.67-2.67V3777l-2.67-2.67h-72l-2.67,2.67v74.71l-2.67,2.67h-32l-2.67-2.67V3670.27l2.67-2.67h32l2.67,2.67v69.37l2.67,2.67h72l2.67-2.67v-69.37l2.67-2.67h32l2.67,2.67V3851.7Z"/><path class="cls-1" d="M1745.4,3849.28h-32l-2.67-2.67V3771.9l-2.67-2.67h-72l-2.67,2.67v74.71l-2.67,2.67h-32l-2.67-2.67V3665.18l2.67-2.67h32l2.67,2.67v69.37l2.67,2.67h72l2.67-2.67v-69.37l2.67-2.67h32l2.67,2.67v181.43Z"/><path class="cls-1" d="M1740.31,3844.19h-32l-2.67-2.67v-74.71l-2.67-2.67h-72l-2.67,2.67v74.71l-2.67,2.67h-32l-2.67-2.67V3660.09l2.67-2.67h32l2.67,2.67v69.37l2.67,2.67h72l2.67-2.67v-69.37l2.67-2.67h32l2.67,2.67v181.43Z"/><path class="cls-1" d="M1735.22,3839.1h-32l-2.67-2.67v-74.71l-2.67-2.67h-72l-2.67,2.67v74.71l-2.67,2.67h-32l-2.67-2.67V3655l2.67-2.67h32l2.67,2.67v69.37l2.67,2.67h72l2.67-2.67V3655l2.67-2.67h32l2.67,2.67v181.43Z"/><path class="cls-1" d="M1730.13,3834h-32l-2.67-2.67v-74.71l-2.67-2.67h-72l-2.67,2.67v74.71l-2.67,2.67h-32l-2.67-2.67V3649.91l2.67-2.67h32l2.67,2.67v69.37l2.67,2.67h72l2.67-2.67v-69.37l2.67-2.67h32l2.67,2.67v181.43Z"/><path class="cls-1" d="M1725,3828.93h-32l-2.67-2.67v-74.71l-2.67-2.67h-72l-2.67,2.67v74.71l-2.67,2.67h-32l-2.67-2.67V3644.83l2.67-2.67h32l2.67,2.67v69.37l2.67,2.67h72l2.67-2.67v-69.37l2.67-2.67h32l2.67,2.67v181.43Z"/><path class="cls-1" d="M1720,3823.84h-32l-2.67-2.67v-74.71l-2.67-2.67h-72l-2.67,2.67v74.71l-2.67,2.67h-32l-2.67-2.67V3639.74l2.67-2.67h32l2.67,2.67v69.37l2.67,2.67h72l2.67-2.67v-69.37l2.67-2.67h32l2.67,2.67v181.43Z"/><path class="cls-1" d="M1714.87,3818.75h-32l-2.67-2.67v-74.71l-2.67-2.67h-72l-2.67,2.67v74.71l-2.67,2.67h-32l-2.67-2.67V3634.65l2.67-2.67h32l2.67,2.67V3704l2.67,2.67h72l2.67-2.67v-69.37l2.67-2.67h32l2.67,2.67v181.43Z"/><path class="cls-1" d="M1709.78,3813.66h-32l-2.67-2.67v-74.71l-2.67-2.67h-72l-2.67,2.67V3811l-2.67,2.67h-32l-2.67-2.67V3629.56l2.67-2.67h32l2.67,2.67v69.37l2.67,2.67h72l2.67-2.67v-69.37l2.67-2.67h32l2.67,2.67V3811Z"/><path class="cls-1" d="M1704.69,3808.57h-32l-2.67-2.67V3731.2l-2.67-2.67h-72l-2.67,2.67v74.71l-2.67,2.67h-32l-2.67-2.67V3624.47l2.67-2.67h32l2.67,2.67v69.37l2.67,2.67h72l2.67-2.67v-69.37l2.67-2.67h32l2.67,2.67v181.43Z"/><path class="cls-1" d="M1699.6,3803.49h-32l-2.67-2.67v-74.71l-2.67-2.67h-72l-2.67,2.67v74.71l-2.67,2.67h-32l-2.67-2.67V3619.38l2.67-2.67h32l2.67,2.67v69.37l2.67,2.67h72l2.67-2.67v-69.37l2.67-2.67h32l2.67,2.67v181.43Z"/><path class="cls-1" d="M1694.51,3798.4h-32l-2.67-2.67V3721l-2.67-2.67h-72l-2.67,2.67v74.71l-2.67,2.67h-32l-2.67-2.67V3614.3l2.67-2.67h32l2.67,2.67v69.37l2.67,2.67h72l2.67-2.67V3614.3l2.67-2.67h32l2.67,2.67v181.43Z"/><path class="cls-1" d="M1689.43,3793.31h-32l-2.67-2.67v-74.71l-2.67-2.67h-72l-2.67,2.67v74.71l-2.67,2.67h-32l-2.67-2.67V3609.21l2.67-2.67h32l2.67,2.67v69.37l2.67,2.67h72l2.67-2.67v-69.37l2.67-2.67h32l2.67,2.67v181.43Z"/><path class="cls-1" d="M1684.34,3788.22h-32l-2.67-2.67v-74.71l-2.67-2.67h-72l-2.67,2.67v74.71l-2.67,2.67h-32l-2.67-2.67V3604.12l2.67-2.67h32l2.67,2.67v69.37l2.67,2.67h72l2.67-2.67v-69.37l2.67-2.67h32l2.67,2.67v181.43Z"/><path class="cls-1" d="M1679.25,3783.13h-32l-2.67-2.67v-74.71l-2.67-2.67h-72l-2.67,2.67v74.71l-2.67,2.67h-32l-2.67-2.67V3599l2.67-2.67h32l2.67,2.67v69.37l2.67,2.67h72l2.67-2.67V3599l2.67-2.67h32l2.67,2.67v181.43Z"/><path class="cls-1" d="M1674.16,3778h-32l-2.67-2.67v-74.71l-2.67-2.67h-72l-2.67,2.67v74.71l-2.67,2.67h-32l-2.67-2.67V3593.94l2.67-2.67h32l2.67,2.67v69.37l2.67,2.67h72l2.67-2.67v-69.37l2.67-2.67h32l2.67,2.67v181.43Z"/><path class="cls-1" d="M1669.07,3773h-32l-2.67-2.67v-74.71l-2.67-2.67h-72l-2.67,2.67v74.71l-2.67,2.67h-32l-2.67-2.67V3588.85l2.67-2.67h32l2.67,2.67v69.37l2.67,2.67h72l2.67-2.67v-69.37l2.67-2.67h32l2.67,2.67v181.43Z"/><path class="cls-1" d="M1664,3767.87h-32l-2.67-2.67v-74.71l-2.67-2.67h-72l-2.67,2.67v74.71l-2.67,2.67h-32l-2.67-2.67V3583.77l2.67-2.67h32l2.67,2.67v69.37l2.67,2.67h72l2.67-2.67v-69.37l2.67-2.67h32l2.67,2.67V3765.2Z"/><path class="cls-1" d="M1658.9,3762.78h-32l-2.67-2.67V3685.4l-2.67-2.67h-72l-2.67,2.67v74.71l-2.67,2.67h-32l-2.67-2.67V3578.68l2.67-2.67h32l2.67,2.67V3648l2.67,2.67h72l2.67-2.67v-69.37l2.67-2.67h32l2.67,2.67v181.43Z"/><path class="cls-1" d="M1653.81,3757.69h-32l-2.67-2.67v-74.71l-2.67-2.67h-72l-2.67,2.67V3755l-2.67,2.67h-32l-2.67-2.67V3573.59l2.67-2.67h32l2.67,2.67V3643l2.67,2.67h72l2.67-2.67v-69.37l2.67-2.67h32l2.67,2.67V3755Z"/><path class="cls-1" d="M1648.72,3752.6h-32l-2.67-2.67v-74.71l-2.67-2.67h-72l-2.67,2.67v74.71l-2.67,2.67h-32l-2.67-2.67V3568.5l2.67-2.67h32l2.67,2.67v69.37l2.67,2.67h72l2.67-2.67V3568.5l2.67-2.67h32l2.67,2.67v181.43Z"/><path class="cls-1" d="M1643.63,3747.51h-32l-2.67-2.67v-74.71l-2.67-2.67h-72l-2.67,2.67v74.71l-2.67,2.67h-32l-2.67-2.67V3563.41l2.67-2.67h32l2.67,2.67v69.37l2.67,2.67h72l2.67-2.67v-69.37l2.67-2.67h32l2.67,2.67v181.43Z"/><path class="cls-1" d="M1638.54,3742.43h-32l-2.67-2.67v-74.71l-2.67-2.67h-72l-2.67,2.67v74.71l-2.67,2.67h-32l-2.67-2.67V3558.32l2.67-2.67h32l2.67,2.67v69.37l2.67,2.67h72l2.67-2.67v-69.37l2.67-2.67h32l2.67,2.67v181.43Z"/><path class="cls-1" d="M1633.45,3737.34h-32l-2.67-2.67V3660l-2.67-2.67h-72l-2.67,2.67v74.71l-2.67,2.67h-32l-2.67-2.67V3553.24l2.67-2.67h32l2.67,2.67v69.37l2.67,2.67h72l2.67-2.67v-69.37l2.67-2.67h32l2.67,2.67v181.43Z"/><path class="cls-1" d="M1628.37,3732.25h-32l-2.67-2.67v-74.71l-2.67-2.67h-72l-2.67,2.67v74.71l-2.67,2.67h-32l-2.67-2.67V3548.15l2.67-2.67h32l2.67,2.67v69.37l2.67,2.67h72l2.67-2.67v-69.37l2.67-2.67h32l2.67,2.67v181.43Z"/><path class="cls-1" d="M1623.28,3727.16h-32l-2.67-2.67v-74.71l-2.67-2.67h-72l-2.67,2.67v74.71l-2.67,2.67h-32l-2.67-2.67V3543.06l2.67-2.67h32l2.67,2.67v69.37l2.67,2.67h72l2.67-2.67v-69.37l2.67-2.67h32l2.67,2.67v181.43Z"/><path class="cls-1" d="M1618.19,3722.07h-32l-2.67-2.67V3644.7l-2.67-2.67h-72l-2.67,2.67v74.71l-2.67,2.67h-32l-2.67-2.67V3538l2.67-2.67h32l2.67,2.67v69.37l2.67,2.67h72l2.67-2.67V3538l2.67-2.67h32l2.67,2.67V3719.4Z"/><path class="cls-1" d="M1613.1,3717h-32l-2.67-2.67v-74.71l-2.67-2.67h-72l-2.67,2.67v74.71l-2.67,2.67h-32l-2.67-2.67V3532.88l2.67-2.67h32l2.67,2.67v69.37l2.67,2.67h72l2.67-2.67v-69.37l2.67-2.67h32l2.67,2.67v181.43Z"/><path class="cls-1" d="M1608,3711.9h-32l-2.67-2.67v-74.71l-2.67-2.67h-72l-2.67,2.67v74.71l-2.67,2.67h-32l-2.67-2.67V3527.79l2.67-2.67h32l2.67,2.67v69.37l2.67,2.67h72l2.67-2.67v-69.37l2.67-2.67h32l2.67,2.67v181.43Z"/><path class="cls-1" d="M1602.93,3706.81h-32l-2.67-2.67v-74.71l-2.67-2.67h-72l-2.67,2.67v74.71l-2.67,2.67h-32l-2.67-2.67V3522.71l2.67-2.67h32l2.67,2.67v69.37l2.67,2.67h72l2.67-2.67v-69.37l2.67-2.67h32l2.67,2.67v181.43Z"/><path class="cls-1" d="M1597.84,3701.72h-32l-2.67-2.67v-74.71l-2.67-2.67h-72l-2.67,2.67v74.71l-2.67,2.67h-32l-2.67-2.67V3517.62l2.67-2.67h32l2.67,2.67V3587l2.67,2.67h72l2.67-2.67v-69.37l2.67-2.67h32l2.67,2.67v181.43Z"/><path class="cls-1" d="M1592.75,3696.63h-32l-2.67-2.67v-74.71l-2.67-2.67h-72l-2.67,2.67V3694l-2.67,2.67h-32l-2.67-2.67V3512.53l2.67-2.67h32l2.67,2.67v69.37l2.67,2.67h72l2.67-2.67v-69.37l2.67-2.67h32l2.67,2.67V3694Z"/><path class="cls-1" d="M1587.66,3691.54h-32l-2.67-2.67v-74.71l-2.67-2.67h-72l-2.67,2.67v74.71l-2.67,2.67h-32l-2.67-2.67V3507.44l2.67-2.67h32l2.67,2.67v69.37l2.67,2.67h72l2.67-2.67v-69.37l2.67-2.67h32l2.67,2.67v181.43Z"/><path class="cls-1" d="M1582.57,3686.46h-32l-2.67-2.67v-74.71l-2.67-2.67h-72l-2.67,2.67v74.71l-2.67,2.67h-32l-2.67-2.67V3502.35l2.67-2.67h32l2.67,2.67v69.37l2.67,2.67h72l2.67-2.67v-69.37l2.67-2.67h32l2.67,2.67v181.43Z"/><path class="cls-1" d="M1577.48,3681.37h-32l-2.67-2.67V3604l-2.67-2.67h-72l-2.67,2.67v74.71l-2.67,2.67h-32l-2.67-2.67V3497.26l2.67-2.67h32l2.67,2.67v69.37l2.67,2.67h72l2.67-2.67v-69.37l2.67-2.67h32l2.67,2.67V3678.7Z"/><path class="cls-1" d="M1572.4,3676.28h-32l-2.67-2.67V3598.9l-2.67-2.67h-72l-2.67,2.67v74.71l-2.67,2.67h-32l-2.67-2.67V3492.18l2.67-2.67h32l2.67,2.67v69.37l2.67,2.67h72l2.67-2.67v-69.37l2.67-2.67h32l2.67,2.67v181.43Z"/><path class="cls-1" d="M1567.31,3671.19h-32l-2.67-2.67v-74.71l-2.67-2.67h-72l-2.67,2.67v74.71l-2.67,2.67h-32l-2.67-2.67V3487.09l2.67-2.67h32l2.67,2.67v69.37l2.67,2.67h72l2.67-2.67v-69.37l2.67-2.67h32l2.67,2.67v181.43Z"/><path class="cls-1" d="M1562.22,3666.1h-32l-2.67-2.67v-74.71l-2.67-2.67h-72l-2.67,2.67v74.71l-2.67,2.67h-32l-2.67-2.67V3482l2.67-2.67h32l2.67,2.67v69.37l2.67,2.67h72l2.67-2.67V3482l2.67-2.67h32l2.67,2.67v181.43Z"/><path class="cls-1" d="M1557.13,3661h-32l-2.67-2.67v-74.71l-2.67-2.67h-72l-2.67,2.67v74.71l-2.67,2.67h-32l-2.67-2.67V3476.91l2.67-2.67h32l2.67,2.67v69.37l2.67,2.67h72l2.67-2.67v-69.37l2.67-2.67h32l2.67,2.67v181.43Z"/><path class="cls-1" d="M1552,3655.93h-32l-2.67-2.67v-74.71l-2.67-2.67h-72l-2.67,2.67v74.71l-2.67,2.67h-32l-2.67-2.67V3471.82l2.67-2.67h32l2.67,2.67v69.37l2.67,2.67h72l2.67-2.67v-69.37l2.67-2.67h32l2.67,2.67v181.43Z"/><path class="cls-1" d="M1547,3650.84h-32l-2.67-2.67v-74.71l-2.67-2.67h-72l-2.67,2.67v74.71l-2.67,2.67h-32l-2.67-2.67V3466.74l2.67-2.67h32l2.67,2.67v69.37l2.67,2.67h72l2.67-2.67v-69.37l2.67-2.67h32l2.67,2.67v181.43Z"/><path class="cls-1" d="M1541.87,3645.75h-32l-2.67-2.67v-74.71l-2.67-2.67h-72l-2.67,2.67v74.71l-2.67,2.67h-32l-2.67-2.67V3461.65l2.67-2.67h32l2.67,2.67V3531l2.67,2.67h72l2.67-2.67v-69.37l2.67-2.67h32l2.67,2.67v181.43Z"/><path class="cls-1" d="M1536.78,3640.66h-32l-2.67-2.67v-74.71l-2.67-2.67h-72l-2.67,2.67V3638l-2.67,2.67h-32l-2.67-2.67V3456.56l2.67-2.67h32l2.67,2.67v69.37l2.67,2.67h72l2.67-2.67v-69.37l2.67-2.67h32l2.67,2.67V3638Z"/><path class="cls-1" d="M1531.69,3635.57h-32l-2.67-2.67V3558.2l-2.67-2.67h-72l-2.67,2.67v74.71l-2.67,2.67h-32l-2.67-2.67V3451.47l2.67-2.67h32l2.67,2.67v69.37l2.67,2.67h72l2.67-2.67v-69.37l2.67-2.67h32l2.67,2.67V3632.9Z"/><path class="cls-1" d="M1526.6,3630.48h-32l-2.67-2.67v-74.71l-2.67-2.67h-72l-2.67,2.67v74.71l-2.67,2.67h-32l-2.67-2.67V3446.38l2.67-2.67h32l2.67,2.67v69.37l2.67,2.67h72l2.67-2.67v-69.37l2.67-2.67h32l2.67,2.67v181.43Z"/><path class="cls-1" d="M1521.51,3625.4h-32l-2.67-2.67V3548l-2.67-2.67h-72l-2.67,2.67v74.71l-2.67,2.67h-32l-2.67-2.67V3441.29l2.67-2.67h32l2.67,2.67v69.37l2.67,2.67h72l2.67-2.67v-69.37l2.67-2.67h32l2.67,2.67v181.43Z"/><path class="cls-1" d="M1516.42,3620.31h-32l-2.67-2.67v-74.71l-2.67-2.67h-72l-2.67,2.67v74.71l-2.67,2.67h-32l-2.67-2.67V3436.21l2.67-2.67h32l2.67,2.67v69.37l2.67,2.67h72l2.67-2.67v-69.37l2.67-2.67h32l2.67,2.67v181.43Z"/><path class="cls-1" d="M1511.34,3615.22h-32l-2.67-2.67v-74.71l-2.67-2.67h-72l-2.67,2.67v74.71l-2.67,2.67h-32l-2.67-2.67V3431.12l2.67-2.67h32l2.67,2.67v69.37l2.67,2.67h72l2.67-2.67v-69.37l2.67-2.67h32l2.67,2.67v181.43Z"/><path class="cls-1" d="M1506.25,3610.13h-32l-2.67-2.67v-74.71l-2.67-2.67h-72l-2.67,2.67v74.71l-2.67,2.67h-32l-2.67-2.67V3426l2.67-2.67h32l2.67,2.67v69.37l2.67,2.67h72l2.67-2.67V3426l2.67-2.67h32l2.67,2.67v181.43Z"/><path class="cls-1" d="M1501.16,3605h-32l-2.67-2.67v-74.71l-2.67-2.67h-72l-2.67,2.67v74.71l-2.67,2.67h-32l-2.67-2.67V3420.94l2.67-2.67h32l2.67,2.67v69.37l2.67,2.67h72l2.67-2.67v-69.37l2.67-2.67h32l2.67,2.67v181.43Z"/><path class="cls-1" d="M1496.07,3600h-32l-2.67-2.67v-74.71l-2.67-2.67h-72l-2.67,2.67v74.71l-2.67,2.67h-32l-2.67-2.67V3415.85l2.67-2.67h32l2.67,2.67v69.37l2.67,2.67h72l2.67-2.67v-69.37l2.67-2.67h32l2.67,2.67v181.43Z"/><path class="cls-1" d="M1491,3594.87h-32l-2.67-2.67v-74.71l-2.67-2.67h-72l-2.67,2.67v74.71l-2.67,2.67h-32l-2.67-2.67V3410.76l2.67-2.67h32l2.67,2.67v69.37l2.67,2.67h72l2.67-2.67v-69.37l2.67-2.67h32l2.67,2.67V3592.2Z"/><path class="cls-1" d="M1485.89,3589.78h-32l-2.67-2.67V3512.4l-2.67-2.67h-72l-2.67,2.67v74.71l-2.67,2.67h-32l-2.67-2.67V3405.68l2.67-2.67h32l2.67,2.67V3475l2.67,2.67h72l2.67-2.67v-69.37l2.67-2.67h32l2.67,2.67v181.43Z"/><path class="cls-1" d="M1480.81,3584.69h-32l-2.67-2.67v-74.71l-2.67-2.67h-72l-2.67,2.67V3582l-2.67,2.67h-32l-2.67-2.67V3400.59l2.67-2.67h32l2.67,2.67V3470l2.67,2.67h72l2.67-2.67v-69.37l2.67-2.67h32l2.67,2.67V3582Z"/><path class="cls-1" d="M1475.72,3579.6h-32l-2.67-2.67v-74.71l-2.67-2.67h-72l-2.67,2.67v74.71l-2.67,2.67h-32l-2.67-2.67V3395.5l2.67-2.67h32l2.67,2.67v69.37l2.67,2.67h72l2.67-2.67V3395.5l2.67-2.67h32l2.67,2.67v181.43Z"/><path class="cls-1" d="M1470.63,3574.51h-32l-2.67-2.67v-74.71l-2.67-2.67h-72l-2.67,2.67v74.71l-2.67,2.67h-32l-2.67-2.67V3390.41l2.67-2.67h32l2.67,2.67v69.37l2.67,2.67h72l2.67-2.67v-69.37l2.67-2.67h32l2.67,2.67v181.43Z"/><path class="cls-1" d="M1465.54,3569.42h-32l-2.67-2.67V3492l-2.67-2.67h-72l-2.67,2.67v74.71l-2.67,2.67h-32l-2.67-2.67V3385.32l2.67-2.67h32l2.67,2.67v69.37l2.67,2.67h72l2.67-2.67v-69.37l2.67-2.67h32l2.67,2.67v181.43Z"/><path class="cls-1" d="M1460.45,3564.34h-32l-2.67-2.67V3487l-2.67-2.67h-72l-2.67,2.67v74.71l-2.67,2.67h-32l-2.67-2.67V3380.23l2.67-2.67h32l2.67,2.67v69.37l2.67,2.67h72l2.67-2.67v-69.37l2.67-2.67h32l2.67,2.67v181.43Z"/><path class="cls-1" d="M1455.36,3559.25h-32l-2.67-2.67v-74.71l-2.67-2.67h-72l-2.67,2.67v74.71l-2.67,2.67h-32l-2.67-2.67V3375.15l2.67-2.67h32l2.67,2.67v69.37l2.67,2.67h72l2.67-2.67v-69.37l2.67-2.67h32l2.67,2.67v181.43Z"/><path class="cls-1" d="M1450.28,3554.16h-32l-2.67-2.67v-74.71l-2.67-2.67h-72l-2.67,2.67v74.71l-2.67,2.67h-32l-2.67-2.67V3370.06l2.67-2.67h32l2.67,2.67v69.37l2.67,2.67h72l2.67-2.67v-69.37l2.67-2.67h32l2.67,2.67v181.43Z"/><path class="cls-1" d="M1445.19,3549.07h-32l-2.67-2.67V3471.7l-2.67-2.67h-72l-2.67,2.67v74.71l-2.67,2.67h-32l-2.67-2.67V3365l2.67-2.67h32l2.67,2.67v69.37l2.67,2.67h72l2.67-2.67V3365l2.67-2.67h32l2.67,2.67V3546.4Z"/><path class="cls-1" d="M1440.1,3544h-32l-2.67-2.67v-74.71l-2.67-2.67h-72l-2.67,2.67v74.71l-2.67,2.67h-32l-2.67-2.67V3359.88l2.67-2.67h32l2.67,2.67v69.37l2.67,2.67h72l2.67-2.67v-69.37l2.67-2.67h32l2.67,2.67v181.43Z"/><path class="cls-1" d="M1435,3538.89h-32l-2.67-2.67v-74.71l-2.67-2.67h-72l-2.67,2.67v74.71l-2.67,2.67h-32l-2.67-2.67V3354.79l2.67-2.67h32l2.67,2.67v69.37l2.67,2.67h72l2.67-2.67v-69.37l2.67-2.67h32l2.67,2.67v181.43Z"/><path class="cls-1" d="M1429.92,3533.81h-32l-2.67-2.67v-74.71l-2.67-2.67h-72l-2.67,2.67v74.71l-2.67,2.67h-32l-2.67-2.67V3349.7l2.67-2.67h32l2.67,2.67v69.37l2.67,2.67h72l2.67-2.67V3349.7l2.67-2.67h32l2.67,2.67v181.43Z"/><path class="cls-1" d="M1424.84,3528.72h-32l-2.67-2.67v-74.71l-2.67-2.67h-72l-2.67,2.67v74.71l-2.67,2.67h-32l-2.67-2.67V3344.62l2.67-2.67h32l2.67,2.67V3414l2.67,2.67h72l2.67-2.67v-69.37l2.67-2.67h32l2.67,2.67v181.43Z"/><path class="cls-1" d="M1419.75,3523.63h-32l-2.67-2.67v-74.71l-2.67-2.67h-72l-2.67,2.67V3521l-2.67,2.67h-32l-2.67-2.67V3339.53l2.67-2.67h32l2.67,2.67v69.37l2.67,2.67h72l2.67-2.67v-69.37l2.67-2.67h32l2.67,2.67V3521Z"/><path class="cls-1" d="M1414.66,3518.54h-32l-2.67-2.67v-74.71l-2.67-2.67h-72l-2.67,2.67v74.71l-2.67,2.67h-32l-2.67-2.67V3334.44l2.67-2.67h32l2.67,2.67v69.37l2.67,2.67h72l2.67-2.67v-69.37l2.67-2.67h32l2.67,2.67v181.43Z"/><path class="cls-1" d="M1409.57,3513.45h-32l-2.67-2.67v-74.71l-2.67-2.67h-72l-2.67,2.67v74.71l-2.67,2.67h-32l-2.67-2.67V3329.35l2.67-2.67h32l2.67,2.67v69.37l2.67,2.67h72l2.67-2.67v-69.37l2.67-2.67h32l2.67,2.67v181.43Z"/><path class="cls-1" d="M1404.48,3508.37h-32l-2.67-2.67V3431l-2.67-2.67h-72l-2.67,2.67v74.71l-2.67,2.67h-32l-2.67-2.67V3324.26l2.67-2.67h32l2.67,2.67v69.37l2.67,2.67h72l2.67-2.67v-69.37l2.67-2.67h32l2.67,2.67V3505.7Z"/><path class="cls-1" d="M1399.39,3503.28h-32l-2.67-2.67V3425.9l-2.67-2.67h-72l-2.67,2.67v74.71l-2.67,2.67h-32l-2.67-2.67V3319.18l2.67-2.67h32l2.67,2.67v69.37l2.67,2.67h72l2.67-2.67v-69.37l2.67-2.67h32l2.67,2.67v181.43Z"/><path class="cls-1" d="M1394.31,3498.19h-32l-2.67-2.67v-74.71l-2.67-2.67h-72l-2.67,2.67v74.71l-2.67,2.67h-32l-2.67-2.67V3314.09l2.67-2.67h32l2.67,2.67v69.37l2.67,2.67h72l2.67-2.67v-69.37l2.67-2.67h32l2.67,2.67v181.43Z"/><path class="cls-1" d="M1389.22,3493.1h-32l-2.67-2.67v-74.71l-2.67-2.67h-72l-2.67,2.67v74.71l-2.67,2.67h-32l-2.67-2.67V3309l2.67-2.67h32l2.67,2.67v69.37l2.67,2.67h72l2.67-2.67V3309l2.67-2.67h32l2.67,2.67v181.43Z"/><path class="cls-1" d="M1384.13,3488h-32l-2.67-2.67v-74.71l-2.67-2.67h-72l-2.67,2.67v74.71l-2.67,2.67h-32l-2.67-2.67V3303.91l2.67-2.67h32l2.67,2.67v69.37l2.67,2.67h72l2.67-2.67v-69.37l2.67-2.67h32l2.67,2.67v181.43Z"/><path class="cls-1" d="M1379,3482.92h-32l-2.67-2.67v-74.71l-2.67-2.67h-72l-2.67,2.67v74.71l-2.67,2.67h-32l-2.67-2.67V3298.82l2.67-2.67h32l2.67,2.67v69.37l2.67,2.67h72l2.67-2.67v-69.37l2.67-2.67h32l2.67,2.67v181.43Z"/><path class="cls-1" d="M1374,3477.84h-32l-2.67-2.67v-74.71l-2.67-2.67h-72l-2.67,2.67v74.71l-2.67,2.67h-32l-2.67-2.67V3293.73l2.67-2.67h32l2.67,2.67v69.37l2.67,2.67h72l2.67-2.67v-69.37l2.67-2.67h32l2.67,2.67v181.43Z"/><path class="cls-1" d="M1368.86,3472.75h-32l-2.67-2.67v-74.71l-2.67-2.67h-72l-2.67,2.67v74.71l-2.67,2.67h-32l-2.67-2.67V3288.65l2.67-2.67h32l2.67,2.67V3358l2.67,2.67h72l2.67-2.67v-69.37l2.67-2.67h32l2.67,2.67v181.43Z"/><path class="cls-1" d="M1363.78,3467.66h-32l-2.67-2.67v-74.71l-2.67-2.67h-72l-2.67,2.67V3465l-2.67,2.67h-32l-2.67-2.67V3283.56l2.67-2.67h32l2.67,2.67v69.37l2.67,2.67h72l2.67-2.67v-69.37l2.67-2.67h32l2.67,2.67V3465Z"/><path class="cls-1" d="M1358.69,3462.57h-32l-2.67-2.67V3385.2l-2.67-2.67h-72l-2.67,2.67v74.71l-2.67,2.67h-32l-2.67-2.67V3278.47l2.67-2.67h32l2.67,2.67v69.37l2.67,2.67h72l2.67-2.67v-69.37l2.67-2.67h32l2.67,2.67V3459.9Z"/><path class="cls-1" d="M1353.6,3457.48h-32l-2.67-2.67v-74.71l-2.67-2.67h-72l-2.67,2.67v74.71l-2.67,2.67h-32l-2.67-2.67V3273.38l2.67-2.67h32l2.67,2.67v69.37l2.67,2.67h72l2.67-2.67v-69.37l2.67-2.67h32l2.67,2.67v181.43Z"/><path class="cls-1" d="M1348.51,3452.39h-32l-2.67-2.67V3375l-2.67-2.67h-72l-2.67,2.67v74.71l-2.67,2.67h-32l-2.67-2.67V3268.29l2.67-2.67h32l2.67,2.67v69.37l2.67,2.67h72l2.67-2.67v-69.37l2.67-2.67h32l2.67,2.67v181.43Z"/><path class="cls-1" d="M1343.42,3447.31h-32l-2.67-2.67v-74.71l-2.67-2.67h-72l-2.67,2.67v74.71l-2.67,2.67h-32l-2.67-2.67V3263.2l2.67-2.67h32l2.67,2.67v69.37l2.67,2.67h72l2.67-2.67V3263.2l2.67-2.67h32l2.67,2.67v181.43Z"/><path class="cls-1" d="M1338.33,3442.22h-32l-2.67-2.67v-74.71l-2.67-2.67h-72l-2.67,2.67v74.71l-2.67,2.67h-32l-2.67-2.67V3258.12l2.67-2.67h32l2.67,2.67v69.37l2.67,2.67h72l2.67-2.67v-69.37l2.67-2.67h32l2.67,2.67v181.43Z"/><path class="cls-1" d="M1333.25,3437.13h-32l-2.67-2.67v-74.71l-2.67-2.67h-72l-2.67,2.67v74.71l-2.67,2.67h-32l-2.67-2.67V3253l2.67-2.67h32l2.67,2.67v69.37l2.67,2.67h72l2.67-2.67V3253l2.67-2.67h32l2.67,2.67v181.43Z"/><path class="cls-1" d="M1328.16,3432h-32l-2.67-2.67v-74.71l-2.67-2.67h-72l-2.67,2.67v74.71l-2.67,2.67h-32l-2.67-2.67V3247.94l2.67-2.67h32l2.67,2.67v69.37l2.67,2.67h72l2.67-2.67v-69.37l2.67-2.67h32l2.67,2.67v181.43Z"/><path class="cls-1" d="M1323.07,3427h-32l-2.67-2.67v-74.71l-2.67-2.67h-72l-2.67,2.67v74.71l-2.67,2.67h-32l-2.67-2.67V3242.85l2.67-2.67h32l2.67,2.67v69.37l2.67,2.67h72l2.67-2.67v-69.37l2.67-2.67h32l2.67,2.67v181.43Z"/><path class="cls-1" d="M1318,3421.86h-32l-2.67-2.67v-74.71l-2.67-2.67h-72l-2.67,2.67v74.71l-2.67,2.67h-32l-2.67-2.67V3237.76l2.67-2.67h32l2.67,2.67v69.37l2.67,2.67h72l2.67-2.67v-69.37l2.67-2.67h32l2.67,2.67V3419.2Z"/><path class="cls-1" d="M1312.89,3416.78h-32l-2.67-2.67V3339.4l-2.67-2.67h-72l-2.67,2.67v74.71l-2.67,2.67h-32l-2.67-2.67V3232.67l2.67-2.67h32l2.67,2.67V3302l2.67,2.67h72l2.67-2.67v-69.37l2.67-2.67h32l2.67,2.67v181.43Z"/><path class="cls-1" d="M1307.8,3411.69h-32l-2.67-2.67v-74.71l-2.67-2.67h-72l-2.67,2.67V3409l-2.67,2.67h-32l-2.67-2.67V3227.59l2.67-2.67h32l2.67,2.67V3297l2.67,2.67h72l2.67-2.67v-69.37l2.67-2.67h32l2.67,2.67V3409Z"/><path class="cls-1" d="M1302.72,3406.6h-32l-2.67-2.67v-74.71l-2.67-2.67h-72l-2.67,2.67v74.71l-2.67,2.67h-32l-2.67-2.67V3222.5l2.67-2.67h32l2.67,2.67v69.37l2.67,2.67h72l2.67-2.67V3222.5l2.67-2.67h32l2.67,2.67v181.43Z"/><path class="cls-1" d="M1297.63,3401.51h-32l-2.67-2.67v-74.71l-2.67-2.67h-72l-2.67,2.67v74.71l-2.67,2.67h-32l-2.67-2.67V3217.41l2.67-2.67h32l2.67,2.67v69.37l2.67,2.67h72l2.67-2.67v-69.37l2.67-2.67h32l2.67,2.67v181.43Z"/><path class="cls-1" d="M1292.54,3396.42h-32l-2.67-2.67V3319l-2.67-2.67h-72l-2.67,2.67v74.71l-2.67,2.67h-32l-2.67-2.67V3212.32l2.67-2.67h32l2.67,2.67v69.37l2.67,2.67h72l2.67-2.67v-69.37l2.67-2.67h32l2.67,2.67v181.43Z"/><path class="cls-1" d="M1287.45,3391.33h-32l-2.67-2.67V3314l-2.67-2.67h-72l-2.67,2.67v74.71l-2.67,2.67h-32l-2.67-2.67V3207.23l2.67-2.67h32l2.67,2.67v69.37l2.67,2.67h72l2.67-2.67v-69.37l2.67-2.67h32l2.67,2.67v181.43Z"/><path class="cls-1" d="M1282.36,3386.25h-32l-2.67-2.67v-74.71l-2.67-2.67h-72l-2.67,2.67v74.71l-2.67,2.67h-32l-2.67-2.67V3202.14l2.67-2.67h32l2.67,2.67v69.37l2.67,2.67h72l2.67-2.67v-69.37l2.67-2.67h32l2.67,2.67v181.43Z"/><path class="cls-1" d="M1277.28,3381.16h-32l-2.67-2.67v-74.71l-2.67-2.67h-72l-2.67,2.67v74.71l-2.67,2.67h-32l-2.67-2.67V3197.06l2.67-2.67h32l2.67,2.67v69.37l2.67,2.67h72l2.67-2.67v-69.37l2.67-2.67h32l2.67,2.67v181.43Z"/><path class="cls-1" d="M1272.19,3376.07h-32l-2.67-2.67v-74.71l-2.67-2.67h-72l-2.67,2.67v74.71l-2.67,2.67h-32l-2.67-2.67V3192l2.67-2.67h32l2.67,2.67v69.37l2.67,2.67h72l2.67-2.67V3192l2.67-2.67h32l2.67,2.67V3373.4Z"/><path class="cls-1" d="M1267.1,3371h-32l-2.67-2.67v-74.71l-2.67-2.67h-72l-2.67,2.67v74.71l-2.67,2.67h-32l-2.67-2.67V3186.88l2.67-2.67h32l2.67,2.67v69.37l2.67,2.67h72l2.67-2.67v-69.37l2.67-2.67h32l2.67,2.67v181.43Z"/><path class="cls-1" d="M1262,3365.89h-32l-2.67-2.67v-74.71l-2.67-2.67h-72l-2.67,2.67v74.71l-2.67,2.67h-32l-2.67-2.67V3181.79l2.67-2.67h32l2.67,2.67v69.37l2.67,2.67h72l2.67-2.67v-69.37l2.67-2.67h32l2.67,2.67v181.43Z"/><path class="cls-1" d="M1256.92,3360.81h-32l-2.67-2.67v-74.71l-2.67-2.67h-72l-2.67,2.67v74.71l-2.67,2.67h-32l-2.67-2.67V3176.7l2.67-2.67h32l2.67,2.67v69.37l2.67,2.67h72l2.67-2.67V3176.7l2.67-2.67h32l2.67,2.67v181.43Z"/><path class="cls-1" d="M1251.83,3355.72h-32l-2.67-2.67v-74.71l-2.67-2.67h-72l-2.67,2.67V3353l-2.67,2.67h-32l-2.67-2.67V3171.61l2.67-2.67h32l2.67,2.67V3241l2.67,2.67h72l2.67-2.67v-69.37l2.67-2.67h32l2.67,2.67V3353Z"/><path class="cls-1" d="M1246.75,3350.63h-32l-2.67-2.67v-74.71l-2.67-2.67h-72l-2.67,2.67V3348l-2.67,2.67h-32l-2.67-2.67V3166.53l2.67-2.67h32l2.67,2.67v69.37l2.67,2.67h72l2.67-2.67v-69.37l2.67-2.67h32l2.67,2.67V3348Z"/><path class="cls-1" d="M1241.66,3345.54h-32l-2.67-2.67v-74.71l-2.67-2.67h-72l-2.67,2.67v74.71l-2.67,2.67h-32l-2.67-2.67V3161.44l2.67-2.67h32l2.67,2.67v69.37l2.67,2.67h72l2.67-2.67v-69.37l2.67-2.67h32l2.67,2.67v181.43Z"/><path class="cls-1" d="M1236.57,3340.45h-32l-2.67-2.67v-74.71l-2.67-2.67h-72l-2.67,2.67v74.71l-2.67,2.67h-32l-2.67-2.67V3156.35l2.67-2.67h32l2.67,2.67v69.37l2.67,2.67h72l2.67-2.67v-69.37l2.67-2.67h32l2.67,2.67v181.43Z"/><path class="cls-1" d="M1231.48,3335.36h-32l-2.67-2.67V3258l-2.67-2.67h-72l-2.67,2.67v74.71l-2.67,2.67h-32l-2.67-2.67V3151.26l2.67-2.67h32l2.67,2.67v69.37l2.67,2.67h72l2.67-2.67v-69.37l2.67-2.67h32l2.67,2.67V3332.7Z"/><path class="cls-1" d="M1226.39,3330.28h-32l-2.67-2.67V3252.9l-2.67-2.67h-72l-2.67,2.67v74.71l-2.67,2.67h-32l-2.67-2.67V3146.17l2.67-2.67h32l2.67,2.67v69.37l2.67,2.67h72l2.67-2.67v-69.37l2.67-2.67h32l2.67,2.67v181.43Z"/><path class="cls-1" d="M1221.3,3325.19h-32l-2.67-2.67v-74.71l-2.67-2.67h-72l-2.67,2.67v74.71l-2.67,2.67h-32l-2.67-2.67V3141.09l2.67-2.67h32l2.67,2.67v69.37l2.67,2.67h72l2.67-2.67v-69.37l2.67-2.67h32l2.67,2.67v181.43Z"/><path class="cls-1" d="M1216.22,3320.1h-32l-2.67-2.67v-74.71l-2.67-2.67h-72l-2.67,2.67v74.71l-2.67,2.67h-32l-2.67-2.67V3136l2.67-2.67h32l2.67,2.67v69.37l2.67,2.67h72l2.67-2.67V3136l2.67-2.67h32l2.67,2.67v181.43Z"/><path class="cls-1" d="M1211.13,3315h-32l-2.67-2.67v-74.71l-2.67-2.67h-72l-2.67,2.67v74.71l-2.67,2.67h-32l-2.67-2.67V3130.91l2.67-2.67h32l2.67,2.67v69.37l2.67,2.67h72l2.67-2.67v-69.37l2.67-2.67h32l2.67,2.67v181.43Z"/><path class="cls-1" d="M1206,3309.92h-32l-2.67-2.67v-74.71l-2.67-2.67h-72l-2.67,2.67v74.71l-2.67,2.67h-32l-2.67-2.67V3125.82l2.67-2.67h32l2.67,2.67v69.37l2.67,2.67h72l2.67-2.67v-69.37l2.67-2.67h32l2.67,2.67v181.43Z"/><path class="cls-1" d="M1201,3304.83h-32l-2.67-2.67v-74.71l-2.67-2.67h-72l-2.67,2.67v74.71l-2.67,2.67h-32l-2.67-2.67V3120.73l2.67-2.67h32l2.67,2.67v69.37l2.67,2.67h72l2.67-2.67v-69.37l2.67-2.67h32l2.67,2.67v181.43Z"/><path class="cls-1" d="M1195.86,3299.75h-32l-2.67-2.67v-74.71l-2.67-2.67h-72l-2.67,2.67v74.71l-2.67,2.67h-32l-2.67-2.67V3115.64l2.67-2.67h32l2.67,2.67V3185l2.67,2.67h72l2.67-2.67v-69.37l2.67-2.67h32l2.67,2.67v181.43Z"/><path class="cls-1" d="M1190.77,3294.66h-32l-2.67-2.67v-74.71l-2.67-2.67h-72l-2.67,2.67V3292l-2.67,2.67h-32l-2.67-2.67V3110.56l2.67-2.67h32l2.67,2.67v69.37l2.67,2.67h72l2.67-2.67v-69.37l2.67-2.67h32l2.67,2.67V3292Z"/><path class="cls-1" d="M1185.69,3289.57h-32l-2.67-2.67v-74.71l-2.67-2.67h-72l-2.67,2.67v74.71l-2.67,2.67h-32l-2.67-2.67V3105.47l2.67-2.67h32l2.67,2.67v69.37l2.67,2.67h72l2.67-2.67v-69.37l2.67-2.67h32l2.67,2.67V3286.9Z"/><path class="cls-1" d="M1180.6,3284.48h-32l-2.67-2.67v-74.71l-2.67-2.67h-72l-2.67,2.67v74.71l-2.67,2.67h-32l-2.67-2.67V3100.38l2.67-2.67h32l2.67,2.67v69.37l2.67,2.67h72l2.67-2.67v-69.37l2.67-2.67h32l2.67,2.67v181.43Z"/><path class="cls-1" d="M1175.51,3279.39h-32l-2.67-2.67V3202l-2.67-2.67h-72l-2.67,2.67v74.71l-2.67,2.67h-32l-2.67-2.67V3095.29l2.67-2.67h32l2.67,2.67v69.37l2.67,2.67h72l2.67-2.67v-69.37l2.67-2.67h32l2.67,2.67v181.43Z"/><path class="cls-1" d="M1170.42,3274.3h-32l-2.67-2.67v-74.71l-2.67-2.67h-72l-2.67,2.67v74.71l-2.67,2.67h-32l-2.67-2.67V3090.2l2.67-2.67h32l2.67,2.67v69.37l2.67,2.67h72l2.67-2.67V3090.2l2.67-2.67h32l2.67,2.67v181.43Z"/><path class="cls-1" d="M1165.33,3269.22h-32l-2.67-2.67v-74.71l-2.67-2.67h-72l-2.67,2.67v74.71l-2.67,2.67h-32l-2.67-2.67V3085.11l2.67-2.67h32l2.67,2.67v69.37l2.67,2.67h72l2.67-2.67v-69.37l2.67-2.67h32l2.67,2.67v181.43Z"/><path class="cls-1" d="M1160.24,3264.13h-32l-2.67-2.67v-74.71l-2.67-2.67h-72l-2.67,2.67v74.71l-2.67,2.67h-32l-2.67-2.67V3080l2.67-2.67h32l2.67,2.67v69.37l2.67,2.67h72l2.67-2.67V3080l2.67-2.67h32l2.67,2.67v181.43Z"/><path class="cls-1" d="M1155.16,3259h-32l-2.67-2.67v-74.71l-2.67-2.67h-72l-2.67,2.67v74.71l-2.67,2.67h-32l-2.67-2.67V3074.94l2.67-2.67h32l2.67,2.67v69.37l2.67,2.67h72l2.67-2.67v-69.37l2.67-2.67h32l2.67,2.67v181.43Z"/><path class="cls-1" d="M1150.07,3254h-32l-2.67-2.67v-74.71l-2.67-2.67h-72l-2.67,2.67v74.71l-2.67,2.67h-32l-2.67-2.67V3069.85l2.67-2.67h32l2.67,2.67v69.37l2.67,2.67h72l2.67-2.67v-69.37l2.67-2.67h32l2.67,2.67v181.43Z"/><path class="cls-1" d="M1145,3248.86h-32l-2.67-2.67v-74.71l-2.67-2.67h-72l-2.67,2.67v74.71l-2.67,2.67h-32l-2.67-2.67V3064.76l2.67-2.67h32l2.67,2.67v69.37l2.67,2.67h72l2.67-2.67v-69.37l2.67-2.67h32l2.67,2.67V3246.2Z"/><path class="cls-1" d="M1139.89,3243.77h-32l-2.67-2.67V3166.4l-2.67-2.67h-72l-2.67,2.67v74.71l-2.67,2.67h-32l-2.67-2.67V3059.67l2.67-2.67h32l2.67,2.67V3129l2.67,2.67h72l2.67-2.67v-69.37l2.67-2.67h32l2.67,2.67v181.43Z"/><path class="cls-1" d="M1134.8,3238.69h-32l-2.67-2.67v-74.71l-2.67-2.67h-72l-2.67,2.67V3236l-2.67,2.67h-32l-2.67-2.67V3054.58l2.67-2.67h32l2.67,2.67V3124l2.67,2.67h72l2.67-2.67v-69.37l2.67-2.67h32l2.67,2.67V3236Z"/><path class="cls-1" d="M1129.71,3233.6h-32l-2.67-2.67v-74.71l-2.67-2.67h-72l-2.67,2.67v74.71l-2.67,2.67H983l-2.67-2.67V3049.5l2.67-2.67h32l2.67,2.67v69.37l2.67,2.67h72l2.67-2.67V3049.5l2.67-2.67h32l2.67,2.67v181.43Z"/><path class="cls-1" d="M1124.63,3228.51h-32l-2.67-2.67v-74.71l-2.67-2.67h-72l-2.67,2.67v74.71l-2.67,2.67h-32l-2.67-2.67V3044.41l2.67-2.67h32l2.67,2.67v69.37l2.67,2.67h72l2.67-2.67v-69.37l2.67-2.67h32l2.67,2.67v181.43Z"/><path class="cls-1" d="M1119.54,3223.42h-32l-2.67-2.67V3146l-2.67-2.67h-72l-2.67,2.67v74.71l-2.67,2.67h-32l-2.67-2.67V3039.32l2.67-2.67h32l2.67,2.67v69.37l2.67,2.67h72l2.67-2.67v-69.37l2.67-2.67h32l2.67,2.67v181.43Z"/><path class="cls-1" d="M1114.45,3218.33h-32l-2.67-2.67V3141l-2.67-2.67h-72l-2.67,2.67v74.71l-2.67,2.67h-32l-2.67-2.67V3034.23l2.67-2.67h32l2.67,2.67v69.37l2.67,2.67h72l2.67-2.67v-69.37l2.67-2.67h32l2.67,2.67v181.43Z"/><path class="cls-1" d="M1109.36,3213.25h-32l-2.67-2.67v-74.71l-2.67-2.67h-72l-2.67,2.67v74.71l-2.67,2.67h-32l-2.67-2.67V3029.14l2.67-2.67h32l2.67,2.67v69.37l2.67,2.67h72l2.67-2.67v-69.37l2.67-2.67h32l2.67,2.67v181.43Z"/><path class="cls-1" d="M1104.27,3208.16h-32l-2.67-2.67v-74.71l-2.67-2.67h-72l-2.67,2.67v74.71l-2.67,2.67h-32l-2.67-2.67V3024.05l2.67-2.67h32l2.67,2.67v69.37l2.67,2.67h72l2.67-2.67v-69.37l2.67-2.67h32l2.67,2.67v181.43Z"/><path class="cls-1" d="M1099.19,3203.07h-32l-2.67-2.67v-74.71l-2.67-2.67h-72l-2.67,2.67v74.71l-2.67,2.67h-32l-2.67-2.67V3019l2.67-2.67h32l2.67,2.67v69.37l2.67,2.67h72l2.67-2.67V3019l2.67-2.67h32l2.67,2.67V3200.4Z"/><path class="cls-1" d="M1094.1,3198h-32l-2.67-2.67V3120.6l-2.67-2.67h-72L982,3120.6v74.71l-2.67,2.67h-32l-2.67-2.67V3013.88l2.67-2.67h32l2.67,2.67v69.37l2.67,2.67h72l2.67-2.67v-69.37l2.67-2.67h32l2.67,2.67v181.43Z"/><path class="cls-1" d="M1089,3192.89h-32l-2.67-2.67v-74.71l-2.67-2.67h-72l-2.67,2.67v74.71l-2.67,2.67h-32l-2.67-2.67V3008.79l2.67-2.67h32l2.67,2.67v69.37l2.67,2.67h72l2.67-2.67v-69.37l2.67-2.67h32l2.67,2.67v181.43Z"/><path class="cls-1" d="M1083.92,3187.8h-32l-2.67-2.67v-74.71l-2.67-2.67h-72l-2.67,2.67v74.71l-2.67,2.67h-32l-2.67-2.67V3003.7l2.67-2.67h32l2.67,2.67v69.37l2.67,2.67h72l2.67-2.67V3003.7l2.67-2.67h32l2.67,2.67v181.43Z"/><path class="cls-1" d="M1078.83,3182.72h-32l-2.67-2.67v-74.71l-2.67-2.67h-72l-2.67,2.67V3180l-2.67,2.67h-32l-2.67-2.67V2998.61l2.67-2.67h32l2.67,2.67V3068l2.67,2.67h72l2.67-2.67v-69.37l2.67-2.67h32l2.67,2.67V3180Z"/><path class="cls-1" d="M1073.74,3177.63h-32l-2.67-2.67v-74.71l-2.67-2.67h-72l-2.67,2.67V3175l-2.67,2.67H927l-2.67-2.67V2993.53l2.67-2.67h32l2.67,2.67v69.37l2.67,2.67h72l2.67-2.67v-69.37l2.67-2.67h32l2.67,2.67V3175Z"/><path class="cls-1" d="M1068.66,3172.54h-32l-2.67-2.67v-74.71l-2.67-2.67h-72l-2.67,2.67v74.71l-2.67,2.67h-32l-2.67-2.67V2988.44l2.67-2.67h32l2.67,2.67v69.37l2.67,2.67h72l2.67-2.67v-69.37l2.67-2.67h32l2.67,2.67v181.43Z"/><path class="cls-1" d="M1063.57,3167.45h-32l-2.67-2.67v-74.71l-2.67-2.67h-72l-2.67,2.67v74.71l-2.67,2.67h-32l-2.67-2.67V2983.35l2.67-2.67h32l2.67,2.67v69.37l2.67,2.67h72l2.67-2.67v-69.37l2.67-2.67h32l2.67,2.67v181.43Z"/><path class="cls-1" d="M1058.48,3162.36h-32l-2.67-2.67V3085l-2.67-2.67h-72l-2.67,2.67v74.71l-2.67,2.67h-32l-2.67-2.67V2978.26l2.67-2.67h32l2.67,2.67v69.37l2.67,2.67h72l2.67-2.67v-69.37l2.67-2.67h32l2.67,2.67v181.43Z"/><path class="cls-1" d="M1053.39,3157.27h-32l-2.67-2.67V3079.9l-2.67-2.67H944l-2.67,2.67v74.71l-2.67,2.67h-32l-2.67-2.67V2973.17l2.67-2.67h32l2.67,2.67v69.37l2.67,2.67h72l2.67-2.67v-69.37l2.67-2.67h32l2.67,2.67v181.43Z"/><path class="cls-1" d="M1048.3,3152.19h-32l-2.67-2.67v-74.71l-2.67-2.67h-72l-2.67,2.67v74.71l-2.67,2.67h-32l-2.67-2.67V2968.08l2.67-2.67h32l2.67,2.67v69.37l2.67,2.67h72l2.67-2.67v-69.37l2.67-2.67h32l2.67,2.67v181.43Z"/><path class="cls-1" d="M1043.21,3147.1h-32l-2.67-2.67v-74.71l-2.67-2.67h-72l-2.67,2.67v74.71l-2.67,2.67h-32l-2.67-2.67V2963l2.67-2.67h32l2.67,2.67v69.37l2.67,2.67h72l2.67-2.67V2963l2.67-2.67h32l2.67,2.67v181.43Z"/><path class="cls-1" d="M1038.13,3142h-32l-2.67-2.67v-74.71l-2.67-2.67h-72l-2.67,2.67v74.71L923.4,3142h-32l-2.67-2.67V2957.91l2.67-2.67h32l2.67,2.67v69.37l2.67,2.67h72l2.67-2.67v-69.37l2.67-2.67h32l2.67,2.67v181.43Z"/><path class="cls-1" d="M1033,3136.92h-32l-2.67-2.67v-74.71l-2.67-2.67h-72l-2.67,2.67v74.71l-2.67,2.67h-32l-2.67-2.67V2952.82l2.67-2.67h32l2.67,2.67v69.37l2.67,2.67h72l2.67-2.67v-69.37l2.67-2.67h32l2.67,2.67v181.43Z"/><path class="cls-1" d="M1027.95,3131.83h-32l-2.67-2.67v-74.71l-2.67-2.67h-72l-2.67,2.67v74.71l-2.67,2.67h-32l-2.67-2.67V2947.73l2.67-2.67h32l2.67,2.67v69.37l2.67,2.67h72l2.67-2.67v-69.37l2.67-2.67h32l2.67,2.67v181.43Z"/><path class="cls-1" d="M1022.86,3126.74h-32l-2.67-2.67v-74.71l-2.67-2.67h-72l-2.67,2.67v74.71l-2.67,2.67h-32l-2.67-2.67V2942.64l2.67-2.67h32l2.67,2.67V3012l2.67,2.67h72l2.67-2.67v-69.37l2.67-2.67h32l2.67,2.67v181.43Z"/><path class="cls-1" d="M1017.77,3121.66h-32l-2.67-2.67v-74.71l-2.67-2.67h-72l-2.67,2.67V3119l-2.67,2.67H871l-2.67-2.67V2937.55l2.67-2.67h32l2.67,2.67v69.37l2.67,2.67h72l2.67-2.67v-69.37l2.67-2.67h32l2.67,2.67V3119Z"/><path class="cls-1" d="M1012.68,3116.57h-32L978,3113.9v-74.71l-2.67-2.67h-72l-2.67,2.67v74.71l-2.67,2.67h-32l-2.67-2.67V2932.47l2.67-2.67h32l2.67,2.67v69.37l2.67,2.67h72l2.67-2.67v-69.37l2.67-2.67h32l2.67,2.67V3113.9Z"/><path class="cls-1" d="M1007.6,3111.48h-32l-2.67-2.67V3034.1l-2.67-2.67h-72l-2.67,2.67v74.71l-2.67,2.67h-32l-2.67-2.67V2927.38l2.67-2.67h32l2.67,2.67v69.37l2.67,2.67h72l2.67-2.67v-69.37l2.67-2.67h32l2.67,2.67v181.43Z"/><path class="cls-1" d="M1002.51,3106.39h-32l-2.67-2.67V3029l-2.67-2.67h-72l-2.67,2.67v74.71l-2.67,2.67h-32l-2.67-2.67V2922.29l2.67-2.67h32l2.67,2.67v69.37l2.67,2.67h72l2.67-2.67v-69.37l2.67-2.67h32l2.67,2.67v181.43Z"/><path class="cls-1" d="M997.42,3101.3h-32l-2.67-2.67v-74.71l-2.67-2.67H888l-2.67,2.67v74.71l-2.67,2.67h-32l-2.67-2.67V2917.2l2.67-2.67h32l2.67,2.67v69.37l2.67,2.67h72l2.67-2.67V2917.2l2.67-2.67h32l2.67,2.67v181.43Z"/><path class="cls-1" d="M992.33,3096.21h-32l-2.67-2.67v-74.71l-2.67-2.67h-72l-2.67,2.67v74.71l-2.67,2.67h-32l-2.67-2.67V2912.11l2.67-2.67h32l2.67,2.67v69.37l2.67,2.67h72l2.67-2.67v-69.37l2.67-2.67h32l2.67,2.67v181.43Z"/><path class="cls-1" d="M987.24,3091.13h-32l-2.67-2.67v-74.71l-2.67-2.67h-72l-2.67,2.67v74.71l-2.67,2.67h-32l-2.67-2.67V2907l2.67-2.67h32l2.67,2.67v69.37l2.67,2.67h72l2.67-2.67V2907l2.67-2.67h32l2.67,2.67v181.43Z"/><path class="cls-1" d="M982.15,3086h-32l-2.67-2.67v-74.71L944.8,3006h-72l-2.67,2.67v74.71l-2.67,2.67h-32l-2.67-2.67V2901.94l2.67-2.67h32l2.67,2.67v69.37l2.67,2.67h72l2.67-2.67v-69.37l2.67-2.67h32l2.67,2.67v181.43Z"/><path class="cls-1" d="M977.07,3081H945l-2.67-2.67v-74.71l-2.67-2.67h-72l-2.67,2.67v74.71l-2.67,2.67h-32l-2.67-2.67V2896.85l2.67-2.67h32l2.67,2.67v69.37l2.67,2.67h72l2.67-2.67v-69.37l2.67-2.67h32l2.67,2.67v181.43Z"/><path class="cls-1" d="M972,3075.86H940l-2.67-2.67v-74.71l-2.67-2.67h-72l-2.67,2.67v74.71l-2.67,2.67h-32l-2.67-2.67V2891.76l2.67-2.67h32l2.67,2.67v69.37l2.67,2.67h72l2.67-2.67v-69.37l2.67-2.67h32l2.67,2.67v181.43Z"/><path class="cls-1" d="M966.89,3070.77h-32l-2.67-2.67V2993.4l-2.67-2.67h-72l-2.67,2.67v74.71l-2.67,2.67h-32l-2.67-2.67V2886.67l2.67-2.67h32l2.67,2.67V2956l2.67,2.67h72l2.67-2.67v-69.37l2.67-2.67h32l2.67,2.67v181.43Z"/><path class="cls-1" d="M961.8,3065.69h-32l-2.67-2.67v-74.71l-2.67-2.67h-72l-2.67,2.67V3063l-2.67,2.67h-32l-2.67-2.67V2881.58l2.67-2.67h32l2.67,2.67V2951l2.67,2.67h72l2.67-2.67v-69.37l2.67-2.67h32l2.67,2.67V3063Z"/><path class="cls-1" d="M956.71,3060.6h-32l-2.67-2.67v-74.71l-2.67-2.67h-72l-2.67,2.67v74.71L842,3060.6H810l-2.67-2.67V2876.49l2.67-2.67h32l2.67,2.67v69.37l2.67,2.67h72l2.67-2.67v-69.37l2.67-2.67h32l2.67,2.67v181.43Z"/><path class="cls-1" d="M951.63,3055.51h-32l-2.67-2.67v-74.71l-2.67-2.67h-72l-2.67,2.67v74.71l-2.67,2.67h-32l-2.67-2.67V2871.41l2.67-2.67h32l2.67,2.67v69.37l2.67,2.67h72l2.67-2.67v-69.37l2.67-2.67h32l2.67,2.67v181.43Z"/><path class="cls-1" d="M946.54,3050.42h-32l-2.67-2.67V2973l-2.67-2.67h-72l-2.67,2.67v74.71l-2.67,2.67h-32l-2.67-2.67V2866.32l2.67-2.67h32l2.67,2.67v69.37l2.67,2.67h72l2.67-2.67v-69.37l2.67-2.67h32l2.67,2.67v181.43Z"/><path class="cls-1" d="M941.45,3045.33h-32l-2.67-2.67V2968l-2.67-2.67h-72l-2.67,2.67v74.71l-2.67,2.67h-32l-2.67-2.67V2861.23l2.67-2.67h32l2.67,2.67v69.37l2.67,2.67h72l2.67-2.67v-69.37l2.67-2.67h32l2.67,2.67v181.43Z"/><path class="cls-1" d="M936.36,3040.24h-32l-2.67-2.67v-74.71L899,2960.2H827l-2.67,2.67v74.71l-2.67,2.67h-32l-2.67-2.67V2856.14l2.67-2.67h32l2.67,2.67v69.37l2.67,2.67h72l2.67-2.67v-69.37l2.67-2.67h32l2.67,2.67v181.43Z"/><path class="cls-1" d="M931.27,3035.16h-32l-2.67-2.67v-74.71l-2.67-2.67h-72l-2.67,2.67v74.71l-2.67,2.67h-32l-2.67-2.67V2851.05l2.67-2.67h32l2.67,2.67v69.37l2.67,2.67h72l2.67-2.67v-69.37l2.67-2.67h32l2.67,2.67v181.43Z"/><path class="cls-1" d="M926.18,3030.07h-32l-2.67-2.67v-74.71l-2.67-2.67h-72l-2.67,2.67v74.71l-2.67,2.67h-32l-2.67-2.67V2846l2.67-2.67h32l2.67,2.67v69.37l2.67,2.67h72l2.67-2.67V2846l2.67-2.67h32l2.67,2.67V3027.4Z"/><path class="cls-1" d="M921.1,3025h-32l-2.67-2.67V2947.6l-2.67-2.67h-72L809,2947.6v74.71l-2.67,2.67h-32l-2.67-2.67V2840.88l2.67-2.67h32l2.67,2.67v69.37l2.67,2.67h72l2.67-2.67v-69.37l2.67-2.67h32l2.67,2.67v181.43Z"/><path class="cls-1" d="M916,3019.89H884l-2.67-2.67v-74.71l-2.67-2.67h-72l-2.67,2.67v74.71l-2.67,2.67h-32l-2.67-2.67V2835.79l2.67-2.67h32l2.67,2.67v69.37l2.67,2.67h72l2.67-2.67v-69.37l2.67-2.67h32l2.67,2.67v181.43Z"/><path class="cls-1" d="M910.92,3014.8h-32l-2.67-2.67v-74.71l-2.67-2.67h-72l-2.67,2.67v74.71l-2.67,2.67h-32l-2.67-2.67V2830.7l2.67-2.67h32l2.67,2.67v69.37l2.67,2.67h72l2.67-2.67V2830.7l2.67-2.67h32l2.67,2.67v181.43Z"/><path class="cls-1" d="M905.83,3009.71h-32l-2.67-2.67v-74.71l-2.67-2.67h-72l-2.67,2.67V3007l-2.67,2.67h-32l-2.67-2.67V2825.61l2.67-2.67h32l2.67,2.67V2895l2.67,2.67h72l2.67-2.67v-69.37l2.67-2.67h32l2.67,2.67V3007Z"/><path class="cls-1" d="M900.74,3004.63h-32l-2.67-2.67v-74.71l-2.67-2.67h-72l-2.67,2.67V3002l-2.67,2.67H754l-2.67-2.67V2820.52l2.67-2.67h32l2.67,2.67v69.37l2.67,2.67h72l2.67-2.67v-69.37l2.67-2.67h32l2.67,2.67V3002Z"/><path class="cls-1" d="M895.65,2999.54h-32l-2.67-2.67v-74.71l-2.67-2.67h-72l-2.67,2.67v74.71l-2.67,2.67h-32l-2.67-2.67V2815.44l2.67-2.67h32l2.67,2.67v69.37l2.67,2.67h72l2.67-2.67v-69.37l2.67-2.67h32l2.67,2.67v181.43Z"/><path class="cls-1" d="M890.57,2994.45h-32l-2.67-2.67v-74.71l-2.67-2.67h-72l-2.67,2.67v74.71l-2.67,2.67h-32l-2.67-2.67V2810.35l2.67-2.67h32l2.67,2.67v69.37l2.67,2.67h72l2.67-2.67v-69.37l2.67-2.67h32l2.67,2.67v181.43Z"/><path class="cls-1" d="M885.48,2989.36h-32l-2.67-2.67V2912l-2.67-2.67h-72l-2.67,2.67v74.71l-2.67,2.67h-32l-2.67-2.67V2805.26l2.67-2.67h32l2.67,2.67v69.37l2.67,2.67h72l2.67-2.67v-69.37l2.67-2.67h32l2.67,2.67v181.43Z"/><path class="cls-1" d="M880.39,2984.27h-32l-2.67-2.67V2906.9l-2.67-2.67H771l-2.67,2.67v74.71l-2.67,2.67h-32L731,2981.6V2800.17l2.67-2.67h32l2.67,2.67v69.37l2.67,2.67h72l2.67-2.67v-69.37l2.67-2.67h32l2.67,2.67V2981.6Z"/><path class="cls-1" d="M875.3,2979.18h-32l-2.67-2.67v-74.71l-2.67-2.67h-72l-2.67,2.67v74.71l-2.67,2.67h-32l-2.67-2.67V2795.08l2.67-2.67h32l2.67,2.67v69.37l2.67,2.67h72l2.67-2.67v-69.37l2.67-2.67h32l2.67,2.67v181.43Z"/><path class="cls-1" d="M870.21,2974.1h-32l-2.67-2.67v-74.71l-2.67-2.67h-72l-2.67,2.67v74.71l-2.67,2.67h-32l-2.67-2.67V2790l2.67-2.67h32l2.67,2.67v69.37l2.67,2.67h72l2.67-2.67V2790l2.67-2.67h32l2.67,2.67v181.43Z"/><path class="cls-1" d="M865.12,2969h-32l-2.67-2.67v-74.71l-2.67-2.67h-72l-2.67,2.67v74.71l-2.67,2.67h-32l-2.67-2.67V2784.91l2.67-2.67h32l2.67,2.67v69.37l2.67,2.67h72l2.67-2.67v-69.37l2.67-2.67h32l2.67,2.67v181.43Z"/><path class="cls-1" d="M860,2963.92H828l-2.67-2.67v-74.71l-2.67-2.67h-72l-2.67,2.67v74.71l-2.67,2.67h-32l-2.67-2.67V2779.82l2.67-2.67h32l2.67,2.67v69.37l2.67,2.67h72l2.67-2.67v-69.37l2.67-2.67h32l2.67,2.67v181.43Z"/><path class="cls-1" d="M854.95,2958.83h-32l-2.67-2.67v-74.71l-2.67-2.67h-72l-2.67,2.67v74.71l-2.67,2.67h-32l-2.67-2.67V2774.73l2.67-2.67h32l2.67,2.67v69.37l2.67,2.67h72l2.67-2.67v-69.37l2.67-2.67h32l2.67,2.67v181.43Z"/><path class="cls-1" d="M849.86,2953.74h-32l-2.67-2.67v-74.71l-2.67-2.67h-72l-2.67,2.67v74.71l-2.67,2.67h-32l-2.67-2.67V2769.64l2.67-2.67h32l2.67,2.67V2839l2.67,2.67h72l2.67-2.67v-69.37l2.67-2.67h32l2.67,2.67v181.43Z"/><path class="cls-1" d="M844.77,2948.65h-32l-2.67-2.67v-74.71l-2.67-2.67h-72l-2.67,2.67V2946l-2.67,2.67H698l-2.67-2.67V2764.55l2.67-2.67h32l2.67,2.67v69.37l2.67,2.67h72l2.67-2.67v-69.37l2.67-2.67h32l2.67,2.67V2946Z"/><path class="cls-1" d="M839.68,2943.57h-32L805,2940.9v-74.71l-2.67-2.67h-72l-2.67,2.67v74.71l-2.67,2.67h-32l-2.67-2.67V2759.46l2.67-2.67h32l2.67,2.67v69.37l2.67,2.67h72l2.67-2.67v-69.37l2.67-2.67h32l2.67,2.67V2940.9Z"/><path class="cls-1" d="M834.59,2938.48h-32l-2.67-2.67V2861.1l-2.67-2.67h-72l-2.67,2.67v74.71l-2.67,2.67h-32l-2.67-2.67V2754.38l2.67-2.67h32l2.67,2.67v69.37l2.67,2.67h72l2.67-2.67v-69.37l2.67-2.67h32l2.67,2.67v181.43Z"/><path class="cls-1" d="M829.51,2933.39h-32l-2.67-2.67V2856l-2.67-2.67h-72l-2.67,2.67v74.71l-2.67,2.67h-32l-2.67-2.67V2749.29l2.67-2.67h32l2.67,2.67v69.37l2.67,2.67h72l2.67-2.67v-69.37l2.67-2.67h32l2.67,2.67v181.43Z"/><path class="cls-1" d="M824.42,2928.3h-32l-2.67-2.67v-74.71l-2.67-2.67H715l-2.67,2.67v74.71l-2.67,2.67h-32l-2.67-2.67V2744.2l2.67-2.67h32l2.67,2.67v69.37l2.67,2.67h72l2.67-2.67V2744.2l2.67-2.67h32l2.67,2.67v181.43Z"/><path class="cls-1" d="M819.33,2923.21h-32l-2.67-2.67v-74.71l-2.67-2.67h-72l-2.67,2.67v74.71l-2.67,2.67h-32l-2.67-2.67V2739.11l2.67-2.67h32l2.67,2.67v69.37l2.67,2.67h72l2.67-2.67v-69.37l2.67-2.67h32l2.67,2.67v181.43Z"/><path class="cls-1" d="M814.24,2918.13h-32l-2.67-2.67v-74.71l-2.67-2.67h-72l-2.67,2.67v74.71l-2.67,2.67h-32l-2.67-2.67V2734l2.67-2.67h32l2.67,2.67v69.37l2.67,2.67h72l2.67-2.67V2734l2.67-2.67h32l2.67,2.67v181.43Z"/><path class="cls-1" d="M809.15,2913h-32l-2.67-2.67v-74.71L771.8,2833h-72l-2.67,2.67v74.71l-2.67,2.67h-32l-2.67-2.67V2728.93l2.67-2.67h32l2.67,2.67v69.37l2.67,2.67h72l2.67-2.67v-69.37l2.67-2.67h32l2.67,2.67v181.43Z"/><path class="cls-1" d="M804.06,2907.95H772l-2.67-2.67v-74.71l-2.67-2.67h-72l-2.67,2.67v74.71l-2.67,2.67h-32l-2.67-2.67V2723.85l2.67-2.67h32l2.67,2.67v69.37l2.67,2.67h72l2.67-2.67v-69.37l2.67-2.67h32l2.67,2.67v181.43Z"/><path class="cls-1" d="M799,2902.86H767l-2.67-2.67v-74.71l-2.67-2.67h-72l-2.67,2.67v74.71l-2.67,2.67h-32l-2.67-2.67V2718.76l2.67-2.67h32l2.67,2.67v69.37l2.67,2.67h72l2.67-2.67v-69.37l2.67-2.67h32l2.67,2.67v181.43Z"/><path class="cls-1" d="M793.89,2897.77h-32l-2.67-2.67V2820.4l-2.67-2.67h-72l-2.67,2.67v74.71l-2.67,2.67h-32l-2.67-2.67V2713.67l2.67-2.67h32l2.67,2.67V2783l2.67,2.67h72l2.67-2.67v-69.37l2.67-2.67h32l2.67,2.67V2895.1Z"/><path class="cls-1" d="M788.8,2892.68h-32l-2.67-2.67v-74.71l-2.67-2.67h-72l-2.67,2.67V2890l-2.67,2.67h-32l-2.67-2.67V2708.58l2.67-2.67h32l2.67,2.67V2778l2.67,2.67h72l2.67-2.67v-69.37l2.67-2.67h32l2.67,2.67V2890Z"/><path class="cls-1" d="M783.71,2887.6h-32l-2.67-2.67v-74.71l-2.67-2.67h-72l-2.67,2.67v74.71L669,2887.6H637l-2.67-2.67V2703.49l2.67-2.67h32l2.67,2.67v69.37l2.67,2.67h72l2.67-2.67v-69.37l2.67-2.67h32l2.67,2.67v181.43Z"/><path class="cls-1" d="M778.62,2882.51h-32l-2.67-2.67v-74.71l-2.67-2.67h-72l-2.67,2.67v74.71l-2.67,2.67h-32l-2.67-2.67V2698.4l2.67-2.67h32l2.67,2.67v69.37l2.67,2.67h72l2.67-2.67V2698.4l2.67-2.67h32l2.67,2.67v181.43Z"/><path class="cls-1" d="M773.54,2877.42h-32l-2.67-2.67V2800l-2.67-2.67h-72l-2.67,2.67v74.71l-2.67,2.67h-32l-2.67-2.67V2693.32l2.67-2.67h32l2.67,2.67v69.37l2.67,2.67h72l2.67-2.67v-69.37l2.67-2.67h32l2.67,2.67v181.43Z"/><path class="cls-1" d="M768.45,2872.33h-32l-2.67-2.67V2795l-2.67-2.67h-72l-2.67,2.67v74.71l-2.67,2.67h-32l-2.67-2.67V2688.23l2.67-2.67h32l2.67,2.67v69.37l2.67,2.67h72l2.67-2.67v-69.37l2.67-2.67h32l2.67,2.67v181.43Z"/><path class="cls-1" d="M763.36,2867.24h-32l-2.67-2.67v-74.71L726,2787.2H654l-2.67,2.67v74.71l-2.67,2.67h-32l-2.67-2.67V2683.14l2.67-2.67h32l2.67,2.67v69.37l2.67,2.67h72l2.67-2.67v-69.37l2.67-2.67h32l2.67,2.67v181.43Z"/><path class="cls-1" d="M758.27,2862.15h-32l-2.67-2.67v-74.71l-2.67-2.67h-72l-2.67,2.67v74.71l-2.67,2.67h-32l-2.67-2.67V2678.05l2.67-2.67h32l2.67,2.67v69.37l2.67,2.67h72l2.67-2.67v-69.37l2.67-2.67h32l2.67,2.67v181.43Z"/><path class="cls-1" d="M753.18,2857.07h-32l-2.67-2.67v-74.71l-2.67-2.67h-72l-2.67,2.67v74.71l-2.67,2.67h-32l-2.67-2.67V2673l2.67-2.67h32l2.67,2.67v69.37l2.67,2.67h72l2.67-2.67V2673l2.67-2.67h32l2.67,2.67V2854.4Z"/><path class="cls-1" d="M748.09,2852h-32l-2.67-2.67V2774.6l-2.67-2.67h-72L636,2774.6v74.71l-2.67,2.67h-32l-2.67-2.67V2667.88l2.67-2.67h32l2.67,2.67v69.37l2.67,2.67h72l2.67-2.67v-69.37l2.67-2.67h32l2.67,2.67v181.43Z"/><path class="cls-1" d="M743,2846.89H711l-2.67-2.67v-74.71l-2.67-2.67h-72l-2.67,2.67v74.71l-2.67,2.67h-32l-2.67-2.67V2662.79l2.67-2.67h32l2.67,2.67v69.37l2.67,2.67h72l2.67-2.67v-69.37l2.67-2.67h32l2.67,2.67v181.43Z"/><path class="cls-1" d="M737.92,2841.8h-32l-2.67-2.67v-74.71l-2.67-2.67h-72l-2.67,2.67v74.71l-2.67,2.67h-32l-2.67-2.67V2657.7l2.67-2.67h32l2.67,2.67v69.37l2.67,2.67h72l2.67-2.67V2657.7l2.67-2.67h32l2.67,2.67v181.43Z"/><path class="cls-1" d="M732.83,2836.71h-32l-2.67-2.67v-74.71l-2.67-2.67h-72l-2.67,2.67V2834l-2.67,2.67h-32l-2.67-2.67V2652.61l2.67-2.67h32l2.67,2.67V2722l2.67,2.67h72l2.67-2.67v-69.37l2.67-2.67h32l2.67,2.67V2834Z"/><path class="cls-1" d="M727.74,2831.62h-32l-2.67-2.67v-74.71l-2.67-2.67h-72l-2.67,2.67V2829l-2.67,2.67H581l-2.67-2.67V2647.52l2.67-2.67h32l2.67,2.67v69.37l2.67,2.67h72l2.67-2.67v-69.37l2.67-2.67h32l2.67,2.67V2829Z"/><path class="cls-1" d="M722.65,2826.54h-32l-2.67-2.67v-74.71l-2.67-2.67h-72l-2.67,2.67v74.71l-2.67,2.67h-32l-2.67-2.67V2642.43l2.67-2.67h32l2.67,2.67v69.37l2.67,2.67h72l2.67-2.67v-69.37l2.67-2.67h32l2.67,2.67v181.43Z"/><path class="cls-1" d="M717.56,2821.45h-32l-2.67-2.67v-74.71l-2.67-2.67h-72l-2.67,2.67v74.71l-2.67,2.67h-32l-2.67-2.67V2637.35l2.67-2.67h32l2.67,2.67v69.37l2.67,2.67h72l2.67-2.67v-69.37l2.67-2.67h32l2.67,2.67v181.43Z"/><path class="cls-1" d="M712.48,2816.36h-32l-2.67-2.67V2739l-2.67-2.67h-72l-2.67,2.67v74.71l-2.67,2.67h-32l-2.67-2.67V2632.26l2.67-2.67h32l2.67,2.67v69.37l2.67,2.67h72l2.67-2.67v-69.37l2.67-2.67h32l2.67,2.67v181.43Z"/><path class="cls-1" d="M707.39,2811.27h-32l-2.67-2.67V2733.9l-2.67-2.67H598l-2.67,2.67v74.71l-2.67,2.67h-32L558,2808.6V2627.17l2.67-2.67h32l2.67,2.67v69.37l2.67,2.67h72l2.67-2.67v-69.37l2.67-2.67h32l2.67,2.67V2808.6Z"/><path class="cls-1" d="M702.3,2806.18h-32l-2.67-2.67v-74.71l-2.67-2.67h-72l-2.67,2.67v74.71l-2.67,2.67h-32l-2.67-2.67V2622.08l2.67-2.67h32l2.67,2.67v69.37l2.67,2.67h72l2.67-2.67v-69.37l2.67-2.67h32l2.67,2.67v181.43Z"/><path class="cls-1" d="M697.21,2801.09h-32l-2.67-2.67v-74.71l-2.67-2.67h-72l-2.67,2.67v74.71l-2.67,2.67h-32l-2.67-2.67V2617l2.67-2.67h32l2.67,2.67v69.37l2.67,2.67h72l2.67-2.67V2617l2.67-2.67h32l2.67,2.67v181.43Z"/><path class="cls-1" d="M692.12,2796h-32l-2.67-2.67v-74.71l-2.67-2.67h-72l-2.67,2.67v74.71l-2.67,2.67h-32l-2.67-2.67V2611.9l2.67-2.67h32l2.67,2.67v69.37l2.67,2.67h72l2.67-2.67V2611.9l2.67-2.67h32l2.67,2.67v181.43Z"/><path class="cls-1" d="M687,2790.92H655l-2.67-2.67v-74.71l-2.67-2.67h-72l-2.67,2.67v74.71l-2.67,2.67h-32l-2.67-2.67V2606.82l2.67-2.67h32l2.67,2.67v69.37l2.67,2.67h72l2.67-2.67v-69.37l2.67-2.67h32l2.67,2.67v181.43Z"/><path class="cls-1" d="M681.95,2785.83h-32l-2.67-2.67v-74.71l-2.67-2.67h-72l-2.67,2.67v74.71l-2.67,2.67h-32l-2.67-2.67V2601.73l2.67-2.67h32l2.67,2.67v69.37l2.67,2.67h72l2.67-2.67v-69.37l2.67-2.67h32l2.67,2.67v181.43Z"/><path class="cls-1" d="M676.86,2780.74h-32l-2.67-2.67v-74.71l-2.67-2.67h-72l-2.67,2.67v74.71l-2.67,2.67h-32l-2.67-2.67V2596.64l2.67-2.67h32l2.67,2.67V2666l2.67,2.67h72l2.67-2.67v-69.37l2.67-2.67h32l2.67,2.67v181.43Z"/><path class="cls-1" d="M671.77,2775.65h-32l-2.67-2.67v-74.71l-2.67-2.67h-72l-2.67,2.67V2773l-2.67,2.67H525l-2.67-2.67V2591.55l2.67-2.67h32l2.67,2.67v69.37l2.67,2.67h72l2.67-2.67v-69.37l2.67-2.67h32l2.67,2.67V2773Z"/><path class="cls-1" d="M666.68,2770.57h-32L632,2767.9v-74.71l-2.67-2.67h-72l-2.67,2.67v74.71l-2.67,2.67h-32l-2.67-2.67V2586.46l2.67-2.67h32l2.67,2.67v69.37l2.67,2.67h72l2.67-2.67v-69.37l2.67-2.67h32l2.67,2.67V2767.9Z"/><path class="cls-1" d="M661.59,2765.48h-32l-2.67-2.67V2688.1l-2.67-2.67h-72l-2.67,2.67v74.71l-2.67,2.67h-32l-2.67-2.67V2581.37l2.67-2.67h32l2.67,2.67v69.37l2.67,2.67h72l2.67-2.67v-69.37l2.67-2.67h32l2.67,2.67v181.43Z"/><path class="cls-1" d="M656.5,2760.39h-32l-2.67-2.67V2683l-2.67-2.67h-72l-2.67,2.67v74.71l-2.67,2.67h-32l-2.67-2.67V2576.29l2.67-2.67h32l2.67,2.67v69.37l2.67,2.67h72l2.67-2.67v-69.37l2.67-2.67h32l2.67,2.67v181.43Z"/><path class="cls-1" d="M651.42,2755.3h-32l-2.67-2.67v-74.71l-2.67-2.67H542l-2.67,2.67v74.71l-2.67,2.67h-32l-2.67-2.67V2571.2l2.67-2.67h32l2.67,2.67v69.37l2.67,2.67h72l2.67-2.67V2571.2l2.67-2.67h32l2.67,2.67v181.43Z"/><path class="cls-1" d="M646.33,2750.21h-32l-2.67-2.67v-74.71l-2.67-2.67h-72l-2.67,2.67v74.71l-2.67,2.67h-32l-2.67-2.67V2566.11l2.67-2.67h32l2.67,2.67v69.37l2.67,2.67h72l2.67-2.67v-69.37l2.67-2.67h32l2.67,2.67v181.43Z"/><path class="cls-1" d="M641.24,2745.12h-32l-2.67-2.67v-74.71l-2.67-2.67h-72l-2.67,2.67v74.71l-2.67,2.67h-32l-2.67-2.67V2561l2.67-2.67h32l2.67,2.67v69.37l2.67,2.67h72l2.67-2.67V2561l2.67-2.67h32l2.67,2.67v181.43Z"/><path class="cls-1" d="M636.15,2740h-32l-2.67-2.67v-74.71L598.8,2660h-72l-2.67,2.67v74.71l-2.67,2.67h-32l-2.67-2.67V2555.93l2.67-2.67h32l2.67,2.67v69.37l2.67,2.67h72l2.67-2.67v-69.37l2.67-2.67h32l2.67,2.67v181.43Z"/><path class="cls-1" d="M631.06,2734.95H599l-2.67-2.67v-74.71l-2.67-2.67h-72l-2.67,2.67v74.71l-2.67,2.67h-32l-2.67-2.67V2550.84l2.67-2.67h32l2.67,2.67v69.37l2.67,2.67h72l2.67-2.67v-69.37l2.67-2.67h32l2.67,2.67v181.43Z"/><path class="cls-1" d="M626,2729.86H594l-2.67-2.67v-74.71l-2.67-2.67h-72l-2.67,2.67v74.71l-2.67,2.67h-32l-2.67-2.67V2545.76l2.67-2.67h32l2.67,2.67v69.37l2.67,2.67h72l2.67-2.67v-69.37l2.67-2.67h32l2.67,2.67v181.43Z"/><path class="cls-1" d="M620.89,2724.77h-32l-2.67-2.67v-74.71l-2.67-2.67h-72l-2.67,2.67v74.71l-2.67,2.67h-32l-2.67-2.67V2540.67l2.67-2.67h32l2.67,2.67V2610l2.67,2.67h72l2.67-2.67v-69.37l2.67-2.67h32l2.67,2.67V2722.1Z"/><path class="cls-1" d="M615.8,2719.68h-32l-2.67-2.67v-74.71l-2.67-2.67h-72l-2.67,2.67V2717l-2.67,2.67h-32l-2.67-2.67V2535.58l2.67-2.67h32l2.67,2.67V2605l2.67,2.67h72l2.67-2.67v-69.37l2.67-2.67h32l2.67,2.67V2717Z"/><path class="cls-1" d="M610.71,2714.59h-32l-2.67-2.67v-74.71l-2.67-2.67h-72l-2.67,2.67v74.71l-2.67,2.67H464l-2.67-2.67V2530.49l2.67-2.67h32l2.67,2.67v69.37l2.67,2.67h72l2.67-2.67v-69.37l2.67-2.67h32l2.67,2.67v181.43Z"/><path class="cls-1" d="M605.62,2709.51h-32l-2.67-2.67v-74.71l-2.67-2.67h-72l-2.67,2.67v74.71l-2.67,2.67h-32l-2.67-2.67V2525.4l2.67-2.67h32l2.67,2.67v69.37l2.67,2.67h72l2.67-2.67V2525.4l2.67-2.67h32l2.67,2.67v181.43Z"/><path class="cls-1" d="M600.53,2704.42h-32l-2.67-2.67V2627l-2.67-2.67h-72l-2.67,2.67v74.71l-2.67,2.67h-32l-2.67-2.67V2520.32l2.67-2.67h32l2.67,2.67v69.37l2.67,2.67h72l2.67-2.67v-69.37l2.67-2.67h32l2.67,2.67v181.43Z"/><path class="cls-1" d="M595.45,2699.33h-32l-2.67-2.67V2622l-2.67-2.67h-72l-2.67,2.67v74.71l-2.67,2.67h-32l-2.67-2.67V2515.23l2.67-2.67h32l2.67,2.67v69.37l2.67,2.67h72l2.67-2.67v-69.37l2.67-2.67h32l2.67,2.67v181.43Z"/><path class="cls-1" d="M590.36,2694.24h-32l-2.67-2.67v-74.71L553,2614.2H481l-2.67,2.67v74.71l-2.67,2.67h-32l-2.67-2.67V2510.14l2.67-2.67h32l2.67,2.67v69.37l2.67,2.67h72l2.67-2.67v-69.37l2.67-2.67h32l2.67,2.67v181.43Z"/><path class="cls-1" d="M585.27,2689.15h-32l-2.67-2.67v-74.71l-2.67-2.67h-72l-2.67,2.67v74.71l-2.67,2.67h-32l-2.67-2.67V2505.05l2.67-2.67h32l2.67,2.67v69.37l2.67,2.67h72l2.67-2.67v-69.37l2.67-2.67h32l2.67,2.67v181.43Z"/><path class="cls-1" d="M580.18,2684.06h-32l-2.67-2.67v-74.71l-2.67-2.67h-72l-2.67,2.67v74.71l-2.67,2.67h-32l-2.67-2.67V2500l2.67-2.67h32l2.67,2.67v69.37l2.67,2.67h72l2.67-2.67V2500l2.67-2.67h32l2.67,2.67V2681.4Z"/><path class="cls-1" d="M575.09,2679h-32l-2.67-2.67V2601.6l-2.67-2.67h-72L463,2601.6v74.71l-2.67,2.67h-32l-2.67-2.67V2494.87l2.67-2.67h32l2.67,2.67v69.37l2.67,2.67h72l2.67-2.67v-69.37l2.67-2.67h32l2.67,2.67v181.43Z"/><path class="cls-1" d="M570,2673.89H538l-2.67-2.67v-74.71l-2.67-2.67h-72l-2.67,2.67v74.71l-2.67,2.67h-32l-2.67-2.67V2489.79l2.67-2.67h32l2.67,2.67v69.37l2.67,2.67h72l2.67-2.67v-69.37l2.67-2.67h32l2.67,2.67v181.43Z"/><path class="cls-1" d="M564.92,2668.8h-32l-2.67-2.67v-74.71l-2.67-2.67h-72l-2.67,2.67v74.71l-2.67,2.67h-32l-2.67-2.67V2484.7l2.67-2.67h32l2.67,2.67v69.37l2.67,2.67h72l2.67-2.67V2484.7l2.67-2.67h32l2.67,2.67v181.43Z"/><path class="cls-1" d="M559.83,2663.71h-32l-2.67-2.67v-74.71l-2.67-2.67h-72l-2.67,2.67V2661l-2.67,2.67h-32l-2.67-2.67V2479.61l2.67-2.67h32l2.67,2.67V2549l2.67,2.67h72l2.67-2.67v-69.37l2.67-2.67h32l2.67,2.67V2661Z"/><path class="cls-1" d="M554.74,2658.62h-32l-2.67-2.67v-74.71l-2.67-2.67h-72l-2.67,2.67V2656l-2.67,2.67H408l-2.67-2.67V2474.52l2.67-2.67h32l2.67,2.67v69.37l2.67,2.67h72l2.67-2.67v-69.37l2.67-2.67h32l2.67,2.67V2656Z"/><path class="cls-1" d="M549.65,2653.53h-32l-2.67-2.67v-74.71l-2.67-2.67h-72l-2.67,2.67v74.71l-2.67,2.67h-32l-2.67-2.67V2469.43l2.67-2.67h32l2.67,2.67v69.37l2.67,2.67h72l2.67-2.67v-69.37l2.67-2.67h32l2.67,2.67v181.43Z"/><path class="cls-1" d="M544.56,2648.45h-32l-2.67-2.67v-74.71l-2.67-2.67h-72l-2.67,2.67v74.71l-2.67,2.67h-32l-2.67-2.67V2464.34l2.67-2.67h32l2.67,2.67v69.37l2.67,2.67h72l2.67-2.67v-69.37l2.67-2.67h32l2.67,2.67v181.43Z"/><path class="cls-1" d="M539.47,2643.36h-32l-2.67-2.67V2566l-2.67-2.67h-72l-2.67,2.67v74.71l-2.67,2.67h-32l-2.67-2.67V2459.26l2.67-2.67h32l2.67,2.67v69.37l2.67,2.67h72l2.67-2.67v-69.37l2.67-2.67h32l2.67,2.67v181.43Z"/><path class="cls-1" d="M534.39,2638.27h-32l-2.67-2.67v-74.71l-2.67-2.67H425l-2.67,2.67v74.71l-2.67,2.67h-32L385,2635.6V2454.17l2.67-2.67h32l2.67,2.67v69.37l2.67,2.67h72l2.67-2.67v-69.37l2.67-2.67h32l2.67,2.67V2635.6Z"/><path class="cls-1" d="M529.3,2633.18h-32l-2.67-2.67v-74.71l-2.67-2.67h-72l-2.67,2.67v74.71l-2.67,2.67h-32l-2.67-2.67V2449.08l2.67-2.67h32l2.67,2.67v69.37l2.67,2.67h72l2.67-2.67v-69.37l2.67-2.67h32l2.67,2.67v181.43Z"/><path class="cls-1" d="M524.21,2628.09h-32l-2.67-2.67v-74.71l-2.67-2.67h-72l-2.67,2.67v74.71l-2.67,2.67h-32l-2.67-2.67V2444l2.67-2.67h32l2.67,2.67v69.37l2.67,2.67h72l2.67-2.67V2444l2.67-2.67h32l2.67,2.67v181.43Z"/><path class="cls-1" d="M519.12,2623h-32l-2.67-2.67v-74.71l-2.67-2.67h-72l-2.67,2.67v74.71l-2.67,2.67h-32l-2.67-2.67V2438.9l2.67-2.67h32l2.67,2.67v69.37l2.67,2.67h72l2.67-2.67V2438.9l2.67-2.67h32l2.67,2.67v181.43Z"/><path class="cls-1" d="M514,2617.92H482l-2.67-2.67v-74.71l-2.67-2.67h-72l-2.67,2.67v74.71l-2.67,2.67h-32l-2.67-2.67V2433.81l2.67-2.67h32l2.67,2.67v69.37l2.67,2.67h72l2.67-2.67v-69.37l2.67-2.67h32l2.67,2.67v181.43Z"/><path class="cls-1" d="M508.94,2612.83h-32l-2.67-2.67v-74.71l-2.67-2.67h-72l-2.67,2.67v74.71l-2.67,2.67h-32l-2.67-2.67V2428.73l2.67-2.67h32l2.67,2.67v69.37l2.67,2.67h72l2.67-2.67v-69.37l2.67-2.67h32l2.67,2.67v181.43Z"/><path class="cls-1" d="M503.86,2607.74h-32l-2.67-2.67v-74.71l-2.67-2.67h-72l-2.67,2.67v74.71l-2.67,2.67h-32l-2.67-2.67V2423.64l2.67-2.67h32l2.67,2.67V2493l2.67,2.67h72l2.67-2.67v-69.37l2.67-2.67h32l2.67,2.67v181.43Z"/><path class="cls-1" d="M498.77,2602.65h-32l-2.67-2.67v-74.71l-2.67-2.67h-72l-2.67,2.67V2600l-2.67,2.67H352l-2.67-2.67V2418.55l2.67-2.67h32l2.67,2.67v69.37l2.67,2.67h72l2.67-2.67v-69.37l2.67-2.67h32l2.67,2.67V2600Z"/><path class="cls-1" d="M493.68,2597.56h-32L459,2594.9v-74.71l-2.67-2.67h-72l-2.67,2.67v74.71l-2.67,2.67h-32l-2.67-2.67V2413.46l2.67-2.67h32l2.67,2.67v69.37l2.67,2.67h72l2.67-2.67v-69.37l2.67-2.67h32l2.67,2.67V2594.9Z"/><path class="cls-1" d="M488.59,2592.48h-32l-2.67-2.67V2515.1l-2.67-2.67h-72l-2.67,2.67v74.71l-2.67,2.67h-32l-2.67-2.67V2408.37l2.67-2.67h32l2.67,2.67v69.37l2.67,2.67h72l2.67-2.67v-69.37l2.67-2.67h32l2.67,2.67v181.43Z"/><path class="cls-1" d="M483.5,2587.39h-32l-2.67-2.67V2510l-2.67-2.67h-72l-2.67,2.67v74.71l-2.67,2.67h-32l-2.67-2.67V2403.28l2.67-2.67h32l2.67,2.67v69.37l2.67,2.67h72l2.67-2.67v-69.37l2.67-2.67h32l2.67,2.67v181.43Z"/><path class="cls-1" d="M478.42,2582.3h-32l-2.67-2.67v-74.71l-2.67-2.67H369l-2.67,2.67v74.71l-2.67,2.67h-32l-2.67-2.67V2398.2l2.67-2.67h32l2.67,2.67v69.37l2.67,2.67h72l2.67-2.67V2398.2l2.67-2.67h32l2.67,2.67v181.43Z"/></g></g></svg>