<svg id="Layer_3" data-name="Layer 3" xmlns="http://www.w3.org/2000/svg" viewBox="0 0 1896 5154.75"><defs><style>.cls-1{fill:#fff;stroke:#231f20;stroke-width:3px;}</style></defs><title>Artboard 1</title><g id="_Group_" data-name="&lt;Group&gt;"><path class="cls-1" d="M1994.29,1298.9l-2.67,2.67h-34.69l-2.67-2.67-58.7-154.75v-26.68l2.67-2.67h24l2.67,2.67,48,130.74h2.67l48-130.74,2.67-2.67h24l2.67,2.67v26.68Z"/><path class="cls-1" d="M1989.19,1293.8l-2.67,2.67h-34.69l-2.67-2.67-58.7-154.75v-26.68l2.67-2.67h24l2.67,2.67,48,130.74h2.67l48-130.74,2.67-2.67h24l2.67,2.67v26.68Z"/><path class="cls-1" d="M1984.09,1288.7l-2.67,2.67h-34.69l-2.67-2.67L1885.37,1134v-26.68l2.67-2.67h24l2.67,2.67,48,130.74h2.67l48-130.74,2.67-2.67h24l2.67,2.67V1134Z"/><path class="cls-1" d="M1979,1283.6l-2.67,2.67h-34.69l-2.67-2.67-58.7-154.75v-26.68l2.67-2.67h24l2.67,2.67,48,130.74h2.67l48-130.74,2.67-2.67h24l2.67,2.67v26.68Z"/><path class="cls-1" d="M1973.89,1278.5l-2.67,2.67h-34.69l-2.67-2.67-58.7-154.75v-26.68l2.67-2.67h24l2.67,2.67,48,130.74h2.67l48-130.74,2.67-2.67h24l2.67,2.67v26.68Z"/><path class="cls-1" d="M1968.79,1273.41l-2.67,2.67h-34.69l-2.67-2.67-58.7-154.75V1092l2.67-2.67h24l2.67,2.67,48,130.74h2.67l48-130.74,2.67-2.67h24l2.67,2.67v26.68Z"/><path class="cls-1" d="M1963.69,1268.31,1961,1271h-34.69l-2.67-2.67L1865,1113.55v-26.68l2.67-2.67h24l2.67,2.67,48,130.74H1945l48-130.74,2.67-2.67h24l2.67,2.67v26.68Z"/><path class="cls-1" d="M1958.59,1263.21l-2.67,2.67h-34.69l-2.67-2.67-58.7-154.75v-26.68l2.67-2.67h24l2.67,2.67,48,130.74h2.67l48-130.74,2.67-2.67h24l2.67,2.67v26.68Z"/><path class="cls-1" d="M1953.49,1258.11l-2.67,2.67h-34.69l-2.67-2.67-58.7-154.75v-26.68l2.67-2.67h24l2.67,2.67,48,130.74h2.67l48-130.74,2.67-2.67h24l2.67,2.67v26.68Z"/><path class="cls-1" d="M1948.4,1253l-2.67,2.67H1911l-2.67-2.67-58.7-154.75v-26.68l2.67-2.67h24l2.67,2.67,48,130.74h2.67l48-130.74,2.67-2.67h24l2.67,2.67v26.68Z"/><path class="cls-1" d="M1943.3,1247.91l-2.67,2.67h-34.69l-2.67-2.67-58.7-154.75v-26.68l2.67-2.67h24l2.67,2.67,48,130.74h2.67l48-130.74,2.67-2.67h24l2.67,2.67v26.68Z"/><path class="cls-1" d="M1938.2,1242.81l-2.67,2.67h-34.69l-2.67-2.67-58.7-154.75v-26.68l2.67-2.67h24l2.67,2.67,48,130.74h2.67l48-130.74,2.67-2.67h24l2.67,2.67v26.68Z"/><path class="cls-1" d="M1933.1,1237.71l-2.67,2.67h-34.69l-2.67-2.67L1834.38,1083v-26.68l2.67-2.67h24l2.67,2.67,48,130.74h2.67l48-130.74,2.67-2.67h24l2.67,2.67V1083Z"/><path class="cls-1" d="M1928,1232.61l-2.67,2.67h-34.69l-2.67-2.67-58.7-154.75v-26.68l2.67-2.67h24l2.67,2.67,48,130.74h2.67l48-130.74,2.67-2.67h24l2.67,2.67v26.68Z"/><path class="cls-1" d="M1922.9,1227.51l-2.67,2.67h-34.69l-2.67-2.67-58.7-154.75v-26.68l2.67-2.67h24l2.67,2.67,48,130.74h2.67l48-130.74,2.67-2.67h24l2.67,2.67v26.68Z"/><path class="cls-1" d="M1917.8,1222.41l-2.67,2.67h-34.69l-2.67-2.67-58.7-154.75V1041l2.67-2.67h24l2.67,2.67,48,130.74h2.67l48-130.74,2.67-2.67h24l2.67,2.67v26.68Z"/><path class="cls-1" d="M1912.7,1217.31,1910,1220h-34.69l-2.67-2.67L1814,1062.56v-26.68l2.67-2.67h24l2.67,2.67,48,130.74H1894l48-130.74,2.67-2.67h24l2.67,2.67v26.68Z"/><path class="cls-1" d="M1907.6,1212.21l-2.67,2.67h-34.69l-2.67-2.67-58.7-154.75v-26.68l2.67-2.67h24l2.67,2.67,48,130.74h2.67l48-130.74,2.67-2.67h24l2.67,2.67v26.68Z"/><path class="cls-1" d="M1902.5,1207.11l-2.67,2.67h-34.69l-2.67-2.67-58.7-154.75v-26.68l2.67-2.67h24l2.67,2.67,48,130.74h2.67l48-130.74,2.67-2.67h24l2.67,2.67v26.68Z"/><path class="cls-1" d="M1897.4,1202l-2.67,2.67H1860l-2.67-2.67-58.7-154.75v-26.68l2.67-2.67h24l2.67,2.67,48,130.74h2.67l48-130.74,2.67-2.67h24l2.67,2.67v26.68Z"/><path class="cls-1" d="M1892.3,1196.91l-2.67,2.67h-34.69l-2.67-2.67-58.7-154.75v-26.68l2.67-2.67h24l2.67,2.67,48,130.74h2.67l48-130.74,2.67-2.67h24l2.67,2.67v26.68Z"/><path class="cls-1" d="M1887.2,1191.82l-2.67,2.67h-34.69l-2.67-2.67-58.7-154.75v-26.68l2.67-2.67h24l2.67,2.67,48,130.74h2.67l48-130.74,2.67-2.67h24l2.67,2.67v26.68Z"/><path class="cls-1" d="M1882.1,1186.72l-2.67,2.67h-34.69l-2.67-2.67L1783.38,1032v-26.68l2.67-2.67h24l2.67,2.67,48,130.74h2.67l48-130.74,2.67-2.67h24l2.67,2.67V1032Z"/><path class="cls-1" d="M1877,1181.62l-2.67,2.67h-34.69l-2.67-2.67-58.7-154.75v-26.68l2.67-2.67h24l2.67,2.67,48,130.74h2.67l48-130.74,2.67-2.67h24l2.67,2.67v26.68Z"/><path class="cls-1" d="M1871.9,1176.52l-2.67,2.67h-34.69l-2.67-2.67-58.7-154.75V995.08l2.67-2.67h24l2.67,2.67,48,130.74h2.67l48-130.74,2.67-2.67h24l2.67,2.67v26.68Z"/><path class="cls-1" d="M1866.81,1171.42l-2.67,2.67h-34.69l-2.67-2.67-58.7-154.75V990l2.67-2.67h24l2.67,2.67,48,130.74h2.67l48-130.74,2.67-2.67h24l2.67,2.67v26.68Z"/><path class="cls-1" d="M1861.71,1166.32,1859,1169h-34.69l-2.67-2.67L1763,1011.57V984.88l2.67-2.67h24l2.67,2.67,48,130.74H1843l48-130.74,2.67-2.67h24l2.67,2.67v26.68Z"/><path class="cls-1" d="M1856.61,1161.22l-2.67,2.67h-34.69l-2.67-2.67-58.7-154.75V979.78l2.67-2.67h24l2.67,2.67,48,130.74h2.67l48-130.74,2.67-2.67h24l2.67,2.67v26.68Z"/><path class="cls-1" d="M1851.51,1156.12l-2.67,2.67h-34.69l-2.67-2.67-58.7-154.75V974.69l2.67-2.67h24l2.67,2.67,48,130.74h2.67l48-130.74,2.67-2.67h24l2.67,2.67v26.68Z"/><path class="cls-1" d="M1846.41,1151l-2.67,2.67h-34.69l-2.67-2.67-58.7-154.75V969.59l2.67-2.67h24l2.67,2.67,48,130.74h2.67l48-130.74,2.67-2.67h24l2.67,2.67v26.68Z"/><path class="cls-1" d="M1841.31,1145.92l-2.67,2.67H1804l-2.67-2.67-58.7-154.75V964.49l2.67-2.67h24l2.67,2.67,48,130.74h2.67l48-130.74,2.67-2.67h24l2.67,2.67v26.68Z"/><path class="cls-1" d="M1836.21,1140.82l-2.67,2.67h-34.69l-2.67-2.67-58.7-154.75V959.39l2.67-2.67h24l2.67,2.67,48,130.74h2.67l48-130.74,2.67-2.67h24l2.67,2.67v26.68Z"/><path class="cls-1" d="M1831.11,1135.72l-2.67,2.67h-34.69l-2.67-2.67L1732.39,981V954.29l2.67-2.67h24l2.67,2.67,48,130.74h2.67l48-130.74,2.67-2.67h24l2.67,2.67V981Z"/><path class="cls-1" d="M1826,1130.62l-2.67,2.67h-34.69l-2.67-2.67-58.7-154.75V949.19l2.67-2.67h24l2.67,2.67,48,130.74h2.67l48-130.74,2.67-2.67h24l2.67,2.67v26.68Z"/><path class="cls-1" d="M1820.91,1125.52l-2.67,2.67h-34.69l-2.67-2.67-58.7-154.75V944.09l2.67-2.67h24l2.67,2.67,48,130.74h2.67l48-130.74,2.67-2.67h24l2.67,2.67v26.68Z"/><path class="cls-1" d="M1815.81,1120.42l-2.67,2.67h-34.69l-2.67-2.67-58.7-154.75V939l2.67-2.67h24l2.67,2.67,48,130.74h2.67l48-130.74,2.67-2.67h24l2.67,2.67v26.68Z"/><path class="cls-1" d="M1810.71,1115.32,1808,1118h-34.69l-2.67-2.67L1712,960.57V933.89l2.67-2.67h24l2.67,2.67,48,130.74H1792l48-130.74,2.67-2.67h24l2.67,2.67v26.68Z"/><path class="cls-1" d="M1805.61,1110.23l-2.67,2.67h-34.69l-2.67-2.67-58.7-154.75V928.79l2.67-2.67h24l2.67,2.67,48,130.74h2.67l48-130.74,2.67-2.67h24l2.67,2.67v26.68Z"/><path class="cls-1" d="M1800.51,1105.13l-2.67,2.67h-34.69l-2.67-2.67-58.7-154.75V923.69l2.67-2.67h24l2.67,2.67,48,130.74h2.67l48-130.74,2.67-2.67h24l2.67,2.67v26.68Z"/><path class="cls-1" d="M1795.41,1100l-2.67,2.67h-34.69l-2.67-2.67-58.7-154.75V918.59l2.67-2.67h24l2.67,2.67,48,130.74h2.67l48-130.74,2.67-2.67h24l2.67,2.67v26.68Z"/><path class="cls-1" d="M1790.31,1094.93l-2.67,2.67H1753l-2.67-2.67-58.7-154.75V913.49l2.67-2.67h24l2.67,2.67,48,130.74h2.67l48-130.74,2.67-2.67h24l2.67,2.67v26.68Z"/><path class="cls-1" d="M1785.22,1089.83l-2.67,2.67h-34.69l-2.67-2.67-58.7-154.75V908.39l2.67-2.67h24l2.67,2.67,48,130.74h2.67l48-130.74,2.67-2.67h24l2.67,2.67v26.68Z"/><path class="cls-1" d="M1780.12,1084.73l-2.67,2.67h-34.69l-2.67-2.67L1681.4,930V903.29l2.67-2.67h24l2.67,2.67,48,130.74h2.67l48-130.74,2.67-2.67h24l2.67,2.67V930Z"/><path class="cls-1" d="M1775,1079.63l-2.67,2.67h-34.69l-2.67-2.67-58.7-154.75V898.19l2.67-2.67h24l2.67,2.67,48,130.74h2.67l48-130.74,2.67-2.67h24l2.67,2.67v26.68Z"/><path class="cls-1" d="M1769.92,1074.53l-2.67,2.67h-34.69l-2.67-2.67-58.7-154.75V893.1l2.67-2.67h24l2.67,2.67,48,130.74h2.67l48-130.74,2.67-2.67h24l2.67,2.67v26.68Z"/><path class="cls-1" d="M1764.82,1069.43l-2.67,2.67h-34.69l-2.67-2.67-58.7-154.75V888l2.67-2.67h24l2.67,2.67,48,130.74h2.67l48-130.74,2.67-2.67h24l2.67,2.67v26.68Z"/><path class="cls-1" d="M1759.72,1064.33l-2.67,2.67h-34.69l-2.67-2.67L1661,909.58V882.9l2.67-2.67h24l2.67,2.67,48,130.74H1741l48-130.74,2.67-2.67h24l2.67,2.67v26.68Z"/><path class="cls-1" d="M1754.62,1059.23l-2.67,2.67h-34.69l-2.67-2.67-58.7-154.75V877.8l2.67-2.67h24l2.67,2.67,48,130.74h2.67l48-130.74,2.67-2.67h24l2.67,2.67v26.68Z"/><path class="cls-1" d="M1749.52,1054.13l-2.67,2.67h-34.69l-2.67-2.67-58.7-154.75V872.7l2.67-2.67h24l2.67,2.67,48,130.74h2.67l48-130.74,2.67-2.67h24l2.67,2.67v26.68Z"/><path class="cls-1" d="M1744.42,1049l-2.67,2.67h-34.69l-2.67-2.67-58.7-154.75V867.6l2.67-2.67h24l2.67,2.67,48,130.74h2.67l48-130.74,2.67-2.67h24l2.67,2.67v26.68Z"/><path class="cls-1" d="M1739.32,1043.93l-2.67,2.67H1702l-2.67-2.67-58.7-154.75V862.5l2.67-2.67h24l2.67,2.67,48,130.74h2.67l48-130.74,2.67-2.67h24l2.67,2.67v26.68Z"/><path class="cls-1" d="M1734.22,1038.83l-2.67,2.67h-34.69l-2.67-2.67-58.7-154.75V857.4l2.67-2.67h24l2.67,2.67,48,130.74h2.67l48-130.74,2.67-2.67h24l2.67,2.67v26.68Z"/><path class="cls-1" d="M1729.12,1033.73l-2.67,2.67h-34.69l-2.67-2.67L1630.4,879V852.3l2.67-2.67h24l2.67,2.67,48,130.74h2.67l48-130.74,2.67-2.67h24l2.67,2.67V879Z"/><path class="cls-1" d="M1724,1028.64l-2.67,2.67h-34.69l-2.67-2.67-58.7-154.75V847.2l2.67-2.67h24l2.67,2.67,48,130.74h2.67l48-130.74,2.67-2.67h24l2.67,2.67v26.68Z"/><path class="cls-1" d="M1718.92,1023.54l-2.67,2.67h-34.69l-2.67-2.67-58.7-154.75V842.1l2.67-2.67h24l2.67,2.67,48,130.74h2.67l48-130.74,2.67-2.67h24l2.67,2.67v26.68Z"/><path class="cls-1" d="M1713.82,1018.44l-2.67,2.67h-34.69l-2.67-2.67-58.7-154.75V837l2.67-2.67h24l2.67,2.67,48,130.74h2.67l48-130.74,2.67-2.67h24l2.67,2.67v26.68Z"/><path class="cls-1" d="M1708.72,1013.34l-2.67,2.67h-34.69l-2.67-2.67L1610,858.58V831.9l2.67-2.67h24l2.67,2.67,48,130.74H1690l48-130.74,2.67-2.67h24l2.67,2.67v26.68Z"/><path class="cls-1" d="M1703.63,1008.24l-2.67,2.67h-34.69l-2.67-2.67-58.7-154.75V826.8l2.67-2.67h24l2.67,2.67,48,130.74h2.67l48-130.74,2.67-2.67h24l2.67,2.67v26.68Z"/><path class="cls-1" d="M1698.53,1003.14l-2.67,2.67h-34.69l-2.67-2.67-58.7-154.75V821.7l2.67-2.67h24l2.67,2.67,48,130.74h2.67l48-130.74,2.67-2.67h24l2.67,2.67v26.68Z"/><path class="cls-1" d="M1693.43,998l-2.67,2.67h-34.69L1653.4,998l-58.7-154.75V816.6l2.67-2.67h24l2.67,2.67,48,130.74h2.67l48-130.74,2.67-2.67h24l2.67,2.67v26.68Z"/><path class="cls-1" d="M1688.33,992.94l-2.67,2.67H1651l-2.67-2.67-58.7-154.75V811.51l2.67-2.67h24l2.67,2.67,48,130.74h2.67l48-130.74,2.67-2.67h24l2.67,2.67v26.68Z"/><path class="cls-1" d="M1683.23,987.84l-2.67,2.67h-34.69l-2.67-2.67-58.7-154.75V806.41l2.67-2.67h24l2.67,2.67,48,130.74h2.67l48-130.74,2.67-2.67h24l2.67,2.67v26.68Z"/><path class="cls-1" d="M1678.13,982.74l-2.67,2.67h-34.69l-2.67-2.67L1579.41,828V801.31l2.67-2.67h24l2.67,2.67,48,130.74h2.67l48-130.74,2.67-2.67h24l2.67,2.67V828Z"/><path class="cls-1" d="M1673,977.64l-2.67,2.67h-34.69l-2.67-2.67-58.7-154.75V796.21l2.67-2.67h24l2.67,2.67,48,130.74h2.67l48-130.74,2.67-2.67h24l2.67,2.67v26.68Z"/><path class="cls-1" d="M1667.93,972.54l-2.67,2.67h-34.69l-2.67-2.67-58.7-154.75V791.11l2.67-2.67h24l2.67,2.67,48,130.74h2.67l48-130.74,2.67-2.67h24l2.67,2.67v26.68Z"/><path class="cls-1" d="M1662.83,967.44l-2.67,2.67h-34.69l-2.67-2.67-58.7-154.75V786l2.67-2.67h24l2.67,2.67,48,130.74h2.67l48-130.74,2.67-2.67h24l2.67,2.67v26.68Z"/><path class="cls-1" d="M1657.73,962.34l-2.67,2.67h-34.69l-2.67-2.67L1559,807.59V780.91l2.67-2.67h24l2.67,2.67,48,130.74h2.67l48-130.74,2.67-2.67h24l2.67,2.67v26.68Z"/><path class="cls-1" d="M1652.63,957.24l-2.67,2.67h-34.69l-2.67-2.67-58.7-154.75V775.81l2.67-2.67h24l2.67,2.67,48,130.74H1634l48-130.74,2.67-2.67h24l2.67,2.67v26.68Z"/><path class="cls-1" d="M1647.53,952.14l-2.67,2.67h-34.69l-2.67-2.67-58.7-154.75V770.71l2.67-2.67h24l2.67,2.67,48,130.74h2.67l48-130.74,2.67-2.67h24l2.67,2.67v26.68Z"/><path class="cls-1" d="M1642.43,947l-2.67,2.67h-34.69l-2.67-2.67-58.7-154.75V765.61l2.67-2.67h24l2.67,2.67,48,130.74h2.67l48-130.74,2.67-2.67h24l2.67,2.67v26.68Z"/><path class="cls-1" d="M1637.33,941.95l-2.67,2.67H1600l-2.67-2.67-58.7-154.75V760.51l2.67-2.67h24l2.67,2.67,48,130.74h2.67l48-130.74,2.67-2.67h24l2.67,2.67v26.68Z"/><path class="cls-1" d="M1632.23,936.85l-2.67,2.67h-34.69l-2.67-2.67-58.7-154.75V755.41l2.67-2.67h24l2.67,2.67,48,130.74h2.67l48-130.74,2.67-2.67h24l2.67,2.67v26.68Z"/><path class="cls-1" d="M1627.13,931.75l-2.67,2.67h-34.69l-2.67-2.67L1528.41,777V750.31l2.67-2.67h24l2.67,2.67,48,130.74h2.67l48-130.74,2.67-2.67h24l2.67,2.67V777Z"/><path class="cls-1" d="M1622,926.65l-2.67,2.67h-34.69l-2.67-2.67-58.7-154.75V745.21l2.67-2.67h24l2.67,2.67,48,130.74h2.67l48-130.74,2.67-2.67h24l2.67,2.67v26.68Z"/><path class="cls-1" d="M1616.94,921.55l-2.67,2.67h-34.69l-2.67-2.67-58.7-154.75V740.11l2.67-2.67h24l2.67,2.67,48,130.74h2.67l48-130.74,2.67-2.67h24l2.67,2.67V766.8Z"/><path class="cls-1" d="M1611.84,916.45l-2.67,2.67h-34.69l-2.67-2.67-58.7-154.75V735l2.67-2.67h24l2.67,2.67,48,130.74h2.67l48-130.74,2.67-2.67h24l2.67,2.67V761.7Z"/><path class="cls-1" d="M1606.74,911.35l-2.67,2.67h-34.69l-2.67-2.67L1508,756.6V729.91l2.67-2.67h24l2.67,2.67,48,130.74h2.67l48-130.74,2.67-2.67h24l2.67,2.67V756.6Z"/><path class="cls-1" d="M1601.64,906.25l-2.67,2.67h-34.69l-2.67-2.67-58.7-154.75V724.82l2.67-2.67h24l2.67,2.67,48,130.74H1583l48-130.74,2.67-2.67h24l2.67,2.67V751.5Z"/><path class="cls-1" d="M1596.54,901.15l-2.67,2.67h-34.69l-2.67-2.67-58.7-154.75V719.72l2.67-2.67h24l2.67,2.67,48,130.74h2.67l48-130.74,2.67-2.67h24l2.67,2.67V746.4Z"/><path class="cls-1" d="M1591.44,896.05l-2.67,2.67h-34.69l-2.67-2.67-58.7-154.75V714.62l2.67-2.67h24l2.67,2.67,48,130.74h2.67l48-130.74,2.67-2.67h24l2.67,2.67V741.3Z"/><path class="cls-1" d="M1586.34,891l-2.67,2.67H1549l-2.67-2.67-58.7-154.75V709.52l2.67-2.67h24l2.67,2.67,48,130.74h2.67l48-130.74,2.67-2.67h24l2.67,2.67V736.2Z"/><path class="cls-1" d="M1581.24,885.85l-2.67,2.67h-34.69l-2.67-2.67-58.7-154.75V704.42l2.67-2.67h24l2.67,2.67,48,130.74h2.67l48-130.74,2.67-2.67h24l2.67,2.67V731.1Z"/><path class="cls-1" d="M1576.14,880.75l-2.67,2.67h-34.69l-2.67-2.67L1477.42,726V699.32l2.67-2.67h24l2.67,2.67,48,130.74h2.67l48-130.74,2.67-2.67h24l2.67,2.67V726Z"/><path class="cls-1" d="M1571,875.65l-2.67,2.67h-34.69l-2.67-2.67-58.7-154.75V694.22l2.67-2.67h24l2.67,2.67,48,130.74h2.67l48-130.74,2.67-2.67h24l2.67,2.67V720.9Z"/><path class="cls-1" d="M1565.94,870.55l-2.67,2.67h-34.69l-2.67-2.67-58.7-154.75V689.12l2.67-2.67h24l2.67,2.67,48,130.74h2.67l48-130.74,2.67-2.67h24l2.67,2.67V715.8Z"/><path class="cls-1" d="M1560.84,865.46l-2.67,2.67h-34.69l-2.67-2.67-58.7-154.75V684l2.67-2.67h24l2.67,2.67,48,130.74h2.67l48-130.74,2.67-2.67h24l2.67,2.67V710.7Z"/><path class="cls-1" d="M1555.74,860.36l-2.67,2.67h-34.69l-2.67-2.67L1457,705.6V678.92l2.67-2.67h24l2.67,2.67,48,130.74h2.67l48-130.74,2.67-2.67h24l2.67,2.67V705.6Z"/><path class="cls-1" d="M1550.64,855.26l-2.67,2.67h-34.69l-2.67-2.67-58.7-154.75V673.82l2.67-2.67h24l2.67,2.67,48,130.74H1532l48-130.74,2.67-2.67h24l2.67,2.67V700.5Z"/><path class="cls-1" d="M1545.54,850.16l-2.67,2.67h-34.69l-2.67-2.67-58.7-154.75V668.72l2.67-2.67h24l2.67,2.67,48,130.74h2.67l48-130.74,2.67-2.67h24l2.67,2.67V695.4Z"/><path class="cls-1" d="M1540.44,845.06l-2.67,2.67h-34.69l-2.67-2.67-58.7-154.75V663.62l2.67-2.67h24l2.67,2.67,48,130.74h2.67l48-130.74,2.67-2.67h24l2.67,2.67V690.3Z"/><path class="cls-1" d="M1535.35,840l-2.67,2.67H1498l-2.67-2.67-58.7-154.75V658.52l2.67-2.67h24l2.67,2.67,48,130.74h2.67l48-130.74,2.67-2.67h24l2.67,2.67v26.68Z"/><path class="cls-1" d="M1530.25,834.86l-2.67,2.67h-34.69l-2.67-2.67-58.7-154.75V653.42l2.67-2.67h24l2.67,2.67,48,130.74h2.67l48-130.74,2.67-2.67h24l2.67,2.67v26.68Z"/><path class="cls-1" d="M1525.15,829.76l-2.67,2.67h-34.69l-2.67-2.67L1426.43,675V648.32l2.67-2.67h24l2.67,2.67,48,130.74h2.67l48-130.74,2.67-2.67h24l2.67,2.67V675Z"/><path class="cls-1" d="M1520,824.66l-2.67,2.67h-34.69l-2.67-2.67-58.7-154.75V643.23l2.67-2.67h24l2.67,2.67,48,130.74h2.67l48-130.74,2.67-2.67h24l2.67,2.67v26.68Z"/><path class="cls-1" d="M1514.95,819.56l-2.67,2.67h-34.69l-2.67-2.67-58.7-154.75V638.13l2.67-2.67h24l2.67,2.67,48,130.74h2.67l48-130.74,2.67-2.67h24l2.67,2.67v26.68Z"/><path class="cls-1" d="M1509.85,814.46l-2.67,2.67H1472.5l-2.67-2.67-58.7-154.75V633l2.67-2.67h24l2.67,2.67,48,130.74h2.67l48-130.74,2.67-2.67h24l2.67,2.67v26.68Z"/><path class="cls-1" d="M1504.75,809.36l-2.67,2.67H1467.4l-2.67-2.67L1406,654.61V627.93l2.67-2.67h24l2.67,2.67,48,130.74h2.67l48-130.74,2.67-2.67h24l2.67,2.67v26.68Z"/><path class="cls-1" d="M1499.65,804.26l-2.67,2.67H1462.3l-2.67-2.67-58.7-154.75V622.83l2.67-2.67h24l2.67,2.67,48,130.74H1481l48-130.74,2.67-2.67h24l2.67,2.67v26.68Z"/><path class="cls-1" d="M1494.55,799.16l-2.67,2.67H1457.2l-2.67-2.67-58.7-154.75V617.73l2.67-2.67h24l2.67,2.67,48,130.74h2.67l48-130.74,2.67-2.67h24l2.67,2.67v26.68Z"/><path class="cls-1" d="M1489.45,794.06l-2.67,2.67H1452.1l-2.67-2.67-58.7-154.75V612.63l2.67-2.67h24l2.67,2.67,48,130.74h2.67l48-130.74,2.67-2.67h24l2.67,2.67v26.68Z"/><path class="cls-1" d="M1484.35,789l-2.67,2.67H1447l-2.67-2.67-58.7-154.75V607.53l2.67-2.67h24l2.67,2.67,48,130.74h2.67l48-130.74,2.67-2.67h24l2.67,2.67v26.68Z"/><path class="cls-1" d="M1479.25,783.87l-2.67,2.67H1441.9l-2.67-2.67-58.7-154.75V602.43l2.67-2.67h24l2.67,2.67,48,130.74h2.67l48-130.74,2.67-2.67h24l2.67,2.67v26.68Z"/><path class="cls-1" d="M1474.15,778.77l-2.67,2.67H1436.8l-2.67-2.67L1375.43,624V597.33l2.67-2.67h24l2.67,2.67,48,130.74h2.67l48-130.74,2.67-2.67h24l2.67,2.67V624Z"/><path class="cls-1" d="M1469.05,773.67l-2.67,2.67H1431.7l-2.67-2.67-58.7-154.75V592.23l2.67-2.67h24l2.67,2.67,48,130.74h2.67l48-130.74,2.67-2.67h24l2.67,2.67v26.68Z"/><path class="cls-1" d="M1464,768.57l-2.67,2.67H1426.6l-2.67-2.67-58.7-154.75V587.13l2.67-2.67h24l2.67,2.67,48,130.74h2.67l48-130.74,2.67-2.67h24l2.67,2.67v26.68Z"/><path class="cls-1" d="M1458.85,763.47l-2.67,2.67H1421.5l-2.67-2.67-58.7-154.75V582l2.67-2.67h24l2.67,2.67,48,130.74h2.67l48-130.74,2.67-2.67h24l2.67,2.67v26.68Z"/><path class="cls-1" d="M1453.76,758.37l-2.67,2.67H1416.4l-2.67-2.67L1355,603.62V576.93l2.67-2.67h24l2.67,2.67,48,130.74h2.67l48-130.74,2.67-2.67h24l2.67,2.67v26.68Z"/><path class="cls-1" d="M1448.66,753.27l-2.67,2.67H1411.3l-2.67-2.67-58.7-154.75V571.83l2.67-2.67h24l2.67,2.67,48,130.74H1430l48-130.74,2.67-2.67h24l2.67,2.67v26.68Z"/><path class="cls-1" d="M1443.56,748.17l-2.67,2.67H1406.2l-2.67-2.67-58.7-154.75V566.73l2.67-2.67h24l2.67,2.67,48,130.74h2.67l48-130.74,2.67-2.67h24l2.67,2.67v26.68Z"/><path class="cls-1" d="M1438.46,743.07l-2.67,2.67H1401.1l-2.67-2.67-58.7-154.75V561.64l2.67-2.67h24l2.67,2.67,48,130.74h2.67l48-130.74,2.67-2.67h24l2.67,2.67v26.68Z"/><path class="cls-1" d="M1433.36,738l-2.67,2.67H1396l-2.67-2.67-58.7-154.75V556.54l2.67-2.67h24l2.67,2.67,48,130.74h2.67l48-130.74,2.67-2.67h24l2.67,2.67v26.68Z"/><path class="cls-1" d="M1428.26,732.87l-2.67,2.67h-34.69l-2.67-2.67-58.7-154.75V551.44l2.67-2.67h24l2.67,2.67,48,130.74h2.67l48-130.74,2.67-2.67h24l2.67,2.67v26.68Z"/><path class="cls-1" d="M1423.16,727.77l-2.67,2.67h-34.69l-2.67-2.67L1324.44,573V546.34l2.67-2.67h24l2.67,2.67,48,130.74h2.67l48-130.74,2.67-2.67h24l2.67,2.67V573Z"/><path class="cls-1" d="M1418.06,722.67l-2.67,2.67h-34.69l-2.67-2.67-58.7-154.75V541.24l2.67-2.67h24l2.67,2.67,48,130.74h2.67l48-130.74,2.67-2.67h24l2.67,2.67v26.68Z"/><path class="cls-1" d="M1413,717.57l-2.67,2.67h-34.69l-2.67-2.67-58.7-154.75V536.14l2.67-2.67h24l2.67,2.67,48,130.74h2.67l48-130.74,2.67-2.67h24l2.67,2.67v26.68Z"/><path class="cls-1" d="M1407.86,712.47l-2.67,2.67h-34.69l-2.67-2.67-58.7-154.75V531l2.67-2.67h24l2.67,2.67,48,130.74h2.67l48-130.74,2.67-2.67h24l2.67,2.67v26.68Z"/><path class="cls-1" d="M1402.76,707.37l-2.67,2.67h-34.69l-2.67-2.67L1304,552.62V525.94l2.67-2.67h24l2.67,2.67,48,130.74h2.67l48-130.74,2.67-2.67h24l2.67,2.67v26.68Z"/><path class="cls-1" d="M1397.66,702.28l-2.67,2.67h-34.69l-2.67-2.67-58.7-154.75V520.84l2.67-2.67h24l2.67,2.67,48,130.74H1379l48-130.74,2.67-2.67h24l2.67,2.67v26.68Z"/><path class="cls-1" d="M1392.56,697.18l-2.67,2.67h-34.69l-2.67-2.67-58.7-154.75V515.74l2.67-2.67h24l2.67,2.67,48,130.74h2.67l48-130.74,2.67-2.67h24l2.67,2.67v26.68Z"/><path class="cls-1" d="M1387.46,692.08l-2.67,2.67h-34.69l-2.67-2.67-58.7-154.75V510.64l2.67-2.67h24l2.67,2.67,48,130.74h2.67l48-130.74,2.67-2.67h24l2.67,2.67v26.68Z"/><path class="cls-1" d="M1382.36,687l-2.67,2.67H1345l-2.67-2.67-58.7-154.75V505.54l2.67-2.67h24l2.67,2.67,48,130.74h2.67l48-130.74,2.67-2.67h24l2.67,2.67v26.68Z"/><path class="cls-1" d="M1377.26,681.88l-2.67,2.67h-34.69l-2.67-2.67-58.7-154.75V500.44l2.67-2.67h24l2.67,2.67,48,130.74h2.67l48-130.74,2.67-2.67h24l2.67,2.67v26.68Z"/><path class="cls-1" d="M1372.17,676.78l-2.67,2.67h-34.69l-2.67-2.67L1273.44,522V495.34l2.67-2.67h24l2.67,2.67,48,130.74h2.67l48-130.74,2.67-2.67h24l2.67,2.67V522Z"/><path class="cls-1" d="M1367.07,671.68l-2.67,2.67h-34.69l-2.67-2.67-58.7-154.75V490.24l2.67-2.67h24l2.67,2.67,48,130.74h2.67l48-130.74,2.67-2.67h24l2.67,2.67v26.68Z"/><path class="cls-1" d="M1362,666.58l-2.67,2.67h-34.69l-2.67-2.67-58.7-154.75V485.14l2.67-2.67h24l2.67,2.67,48,130.74h2.67l48-130.74,2.67-2.67h24l2.67,2.67v26.68Z"/><path class="cls-1" d="M1356.87,661.48l-2.67,2.67h-34.69l-2.67-2.67-58.7-154.75V480l2.67-2.67h24l2.67,2.67,48,130.74h2.67l48-130.74,2.67-2.67h24l2.67,2.67v26.68Z"/><path class="cls-1" d="M1351.77,656.38,1349.1,659h-34.69l-2.67-2.67L1253,501.63V474.95l2.67-2.67h24l2.67,2.67,48,130.74h2.67l48-130.74,2.67-2.67h24l2.67,2.67v26.68Z"/><path class="cls-1" d="M1346.67,651.28l-2.67,2.67h-34.69l-2.67-2.67-58.7-154.75V469.85l2.67-2.67h24l2.67,2.67,48,130.74H1328l48-130.74,2.67-2.67h24l2.67,2.67v26.68Z"/><path class="cls-1" d="M1341.57,646.18l-2.67,2.67h-34.69l-2.67-2.67-58.7-154.75V464.75l2.67-2.67h24l2.67,2.67,48,130.74h2.67l48-130.74,2.67-2.67h24l2.67,2.67v26.68Z"/><path class="cls-1" d="M1336.47,641.08l-2.67,2.67h-34.69l-2.67-2.67-58.7-154.75V459.65l2.67-2.67h24l2.67,2.67,48,130.74h2.67l48-130.74,2.67-2.67h24l2.67,2.67v26.68Z"/><path class="cls-1" d="M1331.37,636l-2.67,2.67H1294l-2.67-2.67-58.7-154.75V454.55l2.67-2.67h24l2.67,2.67,48,130.74h2.67l48-130.74,2.67-2.67h24l2.67,2.67v26.68Z"/><path class="cls-1" d="M1326.27,630.88l-2.67,2.67h-34.69l-2.67-2.67-58.7-154.75V449.45l2.67-2.67h24l2.67,2.67,48,130.74h2.67l48-130.74,2.67-2.67h24l2.67,2.67v26.68Z"/><path class="cls-1" d="M1321.17,625.78l-2.67,2.67h-34.69l-2.67-2.67L1222.45,471V444.35l2.67-2.67h24l2.67,2.67,48,130.74h2.67l48-130.74,2.67-2.67h24l2.67,2.67V471Z"/><path class="cls-1" d="M1316.07,620.69l-2.67,2.67h-34.69l-2.67-2.67-58.7-154.75V439.25l2.67-2.67h24l2.67,2.67,48,130.74h2.67l48-130.74,2.67-2.67h24l2.67,2.67v26.68Z"/><path class="cls-1" d="M1311,615.59l-2.67,2.67h-34.69l-2.67-2.67-58.7-154.75V434.15l2.67-2.67h24l2.67,2.67,48,130.74h2.67l48-130.74,2.67-2.67h24l2.67,2.67v26.68Z"/><path class="cls-1" d="M1305.87,610.49l-2.67,2.67h-34.69l-2.67-2.67-58.7-154.75V429.05l2.67-2.67h24l2.67,2.67,48,130.74h2.67l48-130.74,2.67-2.67h24l2.67,2.67v26.68Z"/><path class="cls-1" d="M1300.77,605.39l-2.67,2.67h-34.69l-2.67-2.67-58.7-154.75V424l2.67-2.67h24l2.67,2.67,48,130.74h2.67l48-130.74,2.67-2.67h24l2.67,2.67v26.68Z"/><path class="cls-1" d="M1295.67,600.29,1293,603h-34.69l-2.67-2.67L1197,445.53V418.85l2.67-2.67h24l2.67,2.67,48,130.74H1277l48-130.74,2.67-2.67h24l2.67,2.67v26.68Z"/><path class="cls-1" d="M1290.58,595.19l-2.67,2.67h-34.69l-2.67-2.67-58.7-154.75V413.75l2.67-2.67h24l2.67,2.67,48,130.74h2.67l48-130.74,2.67-2.67h24l2.67,2.67v26.68Z"/><path class="cls-1" d="M1285.48,590.09l-2.67,2.67h-34.69l-2.67-2.67-58.7-154.75V408.65l2.67-2.67h24l2.67,2.67,48,130.74h2.67l48-130.74,2.67-2.67h24l2.67,2.67v26.68Z"/><path class="cls-1" d="M1280.38,585l-2.67,2.67H1243l-2.67-2.67-58.7-154.75V403.55l2.67-2.67h24l2.67,2.67,48,130.74h2.67l48-130.74,2.67-2.67h24l2.67,2.67v26.68Z"/><path class="cls-1" d="M1275.28,579.89l-2.67,2.67h-34.69l-2.67-2.67-58.7-154.75V398.46l2.67-2.67h24l2.67,2.67,48,130.74h2.67l48-130.74,2.67-2.67h24l2.67,2.67v26.68Z"/><path class="cls-1" d="M1270.18,574.79l-2.67,2.67h-34.69l-2.67-2.67L1171.46,420V393.36l2.67-2.67h24l2.67,2.67,48,130.74h2.67l48-130.74,2.67-2.67h24l2.67,2.67V420Z"/><path class="cls-1" d="M1265.08,569.69l-2.67,2.67h-34.69l-2.67-2.67-58.7-154.75V388.26l2.67-2.67h24l2.67,2.67,48,130.74h2.67l48-130.74,2.67-2.67h24l2.67,2.67v26.68Z"/><path class="cls-1" d="M1260,564.59l-2.67,2.67h-34.69l-2.67-2.67-58.7-154.75V383.16l2.67-2.67h24l2.67,2.67,48,130.74h2.67l48-130.74,2.67-2.67h24l2.67,2.67v26.68Z"/><path class="cls-1" d="M1254.88,559.49l-2.67,2.67h-34.69l-2.67-2.67-58.7-154.75V378.06l2.67-2.67h24l2.67,2.67,48,130.74h2.67l48-130.74,2.67-2.67h24l2.67,2.67v26.68Z"/><path class="cls-1" d="M1249.78,554.39l-2.67,2.67h-34.69l-2.67-2.67-58.7-154.75V373l2.67-2.67h24l2.67,2.67,48,130.74h2.67l48-130.74,2.67-2.67h24l2.67,2.67v26.68Z"/><path class="cls-1" d="M1244.68,549.29,1242,552h-34.69l-2.67-2.67L1146,394.54V367.86l2.67-2.67h24l2.67,2.67,48,130.74H1226l48-130.74,2.67-2.67h24l2.67,2.67v26.68Z"/><path class="cls-1" d="M1239.58,544.19l-2.67,2.67h-34.69l-2.67-2.67-58.7-154.75V362.76l2.67-2.67h24l2.67,2.67,48,130.74h2.67l48-130.74,2.67-2.67h24l2.67,2.67v26.68Z"/><path class="cls-1" d="M1234.48,539.1l-2.67,2.67h-34.69l-2.67-2.67-58.7-154.75V357.66l2.67-2.67h24l2.67,2.67,48,130.74h2.67l48-130.74,2.67-2.67h24l2.67,2.67v26.68Z"/><path class="cls-1" d="M1229.38,534l-2.67,2.67H1192l-2.67-2.67-58.7-154.75V352.56l2.67-2.67h24l2.67,2.67,48,130.74h2.67l48-130.74,2.67-2.67h24l2.67,2.67v26.68Z"/><path class="cls-1" d="M1224.28,528.9l-2.67,2.67h-34.69l-2.67-2.67-58.7-154.75V347.46l2.67-2.67h24l2.67,2.67,48,130.74h2.67l48-130.74,2.67-2.67h24l2.67,2.67v26.68Z"/><path class="cls-1" d="M1219.18,523.8l-2.67,2.67h-34.69l-2.67-2.67L1120.46,369V342.36l2.67-2.67h24l2.67,2.67,48,130.74h2.67l48-130.74,2.67-2.67h24l2.67,2.67V369Z"/><path class="cls-1" d="M1214.08,518.7l-2.67,2.67h-34.69l-2.67-2.67-58.7-154.75V337.26l2.67-2.67h24l2.67,2.67,48,130.74h2.67l48-130.74,2.67-2.67h24l2.67,2.67v26.68Z"/><path class="cls-1" d="M1209,513.6l-2.67,2.67h-34.69L1169,513.6l-58.7-154.75V332.16l2.67-2.67h24l2.67,2.67,48,130.74h2.67l48-130.74,2.67-2.67h24l2.67,2.67v26.68Z"/><path class="cls-1" d="M1203.89,508.5l-2.67,2.67h-34.69l-2.67-2.67-58.7-154.75V327.06l2.67-2.67h24l2.67,2.67,48,130.74h2.67l48-130.74,2.67-2.67h24l2.67,2.67v26.68Z"/><path class="cls-1" d="M1198.79,503.4l-2.67,2.67h-34.69l-2.67-2.67-58.7-154.75V322l2.67-2.67h24l2.67,2.67,48,130.74h2.67l48-130.74,2.67-2.67h24l2.67,2.67v26.68Z"/><path class="cls-1" d="M1193.69,498.3,1191,501h-34.69l-2.67-2.67L1095,343.55V316.87l2.67-2.67h24l2.67,2.67,48,130.74H1175l48-130.74,2.67-2.67h24l2.67,2.67v26.68Z"/><path class="cls-1" d="M1188.59,493.2l-2.67,2.67h-34.69l-2.67-2.67-58.7-154.75V311.77l2.67-2.67h24l2.67,2.67,48,130.74h2.67l48-130.74,2.67-2.67h24l2.67,2.67v26.68Z"/><path class="cls-1" d="M1183.49,488.1l-2.67,2.67h-34.69l-2.67-2.67-58.7-154.75V306.67l2.67-2.67h24l2.67,2.67,48,130.74h2.67l48-130.74,2.67-2.67h24l2.67,2.67v26.68Z"/><path class="cls-1" d="M1178.39,483l-2.67,2.67H1141l-2.67-2.67-58.7-154.75V301.57l2.67-2.67h24l2.67,2.67,48,130.74h2.67l48-130.74,2.67-2.67h24l2.67,2.67v26.68Z"/><path class="cls-1" d="M1173.29,477.9l-2.67,2.67h-34.69l-2.67-2.67-58.7-154.75V296.47l2.67-2.67h24l2.67,2.67,48,130.74h2.67l48-130.74,2.67-2.67h24l2.67,2.67v26.68Z"/><path class="cls-1" d="M1168.19,472.8l-2.67,2.67h-34.69l-2.67-2.67L1069.47,318V291.37l2.67-2.67h24l2.67,2.67,48,130.74h2.67l48-130.74,2.67-2.67h24l2.67,2.67V318Z"/><path class="cls-1" d="M1163.09,467.7l-2.67,2.67h-34.69l-2.67-2.67L1064.37,313V286.27l2.67-2.67h24l2.67,2.67,48,130.74h2.67l48-130.74,2.67-2.67h24l2.67,2.67V313Z"/><path class="cls-1" d="M1158,462.6l-2.67,2.67h-34.69L1118,462.6l-58.7-154.75V281.17l2.67-2.67h24l2.67,2.67,48,130.74h2.67l48-130.74,2.67-2.67h24l2.67,2.67v26.68Z"/><path class="cls-1" d="M1152.89,457.51l-2.67,2.67h-34.69l-2.67-2.67-58.7-154.75V276.07l2.67-2.67h24l2.67,2.67,48,130.74h2.67l48-130.74,2.67-2.67h24l2.67,2.67v26.68Z"/><path class="cls-1" d="M1147.79,452.41l-2.67,2.67h-34.69l-2.67-2.67-58.7-154.75V271l2.67-2.67h24l2.67,2.67,48,130.74h2.67l48-130.74,2.67-2.67h24l2.67,2.67v26.68Z"/><path class="cls-1" d="M1142.69,447.31,1140,450h-34.69l-2.67-2.67L1044,292.55V265.87l2.67-2.67h24l2.67,2.67,48,130.74H1124l48-130.74,2.67-2.67h24l2.67,2.67v26.68Z"/><path class="cls-1" d="M1137.59,442.21l-2.67,2.67h-34.69l-2.67-2.67-58.7-154.75V260.77l2.67-2.67h24l2.67,2.67,48,130.74h2.67l48-130.74,2.67-2.67h24l2.67,2.67v26.68Z"/></g></svg>