<svg xmlns="http://www.w3.org/2000/svg" viewBox="0 0 1896 5154.75"><defs><style>.cls-1{fill:#fff;stroke:#de761c;stroke-width:3px;}</style></defs><title>Artboard 1</title><g id="Layer_2" data-name="Layer 2"><g id="_Group_" data-name="&lt;Group&gt;"><path class="cls-1" d="M2042.1,2244.43c0,48-26.68,74.71-74.71,74.71s-74.71-26.68-74.71-74.71V2132.37l2.67-2.67h32l2.67,2.67v112.06c0,26.68,10.67,42.69,37.35,42.69s37.35-16,37.35-42.69V2132.37l2.67-2.67h32l2.67,2.67Z"/><path class="cls-1" d="M2037,2249.52c0,48-26.68,74.71-74.71,74.71s-74.71-26.68-74.71-74.71V2137.46l2.67-2.67h32l2.67,2.67v112.06c0,26.68,10.67,42.69,37.35,42.69s37.35-16,37.35-42.69V2137.46l2.67-2.67h32l2.67,2.67Z"/><path class="cls-1" d="M2031.92,2254.6c0,48-26.68,74.71-74.71,74.71s-74.71-26.68-74.71-74.71V2142.54l2.67-2.67h32l2.67,2.67V2254.6c0,26.68,10.67,42.69,37.35,42.69s37.35-16,37.35-42.69V2142.54l2.67-2.67h32l2.67,2.67Z"/><path class="cls-1" d="M2026.84,2259.69c0,48-26.68,74.71-74.71,74.71s-74.71-26.68-74.71-74.71V2147.63l2.67-2.67h32l2.67,2.67v112.06c0,26.68,10.67,42.69,37.35,42.69s37.35-16,37.35-42.69V2147.63l2.67-2.67h32l2.67,2.67Z"/><path class="cls-1" d="M2021.75,2264.78c0,48-26.68,74.71-74.71,74.71s-74.71-26.68-74.71-74.71V2152.72L1875,2150h32l2.67,2.67v112.06c0,26.68,10.67,42.69,37.35,42.69s37.35-16,37.35-42.69V2152.72l2.67-2.67h32l2.67,2.67Z"/><path class="cls-1" d="M2016.66,2269.87c0,48-26.68,74.71-74.71,74.71s-74.71-26.68-74.71-74.71V2157.8l2.67-2.67h32l2.67,2.67v112.06c0,26.68,10.67,42.69,37.35,42.69s37.35-16,37.35-42.69V2157.8l2.67-2.67h32l2.67,2.67Z"/><path class="cls-1" d="M2011.57,2275c0,48-26.68,74.71-74.71,74.71s-74.71-26.68-74.71-74.71V2162.89l2.67-2.67h32l2.67,2.67V2275c0,26.68,10.67,42.69,37.35,42.69s37.35-16,37.35-42.69V2162.89l2.67-2.67h32l2.67,2.67Z"/><path class="cls-1" d="M2006.49,2280c0,48-26.68,74.71-74.71,74.71s-74.71-26.68-74.71-74.71V2168l2.67-2.67h32l2.67,2.67V2280c0,26.68,10.67,42.69,37.35,42.69s37.35-16,37.35-42.69V2168l2.67-2.67h32l2.67,2.67Z"/><path class="cls-1" d="M2001.4,2285.13c0,48-26.68,74.71-74.71,74.71s-74.71-26.68-74.71-74.71V2173.07l2.67-2.67h32l2.67,2.67v112.06c0,26.68,10.67,42.69,37.35,42.69s37.35-16,37.35-42.69V2173.07l2.67-2.67h32l2.67,2.67Z"/><path class="cls-1" d="M1996.31,2290.22c0,48-26.68,74.71-74.71,74.71s-74.71-26.68-74.71-74.71V2178.15l2.67-2.67h32l2.67,2.67v112.06c0,26.68,10.67,42.69,37.35,42.69s37.35-16,37.35-42.69V2178.15l2.67-2.67h32l2.67,2.67Z"/><path class="cls-1" d="M1991.23,2295.3c0,48-26.68,74.71-74.71,74.71s-74.71-26.68-74.71-74.71V2183.24l2.67-2.67h32l2.67,2.67V2295.3c0,26.68,10.67,42.69,37.35,42.69s37.35-16,37.35-42.69V2183.24l2.67-2.67h32l2.67,2.67Z"/><path class="cls-1" d="M1986.14,2300.39c0,48-26.68,74.71-74.71,74.71s-74.71-26.68-74.71-74.71V2188.33l2.67-2.67h32l2.67,2.67v112.06c0,26.68,10.67,42.69,37.35,42.69s37.35-16,37.35-42.69V2188.33l2.67-2.67h32l2.67,2.67Z"/><path class="cls-1" d="M1981.05,2305.48c0,48-26.68,74.71-74.71,74.71s-74.71-26.68-74.71-74.71V2193.41l2.67-2.67h32l2.67,2.67v112.06c0,26.68,10.67,42.69,37.35,42.69s37.35-16,37.35-42.69V2193.41l2.67-2.67h32l2.67,2.67Z"/><path class="cls-1" d="M1976,2310.56c0,48-26.68,74.71-74.71,74.71s-74.71-26.68-74.71-74.71V2198.5l2.67-2.67h32l2.67,2.67v112.06c0,26.68,10.67,42.69,37.35,42.69s37.35-16,37.35-42.69V2198.5l2.67-2.67h32l2.67,2.67Z"/><path class="cls-1" d="M1970.88,2315.65c0,48-26.68,74.71-74.71,74.71s-74.71-26.68-74.71-74.71V2203.59l2.67-2.67h32l2.67,2.67v112.06c0,26.68,10.67,42.69,37.35,42.69s37.35-16,37.35-42.69V2203.59l2.67-2.67h32l2.67,2.67Z"/><path class="cls-1" d="M1965.79,2320.74c0,48-26.68,74.71-74.71,74.71s-74.71-26.68-74.71-74.71V2208.68L1819,2206h32l2.67,2.67v112.06c0,26.68,10.67,42.69,37.35,42.69s37.35-16,37.35-42.69V2208.68l2.67-2.67h32l2.67,2.67Z"/><path class="cls-1" d="M1960.7,2325.83c0,48-26.68,74.71-74.71,74.71s-74.71-26.68-74.71-74.71V2213.76l2.67-2.67h32l2.67,2.67v112.06c0,26.68,10.67,42.69,37.35,42.69s37.35-16,37.35-42.69V2213.76l2.67-2.67h32l2.67,2.67Z"/><path class="cls-1" d="M1955.62,2330.91c0,48-26.68,74.71-74.71,74.71s-74.71-26.68-74.71-74.71V2218.85l2.67-2.67h32l2.67,2.67v112.06c0,26.68,10.67,42.69,37.35,42.69s37.35-16,37.35-42.69V2218.85l2.67-2.67h32l2.67,2.67Z"/><path class="cls-1" d="M1950.53,2336c0,48-26.68,74.71-74.71,74.71s-74.71-26.68-74.71-74.71V2223.94l2.67-2.67h32l2.67,2.67V2336c0,26.68,10.67,42.69,37.35,42.69s37.35-16,37.35-42.69V2223.94l2.67-2.67h32l2.67,2.67Z"/><path class="cls-1" d="M1945.44,2341.09c0,48-26.68,74.71-74.71,74.71s-74.71-26.68-74.71-74.71V2229l2.67-2.67h32l2.67,2.67v112.06c0,26.68,10.67,42.69,37.35,42.69s37.35-16,37.35-42.69V2229l2.67-2.67h32l2.67,2.67Z"/><path class="cls-1" d="M1940.35,2346.17c0,48-26.68,74.71-74.71,74.71s-74.71-26.68-74.71-74.71V2234.11l2.67-2.67h32l2.67,2.67v112.06c0,26.68,10.67,42.69,37.35,42.69s37.35-16,37.35-42.69V2234.11l2.67-2.67h32l2.67,2.67Z"/><path class="cls-1" d="M1935.27,2351.26c0,48-26.68,74.71-74.71,74.71s-74.71-26.68-74.71-74.71V2239.2l2.67-2.67h32l2.67,2.67v112.06c0,26.68,10.67,42.69,37.35,42.69s37.35-16,37.35-42.69V2239.2l2.67-2.67h32l2.67,2.67Z"/><path class="cls-1" d="M1930.18,2356.35c0,48-26.68,74.71-74.71,74.71s-74.71-26.68-74.71-74.71V2244.29l2.67-2.67h32l2.67,2.67v112.06c0,26.68,10.67,42.69,37.35,42.69s37.35-16,37.35-42.69V2244.29l2.67-2.67h32l2.67,2.67Z"/><path class="cls-1" d="M1925.09,2361.44c0,48-26.68,74.71-74.71,74.71s-74.71-26.68-74.71-74.71V2249.37l2.67-2.67h32l2.67,2.67v112.06c0,26.68,10.67,42.69,37.35,42.69s37.35-16,37.35-42.69V2249.37l2.67-2.67h32l2.67,2.67Z"/><path class="cls-1" d="M1920,2366.52c0,48-26.68,74.71-74.71,74.71s-74.71-26.68-74.71-74.71V2254.46l2.67-2.67h32l2.67,2.67v112.06c0,26.68,10.67,42.69,37.35,42.69s37.35-16,37.35-42.69V2254.46l2.67-2.67h32l2.67,2.67Z"/><path class="cls-1" d="M1914.92,2371.61c0,48-26.68,74.71-74.71,74.71s-74.71-26.68-74.71-74.71V2259.55l2.67-2.67h32l2.67,2.67v112.06c0,26.68,10.67,42.69,37.35,42.69s37.35-16,37.35-42.69V2259.55l2.67-2.67h32l2.67,2.67Z"/><path class="cls-1" d="M1909.83,2376.7c0,48-26.68,74.71-74.71,74.71s-74.71-26.68-74.71-74.71V2264.64l2.67-2.67h32l2.67,2.67V2376.7c0,26.68,10.67,42.69,37.35,42.69s37.35-16,37.35-42.69V2264.64l2.67-2.67h32l2.67,2.67Z"/><path class="cls-1" d="M1904.74,2381.79c0,48-26.68,74.71-74.71,74.71s-74.71-26.68-74.71-74.71V2269.72l2.67-2.67h32l2.67,2.67v112.06c0,26.68,10.67,42.69,37.35,42.69s37.35-16,37.35-42.69V2269.72l2.67-2.67h32l2.67,2.67Z"/><path class="cls-1" d="M1899.66,2386.87c0,48-26.68,74.71-74.71,74.71s-74.71-26.68-74.71-74.71V2274.81l2.67-2.67h32l2.67,2.67v112.06c0,26.68,10.67,42.69,37.35,42.69s37.35-16,37.35-42.69V2274.81l2.67-2.67h32l2.67,2.67Z"/><path class="cls-1" d="M1894.57,2392c0,48-26.68,74.71-74.71,74.71s-74.71-26.68-74.71-74.71V2279.9l2.67-2.67h32l2.67,2.67V2392c0,26.68,10.67,42.69,37.35,42.69s37.35-16,37.35-42.69V2279.9l2.67-2.67h32l2.67,2.67Z"/><path class="cls-1" d="M1889.48,2397c0,48-26.68,74.71-74.71,74.71s-74.71-26.68-74.71-74.71V2285l2.67-2.67h32l2.67,2.67V2397c0,26.68,10.67,42.69,37.35,42.69s37.35-16,37.35-42.69V2285l2.67-2.67h32l2.67,2.67Z"/><path class="cls-1" d="M1884.39,2402.13c0,48-26.68,74.71-74.71,74.71s-74.71-26.68-74.71-74.71V2290.07l2.67-2.67h32l2.67,2.67v112.06c0,26.68,10.67,42.69,37.35,42.69s37.35-16,37.35-42.69V2290.07l2.67-2.67h32l2.67,2.67Z"/><path class="cls-1" d="M1879.31,2407.22c0,48-26.68,74.71-74.71,74.71s-74.71-26.68-74.71-74.71V2295.16l2.67-2.67h32l2.67,2.67v112.06c0,26.68,10.67,42.69,37.35,42.69s37.35-16,37.35-42.69V2295.16l2.67-2.67h32l2.67,2.67Z"/><path class="cls-1" d="M1874.22,2412.31c0,48-26.68,74.71-74.71,74.71s-74.71-26.68-74.71-74.71V2300.25l2.67-2.67h32l2.67,2.67v112.06c0,26.68,10.67,42.69,37.35,42.69s37.35-16,37.35-42.69V2300.25l2.67-2.67h32l2.67,2.67Z"/><path class="cls-1" d="M1869.13,2417.4c0,48-26.68,74.71-74.71,74.71s-74.71-26.68-74.71-74.71V2305.33l2.67-2.67h32l2.67,2.67V2417.4c0,26.68,10.67,42.69,37.35,42.69s37.35-16,37.35-42.69V2305.33l2.67-2.67h32l2.67,2.67Z"/><path class="cls-1" d="M1864,2422.48c0,48-26.68,74.71-74.71,74.71s-74.71-26.68-74.71-74.71V2310.42l2.67-2.67h32l2.67,2.67v112.06c0,26.68,10.67,42.69,37.35,42.69s37.35-16,37.35-42.69V2310.42l2.67-2.67h32l2.67,2.67Z"/><path class="cls-1" d="M1859,2427.57c0,48-26.68,74.71-74.71,74.71s-74.71-26.68-74.71-74.71V2315.51l2.67-2.67h32l2.67,2.67v112.06c0,26.68,10.67,42.69,37.35,42.69s37.35-16,37.35-42.69V2315.51l2.67-2.67h32l2.67,2.67Z"/><path class="cls-1" d="M1853.87,2432.66c0,48-26.68,74.71-74.71,74.71s-74.71-26.68-74.71-74.71V2320.6l2.67-2.67h32l2.67,2.67v112.06c0,26.68,10.67,42.69,37.35,42.69s37.35-16,37.35-42.69V2320.6l2.67-2.67h32l2.67,2.67Z"/><path class="cls-1" d="M1848.78,2437.74c0,48-26.68,74.71-74.71,74.71s-74.71-26.68-74.71-74.71V2325.68L1702,2323h32l2.67,2.67v112.06c0,26.68,10.67,42.69,37.35,42.69s37.35-16,37.35-42.69V2325.68l2.67-2.67h32l2.67,2.67Z"/><path class="cls-1" d="M1843.7,2442.83c0,48-26.68,74.71-74.71,74.71s-74.71-26.68-74.71-74.71V2330.77l2.67-2.67h32l2.67,2.67v112.06c0,26.68,10.67,42.69,37.35,42.69s37.35-16,37.35-42.69V2330.77l2.67-2.67h32l2.67,2.67Z"/><path class="cls-1" d="M1838.61,2447.92c0,48-26.68,74.71-74.71,74.71s-74.71-26.68-74.71-74.71V2335.86l2.67-2.67h32l2.67,2.67v112.06c0,26.68,10.67,42.69,37.35,42.69s37.35-16,37.35-42.69V2335.86l2.67-2.67h32l2.67,2.67Z"/><path class="cls-1" d="M1833.52,2453c0,48-26.68,74.71-74.71,74.71s-74.71-26.68-74.71-74.71V2340.94l2.67-2.67h32l2.67,2.67V2453c0,26.68,10.67,42.69,37.35,42.69s37.35-16,37.35-42.69V2340.94l2.67-2.67h32l2.67,2.67Z"/><path class="cls-1" d="M1828.43,2458.09c0,48-26.68,74.71-74.71,74.71s-74.71-26.68-74.71-74.71V2346l2.67-2.67h32l2.67,2.67v112.06c0,26.68,10.67,42.69,37.35,42.69s37.35-16,37.35-42.69V2346l2.67-2.67h32l2.67,2.67Z"/><path class="cls-1" d="M1823.35,2463.18c0,48-26.68,74.71-74.71,74.71s-74.71-26.68-74.71-74.71V2351.12l2.67-2.67h32l2.67,2.67v112.06c0,26.68,10.67,42.69,37.35,42.69s37.35-16,37.35-42.69V2351.12l2.67-2.67h32l2.67,2.67Z"/><path class="cls-1" d="M1818.26,2468.27c0,48-26.68,74.71-74.71,74.71s-74.71-26.68-74.71-74.71V2356.21l2.67-2.67h32l2.67,2.67v112.06c0,26.68,10.67,42.69,37.35,42.69s37.35-16,37.35-42.69V2356.21l2.67-2.67h32l2.67,2.67Z"/><path class="cls-1" d="M1813.17,2473.36c0,48-26.68,74.71-74.71,74.71s-74.71-26.68-74.71-74.71V2361.29l2.67-2.67h32l2.67,2.67v112.06c0,26.68,10.67,42.69,37.35,42.69s37.35-16,37.35-42.69V2361.29l2.67-2.67h32l2.67,2.67Z"/><path class="cls-1" d="M1808.09,2478.44c0,48-26.68,74.71-74.71,74.71s-74.71-26.68-74.71-74.71V2366.38l2.67-2.67h32l2.67,2.67v112.06c0,26.68,10.67,42.69,37.35,42.69s37.35-16,37.35-42.69V2366.38l2.67-2.67h32l2.67,2.67Z"/><path class="cls-1" d="M1803,2483.53c0,48-26.68,74.71-74.71,74.71s-74.71-26.68-74.71-74.71V2371.47l2.67-2.67h32l2.67,2.67v112.06c0,26.68,10.67,42.69,37.35,42.69s37.35-16,37.35-42.69V2371.47l2.67-2.67h32l2.67,2.67Z"/><path class="cls-1" d="M1797.91,2488.62c0,48-26.68,74.71-74.71,74.71s-74.71-26.68-74.71-74.71V2376.55l2.67-2.67h32l2.67,2.67v112.06c0,26.68,10.67,42.69,37.35,42.69s37.35-16,37.35-42.69V2376.55l2.67-2.67h32l2.67,2.67Z"/><path class="cls-1" d="M1792.82,2493.7c0,48-26.68,74.71-74.71,74.71s-74.71-26.68-74.71-74.71V2381.64l2.67-2.67h32l2.67,2.67V2493.7c0,26.68,10.67,42.69,37.35,42.69s37.35-16,37.35-42.69V2381.64l2.67-2.67h32l2.67,2.67Z"/><path class="cls-1" d="M1787.74,2498.79c0,48-26.68,74.71-74.71,74.71s-74.71-26.68-74.71-74.71V2386.73l2.67-2.67h32l2.67,2.67v112.06c0,26.68,10.67,42.69,37.35,42.69s37.35-16,37.35-42.69V2386.73l2.67-2.67h32l2.67,2.67Z"/><path class="cls-1" d="M1782.65,2503.88c0,48-26.68,74.71-74.71,74.71s-74.71-26.68-74.71-74.71V2391.82l2.67-2.67h32l2.67,2.67v112.06c0,26.68,10.67,42.69,37.35,42.69s37.35-16,37.35-42.69V2391.82l2.67-2.67h32l2.67,2.67Z"/><path class="cls-1" d="M1777.56,2509c0,48-26.68,74.71-74.71,74.71s-74.71-26.68-74.71-74.71V2396.9l2.67-2.67h32l2.67,2.67V2509c0,26.68,10.67,42.69,37.35,42.69s37.35-16,37.35-42.69V2396.9l2.67-2.67h32l2.67,2.67Z"/></g></g></svg>