<svg id="Layer_3" data-name="Layer 3" xmlns="http://www.w3.org/2000/svg" viewBox="0 0 1896 5154.75"><defs><style>.cls-1{fill:#fff;stroke:#231f20;stroke-width:3px;}</style></defs><title>Artboard 1</title><g id="_Group_" data-name="&lt;Group&gt;"><path class="cls-1" d="M2020.73,1885.77h-125.4l-2.67-2.67V1701.67l2.67-2.67h125.4l2.67,2.67v26.68l-2.67,2.67h-88l-2.67,2.67V1771l2.67,2.67h82.71l2.67,2.67v26.68l-2.67,2.67h-82.71l-2.67,2.67v42.69l2.67,2.67h88l2.67,2.67v26.68Z"/><path class="cls-1" d="M2015.64,1880.68h-125.4l-2.67-2.67V1696.58l2.67-2.67h125.4l2.67,2.67v26.68l-2.67,2.67h-88l-2.67,2.67V1766l2.67,2.67h82.71l2.67,2.67V1798l-2.67,2.67h-82.71l-2.67,2.67V1846l2.67,2.67h88l2.67,2.67V1878Z"/><path class="cls-1" d="M2010.56,1875.6h-125.4l-2.67-2.67V1691.49l2.67-2.67h125.4l2.67,2.67v26.68l-2.67,2.67h-88l-2.67,2.67v37.35l2.67,2.67h82.71l2.67,2.67v26.68l-2.67,2.67h-82.71l-2.67,2.67v42.69l2.67,2.67h88l2.67,2.67v26.68Z"/><path class="cls-1" d="M2005.47,1870.51h-125.4l-2.67-2.67V1686.41l2.67-2.67h125.4l2.67,2.67v26.68l-2.67,2.67h-88l-2.67,2.67v37.35l2.67,2.67h82.71l2.67,2.67v26.68l-2.67,2.67h-82.71l-2.67,2.67v42.69l2.67,2.67h88l2.67,2.67v26.68Z"/><path class="cls-1" d="M2000.38,1865.43H1875l-2.67-2.67V1681.32l2.67-2.67h125.4l2.67,2.67V1708l-2.67,2.67h-88l-2.67,2.67v37.35l2.67,2.67H1995l2.67,2.67v26.68l-2.67,2.67h-82.71l-2.67,2.67v42.69l2.67,2.67h88l2.67,2.67v26.68Z"/><path class="cls-1" d="M1995.3,1860.34H1869.9l-2.67-2.67V1676.24l2.67-2.67h125.4l2.67,2.67v26.68l-2.67,2.67h-88l-2.67,2.67v37.35l2.67,2.67H1990l2.67,2.67v26.68l-2.67,2.67h-82.71l-2.67,2.67v42.69l2.67,2.67h88L1998,1831v26.68Z"/><path class="cls-1" d="M1990.21,1855.25h-125.4l-2.67-2.67V1671.15l2.67-2.67h125.4l2.67,2.67v26.68l-2.67,2.67h-88l-2.67,2.67v37.35l2.67,2.67h82.71l2.67,2.67v26.68l-2.67,2.67h-82.71l-2.67,2.67v42.69l2.67,2.67h88l2.67,2.67v26.68Z"/><path class="cls-1" d="M1985.13,1850.17h-125.4l-2.67-2.67V1666.06l2.67-2.67h125.4l2.67,2.67v26.68l-2.67,2.67h-88l-2.67,2.67v37.35l2.67,2.67h82.71l2.67,2.67v26.68l-2.67,2.67h-82.71l-2.67,2.67v42.69l2.67,2.67h88l2.67,2.67v26.68Z"/><path class="cls-1" d="M1980,1845.08h-125.4l-2.67-2.67V1661l2.67-2.67H1980l2.67,2.67v26.68l-2.67,2.67h-88l-2.67,2.67v37.35L1892,1733h82.71l2.67,2.67v26.68l-2.67,2.67H1892l-2.67,2.67v42.69l2.67,2.67h88l2.67,2.67v26.68Z"/><path class="cls-1" d="M1975,1840h-125.4l-2.67-2.67V1655.89l2.67-2.67H1975l2.67,2.67v26.68l-2.67,2.67h-88l-2.67,2.67v37.35l2.67,2.67h82.71l2.67,2.67v26.68l-2.67,2.67h-82.71l-2.67,2.67v42.69l2.67,2.67h88l2.67,2.67v26.68Z"/><path class="cls-1" d="M1969.87,1834.91h-125.4l-2.67-2.67V1650.81l2.67-2.67h125.4l2.67,2.67v26.68l-2.67,2.67h-88l-2.67,2.67v37.35l2.67,2.67h82.71l2.67,2.67v26.68l-2.67,2.67h-82.71l-2.67,2.67v42.69l2.67,2.67h88l2.67,2.67v26.68Z"/><path class="cls-1" d="M1964.78,1829.82h-125.4l-2.67-2.67V1645.72l2.67-2.67h125.4l2.67,2.67v26.68l-2.67,2.67h-88l-2.67,2.67v37.35l2.67,2.67h82.71l2.67,2.67v26.68l-2.67,2.67h-82.71l-2.67,2.67v42.69l2.67,2.67h88l2.67,2.67v26.68Z"/><path class="cls-1" d="M1959.7,1824.74h-125.4l-2.67-2.67V1640.63l2.67-2.67h125.4l2.67,2.67v26.68l-2.67,2.67h-88l-2.67,2.67V1710l2.67,2.67h82.71l2.67,2.67V1742l-2.67,2.67h-82.71l-2.67,2.67v42.69l2.67,2.67h88l2.67,2.67v26.68Z"/><path class="cls-1" d="M1954.61,1819.65h-125.4l-2.67-2.67V1635.55l2.67-2.67h125.4l2.67,2.67v26.68l-2.67,2.67h-88l-2.67,2.67v37.35l2.67,2.67h82.71l2.67,2.67v26.68l-2.67,2.67h-82.71l-2.67,2.67V1785l2.67,2.67h88l2.67,2.67V1817Z"/><path class="cls-1" d="M1949.52,1814.56h-125.4l-2.67-2.67V1630.46l2.67-2.67h125.4l2.67,2.67v26.68l-2.67,2.67h-88l-2.67,2.67v37.35l2.67,2.67h82.71l2.67,2.67v26.68l-2.67,2.67h-82.71l-2.67,2.67v42.69l2.67,2.67h88l2.67,2.67v26.68Z"/><path class="cls-1" d="M1944.44,1809.48H1819l-2.67-2.67V1625.38l2.67-2.67h125.4l2.67,2.67v26.68l-2.67,2.67h-88l-2.67,2.67v37.35l2.67,2.67h82.71l2.67,2.67v26.68l-2.67,2.67h-82.71l-2.67,2.67v42.69l2.67,2.67h88l2.67,2.67v26.68Z"/><path class="cls-1" d="M1939.35,1804.39h-125.4l-2.67-2.67V1620.29l2.67-2.67h125.4l2.67,2.67V1647l-2.67,2.67h-88l-2.67,2.67v37.35l2.67,2.67H1934l2.67,2.67v26.68l-2.67,2.67H1851.3l-2.67,2.67v42.69l2.67,2.67h88L1942,1775v26.68Z"/><path class="cls-1" d="M1934.27,1799.31h-125.4l-2.67-2.67V1615.2l2.67-2.67h125.4l2.67,2.67v26.68l-2.67,2.67h-88l-2.67,2.67v37.35l2.67,2.67h82.71l2.67,2.67v26.68l-2.67,2.67h-82.71l-2.67,2.67v42.69l2.67,2.67h88l2.67,2.67v26.68Z"/><path class="cls-1" d="M1929.18,1794.22h-125.4l-2.67-2.67V1610.12l2.67-2.67h125.4l2.67,2.67v26.68l-2.67,2.67h-88l-2.67,2.67v37.35l2.67,2.67h82.71l2.67,2.67v26.68l-2.67,2.67h-82.71l-2.67,2.67v42.69l2.67,2.67h88l2.67,2.67v26.68Z"/><path class="cls-1" d="M1924.09,1789.13h-125.4l-2.67-2.67V1605l2.67-2.67h125.4l2.67,2.67v26.68l-2.67,2.67h-88l-2.67,2.67v37.35l2.67,2.67h82.71l2.67,2.67v26.68l-2.67,2.67H1836l-2.67,2.67v42.69l2.67,2.67h88l2.67,2.67v26.68Z"/><path class="cls-1" d="M1919,1784h-125.4l-2.67-2.67V1599.95l2.67-2.67H1919l2.67,2.67v26.68l-2.67,2.67h-88l-2.67,2.67v37.35L1831,1672h82.71l2.67,2.67v26.68l-2.67,2.67H1831l-2.67,2.67v42.69L1831,1752h88l2.67,2.67v26.68Z"/><path class="cls-1" d="M1913.92,1779h-125.4l-2.67-2.67V1594.86l2.67-2.67h125.4l2.67,2.67v26.68l-2.67,2.67h-88l-2.67,2.67v37.35l2.67,2.67h82.71l2.67,2.67v26.68l-2.67,2.67h-82.71l-2.67,2.67v42.69l2.67,2.67h88l2.67,2.67v26.68Z"/><path class="cls-1" d="M1908.84,1773.88h-125.4l-2.67-2.67V1589.77l2.67-2.67h125.4l2.67,2.67v26.68l-2.67,2.67h-88l-2.67,2.67v37.35l2.67,2.67h82.71l2.67,2.67v26.68l-2.67,2.67h-82.71l-2.67,2.67v42.69l2.67,2.67h88l2.67,2.67v26.68Z"/><path class="cls-1" d="M1903.75,1768.79h-125.4l-2.67-2.67V1584.69l2.67-2.67h125.4l2.67,2.67v26.68l-2.67,2.67h-88l-2.67,2.67v37.35l2.67,2.67h82.71l2.67,2.67v26.68l-2.67,2.67H1815.7l-2.67,2.67v42.69l2.67,2.67h88l2.67,2.67v26.68Z"/><path class="cls-1" d="M1898.66,1763.7h-125.4l-2.67-2.67V1579.6l2.67-2.67h125.4l2.67,2.67v26.68l-2.67,2.67h-88l-2.67,2.67V1649l2.67,2.67h82.71l2.67,2.67V1681l-2.67,2.67h-82.71l-2.67,2.67V1729l2.67,2.67h88l2.67,2.67V1761Z"/><path class="cls-1" d="M1893.58,1758.62h-125.4l-2.67-2.67V1574.52l2.67-2.67h125.4l2.67,2.67v26.68l-2.67,2.67h-88l-2.67,2.67v37.35l2.67,2.67h82.71l2.67,2.67v26.68l-2.67,2.67h-82.71l-2.67,2.67v42.69l2.67,2.67h88l2.67,2.67V1756Z"/><path class="cls-1" d="M1888.49,1753.53h-125.4l-2.67-2.67V1569.43l2.67-2.67h125.4l2.67,2.67v26.68l-2.67,2.67h-88l-2.67,2.67v37.35l2.67,2.67h82.71l2.67,2.67v26.68l-2.67,2.67h-82.71l-2.67,2.67v42.69l2.67,2.67h88l2.67,2.67v26.68Z"/><path class="cls-1" d="M1883.41,1748.45H1758l-2.67-2.67V1564.34l2.67-2.67h125.4l2.67,2.67V1591l-2.67,2.67h-88l-2.67,2.67v37.35l2.67,2.67h82.71l2.67,2.67v26.68l-2.67,2.67h-82.71l-2.67,2.67v42.69l2.67,2.67h88l2.67,2.67v26.68Z"/><path class="cls-1" d="M1878.32,1743.36h-125.4l-2.67-2.67V1559.26l2.67-2.67h125.4l2.67,2.67v26.68l-2.67,2.67h-88l-2.67,2.67v37.35l2.67,2.67H1873l2.67,2.67v26.68l-2.67,2.67h-82.71l-2.67,2.67v42.69l2.67,2.67h88L1881,1714v26.68Z"/><path class="cls-1" d="M1873.23,1738.27h-125.4l-2.67-2.67V1554.17l2.67-2.67h125.4l2.67,2.67v26.68l-2.67,2.67h-88l-2.67,2.67v37.35l2.67,2.67h82.71l2.67,2.67v26.68l-2.67,2.67h-82.71l-2.67,2.67v42.69l2.67,2.67h88l2.67,2.67v26.68Z"/><path class="cls-1" d="M1868.15,1733.19h-125.4l-2.67-2.67V1549.09l2.67-2.67h125.4l2.67,2.67v26.68l-2.67,2.67h-88l-2.67,2.67v37.35l2.67,2.67h82.71l2.67,2.67v26.68l-2.67,2.67H1780.1l-2.67,2.67v42.69l2.67,2.67h88l2.67,2.67v26.68Z"/><path class="cls-1" d="M1863.06,1728.1h-125.4l-2.67-2.67V1544l2.67-2.67h125.4l2.67,2.67v26.68l-2.67,2.67h-88l-2.67,2.67v37.35L1775,1616h82.71l2.67,2.67v26.68l-2.67,2.67H1775l-2.67,2.67v42.69l2.67,2.67h88l2.67,2.67v26.68Z"/><path class="cls-1" d="M1858,1723h-125.4l-2.67-2.67V1538.91l2.67-2.67H1858l2.67,2.67v26.68l-2.67,2.67h-88l-2.67,2.67v37.35l2.67,2.67h82.71l2.67,2.67v26.68l-2.67,2.67h-82.71l-2.67,2.67v42.69l2.67,2.67h88l2.67,2.67v26.68Z"/><path class="cls-1" d="M1852.89,1717.93h-125.4l-2.67-2.67V1533.83l2.67-2.67h125.4l2.67,2.67v26.68l-2.67,2.67h-88l-2.67,2.67v37.35l2.67,2.67h82.71l2.67,2.67v26.68l-2.67,2.67h-82.71l-2.67,2.67v42.69l2.67,2.67h88l2.67,2.67v26.68Z"/><path class="cls-1" d="M1847.8,1712.84H1722.4l-2.67-2.67V1528.74l2.67-2.67h125.4l2.67,2.67v26.68l-2.67,2.67h-88l-2.67,2.67v37.35l2.67,2.67h82.71l2.67,2.67v26.68l-2.67,2.67h-82.71l-2.67,2.67v42.69l2.67,2.67h88l2.67,2.67v26.68Z"/><path class="cls-1" d="M1842.72,1707.76h-125.4l-2.67-2.67V1523.66l2.67-2.67h125.4l2.67,2.67v26.68l-2.67,2.67h-88l-2.67,2.67V1593l2.67,2.67h82.71l2.67,2.67V1625l-2.67,2.67h-82.71l-2.67,2.67v42.69l2.67,2.67h88l2.67,2.67v26.68Z"/><path class="cls-1" d="M1837.63,1702.67h-125.4l-2.67-2.67V1518.57l2.67-2.67h125.4l2.67,2.67v26.68l-2.67,2.67h-88l-2.67,2.67v37.35l2.67,2.67h82.71l2.67,2.67V1620l-2.67,2.67h-82.71l-2.67,2.67V1668l2.67,2.67h88l2.67,2.67V1700Z"/><path class="cls-1" d="M1832.55,1697.59h-125.4l-2.67-2.67V1513.48l2.67-2.67h125.4l2.67,2.67v26.68l-2.67,2.67h-88l-2.67,2.67v37.35l2.67,2.67h82.71l2.67,2.67v26.68l-2.67,2.67H1744.5l-2.67,2.67v42.69l2.67,2.67h88l2.67,2.67v26.68Z"/><path class="cls-1" d="M1827.46,1692.5h-125.4l-2.67-2.67V1508.4l2.67-2.67h125.4l2.67,2.67v26.68l-2.67,2.67h-88l-2.67,2.67v37.35l2.67,2.67h82.71l2.67,2.67v26.68l-2.67,2.67h-82.71l-2.67,2.67v42.69l2.67,2.67h88l2.67,2.67v26.68Z"/><path class="cls-1" d="M1822.37,1687.41H1697l-2.67-2.67V1503.31l2.67-2.67h125.4l2.67,2.67V1530l-2.67,2.67h-88l-2.67,2.67v37.35l2.67,2.67H1817l2.67,2.67v26.68l-2.67,2.67h-82.71l-2.67,2.67v42.69l2.67,2.67h88l2.67,2.67v26.68Z"/><path class="cls-1" d="M1817.29,1682.33h-125.4l-2.67-2.67V1498.23l2.67-2.67h125.4l2.67,2.67v26.68l-2.67,2.67h-88l-2.67,2.67v37.35l2.67,2.67H1812l2.67,2.67v26.68l-2.67,2.67h-82.71l-2.67,2.67v42.69l2.67,2.67h88L1820,1653v26.68Z"/><path class="cls-1" d="M1812.2,1677.24H1686.8l-2.67-2.67V1493.14l2.67-2.67h125.4l2.67,2.67v26.68l-2.67,2.67h-88l-2.67,2.67v37.35l2.67,2.67h82.71l2.67,2.67v26.68l-2.67,2.67h-82.71l-2.67,2.67v42.69l2.67,2.67h88l2.67,2.67v26.68Z"/><path class="cls-1" d="M1807.11,1672.16h-125.4l-2.67-2.67V1488.05l2.67-2.67h125.4l2.67,2.67v26.68l-2.67,2.67h-88l-2.67,2.67v37.35l2.67,2.67h82.71l2.67,2.67v26.68l-2.67,2.67h-82.71l-2.67,2.67v42.69l2.67,2.67h88l2.67,2.67v26.68Z"/><path class="cls-1" d="M1802,1667.07h-125.4l-2.67-2.67V1483l2.67-2.67H1802l2.67,2.67v26.68l-2.67,2.67h-88l-2.67,2.67v37.35L1714,1555h82.71l2.67,2.67v26.68l-2.67,2.67H1714l-2.67,2.67v42.69l2.67,2.67h88l2.67,2.67v26.68Z"/><path class="cls-1" d="M1796.94,1662h-125.4l-2.67-2.67V1477.88l2.67-2.67h125.4l2.67,2.67v26.68l-2.67,2.67h-88l-2.67,2.67v37.35l2.67,2.67h82.71l2.67,2.67v26.68l-2.67,2.67h-82.71l-2.67,2.67v42.69l2.67,2.67h88l2.67,2.67v26.68Z"/><path class="cls-1" d="M1791.86,1656.9h-125.4l-2.67-2.67V1472.8l2.67-2.67h125.4l2.67,2.67v26.68l-2.67,2.67h-88l-2.67,2.67v37.35l2.67,2.67h82.71l2.67,2.67v26.68l-2.67,2.67h-82.71l-2.67,2.67v42.69l2.67,2.67h88l2.67,2.67v26.68Z"/><path class="cls-1" d="M1786.77,1651.81h-125.4l-2.67-2.67V1467.71l2.67-2.67h125.4l2.67,2.67v26.68l-2.67,2.67h-88l-2.67,2.67v37.35l2.67,2.67h82.71l2.67,2.67v26.68l-2.67,2.67h-82.71l-2.67,2.67v42.69l2.67,2.67h88l2.67,2.67v26.68Z"/><path class="cls-1" d="M1781.68,1646.73h-125.4l-2.67-2.67V1462.62l2.67-2.67h125.4l2.67,2.67v26.68l-2.67,2.67h-88l-2.67,2.67V1532l2.67,2.67h82.71l2.67,2.67V1564l-2.67,2.67h-82.71l-2.67,2.67V1612l2.67,2.67h88l2.67,2.67v26.68Z"/><path class="cls-1" d="M1776.6,1641.64H1651.2l-2.67-2.67V1457.54l2.67-2.67h125.4l2.67,2.67v26.68l-2.67,2.67h-88l-2.67,2.67v37.35l2.67,2.67h82.71l2.67,2.67v26.68l-2.67,2.67h-82.71l-2.67,2.67V1607l2.67,2.67h88l2.67,2.67V1639Z"/><path class="cls-1" d="M1771.51,1636.55h-125.4l-2.67-2.67V1452.45l2.67-2.67h125.4l2.67,2.67v26.68l-2.67,2.67h-88l-2.67,2.67v37.35l2.67,2.67h82.71l2.67,2.67v26.68l-2.67,2.67h-82.71l-2.67,2.67v42.69l2.67,2.67h88l2.67,2.67v26.68Z"/><path class="cls-1" d="M1766.43,1631.47H1641l-2.67-2.67V1447.37l2.67-2.67h125.4l2.67,2.67V1474l-2.67,2.67h-88l-2.67,2.67v37.35l2.67,2.67h82.71l2.67,2.67v26.68l-2.67,2.67h-82.71l-2.67,2.67v42.69l2.67,2.67h88l2.67,2.67v26.68Z"/><path class="cls-1" d="M1761.34,1626.38h-125.4l-2.67-2.67V1442.28l2.67-2.67h125.4l2.67,2.67V1469l-2.67,2.67h-88l-2.67,2.67v37.35l2.67,2.67H1756l2.67,2.67v26.68l-2.67,2.67h-82.71l-2.67,2.67v42.69l2.67,2.67h88L1764,1597v26.68Z"/><path class="cls-1" d="M1756.25,1621.3h-125.4l-2.67-2.67V1437.19l2.67-2.67h125.4l2.67,2.67v26.68l-2.67,2.67h-88l-2.67,2.67v37.35l2.67,2.67h82.71l2.67,2.67v26.68l-2.67,2.67h-82.71l-2.67,2.67v42.69l2.67,2.67h88l2.67,2.67v26.68Z"/><path class="cls-1" d="M1751.17,1616.21h-125.4l-2.67-2.67V1432.11l2.67-2.67h125.4l2.67,2.67v26.68l-2.67,2.67h-88l-2.67,2.67v37.35l2.67,2.67h82.71l2.67,2.67v26.68l-2.67,2.67h-82.71l-2.67,2.67v42.69l2.67,2.67h88l2.67,2.67v26.68Z"/><path class="cls-1" d="M1746.08,1611.12h-125.4l-2.67-2.67V1427l2.67-2.67h125.4l2.67,2.67v26.68l-2.67,2.67h-88l-2.67,2.67v37.35l2.67,2.67h82.71l2.67,2.67v26.68l-2.67,2.67H1658l-2.67,2.67v42.69l2.67,2.67h88l2.67,2.67v26.68Z"/><path class="cls-1" d="M1741,1606h-125.4l-2.67-2.67V1421.93l2.67-2.67H1741l2.67,2.67v26.68l-2.67,2.67h-88l-2.67,2.67v37.35l2.67,2.67h82.71l2.67,2.67v26.68l-2.67,2.67h-82.71l-2.67,2.67v42.69l2.67,2.67h88l2.67,2.67v26.68Z"/><path class="cls-1" d="M1735.91,1601h-125.4l-2.67-2.67V1416.85l2.67-2.67h125.4l2.67,2.67v26.68l-2.67,2.67h-88l-2.67,2.67v37.35l2.67,2.67h82.71l2.67,2.67v26.68l-2.67,2.67h-82.71l-2.67,2.67v42.69l2.67,2.67h88l2.67,2.67v26.68Z"/><path class="cls-1" d="M1730.82,1595.87h-125.4l-2.67-2.67V1411.76l2.67-2.67h125.4l2.67,2.67v26.68l-2.67,2.67h-88l-2.67,2.67v37.35l2.67,2.67h82.71l2.67,2.67v26.68l-2.67,2.67h-82.71l-2.67,2.67v42.69l2.67,2.67h88l2.67,2.67v26.68Z"/><path class="cls-1" d="M1725.74,1590.78h-125.4l-2.67-2.67V1406.68l2.67-2.67h125.4l2.67,2.67v26.68l-2.67,2.67h-88l-2.67,2.67V1476l2.67,2.67h82.71l2.67,2.67v26.68l-2.67,2.67h-82.71l-2.67,2.67v42.69l2.67,2.67h88l2.67,2.67v26.68Z"/><path class="cls-1" d="M1720.65,1585.69h-125.4l-2.67-2.67V1401.59l2.67-2.67h125.4l2.67,2.67v26.68l-2.67,2.67h-88l-2.67,2.67V1471l2.67,2.67h82.71l2.67,2.67V1503l-2.67,2.67H1632.6l-2.67,2.67V1551l2.67,2.67h88l2.67,2.67V1583Z"/><path class="cls-1" d="M1715.57,1580.61h-125.4l-2.67-2.67V1396.5l2.67-2.67h125.4l2.67,2.67v26.68l-2.67,2.67h-88l-2.67,2.67v37.35l2.67,2.67h82.71l2.67,2.67v26.68l-2.67,2.67h-82.71l-2.67,2.67v42.69l2.67,2.67h88l2.67,2.67v26.68Z"/><path class="cls-1" d="M1710.48,1575.52h-125.4l-2.67-2.67V1391.42l2.67-2.67h125.4l2.67,2.67v26.68l-2.67,2.67h-88l-2.67,2.67v37.35l2.67,2.67h82.71l2.67,2.67v26.68l-2.67,2.67h-82.71l-2.67,2.67v42.69l2.67,2.67h88l2.67,2.67v26.68Z"/><path class="cls-1" d="M1705.39,1570.44H1580l-2.67-2.67V1386.33l2.67-2.67h125.4l2.67,2.67V1413l-2.67,2.67h-88l-2.67,2.67v37.35l2.67,2.67h82.71l2.67,2.67v26.68l-2.67,2.67h-82.71l-2.67,2.67v42.69l2.67,2.67h88l2.67,2.67v26.68Z"/><path class="cls-1" d="M1700.31,1565.35h-125.4l-2.67-2.67V1381.25l2.67-2.67h125.4l2.67,2.67v26.68l-2.67,2.67h-88l-2.67,2.67v37.35l2.67,2.67H1695l2.67,2.67v26.68l-2.67,2.67h-82.71l-2.67,2.67v42.69l2.67,2.67h88L1703,1536v26.68Z"/><path class="cls-1" d="M1695.22,1560.26h-125.4l-2.67-2.67V1376.16l2.67-2.67h125.4l2.67,2.67v26.68l-2.67,2.67h-88l-2.67,2.67v37.35l2.67,2.67h82.71l2.67,2.67v26.68l-2.67,2.67h-82.71l-2.67,2.67v42.69l2.67,2.67h88l2.67,2.67v26.68Z"/><path class="cls-1" d="M1690.14,1555.18h-125.4l-2.67-2.67V1371.07l2.67-2.67h125.4l2.67,2.67v26.68l-2.67,2.67h-88l-2.67,2.67v37.35l2.67,2.67h82.71l2.67,2.67v26.68l-2.67,2.67h-82.71l-2.67,2.67v42.69l2.67,2.67h88l2.67,2.67v26.68Z"/><path class="cls-1" d="M1685.05,1550.09h-125.4l-2.67-2.67V1366l2.67-2.67h125.4l2.67,2.67v26.68l-2.67,2.67h-88l-2.67,2.67v37.35L1597,1438h82.71l2.67,2.67v26.68l-2.67,2.67H1597l-2.67,2.67v42.69l2.67,2.67h88l2.67,2.67v26.68Z"/><path class="cls-1" d="M1680,1545h-125.4l-2.67-2.67V1360.9l2.67-2.67H1680l2.67,2.67v26.68l-2.67,2.67h-88l-2.67,2.67v37.35l2.67,2.67h82.71l2.67,2.67v26.68l-2.67,2.67h-82.71l-2.67,2.67v42.69l2.67,2.67h88l2.67,2.67v26.68Z"/><path class="cls-1" d="M1674.88,1539.92h-125.4l-2.67-2.67V1355.82l2.67-2.67h125.4l2.67,2.67v26.68l-2.67,2.67h-88l-2.67,2.67v37.35l2.67,2.67h82.71l2.67,2.67v26.68l-2.67,2.67h-82.71l-2.67,2.67v42.69l2.67,2.67h88l2.67,2.67v26.68Z"/><path class="cls-1" d="M1669.79,1534.83h-125.4l-2.67-2.67V1350.73l2.67-2.67h125.4l2.67,2.67v26.68l-2.67,2.67h-88l-2.67,2.67v37.35l2.67,2.67h82.71l2.67,2.67v26.68l-2.67,2.67h-82.71l-2.67,2.67v42.69l2.67,2.67h88l2.67,2.67v26.68Z"/><path class="cls-1" d="M1664.71,1529.75H1539.3l-2.67-2.67V1345.64l2.67-2.67h125.4l2.67,2.67v26.68l-2.67,2.67h-88l-2.67,2.67V1415l2.67,2.67h82.71l2.67,2.67V1447l-2.67,2.67h-82.71l-2.67,2.67v42.69l2.67,2.67h88l2.67,2.67v26.68Z"/><path class="cls-1" d="M1659.62,1524.66h-125.4l-2.67-2.67V1340.56l2.67-2.67h125.4l2.67,2.67v26.68l-2.67,2.67h-88l-2.67,2.67v37.35l2.67,2.67h82.71l2.67,2.67v26.68l-2.67,2.67h-82.71l-2.67,2.67V1490l2.67,2.67h88l2.67,2.67V1522Z"/><path class="cls-1" d="M1654.53,1519.57h-125.4l-2.67-2.67V1335.47l2.67-2.67h125.4l2.67,2.67v26.68l-2.67,2.67h-88l-2.67,2.67v37.35l2.67,2.67h82.71l2.67,2.67v26.68l-2.67,2.67h-82.71l-2.67,2.67v42.69l2.67,2.67h88l2.67,2.67v26.68Z"/><path class="cls-1" d="M1649.45,1514.49H1524l-2.67-2.67V1330.39l2.67-2.67h125.4l2.67,2.67v26.68l-2.67,2.67h-88l-2.67,2.67v37.35l2.67,2.67h82.71l2.67,2.67v26.68l-2.67,2.67H1561.4l-2.67,2.67v42.69l2.67,2.67h88l2.67,2.67v26.68Z"/><path class="cls-1" d="M1644.36,1509.4H1519l-2.67-2.67V1325.3l2.67-2.67h125.4l2.67,2.67V1352l-2.67,2.67h-88l-2.67,2.67v37.35l2.67,2.67H1639l2.67,2.67v26.68l-2.67,2.67h-82.71l-2.67,2.67v42.69l2.67,2.67h88l2.67,2.67v26.68Z"/><path class="cls-1" d="M1639.28,1504.32h-125.4l-2.67-2.67V1320.21l2.67-2.67h125.4l2.67,2.67v26.68l-2.67,2.67h-88l-2.67,2.67v37.35l2.67,2.67h82.71l2.67,2.67v26.68l-2.67,2.67h-82.71l-2.67,2.67v42.69l2.67,2.67h88l2.67,2.67v26.68Z"/><path class="cls-1" d="M1634.19,1499.23h-125.4l-2.67-2.67V1315.13l2.67-2.67h125.4l2.67,2.67v26.68l-2.67,2.67h-88l-2.67,2.67v37.35l2.67,2.67h82.71l2.67,2.67v26.68l-2.67,2.67h-82.71l-2.67,2.67v42.69l2.67,2.67h88l2.67,2.67v26.68Z"/><path class="cls-1" d="M1629.1,1494.14H1503.7l-2.67-2.67V1310l2.67-2.67h125.4l2.67,2.67v26.68l-2.67,2.67h-88l-2.67,2.67v37.35l2.67,2.67h82.71l2.67,2.67v26.68l-2.67,2.67h-82.71l-2.67,2.67v42.69l2.67,2.67h88l2.67,2.67v26.68Z"/><path class="cls-1" d="M1624,1489.06h-125.4l-2.67-2.67V1305l2.67-2.67H1624l2.67,2.67v26.68l-2.67,2.67h-88l-2.67,2.67v37.35L1536,1377h82.71l2.67,2.67v26.68l-2.67,2.67H1536l-2.67,2.67v42.69L1536,1457h88l2.67,2.67v26.68Z"/><path class="cls-1" d="M1618.93,1484h-125.4l-2.67-2.67V1299.87l2.67-2.67h125.4l2.67,2.67v26.68l-2.67,2.67h-88l-2.67,2.67v37.35l2.67,2.67h82.71l2.67,2.67v26.68l-2.67,2.67h-82.71l-2.67,2.67v42.69l2.67,2.67h88l2.67,2.67v26.68Z"/><path class="cls-1" d="M1613.85,1478.89h-125.4l-2.67-2.67V1294.78l2.67-2.67h125.4l2.67,2.67v26.68l-2.67,2.67h-88l-2.67,2.67v37.35l2.67,2.67h82.71l2.67,2.67v26.68l-2.67,2.67H1525.8l-2.67,2.67v42.69l2.67,2.67h88l2.67,2.67v26.68Z"/><path class="cls-1" d="M1608.76,1473.8h-125.4l-2.67-2.67V1289.7l2.67-2.67h125.4l2.67,2.67v26.68l-2.67,2.67h-88l-2.67,2.67v37.35l2.67,2.67h82.71l2.67,2.67v26.68l-2.67,2.67h-82.71l-2.67,2.67v42.69l2.67,2.67h88l2.67,2.67v26.68Z"/><path class="cls-1" d="M1603.67,1468.71h-125.4l-2.67-2.67V1284.61l2.67-2.67h125.4l2.67,2.67v26.68l-2.67,2.67h-88l-2.67,2.67V1354l2.67,2.67h82.71l2.67,2.67V1386l-2.67,2.67h-82.71l-2.67,2.67V1434l2.67,2.67h88l2.67,2.67V1466Z"/><path class="cls-1" d="M1598.59,1463.63h-125.4l-2.67-2.67V1279.53l2.67-2.67h125.4l2.67,2.67v26.68l-2.67,2.67h-88l-2.67,2.67v37.35l2.67,2.67h82.71l2.67,2.67v26.68l-2.67,2.67h-82.71l-2.67,2.67v42.69l2.67,2.67h88l2.67,2.67V1461Z"/><path class="cls-1" d="M1593.5,1458.54H1468.1l-2.67-2.67V1274.44l2.67-2.67h125.4l2.67,2.67v26.68l-2.67,2.67h-88l-2.67,2.67v37.35l2.67,2.67h82.71l2.67,2.67v26.68l-2.67,2.67h-82.71l-2.67,2.67v42.69l2.67,2.67h88l2.67,2.67v26.68Z"/><path class="cls-1" d="M1588.42,1453.46H1463l-2.67-2.67V1269.35l2.67-2.67h125.4l2.67,2.67V1296l-2.67,2.67h-88l-2.67,2.67v37.35l2.67,2.67h82.71l2.67,2.67v26.68l-2.67,2.67h-82.71l-2.67,2.67v42.69l2.67,2.67h88l2.67,2.67v26.68Z"/><path class="cls-1" d="M1583.33,1448.37h-125.4l-2.67-2.67V1264.27l2.67-2.67h125.4l2.67,2.67v26.68l-2.67,2.67h-88l-2.67,2.67v37.35l2.67,2.67H1578l2.67,2.67v26.68l-2.67,2.67h-82.71l-2.67,2.67v42.69l2.67,2.67h88L1586,1419v26.68Z"/><path class="cls-1" d="M1578.24,1443.28h-125.4l-2.67-2.67V1259.18l2.67-2.67h125.4l2.67,2.67v26.68l-2.67,2.67h-88l-2.67,2.67v37.35l2.67,2.67h82.71l2.67,2.67v26.68l-2.67,2.67h-82.71l-2.67,2.67v42.69l2.67,2.67h88l2.67,2.67v26.68Z"/><path class="cls-1" d="M1573.16,1438.2h-125.4l-2.67-2.67V1254.1l2.67-2.67h125.4l2.67,2.67v26.68l-2.67,2.67h-88l-2.67,2.67v37.35l2.67,2.67h82.71l2.67,2.67v26.68l-2.67,2.67h-82.71l-2.67,2.67v42.69l2.67,2.67h88l2.67,2.67v26.68Z"/><path class="cls-1" d="M1568.07,1433.11h-125.4l-2.67-2.67V1249l2.67-2.67h125.4l2.67,2.67v26.68l-2.67,2.67h-88l-2.67,2.67v37.35L1480,1321h82.71l2.67,2.67v26.68l-2.67,2.67H1480l-2.67,2.67v42.69l2.67,2.67h88l2.67,2.67v26.68Z"/><path class="cls-1" d="M1563,1428h-125.4l-2.67-2.67V1243.92l2.67-2.67H1563l2.67,2.67v26.68l-2.67,2.67h-88l-2.67,2.67v37.35l2.67,2.67h82.71l2.67,2.67v26.68l-2.67,2.67h-82.71l-2.67,2.67v42.69l2.67,2.67h88l2.67,2.67v26.68Z"/><path class="cls-1" d="M1557.9,1422.94H1432.5l-2.67-2.67V1238.84l2.67-2.67h125.4l2.67,2.67v26.68l-2.67,2.67h-88l-2.67,2.67v37.35l2.67,2.67h82.71l2.67,2.67v26.68l-2.67,2.67h-82.71l-2.67,2.67v42.69l2.67,2.67h88l2.67,2.67v26.68Z"/><path class="cls-1" d="M1552.81,1417.85h-125.4l-2.67-2.67V1233.75l2.67-2.67h125.4l2.67,2.67v26.68l-2.67,2.67h-88l-2.67,2.67v37.35l2.67,2.67h82.71l2.67,2.67v26.68l-2.67,2.67h-82.71l-2.67,2.67v42.69l2.67,2.67h88l2.67,2.67v26.68Z"/><path class="cls-1" d="M1547.73,1412.77h-125.4l-2.67-2.67V1228.67l2.67-2.67h125.4l2.67,2.67v26.68l-2.67,2.67h-88l-2.67,2.67V1298l2.67,2.67h82.71l2.67,2.67v26.68l-2.67,2.67h-82.71l-2.67,2.67v42.69l2.67,2.67h88l2.67,2.67v26.68Z"/><path class="cls-1" d="M1542.64,1407.68h-125.4l-2.67-2.67V1223.58l2.67-2.67h125.4l2.67,2.67v26.68l-2.67,2.67h-88l-2.67,2.67V1293l2.67,2.67h82.71l2.67,2.67V1325l-2.67,2.67h-82.71l-2.67,2.67V1373l2.67,2.67h88l2.67,2.67V1405Z"/><path class="cls-1" d="M1537.56,1402.6h-125.4l-2.67-2.67V1218.49l2.67-2.67h125.4l2.67,2.67v26.68l-2.67,2.67h-88l-2.67,2.67v37.35l2.67,2.67h82.71l2.67,2.67v26.68l-2.67,2.67h-82.71l-2.67,2.67v42.69l2.67,2.67h88l2.67,2.67v26.68Z"/><path class="cls-1" d="M1532.47,1397.51h-125.4l-2.67-2.67V1213.41l2.67-2.67h125.4l2.67,2.67v26.68l-2.67,2.67h-88l-2.67,2.67v37.35l2.67,2.67h82.71l2.67,2.67v26.68l-2.67,2.67h-82.71l-2.67,2.67v42.69l2.67,2.67h88l2.67,2.67v26.68Z"/><path class="cls-1" d="M1527.38,1392.42H1402l-2.67-2.67V1208.32l2.67-2.67h125.4l2.67,2.67V1235l-2.67,2.67h-88l-2.67,2.67v37.35l2.67,2.67H1522l2.67,2.67v26.68l-2.67,2.67h-82.71l-2.67,2.67v42.69l2.67,2.67h88l2.67,2.67v26.68Z"/><path class="cls-1" d="M1522.3,1387.34h-125.4l-2.67-2.67V1203.24l2.67-2.67h125.4l2.67,2.67v26.68l-2.67,2.67h-88l-2.67,2.67v37.35l2.67,2.67H1517l2.67,2.67v26.68l-2.67,2.67h-82.71l-2.67,2.67v42.69l2.67,2.67h88L1525,1358v26.68Z"/><path class="cls-1" d="M1517.21,1382.25h-125.4l-2.67-2.67V1198.15l2.67-2.67h125.4l2.67,2.67v26.68l-2.67,2.67h-88l-2.67,2.67v37.35l2.67,2.67h82.71l2.67,2.67v26.68l-2.67,2.67h-82.71l-2.67,2.67v42.69l2.67,2.67h88l2.67,2.67v26.68Z"/><path class="cls-1" d="M1512.12,1377.17h-125.4l-2.67-2.67V1193.06l2.67-2.67h125.4l2.67,2.67v26.68l-2.67,2.67h-88l-2.67,2.67v37.35l2.67,2.67h82.71l2.67,2.67v26.68l-2.67,2.67h-82.71l-2.67,2.67v42.69l2.67,2.67h88l2.67,2.67v26.68Z"/><path class="cls-1" d="M1507,1372.08h-125.4l-2.67-2.67V1188l2.67-2.67H1507l2.67,2.67v26.68l-2.67,2.67h-88l-2.67,2.67v37.35L1419,1260h82.71l2.67,2.67v26.68l-2.67,2.67H1419l-2.67,2.67v42.69l2.67,2.67h88l2.67,2.67v26.68Z"/><path class="cls-1" d="M1502,1367h-125.4l-2.67-2.67V1182.89l2.67-2.67H1502l2.67,2.67v26.68l-2.67,2.67h-88l-2.67,2.67v37.35l2.67,2.67h82.71l2.67,2.67v26.68l-2.67,2.67H1413.9l-2.67,2.67v42.69l2.67,2.67h88l2.67,2.67v26.68Z"/><path class="cls-1" d="M1496.87,1361.91h-125.4l-2.67-2.67V1177.81l2.67-2.67h125.4l2.67,2.67v26.68l-2.67,2.67h-88l-2.67,2.67v37.35l2.67,2.67h82.71l2.67,2.67v26.68l-2.67,2.67h-82.71l-2.67,2.67v42.69l2.67,2.67h88l2.67,2.67v26.68Z"/><path class="cls-1" d="M1491.78,1356.82h-125.4l-2.67-2.67V1172.72l2.67-2.67h125.4l2.67,2.67v26.68l-2.67,2.67h-88l-2.67,2.67v37.35l2.67,2.67h82.71l2.67,2.67v26.68l-2.67,2.67h-82.71l-2.67,2.67v42.69l2.67,2.67h88l2.67,2.67v26.68Z"/><path class="cls-1" d="M1486.69,1351.74h-125.4l-2.67-2.67V1167.63l2.67-2.67h125.4l2.67,2.67v26.68l-2.67,2.67h-88l-2.67,2.67V1237l2.67,2.67h82.71l2.67,2.67V1269l-2.67,2.67h-82.71l-2.67,2.67v42.69l2.67,2.67h88l2.67,2.67v26.68Z"/><path class="cls-1" d="M1481.61,1346.65h-125.4l-2.67-2.67V1162.55l2.67-2.67h125.4l2.67,2.67v26.68l-2.67,2.67h-88l-2.67,2.67v37.35l2.67,2.67h82.71l2.67,2.67v26.68l-2.67,2.67h-82.71l-2.67,2.67V1312l2.67,2.67h88l2.67,2.67V1344Z"/><path class="cls-1" d="M1476.52,1341.56h-125.4l-2.67-2.67V1157.46l2.67-2.67h125.4l2.67,2.67v26.68l-2.67,2.67h-88l-2.67,2.67v37.35l2.67,2.67h82.71l2.67,2.67v26.68l-2.67,2.67h-82.71l-2.67,2.67v42.69l2.67,2.67h88l2.67,2.67v26.68Z"/><path class="cls-1" d="M1471.44,1336.48H1346l-2.67-2.67V1152.37l2.67-2.67h125.4l2.67,2.67v26.68l-2.67,2.67h-88l-2.67,2.67v37.35l2.67,2.67h82.71l2.67,2.67v26.68l-2.67,2.67h-82.71l-2.67,2.67v42.69l2.67,2.67h88l2.67,2.67v26.68Z"/><path class="cls-1" d="M1466.35,1331.39h-125.4l-2.67-2.67V1147.29l2.67-2.67h125.4l2.67,2.67V1174l-2.67,2.67h-88l-2.67,2.67v37.35l2.67,2.67H1461l2.67,2.67v26.68l-2.67,2.67H1378.3l-2.67,2.67v42.69l2.67,2.67h88L1469,1302v26.68Z"/><path class="cls-1" d="M1461.26,1326.31h-125.4l-2.67-2.67V1142.2l2.67-2.67h125.4l2.67,2.67v26.68l-2.67,2.67h-88l-2.67,2.67v37.35l2.67,2.67h82.71l2.67,2.67v26.68l-2.67,2.67h-82.71l-2.67,2.67v42.69l2.67,2.67h88l2.67,2.67v26.68Z"/><path class="cls-1" d="M1456.18,1321.22h-125.4l-2.67-2.67V1137.12l2.67-2.67h125.4l2.67,2.67v26.68l-2.67,2.67h-88l-2.67,2.67v37.35l2.67,2.67h82.71l2.67,2.67v26.68l-2.67,2.67h-82.71l-2.67,2.67v42.69l2.67,2.67h88l2.67,2.67v26.68Z"/><path class="cls-1" d="M1451.09,1316.13h-125.4l-2.67-2.67V1132l2.67-2.67h125.4l2.67,2.67v26.68l-2.67,2.67h-88l-2.67,2.67v37.35l2.67,2.67h82.71l2.67,2.67v26.68l-2.67,2.67H1363l-2.67,2.67v42.69l2.67,2.67h88l2.67,2.67v26.68Z"/><path class="cls-1" d="M1446,1311H1320.6l-2.67-2.67V1126.94l2.67-2.67H1446l2.67,2.67v26.68l-2.67,2.67h-88l-2.67,2.67v37.35L1358,1199h82.71l2.67,2.67v26.68l-2.67,2.67H1358l-2.67,2.67v42.69L1358,1279h88l2.67,2.67v26.68Z"/><path class="cls-1" d="M1440.92,1306h-125.4l-2.67-2.67V1121.86l2.67-2.67h125.4l2.67,2.67v26.68l-2.67,2.67h-88l-2.67,2.67v37.35l2.67,2.67h82.71l2.67,2.67v26.68l-2.67,2.67h-82.71l-2.67,2.67v42.69l2.67,2.67h88l2.67,2.67v26.68Z"/><path class="cls-1" d="M1435.83,1300.88h-125.4l-2.67-2.67V1116.77l2.67-2.67h125.4l2.67,2.67v26.68l-2.67,2.67h-88l-2.67,2.67v37.35l2.67,2.67h82.71l2.67,2.67v26.68l-2.67,2.67h-82.71l-2.67,2.67v42.69l2.67,2.67h88l2.67,2.67v26.68Z"/><path class="cls-1" d="M1430.75,1295.79h-125.4l-2.67-2.67V1111.69l2.67-2.67h125.4l2.67,2.67v26.68l-2.67,2.67h-88l-2.67,2.67v37.35l2.67,2.67h82.71l2.67,2.67v26.68l-2.67,2.67H1342.7l-2.67,2.67v42.69l2.67,2.67h88l2.67,2.67v26.68Z"/><path class="cls-1" d="M1425.66,1290.7h-125.4l-2.67-2.67V1106.6l2.67-2.67h125.4l2.67,2.67v26.68l-2.67,2.67h-88l-2.67,2.67V1176l2.67,2.67h82.71l2.67,2.67V1208l-2.67,2.67h-82.71l-2.67,2.67V1256l2.67,2.67h88l2.67,2.67V1288Z"/><path class="cls-1" d="M1420.58,1285.62h-125.4l-2.67-2.67V1101.51l2.67-2.67h125.4l2.67,2.67v26.68l-2.67,2.67h-88l-2.67,2.67v37.35l2.67,2.67h82.71l2.67,2.67v26.68l-2.67,2.67h-82.71l-2.67,2.67v42.69l2.67,2.67h88l2.67,2.67v26.68Z"/><path class="cls-1" d="M1415.49,1280.53h-125.4l-2.67-2.67V1096.43l2.67-2.67h125.4l2.67,2.67v26.68l-2.67,2.67h-88l-2.67,2.67v37.35l2.67,2.67h82.71l2.67,2.67v26.68l-2.67,2.67h-82.71l-2.67,2.67v42.69l2.67,2.67h88l2.67,2.67v26.68Z"/><path class="cls-1" d="M1410.4,1275.44H1285l-2.67-2.67V1091.34l2.67-2.67h125.4l2.67,2.67V1118l-2.67,2.67h-88l-2.67,2.67v37.35l2.67,2.67h82.71l2.67,2.67v26.68l-2.67,2.67h-82.71l-2.67,2.67v42.69l2.67,2.67h88l2.67,2.67v26.68Z"/><path class="cls-1" d="M1405.32,1270.36h-125.4l-2.67-2.67V1086.26l2.67-2.67h125.4l2.67,2.67v26.68l-2.67,2.67h-88l-2.67,2.67v37.35l2.67,2.67H1400l2.67,2.67v26.68l-2.67,2.67h-82.71l-2.67,2.67v42.69l2.67,2.67h88L1408,1241v26.68Z"/><path class="cls-1" d="M1400.23,1265.27h-125.4l-2.67-2.67V1081.17l2.67-2.67h125.4l2.67,2.67v26.68l-2.67,2.67h-88l-2.67,2.67v37.35l2.67,2.67h82.71l2.67,2.67v26.68l-2.67,2.67h-82.71l-2.67,2.67v42.69l2.67,2.67h88l2.67,2.67v26.68Z"/><path class="cls-1" d="M1395.15,1260.19h-125.4l-2.67-2.67V1076.08l2.67-2.67h125.4l2.67,2.67v26.68l-2.67,2.67h-88l-2.67,2.67v37.35l2.67,2.67h82.71l2.67,2.67v26.68l-2.67,2.67H1307.1l-2.67,2.67v42.69l2.67,2.67h88l2.67,2.67v26.68Z"/><path class="cls-1" d="M1390.06,1255.1h-125.4l-2.67-2.67V1071l2.67-2.67h125.4l2.67,2.67v26.68l-2.67,2.67h-88l-2.67,2.67v37.35L1302,1143h82.71l2.67,2.67v26.68l-2.67,2.67H1302l-2.67,2.67v42.69l2.67,2.67h88l2.67,2.67v26.68Z"/><path class="cls-1" d="M1385,1250h-125.4l-2.67-2.67V1065.91l2.67-2.67H1385l2.67,2.67v26.68l-2.67,2.67h-88l-2.67,2.67v37.35l2.67,2.67h82.71l2.67,2.67v26.68l-2.67,2.67h-82.71l-2.67,2.67v42.69l2.67,2.67h88l2.67,2.67v26.68Z"/><path class="cls-1" d="M1379.89,1244.93h-125.4l-2.67-2.67V1060.83l2.67-2.67h125.4l2.67,2.67v26.68l-2.67,2.67h-88l-2.67,2.67v37.35l2.67,2.67h82.71l2.67,2.67v26.68l-2.67,2.67h-82.71l-2.67,2.67v42.69l2.67,2.67h88l2.67,2.67v26.68Z"/><path class="cls-1" d="M1374.8,1239.84H1249.4l-2.67-2.67V1055.74l2.67-2.67h125.4l2.67,2.67v26.68l-2.67,2.67h-88l-2.67,2.67v37.35l2.67,2.67h82.71l2.67,2.67v26.68l-2.67,2.67h-82.71l-2.67,2.67v42.69l2.67,2.67h88l2.67,2.67v26.68Z"/><path class="cls-1" d="M1369.72,1234.76h-125.4l-2.67-2.67V1050.65l2.67-2.67h125.4l2.67,2.67v26.68l-2.67,2.67h-88l-2.67,2.67V1120l2.67,2.67h82.71l2.67,2.67V1152l-2.67,2.67h-82.71l-2.67,2.67v42.69l2.67,2.67h88l2.67,2.67v26.68Z"/><path class="cls-1" d="M1364.63,1229.67h-125.4l-2.67-2.67V1045.57l2.67-2.67h125.4l2.67,2.67v26.68l-2.67,2.67h-88l-2.67,2.67v37.35l2.67,2.67h82.71l2.67,2.67V1147l-2.67,2.67h-82.71l-2.67,2.67V1195l2.67,2.67h88l2.67,2.67V1227Z"/><path class="cls-1" d="M1359.54,1224.58h-125.4l-2.67-2.67V1040.48l2.67-2.67h125.4l2.67,2.67v26.68l-2.67,2.67h-88l-2.67,2.67v37.35l2.67,2.67h82.71l2.67,2.67v26.68l-2.67,2.67H1271.5l-2.67,2.67v42.69l2.67,2.67h88l2.67,2.67v26.68Z"/><path class="cls-1" d="M1354.46,1219.5h-125.4l-2.67-2.67V1035.4l2.67-2.67h125.4l2.67,2.67v26.68l-2.67,2.67h-88l-2.67,2.67v37.35l2.67,2.67h82.71l2.67,2.67v26.68l-2.67,2.67h-82.71l-2.67,2.67v42.69l2.67,2.67h88l2.67,2.67v26.68Z"/><path class="cls-1" d="M1349.37,1214.41H1224l-2.67-2.67V1030.31l2.67-2.67h125.4l2.67,2.67V1057l-2.67,2.67h-88l-2.67,2.67v37.35l2.67,2.67H1344l2.67,2.67v26.68l-2.67,2.67h-82.71l-2.67,2.67v42.69l2.67,2.67h88l2.67,2.67v26.68Z"/><path class="cls-1" d="M1344.29,1209.33h-125.4l-2.67-2.67V1025.22l2.67-2.67h125.4l2.67,2.67v26.68l-2.67,2.67h-88l-2.67,2.67v37.35l2.67,2.67h82.71l2.67,2.67v26.68l-2.67,2.67h-82.71l-2.67,2.67v42.69l2.67,2.67h88L1347,1180v26.68Z"/><path class="cls-1" d="M1339.2,1204.24H1213.8l-2.67-2.67V1020.14l2.67-2.67h125.4l2.67,2.67v26.68l-2.67,2.67h-88l-2.67,2.67v37.35l2.67,2.67h82.71l2.67,2.67v26.68l-2.67,2.67h-82.71l-2.67,2.67v42.69l2.67,2.67h88l2.67,2.67v26.68Z"/><path class="cls-1" d="M1334.11,1199.15h-125.4l-2.67-2.67V1015.05l2.67-2.67h125.4l2.67,2.67v26.68l-2.67,2.67h-88l-2.67,2.67v37.35l2.67,2.67h82.71l2.67,2.67v26.68l-2.67,2.67h-82.71l-2.67,2.67v42.69l2.67,2.67h88l2.67,2.67v26.68Z"/><path class="cls-1" d="M1329,1194.07h-125.4l-2.67-2.67V1010l2.67-2.67H1329l2.67,2.67v26.68l-2.67,2.67h-88l-2.67,2.67v37.35L1241,1082h82.71l2.67,2.67v26.68l-2.67,2.67H1241l-2.67,2.67v42.69l2.67,2.67h88l2.67,2.67v26.68Z"/><path class="cls-1" d="M1323.94,1189h-125.4l-2.67-2.67V1004.88l2.67-2.67h125.4l2.67,2.67v26.68l-2.67,2.67h-88l-2.67,2.67v37.35l2.67,2.67h82.71l2.67,2.67v26.68l-2.67,2.67h-82.71l-2.67,2.67v42.69l2.67,2.67h88l2.67,2.67v26.68Z"/><path class="cls-1" d="M1318.86,1183.9h-125.4l-2.67-2.67V999.79l2.67-2.67h125.4l2.67,2.67v26.68l-2.67,2.67h-88l-2.67,2.67v37.35l2.67,2.67h82.71l2.67,2.67v26.68l-2.67,2.67h-82.71l-2.67,2.67v42.69l2.67,2.67h88l2.67,2.67v26.68Z"/><path class="cls-1" d="M1313.77,1178.81h-125.4l-2.67-2.67V994.71l2.67-2.67h125.4l2.67,2.67v26.68l-2.67,2.67h-88l-2.67,2.67v37.35l2.67,2.67h82.71l2.67,2.67v26.68l-2.67,2.67h-82.71l-2.67,2.67v42.69l2.67,2.67h88l2.67,2.67v26.68Z"/><path class="cls-1" d="M1308.68,1173.72h-125.4l-2.67-2.67V989.62l2.67-2.67h125.4l2.67,2.67v26.68l-2.67,2.67h-88l-2.67,2.67V1059l2.67,2.67h82.71l2.67,2.67V1091l-2.67,2.67h-82.71l-2.67,2.67V1139l2.67,2.67h88l2.67,2.67v26.68Z"/><path class="cls-1" d="M1303.6,1168.64H1178.2l-2.67-2.67V984.54l2.67-2.67h125.4l2.67,2.67v26.68l-2.67,2.67h-88l-2.67,2.67v37.35l2.67,2.67h82.71l2.67,2.67v26.68l-2.67,2.67h-82.71l-2.67,2.67V1134l2.67,2.67h88l2.67,2.67V1166Z"/><path class="cls-1" d="M1298.51,1163.55h-125.4l-2.67-2.67V979.45l2.67-2.67h125.4l2.67,2.67v26.68l-2.67,2.67h-88l-2.67,2.67v37.35l2.67,2.67h82.71l2.67,2.67v26.68l-2.67,2.67h-82.71l-2.67,2.67v42.69l2.67,2.67h88l2.67,2.67v26.68Z"/><path class="cls-1" d="M1293.43,1158.47H1168l-2.67-2.67V974.36l2.67-2.67h125.4l2.67,2.67V1001l-2.67,2.67h-88l-2.67,2.67v37.35l2.67,2.67h82.71l2.67,2.67v26.68l-2.67,2.67h-82.71l-2.67,2.67v42.69l2.67,2.67h88l2.67,2.67v26.68Z"/><path class="cls-1" d="M1288.34,1153.38h-125.4l-2.67-2.67V969.28l2.67-2.67h125.4l2.67,2.67V996l-2.67,2.67h-88l-2.67,2.67v37.35l2.67,2.67H1283l2.67,2.67v26.68l-2.67,2.67h-82.71l-2.67,2.67v42.69l2.67,2.67h88L1291,1124v26.68Z"/><path class="cls-1" d="M1283.25,1148.29h-125.4l-2.67-2.67V964.19l2.67-2.67h125.4l2.67,2.67v26.68l-2.67,2.67h-88l-2.67,2.67v37.35l2.67,2.67h82.71l2.67,2.67v26.68l-2.67,2.67H1195.2l-2.67,2.67v42.69l2.67,2.67h88l2.67,2.67v26.68Z"/><path class="cls-1" d="M1278.17,1143.21h-125.4l-2.67-2.67V959.11l2.67-2.67h125.4l2.67,2.67v26.68l-2.67,2.67h-88l-2.67,2.67v37.35l2.67,2.67h82.71l2.67,2.67v26.68l-2.67,2.67h-82.71l-2.67,2.67v42.69l2.67,2.67h88l2.67,2.67v26.68Z"/><path class="cls-1" d="M1273.08,1138.12h-125.4l-2.67-2.67V954l2.67-2.67h125.4l2.67,2.67V980.7l-2.67,2.67h-88l-2.67,2.67v37.35l2.67,2.67h82.71l2.67,2.67v26.68l-2.67,2.67H1185l-2.67,2.67v42.69l2.67,2.67h88l2.67,2.67v26.68Z"/><path class="cls-1" d="M1268,1133h-125.4l-2.67-2.67V948.93l2.67-2.67H1268l2.67,2.67v26.68l-2.67,2.67h-88l-2.67,2.67v37.35l2.67,2.67h82.71l2.67,2.67v26.68l-2.67,2.67h-82.71l-2.67,2.67v42.69l2.67,2.67h88l2.67,2.67v26.68Z"/><path class="cls-1" d="M1262.91,1127.95h-125.4l-2.67-2.67V943.85l2.67-2.67h125.4l2.67,2.67v26.68l-2.67,2.67h-88l-2.67,2.67v37.35l2.67,2.67h82.71l2.67,2.67v26.68l-2.67,2.67h-82.71l-2.67,2.67v42.69l2.67,2.67h88l2.67,2.67v26.68Z"/><path class="cls-1" d="M1257.82,1122.86h-125.4l-2.67-2.67V938.76l2.67-2.67h125.4l2.67,2.67v26.68l-2.67,2.67h-88l-2.67,2.67v37.35l2.67,2.67h82.71l2.67,2.67v26.68l-2.67,2.67h-82.71l-2.67,2.67v42.69l2.67,2.67h88l2.67,2.67v26.68Z"/><path class="cls-1" d="M1252.74,1117.78h-125.4l-2.67-2.67V933.68l2.67-2.67h125.4l2.67,2.67v26.68l-2.67,2.67h-88l-2.67,2.67V1003l2.67,2.67h82.71l2.67,2.67v26.68l-2.67,2.67h-82.71l-2.67,2.67v42.69l2.67,2.67h88l2.67,2.67v26.68Z"/><path class="cls-1" d="M1247.65,1112.69h-125.4l-2.67-2.67V928.59l2.67-2.67h125.4l2.67,2.67v26.68l-2.67,2.67h-88l-2.67,2.67V998l2.67,2.67h82.71l2.67,2.67V1030l-2.67,2.67H1159.6l-2.67,2.67V1078l2.67,2.67h88l2.67,2.67V1110Z"/><path class="cls-1" d="M1242.57,1107.61h-125.4l-2.67-2.67V923.5l2.67-2.67h125.4l2.67,2.67v26.68l-2.67,2.67h-88l-2.67,2.67v37.35l2.67,2.67h82.71l2.67,2.67v26.68l-2.67,2.67h-82.71l-2.67,2.67v42.69l2.67,2.67h88l2.67,2.67v26.68Z"/><path class="cls-1" d="M1237.48,1102.52h-125.4l-2.67-2.67V918.42l2.67-2.67h125.4l2.67,2.67V945.1l-2.67,2.67h-88l-2.67,2.67v37.35l2.67,2.67h82.71l2.67,2.67v26.68l-2.67,2.67h-82.71l-2.67,2.67v42.69l2.67,2.67h88l2.67,2.67v26.68Z"/><path class="cls-1" d="M1232.39,1097.43H1107l-2.67-2.67V913.33l2.67-2.67h125.4l2.67,2.67V940l-2.67,2.67h-88l-2.67,2.67V982.7l2.67,2.67h82.71l2.67,2.67v26.68l-2.67,2.67h-82.71l-2.67,2.67v42.69l2.67,2.67h88l2.67,2.67v26.68Z"/><path class="cls-1" d="M1227.31,1092.35H1101.9l-2.67-2.67V908.25l2.67-2.67h125.4l2.67,2.67v26.68l-2.67,2.67h-88l-2.67,2.67v37.35l2.67,2.67H1222l2.67,2.67v26.68l-2.67,2.67h-82.71l-2.67,2.67v42.69l2.67,2.67h88L1230,1063v26.68Z"/><path class="cls-1" d="M1222.22,1087.26h-125.4l-2.67-2.67V903.16l2.67-2.67h125.4l2.67,2.67v26.68l-2.67,2.67h-88l-2.67,2.67v37.35l2.67,2.67h82.71l2.67,2.67v26.68l-2.67,2.67h-82.71l-2.67,2.67v42.69l2.67,2.67h88l2.67,2.67v26.68Z"/><path class="cls-1" d="M1217.13,1082.18h-125.4l-2.67-2.67V898.07l2.67-2.67h125.4l2.67,2.67v26.68l-2.67,2.67h-88l-2.67,2.67v37.35l2.67,2.67h82.71l2.67,2.67v26.68l-2.67,2.67h-82.71l-2.67,2.67v42.69l2.67,2.67h88l2.67,2.67v26.68Z"/><path class="cls-1" d="M1212,1077.09h-125.4l-2.67-2.67V893l2.67-2.67H1212l2.67,2.67v26.68l-2.67,2.67h-88l-2.67,2.67v37.35L1124,965h82.71l2.67,2.67v26.68l-2.67,2.67H1124l-2.67,2.67v42.69l2.67,2.67h88l2.67,2.67v26.68Z"/><path class="cls-1" d="M1207,1072h-125.4l-2.67-2.67V887.9l2.67-2.67H1207l2.67,2.67v26.68l-2.67,2.67h-88l-2.67,2.67v37.35l2.67,2.67h82.71l2.67,2.67v26.68l-2.67,2.67h-82.71l-2.67,2.67v42.69l2.67,2.67h88l2.67,2.67v26.68Z"/><path class="cls-1" d="M1201.88,1066.92h-125.4l-2.67-2.67V882.81l2.67-2.67h125.4l2.67,2.67V909.5l-2.67,2.67h-88l-2.67,2.67v37.35l2.67,2.67h82.71l2.67,2.67V984.2l-2.67,2.67h-82.71l-2.67,2.67v42.69l2.67,2.67h88l2.67,2.67v26.68Z"/><path class="cls-1" d="M1196.79,1061.83h-125.4l-2.67-2.67V877.73l2.67-2.67h125.4l2.67,2.67v26.68l-2.67,2.67h-88l-2.67,2.67V947.1l2.67,2.67h82.71l2.67,2.67v26.68l-2.67,2.67h-82.71l-2.67,2.67v42.69l2.67,2.67h88l2.67,2.67v26.68Z"/><path class="cls-1" d="M1191.7,1056.75H1066.3l-2.67-2.67V872.64l2.67-2.67h125.4l2.67,2.67v26.68L1191.7,902h-88l-2.67,2.67V942l2.67,2.67h82.71l2.67,2.67V974l-2.67,2.67h-82.71l-2.67,2.67v42.69l2.67,2.67h88l2.67,2.67v26.68Z"/><path class="cls-1" d="M1186.62,1051.66h-125.4l-2.67-2.67V867.56l2.67-2.67h125.4l2.67,2.67v26.68l-2.67,2.67h-88l-2.67,2.67v37.35l2.67,2.67h82.71l2.67,2.67v26.68l-2.67,2.67h-82.71l-2.67,2.67V1017l2.67,2.67h88l2.67,2.67V1049Z"/><path class="cls-1" d="M1181.53,1046.57h-125.4l-2.67-2.67V862.47l2.67-2.67h125.4l2.67,2.67v26.68l-2.67,2.67h-88l-2.67,2.67v37.35l2.67,2.67h82.71l2.67,2.67v26.68l-2.67,2.67h-82.71l-2.67,2.67v42.69l2.67,2.67h88l2.67,2.67v26.68Z"/><path class="cls-1" d="M1176.45,1041.49H1051l-2.67-2.67V857.38l2.67-2.67h125.4l2.67,2.67v26.68l-2.67,2.67h-88l-2.67,2.67v37.35l2.67,2.67h82.71l2.67,2.67v26.68l-2.67,2.67H1088.4l-2.67,2.67v42.69l2.67,2.67h88l2.67,2.67v26.68Z"/><path class="cls-1" d="M1171.36,1036.4H1046l-2.67-2.67V852.3l2.67-2.67h125.4l2.67,2.67V879l-2.67,2.67h-88l-2.67,2.67v37.35l2.67,2.67H1166l2.67,2.67v26.68l-2.67,2.67h-82.71l-2.67,2.67v42.69l2.67,2.67h88l2.67,2.67v26.68Z"/><path class="cls-1" d="M1166.27,1031.32h-125.4l-2.67-2.67V847.21l2.67-2.67h125.4l2.67,2.67v26.68l-2.67,2.67h-88l-2.67,2.67v37.35l2.67,2.67h82.71l2.67,2.67V948.6l-2.67,2.67h-82.71l-2.67,2.67v42.69l2.67,2.67h88l2.67,2.67v26.68Z"/><path class="cls-1" d="M1161.19,1026.23h-125.4l-2.67-2.67V842.13l2.67-2.67h125.4l2.67,2.67v26.68l-2.67,2.67h-88l-2.67,2.67V911.5l2.67,2.67h82.71l2.67,2.67v26.68l-2.67,2.67h-82.71l-2.67,2.67v42.69l2.67,2.67h88l2.67,2.67v26.68Z"/><path class="cls-1" d="M1156.1,1021.14H1030.7l-2.67-2.67V837l2.67-2.67h125.4l2.67,2.67v26.68l-2.67,2.67h-88l-2.67,2.67v37.35l2.67,2.67h82.71l2.67,2.67v26.68l-2.67,2.67h-82.71l-2.67,2.67v42.69l2.67,2.67h88l2.67,2.67v26.68Z"/><path class="cls-1" d="M1151,1016.06h-125.4l-2.67-2.67V832l2.67-2.67H1151l2.67,2.67v26.68L1151,861.3h-88L1060.3,864v37.35L1063,904h82.71l2.67,2.67v26.68l-2.67,2.67H1063l-2.67,2.67v42.69L1063,984h88l2.67,2.67v26.68Z"/><path class="cls-1" d="M1145.93,1011h-125.4l-2.67-2.67V826.87l2.67-2.67h125.4l2.67,2.67v26.68l-2.67,2.67h-88l-2.67,2.67v37.35l2.67,2.67h82.71l2.67,2.67v26.68l-2.67,2.67h-82.71l-2.67,2.67v42.69l2.67,2.67h88l2.67,2.67v26.68Z"/><path class="cls-1" d="M1140.84,1005.89h-125.4l-2.67-2.67V821.78l2.67-2.67h125.4l2.67,2.67v26.68l-2.67,2.67h-88l-2.67,2.67v37.35l2.67,2.67h82.71l2.67,2.67v26.68l-2.67,2.67H1052.8l-2.67,2.67V971.2l2.67,2.67h88l2.67,2.67v26.68Z"/><path class="cls-1" d="M1135.76,1000.8h-125.4l-2.67-2.67V816.7l2.67-2.67h125.4l2.67,2.67v26.68l-2.67,2.67h-88l-2.67,2.67v37.35l2.67,2.67h82.71l2.67,2.67v26.68l-2.67,2.67h-82.71l-2.67,2.67v42.69l2.67,2.67h88l2.67,2.67v26.68Z"/><path class="cls-1" d="M1130.67,995.71h-125.4L1002.6,993V811.61l2.67-2.67h125.4l2.67,2.67v26.68l-2.67,2.67h-88l-2.67,2.67V881l2.67,2.67h82.71l2.67,2.67V913l-2.67,2.67h-82.71l-2.67,2.67V961l2.67,2.67h88l2.67,2.67V993Z"/><path class="cls-1" d="M1125.59,990.63h-125.4L997.52,988V806.52l2.67-2.67h125.4l2.67,2.67v26.68l-2.67,2.67h-88l-2.67,2.67V875.9l2.67,2.67h82.71l2.67,2.67v26.68l-2.67,2.67h-82.71l-2.67,2.67v42.69l2.67,2.67h88l2.67,2.67V988Z"/><path class="cls-1" d="M1120.5,985.54H995.1l-2.67-2.67V801.44l2.67-2.67h125.4l2.67,2.67v26.68l-2.67,2.67h-88l-2.67,2.67v37.35l2.67,2.67h82.71l2.67,2.67v26.68l-2.67,2.67h-82.71l-2.67,2.67v42.69l2.67,2.67h88l2.67,2.67v26.68Z"/><path class="cls-1" d="M1115.41,980.45H990l-2.67-2.67V796.35l2.67-2.67h125.4l2.67,2.67V823l-2.67,2.67h-88l-2.67,2.67v37.35l2.67,2.67h82.71l2.67,2.67v26.68l-2.67,2.67h-82.71l-2.67,2.67v42.69l2.67,2.67h88l2.67,2.67v26.68Z"/><path class="cls-1" d="M1110.33,975.37H984.93l-2.67-2.67V791.27l2.67-2.67h125.4l2.67,2.67v26.68l-2.67,2.67h-88l-2.67,2.67v37.35l2.67,2.67H1105l2.67,2.67v26.68l-2.67,2.67h-82.71l-2.67,2.67v42.69l2.67,2.67h88L1113,946V972.7Z"/><path class="cls-1" d="M1105.24,970.28H979.84l-2.67-2.67V786.18l2.67-2.67h125.4l2.67,2.67v26.68l-2.67,2.67h-88l-2.67,2.67v37.35l2.67,2.67h82.71l2.67,2.67v26.68l-2.67,2.67h-82.71l-2.67,2.67V935.6l2.67,2.67h88l2.67,2.67v26.68Z"/><path class="cls-1" d="M1100.16,965.2H974.75l-2.67-2.67V781.09l2.67-2.67h125.4l2.67,2.67v26.68l-2.67,2.67h-88l-2.67,2.67v37.35l2.67,2.67h82.71l2.67,2.67v26.68l-2.67,2.67h-82.71l-2.67,2.67v42.69l2.67,2.67h88l2.67,2.67v26.68Z"/><path class="cls-1" d="M1095.07,960.11H969.67L967,957.44V776l2.67-2.67h125.4l2.67,2.67v26.68l-2.67,2.67h-88l-2.67,2.67v37.35L1007,848h82.71l2.67,2.67V877.4l-2.67,2.67H1007l-2.67,2.67v42.69l2.67,2.67h88l2.67,2.67v26.68Z"/><path class="cls-1" d="M1090,955H964.58l-2.67-2.67V770.92l2.67-2.67H1090l2.67,2.67V797.6l-2.67,2.67h-88l-2.67,2.67v37.35l2.67,2.67h82.71l2.67,2.67v26.68l-2.67,2.67h-82.71l-2.67,2.67v42.69l2.67,2.67h88l2.67,2.67v26.68Z"/><path class="cls-1" d="M1084.9,949.94H959.5l-2.67-2.67V765.84l2.67-2.67h125.4l2.67,2.67v26.68l-2.67,2.67h-88l-2.67,2.67v37.35l2.67,2.67h82.71l2.67,2.67v26.68l-2.67,2.67H996.85l-2.67,2.67v42.69l2.67,2.67h88l2.67,2.67v26.68Z"/><path class="cls-1" d="M1079.81,944.85H954.41l-2.67-2.67V760.75l2.67-2.67h125.4l2.67,2.67v26.68l-2.67,2.67h-88l-2.67,2.67v37.35l2.67,2.67h82.71l2.67,2.67v26.68l-2.67,2.67H991.76l-2.67,2.67v42.69l2.67,2.67h88l2.67,2.67v26.68Z"/><path class="cls-1" d="M1074.73,939.77H949.32l-2.67-2.67V755.66l2.67-2.67h125.4l2.67,2.67v26.68l-2.67,2.67h-88L984,787.68V825l2.67,2.67h82.71l2.67,2.67v26.68l-2.67,2.67H986.68L984,862.39v42.69l2.67,2.67h88l2.67,2.67V937.1Z"/><path class="cls-1" d="M1069.64,934.68H944.24L941.57,932V750.58l2.67-2.67h125.4l2.67,2.67v26.68l-2.67,2.67h-88l-2.67,2.67V820l2.67,2.67h82.71l2.67,2.67V852l-2.67,2.67H981.59l-2.67,2.67V900l2.67,2.67h88l2.67,2.67V932Z"/><path class="cls-1" d="M1064.55,929.59H939.15l-2.67-2.67V745.49l2.67-2.67h125.4l2.67,2.67v26.68l-2.67,2.67h-88l-2.67,2.67v37.35l2.67,2.67h82.71l2.67,2.67v26.68l-2.67,2.67H976.5l-2.67,2.67v42.69l2.67,2.67h88l2.67,2.67v26.68Z"/><path class="cls-1" d="M1059.47,924.51H934.07l-2.67-2.67V740.41l2.67-2.67h125.4l2.67,2.67v26.68l-2.67,2.67h-88l-2.67,2.67v37.35l2.67,2.67h82.71l2.67,2.67V841.8l-2.67,2.67H971.42l-2.67,2.67v42.69l2.67,2.67h88l2.67,2.67v26.68Z"/><path class="cls-1" d="M1054.38,919.42H929l-2.67-2.67V735.32l2.67-2.67h125.4l2.67,2.67V762l-2.67,2.67h-88l-2.67,2.67v37.35l2.67,2.67H1049l2.67,2.67v26.68l-2.67,2.67H966.33L963.66,842v42.69l2.67,2.67h88l2.67,2.67v26.68Z"/><path class="cls-1" d="M1049.3,914.34H923.89l-2.67-2.67V730.23l2.67-2.67h125.4l2.67,2.67v26.68l-2.67,2.67h-88l-2.67,2.67v37.35l2.67,2.67H1044l2.67,2.67v26.68l-2.67,2.67H961.25L958.58,837v42.69l2.67,2.67h88L1052,885v26.68Z"/><path class="cls-1" d="M1044.21,909.25H918.81l-2.67-2.67V725.15l2.67-2.67h125.4l2.67,2.67v26.68l-2.67,2.67h-88l-2.67,2.67v37.35l2.67,2.67h82.71l2.67,2.67v26.68l-2.67,2.67H956.16l-2.67,2.67v42.69l2.67,2.67h88l2.67,2.67v26.68Z"/><path class="cls-1" d="M1039.12,904.16H913.72l-2.67-2.67V720.06l2.67-2.67h125.4l2.67,2.67v26.68l-2.67,2.67h-88l-2.67,2.67v37.35l2.67,2.67h82.71l2.67,2.67v26.68l-2.67,2.67H951.07l-2.67,2.67v42.69l2.67,2.67h88l2.67,2.67V901.5Z"/><path class="cls-1" d="M1034,899.08H908.64L906,896.41V715l2.67-2.67H1034l2.67,2.67v26.68l-2.67,2.67H946L943.32,747v37.35L946,787h82.71l2.67,2.67v26.68L1028.7,819H946l-2.67,2.67v42.69l2.67,2.67h88l2.67,2.67v26.68Z"/><path class="cls-1" d="M1029,894H903.55l-2.67-2.67V709.89l2.67-2.67H1029l2.67,2.67v26.68l-2.67,2.67h-88l-2.67,2.67v37.35l2.67,2.67h82.71l2.67,2.67v26.68l-2.67,2.67H940.9l-2.67,2.67v42.69L940.9,862h88l2.67,2.67v26.68Z"/><path class="cls-1" d="M1023.87,888.91H898.46l-2.67-2.67V704.8l2.67-2.67h125.4l2.67,2.67v26.68l-2.67,2.67h-88l-2.67,2.67v37.35l2.67,2.67h82.71l2.67,2.67v26.68l-2.67,2.67H935.82l-2.67,2.67v42.69l2.67,2.67h88l2.67,2.67v26.68Z"/><path class="cls-1" d="M1018.78,883.82H893.38l-2.67-2.67V699.72l2.67-2.67h125.4l2.67,2.67V726.4l-2.67,2.67h-88l-2.67,2.67v37.35l2.67,2.67h82.71l2.67,2.67v26.68l-2.67,2.67H930.73l-2.67,2.67v42.69l2.67,2.67h88l2.67,2.67v26.68Z"/><path class="cls-1" d="M1013.69,878.73H888.29l-2.67-2.67V694.63l2.67-2.67h125.4l2.67,2.67v26.68l-2.67,2.67h-88L923,726.65V764l2.67,2.67h82.71l2.67,2.67V796l-2.67,2.67H925.64L923,801.36V844l2.67,2.67h88l2.67,2.67v26.68Z"/><path class="cls-1" d="M1008.61,873.65H883.21L880.54,871V689.55l2.67-2.67h125.4l2.67,2.67v26.68l-2.67,2.67h-88l-2.67,2.67v37.35l2.67,2.67h82.71l2.67,2.67v26.68l-2.67,2.67H920.56l-2.67,2.67V839l2.67,2.67h88l2.67,2.67V871Z"/><path class="cls-1" d="M1003.52,868.56H878.12l-2.67-2.67V684.46l2.67-2.67h125.4l2.67,2.67v26.68l-2.67,2.67h-88l-2.67,2.67v37.35l2.67,2.67h82.71l2.67,2.67v26.68l-2.67,2.67H915.47l-2.67,2.67v42.69l2.67,2.67h88l2.67,2.67v26.68Z"/><path class="cls-1" d="M998.44,863.48H873l-2.67-2.67V679.37l2.67-2.67h125.4l2.67,2.67v26.68l-2.67,2.67h-88l-2.67,2.67v37.35l2.67,2.67H993.1l2.67,2.67v26.68l-2.67,2.67H910.39l-2.67,2.67v42.69l2.67,2.67h88l2.67,2.67v26.68Z"/><path class="cls-1" d="M993.35,858.39H867.95l-2.67-2.67V674.29l2.67-2.67h125.4l2.67,2.67V701l-2.67,2.67h-88l-2.67,2.67v37.35l2.67,2.67H988l2.67,2.67v26.68L988,778.35H905.3L902.63,781V823.7l2.67,2.67h88L996,829v26.68Z"/><path class="cls-1" d="M988.26,853.3H862.86l-2.67-2.67V669.2l2.67-2.67h125.4l2.67,2.67v26.68l-2.67,2.67h-88l-2.67,2.67v37.35l2.67,2.67h82.71l2.67,2.67v26.68l-2.67,2.67H900.21l-2.67,2.67v42.69l2.67,2.67h88l2.67,2.67v26.68Z"/><path class="cls-1" d="M983.18,848.22H857.77l-2.67-2.67V664.12l2.67-2.67h125.4l2.67,2.67V690.8l-2.67,2.67h-88l-2.67,2.67v37.35l2.67,2.67h82.71l2.67,2.67V765.5l-2.67,2.67H895.13l-2.67,2.67v42.69l2.67,2.67h88l2.67,2.67v26.68Z"/><path class="cls-1" d="M978.09,843.13H852.69L850,840.46V659l2.67-2.67h125.4l2.67,2.67v26.68l-2.67,2.67H890L887.37,691V728.4l2.67,2.67h82.71l2.67,2.67v26.68l-2.67,2.67H890l-2.67,2.67v42.69l2.67,2.67h88l2.67,2.67v26.68Z"/><path class="cls-1" d="M973,838H847.6l-2.67-2.67V653.94l2.67-2.67H973l2.67,2.67v26.68L973,683.29H885L882.29,686v37.35L885,726h82.71l2.67,2.67v26.68L967.67,758H885l-2.67,2.67v42.69L885,806h88l2.67,2.67v26.68Z"/><path class="cls-1" d="M967.92,833H842.52l-2.67-2.67V648.86l2.67-2.67h125.4l2.67,2.67v26.68l-2.67,2.67h-88l-2.67,2.67v37.35l2.67,2.67h82.71l2.67,2.67v26.68l-2.67,2.67H879.87l-2.67,2.67v42.69l2.67,2.67h88l2.67,2.67v26.68Z"/><path class="cls-1" d="M962.83,827.87H837.43l-2.67-2.67V643.77l2.67-2.67h125.4l2.67,2.67v26.68l-2.67,2.67h-88l-2.67,2.67v37.35l2.67,2.67H957.5l2.67,2.67v26.68l-2.67,2.67H874.78l-2.67,2.67v42.69l2.67,2.67h88l2.67,2.67v26.68Z"/><path class="cls-1" d="M957.75,822.79H832.34l-2.67-2.67V638.69l2.67-2.67h125.4l2.67,2.67v26.68L957.75,668h-88L867,670.7v37.35l2.67,2.67h82.71l2.67,2.67v26.68l-2.67,2.67H869.7L867,745.41V788.1l2.67,2.67h88l2.67,2.67v26.68Z"/><path class="cls-1" d="M952.66,817.7H827.26L824.59,815V633.6l2.67-2.67h125.4l2.67,2.67v26.68l-2.67,2.67h-88l-2.67,2.67V703l2.67,2.67h82.71l2.67,2.67V735l-2.67,2.67H864.61l-2.67,2.67V783l2.67,2.67h88l2.67,2.67V815Z"/><path class="cls-1" d="M947.57,812.62H822.17l-2.67-2.67V628.51l2.67-2.67h125.4l2.67,2.67v26.68l-2.67,2.67h-88l-2.67,2.67v37.35l2.67,2.67h82.71l2.67,2.67V729.9l-2.67,2.67H859.53l-2.67,2.67v42.69l2.67,2.67h88l2.67,2.67v26.68Z"/><path class="cls-1" d="M942.49,807.53H817.09l-2.67-2.67V623.43l2.67-2.67h125.4l2.67,2.67v26.68l-2.67,2.67h-88l-2.67,2.67V692.8l2.67,2.67h82.71l2.67,2.67v26.68l-2.67,2.67H854.44l-2.67,2.67v42.69l2.67,2.67h88l2.67,2.67v26.68Z"/><path class="cls-1" d="M937.4,802.44H812l-2.67-2.67V618.34l2.67-2.67H937.4l2.67,2.67V645l-2.67,2.67h-88l-2.67,2.67v37.35l2.67,2.67h82.71l2.67,2.67v26.68l-2.67,2.67H849.35l-2.67,2.67v42.69l2.67,2.67h88l2.67,2.67v26.68Z"/><path class="cls-1" d="M932.32,797.36H806.91l-2.67-2.67V613.25l2.67-2.67h125.4l2.67,2.67v26.68l-2.67,2.67h-88l-2.67,2.67v37.35l2.67,2.67H927l2.67,2.67v26.68L927,717.31H844.27L841.6,720v42.69l2.67,2.67h88L935,768v26.68Z"/><path class="cls-1" d="M927.23,792.27H801.83l-2.67-2.67V608.17l2.67-2.67h125.4l2.67,2.67v26.68l-2.67,2.67h-88l-2.67,2.67v37.35l2.67,2.67h82.71l2.67,2.67v26.68l-2.67,2.67H839.18l-2.67,2.67v42.69l2.67,2.67h88l2.67,2.67V789.6Z"/><path class="cls-1" d="M922.14,787.19H796.74l-2.67-2.67V603.08l2.67-2.67h125.4l2.67,2.67v26.68l-2.67,2.67h-88l-2.67,2.67v37.35l2.67,2.67h82.71l2.67,2.67v26.68l-2.67,2.67H834.1l-2.67,2.67V752.5l2.67,2.67h88l2.67,2.67v26.68Z"/><path class="cls-1" d="M917.06,782.1H791.66L789,779.43V598l2.67-2.67h125.4l2.67,2.67v26.68l-2.67,2.67H829L826.34,630v37.35L829,670h82.71l2.67,2.67v26.68l-2.67,2.67H829l-2.67,2.67v42.69l2.67,2.67h88l2.67,2.67v26.68Z"/><path class="cls-1" d="M912,777H786.57l-2.67-2.67V592.91l2.67-2.67H912l2.67,2.67v26.68L912,622.26h-88l-2.67,2.67v37.35l2.67,2.67h82.71l2.67,2.67V694.3L906.64,697H823.92l-2.67,2.67v42.69l2.67,2.67h88l2.67,2.67v26.68Z"/><path class="cls-1" d="M906.89,771.93H781.48l-2.67-2.67V587.82l2.67-2.67h125.4l2.67,2.67v26.68l-2.67,2.67h-88l-2.67,2.67V657.2l2.67,2.67h82.71l2.67,2.67v26.68l-2.67,2.67H818.84l-2.67,2.67v42.69l2.67,2.67h88l2.67,2.67v26.68Z"/><path class="cls-1" d="M901.8,766.84H776.4l-2.67-2.67V582.74l2.67-2.67H901.8l2.67,2.67v26.68l-2.67,2.67h-88l-2.67,2.67v37.35l2.67,2.67h82.71l2.67,2.67v26.68l-2.67,2.67H813.75l-2.67,2.67v42.69l2.67,2.67h88l2.67,2.67v26.68Z"/><path class="cls-1" d="M896.71,761.76H771.31l-2.67-2.67V577.65l2.67-2.67h125.4l2.67,2.67v26.68L896.71,607h-88L806,609.67V647l2.67,2.67h82.71l2.67,2.67V679l-2.67,2.67H808.67L806,684.38v42.69l2.67,2.67h88l2.67,2.67v26.68Z"/><path class="cls-1" d="M891.63,756.67H766.23L763.56,754V572.57l2.67-2.67h125.4l2.67,2.67v26.68l-2.67,2.67h-88l-2.67,2.67v37.35l2.67,2.67h82.71l2.67,2.67V674l-2.67,2.67H803.58l-2.67,2.67V722l2.67,2.67h88l2.67,2.67V754Z"/><path class="cls-1" d="M886.54,751.58H761.14l-2.67-2.67V567.48l2.67-2.67h125.4l2.67,2.67v26.68l-2.67,2.67h-88l-2.67,2.67v37.35l2.67,2.67h82.71l2.67,2.67v26.68l-2.67,2.67H798.49l-2.67,2.67V716.9l2.67,2.67h88l2.67,2.67v26.68Z"/><path class="cls-1" d="M881.46,746.5H756.05l-2.67-2.67V562.39l2.67-2.67h125.4l2.67,2.67v26.68l-2.67,2.67h-88l-2.67,2.67v37.35l2.67,2.67h82.71l2.67,2.67v26.68l-2.67,2.67H793.41l-2.67,2.67v42.69l2.67,2.67h88l2.67,2.67v26.68Z"/><path class="cls-1" d="M876.37,741.41H751l-2.67-2.67V557.31l2.67-2.67h125.4l2.67,2.67V584l-2.67,2.67h-88l-2.67,2.67v37.35l2.67,2.67H871L873.7,632V658.7L871,661.37H788.32L785.65,664v42.69l2.67,2.67h88l2.67,2.67v26.68Z"/><path class="cls-1" d="M871.28,736.33H745.88l-2.67-2.67V552.22l2.67-2.67h125.4l2.67,2.67V578.9l-2.67,2.67h-88l-2.67,2.67v37.35l2.67,2.67h82.71l2.67,2.67v26.68l-2.67,2.67H783.24l-2.67,2.67v42.69l2.67,2.67h88L874,707v26.68Z"/><path class="cls-1" d="M866.2,731.24H740.8l-2.67-2.67V547.14l2.67-2.67H866.2l2.67,2.67v26.68l-2.67,2.67h-88l-2.67,2.67v37.35l2.67,2.67h82.71l2.67,2.67v26.68l-2.67,2.67H778.15l-2.67,2.67v42.69l2.67,2.67h88l2.67,2.67v26.68Z"/><path class="cls-1" d="M861.11,726.15H735.71L733,723.48V542.05l2.67-2.67h125.4l2.67,2.67v26.68l-2.67,2.67h-88l-2.67,2.67v37.35l2.67,2.67h82.71l2.67,2.67v26.68l-2.67,2.67H773.06l-2.67,2.67v42.69l2.67,2.67h88l2.67,2.67v26.68Z"/><path class="cls-1" d="M856,721.07H730.62L728,718.4V537l2.67-2.67H856L858.7,537v26.68L856,566.31H768L765.31,569v37.35L768,609h82.71l2.67,2.67v26.68L850.69,641H768l-2.67,2.67v42.69L768,689h88l2.67,2.67V718.4Z"/><path class="cls-1" d="M850.94,716H725.54l-2.67-2.67V531.88l2.67-2.67h125.4l2.67,2.67v26.68l-2.67,2.67h-88l-2.67,2.67v37.35l2.67,2.67H845.6l2.67,2.67v26.68l-2.67,2.67H762.89l-2.67,2.67V681.3l2.67,2.67h88l2.67,2.67v26.68Z"/><path class="cls-1" d="M845.85,710.89H720.45l-2.67-2.67V526.79l2.67-2.67h125.4l2.67,2.67v26.68l-2.67,2.67h-88l-2.67,2.67v37.35l2.67,2.67h82.71l2.67,2.67v26.68l-2.67,2.67H757.81l-2.67,2.67v42.69l2.67,2.67h88l2.67,2.67v26.68Z"/><path class="cls-1" d="M840.77,705.81H715.37l-2.67-2.67V521.71l2.67-2.67h125.4l2.67,2.67v26.68l-2.67,2.67h-88l-2.67,2.67v37.35l2.67,2.67h82.71l2.67,2.67V623.1l-2.67,2.67H752.72l-2.67,2.67v42.69l2.67,2.67h88l2.67,2.67v26.68Z"/><path class="cls-1" d="M835.68,700.72H710.28l-2.67-2.67V516.62l2.67-2.67h125.4l2.67,2.67V543.3L835.68,546h-88L745,548.64V586l2.67,2.67h82.71l2.67,2.67V618l-2.67,2.67H747.63L745,623.35V666l2.67,2.67h88l2.67,2.67v26.68Z"/><path class="cls-1" d="M830.6,695.64H705.19L702.53,693V511.53l2.67-2.67H830.6l2.67,2.67v26.68l-2.67,2.67h-88l-2.67,2.67v37.35l2.67,2.67h82.71l2.67,2.67v26.68l-2.67,2.67H742.55l-2.67,2.67V661l2.67,2.67h88l2.67,2.67V693Z"/><path class="cls-1" d="M825.51,690.55H700.11l-2.67-2.67V506.45l2.67-2.67h125.4l2.67,2.67v26.68l-2.67,2.67h-88l-2.67,2.67v37.35l2.67,2.67h82.71l2.67,2.67v26.68l-2.67,2.67H737.46l-2.67,2.67v42.69l2.67,2.67h88l2.67,2.67v26.68Z"/><path class="cls-1" d="M820.42,685.46H695l-2.67-2.67V501.36l2.67-2.67h125.4l2.67,2.67V528l-2.67,2.67h-88l-2.67,2.67v37.35l2.67,2.67h82.71l2.67,2.67v26.68l-2.67,2.67H732.38l-2.67,2.67v42.69l2.67,2.67h88l2.67,2.67V682.8Z"/><path class="cls-1" d="M815.34,680.38H689.94l-2.67-2.67V496.28l2.67-2.67h125.4l2.67,2.67V523l-2.67,2.67h-88l-2.67,2.67v37.35l2.67,2.67H810l2.67,2.67v26.68L810,600.33H727.29L724.62,603v42.69l2.67,2.67h88L818,651v26.68Z"/><path class="cls-1" d="M810.25,675.29H684.85l-2.67-2.67V491.19l2.67-2.67h125.4l2.67,2.67v26.68l-2.67,2.67h-88l-2.67,2.67v37.35l2.67,2.67h82.71l2.67,2.67v26.68l-2.67,2.67H722.2l-2.67,2.67v42.69l2.67,2.67h88l2.67,2.67v26.68Z"/><path class="cls-1" d="M805.17,670.21H679.76l-2.67-2.67V486.1l2.67-2.67h125.4l2.67,2.67v26.68l-2.67,2.67h-88l-2.67,2.67v37.35l2.67,2.67h82.71l2.67,2.67v26.68l-2.67,2.67H717.12l-2.67,2.67v42.69l2.67,2.67h88l2.67,2.67v26.68Z"/><path class="cls-1" d="M800.08,665.12H674.68L672,662.45V481l2.67-2.67h125.4l2.67,2.67V507.7l-2.67,2.67H712L709.36,513v37.35l2.67,2.67h82.71l2.67,2.67v26.68l-2.67,2.67H712l-2.67,2.67v42.69L712,633.1h88l2.67,2.67v26.68Z"/><path class="cls-1" d="M795,660H669.59l-2.67-2.67V475.93l2.67-2.67H795l2.67,2.67v26.68L795,505.28h-88l-2.67,2.67V545.3l2.67,2.67h82.71l2.67,2.67v26.68L789.66,580H706.95l-2.67,2.67v42.69l2.67,2.67h88l2.67,2.67v26.68Z"/><path class="cls-1" d="M789.91,654.95H664.51l-2.67-2.67V470.85l2.67-2.67h125.4l2.67,2.67v26.68l-2.67,2.67h-88l-2.67,2.67v37.35l2.67,2.67h82.71l2.67,2.67v26.68l-2.67,2.67H701.86l-2.67,2.67v42.69l2.67,2.67h88l2.67,2.67v26.68Z"/><path class="cls-1" d="M784.82,649.86H659.42l-2.67-2.67V465.76l2.67-2.67h125.4l2.67,2.67v26.68l-2.67,2.67h-88l-2.67,2.67v37.35l2.67,2.67h82.71l2.67,2.67v26.68l-2.67,2.67H696.77l-2.67,2.67v42.69l2.67,2.67h88l2.67,2.67v26.68Z"/><path class="cls-1" d="M779.74,644.78H654.33l-2.67-2.67V460.67l2.67-2.67h125.4l2.67,2.67v26.68L779.74,490h-88L689,492.69V530l2.67,2.67H774.4l2.67,2.67v26.68l-2.67,2.67H691.69L689,567.4v42.69l2.67,2.67h88l2.67,2.67v26.68Z"/><path class="cls-1" d="M774.65,639.69H649.25L646.58,637V455.59l2.67-2.67h125.4l2.67,2.67v26.68l-2.67,2.67h-88l-2.67,2.67V525l2.67,2.67h82.71L772,530.3V557l-2.67,2.67H686.6l-2.67,2.67V605l2.67,2.67h88l2.67,2.67V637Z"/><path class="cls-1" d="M769.56,634.6H644.16l-2.67-2.67V450.5l2.67-2.67h125.4l2.67,2.67v26.68l-2.67,2.67h-88l-2.67,2.67v37.35l2.67,2.67h82.71l2.67,2.67v26.68l-2.67,2.67H681.51l-2.67,2.67v42.69l2.67,2.67h88l2.67,2.67v26.68Z"/><path class="cls-1" d="M764.48,629.52H639.08l-2.67-2.67V445.42l2.67-2.67h125.4l2.67,2.67V472.1l-2.67,2.67h-88l-2.67,2.67v37.35l2.67,2.67h82.71l2.67,2.67v26.68l-2.67,2.67H676.43l-2.67,2.67v42.69l2.67,2.67h88l2.67,2.67v26.68Z"/><path class="cls-1" d="M759.39,624.43H634l-2.67-2.67V440.33l2.67-2.67h125.4l2.67,2.67V467l-2.67,2.67h-88l-2.67,2.67V509.7l2.67,2.67h82.71l2.67,2.67v26.68l-2.67,2.67H671.34l-2.67,2.67v42.69l2.67,2.67h88l2.67,2.67v26.68Z"/><path class="cls-1" d="M754.31,619.35H628.9l-2.67-2.67V435.24l2.67-2.67h125.4l2.67,2.67v26.68l-2.67,2.67h-88l-2.67,2.67v37.35l2.67,2.67H749l2.67,2.67v26.68L749,539.3H666.26L663.59,542v42.69l2.67,2.67h88L757,590v26.68Z"/><path class="cls-1" d="M749.22,614.26H623.82l-2.67-2.67V430.16l2.67-2.67h125.4l2.67,2.67v26.68l-2.67,2.67h-88l-2.67,2.67v37.35l2.67,2.67h82.71l2.67,2.67v26.68l-2.67,2.67H661.17l-2.67,2.67v42.69l2.67,2.67h88l2.67,2.67v26.68Z"/><path class="cls-1" d="M744.13,609.17H618.73l-2.67-2.67V425.07l2.67-2.67h125.4l2.67,2.67v26.68l-2.67,2.67h-88l-2.67,2.67v37.35l2.67,2.67H738.8l2.67,2.67v26.68l-2.67,2.67H656.08l-2.67,2.67v42.69l2.67,2.67h88l2.67,2.67v26.68Z"/><path class="cls-1" d="M739,604.09H613.65L611,601.42V420l2.67-2.67H739l2.67,2.67v26.68L739,449.34H651L648.33,452v37.35L651,492h82.71l2.67,2.67v26.68L733.71,524H651l-2.67,2.67V569.4l2.67,2.67h88l2.67,2.67v26.68Z"/><path class="cls-1" d="M734,599H608.56l-2.67-2.67V414.9l2.67-2.67H734l2.67,2.67v26.68L734,444.25h-88l-2.67,2.67v37.35l2.67,2.67h82.71l2.67,2.67v26.68L728.63,519H645.91l-2.67,2.67v42.69l2.67,2.67h88l2.67,2.67v26.68Z"/><path class="cls-1" d="M728.88,593.92H603.47l-2.67-2.67V409.81l2.67-2.67h125.4l2.67,2.67V436.5l-2.67,2.67h-88l-2.67,2.67v37.35l2.67,2.67h82.71l2.67,2.67V511.2l-2.67,2.67H640.83l-2.67,2.67v42.69l2.67,2.67h88l2.67,2.67v26.68Z"/><path class="cls-1" d="M723.79,588.83H598.39l-2.67-2.67V404.73l2.67-2.67h125.4l2.67,2.67v26.68l-2.67,2.67h-88l-2.67,2.67V474.1l2.67,2.67h82.71l2.67,2.67v26.68l-2.67,2.67H635.74l-2.67,2.67v42.69l2.67,2.67h88l2.67,2.67v26.68Z"/><path class="cls-1" d="M718.7,583.74H593.3l-2.67-2.67V399.64L593.3,397H718.7l2.67,2.67v26.68L718.7,429h-88L628,431.66V469l2.67,2.67h82.71l2.67,2.67V501l-2.67,2.67H630.65L628,506.37v42.69l2.67,2.67h88l2.67,2.67v26.68Z"/><path class="cls-1" d="M713.62,578.66H588.21L585.55,576V394.56l2.67-2.67h125.4l2.67,2.67v26.68l-2.67,2.67h-88l-2.67,2.67v37.35l2.67,2.67h82.71l2.67,2.67v26.68l-2.67,2.67H625.57l-2.67,2.67V544l2.67,2.67h88l2.67,2.67V576Z"/><path class="cls-1" d="M708.53,573.57H583.13l-2.67-2.67V389.47l2.67-2.67h125.4l2.67,2.67v26.68l-2.67,2.67h-88l-2.67,2.67v37.35l2.67,2.67H703.2l2.67,2.67v26.68l-2.67,2.67H620.48l-2.67,2.67v42.69l2.67,2.67h88l2.67,2.67V570.9Z"/><path class="cls-1" d="M703.45,568.49H578l-2.67-2.67V384.38l2.67-2.67h125.4l2.67,2.67v26.68l-2.67,2.67h-88l-2.67,2.67v37.35l2.67,2.67h82.71l2.67,2.67v26.68l-2.67,2.67H615.4l-2.67,2.67V533.8l2.67,2.67h88l2.67,2.67v26.68Z"/><path class="cls-1" d="M698.36,563.4H573l-2.67-2.67V379.3l2.67-2.67h125.4L701,379.3V406l-2.67,2.67h-88l-2.67,2.67v37.35l2.67,2.67H693l2.67,2.67v26.68L693,483.35H610.31L607.64,486v42.69l2.67,2.67h88l2.67,2.67v26.68Z"/><path class="cls-1" d="M693.27,558.31H567.87l-2.67-2.67V374.21l2.67-2.67h125.4l2.67,2.67v26.68l-2.67,2.67h-88l-2.67,2.67v37.35l2.67,2.67h82.71l2.67,2.67V475.6l-2.67,2.67H605.22l-2.67,2.67v42.69l2.67,2.67h88l2.67,2.67v26.68Z"/><path class="cls-1" d="M688.19,553.23H562.78l-2.67-2.67V369.13l2.67-2.67h125.4l2.67,2.67v26.68l-2.67,2.67h-88l-2.67,2.67V438.5l2.67,2.67h82.71l2.67,2.67v26.68l-2.67,2.67H600.14l-2.67,2.67v42.69l2.67,2.67h88l2.67,2.67v26.68Z"/><path class="cls-1" d="M683.1,548.14H557.7L555,545.47V364l2.67-2.67H683.1l2.67,2.67v26.68l-2.67,2.67h-88l-2.67,2.67v37.35l2.67,2.67h82.71l2.67,2.67v26.68l-2.67,2.67H595.05l-2.67,2.67v42.69l2.67,2.67h88l2.67,2.67v26.68Z"/><path class="cls-1" d="M678,543.06H552.61l-2.67-2.67V359l2.67-2.67H678l2.67,2.67v26.68L678,388.3H590L587.3,391v37.35L590,431h82.71l2.67,2.67v26.68L672.68,463H590l-2.67,2.67v42.69L590,511h88l2.67,2.67v26.68Z"/><path class="cls-1" d="M672.93,538H547.53l-2.67-2.67V353.87l2.67-2.67h125.4l2.67,2.67v26.68l-2.67,2.67h-88l-2.67,2.67v37.35l2.67,2.67h82.71l2.67,2.67v26.68l-2.67,2.67H584.88l-2.67,2.67v42.69l2.67,2.67h88l2.67,2.67V535.3Z"/><path class="cls-1" d="M667.84,532.88H542.44l-2.67-2.67V348.78l2.67-2.67h125.4l2.67,2.67v26.68l-2.67,2.67h-88l-2.67,2.67v37.35l2.67,2.67h82.71l2.67,2.67v26.68l-2.67,2.67H579.79l-2.67,2.67V498.2l2.67,2.67h88l2.67,2.67v26.68Z"/><path class="cls-1" d="M662.76,527.8H537.35l-2.67-2.67V343.69l2.67-2.67h125.4l2.67,2.67v26.68L662.76,373h-88L572,375.71v37.35l2.67,2.67h82.71l2.67,2.67v26.68l-2.67,2.67H574.71L572,450.42v42.69l2.67,2.67h88l2.67,2.67v26.68Z"/><path class="cls-1" d="M657.67,522.71H532.27L529.6,520V338.61l2.67-2.67h125.4l2.67,2.67v26.68L657.67,368h-88L567,370.63V408l2.67,2.67h82.71l2.67,2.67V440l-2.67,2.67H569.62L567,445.34V488l2.67,2.67h88l2.67,2.67V520Z"/><path class="cls-1" d="M652.58,517.63H527.18L524.51,515V333.52l2.67-2.67h125.4l2.67,2.67V360.2l-2.67,2.67h-88l-2.67,2.67v37.35l2.67,2.67h82.71l2.67,2.67v26.68l-2.67,2.67H564.54l-2.67,2.67v42.69l2.67,2.67h88l2.67,2.67V515Z"/><path class="cls-1" d="M647.5,512.54H522.1l-2.67-2.67V328.44l2.67-2.67H647.5l2.67,2.67v26.68l-2.67,2.67h-88l-2.67,2.67v37.35l2.67,2.67h82.71l2.67,2.67v26.68l-2.67,2.67H559.45l-2.67,2.67v42.69l2.67,2.67h88l2.67,2.67v26.68Z"/><path class="cls-1" d="M642.41,507.45H517l-2.67-2.67V323.35l2.67-2.67h125.4l2.67,2.67V350l-2.67,2.67h-88l-2.67,2.67v37.35l2.67,2.67h82.71l2.67,2.67v26.68l-2.67,2.67H554.36l-2.67,2.67v42.69l2.67,2.67h88l2.67,2.67v26.68Z"/><path class="cls-1" d="M637.33,502.37H511.92l-2.67-2.67V318.26l2.67-2.67h125.4l2.67,2.67v26.68l-2.67,2.67h-88l-2.67,2.67v37.35l2.67,2.67H632l2.67,2.67v26.68L632,422.32H549.28L546.61,425v42.69l2.67,2.67h88L640,473V499.7Z"/><path class="cls-1" d="M632.24,497.28H506.84l-2.67-2.67V313.18l2.67-2.67h125.4l2.67,2.67v26.68l-2.67,2.67h-88l-2.67,2.67v37.35l2.67,2.67H626.9l2.67,2.67v26.68l-2.67,2.67H544.19l-2.67,2.67V462.6l2.67,2.67h88l2.67,2.67v26.68Z"/><path class="cls-1" d="M627.15,492.2H501.75l-2.67-2.67V308.09l2.67-2.67h125.4l2.67,2.67v26.68l-2.67,2.67h-88l-2.67,2.67v37.35l2.67,2.67h82.71l2.67,2.67v26.68l-2.67,2.67H539.11l-2.67,2.67v42.69l2.67,2.67h88l2.67,2.67v26.68Z"/><path class="cls-1" d="M622.07,487.11H496.67L494,484.44V303l2.67-2.67h125.4l2.67,2.67v26.68l-2.67,2.67H534L531.35,335v37.35L534,375h82.71l2.67,2.67V404.4l-2.67,2.67H534l-2.67,2.67v42.69l2.67,2.67h88l2.67,2.67v26.68Z"/><path class="cls-1" d="M617,482H491.58l-2.67-2.67V297.92l2.67-2.67H617l2.67,2.67V324.6L617,327.27h-88l-2.67,2.67v37.35l2.67,2.67h82.71l2.67,2.67v26.68L611.65,402H528.93l-2.67,2.67v42.69l2.67,2.67h88l2.67,2.67v26.68Z"/><path class="cls-1" d="M611.9,476.94H486.49l-2.67-2.67V292.83l2.67-2.67H611.9l2.67,2.67v26.68l-2.67,2.67h-88l-2.67,2.67v37.35l2.67,2.67h82.71l2.67,2.67v26.68l-2.67,2.67H523.85l-2.67,2.67v42.69l2.67,2.67h88l2.67,2.67v26.68Z"/><path class="cls-1" d="M606.81,471.85H481.41l-2.67-2.67V287.75l2.67-2.67h125.4l2.67,2.67v26.68l-2.67,2.67h-88l-2.67,2.67v37.35l2.67,2.67h82.71l2.67,2.67v26.68l-2.67,2.67H518.76l-2.67,2.67v42.69l2.67,2.67h88l2.67,2.67v26.68Z"/><path class="cls-1" d="M601.72,466.77H476.32l-2.67-2.67V282.66l2.67-2.67h125.4l2.67,2.67v26.68L601.72,312h-88L511,314.68V352l2.67,2.67h82.71l2.67,2.67v26.68l-2.67,2.67H513.68L511,389.39v42.69l2.67,2.67h88l2.67,2.67V464.1Z"/><path class="cls-1" d="M596.64,461.68H471.24L468.57,459V277.58l2.67-2.67h125.4l2.67,2.67v26.68l-2.67,2.67h-88l-2.67,2.67v37.35l2.67,2.67H591.3l2.67,2.67V379l-2.67,2.67H508.59l-2.67,2.67V427l2.67,2.67h88l2.67,2.67V459Z"/><path class="cls-1" d="M591.55,456.59H466.15l-2.67-2.67V272.49l2.67-2.67h125.4l2.67,2.67v26.68l-2.67,2.67h-88l-2.67,2.67v37.35l2.67,2.67h82.71l2.67,2.67v26.68l-2.67,2.67H503.5l-2.67,2.67v42.69l2.67,2.67h88l2.67,2.67v26.68Z"/><path class="cls-1" d="M586.47,451.51H461.06l-2.67-2.67V267.4l2.67-2.67h125.4l2.67,2.67v26.68l-2.67,2.67h-88l-2.67,2.67v37.35l2.67,2.67h82.71l2.67,2.67v26.68l-2.67,2.67H498.42l-2.67,2.67v42.69l2.67,2.67h88l2.67,2.67v26.68Z"/><path class="cls-1" d="M581.38,446.42H456l-2.67-2.67V262.32l2.67-2.67h125.4l2.67,2.67V289l-2.67,2.67h-88l-2.67,2.67v37.35l2.67,2.67H576l2.67,2.67v26.68L576,366.38H493.33L490.66,369v42.69l2.67,2.67h88l2.67,2.67v26.68Z"/></g></svg>