<svg id="Layer_1" data-name="Layer 1" xmlns="http://www.w3.org/2000/svg" viewBox="0 0 388.91 50.57"><defs><style>.cls-1{fill:#bcbec0;}</style></defs><title>JBC Full logo</title><polygon class="cls-1" points="61.88 19.33 66.94 19.33 66.94 32.87 68.66 32.87 68.66 19.33 73.72 19.33 73.72 17.7 61.88 17.7 61.88 19.33"/><polygon class="cls-1" points="88.42 24.43 79.74 24.43 79.74 17.7 78.03 17.7 78.03 32.87 79.74 32.87 79.74 26.06 88.42 26.06 88.42 32.87 90.12 32.87 90.12 17.7 88.42 17.7 88.42 24.43"/><polygon class="cls-1" points="97.18 26.04 105.51 26.04 105.51 24.41 97.18 24.41 97.18 19.33 106.44 19.33 106.44 17.7 95.47 17.7 95.47 32.87 106.55 32.87 106.55 31.24 97.18 31.24 97.18 26.04"/><path class="cls-1" d="M125.17,27.9c0,2.2-1.09,3.57-2.84,3.57-1.46,0-2.39-.6-3.3-2.15l-.16-.28-1.42.89.15.26a5.1,5.1,0,0,0,4.68,2.88c2.8,0,4.61-2.06,4.61-5.26V17.7h-1.71Z"/><path class="cls-1" d="M144.85,25.33A5.89,5.89,0,0,1,139,31.51a6,6,0,0,1-5.89-6.27A5.89,5.89,0,0,1,139,19.06a6,6,0,0,1,5.89,6.27m1.75-.22a7.52,7.52,0,0,0-7.6-7.66,7.68,7.68,0,0,0-7.64,7.87,7.53,7.53,0,0,0,7.6,7.79,7.66,7.66,0,0,0,7.64-7.69l0-.15v-.16Z"/><polygon class="cls-1" points="161.69 24.43 153.02 24.43 153.02 17.7 151.31 17.7 151.31 32.87 153.02 32.87 153.02 26.06 161.69 26.06 161.69 32.87 163.4 32.87 163.4 17.7 161.69 17.7 161.69 24.43"/><polygon class="cls-1" points="179.79 29.76 170.23 17.7 168.75 17.7 168.75 32.87 170.42 32.87 170.42 20.54 180.19 32.87 181.46 32.87 181.46 17.7 179.79 17.7 179.79 29.76"/><path class="cls-1" d="M196.41,26H201c1.54,0,4.11.33,4.11,2.55,0,1.64-1.44,2.65-3.76,2.65h-5Zm0-6.71H201c2.08,0,3.32.88,3.32,2.41s-1.31,2.67-3.42,2.67h-4.48ZM204.1,25A3.8,3.8,0,0,0,206,21.59c0-2.32-2-3.88-5-3.88H194.7V32.87h6.63c3.36,0,5.52-1.68,5.52-4.32A3.68,3.68,0,0,0,204.1,25"/><path class="cls-1" d="M222,26.51c0,3.21-1.61,5-4.52,5s-4.61-1.85-4.61-5.08V17.7h-1.71v8.81c0,4.06,2.4,6.59,6.27,6.59s6.27-2.57,6.27-6.71V17.7H222Z"/><path class="cls-1" d="M240.52,29.34a6.33,6.33,0,0,1-4.78,2.17,6,6,0,0,1-5.83-6.27,5.87,5.87,0,0,1,5.81-6.18,6.36,6.36,0,0,1,4.68,2.05l.23.22,1.21-1.24-.24-.22a8,8,0,0,0-5.86-2.41,7.64,7.64,0,0,0-7.58,7.87,7.5,7.5,0,0,0,7.54,7.79,8,8,0,0,0,6-2.62l.23-.23-1.18-1.15Z"/><polygon class="cls-1" points="258.66 17.7 256.3 17.7 247.49 26.79 247.49 17.7 245.78 17.7 245.78 32.87 247.49 32.87 247.49 28.98 250.76 25.67 256.62 32.87 258.84 32.87 251.98 24.45 258.66 17.7"/><path class="cls-1" d="M281.9,29.34a6.33,6.33,0,0,1-4.78,2.17,6,6,0,0,1-5.83-6.27,5.87,5.87,0,0,1,5.81-6.18,6.36,6.36,0,0,1,4.68,2.05l.23.22,1.21-1.24-.24-.22a8,8,0,0,0-5.86-2.41,7.64,7.64,0,0,0-7.58,7.87,7.5,7.5,0,0,0,7.54,7.79,8,8,0,0,0,6-2.62l.23-.23-1.18-1.14Z"/><path class="cls-1" d="M299.6,25.33a5.89,5.89,0,0,1-5.85,6.18,6,6,0,0,1-5.89-6.27,5.89,5.89,0,0,1,5.85-6.18,6,6,0,0,1,5.89,6.27m1.75-.22a7.52,7.52,0,0,0-7.6-7.66,7.68,7.68,0,0,0-7.64,7.87,7.53,7.53,0,0,0,7.6,7.79,7.66,7.66,0,0,0,7.64-7.69l0-.15v-.16Z"/><polygon class="cls-1" points="313.22 26.05 307.56 17.7 306.06 17.7 306.06 32.87 307.73 32.87 307.73 20.94 313 28.61 313.41 28.61 318.68 20.94 318.68 32.87 320.39 32.87 320.39 17.7 318.89 17.7 313.22 26.05"/><path class="cls-1" d="M335.33,22.57c0,2-1.65,3.26-4.21,3.26h-3.67V19.33h3.8c2.6,0,4.09,1.16,4.09,3.24m-4-4.86h-5.59V32.87h1.71V27.45h3.61c3,0,6-1.53,6-5,0-2.89-2.24-4.76-5.71-4.76"/><path class="cls-1" d="M349.48,27.19H342.8l3.35-7.33Zm-4-9.59-7.06,15.27h1.82l1.85-4.07h8.17l1.85,4.07H354L346.89,17.6Z"/><polygon class="cls-1" points="368.93 29.76 359.37 17.7 357.88 17.7 357.88 32.87 359.55 32.87 359.55 20.54 369.32 32.87 370.59 32.87 370.59 17.7 368.93 17.7 368.93 29.76"/><polygon class="cls-1" points="386.85 17.7 381.56 25.28 376.28 17.7 374.16 17.7 380.68 26.9 380.68 32.87 382.39 32.87 382.39 26.88 388.91 17.7 386.85 17.7"/><path class="cls-1" d="M36.28,17.68a5.18,5.18,0,0,0,5.06-5v-.07c0-2.79-2.38-4.52-6.2-4.52H29v9.7a16.33,16.33,0,0,1,1.94-.12Z"/><path class="cls-1" d="M21.24,8.1V21.9a12.62,12.62,0,0,1,3.19-2.52,19.13,19.13,0,0,1,2.26-1.06V8.1H21.24Z"/><path class="cls-1" d="M36.25,20h-6A11.17,11.17,0,0,0,29,20v9.76H35.8c4.3,0,7-1.93,7-5v-.07c0-2.8-2.74-4.73-6.52-4.73"/><path class="cls-1" d="M45.09,24.75c0,4.36-3.67,7.17-9.36,7.17h-9V20.67a15.59,15.59,0,0,0-2.26,1.26,11.43,11.43,0,0,0-4.36,9.19v.07c0,6.35,4.67,11.32,10.63,11.32,3.33,0,5.84-1.14,8.67-3.93l.13-.13L41.05,40l-.14.14a13.77,13.77,0,0,1-10.29,4.51c-7.36,0-12.91-5.74-12.91-13.34v-.07s0-.06,0-.1a7.7,7.7,0,0,1-4.23,1.19c-3.49,0-6.08-1.6-7.91-4.89l-.09-.16,1.89-1.19.1.17c1.68,2.85,3.39,4,6.12,4a5,5,0,0,0,4.8-3.38c.06-.17.12-.36.19-.54A9.54,9.54,0,0,0,19,23.55V8.1h-6.6V6H35.18c5.15,0,8.49,2.54,8.49,6.48v.07a6.36,6.36,0,0,1-4,6c3.53,1.07,5.4,3.18,5.4,6.14ZM0,50.57H50.57V0H0Z"/></svg>