<svg xmlns="http://www.w3.org/2000/svg" viewBox="0 0 1896 5154.75">
  <defs>
    <style>
      .cls-1,.cls-2,.cls-3,.cls-4,.cls-5{fill:#fff;stroke-width:3px;}.cls-1{stroke:#de761c;}.cls-2{stroke:#005d98;}.cls-3{stroke:#007444;}.cls-4{stroke:#862567;}.cls-5{stroke:#231f20;}
    </style>
  </defs>
  <title>
    Artboard 3
  </title>
  <g id="Layer_2" data-name="Layer 2">
    <path class="cls-1" d="M801.07 447.7H681l-2.66-2.7V263.6l2.67-2.67h32l2.67 2.67V413l2.67 2.67h82.71l2.67 2.67V445z"/>
    <path class="cls-2" d="M1400.8 447.7h-125.4l-2.67-2.67V263.6l2.67-2.67h125.4l2.67 2.67v26.68l-2.67 2.67h-88l-2.67 2.67V333l2.67 2.67h82.71l2.67 2.67V365l-2.67 2.67h-82.71l-2.67 2.67V413l2.67 2.67h88l2.67 2.67V445z"/>
    <path class="cls-3" d="M316.9 450.37c-42.69 0-64-26.68-64-53.36l2.67-2.67h32l2.67 2.67c0 10.67 8 21.35 26.68 21.35 21.35 0 32-13.34 32-32 0-21.35-10.67-32-26.68-32-10.67 0-16 5.34-16 5.34h-13.36l-2.66-2.7v-24l37.35-37.35v-2.67h-64l-2.67-2.67V263.6l2.67-2.67h109.36l2.67 2.67v26.68l-2.67 5.34-34.69 32v2.67c24 0 48 21.34 48 56s-23.98 64.08-69.34 64.08z"/>
    <path class="cls-1" d="M1466.94 260.93h37.35l5.34 2.67 72 122.74h2.67V263.6l2.67-2.67h32l2.67 2.67V445l-2.64 2.7h-37.35l-5.34-2.67-72-122.74h-2.67V445l-2.64 2.7h-32l-2.67-2.67V263.6z"/>
    <path class="cls-4" d="M982.1 447.7H856.7L854 445V263.6l2.67-2.67H982.1l2.67 2.67v26.68l-2.67 2.67h-88l-2.67 2.67V333l2.67 2.67h82.71l2.67 2.67V365l-2.67 2.67h-82.76l-2.67 2.67V413l2.67 2.67h88l2.67 2.67V445z"/>
    <path class="cls-5" d="M581.38 446.42H456l-2.67-2.67V262.32l2.67-2.67h125.4l2.67 2.67V289l-2.67 2.67h-88l-2.67 2.67v37.35l2.67 2.67H576l2.67 2.67v26.68l-2.67 2.67h-82.67l-2.67 2.62v42.69l2.67 2.67h88l2.67 2.67v26.68zM1137.59 442.21l-2.67 2.67h-34.69l-2.67-2.67-58.7-154.75v-26.69l2.67-2.67h24l2.67 2.67 48 130.74h2.67l48-130.74 2.67-2.67h24l2.67 2.67v26.68z"/>
  </g>
</svg>
